<?xml version="1.0" standalone="no"?>
<!DOCTYPE svg PUBLIC "-//W3C//DTD SVG 20010904//EN"
 "http://www.w3.org/TR/2001/REC-SVG-20010904/DTD/svg10.dtd">
<svg xmlns="http://www.w3.org/2000/svg" viewBox="0 0 303 303" width="48" height="48">
<metadata>
Created by potrace 1.16, written by Peter Selinger 2001-2019
</metadata>
<g transform="translate(0.000000,303.000000) scale(0.100000,-0.100000)"
fill="#2200ff" stroke="none">
<path d="M1345 2749 c-295 -53 -496 -152 -690 -340 -150 -146 -251 -303 -318
-499 -98 -285 -70 -699 64 -948 195 -361 490 -583 884 -667 109 -23 360 -23
470 -1 248 52 464 168 639 345 379 381 471 932 237 1424 -199 421 -649 700
-1121 696 -63 -1 -137 -5 -165 -10z m269 -416 c42 -26 58 -48 84 -115 l11 -26
133 -4 c151 -4 181 -14 223 -75 l25 -38 0 -558 0 -557 -24 -39 c-46 -72 -41
-71 -531 -71 -427 0 -438 1 -475 21 -23 13 -46 37 -59 64 -21 41 -21 52 -21
581 0 504 2 542 19 580 32 71 72 87 229 94 106 4 136 8 142 20 35 76 50 98 85
122 53 36 100 36 159 1z"/>
<path d="M1502 2244 c-32 -22 -30 -78 3 -100 44 -28 94 5 95 63 0 17 -40 53
-60 53 -8 0 -26 -7 -38 -16z"/>
<path d="M1102 2074 l-22 -15 0 -539 c0 -594 -3 -563 63 -575 18 -3 208 -5
424 -3 361 3 394 4 410 21 17 17 18 53 18 553 l0 536 -24 19 c-20 16 -40 19
-135 19 -61 0 -116 -4 -122 -8 -6 -4 -14 -22 -17 -41 -12 -59 -17 -61 -161
-61 -144 0 -156 4 -156 55 0 50 -13 55 -140 55 -88 0 -121 -4 -138 -16z m465
-352 c11 -7 16 -26 14 -49 -3 -28 -59 -43 -163 -43 -118 0 -148 12 -148 59 0
15 3 31 7 34 9 9 275 9 290 -1z m232 -10 c23 -43 -16 -85 -59 -62 -22 12 -27
49 -8 68 18 18 56 14 67 -6z m-231 -214 c19 -19 15 -66 -7 -78 -11 -5 -72 -10
-136 -10 -127 0 -155 8 -155 45 0 54 2 55 149 55 93 0 141 -4 149 -12z m230
-14 c19 -41 -3 -71 -48 -64 -32 4 -40 49 -14 74 23 24 49 19 62 -10z m-225
-225 c8 -11 13 -29 10 -39 -9 -32 -54 -42 -178 -38 -122 3 -135 8 -135 54 0
39 18 44 156 44 123 0 134 -2 147 -21z m213 13 c18 -12 24 -42 14 -63 -12 -21
-50 -25 -68 -7 -34 34 14 97 54 70z"/>
</g>
</svg>
