<?xml version="1.0" standalone="no"?>
<!DOCTYPE svg PUBLIC "-//W3C//DTD SVG 20010904//EN"
 "http://www.w3.org/TR/2001/REC-SVG-20010904/DTD/svg10.dtd">
<svg xmlns="http://www.w3.org/2000/svg" viewBox="0 0 303 303" width="48" height="48">
<metadata>
Created by potrace 1.16, written by Peter Selinger 2001-2019
</metadata>
<g transform="translate(0.000000,303.000000) scale(0.100000,-0.100000)"
fill="#2200ff" stroke="none">
<path d="M1314 2741 c-382 -71 -692 -288 -879 -616 -197 -346 -213 -778 -43
-1145 46 -97 143 -235 235 -331 175 -182 392 -302 645 -356 62 -13 127 -18
253 -17 151 0 182 3 276 27 98 25 177 53 269 94 80 36 238 151 324 237 282
282 415 687 350 1067 -80 470 -376 827 -817 986 -183 66 -430 87 -613 54z
m308 -731 c34 -22 66 -40 71 -40 13 0 34 -28 52 -69 17 -39 20 -127 5 -167 -8
-19 -8 -30 0 -38 17 -17 11 -53 -15 -84 -14 -17 -25 -34 -25 -39 0 -6 -18 -35
-40 -66 -24 -33 -40 -67 -40 -84 0 -47 49 -94 146 -143 87 -43 131 -69 165
-100 26 -23 68 -112 71 -151 l3 -34 -497 -3 -498 -2 0 25 c0 97 75 185 220
258 103 52 131 71 149 104 20 39 13 78 -24 124 -19 24 -35 49 -35 55 0 5 -14
29 -31 53 -30 40 -31 44 -19 80 9 28 9 43 1 59 -29 54 1 181 55 235 41 40 106
65 172 66 46 1 61 -4 114 -39z m-472 -245 c5 -177 7 -186 58 -253 28 -37 32
-75 9 -100 -9 -10 -44 -32 -79 -50 -67 -34 -152 -106 -187 -159 -26 -38 -61
-145 -61 -184 l0 -29 -105 0 -105 0 0 34 c0 19 4 37 9 41 5 3 12 18 16 34 9
41 68 95 150 137 112 57 135 78 135 124 0 21 -4 41 -9 45 -6 3 -21 30 -35 60
-14 29 -31 57 -36 60 -6 4 -10 60 -10 136 0 149 8 174 67 210 21 13 40 26 43
29 21 24 60 39 95 37 l40 -2 5 -170z m851 151 c19 -14 48 -32 64 -41 59 -31
68 -55 69 -193 2 -123 2 -125 -31 -190 -19 -35 -40 -74 -48 -86 -19 -26 -19
-66 0 -93 8 -11 53 -40 100 -63 90 -45 175 -118 175 -150 0 -10 7 -25 15 -34
8 -8 15 -29 15 -46 l0 -31 -107 3 -108 3 -6 50 c-18 138 -110 253 -264 330
-73 37 -93 80 -56 126 62 79 66 93 68 264 1 88 2 163 2 168 2 18 80 6 112 -17z"/>
</g>
</svg>
