<?xml version="1.0" standalone="no"?>
<!DOCTYPE svg PUBLIC "-//W3C//DTD SVG 20010904//EN"
 "http://www.w3.org/TR/2001/REC-SVG-20010904/DTD/svg10.dtd">
<svg xmlns="http://www.w3.org/2000/svg" viewBox="0 0 303 303" width="48" height="48">
<metadata>
Created by potrace 1.16, written by Peter Selinger 2001-2019
</metadata>
<g transform="translate(0.000000,303.000000) scale(0.100000,-0.100000)"
fill="#2200ff" stroke="none">
<path d="M1365 2750 c-245 -23 -528 -159 -714 -342 -213 -210 -328 -446 -369
-756 -58 -441 157 -904 541 -1165 133 -91 272 -149 443 -187 114 -25 364 -31
456 -10 174 38 272 69 343 108 158 86 212 125 323 235 182 179 300 397 349
647 26 131 23 368 -5 495 -56 250 -161 444 -338 621 -270 270 -624 392 -1029
354z m-386 -659 c104 -53 101 -49 135 -156 13 -40 35 -69 107 -141 l91 -92
-42 -46 c-23 -25 -47 -46 -53 -46 -6 0 -54 43 -108 95 -69 68 -103 95 -121 95
-14 0 -28 3 -32 8 -4 4 -24 12 -43 17 -32 9 -41 20 -87 112 l-52 102 50 50
c28 28 52 51 54 51 1 0 47 -22 101 -49z m896 43 c13 -5 -3 -26 -75 -99 -77
-77 -92 -97 -87 -117 14 -60 39 -144 45 -149 9 -9 133 -39 157 -39 11 0 58 39
108 88 101 100 111 99 104 -8 -6 -89 -38 -160 -99 -215 -66 -59 -141 -84 -204
-67 -24 7 -52 12 -62 12 -9 0 -154 -138 -322 -306 -168 -168 -322 -314 -342
-325 -49 -25 -94 -24 -142 4 -65 37 -93 120 -66 191 5 14 152 168 325 342 311
311 316 317 308 348 -4 17 -8 60 -8 96 0 57 5 71 33 111 40 59 94 102 152 122
46 16 145 22 175 11z m141 -1046 c17 -33 18 -91 2 -120 -37 -65 -115 -95 -171
-67 -26 13 -287 270 -287 282 0 5 41 49 91 99 l91 91 130 -129 c71 -71 136
-141 144 -156z"/>
<path d="M984 1074 c-16 -24 -16 -29 -3 -53 21 -37 72 -41 94 -7 14 21 15 29
3 53 -19 40 -70 44 -94 7z"/>
</g>
</svg>
