<?xml version="1.0" standalone="no"?>
<!DOCTYPE svg PUBLIC "-//W3C//DTD SVG 20010904//EN"
 "http://www.w3.org/TR/2001/REC-SVG-20010904/DTD/svg10.dtd">
<svg xmlns="http://www.w3.org/2000/svg" viewBox="0 0 301 301" width="48" height="48">
<metadata>
Created by potrace 1.16, written by Peter Selinger 2001-2019
</metadata>
<g transform="translate(0.000000,301.000000) scale(0.100000,-0.100000)"
fill="#2200ff" stroke="none">
<path d="M1410 2738 c-296 -20 -565 -143 -780 -358 -189 -188 -314 -433 -350
-680 -14 -99 -12 -327 5 -422 73 -422 379 -788 787 -942 150 -56 240 -71 438
-71 147 0 200 4 260 19 245 60 437 165 604 329 388 383 485 940 249 1432 -84
177 -232 352 -395 468 -238 170 -515 246 -818 225z m649 -632 c110 -57 61
-206 -68 -206 -21 0 -41 -3 -43 -7 -1 -5 -40 -39 -85 -76 -70 -58 -83 -73 -83
-99 0 -42 -57 -98 -100 -98 -53 0 -87 24 -109 77 -10 25 -29 40 -94 72 -64 31
-85 37 -100 29 -11 -5 -36 -8 -56 -5 -31 4 -49 -4 -124 -51 -75 -49 -89 -61
-97 -94 -18 -64 -85 -101 -141 -78 -44 18 -69 56 -69 103 0 33 6 46 37 74 32
30 41 34 77 30 37 -3 91 13 106 32 3 4 29 22 57 40 42 26 55 41 63 70 28 104
156 116 200 19 15 -35 29 -46 96 -80 73 -36 82 -38 117 -28 20 6 42 8 47 5 14
-9 46 11 130 81 64 54 78 71 88 110 7 25 18 51 25 57 42 39 81 46 126 23z m39
-452 l22 -15 0 -380 0 -380 -107 3 -108 3 -3 366 c-2 358 -2 367 19 392 18 24
27 27 88 27 44 0 74 -5 89 -16z m-674 -120 c14 -13 16 -58 16 -335 l0 -320
-107 3 -108 3 0 316 c0 253 3 319 14 332 19 24 162 24 185 1z m338 -111 c17
-15 18 -37 18 -280 l0 -264 -107 3 -108 3 -3 251 c-2 241 -2 252 19 277 19 25
27 27 91 27 52 0 76 -4 90 -17z m-684 -109 c22 -15 22 -19 22 -225 l0 -209
-105 0 -105 0 0 207 c0 247 -2 243 99 243 44 0 74 -5 89 -16z"/>
</g>
</svg>
