<?xml version="1.0" standalone="no"?>
<!DOCTYPE svg PUBLIC "-//W3C//DTD SVG 20010904//EN"
 "http://www.w3.org/TR/2001/REC-SVG-20010904/DTD/svg10.dtd">
<svg xmlns="http://www.w3.org/2000/svg" viewBox="0 0 302 302" width="48" height="48">
<metadata>
Created by potrace 1.16, written by Peter Selinger 2001-2019
</metadata>
<g transform="translate(0.000000,302.000000) scale(0.100000,-0.100000)"
fill="#2200ff" stroke="none">
<path d="M1355 2751 c-391 -40 -774 -308 -954 -667 -81 -163 -115 -280 -133
-462 -54 -540 290 -1080 809 -1271 223 -82 499 -97 733 -39 218 53 420 169
582 335 128 130 211 257 273 418 57 149 76 243 82 410 8 239 -31 408 -145 629
-167 320 -465 544 -840 631 -78 18 -297 27 -407 16z m755 -681 c0 -27 -4 -50
-9 -50 -5 0 -12 -24 -16 -52 -7 -57 -32 -152 -46 -180 -5 -10 -9 -23 -9 -28 0
-28 -117 -250 -160 -304 -39 -49 -106 -124 -135 -152 -28 -27 -33 -39 -38
-102 -3 -39 -13 -84 -22 -101 -30 -58 -189 -154 -270 -163 l-30 -3 3 60 c2 33
8 82 14 109 10 44 9 51 -8 63 -10 7 -31 13 -48 13 -45 0 -166 121 -166 165 0
17 -6 40 -14 50 -13 18 -18 18 -62 8 -27 -7 -76 -13 -109 -15 l-60 -3 3 34 c6
58 70 180 121 231 49 49 79 60 169 60 38 0 48 6 90 48 104 104 211 181 328
235 21 10 52 25 67 33 16 8 35 14 43 14 8 0 22 4 32 9 30 17 115 39 174 46 32
3 60 11 63 16 4 5 26 9 51 9 l44 0 0 -50z m-990 -827 c-1 -5 -7 -19 -15 -33
-43 -76 19 -138 95 -95 31 18 40 18 40 2 0 -19 -49 -61 -87 -77 -18 -6 -56
-13 -85 -14 l-53 -1 -3 34 c-4 40 22 124 50 163 17 25 59 39 58 21z"/>
<path d="M1667 1816 c-15 -7 -34 -22 -43 -34 -22 -32 -20 -99 3 -131 17 -22
29 -26 76 -29 65 -3 87 10 107 68 16 47 -7 102 -51 124 -37 19 -54 19 -92 2z"/>
</g>
</svg>
