<?xml version="1.0" standalone="no"?>
<!DOCTYPE svg PUBLIC "-//W3C//DTD SVG 20010904//EN"
 "http://www.w3.org/TR/2001/REC-SVG-20010904/DTD/svg10.dtd">
<svg xmlns="http://www.w3.org/2000/svg" viewBox="0 0 302 302" width="48" height="48">
<metadata>
Created by potrace 1.16, written by Peter Selinger 2001-2019
</metadata>
<g transform="translate(0.000000,302.000000) scale(0.100000,-0.100000)"
fill="#2200ff" stroke="none">
<path d="M1375 2754 c-312 -42 -550 -158 -751 -362 -103 -105 -195 -235 -239
-337 -73 -171 -98 -259 -116 -415 -30 -264 27 -506 183 -781 7 -13 46 -65 86
-116 195 -246 463 -402 777 -453 100 -16 305 -14 409 5 111 19 279 76 366 123
209 114 399 303 513 512 169 309 194 726 62 1042 -38 89 -114 230 -147 272
-203 259 -422 406 -713 481 -79 20 -132 26 -250 29 -82 3 -163 3 -180 0z m210
-578 c198 -52 337 -209 382 -429 17 -87 19 -90 95 -179 105 -123 103 -147 -17
-186 l-60 -19 -5 -119 c-3 -69 -10 -128 -18 -141 -16 -29 -45 -43 -154 -78
-111 -36 -131 -56 -138 -138 l-5 -62 -261 -3 -261 -2 -7 126 c-3 69 -13 140
-20 159 -8 18 -36 57 -63 87 -94 103 -141 189 -168 303 -68 283 124 591 420
676 73 21 211 24 280 5z"/>
</g>
</svg>
