<?xml version="1.0" encoding="utf-8" standalone="no"?>
<!DOCTYPE svg PUBLIC "-//W3C//DTD SVG 1.1//EN"
  "http://www.w3.org/Graphics/SVG/1.1/DTD/svg11.dtd">
<!-- Created with matplotlib (https://matplotlib.org/) -->
<svg height="440.39952pt" version="1.1" viewBox="0 0 584.396891 440.39952" width="584.396891pt" xmlns="http://www.w3.org/2000/svg" xmlns:xlink="http://www.w3.org/1999/xlink">
 <defs>
  <style type="text/css">
*{stroke-linecap:butt;stroke-linejoin:round;}
  </style>
 </defs>
 <g id="figure_1">
  <g id="patch_1">
   <path d="M 0 440.39952 
L 584.396891 440.39952 
L 584.396891 0 
L 0 0 
z
" style="fill:none;"/>
  </g>
  <g id="axes_1">
   <g id="patch_2">
    <path d="M 48.105708 193.099517 
L 572.100563 193.099517 
L 572.100563 22.318125 
L 48.105708 22.318125 
z
" style="fill:#ffffff;"/>
   </g>
   <g id="matplotlib.axis_1">
    <g id="xtick_1">
     <g id="line2d_1">
      <path clip-path="url(#pfb90dba5a5)" d="M 127.270398 193.099517 
L 127.270398 22.318125 
" style="fill:none;stroke:#dedede;stroke-linecap:square;stroke-width:0.8;"/>
     </g>
     <g id="text_1">
      <!-- 1951 -->
      <defs>
       <path d="M 12.40625 8.296875 
L 28.515625 8.296875 
L 28.515625 63.921875 
L 10.984375 60.40625 
L 10.984375 69.390625 
L 28.421875 72.90625 
L 38.28125 72.90625 
L 38.28125 8.296875 
L 54.390625 8.296875 
L 54.390625 0 
L 12.40625 0 
z
" id="DejaVuSans-49"/>
       <path d="M 10.984375 1.515625 
L 10.984375 10.5 
Q 14.703125 8.734375 18.5 7.8125 
Q 22.3125 6.890625 25.984375 6.890625 
Q 35.75 6.890625 40.890625 13.453125 
Q 46.046875 20.015625 46.78125 33.40625 
Q 43.953125 29.203125 39.59375 26.953125 
Q 35.25 24.703125 29.984375 24.703125 
Q 19.046875 24.703125 12.671875 31.3125 
Q 6.296875 37.9375 6.296875 49.421875 
Q 6.296875 60.640625 12.9375 67.421875 
Q 19.578125 74.21875 30.609375 74.21875 
Q 43.265625 74.21875 49.921875 64.515625 
Q 56.59375 54.828125 56.59375 36.375 
Q 56.59375 19.140625 48.40625 8.859375 
Q 40.234375 -1.421875 26.421875 -1.421875 
Q 22.703125 -1.421875 18.890625 -0.6875 
Q 15.09375 0.046875 10.984375 1.515625 
z
M 30.609375 32.421875 
Q 37.25 32.421875 41.125 36.953125 
Q 45.015625 41.5 45.015625 49.421875 
Q 45.015625 57.28125 41.125 61.84375 
Q 37.25 66.40625 30.609375 66.40625 
Q 23.96875 66.40625 20.09375 61.84375 
Q 16.21875 57.28125 16.21875 49.421875 
Q 16.21875 41.5 20.09375 36.953125 
Q 23.96875 32.421875 30.609375 32.421875 
z
" id="DejaVuSans-57"/>
       <path d="M 10.796875 72.90625 
L 49.515625 72.90625 
L 49.515625 64.59375 
L 19.828125 64.59375 
L 19.828125 46.734375 
Q 21.96875 47.46875 24.109375 47.828125 
Q 26.265625 48.1875 28.421875 48.1875 
Q 40.625 48.1875 47.75 41.5 
Q 54.890625 34.8125 54.890625 23.390625 
Q 54.890625 11.625 47.5625 5.09375 
Q 40.234375 -1.421875 26.90625 -1.421875 
Q 22.3125 -1.421875 17.546875 -0.640625 
Q 12.796875 0.140625 7.71875 1.703125 
L 7.71875 11.625 
Q 12.109375 9.234375 16.796875 8.0625 
Q 21.484375 6.890625 26.703125 6.890625 
Q 35.15625 6.890625 40.078125 11.328125 
Q 45.015625 15.765625 45.015625 23.390625 
Q 45.015625 31 40.078125 35.4375 
Q 35.15625 39.890625 26.703125 39.890625 
Q 22.75 39.890625 18.8125 39.015625 
Q 14.890625 38.140625 10.796875 36.28125 
z
" id="DejaVuSans-53"/>
      </defs>
      <g style="fill:#333333;" transform="translate(116.670473 206.429015)scale(0.0833 -0.0833)">
       <use xlink:href="#DejaVuSans-49"/>
       <use x="63.623047" xlink:href="#DejaVuSans-57"/>
       <use x="127.246094" xlink:href="#DejaVuSans-53"/>
       <use x="190.869141" xlink:href="#DejaVuSans-49"/>
      </g>
     </g>
    </g>
    <g id="xtick_2">
     <g id="line2d_2">
      <path clip-path="url(#pfb90dba5a5)" d="M 217.74433 193.099517 
L 217.74433 22.318125 
" style="fill:none;stroke:#dedede;stroke-linecap:square;stroke-width:0.8;"/>
     </g>
     <g id="text_2">
      <!-- 1953 -->
      <defs>
       <path d="M 40.578125 39.3125 
Q 47.65625 37.796875 51.625 33 
Q 55.609375 28.21875 55.609375 21.1875 
Q 55.609375 10.40625 48.1875 4.484375 
Q 40.765625 -1.421875 27.09375 -1.421875 
Q 22.515625 -1.421875 17.65625 -0.515625 
Q 12.796875 0.390625 7.625 2.203125 
L 7.625 11.71875 
Q 11.71875 9.328125 16.59375 8.109375 
Q 21.484375 6.890625 26.8125 6.890625 
Q 36.078125 6.890625 40.9375 10.546875 
Q 45.796875 14.203125 45.796875 21.1875 
Q 45.796875 27.640625 41.28125 31.265625 
Q 36.765625 34.90625 28.71875 34.90625 
L 20.21875 34.90625 
L 20.21875 43.015625 
L 29.109375 43.015625 
Q 36.375 43.015625 40.234375 45.921875 
Q 44.09375 48.828125 44.09375 54.296875 
Q 44.09375 59.90625 40.109375 62.90625 
Q 36.140625 65.921875 28.71875 65.921875 
Q 24.65625 65.921875 20.015625 65.03125 
Q 15.375 64.15625 9.8125 62.3125 
L 9.8125 71.09375 
Q 15.4375 72.65625 20.34375 73.4375 
Q 25.25 74.21875 29.59375 74.21875 
Q 40.828125 74.21875 47.359375 69.109375 
Q 53.90625 64.015625 53.90625 55.328125 
Q 53.90625 49.265625 50.4375 45.09375 
Q 46.96875 40.921875 40.578125 39.3125 
z
" id="DejaVuSans-51"/>
      </defs>
      <g style="fill:#333333;" transform="translate(207.144405 206.429015)scale(0.0833 -0.0833)">
       <use xlink:href="#DejaVuSans-49"/>
       <use x="63.623047" xlink:href="#DejaVuSans-57"/>
       <use x="127.246094" xlink:href="#DejaVuSans-53"/>
       <use x="190.869141" xlink:href="#DejaVuSans-51"/>
      </g>
     </g>
    </g>
    <g id="xtick_3">
     <g id="line2d_3">
      <path clip-path="url(#pfb90dba5a5)" d="M 308.218262 193.099517 
L 308.218262 22.318125 
" style="fill:none;stroke:#dedede;stroke-linecap:square;stroke-width:0.8;"/>
     </g>
     <g id="text_3">
      <!-- 1955 -->
      <g style="fill:#333333;" transform="translate(297.618337 206.429015)scale(0.0833 -0.0833)">
       <use xlink:href="#DejaVuSans-49"/>
       <use x="63.623047" xlink:href="#DejaVuSans-57"/>
       <use x="127.246094" xlink:href="#DejaVuSans-53"/>
       <use x="190.869141" xlink:href="#DejaVuSans-53"/>
      </g>
     </g>
    </g>
    <g id="xtick_4">
     <g id="line2d_4">
      <path clip-path="url(#pfb90dba5a5)" d="M 398.692193 193.099517 
L 398.692193 22.318125 
" style="fill:none;stroke:#dedede;stroke-linecap:square;stroke-width:0.8;"/>
     </g>
     <g id="text_4">
      <!-- 1957 -->
      <defs>
       <path d="M 8.203125 72.90625 
L 55.078125 72.90625 
L 55.078125 68.703125 
L 28.609375 0 
L 18.3125 0 
L 43.21875 64.59375 
L 8.203125 64.59375 
z
" id="DejaVuSans-55"/>
      </defs>
      <g style="fill:#333333;" transform="translate(388.092268 206.429015)scale(0.0833 -0.0833)">
       <use xlink:href="#DejaVuSans-49"/>
       <use x="63.623047" xlink:href="#DejaVuSans-57"/>
       <use x="127.246094" xlink:href="#DejaVuSans-53"/>
       <use x="190.869141" xlink:href="#DejaVuSans-55"/>
      </g>
     </g>
    </g>
    <g id="xtick_5">
     <g id="line2d_5">
      <path clip-path="url(#pfb90dba5a5)" d="M 489.166125 193.099517 
L 489.166125 22.318125 
" style="fill:none;stroke:#dedede;stroke-linecap:square;stroke-width:0.8;"/>
     </g>
     <g id="text_5">
      <!-- 1959 -->
      <g style="fill:#333333;" transform="translate(478.5662 206.429015)scale(0.0833 -0.0833)">
       <use xlink:href="#DejaVuSans-49"/>
       <use x="63.623047" xlink:href="#DejaVuSans-57"/>
       <use x="127.246094" xlink:href="#DejaVuSans-53"/>
       <use x="190.869141" xlink:href="#DejaVuSans-57"/>
      </g>
     </g>
    </g>
    <g id="xtick_6"/>
    <g id="xtick_7"/>
    <g id="xtick_8"/>
    <g id="xtick_9"/>
    <g id="xtick_10"/>
    <g id="xtick_11"/>
   </g>
   <g id="matplotlib.axis_2">
    <g id="ytick_1">
     <g id="line2d_6">
      <path clip-path="url(#pfb90dba5a5)" d="M 48.105708 182.700521 
L 572.100563 182.700521 
" style="fill:none;stroke:#dedede;stroke-linecap:square;stroke-width:0.8;"/>
     </g>
     <g id="line2d_7">
      <defs>
       <path d="M 0 0 
L -3.5 0 
" id="m1e39bc4634" style="stroke:#333333;stroke-width:0.8;"/>
      </defs>
      <g>
       <use style="fill:#333333;stroke:#333333;stroke-width:0.8;" x="48.105708" xlink:href="#m1e39bc4634" y="182.700521"/>
      </g>
     </g>
     <g id="text_6">
      <!-- −40 -->
      <defs>
       <path d="M 10.59375 35.5 
L 73.1875 35.5 
L 73.1875 27.203125 
L 10.59375 27.203125 
z
" id="DejaVuSans-8722"/>
       <path d="M 37.796875 64.3125 
L 12.890625 25.390625 
L 37.796875 25.390625 
z
M 35.203125 72.90625 
L 47.609375 72.90625 
L 47.609375 25.390625 
L 58.015625 25.390625 
L 58.015625 17.1875 
L 47.609375 17.1875 
L 47.609375 0 
L 37.796875 0 
L 37.796875 17.1875 
L 4.890625 17.1875 
L 4.890625 26.703125 
z
" id="DejaVuSans-52"/>
       <path d="M 31.78125 66.40625 
Q 24.171875 66.40625 20.328125 58.90625 
Q 16.5 51.421875 16.5 36.375 
Q 16.5 21.390625 20.328125 13.890625 
Q 24.171875 6.390625 31.78125 6.390625 
Q 39.453125 6.390625 43.28125 13.890625 
Q 47.125 21.390625 47.125 36.375 
Q 47.125 51.421875 43.28125 58.90625 
Q 39.453125 66.40625 31.78125 66.40625 
z
M 31.78125 74.21875 
Q 44.046875 74.21875 50.515625 64.515625 
Q 56.984375 54.828125 56.984375 36.375 
Q 56.984375 17.96875 50.515625 8.265625 
Q 44.046875 -1.421875 31.78125 -1.421875 
Q 19.53125 -1.421875 13.0625 8.265625 
Q 6.59375 17.96875 6.59375 36.375 
Q 6.59375 54.828125 13.0625 64.515625 
Q 19.53125 74.21875 31.78125 74.21875 
z
" id="DejaVuSans-48"/>
      </defs>
      <g style="fill:#333333;" transform="translate(23.525503 185.86527)scale(0.0833 -0.0833)">
       <use xlink:href="#DejaVuSans-8722"/>
       <use x="83.789062" xlink:href="#DejaVuSans-52"/>
       <use x="147.412109" xlink:href="#DejaVuSans-48"/>
      </g>
     </g>
    </g>
    <g id="ytick_2">
     <g id="line2d_8">
      <path clip-path="url(#pfb90dba5a5)" d="M 48.105708 160.07826 
L 572.100563 160.07826 
" style="fill:none;stroke:#dedede;stroke-linecap:square;stroke-width:0.8;"/>
     </g>
     <g id="line2d_9">
      <g>
       <use style="fill:#333333;stroke:#333333;stroke-width:0.8;" x="48.105708" xlink:href="#m1e39bc4634" y="160.07826"/>
      </g>
     </g>
     <g id="text_7">
      <!-- −20 -->
      <defs>
       <path d="M 19.1875 8.296875 
L 53.609375 8.296875 
L 53.609375 0 
L 7.328125 0 
L 7.328125 8.296875 
Q 12.9375 14.109375 22.625 23.890625 
Q 32.328125 33.6875 34.8125 36.53125 
Q 39.546875 41.84375 41.421875 45.53125 
Q 43.3125 49.21875 43.3125 52.78125 
Q 43.3125 58.59375 39.234375 62.25 
Q 35.15625 65.921875 28.609375 65.921875 
Q 23.96875 65.921875 18.8125 64.3125 
Q 13.671875 62.703125 7.8125 59.421875 
L 7.8125 69.390625 
Q 13.765625 71.78125 18.9375 73 
Q 24.125 74.21875 28.421875 74.21875 
Q 39.75 74.21875 46.484375 68.546875 
Q 53.21875 62.890625 53.21875 53.421875 
Q 53.21875 48.921875 51.53125 44.890625 
Q 49.859375 40.875 45.40625 35.40625 
Q 44.1875 33.984375 37.640625 27.21875 
Q 31.109375 20.453125 19.1875 8.296875 
z
" id="DejaVuSans-50"/>
      </defs>
      <g style="fill:#333333;" transform="translate(23.525503 163.243009)scale(0.0833 -0.0833)">
       <use xlink:href="#DejaVuSans-8722"/>
       <use x="83.789062" xlink:href="#DejaVuSans-50"/>
       <use x="147.412109" xlink:href="#DejaVuSans-48"/>
      </g>
     </g>
    </g>
    <g id="ytick_3">
     <g id="line2d_10">
      <path clip-path="url(#pfb90dba5a5)" d="M 48.105708 137.455998 
L 572.100563 137.455998 
" style="fill:none;stroke:#dedede;stroke-linecap:square;stroke-width:0.8;"/>
     </g>
     <g id="line2d_11">
      <g>
       <use style="fill:#333333;stroke:#333333;stroke-width:0.8;" x="48.105708" xlink:href="#m1e39bc4634" y="137.455998"/>
      </g>
     </g>
     <g id="text_8">
      <!-- 0 -->
      <g style="fill:#333333;" transform="translate(35.805745 140.620747)scale(0.0833 -0.0833)">
       <use xlink:href="#DejaVuSans-48"/>
      </g>
     </g>
    </g>
    <g id="ytick_4">
     <g id="line2d_12">
      <path clip-path="url(#pfb90dba5a5)" d="M 48.105708 114.833736 
L 572.100563 114.833736 
" style="fill:none;stroke:#dedede;stroke-linecap:square;stroke-width:0.8;"/>
     </g>
     <g id="line2d_13">
      <g>
       <use style="fill:#333333;stroke:#333333;stroke-width:0.8;" x="48.105708" xlink:href="#m1e39bc4634" y="114.833736"/>
      </g>
     </g>
     <g id="text_9">
      <!-- 20 -->
      <g style="fill:#333333;" transform="translate(30.505783 117.998485)scale(0.0833 -0.0833)">
       <use xlink:href="#DejaVuSans-50"/>
       <use x="63.623047" xlink:href="#DejaVuSans-48"/>
      </g>
     </g>
    </g>
    <g id="ytick_5">
     <g id="line2d_14">
      <path clip-path="url(#pfb90dba5a5)" d="M 48.105708 92.211474 
L 572.100563 92.211474 
" style="fill:none;stroke:#dedede;stroke-linecap:square;stroke-width:0.8;"/>
     </g>
     <g id="line2d_15">
      <g>
       <use style="fill:#333333;stroke:#333333;stroke-width:0.8;" x="48.105708" xlink:href="#m1e39bc4634" y="92.211474"/>
      </g>
     </g>
     <g id="text_10">
      <!-- 40 -->
      <g style="fill:#333333;" transform="translate(30.505783 95.376224)scale(0.0833 -0.0833)">
       <use xlink:href="#DejaVuSans-52"/>
       <use x="63.623047" xlink:href="#DejaVuSans-48"/>
      </g>
     </g>
    </g>
    <g id="ytick_6">
     <g id="line2d_16">
      <path clip-path="url(#pfb90dba5a5)" d="M 48.105708 69.589213 
L 572.100563 69.589213 
" style="fill:none;stroke:#dedede;stroke-linecap:square;stroke-width:0.8;"/>
     </g>
     <g id="line2d_17">
      <g>
       <use style="fill:#333333;stroke:#333333;stroke-width:0.8;" x="48.105708" xlink:href="#m1e39bc4634" y="69.589213"/>
      </g>
     </g>
     <g id="text_11">
      <!-- 60 -->
      <defs>
       <path d="M 33.015625 40.375 
Q 26.375 40.375 22.484375 35.828125 
Q 18.609375 31.296875 18.609375 23.390625 
Q 18.609375 15.53125 22.484375 10.953125 
Q 26.375 6.390625 33.015625 6.390625 
Q 39.65625 6.390625 43.53125 10.953125 
Q 47.40625 15.53125 47.40625 23.390625 
Q 47.40625 31.296875 43.53125 35.828125 
Q 39.65625 40.375 33.015625 40.375 
z
M 52.59375 71.296875 
L 52.59375 62.3125 
Q 48.875 64.0625 45.09375 64.984375 
Q 41.3125 65.921875 37.59375 65.921875 
Q 27.828125 65.921875 22.671875 59.328125 
Q 17.53125 52.734375 16.796875 39.40625 
Q 19.671875 43.65625 24.015625 45.921875 
Q 28.375 48.1875 33.59375 48.1875 
Q 44.578125 48.1875 50.953125 41.515625 
Q 57.328125 34.859375 57.328125 23.390625 
Q 57.328125 12.15625 50.6875 5.359375 
Q 44.046875 -1.421875 33.015625 -1.421875 
Q 20.359375 -1.421875 13.671875 8.265625 
Q 6.984375 17.96875 6.984375 36.375 
Q 6.984375 53.65625 15.1875 63.9375 
Q 23.390625 74.21875 37.203125 74.21875 
Q 40.921875 74.21875 44.703125 73.484375 
Q 48.484375 72.75 52.59375 71.296875 
z
" id="DejaVuSans-54"/>
      </defs>
      <g style="fill:#333333;" transform="translate(30.505783 72.753962)scale(0.0833 -0.0833)">
       <use xlink:href="#DejaVuSans-54"/>
       <use x="63.623047" xlink:href="#DejaVuSans-48"/>
      </g>
     </g>
    </g>
    <g id="ytick_7">
     <g id="line2d_18">
      <path clip-path="url(#pfb90dba5a5)" d="M 48.105708 46.966951 
L 572.100563 46.966951 
" style="fill:none;stroke:#dedede;stroke-linecap:square;stroke-width:0.8;"/>
     </g>
     <g id="line2d_19">
      <g>
       <use style="fill:#333333;stroke:#333333;stroke-width:0.8;" x="48.105708" xlink:href="#m1e39bc4634" y="46.966951"/>
      </g>
     </g>
     <g id="text_12">
      <!-- 80 -->
      <defs>
       <path d="M 31.78125 34.625 
Q 24.75 34.625 20.71875 30.859375 
Q 16.703125 27.09375 16.703125 20.515625 
Q 16.703125 13.921875 20.71875 10.15625 
Q 24.75 6.390625 31.78125 6.390625 
Q 38.8125 6.390625 42.859375 10.171875 
Q 46.921875 13.96875 46.921875 20.515625 
Q 46.921875 27.09375 42.890625 30.859375 
Q 38.875 34.625 31.78125 34.625 
z
M 21.921875 38.8125 
Q 15.578125 40.375 12.03125 44.71875 
Q 8.5 49.078125 8.5 55.328125 
Q 8.5 64.0625 14.71875 69.140625 
Q 20.953125 74.21875 31.78125 74.21875 
Q 42.671875 74.21875 48.875 69.140625 
Q 55.078125 64.0625 55.078125 55.328125 
Q 55.078125 49.078125 51.53125 44.71875 
Q 48 40.375 41.703125 38.8125 
Q 48.828125 37.15625 52.796875 32.3125 
Q 56.78125 27.484375 56.78125 20.515625 
Q 56.78125 9.90625 50.3125 4.234375 
Q 43.84375 -1.421875 31.78125 -1.421875 
Q 19.734375 -1.421875 13.25 4.234375 
Q 6.78125 9.90625 6.78125 20.515625 
Q 6.78125 27.484375 10.78125 32.3125 
Q 14.796875 37.15625 21.921875 38.8125 
z
M 18.3125 54.390625 
Q 18.3125 48.734375 21.84375 45.5625 
Q 25.390625 42.390625 31.78125 42.390625 
Q 38.140625 42.390625 41.71875 45.5625 
Q 45.3125 48.734375 45.3125 54.390625 
Q 45.3125 60.0625 41.71875 63.234375 
Q 38.140625 66.40625 31.78125 66.40625 
Q 25.390625 66.40625 21.84375 63.234375 
Q 18.3125 60.0625 18.3125 54.390625 
z
" id="DejaVuSans-56"/>
      </defs>
      <g style="fill:#333333;" transform="translate(30.505783 50.1317)scale(0.0833 -0.0833)">
       <use xlink:href="#DejaVuSans-56"/>
       <use x="63.623047" xlink:href="#DejaVuSans-48"/>
      </g>
     </g>
    </g>
    <g id="ytick_8">
     <g id="line2d_20">
      <path clip-path="url(#pfb90dba5a5)" d="M 48.105708 24.344689 
L 572.100563 24.344689 
" style="fill:none;stroke:#dedede;stroke-linecap:square;stroke-width:0.8;"/>
     </g>
     <g id="line2d_21">
      <g>
       <use style="fill:#333333;stroke:#333333;stroke-width:0.8;" x="48.105708" xlink:href="#m1e39bc4634" y="24.344689"/>
      </g>
     </g>
     <g id="text_13">
      <!-- 100 -->
      <g style="fill:#333333;" transform="translate(25.20582 27.509439)scale(0.0833 -0.0833)">
       <use xlink:href="#DejaVuSans-49"/>
       <use x="63.623047" xlink:href="#DejaVuSans-48"/>
       <use x="127.246094" xlink:href="#DejaVuSans-48"/>
      </g>
     </g>
    </g>
    <g id="text_14">
     <!-- value -->
     <defs>
      <path d="M 1.515625 54.6875 
L 19 54.6875 
L 32.625 16.890625 
L 46.1875 54.6875 
L 63.71875 54.6875 
L 42.1875 0 
L 23 0 
z
" id="DejaVuSans-Bold-118"/>
      <path d="M 32.90625 24.609375 
Q 27.4375 24.609375 24.671875 22.75 
Q 21.921875 20.90625 21.921875 17.28125 
Q 21.921875 13.96875 24.140625 12.078125 
Q 26.375 10.203125 30.328125 10.203125 
Q 35.25 10.203125 38.625 13.734375 
Q 42 17.28125 42 22.609375 
L 42 24.609375 
z
M 59.625 31.203125 
L 59.625 0 
L 42 0 
L 42 8.109375 
Q 38.484375 3.125 34.078125 0.84375 
Q 29.6875 -1.421875 23.390625 -1.421875 
Q 14.890625 -1.421875 9.59375 3.53125 
Q 4.296875 8.5 4.296875 16.40625 
Q 4.296875 26.03125 10.90625 30.515625 
Q 17.53125 35.015625 31.6875 35.015625 
L 42 35.015625 
L 42 36.375 
Q 42 40.53125 38.71875 42.453125 
Q 35.453125 44.390625 28.515625 44.390625 
Q 22.90625 44.390625 18.0625 43.265625 
Q 13.234375 42.140625 9.078125 39.890625 
L 9.078125 53.21875 
Q 14.703125 54.59375 20.359375 55.296875 
Q 26.03125 56 31.6875 56 
Q 46.484375 56 53.046875 50.171875 
Q 59.625 44.34375 59.625 31.203125 
z
" id="DejaVuSans-Bold-97"/>
      <path d="M 8.40625 75.984375 
L 25.875 75.984375 
L 25.875 0 
L 8.40625 0 
z
" id="DejaVuSans-Bold-108"/>
      <path d="M 7.8125 21.296875 
L 7.8125 54.6875 
L 25.390625 54.6875 
L 25.390625 49.21875 
Q 25.390625 44.78125 25.34375 38.0625 
Q 25.296875 31.34375 25.296875 29.109375 
Q 25.296875 22.515625 25.640625 19.609375 
Q 25.984375 16.703125 26.8125 15.375 
Q 27.875 13.671875 29.609375 12.734375 
Q 31.34375 11.8125 33.59375 11.8125 
Q 39.0625 11.8125 42.1875 16.015625 
Q 45.3125 20.21875 45.3125 27.6875 
L 45.3125 54.6875 
L 62.796875 54.6875 
L 62.796875 0 
L 45.3125 0 
L 45.3125 7.90625 
Q 41.359375 3.125 36.9375 0.84375 
Q 32.515625 -1.421875 27.203125 -1.421875 
Q 17.71875 -1.421875 12.765625 4.390625 
Q 7.8125 10.203125 7.8125 21.296875 
z
" id="DejaVuSans-Bold-117"/>
      <path d="M 62.984375 27.484375 
L 62.984375 22.515625 
L 22.125 22.515625 
Q 22.75 16.359375 26.5625 13.28125 
Q 30.375 10.203125 37.203125 10.203125 
Q 42.71875 10.203125 48.5 11.84375 
Q 54.296875 13.484375 60.40625 16.796875 
L 60.40625 3.328125 
Q 54.203125 0.984375 48 -0.21875 
Q 41.796875 -1.421875 35.59375 -1.421875 
Q 20.75 -1.421875 12.515625 6.125 
Q 4.296875 13.671875 4.296875 27.296875 
Q 4.296875 40.671875 12.375 48.328125 
Q 20.453125 56 34.625 56 
Q 47.515625 56 55.25 48.234375 
Q 62.984375 40.484375 62.984375 27.484375 
z
M 45.015625 33.296875 
Q 45.015625 38.28125 42.109375 41.328125 
Q 39.203125 44.390625 34.515625 44.390625 
Q 29.4375 44.390625 26.265625 41.53125 
Q 23.09375 38.671875 22.3125 33.296875 
z
" id="DejaVuSans-Bold-101"/>
     </defs>
     <g style="fill:#333333;" transform="translate(17.445816 123.007258)rotate(-90)scale(0.1 -0.1)">
      <use xlink:href="#DejaVuSans-Bold-118"/>
      <use x="65.185547" xlink:href="#DejaVuSans-Bold-97"/>
      <use x="132.666016" xlink:href="#DejaVuSans-Bold-108"/>
      <use x="166.943359" xlink:href="#DejaVuSans-Bold-117"/>
      <use x="238.134766" xlink:href="#DejaVuSans-Bold-101"/>
     </g>
    </g>
   </g>
   <g id="line2d_22">
    <path clip-path="url(#pfb90dba5a5)" d="M 48.105708 155.382825 
L 51.875455 155.95167 
L 55.645202 125.835126 
L 59.414949 127.775962 
L 63.184696 144.255594 
L 66.954444 158.001969 
L 70.724191 162.110756 
L 74.493938 157.417473 
L 78.263685 122.162117 
L 82.033432 140.737541 
L 85.803179 124.366934 
L 89.572927 119.981428 
L 93.342674 144.382821 
L 97.112421 149.145427 
L 100.882168 110.558633 
L 104.651915 114.469043 
L 108.421662 139.062331 
L 112.191409 153.224676 
L 115.961157 168.110145 
L 119.730904 161.000381 
L 123.500651 109.532001 
L 127.270398 133.210813 
L 131.040145 133.206827 
L 134.809892 123.074757 
L 138.57964 131.01427 
L 142.349387 112.52546 
L 146.119134 134.692763 
L 149.888881 118.435919 
L 153.658628 105.239262 
L 157.428375 138.444379 
L 161.198123 134.266859 
L 164.96787 130.699254 
L 168.737617 141.426969 
L 172.507364 137.221656 
L 176.277111 139.074415 
L 180.046858 124.330503 
L 183.816605 129.266012 
L 187.586353 114.44258 
L 191.3561 116.516074 
L 195.125847 100.482055 
L 198.895594 75.945462 
L 202.665341 149.574028 
L 206.435088 129.645983 
L 210.204836 130.077055 
L 213.974583 140.191183 
L 217.74433 139.416334 
L 221.514077 150.215454 
L 225.283824 124.576748 
L 229.053571 112.063957 
L 232.823319 116.538998 
L 236.593066 115.119137 
L 240.362813 101.265923 
L 244.13256 97.348267 
L 247.902307 149.166892 
L 251.672054 137.905497 
L 255.441801 146.07115 
L 259.211549 149.942832 
L 262.981296 144.534522 
L 266.751043 170.54854 
L 270.52079 127.807761 
L 274.290537 135.933565 
L 278.060284 126.158299 
L 281.830032 94.912034 
L 285.599779 71.227733 
L 289.369526 121.922944 
L 293.139273 141.956833 
L 296.90902 135.204126 
L 300.678767 132.876533 
L 304.448514 138.173675 
L 308.218262 125.614549 
L 311.988009 149.187531 
L 315.757756 141.720696 
L 319.527503 123.60737 
L 323.29725 126.898784 
L 327.066997 119.434394 
L 330.836745 66.652397 
L 334.606492 137.690609 
L 338.376239 136.46595 
L 342.145986 136.60685 
L 345.915733 140.689599 
L 349.68548 129.854577 
L 353.455228 135.768551 
L 357.224975 149.015304 
L 360.994722 142.510063 
L 364.764469 131.174306 
L 368.534216 128.221599 
L 372.303963 90.276307 
L 376.07371 83.606753 
L 379.843458 123.656323 
L 383.613205 146.532543 
L 387.382952 145.29464 
L 391.152699 135.655501 
L 394.922446 143.173726 
L 398.692193 136.381735 
L 402.461941 156.881854 
L 406.231688 131.100669 
L 410.001435 133.796578 
L 413.771182 127.397887 
L 417.540929 75.217022 
L 421.310676 72.713083 
L 425.080424 107.443945 
L 428.850171 148.997028 
L 432.619918 144.617052 
L 436.389665 136.505058 
L 440.159412 151.297331 
L 443.929159 143.125757 
L 447.698906 164.819663 
L 451.468654 148.382653 
L 455.238401 145.013754 
L 459.008148 123.815596 
L 462.777895 114.3775 
L 466.547642 60.787721 
L 470.317389 86.623204 
L 474.087137 185.336726 
L 477.856884 133.189829 
L 481.626631 142.605936 
L 485.396378 155.700289 
L 489.166125 121.431862 
L 492.935872 153.805846 
L 496.70562 125.63917 
L 500.475367 131.82092 
L 504.245114 108.999092 
L 508.014861 140.281498 
L 511.784608 30.080916 
L 515.554355 106.374492 
L 519.324102 163.876096 
L 523.09385 136.021907 
L 526.863597 129.498647 
L 530.633344 140.580797 
L 534.403091 134.351116 
L 538.172838 160.910616 
L 541.942585 177.21793 
L 545.712333 81.214683 
L 549.48208 117.876253 
L 553.251827 137.661987 
L 557.021574 35.397002 
L 560.791321 138.218885 
L 564.561068 162.977581 
L 568.330815 122.296506 
L 572.100563 150.575694 
L 572.100563 150.575694 
" style="fill:none;stroke:#000000;stroke-linecap:square;stroke-width:1.3;"/>
   </g>
   <g id="text_15">
    <!-- Residual values -->
    <defs>
     <path d="M 44.390625 34.1875 
Q 47.5625 33.109375 50.5625 29.59375 
Q 53.5625 26.078125 56.59375 19.921875 
L 66.609375 0 
L 56 0 
L 46.6875 18.703125 
Q 43.0625 26.03125 39.671875 28.421875 
Q 36.28125 30.8125 30.421875 30.8125 
L 19.671875 30.8125 
L 19.671875 0 
L 9.8125 0 
L 9.8125 72.90625 
L 32.078125 72.90625 
Q 44.578125 72.90625 50.734375 67.671875 
Q 56.890625 62.453125 56.890625 51.90625 
Q 56.890625 45.015625 53.6875 40.46875 
Q 50.484375 35.9375 44.390625 34.1875 
z
M 19.671875 64.796875 
L 19.671875 38.921875 
L 32.078125 38.921875 
Q 39.203125 38.921875 42.84375 42.21875 
Q 46.484375 45.515625 46.484375 51.90625 
Q 46.484375 58.296875 42.84375 61.546875 
Q 39.203125 64.796875 32.078125 64.796875 
z
" id="DejaVuSans-82"/>
     <path d="M 56.203125 29.59375 
L 56.203125 25.203125 
L 14.890625 25.203125 
Q 15.484375 15.921875 20.484375 11.0625 
Q 25.484375 6.203125 34.421875 6.203125 
Q 39.59375 6.203125 44.453125 7.46875 
Q 49.3125 8.734375 54.109375 11.28125 
L 54.109375 2.78125 
Q 49.265625 0.734375 44.1875 -0.34375 
Q 39.109375 -1.421875 33.890625 -1.421875 
Q 20.796875 -1.421875 13.15625 6.1875 
Q 5.515625 13.8125 5.515625 26.8125 
Q 5.515625 40.234375 12.765625 48.109375 
Q 20.015625 56 32.328125 56 
Q 43.359375 56 49.78125 48.890625 
Q 56.203125 41.796875 56.203125 29.59375 
z
M 47.21875 32.234375 
Q 47.125 39.59375 43.09375 43.984375 
Q 39.0625 48.390625 32.421875 48.390625 
Q 24.90625 48.390625 20.390625 44.140625 
Q 15.875 39.890625 15.1875 32.171875 
z
" id="DejaVuSans-101"/>
     <path d="M 44.28125 53.078125 
L 44.28125 44.578125 
Q 40.484375 46.53125 36.375 47.5 
Q 32.28125 48.484375 27.875 48.484375 
Q 21.1875 48.484375 17.84375 46.4375 
Q 14.5 44.390625 14.5 40.28125 
Q 14.5 37.15625 16.890625 35.375 
Q 19.28125 33.59375 26.515625 31.984375 
L 29.59375 31.296875 
Q 39.15625 29.25 43.1875 25.515625 
Q 47.21875 21.78125 47.21875 15.09375 
Q 47.21875 7.46875 41.1875 3.015625 
Q 35.15625 -1.421875 24.609375 -1.421875 
Q 20.21875 -1.421875 15.453125 -0.5625 
Q 10.6875 0.296875 5.421875 2 
L 5.421875 11.28125 
Q 10.40625 8.6875 15.234375 7.390625 
Q 20.0625 6.109375 24.8125 6.109375 
Q 31.15625 6.109375 34.5625 8.28125 
Q 37.984375 10.453125 37.984375 14.40625 
Q 37.984375 18.0625 35.515625 20.015625 
Q 33.0625 21.96875 24.703125 23.78125 
L 21.578125 24.515625 
Q 13.234375 26.265625 9.515625 29.90625 
Q 5.8125 33.546875 5.8125 39.890625 
Q 5.8125 47.609375 11.28125 51.796875 
Q 16.75 56 26.8125 56 
Q 31.78125 56 36.171875 55.265625 
Q 40.578125 54.546875 44.28125 53.078125 
z
" id="DejaVuSans-115"/>
     <path d="M 9.421875 54.6875 
L 18.40625 54.6875 
L 18.40625 0 
L 9.421875 0 
z
M 9.421875 75.984375 
L 18.40625 75.984375 
L 18.40625 64.59375 
L 9.421875 64.59375 
z
" id="DejaVuSans-105"/>
     <path d="M 45.40625 46.390625 
L 45.40625 75.984375 
L 54.390625 75.984375 
L 54.390625 0 
L 45.40625 0 
L 45.40625 8.203125 
Q 42.578125 3.328125 38.25 0.953125 
Q 33.9375 -1.421875 27.875 -1.421875 
Q 17.96875 -1.421875 11.734375 6.484375 
Q 5.515625 14.40625 5.515625 27.296875 
Q 5.515625 40.1875 11.734375 48.09375 
Q 17.96875 56 27.875 56 
Q 33.9375 56 38.25 53.625 
Q 42.578125 51.265625 45.40625 46.390625 
z
M 14.796875 27.296875 
Q 14.796875 17.390625 18.875 11.75 
Q 22.953125 6.109375 30.078125 6.109375 
Q 37.203125 6.109375 41.296875 11.75 
Q 45.40625 17.390625 45.40625 27.296875 
Q 45.40625 37.203125 41.296875 42.84375 
Q 37.203125 48.484375 30.078125 48.484375 
Q 22.953125 48.484375 18.875 42.84375 
Q 14.796875 37.203125 14.796875 27.296875 
z
" id="DejaVuSans-100"/>
     <path d="M 8.5 21.578125 
L 8.5 54.6875 
L 17.484375 54.6875 
L 17.484375 21.921875 
Q 17.484375 14.15625 20.5 10.265625 
Q 23.53125 6.390625 29.59375 6.390625 
Q 36.859375 6.390625 41.078125 11.03125 
Q 45.3125 15.671875 45.3125 23.6875 
L 45.3125 54.6875 
L 54.296875 54.6875 
L 54.296875 0 
L 45.3125 0 
L 45.3125 8.40625 
Q 42.046875 3.421875 37.71875 1 
Q 33.40625 -1.421875 27.6875 -1.421875 
Q 18.265625 -1.421875 13.375 4.4375 
Q 8.5 10.296875 8.5 21.578125 
z
M 31.109375 56 
z
" id="DejaVuSans-117"/>
     <path d="M 34.28125 27.484375 
Q 23.390625 27.484375 19.1875 25 
Q 14.984375 22.515625 14.984375 16.5 
Q 14.984375 11.71875 18.140625 8.90625 
Q 21.296875 6.109375 26.703125 6.109375 
Q 34.1875 6.109375 38.703125 11.40625 
Q 43.21875 16.703125 43.21875 25.484375 
L 43.21875 27.484375 
z
M 52.203125 31.203125 
L 52.203125 0 
L 43.21875 0 
L 43.21875 8.296875 
Q 40.140625 3.328125 35.546875 0.953125 
Q 30.953125 -1.421875 24.3125 -1.421875 
Q 15.921875 -1.421875 10.953125 3.296875 
Q 6 8.015625 6 15.921875 
Q 6 25.140625 12.171875 29.828125 
Q 18.359375 34.515625 30.609375 34.515625 
L 43.21875 34.515625 
L 43.21875 35.40625 
Q 43.21875 41.609375 39.140625 45 
Q 35.0625 48.390625 27.6875 48.390625 
Q 23 48.390625 18.546875 47.265625 
Q 14.109375 46.140625 10.015625 43.890625 
L 10.015625 52.203125 
Q 14.9375 54.109375 19.578125 55.046875 
Q 24.21875 56 28.609375 56 
Q 40.484375 56 46.34375 49.84375 
Q 52.203125 43.703125 52.203125 31.203125 
z
" id="DejaVuSans-97"/>
     <path d="M 9.421875 75.984375 
L 18.40625 75.984375 
L 18.40625 0 
L 9.421875 0 
z
" id="DejaVuSans-108"/>
     <path id="DejaVuSans-32"/>
     <path d="M 2.984375 54.6875 
L 12.5 54.6875 
L 29.59375 8.796875 
L 46.6875 54.6875 
L 56.203125 54.6875 
L 35.6875 0 
L 23.484375 0 
z
" id="DejaVuSans-118"/>
    </defs>
    <g transform="translate(263.34251 16.318125)scale(0.12 -0.12)">
     <use xlink:href="#DejaVuSans-82"/>
     <use x="64.982422" xlink:href="#DejaVuSans-101"/>
     <use x="126.505859" xlink:href="#DejaVuSans-115"/>
     <use x="178.605469" xlink:href="#DejaVuSans-105"/>
     <use x="206.388672" xlink:href="#DejaVuSans-100"/>
     <use x="269.865234" xlink:href="#DejaVuSans-117"/>
     <use x="333.244141" xlink:href="#DejaVuSans-97"/>
     <use x="394.523438" xlink:href="#DejaVuSans-108"/>
     <use x="422.306641" xlink:href="#DejaVuSans-32"/>
     <use x="454.09375" xlink:href="#DejaVuSans-118"/>
     <use x="513.273438" xlink:href="#DejaVuSans-97"/>
     <use x="574.552734" xlink:href="#DejaVuSans-108"/>
     <use x="602.335938" xlink:href="#DejaVuSans-117"/>
     <use x="665.714844" xlink:href="#DejaVuSans-101"/>
     <use x="727.238281" xlink:href="#DejaVuSans-115"/>
    </g>
   </g>
  </g>
  <g id="axes_2">
   <g id="patch_3">
    <path d="M 331.6224 404.381392 
L 572.100563 404.381392 
L 572.100563 233.6 
L 331.6224 233.6 
z
" style="fill:#ffffff;"/>
   </g>
   <g id="patch_4">
    <path clip-path="url(#p8ab6ffcf15)" d="M 342.553226 404.381392 
L 353.484051 404.381392 
L 353.484051 398.572501 
L 342.553226 398.572501 
z
"/>
   </g>
   <g id="patch_5">
    <path clip-path="url(#p8ab6ffcf15)" d="M 353.484051 404.381392 
L 364.414877 404.381392 
L 364.414877 392.76361 
L 353.484051 392.76361 
z
"/>
   </g>
   <g id="patch_6">
    <path clip-path="url(#p8ab6ffcf15)" d="M 364.414877 404.381392 
L 375.345702 404.381392 
L 375.345702 375.336937 
L 364.414877 375.336937 
z
"/>
   </g>
   <g id="patch_7">
    <path clip-path="url(#p8ab6ffcf15)" d="M 375.345702 404.381392 
L 386.276528 404.381392 
L 386.276528 357.910265 
L 375.345702 357.910265 
z
"/>
   </g>
   <g id="patch_8">
    <path clip-path="url(#p8ab6ffcf15)" d="M 386.276528 404.381392 
L 397.207354 404.381392 
L 397.207354 323.05692 
L 386.276528 323.05692 
z
"/>
   </g>
   <g id="patch_9">
    <path clip-path="url(#p8ab6ffcf15)" d="M 397.207354 404.381392 
L 408.138179 404.381392 
L 408.138179 276.585793 
L 397.207354 276.585793 
z
"/>
   </g>
   <g id="patch_10">
    <path clip-path="url(#p8ab6ffcf15)" d="M 408.138179 404.381392 
L 419.069005 404.381392 
L 419.069005 241.732447 
L 408.138179 241.732447 
z
"/>
   </g>
   <g id="patch_11">
    <path clip-path="url(#p8ab6ffcf15)" d="M 419.069005 404.381392 
L 429.99983 404.381392 
L 429.99983 282.394683 
L 419.069005 282.394683 
z
"/>
   </g>
   <g id="patch_12">
    <path clip-path="url(#p8ab6ffcf15)" d="M 429.99983 404.381392 
L 440.930656 404.381392 
L 440.930656 340.483592 
L 429.99983 340.483592 
z
"/>
   </g>
   <g id="patch_13">
    <path clip-path="url(#p8ab6ffcf15)" d="M 440.930656 404.381392 
L 451.861481 404.381392 
L 451.861481 352.101374 
L 440.930656 352.101374 
z
"/>
   </g>
   <g id="patch_14">
    <path clip-path="url(#p8ab6ffcf15)" d="M 451.861481 404.381392 
L 462.792307 404.381392 
L 462.792307 375.336937 
L 451.861481 375.336937 
z
"/>
   </g>
   <g id="patch_15">
    <path clip-path="url(#p8ab6ffcf15)" d="M 462.792307 404.381392 
L 473.723133 404.381392 
L 473.723133 392.76361 
L 462.792307 392.76361 
z
"/>
   </g>
   <g id="patch_16">
    <path clip-path="url(#p8ab6ffcf15)" d="M 473.723133 404.381392 
L 484.653958 404.381392 
L 484.653958 392.76361 
L 473.723133 392.76361 
z
"/>
   </g>
   <g id="patch_17">
    <path clip-path="url(#p8ab6ffcf15)" d="M 484.653958 404.381392 
L 495.584784 404.381392 
L 495.584784 392.76361 
L 484.653958 392.76361 
z
"/>
   </g>
   <g id="patch_18">
    <path clip-path="url(#p8ab6ffcf15)" d="M 495.584784 404.381392 
L 506.515609 404.381392 
L 506.515609 381.145828 
L 495.584784 381.145828 
z
"/>
   </g>
   <g id="patch_19">
    <path clip-path="url(#p8ab6ffcf15)" d="M 506.515609 404.381392 
L 517.446435 404.381392 
L 517.446435 398.572501 
L 506.515609 398.572501 
z
"/>
   </g>
   <g id="patch_20">
    <path clip-path="url(#p8ab6ffcf15)" d="M 517.446435 404.381392 
L 528.37726 404.381392 
L 528.37726 398.572501 
L 517.446435 398.572501 
z
"/>
   </g>
   <g id="patch_21">
    <path clip-path="url(#p8ab6ffcf15)" d="M 528.37726 404.381392 
L 539.308086 404.381392 
L 539.308086 404.381392 
L 528.37726 404.381392 
z
"/>
   </g>
   <g id="patch_22">
    <path clip-path="url(#p8ab6ffcf15)" d="M 539.308086 404.381392 
L 550.238912 404.381392 
L 550.238912 404.381392 
L 539.308086 404.381392 
z
"/>
   </g>
   <g id="patch_23">
    <path clip-path="url(#p8ab6ffcf15)" d="M 550.238912 404.381392 
L 561.169737 404.381392 
L 561.169737 392.76361 
L 550.238912 392.76361 
z
"/>
   </g>
   <g id="matplotlib.axis_3">
    <g id="xtick_12">
     <g id="line2d_23">
      <path clip-path="url(#p8ab6ffcf15)" d="M 346.26528 404.381392 
L 346.26528 233.6 
" style="fill:none;stroke:#dedede;stroke-linecap:square;stroke-width:0.8;"/>
     </g>
     <g id="text_16">
      <!-- −40 -->
      <g style="fill:#333333;" transform="translate(337.475178 417.71089)scale(0.0833 -0.0833)">
       <use xlink:href="#DejaVuSans-8722"/>
       <use x="83.789062" xlink:href="#DejaVuSans-52"/>
       <use x="147.412109" xlink:href="#DejaVuSans-48"/>
      </g>
     </g>
    </g>
    <g id="xtick_13">
     <g id="line2d_24">
      <path clip-path="url(#p8ab6ffcf15)" d="M 378.119804 404.381392 
L 378.119804 233.6 
" style="fill:none;stroke:#dedede;stroke-linecap:square;stroke-width:0.8;"/>
     </g>
     <g id="text_17">
      <!-- −20 -->
      <g style="fill:#333333;" transform="translate(369.329701 417.71089)scale(0.0833 -0.0833)">
       <use xlink:href="#DejaVuSans-8722"/>
       <use x="83.789062" xlink:href="#DejaVuSans-50"/>
       <use x="147.412109" xlink:href="#DejaVuSans-48"/>
      </g>
     </g>
    </g>
    <g id="xtick_14">
     <g id="line2d_25">
      <path clip-path="url(#p8ab6ffcf15)" d="M 409.974328 404.381392 
L 409.974328 233.6 
" style="fill:none;stroke:#dedede;stroke-linecap:square;stroke-width:0.8;"/>
     </g>
     <g id="text_18">
      <!-- 0 -->
      <g style="fill:#333333;" transform="translate(407.324346 417.71089)scale(0.0833 -0.0833)">
       <use xlink:href="#DejaVuSans-48"/>
      </g>
     </g>
    </g>
    <g id="xtick_15">
     <g id="line2d_26">
      <path clip-path="url(#p8ab6ffcf15)" d="M 441.828851 404.381392 
L 441.828851 233.6 
" style="fill:none;stroke:#dedede;stroke-linecap:square;stroke-width:0.8;"/>
     </g>
     <g id="text_19">
      <!-- 20 -->
      <g style="fill:#333333;" transform="translate(436.528889 417.71089)scale(0.0833 -0.0833)">
       <use xlink:href="#DejaVuSans-50"/>
       <use x="63.623047" xlink:href="#DejaVuSans-48"/>
      </g>
     </g>
    </g>
    <g id="xtick_16">
     <g id="line2d_27">
      <path clip-path="url(#p8ab6ffcf15)" d="M 473.683375 404.381392 
L 473.683375 233.6 
" style="fill:none;stroke:#dedede;stroke-linecap:square;stroke-width:0.8;"/>
     </g>
     <g id="text_20">
      <!-- 40 -->
      <g style="fill:#333333;" transform="translate(468.383413 417.71089)scale(0.0833 -0.0833)">
       <use xlink:href="#DejaVuSans-52"/>
       <use x="63.623047" xlink:href="#DejaVuSans-48"/>
      </g>
     </g>
    </g>
    <g id="xtick_17">
     <g id="line2d_28">
      <path clip-path="url(#p8ab6ffcf15)" d="M 505.537899 404.381392 
L 505.537899 233.6 
" style="fill:none;stroke:#dedede;stroke-linecap:square;stroke-width:0.8;"/>
     </g>
     <g id="text_21">
      <!-- 60 -->
      <g style="fill:#333333;" transform="translate(500.237937 417.71089)scale(0.0833 -0.0833)">
       <use xlink:href="#DejaVuSans-54"/>
       <use x="63.623047" xlink:href="#DejaVuSans-48"/>
      </g>
     </g>
    </g>
    <g id="xtick_18">
     <g id="line2d_29">
      <path clip-path="url(#p8ab6ffcf15)" d="M 537.392423 404.381392 
L 537.392423 233.6 
" style="fill:none;stroke:#dedede;stroke-linecap:square;stroke-width:0.8;"/>
     </g>
     <g id="text_22">
      <!-- 80 -->
      <g style="fill:#333333;" transform="translate(532.09246 417.71089)scale(0.0833 -0.0833)">
       <use xlink:href="#DejaVuSans-56"/>
       <use x="63.623047" xlink:href="#DejaVuSans-48"/>
      </g>
     </g>
    </g>
    <g id="xtick_19">
     <g id="line2d_30">
      <path clip-path="url(#p8ab6ffcf15)" d="M 569.246947 404.381392 
L 569.246947 233.6 
" style="fill:none;stroke:#dedede;stroke-linecap:square;stroke-width:0.8;"/>
     </g>
     <g id="text_23">
      <!-- 100 -->
      <g style="fill:#333333;" transform="translate(561.297003 417.71089)scale(0.0833 -0.0833)">
       <use xlink:href="#DejaVuSans-49"/>
       <use x="63.623047" xlink:href="#DejaVuSans-48"/>
       <use x="127.246094" xlink:href="#DejaVuSans-48"/>
      </g>
     </g>
    </g>
    <g id="text_24">
     <!-- value -->
     <g style="fill:#333333;" transform="translate(436.563044 431.041707)scale(0.1 -0.1)">
      <use xlink:href="#DejaVuSans-Bold-118"/>
      <use x="65.185547" xlink:href="#DejaVuSans-Bold-97"/>
      <use x="132.666016" xlink:href="#DejaVuSans-Bold-108"/>
      <use x="166.943359" xlink:href="#DejaVuSans-Bold-117"/>
      <use x="238.134766" xlink:href="#DejaVuSans-Bold-101"/>
     </g>
    </g>
   </g>
   <g id="matplotlib.axis_4">
    <g id="ytick_9">
     <g id="line2d_31">
      <path clip-path="url(#p8ab6ffcf15)" d="M 331.6224 404.381392 
L 572.100563 404.381392 
" style="fill:none;stroke:#dedede;stroke-linecap:square;stroke-width:0.8;"/>
     </g>
     <g id="line2d_32">
      <g>
       <use style="fill:#333333;stroke:#333333;stroke-width:0.8;" x="331.6224" xlink:href="#m1e39bc4634" y="404.381392"/>
      </g>
     </g>
     <g id="text_25">
      <!-- 0 -->
      <g style="fill:#333333;" transform="translate(319.322438 407.546141)scale(0.0833 -0.0833)">
       <use xlink:href="#DejaVuSans-48"/>
      </g>
     </g>
    </g>
    <g id="ytick_10">
     <g id="line2d_33">
      <path clip-path="url(#p8ab6ffcf15)" d="M 331.6224 386.954719 
L 572.100563 386.954719 
" style="fill:none;stroke:#dedede;stroke-linecap:square;stroke-width:0.8;"/>
     </g>
     <g id="line2d_34">
      <g>
       <use style="fill:#333333;stroke:#333333;stroke-width:0.8;" x="331.6224" xlink:href="#m1e39bc4634" y="386.954719"/>
      </g>
     </g>
     <g id="text_26">
      <!-- 3 -->
      <g style="fill:#333333;" transform="translate(319.322438 390.119468)scale(0.0833 -0.0833)">
       <use xlink:href="#DejaVuSans-51"/>
      </g>
     </g>
    </g>
    <g id="ytick_11">
     <g id="line2d_35">
      <path clip-path="url(#p8ab6ffcf15)" d="M 331.6224 369.528047 
L 572.100563 369.528047 
" style="fill:none;stroke:#dedede;stroke-linecap:square;stroke-width:0.8;"/>
     </g>
     <g id="line2d_36">
      <g>
       <use style="fill:#333333;stroke:#333333;stroke-width:0.8;" x="331.6224" xlink:href="#m1e39bc4634" y="369.528047"/>
      </g>
     </g>
     <g id="text_27">
      <!-- 6 -->
      <g style="fill:#333333;" transform="translate(319.322438 372.692796)scale(0.0833 -0.0833)">
       <use xlink:href="#DejaVuSans-54"/>
      </g>
     </g>
    </g>
    <g id="ytick_12">
     <g id="line2d_37">
      <path clip-path="url(#p8ab6ffcf15)" d="M 331.6224 352.101374 
L 572.100563 352.101374 
" style="fill:none;stroke:#dedede;stroke-linecap:square;stroke-width:0.8;"/>
     </g>
     <g id="line2d_38">
      <g>
       <use style="fill:#333333;stroke:#333333;stroke-width:0.8;" x="331.6224" xlink:href="#m1e39bc4634" y="352.101374"/>
      </g>
     </g>
     <g id="text_28">
      <!-- 9 -->
      <g style="fill:#333333;" transform="translate(319.322438 355.266123)scale(0.0833 -0.0833)">
       <use xlink:href="#DejaVuSans-57"/>
      </g>
     </g>
    </g>
    <g id="ytick_13">
     <g id="line2d_39">
      <path clip-path="url(#p8ab6ffcf15)" d="M 331.6224 334.674701 
L 572.100563 334.674701 
" style="fill:none;stroke:#dedede;stroke-linecap:square;stroke-width:0.8;"/>
     </g>
     <g id="line2d_40">
      <g>
       <use style="fill:#333333;stroke:#333333;stroke-width:0.8;" x="331.6224" xlink:href="#m1e39bc4634" y="334.674701"/>
      </g>
     </g>
     <g id="text_29">
      <!-- 12 -->
      <g style="fill:#333333;" transform="translate(314.022475 337.839451)scale(0.0833 -0.0833)">
       <use xlink:href="#DejaVuSans-49"/>
       <use x="63.623047" xlink:href="#DejaVuSans-50"/>
      </g>
     </g>
    </g>
    <g id="ytick_14">
     <g id="line2d_41">
      <path clip-path="url(#p8ab6ffcf15)" d="M 331.6224 317.248029 
L 572.100563 317.248029 
" style="fill:none;stroke:#dedede;stroke-linecap:square;stroke-width:0.8;"/>
     </g>
     <g id="line2d_42">
      <g>
       <use style="fill:#333333;stroke:#333333;stroke-width:0.8;" x="331.6224" xlink:href="#m1e39bc4634" y="317.248029"/>
      </g>
     </g>
     <g id="text_30">
      <!-- 15 -->
      <g style="fill:#333333;" transform="translate(314.022475 320.412778)scale(0.0833 -0.0833)">
       <use xlink:href="#DejaVuSans-49"/>
       <use x="63.623047" xlink:href="#DejaVuSans-53"/>
      </g>
     </g>
    </g>
    <g id="ytick_15">
     <g id="line2d_43">
      <path clip-path="url(#p8ab6ffcf15)" d="M 331.6224 299.821356 
L 572.100563 299.821356 
" style="fill:none;stroke:#dedede;stroke-linecap:square;stroke-width:0.8;"/>
     </g>
     <g id="line2d_44">
      <g>
       <use style="fill:#333333;stroke:#333333;stroke-width:0.8;" x="331.6224" xlink:href="#m1e39bc4634" y="299.821356"/>
      </g>
     </g>
     <g id="text_31">
      <!-- 18 -->
      <g style="fill:#333333;" transform="translate(314.022475 302.986105)scale(0.0833 -0.0833)">
       <use xlink:href="#DejaVuSans-49"/>
       <use x="63.623047" xlink:href="#DejaVuSans-56"/>
      </g>
     </g>
    </g>
    <g id="ytick_16">
     <g id="line2d_45">
      <path clip-path="url(#p8ab6ffcf15)" d="M 331.6224 282.394683 
L 572.100563 282.394683 
" style="fill:none;stroke:#dedede;stroke-linecap:square;stroke-width:0.8;"/>
     </g>
     <g id="line2d_46">
      <g>
       <use style="fill:#333333;stroke:#333333;stroke-width:0.8;" x="331.6224" xlink:href="#m1e39bc4634" y="282.394683"/>
      </g>
     </g>
     <g id="text_32">
      <!-- 21 -->
      <g style="fill:#333333;" transform="translate(314.022475 285.559433)scale(0.0833 -0.0833)">
       <use xlink:href="#DejaVuSans-50"/>
       <use x="63.623047" xlink:href="#DejaVuSans-49"/>
      </g>
     </g>
    </g>
    <g id="ytick_17">
     <g id="line2d_47">
      <path clip-path="url(#p8ab6ffcf15)" d="M 331.6224 264.968011 
L 572.100563 264.968011 
" style="fill:none;stroke:#dedede;stroke-linecap:square;stroke-width:0.8;"/>
     </g>
     <g id="line2d_48">
      <g>
       <use style="fill:#333333;stroke:#333333;stroke-width:0.8;" x="331.6224" xlink:href="#m1e39bc4634" y="264.968011"/>
      </g>
     </g>
     <g id="text_33">
      <!-- 24 -->
      <g style="fill:#333333;" transform="translate(314.022475 268.13276)scale(0.0833 -0.0833)">
       <use xlink:href="#DejaVuSans-50"/>
       <use x="63.623047" xlink:href="#DejaVuSans-52"/>
      </g>
     </g>
    </g>
    <g id="ytick_18">
     <g id="line2d_49">
      <path clip-path="url(#p8ab6ffcf15)" d="M 331.6224 247.541338 
L 572.100563 247.541338 
" style="fill:none;stroke:#dedede;stroke-linecap:square;stroke-width:0.8;"/>
     </g>
     <g id="line2d_50">
      <g>
       <use style="fill:#333333;stroke:#333333;stroke-width:0.8;" x="331.6224" xlink:href="#m1e39bc4634" y="247.541338"/>
      </g>
     </g>
     <g id="text_34">
      <!-- 27 -->
      <g style="fill:#333333;" transform="translate(314.022475 250.706087)scale(0.0833 -0.0833)">
       <use xlink:href="#DejaVuSans-50"/>
       <use x="63.623047" xlink:href="#DejaVuSans-55"/>
      </g>
     </g>
    </g>
    <g id="text_35">
     <!-- count -->
     <defs>
      <path d="M 52.59375 52.984375 
L 52.59375 38.71875 
Q 49.03125 41.15625 45.4375 42.328125 
Q 41.84375 43.5 37.984375 43.5 
Q 30.671875 43.5 26.59375 39.234375 
Q 22.515625 34.96875 22.515625 27.296875 
Q 22.515625 19.625 26.59375 15.34375 
Q 30.671875 11.078125 37.984375 11.078125 
Q 42.09375 11.078125 45.78125 12.296875 
Q 49.46875 13.53125 52.59375 15.921875 
L 52.59375 1.609375 
Q 48.484375 0.09375 44.265625 -0.65625 
Q 40.046875 -1.421875 35.796875 -1.421875 
Q 21 -1.421875 12.640625 6.171875 
Q 4.296875 13.765625 4.296875 27.296875 
Q 4.296875 40.828125 12.640625 48.40625 
Q 21 56 35.796875 56 
Q 40.09375 56 44.265625 55.25 
Q 48.4375 54.5 52.59375 52.984375 
z
" id="DejaVuSans-Bold-99"/>
      <path d="M 34.421875 43.5 
Q 28.609375 43.5 25.5625 39.328125 
Q 22.515625 35.15625 22.515625 27.296875 
Q 22.515625 19.4375 25.5625 15.25 
Q 28.609375 11.078125 34.421875 11.078125 
Q 40.140625 11.078125 43.15625 15.25 
Q 46.1875 19.4375 46.1875 27.296875 
Q 46.1875 35.15625 43.15625 39.328125 
Q 40.140625 43.5 34.421875 43.5 
z
M 34.421875 56 
Q 48.53125 56 56.46875 48.375 
Q 64.40625 40.765625 64.40625 27.296875 
Q 64.40625 13.8125 56.46875 6.1875 
Q 48.53125 -1.421875 34.421875 -1.421875 
Q 20.265625 -1.421875 12.28125 6.1875 
Q 4.296875 13.8125 4.296875 27.296875 
Q 4.296875 40.765625 12.28125 48.375 
Q 20.265625 56 34.421875 56 
z
" id="DejaVuSans-Bold-111"/>
      <path d="M 63.375 33.296875 
L 63.375 0 
L 45.796875 0 
L 45.796875 5.421875 
L 45.796875 25.484375 
Q 45.796875 32.5625 45.484375 35.25 
Q 45.171875 37.9375 44.390625 39.203125 
Q 43.359375 40.921875 41.59375 41.875 
Q 39.84375 42.828125 37.59375 42.828125 
Q 32.125 42.828125 29 38.59375 
Q 25.875 34.375 25.875 26.90625 
L 25.875 0 
L 8.40625 0 
L 8.40625 54.6875 
L 25.875 54.6875 
L 25.875 46.6875 
Q 29.828125 51.46875 34.265625 53.734375 
Q 38.71875 56 44.09375 56 
Q 53.5625 56 58.46875 50.1875 
Q 63.375 44.390625 63.375 33.296875 
z
" id="DejaVuSans-Bold-110"/>
      <path d="M 27.484375 70.21875 
L 27.484375 54.6875 
L 45.515625 54.6875 
L 45.515625 42.1875 
L 27.484375 42.1875 
L 27.484375 19 
Q 27.484375 15.1875 29 13.84375 
Q 30.515625 12.5 35.015625 12.5 
L 44 12.5 
L 44 0 
L 29 0 
Q 18.65625 0 14.328125 4.3125 
Q 10.015625 8.640625 10.015625 19 
L 10.015625 42.1875 
L 1.3125 42.1875 
L 1.3125 54.6875 
L 10.015625 54.6875 
L 10.015625 70.21875 
z
" id="DejaVuSans-Bold-116"/>
     </defs>
     <g style="fill:#333333;" transform="translate(307.942788 334.898508)rotate(-90)scale(0.1 -0.1)">
      <use xlink:href="#DejaVuSans-Bold-99"/>
      <use x="59.277344" xlink:href="#DejaVuSans-Bold-111"/>
      <use x="127.978516" xlink:href="#DejaVuSans-Bold-117"/>
      <use x="199.169922" xlink:href="#DejaVuSans-Bold-110"/>
      <use x="270.361328" xlink:href="#DejaVuSans-Bold-116"/>
     </g>
    </g>
   </g>
   <g id="line2d_51">
    <path clip-path="url(#p8ab6ffcf15)" d="M 342.553226 395.889511 
L 344.761473 394.635388 
L 346.969721 393.240081 
L 349.177969 391.695149 
L 351.386216 389.992851 
L 353.594464 388.126372 
L 355.802711 386.090064 
L 358.010959 383.879686 
L 360.219207 381.492659 
L 362.427454 378.928301 
L 364.635702 376.188066 
L 366.843949 373.275754 
L 369.052197 370.197705 
L 371.260444 366.962949 
L 373.468692 363.58333 
L 375.67694 360.073575 
L 377.885187 356.451308 
L 380.093435 352.737016 
L 382.301682 348.953943 
L 384.50993 345.127928 
L 386.718178 341.287166 
L 388.926425 337.461921 
L 391.134673 333.684164 
L 393.34292 329.987157 
L 395.551168 326.404991 
L 397.759416 322.972077 
L 399.967663 319.722609 
L 402.175911 316.690003 
L 404.384158 313.90633 
L 406.592406 311.401756 
L 408.800653 309.204001 
L 411.008901 307.337822 
L 413.217149 305.824559 
L 415.425396 304.681721 
L 417.633644 303.922654 
L 419.841891 303.556279 
L 422.050139 303.586917 
L 424.258387 304.014206 
L 426.466634 304.833109 
L 428.674882 306.034008 
L 430.883129 307.602899 
L 433.091377 309.521656 
L 435.299625 311.768387 
L 437.507872 314.317845 
L 439.71612 317.1419 
L 441.924367 320.210057 
L 444.132615 323.489999 
L 446.340862 326.948154 
L 448.54911 330.550258 
L 450.757358 334.261916 
L 452.965605 338.049132 
L 455.173853 341.878813 
L 457.3821 345.719227 
L 459.590348 349.540407 
L 461.798596 353.314501 
L 464.006843 357.016059 
L 466.215091 360.622252 
L 468.423338 364.113029 
L 470.631586 367.471211 
L 472.839834 370.682518 
L 475.048081 373.735546 
L 477.256329 376.621687 
L 479.464576 379.335005 
L 481.672824 381.872074 
L 483.881071 384.231785 
L 486.089319 386.415125 
L 488.297567 388.424948 
L 490.505814 390.265725 
L 492.714062 391.943302 
L 494.922309 393.464651 
L 497.130557 394.837636 
L 499.338805 396.070787 
L 501.547052 397.17309 
L 503.7553 398.153798 
L 505.963547 399.022258 
L 508.171795 399.787762 
L 510.380043 400.459421 
L 512.58829 401.046055 
L 514.796538 401.556108 
L 517.004785 401.997583 
L 519.213033 402.377991 
L 521.42128 402.704322 
L 523.629528 402.983023 
L 525.837776 403.219999 
L 528.046023 403.420613 
L 530.254271 403.589702 
L 532.462518 403.731601 
L 534.670766 403.850166 
L 536.879014 403.948807 
L 539.087261 404.030518 
L 541.295509 404.097915 
L 543.503756 404.153268 
L 545.712004 404.198535 
L 547.920252 404.235397 
L 550.128499 404.265286 
L 552.336747 404.28942 
L 554.544994 404.308824 
L 556.753242 404.32436 
L 558.96149 404.336746 
L 561.169737 404.34658 
" style="fill:none;stroke:#003dfd;stroke-linecap:square;stroke-width:1.3;"/>
   </g>
   <g id="text_36">
    <!-- Distribution -->
    <defs>
     <path d="M 19.671875 64.796875 
L 19.671875 8.109375 
L 31.59375 8.109375 
Q 46.6875 8.109375 53.6875 14.9375 
Q 60.6875 21.78125 60.6875 36.53125 
Q 60.6875 51.171875 53.6875 57.984375 
Q 46.6875 64.796875 31.59375 64.796875 
z
M 9.8125 72.90625 
L 30.078125 72.90625 
Q 51.265625 72.90625 61.171875 64.09375 
Q 71.09375 55.28125 71.09375 36.53125 
Q 71.09375 17.671875 61.125 8.828125 
Q 51.171875 0 30.078125 0 
L 9.8125 0 
z
" id="DejaVuSans-68"/>
     <path d="M 18.3125 70.21875 
L 18.3125 54.6875 
L 36.8125 54.6875 
L 36.8125 47.703125 
L 18.3125 47.703125 
L 18.3125 18.015625 
Q 18.3125 11.328125 20.140625 9.421875 
Q 21.96875 7.515625 27.59375 7.515625 
L 36.8125 7.515625 
L 36.8125 0 
L 27.59375 0 
Q 17.1875 0 13.234375 3.875 
Q 9.28125 7.765625 9.28125 18.015625 
L 9.28125 47.703125 
L 2.6875 47.703125 
L 2.6875 54.6875 
L 9.28125 54.6875 
L 9.28125 70.21875 
z
" id="DejaVuSans-116"/>
     <path d="M 41.109375 46.296875 
Q 39.59375 47.171875 37.8125 47.578125 
Q 36.03125 48 33.890625 48 
Q 26.265625 48 22.1875 43.046875 
Q 18.109375 38.09375 18.109375 28.8125 
L 18.109375 0 
L 9.078125 0 
L 9.078125 54.6875 
L 18.109375 54.6875 
L 18.109375 46.1875 
Q 20.953125 51.171875 25.484375 53.578125 
Q 30.03125 56 36.53125 56 
Q 37.453125 56 38.578125 55.875 
Q 39.703125 55.765625 41.0625 55.515625 
z
" id="DejaVuSans-114"/>
     <path d="M 48.6875 27.296875 
Q 48.6875 37.203125 44.609375 42.84375 
Q 40.53125 48.484375 33.40625 48.484375 
Q 26.265625 48.484375 22.1875 42.84375 
Q 18.109375 37.203125 18.109375 27.296875 
Q 18.109375 17.390625 22.1875 11.75 
Q 26.265625 6.109375 33.40625 6.109375 
Q 40.53125 6.109375 44.609375 11.75 
Q 48.6875 17.390625 48.6875 27.296875 
z
M 18.109375 46.390625 
Q 20.953125 51.265625 25.265625 53.625 
Q 29.59375 56 35.59375 56 
Q 45.5625 56 51.78125 48.09375 
Q 58.015625 40.1875 58.015625 27.296875 
Q 58.015625 14.40625 51.78125 6.484375 
Q 45.5625 -1.421875 35.59375 -1.421875 
Q 29.59375 -1.421875 25.265625 0.953125 
Q 20.953125 3.328125 18.109375 8.203125 
L 18.109375 0 
L 9.078125 0 
L 9.078125 75.984375 
L 18.109375 75.984375 
z
" id="DejaVuSans-98"/>
     <path d="M 30.609375 48.390625 
Q 23.390625 48.390625 19.1875 42.75 
Q 14.984375 37.109375 14.984375 27.296875 
Q 14.984375 17.484375 19.15625 11.84375 
Q 23.34375 6.203125 30.609375 6.203125 
Q 37.796875 6.203125 41.984375 11.859375 
Q 46.1875 17.53125 46.1875 27.296875 
Q 46.1875 37.015625 41.984375 42.703125 
Q 37.796875 48.390625 30.609375 48.390625 
z
M 30.609375 56 
Q 42.328125 56 49.015625 48.375 
Q 55.71875 40.765625 55.71875 27.296875 
Q 55.71875 13.875 49.015625 6.21875 
Q 42.328125 -1.421875 30.609375 -1.421875 
Q 18.84375 -1.421875 12.171875 6.21875 
Q 5.515625 13.875 5.515625 27.296875 
Q 5.515625 40.765625 12.171875 48.375 
Q 18.84375 56 30.609375 56 
z
" id="DejaVuSans-111"/>
     <path d="M 54.890625 33.015625 
L 54.890625 0 
L 45.90625 0 
L 45.90625 32.71875 
Q 45.90625 40.484375 42.875 44.328125 
Q 39.84375 48.1875 33.796875 48.1875 
Q 26.515625 48.1875 22.3125 43.546875 
Q 18.109375 38.921875 18.109375 30.90625 
L 18.109375 0 
L 9.078125 0 
L 9.078125 54.6875 
L 18.109375 54.6875 
L 18.109375 46.1875 
Q 21.34375 51.125 25.703125 53.5625 
Q 30.078125 56 35.796875 56 
Q 45.21875 56 50.046875 50.171875 
Q 54.890625 44.34375 54.890625 33.015625 
z
" id="DejaVuSans-110"/>
    </defs>
    <g transform="translate(416.858981 227.6)scale(0.12 -0.12)">
     <use xlink:href="#DejaVuSans-68"/>
     <use x="77.001953" xlink:href="#DejaVuSans-105"/>
     <use x="104.785156" xlink:href="#DejaVuSans-115"/>
     <use x="156.884766" xlink:href="#DejaVuSans-116"/>
     <use x="196.09375" xlink:href="#DejaVuSans-114"/>
     <use x="237.207031" xlink:href="#DejaVuSans-105"/>
     <use x="264.990234" xlink:href="#DejaVuSans-98"/>
     <use x="328.466797" xlink:href="#DejaVuSans-117"/>
     <use x="391.845703" xlink:href="#DejaVuSans-116"/>
     <use x="431.054688" xlink:href="#DejaVuSans-105"/>
     <use x="458.837891" xlink:href="#DejaVuSans-111"/>
     <use x="520.019531" xlink:href="#DejaVuSans-110"/>
    </g>
   </g>
  </g>
  <g id="axes_3">
   <g id="patch_24">
    <path d="M 48.105708 404.381392 
L 288.58387 404.381392 
L 288.58387 233.6 
L 48.105708 233.6 
z
" style="fill:#ffffff;"/>
   </g>
   <g id="PolyCollection_1">
    <defs>
     <path d="M 67.781194 -75.299891 
L 67.781194 -77.652708 
L 76.525854 -77.717826 
L 85.270515 -77.718672 
L 94.015175 -77.71993 
L 102.759836 -77.785484 
L 111.504496 -77.832407 
L 120.249157 -77.850352 
L 128.993817 -77.920252 
L 137.738477 -77.958457 
L 146.483138 -77.958699 
L 155.227798 -77.965174 
L 163.972459 -78.03769 
L 172.717119 -78.405827 
L 181.46178 -78.445355 
L 190.20644 -78.445543 
L 198.951101 -78.447678 
L 207.695761 -78.466452 
L 216.440422 -78.490228 
L 225.185082 -78.505705 
L 233.929742 -78.549722 
L 242.674403 -78.568177 
L 251.419063 -78.569775 
L 260.163724 -78.574323 
L 268.908384 -78.629924 
L 268.908384 -74.322675 
L 268.908384 -74.322675 
L 260.163724 -74.378277 
L 251.419063 -74.382825 
L 242.674403 -74.384423 
L 233.929742 -74.402877 
L 225.185082 -74.446895 
L 216.440422 -74.462371 
L 207.695761 -74.486147 
L 198.951101 -74.504921 
L 190.20644 -74.507057 
L 181.46178 -74.507244 
L 172.717119 -74.546772 
L 163.972459 -74.914909 
L 155.227798 -74.987425 
L 146.483138 -74.9939 
L 137.738477 -74.994143 
L 128.993817 -75.032347 
L 120.249157 -75.102247 
L 111.504496 -75.120193 
L 102.759836 -75.167115 
L 94.015175 -75.23267 
L 85.270515 -75.233928 
L 76.525854 -75.234774 
L 67.781194 -75.299891 
z
" id="mf3bffa16a3" style="stroke:#003dfd;stroke-opacity:0.25;"/>
    </defs>
    <g clip-path="url(#p951e283a33)">
     <use style="fill:#003dfd;fill-opacity:0.25;stroke:#003dfd;stroke-opacity:0.25;" x="0" xlink:href="#mf3bffa16a3" y="440.39952"/>
    </g>
   </g>
   <g id="matplotlib.axis_5">
    <g id="xtick_20">
     <g id="line2d_52">
      <path clip-path="url(#p951e283a33)" d="M 59.036533 404.381392 
L 59.036533 233.6 
" style="fill:none;stroke:#dedede;stroke-linecap:square;stroke-width:0.8;"/>
     </g>
     <g id="text_37">
      <!-- 0 -->
      <g style="fill:#333333;" transform="translate(56.386552 417.71089)scale(0.0833 -0.0833)">
       <use xlink:href="#DejaVuSans-48"/>
      </g>
     </g>
    </g>
    <g id="xtick_21">
     <g id="line2d_53">
      <path clip-path="url(#p951e283a33)" d="M 102.759836 404.381392 
L 102.759836 233.6 
" style="fill:none;stroke:#dedede;stroke-linecap:square;stroke-width:0.8;"/>
     </g>
     <g id="text_38">
      <!-- 5 -->
      <g style="fill:#333333;" transform="translate(100.109854 417.71089)scale(0.0833 -0.0833)">
       <use xlink:href="#DejaVuSans-53"/>
      </g>
     </g>
    </g>
    <g id="xtick_22">
     <g id="line2d_54">
      <path clip-path="url(#p951e283a33)" d="M 146.483138 404.381392 
L 146.483138 233.6 
" style="fill:none;stroke:#dedede;stroke-linecap:square;stroke-width:0.8;"/>
     </g>
     <g id="text_39">
      <!-- 10 -->
      <g style="fill:#333333;" transform="translate(141.183175 417.71089)scale(0.0833 -0.0833)">
       <use xlink:href="#DejaVuSans-49"/>
       <use x="63.623047" xlink:href="#DejaVuSans-48"/>
      </g>
     </g>
    </g>
    <g id="xtick_23">
     <g id="line2d_55">
      <path clip-path="url(#p951e283a33)" d="M 190.20644 404.381392 
L 190.20644 233.6 
" style="fill:none;stroke:#dedede;stroke-linecap:square;stroke-width:0.8;"/>
     </g>
     <g id="text_40">
      <!-- 15 -->
      <g style="fill:#333333;" transform="translate(184.906478 417.71089)scale(0.0833 -0.0833)">
       <use xlink:href="#DejaVuSans-49"/>
       <use x="63.623047" xlink:href="#DejaVuSans-53"/>
      </g>
     </g>
    </g>
    <g id="xtick_24">
     <g id="line2d_56">
      <path clip-path="url(#p951e283a33)" d="M 233.929742 404.381392 
L 233.929742 233.6 
" style="fill:none;stroke:#dedede;stroke-linecap:square;stroke-width:0.8;"/>
     </g>
     <g id="text_41">
      <!-- 20 -->
      <g style="fill:#333333;" transform="translate(228.62978 417.71089)scale(0.0833 -0.0833)">
       <use xlink:href="#DejaVuSans-50"/>
       <use x="63.623047" xlink:href="#DejaVuSans-48"/>
      </g>
     </g>
    </g>
    <g id="xtick_25">
     <g id="line2d_57">
      <path clip-path="url(#p951e283a33)" d="M 277.653045 404.381392 
L 277.653045 233.6 
" style="fill:none;stroke:#dedede;stroke-linecap:square;stroke-width:0.8;"/>
     </g>
     <g id="text_42">
      <!-- 25 -->
      <g style="fill:#333333;" transform="translate(272.353082 417.71089)scale(0.0833 -0.0833)">
       <use xlink:href="#DejaVuSans-50"/>
       <use x="63.623047" xlink:href="#DejaVuSans-53"/>
      </g>
     </g>
    </g>
    <g id="text_43">
     <!-- lag -->
     <defs>
      <path d="M 45.609375 9.28125 
Q 42 4.5 37.640625 2.25 
Q 33.296875 0 27.59375 0 
Q 17.578125 0 11.03125 7.875 
Q 4.5 15.765625 4.5 27.984375 
Q 4.5 40.234375 11.03125 48.0625 
Q 17.578125 55.90625 27.59375 55.90625 
Q 33.296875 55.90625 37.640625 53.65625 
Q 42 51.421875 45.609375 46.578125 
L 45.609375 54.6875 
L 63.1875 54.6875 
L 63.1875 5.515625 
Q 63.1875 -7.671875 54.859375 -14.625 
Q 46.53125 -21.578125 30.71875 -21.578125 
Q 25.59375 -21.578125 20.796875 -20.796875 
Q 16.015625 -20.015625 11.1875 -18.40625 
L 11.1875 -4.78125 
Q 15.765625 -7.421875 20.15625 -8.71875 
Q 24.5625 -10.015625 29 -10.015625 
Q 37.59375 -10.015625 41.59375 -6.25 
Q 45.609375 -2.484375 45.609375 5.515625 
z
M 34.078125 43.3125 
Q 28.65625 43.3125 25.625 39.296875 
Q 22.609375 35.296875 22.609375 27.984375 
Q 22.609375 20.453125 25.53125 16.578125 
Q 28.46875 12.703125 34.078125 12.703125 
Q 39.546875 12.703125 42.578125 16.703125 
Q 45.609375 20.703125 45.609375 27.984375 
Q 45.609375 35.296875 42.578125 39.296875 
Q 39.546875 43.3125 34.078125 43.3125 
z
" id="DejaVuSans-Bold-103"/>
     </defs>
     <g style="fill:#333333;" transform="translate(159.677602 431.041707)scale(0.1 -0.1)">
      <use xlink:href="#DejaVuSans-Bold-108"/>
      <use x="34.277344" xlink:href="#DejaVuSans-Bold-97"/>
      <use x="101.757812" xlink:href="#DejaVuSans-Bold-103"/>
     </g>
    </g>
   </g>
   <g id="matplotlib.axis_6">
    <g id="ytick_19">
     <g id="line2d_58">
      <path clip-path="url(#p951e283a33)" d="M 48.105708 388.435306 
L 288.58387 388.435306 
" style="fill:none;stroke:#dedede;stroke-linecap:square;stroke-width:0.8;"/>
     </g>
     <g id="line2d_59">
      <g>
       <use style="fill:#333333;stroke:#333333;stroke-width:0.8;" x="48.105708" xlink:href="#m1e39bc4634" y="388.435306"/>
      </g>
     </g>
     <g id="text_44">
      <!-- −0.2 -->
      <defs>
       <path d="M 10.6875 12.40625 
L 21 12.40625 
L 21 0 
L 10.6875 0 
z
" id="DejaVuSans-46"/>
      </defs>
      <g style="fill:#333333;" transform="translate(20.878125 391.600056)scale(0.0833 -0.0833)">
       <use xlink:href="#DejaVuSans-8722"/>
       <use x="83.789062" xlink:href="#DejaVuSans-48"/>
       <use x="147.412109" xlink:href="#DejaVuSans-46"/>
       <use x="179.199219" xlink:href="#DejaVuSans-50"/>
      </g>
     </g>
    </g>
    <g id="ytick_20">
     <g id="line2d_60">
      <path clip-path="url(#p951e283a33)" d="M 48.105708 363.92322 
L 288.58387 363.92322 
" style="fill:none;stroke:#dedede;stroke-linecap:square;stroke-width:0.8;"/>
     </g>
     <g id="line2d_61">
      <g>
       <use style="fill:#333333;stroke:#333333;stroke-width:0.8;" x="48.105708" xlink:href="#m1e39bc4634" y="363.92322"/>
      </g>
     </g>
     <g id="text_45">
      <!-- 0.0 -->
      <g style="fill:#333333;" transform="translate(27.858405 367.08797)scale(0.0833 -0.0833)">
       <use xlink:href="#DejaVuSans-48"/>
       <use x="63.623047" xlink:href="#DejaVuSans-46"/>
       <use x="95.410156" xlink:href="#DejaVuSans-48"/>
      </g>
     </g>
    </g>
    <g id="ytick_21">
     <g id="line2d_62">
      <path clip-path="url(#p951e283a33)" d="M 48.105708 339.411134 
L 288.58387 339.411134 
" style="fill:none;stroke:#dedede;stroke-linecap:square;stroke-width:0.8;"/>
     </g>
     <g id="line2d_63">
      <g>
       <use style="fill:#333333;stroke:#333333;stroke-width:0.8;" x="48.105708" xlink:href="#m1e39bc4634" y="339.411134"/>
      </g>
     </g>
     <g id="text_46">
      <!-- 0.2 -->
      <g style="fill:#333333;" transform="translate(27.858405 342.575884)scale(0.0833 -0.0833)">
       <use xlink:href="#DejaVuSans-48"/>
       <use x="63.623047" xlink:href="#DejaVuSans-46"/>
       <use x="95.410156" xlink:href="#DejaVuSans-50"/>
      </g>
     </g>
    </g>
    <g id="ytick_22">
     <g id="line2d_64">
      <path clip-path="url(#p951e283a33)" d="M 48.105708 314.899048 
L 288.58387 314.899048 
" style="fill:none;stroke:#dedede;stroke-linecap:square;stroke-width:0.8;"/>
     </g>
     <g id="line2d_65">
      <g>
       <use style="fill:#333333;stroke:#333333;stroke-width:0.8;" x="48.105708" xlink:href="#m1e39bc4634" y="314.899048"/>
      </g>
     </g>
     <g id="text_47">
      <!-- 0.4 -->
      <g style="fill:#333333;" transform="translate(27.858405 318.063798)scale(0.0833 -0.0833)">
       <use xlink:href="#DejaVuSans-48"/>
       <use x="63.623047" xlink:href="#DejaVuSans-46"/>
       <use x="95.410156" xlink:href="#DejaVuSans-52"/>
      </g>
     </g>
    </g>
    <g id="ytick_23">
     <g id="line2d_66">
      <path clip-path="url(#p951e283a33)" d="M 48.105708 290.386962 
L 288.58387 290.386962 
" style="fill:none;stroke:#dedede;stroke-linecap:square;stroke-width:0.8;"/>
     </g>
     <g id="line2d_67">
      <g>
       <use style="fill:#333333;stroke:#333333;stroke-width:0.8;" x="48.105708" xlink:href="#m1e39bc4634" y="290.386962"/>
      </g>
     </g>
     <g id="text_48">
      <!-- 0.6 -->
      <g style="fill:#333333;" transform="translate(27.858405 293.551712)scale(0.0833 -0.0833)">
       <use xlink:href="#DejaVuSans-48"/>
       <use x="63.623047" xlink:href="#DejaVuSans-46"/>
       <use x="95.410156" xlink:href="#DejaVuSans-54"/>
      </g>
     </g>
    </g>
    <g id="ytick_24">
     <g id="line2d_68">
      <path clip-path="url(#p951e283a33)" d="M 48.105708 265.874876 
L 288.58387 265.874876 
" style="fill:none;stroke:#dedede;stroke-linecap:square;stroke-width:0.8;"/>
     </g>
     <g id="line2d_69">
      <g>
       <use style="fill:#333333;stroke:#333333;stroke-width:0.8;" x="48.105708" xlink:href="#m1e39bc4634" y="265.874876"/>
      </g>
     </g>
     <g id="text_49">
      <!-- 0.8 -->
      <g style="fill:#333333;" transform="translate(27.858405 269.039626)scale(0.0833 -0.0833)">
       <use xlink:href="#DejaVuSans-48"/>
       <use x="63.623047" xlink:href="#DejaVuSans-46"/>
       <use x="95.410156" xlink:href="#DejaVuSans-56"/>
      </g>
     </g>
    </g>
    <g id="ytick_25">
     <g id="line2d_70">
      <path clip-path="url(#p951e283a33)" d="M 48.105708 241.362791 
L 288.58387 241.362791 
" style="fill:none;stroke:#dedede;stroke-linecap:square;stroke-width:0.8;"/>
     </g>
     <g id="line2d_71">
      <g>
       <use style="fill:#333333;stroke:#333333;stroke-width:0.8;" x="48.105708" xlink:href="#m1e39bc4634" y="241.362791"/>
      </g>
     </g>
     <g id="text_50">
      <!-- 1.0 -->
      <g style="fill:#333333;" transform="translate(27.858405 244.52754)scale(0.0833 -0.0833)">
       <use xlink:href="#DejaVuSans-49"/>
       <use x="63.623047" xlink:href="#DejaVuSans-46"/>
       <use x="95.410156" xlink:href="#DejaVuSans-48"/>
      </g>
     </g>
    </g>
    <g id="text_51">
     <!-- ACF value -->
     <defs>
      <path d="M 53.421875 13.28125 
L 24.03125 13.28125 
L 19.390625 0 
L 0.484375 0 
L 27.484375 72.90625 
L 49.90625 72.90625 
L 76.90625 0 
L 58.015625 0 
z
M 28.71875 26.8125 
L 48.6875 26.8125 
L 38.71875 55.8125 
z
" id="DejaVuSans-Bold-65"/>
      <path d="M 67 4 
Q 61.8125 1.3125 56.203125 -0.046875 
Q 50.59375 -1.421875 44.484375 -1.421875 
Q 26.265625 -1.421875 15.625 8.765625 
Q 4.984375 18.953125 4.984375 36.375 
Q 4.984375 53.859375 15.625 64.03125 
Q 26.265625 74.21875 44.484375 74.21875 
Q 50.59375 74.21875 56.203125 72.84375 
Q 61.8125 71.484375 67 68.796875 
L 67 53.71875 
Q 61.765625 57.28125 56.6875 58.9375 
Q 51.609375 60.59375 46 60.59375 
Q 35.9375 60.59375 30.171875 54.140625 
Q 24.421875 47.703125 24.421875 36.375 
Q 24.421875 25.09375 30.171875 18.640625 
Q 35.9375 12.203125 46 12.203125 
Q 51.609375 12.203125 56.6875 13.859375 
Q 61.765625 15.53125 67 19.09375 
z
" id="DejaVuSans-Bold-67"/>
      <path d="M 9.1875 72.90625 
L 59.90625 72.90625 
L 59.90625 58.6875 
L 27.984375 58.6875 
L 27.984375 45.125 
L 58.015625 45.125 
L 58.015625 30.90625 
L 27.984375 30.90625 
L 27.984375 0 
L 9.1875 0 
z
" id="DejaVuSans-Bold-70"/>
      <path id="DejaVuSans-Bold-32"/>
     </defs>
     <g style="fill:#333333;" transform="translate(14.798437 346.984446)rotate(-90)scale(0.1 -0.1)">
      <use xlink:href="#DejaVuSans-Bold-65"/>
      <use x="77.392578" xlink:href="#DejaVuSans-Bold-67"/>
      <use x="150.78125" xlink:href="#DejaVuSans-Bold-70"/>
      <use x="219.091797" xlink:href="#DejaVuSans-Bold-32"/>
      <use x="253.90625" xlink:href="#DejaVuSans-Bold-118"/>
      <use x="319.091797" xlink:href="#DejaVuSans-Bold-97"/>
      <use x="386.572266" xlink:href="#DejaVuSans-Bold-108"/>
      <use x="420.849609" xlink:href="#DejaVuSans-Bold-117"/>
      <use x="492.041016" xlink:href="#DejaVuSans-Bold-101"/>
     </g>
    </g>
   </g>
   <g id="line2d_72">
    <path clip-path="url(#p951e283a33)" d="M 59.036533 363.92322 
L 59.036533 241.362791 
" style="fill:none;stroke:#000000;stroke-linecap:square;stroke-width:0.5;"/>
   </g>
   <g id="line2d_73">
    <path clip-path="url(#p951e283a33)" d="M 67.781194 363.92322 
L 67.781194 334.691875 
" style="fill:none;stroke:#000000;stroke-linecap:square;stroke-width:0.5;"/>
   </g>
   <g id="line2d_74">
    <path clip-path="url(#p951e283a33)" d="M 76.525854 363.92322 
L 76.525854 367.300489 
" style="fill:none;stroke:#000000;stroke-linecap:square;stroke-width:0.5;"/>
   </g>
   <g id="line2d_75">
    <path clip-path="url(#p951e283a33)" d="M 85.270515 363.92322 
L 85.270515 359.803564 
" style="fill:none;stroke:#000000;stroke-linecap:square;stroke-width:0.5;"/>
   </g>
   <g id="line2d_76">
    <path clip-path="url(#p951e283a33)" d="M 94.015175 363.92322 
L 94.015175 394.059409 
" style="fill:none;stroke:#000000;stroke-linecap:square;stroke-width:0.5;"/>
   </g>
   <g id="line2d_77">
    <path clip-path="url(#p951e283a33)" d="M 102.759836 363.92322 
L 102.759836 389.975145 
" style="fill:none;stroke:#000000;stroke-linecap:square;stroke-width:0.5;"/>
   </g>
   <g id="line2d_78">
    <path clip-path="url(#p951e283a33)" d="M 111.504496 363.92322 
L 111.504496 380.229174 
" style="fill:none;stroke:#000000;stroke-linecap:square;stroke-width:0.5;"/>
   </g>
   <g id="line2d_79">
    <path clip-path="url(#p951e283a33)" d="M 120.249157 363.92322 
L 120.249157 396.618601 
" style="fill:none;stroke:#000000;stroke-linecap:square;stroke-width:0.5;"/>
   </g>
   <g id="line2d_80">
    <path clip-path="url(#p951e283a33)" d="M 128.993817 363.92322 
L 128.993817 388.554112 
" style="fill:none;stroke:#000000;stroke-linecap:square;stroke-width:0.5;"/>
   </g>
   <g id="line2d_81">
    <path clip-path="url(#p951e283a33)" d="M 137.738477 363.92322 
L 137.738477 361.947311 
" style="fill:none;stroke:#000000;stroke-linecap:square;stroke-width:0.5;"/>
   </g>
   <g id="line2d_82">
    <path clip-path="url(#p951e283a33)" d="M 146.483138 363.92322 
L 146.483138 374.14112 
" style="fill:none;stroke:#000000;stroke-linecap:square;stroke-width:0.5;"/>
   </g>
   <g id="line2d_83">
    <path clip-path="url(#p951e283a33)" d="M 155.227798 363.92322 
L 155.227798 329.276338 
" style="fill:none;stroke:#000000;stroke-linecap:square;stroke-width:0.5;"/>
   </g>
   <g id="line2d_84">
    <path clip-path="url(#p951e283a33)" d="M 163.972459 363.92322 
L 163.972459 280.410689 
" style="fill:none;stroke:#000000;stroke-linecap:square;stroke-width:0.5;"/>
   </g>
   <g id="line2d_85">
    <path clip-path="url(#p951e283a33)" d="M 172.717119 363.92322 
L 172.717119 335.004306 
" style="fill:none;stroke:#000000;stroke-linecap:square;stroke-width:0.5;"/>
   </g>
   <g id="line2d_86">
    <path clip-path="url(#p951e283a33)" d="M 181.46178 363.92322 
L 181.46178 361.921347 
" style="fill:none;stroke:#000000;stroke-linecap:square;stroke-width:0.5;"/>
   </g>
   <g id="line2d_87">
    <path clip-path="url(#p951e283a33)" d="M 190.20644 363.92322 
L 190.20644 370.681237 
" style="fill:none;stroke:#000000;stroke-linecap:square;stroke-width:0.5;"/>
   </g>
   <g id="line2d_88">
    <path clip-path="url(#p951e283a33)" d="M 198.951101 363.92322 
L 198.951101 384.013633 
" style="fill:none;stroke:#000000;stroke-linecap:square;stroke-width:0.5;"/>
   </g>
   <g id="line2d_89">
    <path clip-path="url(#p951e283a33)" d="M 207.695761 363.92322 
L 207.695761 386.652994 
" style="fill:none;stroke:#000000;stroke-linecap:square;stroke-width:0.5;"/>
   </g>
   <g id="line2d_90">
    <path clip-path="url(#p951e283a33)" d="M 216.440422 363.92322 
L 216.440422 382.351635 
" style="fill:none;stroke:#000000;stroke-linecap:square;stroke-width:0.5;"/>
   </g>
   <g id="line2d_91">
    <path clip-path="url(#p951e283a33)" d="M 225.185082 363.92322 
L 225.185082 395.229399 
" style="fill:none;stroke:#000000;stroke-linecap:square;stroke-width:0.5;"/>
   </g>
   <g id="line2d_92">
    <path clip-path="url(#p951e283a33)" d="M 233.929742 363.92322 
L 233.929742 384.347812 
" style="fill:none;stroke:#000000;stroke-linecap:square;stroke-width:0.5;"/>
   </g>
   <g id="line2d_93">
    <path clip-path="url(#p951e283a33)" d="M 242.674403 363.92322 
L 242.674403 369.947864 
" style="fill:none;stroke:#000000;stroke-linecap:square;stroke-width:0.5;"/>
   </g>
   <g id="line2d_94">
    <path clip-path="url(#p951e283a33)" d="M 251.419063 363.92322 
L 251.419063 374.094501 
" style="fill:none;stroke:#000000;stroke-linecap:square;stroke-width:0.5;"/>
   </g>
   <g id="line2d_95">
    <path clip-path="url(#p951e283a33)" d="M 260.163724 363.92322 
L 260.163724 328.105346 
" style="fill:none;stroke:#000000;stroke-linecap:square;stroke-width:0.5;"/>
   </g>
   <g id="line2d_96">
    <path clip-path="url(#p951e283a33)" d="M 268.908384 363.92322 
L 268.908384 306.281826 
" style="fill:none;stroke:#000000;stroke-linecap:square;stroke-width:0.5;"/>
   </g>
   <g id="line2d_97">
    <path clip-path="url(#p951e283a33)" d="M 59.036533 363.92322 
L 277.653045 363.92322 
" style="fill:none;stroke:#000000;stroke-linecap:square;stroke-width:1.3;"/>
   </g>
   <g id="text_52">
    <!-- ACF -->
    <defs>
     <path d="M 34.1875 63.1875 
L 20.796875 26.90625 
L 47.609375 26.90625 
z
M 28.609375 72.90625 
L 39.796875 72.90625 
L 67.578125 0 
L 57.328125 0 
L 50.6875 18.703125 
L 17.828125 18.703125 
L 11.1875 0 
L 0.78125 0 
z
" id="DejaVuSans-65"/>
     <path d="M 64.40625 67.28125 
L 64.40625 56.890625 
Q 59.421875 61.53125 53.78125 63.8125 
Q 48.140625 66.109375 41.796875 66.109375 
Q 29.296875 66.109375 22.65625 58.46875 
Q 16.015625 50.828125 16.015625 36.375 
Q 16.015625 21.96875 22.65625 14.328125 
Q 29.296875 6.6875 41.796875 6.6875 
Q 48.140625 6.6875 53.78125 8.984375 
Q 59.421875 11.28125 64.40625 15.921875 
L 64.40625 5.609375 
Q 59.234375 2.09375 53.4375 0.328125 
Q 47.65625 -1.421875 41.21875 -1.421875 
Q 24.65625 -1.421875 15.125 8.703125 
Q 5.609375 18.84375 5.609375 36.375 
Q 5.609375 53.953125 15.125 64.078125 
Q 24.65625 74.21875 41.21875 74.21875 
Q 47.75 74.21875 53.53125 72.484375 
Q 59.328125 70.75 64.40625 67.28125 
z
" id="DejaVuSans-67"/>
     <path d="M 9.8125 72.90625 
L 51.703125 72.90625 
L 51.703125 64.59375 
L 19.671875 64.59375 
L 19.671875 43.109375 
L 48.578125 43.109375 
L 48.578125 34.8125 
L 19.671875 34.8125 
L 19.671875 0 
L 9.8125 0 
z
" id="DejaVuSans-70"/>
    </defs>
    <g transform="translate(156.704789 227.6)scale(0.12 -0.12)">
     <use xlink:href="#DejaVuSans-65"/>
     <use x="66.658203" xlink:href="#DejaVuSans-67"/>
     <use x="136.482422" xlink:href="#DejaVuSans-70"/>
    </g>
   </g>
  </g>
 </g>
 <defs>
  <clipPath id="pfb90dba5a5">
   <rect height="170.781392" width="523.994855" x="48.105708" y="22.318125"/>
  </clipPath>
  <clipPath id="p8ab6ffcf15">
   <rect height="170.781392" width="240.478162" x="331.6224" y="233.6"/>
  </clipPath>
  <clipPath id="p951e283a33">
   <rect height="170.781392" width="240.478162" x="48.105708" y="233.6"/>
  </clipPath>
 </defs>
</svg>
