<?xml version="1.0" encoding="utf-8" standalone="no"?>
<!DOCTYPE svg PUBLIC "-//W3C//DTD SVG 1.1//EN"
  "http://www.w3.org/Graphics/SVG/1.1/DTD/svg11.dtd">
<!-- Created with matplotlib (https://matplotlib.org/) -->
<svg height="260.580003pt" version="1.1" viewBox="0 0 377.39985 260.580003" width="377.39985pt" xmlns="http://www.w3.org/2000/svg" xmlns:xlink="http://www.w3.org/1999/xlink">
 <defs>
  <style type="text/css">
*{stroke-linecap:butt;stroke-linejoin:round;}
  </style>
 </defs>
 <g id="figure_1">
  <g id="patch_1">
   <path d="M 0 260.580003 
L 377.39985 260.580003 
L 377.39985 0 
L 0 0 
z
" style="fill:none;"/>
  </g>
  <g id="axes_1">
   <g id="patch_2">
    <path d="M 35.39985 224.64 
L 370.19985 224.64 
L 370.19985 7.2 
L 35.39985 7.2 
z
" style="fill:#ffffff;"/>
   </g>
   <g id="matplotlib.axis_1">
    <g id="xtick_1">
     <g id="line2d_1">
      <path clip-path="url(#p109e2e9390)" d="M 35.39985 224.64 
L 35.39985 7.2 
" style="fill:none;stroke:#dedede;stroke-linecap:square;stroke-width:0.8;"/>
     </g>
    </g>
    <g id="xtick_2">
     <g id="line2d_2">
      <path clip-path="url(#p109e2e9390)" d="M 35.629008 224.64 
L 35.629008 7.2 
" style="fill:none;stroke:#dedede;stroke-linecap:square;stroke-width:0.8;"/>
     </g>
     <g id="text_1">
      <!-- 2015 -->
      <defs>
       <path d="M 19.1875 8.296875 
L 53.609375 8.296875 
L 53.609375 0 
L 7.328125 0 
L 7.328125 8.296875 
Q 12.9375 14.109375 22.625 23.890625 
Q 32.328125 33.6875 34.8125 36.53125 
Q 39.546875 41.84375 41.421875 45.53125 
Q 43.3125 49.21875 43.3125 52.78125 
Q 43.3125 58.59375 39.234375 62.25 
Q 35.15625 65.921875 28.609375 65.921875 
Q 23.96875 65.921875 18.8125 64.3125 
Q 13.671875 62.703125 7.8125 59.421875 
L 7.8125 69.390625 
Q 13.765625 71.78125 18.9375 73 
Q 24.125 74.21875 28.421875 74.21875 
Q 39.75 74.21875 46.484375 68.546875 
Q 53.21875 62.890625 53.21875 53.421875 
Q 53.21875 48.921875 51.53125 44.890625 
Q 49.859375 40.875 45.40625 35.40625 
Q 44.1875 33.984375 37.640625 27.21875 
Q 31.109375 20.453125 19.1875 8.296875 
z
" id="DejaVuSans-50"/>
       <path d="M 31.78125 66.40625 
Q 24.171875 66.40625 20.328125 58.90625 
Q 16.5 51.421875 16.5 36.375 
Q 16.5 21.390625 20.328125 13.890625 
Q 24.171875 6.390625 31.78125 6.390625 
Q 39.453125 6.390625 43.28125 13.890625 
Q 47.125 21.390625 47.125 36.375 
Q 47.125 51.421875 43.28125 58.90625 
Q 39.453125 66.40625 31.78125 66.40625 
z
M 31.78125 74.21875 
Q 44.046875 74.21875 50.515625 64.515625 
Q 56.984375 54.828125 56.984375 36.375 
Q 56.984375 17.96875 50.515625 8.265625 
Q 44.046875 -1.421875 31.78125 -1.421875 
Q 19.53125 -1.421875 13.0625 8.265625 
Q 6.59375 17.96875 6.59375 36.375 
Q 6.59375 54.828125 13.0625 64.515625 
Q 19.53125 74.21875 31.78125 74.21875 
z
" id="DejaVuSans-48"/>
       <path d="M 12.40625 8.296875 
L 28.515625 8.296875 
L 28.515625 63.921875 
L 10.984375 60.40625 
L 10.984375 69.390625 
L 28.421875 72.90625 
L 38.28125 72.90625 
L 38.28125 8.296875 
L 54.390625 8.296875 
L 54.390625 0 
L 12.40625 0 
z
" id="DejaVuSans-49"/>
       <path d="M 10.796875 72.90625 
L 49.515625 72.90625 
L 49.515625 64.59375 
L 19.828125 64.59375 
L 19.828125 46.734375 
Q 21.96875 47.46875 24.109375 47.828125 
Q 26.265625 48.1875 28.421875 48.1875 
Q 40.625 48.1875 47.75 41.5 
Q 54.890625 34.8125 54.890625 23.390625 
Q 54.890625 11.625 47.5625 5.09375 
Q 40.234375 -1.421875 26.90625 -1.421875 
Q 22.3125 -1.421875 17.546875 -0.640625 
Q 12.796875 0.140625 7.71875 1.703125 
L 7.71875 11.625 
Q 12.109375 9.234375 16.796875 8.0625 
Q 21.484375 6.890625 26.703125 6.890625 
Q 35.15625 6.890625 40.078125 11.328125 
Q 45.015625 15.765625 45.015625 23.390625 
Q 45.015625 31 40.078125 35.4375 
Q 35.15625 39.890625 26.703125 39.890625 
Q 22.75 39.890625 18.8125 39.015625 
Q 14.890625 38.140625 10.796875 36.28125 
z
" id="DejaVuSans-53"/>
      </defs>
      <g style="fill:#333333;" transform="translate(25.029083 237.969498)scale(0.0833 -0.0833)">
       <use xlink:href="#DejaVuSans-50"/>
       <use x="63.623047" xlink:href="#DejaVuSans-48"/>
       <use x="127.246094" xlink:href="#DejaVuSans-49"/>
       <use x="190.869141" xlink:href="#DejaVuSans-53"/>
      </g>
     </g>
    </g>
    <g id="xtick_3">
     <g id="line2d_3">
      <path clip-path="url(#p109e2e9390)" d="M 119.271719 224.64 
L 119.271719 7.2 
" style="fill:none;stroke:#dedede;stroke-linecap:square;stroke-width:0.8;"/>
     </g>
     <g id="text_2">
      <!-- 2016 -->
      <defs>
       <path d="M 33.015625 40.375 
Q 26.375 40.375 22.484375 35.828125 
Q 18.609375 31.296875 18.609375 23.390625 
Q 18.609375 15.53125 22.484375 10.953125 
Q 26.375 6.390625 33.015625 6.390625 
Q 39.65625 6.390625 43.53125 10.953125 
Q 47.40625 15.53125 47.40625 23.390625 
Q 47.40625 31.296875 43.53125 35.828125 
Q 39.65625 40.375 33.015625 40.375 
z
M 52.59375 71.296875 
L 52.59375 62.3125 
Q 48.875 64.0625 45.09375 64.984375 
Q 41.3125 65.921875 37.59375 65.921875 
Q 27.828125 65.921875 22.671875 59.328125 
Q 17.53125 52.734375 16.796875 39.40625 
Q 19.671875 43.65625 24.015625 45.921875 
Q 28.375 48.1875 33.59375 48.1875 
Q 44.578125 48.1875 50.953125 41.515625 
Q 57.328125 34.859375 57.328125 23.390625 
Q 57.328125 12.15625 50.6875 5.359375 
Q 44.046875 -1.421875 33.015625 -1.421875 
Q 20.359375 -1.421875 13.671875 8.265625 
Q 6.984375 17.96875 6.984375 36.375 
Q 6.984375 53.65625 15.1875 63.9375 
Q 23.390625 74.21875 37.203125 74.21875 
Q 40.921875 74.21875 44.703125 73.484375 
Q 48.484375 72.75 52.59375 71.296875 
z
" id="DejaVuSans-54"/>
      </defs>
      <g style="fill:#333333;" transform="translate(108.671794 237.969498)scale(0.0833 -0.0833)">
       <use xlink:href="#DejaVuSans-50"/>
       <use x="63.623047" xlink:href="#DejaVuSans-48"/>
       <use x="127.246094" xlink:href="#DejaVuSans-49"/>
       <use x="190.869141" xlink:href="#DejaVuSans-54"/>
      </g>
     </g>
    </g>
    <g id="xtick_4">
     <g id="line2d_4">
      <path clip-path="url(#p109e2e9390)" d="M 203.143587 224.64 
L 203.143587 7.2 
" style="fill:none;stroke:#dedede;stroke-linecap:square;stroke-width:0.8;"/>
     </g>
     <g id="text_3">
      <!-- 2017 -->
      <defs>
       <path d="M 8.203125 72.90625 
L 55.078125 72.90625 
L 55.078125 68.703125 
L 28.609375 0 
L 18.3125 0 
L 43.21875 64.59375 
L 8.203125 64.59375 
z
" id="DejaVuSans-55"/>
      </defs>
      <g style="fill:#333333;" transform="translate(192.543662 237.969498)scale(0.0833 -0.0833)">
       <use xlink:href="#DejaVuSans-50"/>
       <use x="63.623047" xlink:href="#DejaVuSans-48"/>
       <use x="127.246094" xlink:href="#DejaVuSans-49"/>
       <use x="190.869141" xlink:href="#DejaVuSans-55"/>
      </g>
     </g>
    </g>
    <g id="xtick_5">
     <g id="line2d_5">
      <path clip-path="url(#p109e2e9390)" d="M 286.786298 224.64 
L 286.786298 7.2 
" style="fill:none;stroke:#dedede;stroke-linecap:square;stroke-width:0.8;"/>
     </g>
     <g id="text_4">
      <!-- 2018 -->
      <defs>
       <path d="M 31.78125 34.625 
Q 24.75 34.625 20.71875 30.859375 
Q 16.703125 27.09375 16.703125 20.515625 
Q 16.703125 13.921875 20.71875 10.15625 
Q 24.75 6.390625 31.78125 6.390625 
Q 38.8125 6.390625 42.859375 10.171875 
Q 46.921875 13.96875 46.921875 20.515625 
Q 46.921875 27.09375 42.890625 30.859375 
Q 38.875 34.625 31.78125 34.625 
z
M 21.921875 38.8125 
Q 15.578125 40.375 12.03125 44.71875 
Q 8.5 49.078125 8.5 55.328125 
Q 8.5 64.0625 14.71875 69.140625 
Q 20.953125 74.21875 31.78125 74.21875 
Q 42.671875 74.21875 48.875 69.140625 
Q 55.078125 64.0625 55.078125 55.328125 
Q 55.078125 49.078125 51.53125 44.71875 
Q 48 40.375 41.703125 38.8125 
Q 48.828125 37.15625 52.796875 32.3125 
Q 56.78125 27.484375 56.78125 20.515625 
Q 56.78125 9.90625 50.3125 4.234375 
Q 43.84375 -1.421875 31.78125 -1.421875 
Q 19.734375 -1.421875 13.25 4.234375 
Q 6.78125 9.90625 6.78125 20.515625 
Q 6.78125 27.484375 10.78125 32.3125 
Q 14.796875 37.15625 21.921875 38.8125 
z
M 18.3125 54.390625 
Q 18.3125 48.734375 21.84375 45.5625 
Q 25.390625 42.390625 31.78125 42.390625 
Q 38.140625 42.390625 41.71875 45.5625 
Q 45.3125 48.734375 45.3125 54.390625 
Q 45.3125 60.0625 41.71875 63.234375 
Q 38.140625 66.40625 31.78125 66.40625 
Q 25.390625 66.40625 21.84375 63.234375 
Q 18.3125 60.0625 18.3125 54.390625 
z
" id="DejaVuSans-56"/>
      </defs>
      <g style="fill:#333333;" transform="translate(276.186373 237.969498)scale(0.0833 -0.0833)">
       <use xlink:href="#DejaVuSans-50"/>
       <use x="63.623047" xlink:href="#DejaVuSans-48"/>
       <use x="127.246094" xlink:href="#DejaVuSans-49"/>
       <use x="190.869141" xlink:href="#DejaVuSans-56"/>
      </g>
     </g>
    </g>
    <g id="xtick_6">
     <g id="line2d_6">
      <path clip-path="url(#p109e2e9390)" d="M 370.19985 224.64 
L 370.19985 7.2 
" style="fill:none;stroke:#dedede;stroke-linecap:square;stroke-width:0.8;"/>
     </g>
    </g>
    <g id="xtick_7"/>
    <g id="xtick_8"/>
    <g id="xtick_9"/>
    <g id="xtick_10"/>
    <g id="xtick_11"/>
    <g id="xtick_12"/>
    <g id="xtick_13"/>
    <g id="xtick_14"/>
    <g id="xtick_15"/>
    <g id="xtick_16"/>
    <g id="xtick_17"/>
    <g id="xtick_18"/>
    <g id="text_5">
     <!-- time -->
     <defs>
      <path d="M 27.484375 70.21875 
L 27.484375 54.6875 
L 45.515625 54.6875 
L 45.515625 42.1875 
L 27.484375 42.1875 
L 27.484375 19 
Q 27.484375 15.1875 29 13.84375 
Q 30.515625 12.5 35.015625 12.5 
L 44 12.5 
L 44 0 
L 29 0 
Q 18.65625 0 14.328125 4.3125 
Q 10.015625 8.640625 10.015625 19 
L 10.015625 42.1875 
L 1.3125 42.1875 
L 1.3125 54.6875 
L 10.015625 54.6875 
L 10.015625 70.21875 
z
" id="DejaVuSans-Bold-116"/>
      <path d="M 8.40625 54.6875 
L 25.875 54.6875 
L 25.875 0 
L 8.40625 0 
z
M 8.40625 75.984375 
L 25.875 75.984375 
L 25.875 61.71875 
L 8.40625 61.71875 
z
" id="DejaVuSans-Bold-105"/>
      <path d="M 59.078125 45.609375 
Q 62.40625 50.6875 66.96875 53.34375 
Q 71.53125 56 77 56 
Q 86.421875 56 91.359375 50.1875 
Q 96.296875 44.390625 96.296875 33.296875 
L 96.296875 0 
L 78.71875 0 
L 78.71875 28.515625 
Q 78.765625 29.15625 78.78125 29.828125 
Q 78.8125 30.515625 78.8125 31.78125 
Q 78.8125 37.59375 77.09375 40.203125 
Q 75.390625 42.828125 71.578125 42.828125 
Q 66.609375 42.828125 63.890625 38.71875 
Q 61.1875 34.625 61.078125 26.859375 
L 61.078125 0 
L 43.5 0 
L 43.5 28.515625 
Q 43.5 37.59375 41.9375 40.203125 
Q 40.375 42.828125 36.375 42.828125 
Q 31.34375 42.828125 28.609375 38.703125 
Q 25.875 34.578125 25.875 26.90625 
L 25.875 0 
L 8.296875 0 
L 8.296875 54.6875 
L 25.875 54.6875 
L 25.875 46.6875 
Q 29.109375 51.3125 33.28125 53.65625 
Q 37.453125 56 42.484375 56 
Q 48.140625 56 52.484375 53.265625 
Q 56.84375 50.53125 59.078125 45.609375 
z
" id="DejaVuSans-Bold-109"/>
      <path d="M 62.984375 27.484375 
L 62.984375 22.515625 
L 22.125 22.515625 
Q 22.75 16.359375 26.5625 13.28125 
Q 30.375 10.203125 37.203125 10.203125 
Q 42.71875 10.203125 48.5 11.84375 
Q 54.296875 13.484375 60.40625 16.796875 
L 60.40625 3.328125 
Q 54.203125 0.984375 48 -0.21875 
Q 41.796875 -1.421875 35.59375 -1.421875 
Q 20.75 -1.421875 12.515625 6.125 
Q 4.296875 13.671875 4.296875 27.296875 
Q 4.296875 40.671875 12.375 48.328125 
Q 20.453125 56 34.625 56 
Q 47.515625 56 55.25 48.234375 
Q 62.984375 40.484375 62.984375 27.484375 
z
M 45.015625 33.296875 
Q 45.015625 38.28125 42.109375 41.328125 
Q 39.203125 44.390625 34.515625 44.390625 
Q 29.4375 44.390625 26.265625 41.53125 
Q 23.09375 38.671875 22.3125 33.296875 
z
" id="DejaVuSans-Bold-101"/>
     </defs>
     <g style="fill:#333333;" transform="translate(190.094381 251.300316)scale(0.1 -0.1)">
      <use xlink:href="#DejaVuSans-Bold-116"/>
      <use x="47.802734" xlink:href="#DejaVuSans-Bold-105"/>
      <use x="82.080078" xlink:href="#DejaVuSans-Bold-109"/>
      <use x="186.279297" xlink:href="#DejaVuSans-Bold-101"/>
     </g>
    </g>
   </g>
   <g id="matplotlib.axis_2">
    <g id="ytick_1">
     <g id="line2d_7">
      <path clip-path="url(#p109e2e9390)" d="M 35.39985 207.09736 
L 370.19985 207.09736 
" style="fill:none;stroke:#dedede;stroke-linecap:square;stroke-width:0.8;"/>
     </g>
     <g id="line2d_8">
      <defs>
       <path d="M 0 0 
L -3.5 0 
" id="m56b288ad2a" style="stroke:#333333;stroke-width:0.8;"/>
      </defs>
      <g>
       <use style="fill:#333333;stroke:#333333;stroke-width:0.8;" x="35.39985" xlink:href="#m56b288ad2a" y="207.09736"/>
      </g>
     </g>
     <g id="text_6">
      <!-- 400 -->
      <defs>
       <path d="M 37.796875 64.3125 
L 12.890625 25.390625 
L 37.796875 25.390625 
z
M 35.203125 72.90625 
L 47.609375 72.90625 
L 47.609375 25.390625 
L 58.015625 25.390625 
L 58.015625 17.1875 
L 47.609375 17.1875 
L 47.609375 0 
L 37.796875 0 
L 37.796875 17.1875 
L 4.890625 17.1875 
L 4.890625 26.703125 
z
" id="DejaVuSans-52"/>
      </defs>
      <g style="fill:#333333;" transform="translate(12.499963 210.262109)scale(0.0833 -0.0833)">
       <use xlink:href="#DejaVuSans-52"/>
       <use x="63.623047" xlink:href="#DejaVuSans-48"/>
       <use x="127.246094" xlink:href="#DejaVuSans-48"/>
      </g>
     </g>
    </g>
    <g id="ytick_2">
     <g id="line2d_9">
      <path clip-path="url(#p109e2e9390)" d="M 35.39985 181.865228 
L 370.19985 181.865228 
" style="fill:none;stroke:#dedede;stroke-linecap:square;stroke-width:0.8;"/>
     </g>
     <g id="line2d_10">
      <g>
       <use style="fill:#333333;stroke:#333333;stroke-width:0.8;" x="35.39985" xlink:href="#m56b288ad2a" y="181.865228"/>
      </g>
     </g>
     <g id="text_7">
      <!-- 600 -->
      <g style="fill:#333333;" transform="translate(12.499963 185.029977)scale(0.0833 -0.0833)">
       <use xlink:href="#DejaVuSans-54"/>
       <use x="63.623047" xlink:href="#DejaVuSans-48"/>
       <use x="127.246094" xlink:href="#DejaVuSans-48"/>
      </g>
     </g>
    </g>
    <g id="ytick_3">
     <g id="line2d_11">
      <path clip-path="url(#p109e2e9390)" d="M 35.39985 156.633096 
L 370.19985 156.633096 
" style="fill:none;stroke:#dedede;stroke-linecap:square;stroke-width:0.8;"/>
     </g>
     <g id="line2d_12">
      <g>
       <use style="fill:#333333;stroke:#333333;stroke-width:0.8;" x="35.39985" xlink:href="#m56b288ad2a" y="156.633096"/>
      </g>
     </g>
     <g id="text_8">
      <!-- 800 -->
      <g style="fill:#333333;" transform="translate(12.499963 159.797846)scale(0.0833 -0.0833)">
       <use xlink:href="#DejaVuSans-56"/>
       <use x="63.623047" xlink:href="#DejaVuSans-48"/>
       <use x="127.246094" xlink:href="#DejaVuSans-48"/>
      </g>
     </g>
    </g>
    <g id="ytick_4">
     <g id="line2d_13">
      <path clip-path="url(#p109e2e9390)" d="M 35.39985 131.400964 
L 370.19985 131.400964 
" style="fill:none;stroke:#dedede;stroke-linecap:square;stroke-width:0.8;"/>
     </g>
     <g id="line2d_14">
      <g>
       <use style="fill:#333333;stroke:#333333;stroke-width:0.8;" x="35.39985" xlink:href="#m56b288ad2a" y="131.400964"/>
      </g>
     </g>
     <g id="text_9">
      <!-- 1000 -->
      <g style="fill:#333333;" transform="translate(7.2 134.565714)scale(0.0833 -0.0833)">
       <use xlink:href="#DejaVuSans-49"/>
       <use x="63.623047" xlink:href="#DejaVuSans-48"/>
       <use x="127.246094" xlink:href="#DejaVuSans-48"/>
       <use x="190.869141" xlink:href="#DejaVuSans-48"/>
      </g>
     </g>
    </g>
    <g id="ytick_5">
     <g id="line2d_15">
      <path clip-path="url(#p109e2e9390)" d="M 35.39985 106.168832 
L 370.19985 106.168832 
" style="fill:none;stroke:#dedede;stroke-linecap:square;stroke-width:0.8;"/>
     </g>
     <g id="line2d_16">
      <g>
       <use style="fill:#333333;stroke:#333333;stroke-width:0.8;" x="35.39985" xlink:href="#m56b288ad2a" y="106.168832"/>
      </g>
     </g>
     <g id="text_10">
      <!-- 1200 -->
      <g style="fill:#333333;" transform="translate(7.2 109.333582)scale(0.0833 -0.0833)">
       <use xlink:href="#DejaVuSans-49"/>
       <use x="63.623047" xlink:href="#DejaVuSans-50"/>
       <use x="127.246094" xlink:href="#DejaVuSans-48"/>
       <use x="190.869141" xlink:href="#DejaVuSans-48"/>
      </g>
     </g>
    </g>
    <g id="ytick_6">
     <g id="line2d_17">
      <path clip-path="url(#p109e2e9390)" d="M 35.39985 80.9367 
L 370.19985 80.9367 
" style="fill:none;stroke:#dedede;stroke-linecap:square;stroke-width:0.8;"/>
     </g>
     <g id="line2d_18">
      <g>
       <use style="fill:#333333;stroke:#333333;stroke-width:0.8;" x="35.39985" xlink:href="#m56b288ad2a" y="80.9367"/>
      </g>
     </g>
     <g id="text_11">
      <!-- 1400 -->
      <g style="fill:#333333;" transform="translate(7.2 84.10145)scale(0.0833 -0.0833)">
       <use xlink:href="#DejaVuSans-49"/>
       <use x="63.623047" xlink:href="#DejaVuSans-52"/>
       <use x="127.246094" xlink:href="#DejaVuSans-48"/>
       <use x="190.869141" xlink:href="#DejaVuSans-48"/>
      </g>
     </g>
    </g>
    <g id="ytick_7">
     <g id="line2d_19">
      <path clip-path="url(#p109e2e9390)" d="M 35.39985 55.704568 
L 370.19985 55.704568 
" style="fill:none;stroke:#dedede;stroke-linecap:square;stroke-width:0.8;"/>
     </g>
     <g id="line2d_20">
      <g>
       <use style="fill:#333333;stroke:#333333;stroke-width:0.8;" x="35.39985" xlink:href="#m56b288ad2a" y="55.704568"/>
      </g>
     </g>
     <g id="text_12">
      <!-- 1600 -->
      <g style="fill:#333333;" transform="translate(7.2 58.869318)scale(0.0833 -0.0833)">
       <use xlink:href="#DejaVuSans-49"/>
       <use x="63.623047" xlink:href="#DejaVuSans-54"/>
       <use x="127.246094" xlink:href="#DejaVuSans-48"/>
       <use x="190.869141" xlink:href="#DejaVuSans-48"/>
      </g>
     </g>
    </g>
    <g id="ytick_8">
     <g id="line2d_21">
      <path clip-path="url(#p109e2e9390)" d="M 35.39985 30.472436 
L 370.19985 30.472436 
" style="fill:none;stroke:#dedede;stroke-linecap:square;stroke-width:0.8;"/>
     </g>
     <g id="line2d_22">
      <g>
       <use style="fill:#333333;stroke:#333333;stroke-width:0.8;" x="35.39985" xlink:href="#m56b288ad2a" y="30.472436"/>
      </g>
     </g>
     <g id="text_13">
      <!-- 1800 -->
      <g style="fill:#333333;" transform="translate(7.2 33.637186)scale(0.0833 -0.0833)">
       <use xlink:href="#DejaVuSans-49"/>
       <use x="63.623047" xlink:href="#DejaVuSans-56"/>
       <use x="127.246094" xlink:href="#DejaVuSans-48"/>
       <use x="190.869141" xlink:href="#DejaVuSans-48"/>
      </g>
     </g>
    </g>
   </g>
   <g id="line2d_23">
    <path clip-path="url(#p109e2e9390)" d="M 35.39985 124.966771 
L 35.629008 124.22032 
L 35.858166 93.552766 
L 36.316482 70.60204 
L 36.774799 154.441055 
L 37.233115 174.143145 
L 37.462273 181.365842 
L 37.691431 195.821751 
L 38.378905 139.780135 
L 38.608064 132.909636 
L 38.837222 129.971143 
L 39.06638 113.691162 
L 39.295538 120.241003 
L 39.524696 121.544663 
L 39.983012 108.560628 
L 40.21217 109.49632 
L 40.441328 115.36279 
L 40.670487 115.152523 
L 41.128803 127.984113 
L 41.357961 117.349821 
L 41.587119 129.985771 
L 41.816277 135.372282 
L 42.045435 123.752474 
L 42.274593 98.073523 
L 42.503751 97.810689 
L 42.73291 115.399587 
L 43.191226 62.117735 
L 43.420384 73.503735 
L 44.107858 168.345011 
L 44.337016 178.169772 
L 44.566174 181.271222 
L 44.795333 192.394387 
L 45.253649 157.211333 
L 45.482807 98.152374 
L 45.711965 99.697842 
L 46.170281 87.449744 
L 46.399439 93.542253 
L 46.628597 94.21511 
L 47.086914 83.959299 
L 47.316072 99.529628 
L 47.54523 106.258196 
L 47.774388 89.447288 
L 48.003546 88.516853 
L 48.232704 91.592019 
L 48.461862 88.758661 
L 48.69102 80.563475 
L 48.920179 84.75306 
L 49.149337 124.309684 
L 49.378495 72.993835 
L 49.607653 53.806902 
L 49.836811 86.461486 
L 50.065969 102.951736 
L 50.295127 155.581757 
L 51.21176 193.240714 
L 51.440918 163.887334 
L 51.670076 168.875937 
L 51.899234 60.256866 
L 52.128392 75.075486 
L 52.35755 81.257359 
L 52.586708 78.36092 
L 53.045025 100.680844 
L 53.274183 103.561512 
L 53.503341 103.188287 
L 53.732499 98.183914 
L 53.961657 103.472148 
L 54.190815 95.114005 
L 54.419973 104.907226 
L 54.649131 103.950507 
L 54.878289 108.497548 
L 55.107448 89.77846 
L 55.565764 95.382096 
L 56.02408 80.458341 
L 56.253238 125.255889 
L 56.482396 74.213389 
L 56.711554 54.711053 
L 56.940712 96.081236 
L 57.169871 94.609362 
L 57.399029 160.076231 
L 57.857345 174.143145 
L 58.086503 180.84543 
L 58.315661 192.378617 
L 58.544819 161.548105 
L 58.773977 160.454713 
L 59.003135 99.33513 
L 59.232294 101.627049 
L 59.461452 97.47426 
L 59.69061 124.215292 
L 59.919768 134.281633 
L 60.148926 137.877212 
L 60.378084 139.491017 
L 60.607242 134.865126 
L 60.8364 144.616293 
L 61.294717 132.41025 
L 61.753033 142.10885 
L 62.440507 115.026362 
L 62.669665 121.224004 
L 62.898823 118.763872 
L 63.127981 118.206662 
L 63.586298 61.576296 
L 63.815456 100.402239 
L 64.044614 84.621643 
L 64.273772 160.801655 
L 64.50293 172.250735 
L 64.732088 174.989472 
L 64.961246 182.364614 
L 65.190404 174.905365 
L 65.419563 159.513765 
L 65.648721 170.726293 
L 65.877879 121.891605 
L 66.107037 133.009513 
L 66.794511 143.701629 
L 67.023669 130.407449 
L 67.252827 144.379742 
L 67.481986 145.17876 
L 67.711144 151.229215 
L 67.940302 150.724572 
L 68.16946 157.794826 
L 68.398618 157.468911 
L 68.627776 152.816736 
L 68.856934 158.909245 
L 69.086092 161.479768 
L 69.31525 157.516221 
L 69.544409 159.776599 
L 69.773567 164.186966 
L 70.002725 160.333809 
L 70.690199 57.633775 
L 70.919357 98.977675 
L 71.148515 81.756745 
L 71.377673 168.134743 
L 71.606832 165.401262 
L 72.065148 184.257024 
L 72.294306 165.905905 
L 72.523464 158.283698 
L 72.752622 181.896768 
L 72.98178 151.281782 
L 73.210938 148.259182 
L 73.440096 146.748683 
L 73.669255 150.971637 
L 73.898413 150.293523 
L 74.356729 153.862818 
L 74.585887 159.014379 
L 74.815045 160.512537 
L 75.044203 155.056088 
L 75.273361 155.45034 
L 75.502519 156.249358 
L 75.731678 155.382003 
L 75.960836 157.926243 
L 76.189994 163.125114 
L 76.419152 163.608729 
L 76.64831 157.542504 
L 76.877468 156.501679 
L 77.335784 85.599388 
L 77.564942 72.641637 
L 77.794101 95.907765 
L 78.023259 101.790006 
L 78.252417 169.059921 
L 78.481575 168.933761 
L 78.939891 182.25948 
L 79.169049 172.807944 
L 79.398207 169.780088 
L 79.627365 184.414725 
L 79.856524 174.101091 
L 80.31484 178.390553 
L 80.773156 176.703155 
L 81.002314 183.620964 
L 81.231472 184.125607 
L 81.46063 177.581023 
L 81.689788 177.439092 
L 82.148105 175.015756 
L 82.606421 183.037471 
L 82.835579 184.13612 
L 83.064737 179.809861 
L 83.293895 178.595564 
L 83.523053 179.489203 
L 83.752211 177.943734 
L 83.98137 170.826171 
L 84.439686 105.233141 
L 84.668844 78.676322 
L 84.898002 101.705899 
L 85.12716 106.641935 
L 85.356318 164.024008 
L 85.814634 178.280163 
L 86.043793 183.326589 
L 86.272951 181.097751 
L 86.502109 175.78849 
L 86.731267 176.303646 
L 86.960425 186.769724 
L 87.189583 183.741868 
L 87.418741 185.36093 
L 87.647899 185.681588 
L 87.877057 179.478689 
L 88.106216 178.127719 
L 88.335374 177.77552 
L 88.564532 179.920251 
L 88.79369 179.673187 
L 89.252006 187.694902 
L 89.481164 181.323789 
L 89.710322 181.870485 
L 89.93948 183.889056 
L 90.168639 181.686501 
L 90.397797 181.397382 
L 90.626955 187.495148 
L 90.856113 187.589768 
L 91.085271 181.46572 
L 91.543587 96.8382 
L 91.772745 65.445223 
L 92.001903 93.211081 
L 92.231061 101.385241 
L 92.46022 161.973898 
L 92.689378 173.422977 
L 93.147694 185.187459 
L 93.376852 182.948107 
L 93.60601 166.589275 
L 93.835168 169.554051 
L 94.064326 185.056042 
L 94.980959 163.01998 
L 95.668433 178.711212 
L 95.897591 178.511457 
L 96.126749 184.299078 
L 96.355907 185.43978 
L 96.585066 183.804948 
L 96.814224 183.873285 
L 97.043382 190.076185 
L 97.501698 195.085814 
L 97.730856 191.08547 
L 97.960014 190.785838 
L 98.647489 61.707713 
L 99.564121 175.862084 
L 100.022437 185.355673 
L 100.251595 184.052013 
L 100.480753 164.497111 
L 101.168228 188.940739 
L 101.397386 188.625337 
L 101.626544 190.52826 
L 101.855702 194.665279 
L 102.08486 195.390702 
L 102.543176 183.804948 
L 103.001493 189.308707 
L 103.230651 189.660906 
L 103.688967 197.130668 
L 103.918125 194.370904 
L 104.376441 173.24425 
L 104.605599 161.390405 
L 104.834758 161.563875 
L 105.063916 166.999297 
L 105.293074 147.265667 
L 105.75139 58.280349 
L 105.980548 95.403123 
L 106.209706 111.351933 
L 106.668022 182.390898 
L 106.897181 181.565597 
L 107.126339 189.340247 
L 107.355497 188.073384 
L 107.584655 163.729633 
L 107.813813 173.333614 
L 108.042971 171.704038 
L 108.272129 184.341131 
L 108.501287 187.016789 
L 108.730445 176.203769 
L 108.959604 179.205341 
L 109.188762 178.117205 
L 109.41792 180.945307 
L 109.647078 181.439436 
L 109.876236 179.872941 
L 110.334552 158.220618 
L 110.56371 162.284043 
L 110.792868 160.502023 
L 111.251185 151.623467 
L 111.709501 162.688808 
L 111.938659 155.460853 
L 112.167817 139.396396 
L 112.626133 59.526185 
L 112.855291 106.778609 
L 113.08445 115.499464 
L 113.542766 182.254224 
L 114.001082 185.755182 
L 114.23024 183.053241 
L 114.459398 165.990012 
L 114.917714 190.44941 
L 115.376031 173.84877 
L 115.605189 174.190455 
L 115.834347 173.139116 
L 116.063505 170.148057 
L 116.292663 185.623765 
L 116.521821 183.158375 
L 116.750979 175.404751 
L 116.980137 175.657072 
L 117.209296 169.674955 
L 117.438454 175.194483 
L 117.667612 191.348305 
L 117.89677 190.57557 
L 118.125928 192.073728 
L 118.584244 167.467143 
L 118.813402 171.704038 
L 119.04256 165.327668 
L 119.271719 175.362698 
L 119.959193 34.483294 
L 120.188351 81.325696 
L 120.417509 70.381258 
L 120.646667 129.319313 
L 120.875825 157.526734 
L 121.104983 169.317499 
L 121.334142 205.562406 
L 121.5633 202.62917 
L 122.021616 116.740044 
L 122.479932 107.630193 
L 122.938248 118.253972 
L 123.167406 114.994822 
L 123.396565 109.790695 
L 123.625723 110.78421 
L 124.084039 113.791039 
L 124.542355 125.003568 
L 124.771513 122.317397 
L 125.229829 127.327026 
L 125.458988 121.365935 
L 125.688146 124.635599 
L 125.917304 143.107622 
L 126.146462 140.610692 
L 126.37562 173.386181 
L 127.063094 39.40356 
L 127.292252 76.678778 
L 127.521411 75.664236 
L 127.750569 138.534298 
L 128.208885 171.467487 
L 128.438043 207.107874 
L 128.667201 199.596058 
L 129.125517 102.184258 
L 129.354675 114.789811 
L 130.04215 106.736555 
L 130.500466 100.281335 
L 130.729624 107.430439 
L 130.958782 110.484578 
L 131.18794 100.323388 
L 131.417098 102.709928 
L 131.646257 100.123634 
L 132.104573 56.903095 
L 132.562889 74.607641 
L 132.792047 76.000665 
L 133.021205 175.21551 
L 133.250363 134.355226 
L 133.479521 63.058684 
L 133.70868 47.530409 
L 133.937838 77.320095 
L 134.166996 76.894303 
L 134.396154 142.198214 
L 134.85447 175.462575 
L 135.083628 204.074761 
L 135.312786 198.981024 
L 135.541944 164.639041 
L 135.771103 86.088261 
L 136.000261 73.92427 
L 136.229419 76.289783 
L 136.458577 87.418204 
L 136.916893 81.704178 
L 137.146051 89.489342 
L 137.833526 69.403513 
L 138.291842 84.595359 
L 138.521 82.892191 
L 138.750158 73.640409 
L 138.979316 71.175019 
L 139.208474 45.87455 
L 139.66679 30.598597 
L 139.895949 39.298426 
L 140.125107 147.123737 
L 140.354265 138.103249 
L 140.583423 56.924121 
L 140.812581 36.538661 
L 141.729213 161.164367 
L 141.958372 177.439092 
L 142.18753 202.807898 
L 142.416688 193.282768 
L 142.645846 161.269501 
L 142.875004 36.165436 
L 143.104162 29.594568 
L 143.33332 19.133747 
L 143.791636 25.888599 
L 144.020795 26.146177 
L 144.249953 28.275138 
L 144.479111 19.964305 
L 144.708269 19.039127 
L 144.937427 21.730554 
L 145.166585 28.601053 
L 145.395743 48.092875 
L 145.624901 44.744361 
L 145.854059 38.357478 
L 146.083218 37.027534 
L 146.312376 40.402332 
L 146.541534 53.102505 
L 146.770692 76.38966 
L 146.99985 134.045081 
L 147.229008 133.640316 
L 147.687324 29.599825 
L 148.374799 140.531842 
L 148.603957 161.679523 
L 148.833115 167.777288 
L 149.062273 201.96157 
L 149.520589 152.885073 
L 149.749747 29.999334 
L 149.978905 30.246399 
L 150.208064 36.281083 
L 150.66638 38.499408 
L 150.895538 50.048365 
L 151.124696 52.476958 
L 151.353854 43.225176 
L 151.583012 53.039424 
L 151.81217 57.775706 
L 152.041328 52.876467 
L 152.270487 59.662859 
L 152.499645 61.150504 
L 152.728803 63.395112 
L 152.957961 67.900099 
L 153.187119 64.966863 
L 153.645435 57.102849 
L 153.874593 73.840163 
L 154.103751 139.732825 
L 154.33291 150.014918 
L 154.562068 70.859618 
L 154.791226 35.550403 
L 155.249542 91.134687 
L 155.4787 141.641005 
L 155.707858 167.393549 
L 155.937016 172.445232 
L 156.166174 197.151695 
L 156.395333 171.629759 
L 156.624491 160.396889 
L 156.853649 102.420809 
L 157.082807 102.447093 
L 157.541123 92.480401 
L 157.770281 93.989072 
L 158.228597 120.829752 
L 158.457756 111.015504 
L 158.916072 116.824151 
L 159.14523 108.161119 
L 159.374388 112.77124 
L 159.603546 124.577775 
L 159.832704 130.496813 
L 160.061862 118.874262 
L 160.29102 115.247143 
L 160.520179 125.50821 
L 160.749337 126.643656 
L 160.978495 139.837958 
L 161.207653 145.672889 
L 161.436811 59.021542 
L 161.665969 34.188919 
L 162.124285 94.935277 
L 162.582602 172.397922 
L 162.81176 180.663959 
L 163.040918 195.53789 
L 163.270076 173.827743 
L 163.499234 167.393549 
L 163.728392 150.26724 
L 164.186708 155.923443 
L 164.415866 162.310326 
L 164.645025 164.43403 
L 165.103341 148.080455 
L 165.332499 150.771882 
L 165.561657 151.5709 
L 166.019973 161.337838 
L 166.249131 160.55459 
L 166.707448 149.699517 
L 166.936606 152.753656 
L 167.165764 144.868615 
L 167.394922 149.063457 
L 167.62408 162.341866 
L 167.853238 162.636241 
L 168.082396 125.644884 
L 168.311554 125.934002 
L 168.540712 57.160673 
L 168.769871 38.0999 
L 169.228187 92.948247 
L 169.457345 140.86827 
L 170.144819 204.858009 
L 170.373977 180.440664 
L 170.603135 177.985788 
L 170.832294 167.004554 
L 171.061452 172.040467 
L 171.29061 164.486597 
L 171.519768 161.022436 
L 171.748926 162.625728 
L 171.978084 156.759257 
L 172.207242 158.299468 
L 172.4364 171.835456 
L 172.665558 173.964417 
L 172.894717 162.615214 
L 173.353033 175.141916 
L 173.811349 163.929388 
L 174.269665 170.452945 
L 174.498823 164.071319 
L 174.727981 165.669354 
L 174.95714 165.264588 
L 175.186298 123.757731 
L 175.415456 120.456527 
L 175.644614 59.494645 
L 175.873772 49.517439 
L 176.10293 48.544951 
L 176.561246 147.139507 
L 177.248721 205.593946 
L 177.477879 172.855254 
L 177.707037 178.784805 
L 178.165353 180.298733 
L 178.394511 179.657417 
L 178.623669 175.304874 
L 179.081986 185.161176 
L 179.311144 180.777093 
L 179.76946 185.003475 
L 179.998618 184.956164 
L 180.227776 185.371443 
L 180.456934 192.536317 
L 180.686092 191.963338 
L 180.91525 186.953708 
L 181.144409 190.622881 
L 181.602725 200.784071 
L 181.831883 192.347076 
L 182.061041 124.562005 
L 182.290199 111.204745 
L 182.519357 61.539499 
L 182.977673 37.101128 
L 183.43599 158.005093 
L 183.665148 166.431574 
L 183.894306 178.995073 
L 184.123464 199.711705 
L 184.352622 173.854026 
L 184.810938 197.156952 
L 185.040096 189.928997 
L 185.269255 201.651425 
L 185.498413 204.248232 
L 185.727571 199.033591 
L 185.956729 199.154495 
L 186.185887 202.340052 
L 186.415045 201.456927 
L 186.644203 198.381761 
L 186.873361 207.754447 
L 187.102519 206.177439 
L 187.331678 189.11421 
L 187.560836 188.441353 
L 188.019152 198.408045 
L 188.706626 207.402249 
L 188.935784 200.353022 
L 189.164942 112.72393 
L 189.394101 102.263109 
L 189.852417 36.097099 
L 190.081575 29.626109 
L 190.539891 143.543928 
L 191.227365 199.674908 
L 191.456524 173.049752 
L 191.685682 184.099323 
L 191.91484 166.32644 
L 192.143998 165.033294 
L 192.602314 170.526539 
L 192.831472 171.162599 
L 193.289788 185.192716 
L 193.518947 179.951792 
L 193.748105 150.120052 
L 193.977263 138.329287 
L 194.206421 137.840415 
L 194.435579 129.871266 
L 195.123053 148.038401 
L 195.352211 144.931695 
L 195.810528 156.685663 
L 196.039686 111.031274 
L 196.268844 99.466547 
L 196.498002 81.309926 
L 196.72716 37.285112 
L 196.956318 32.858976 
L 197.185476 110.111353 
L 197.414634 148.264439 
L 197.872951 181.103008 
L 198.102109 203.428188 
L 198.331267 174.747664 
L 198.560425 179.363042 
L 198.789583 180.204113 
L 199.018741 178.674415 
L 199.477057 171.903793 
L 199.706216 180.798119 
L 199.935374 184.225484 
L 200.164532 177.896424 
L 200.39369 178.96879 
L 200.852006 173.375667 
L 201.081164 173.470288 
L 201.310322 184.551399 
L 201.53948 187.747469 
L 201.768639 187.805293 
L 201.997797 180.141033 
L 202.226955 180.572082 
L 202.456113 182.401411 
L 202.685271 180.87697 
L 202.914429 191.726787 
L 203.143587 191.963338 
L 203.601903 108.339847 
L 203.831061 111.740928 
L 204.06022 151.392172 
L 204.289378 134.581264 
L 204.747694 183.783922 
L 205.20601 208.658598 
L 205.435168 214.756364 
L 205.893484 172.371639 
L 206.122643 172.287532 
L 206.351801 176.077608 
L 206.810117 162.178909 
L 207.039275 164.702122 
L 207.268433 162.284043 
L 207.497591 163.324868 
L 207.955907 173.94339 
L 208.185066 170.978615 
L 208.414224 173.549138 
L 208.643382 172.723837 
L 208.87254 175.746436 
L 209.101698 175.588735 
L 209.330856 178.527227 
L 209.560014 175.473088 
L 210.01833 146.755768 
L 210.247489 185.282079 
L 210.476647 130.712337 
L 210.705805 108.713072 
L 210.934963 117.980624 
L 211.164121 153.563187 
L 211.393279 140.752623 
L 211.851595 183.300306 
L 212.080753 199.869406 
L 212.309912 205.068276 
L 212.53907 213.137302 
L 212.768228 189.823863 
L 212.997386 90.771975 
L 213.226544 78.082315 
L 213.455702 79.764458 
L 213.68486 80.447828 
L 213.914018 88.50634 
L 214.143176 105.506489 
L 214.601493 114.994822 
L 214.830651 110.81575 
L 215.059809 113.854119 
L 215.288967 109.328106 
L 215.518125 122.832553 
L 215.747283 121.833781 
L 215.976441 124.130956 
L 216.205599 123.794528 
L 216.434758 109.937882 
L 216.663916 184.125607 
L 216.893074 124.488411 
L 217.122232 106.494747 
L 217.35139 102.284135 
L 217.580548 154.809023 
L 217.809706 140.526585 
L 218.268022 180.277707 
L 218.497181 199.070388 
L 218.955497 208.753219 
L 219.184655 191.600626 
L 219.413813 100.870085 
L 219.872129 102.310419 
L 220.101287 100.617763 
L 220.330445 99.766179 
L 220.788762 111.415013 
L 221.01792 110.84729 
L 221.247078 111.131152 
L 221.476236 113.365247 
L 221.705394 111.4045 
L 221.934552 107.924568 
L 222.16371 118.595657 
L 222.392868 117.554832 
L 222.622027 93.763034 
L 223.080343 106.994133 
L 223.309501 109.322849 
L 223.538659 108.423954 
L 223.767817 183.084781 
L 223.996975 107.072984 
L 224.226133 99.27205 
L 224.455291 113.37576 
L 224.68445 153.168935 
L 224.913608 145.551985 
L 225.371924 183.426466 
L 225.83024 208.232806 
L 226.059398 208.327427 
L 226.288556 185.918139 
L 226.517714 126.433388 
L 226.976031 133.661343 
L 227.205189 136.300203 
L 227.434347 125.318969 
L 227.663505 125.271659 
L 227.892663 128.730564 
L 228.350979 130.733364 
L 228.809296 137.351542 
L 229.038454 131.705853 
L 229.267612 129.492784 
L 229.49677 129.792416 
L 229.725928 134.681141 
L 230.184244 155.639581 
L 230.413402 159.135283 
L 230.64256 183.242482 
L 230.871719 89.18971 
L 231.559193 146.803078 
L 231.788351 139.648717 
L 232.246667 187.663362 
L 232.475825 194.907086 
L 232.704983 207.943688 
L 232.934142 205.120843 
L 233.1633 183.983676 
L 233.392458 115.026362 
L 233.621616 117.433928 
L 233.850774 124.514695 
L 234.079932 123.531693 
L 234.30909 121.539406 
L 234.538248 112.02479 
L 234.767406 110.16392 
L 234.996565 125.912976 
L 235.225723 132.194725 
L 235.454881 122.669595 
L 235.684039 132.757191 
L 235.913197 133.850584 
L 236.142355 132.683598 
L 236.371513 129.503298 
L 236.600671 130.654514 
L 236.829829 133.561466 
L 237.058988 126.938031 
L 237.517304 138.939064 
L 237.746462 183.526344 
L 237.97562 96.859227 
L 238.204778 92.270133 
L 238.663094 143.974977 
L 238.892252 140.926094 
L 239.121411 169.259676 
L 239.808885 206.992226 
L 240.038043 203.207407 
L 240.267201 189.534745 
L 240.496359 149.541816 
L 240.725517 149.872988 
L 240.954675 155.960239 
L 241.183834 152.443511 
L 241.64215 160.664981 
L 242.329624 151.329092 
L 243.017098 164.707379 
L 243.246257 162.457513 
L 243.475415 156.096913 
L 243.704573 158.593843 
L 243.933731 153.000721 
L 244.162889 157.29544 
L 244.392047 159.308754 
L 244.621205 183.237225 
L 244.850363 66.854017 
L 245.537838 147.407598 
L 245.766996 147.171047 
L 246.225312 181.428923 
L 246.683628 209.415562 
L 246.912786 203.990654 
L 247.141944 192.199889 
L 247.371103 170.705267 
L 247.600261 174.5006 
L 247.829419 180.729782 
L 248.058577 181.681244 
L 248.287735 176.240566 
L 248.516893 178.41158 
L 248.975209 176.955476 
L 249.204367 174.984216 
L 249.662684 180.340787 
L 249.891842 179.06341 
L 250.121 180.014872 
L 250.350158 173.727866 
L 250.579316 174.174685 
L 251.26679 187.242826 
L 251.495949 183.358129 
L 251.725107 184.719613 
L 251.954265 72.336749 
L 252.641739 142.802734 
L 252.870897 143.512388 
L 253.100055 174.374439 
L 253.329213 180.451178 
L 253.78753 210.640372 
L 254.245846 181.402639 
L 254.475004 195.748158 
L 254.704162 190.507233 
L 254.93332 193.093527 
L 255.162478 187.200773 
L 255.391636 186.738184 
L 255.620795 191.11701 
L 255.849953 198.928458 
L 256.079111 201.672452 
L 256.308269 194.465524 
L 256.537427 192.294509 
L 256.766585 192.42067 
L 257.224901 191.364075 
L 257.454059 198.05059 
L 257.683218 200.121727 
L 257.912376 193.655993 
L 258.141534 192.699275 
L 258.370692 194.444497 
L 258.59985 190.754298 
L 258.829008 184.383185 
L 259.058166 88.001697 
L 259.287324 98.246994 
L 259.516482 128.646457 
L 259.745641 143.833046 
L 259.974799 139.932579 
L 260.203957 175.767463 
L 260.433115 185.161176 
L 260.662273 203.827696 
L 260.891431 207.09736 
L 261.349747 175.410008 
L 261.578905 197.987509 
L 261.808064 196.767956 
L 262.037222 196.599742 
L 262.26638 194.334107 
L 262.495538 195.296082 
L 262.724696 199.264886 
L 262.953854 200.573803 
L 263.183012 200.158524 
L 263.41217 200.815611 
L 263.870487 198.875891 
L 264.099645 200.232118 
L 264.328803 205.18918 
L 264.557961 204.237719 
L 264.787119 207.102617 
L 265.016277 206.9712 
L 265.245435 207.62303 
L 265.474593 206.634771 
L 265.703751 182.22794 
L 265.93291 86.619187 
L 267.307858 190.454667 
L 267.537016 201.456927 
L 267.766174 203.118043 
L 268.224491 164.41826 
L 268.453649 207.707137 
L 268.682807 210.067392 
L 268.911965 214.209667 
L 269.141123 209.121187 
L 269.370281 209.520696 
L 269.599439 208.600775 
L 269.828597 201.299227 
L 270.057756 201.89849 
L 270.516072 210.288174 
L 270.74523 209.830841 
L 270.974388 210.18304 
L 271.203546 210.146243 
L 271.432704 210.80333 
L 271.661862 209.252605 
L 271.89102 214.157101 
L 272.120179 214.667 
L 272.349337 213.3318 
L 272.578495 212.706253 
L 272.807653 174.200968 
L 273.036811 113.091899 
L 273.265969 106.258196 
L 273.724285 132.100105 
L 274.182602 168.917991 
L 274.640918 198.108413 
L 274.870076 202.029907 
L 275.099234 183.56314 
L 275.328392 134.875639 
L 275.55755 189.871173 
L 275.786708 197.54069 
L 276.015866 194.008192 
L 276.245025 196.068816 
L 276.474183 195.685077 
L 276.932499 202.439929 
L 277.161657 200.505466 
L 277.619973 207.344425 
L 277.849131 207.418019 
L 278.078289 205.415218 
L 278.307448 200.579059 
L 278.536606 200.794584 
L 278.765764 200.663167 
L 278.994922 201.793356 
L 279.22408 200.11647 
L 279.453238 195.353905 
L 279.682396 170.673726 
L 279.911554 118.064731 
L 280.140712 105.853431 
L 280.369871 116.077701 
L 280.599029 109.038987 
L 280.828187 149.583869 
L 281.286503 191.921284 
L 281.515661 192.97788 
L 281.744819 207.649313 
L 281.973977 186.654077 
L 282.203135 123.899662 
L 282.432294 141.667288 
L 282.661452 128.378365 
L 282.89061 128.546579 
L 283.119768 130.680797 
L 283.348926 138.918037 
L 283.578084 141.004945 
L 283.807242 132.652058 
L 284.0364 132.610004 
L 284.494717 144.726684 
L 284.953033 161.101286 
L 285.182191 166.93096 
L 285.411349 163.282814 
L 286.098823 113.354733 
L 286.55714 123.673624 
L 286.786298 124.25186 
L 287.015456 121.865321 
L 287.473772 45.291057 
L 287.70293 44.612944 
L 287.932088 52.482215 
L 288.848721 188.988049 
L 289.307037 128.699024 
L 289.536195 122.822039 
L 289.765353 120.813982 
L 289.994511 114.437612 
L 290.223669 114.579543 
L 290.452827 103.114693 
L 290.681986 106.500004 
L 291.140302 132.510127 
L 291.36946 125.41359 
L 291.598618 111.756698 
L 291.827776 108.855003 
L 292.056934 115.467924 
L 292.286092 110.353161 
L 292.51525 109.49632 
L 292.744409 129.298287 
L 292.973567 132.50487 
L 293.202725 124.961514 
L 293.661041 121.760187 
L 293.890199 109.985192 
L 294.119357 118.879519 
L 294.348515 57.707369 
L 294.577673 40.454899 
L 295.03599 53.312773 
L 295.952622 189.718729 
L 296.18178 139.080994 
L 296.410938 130.270775 
L 296.869255 88.911105 
L 297.327571 71.248613 
L 297.785887 75.979638 
L 298.015045 73.566815 
L 298.473361 88.217222 
L 298.702519 98.473032 
L 298.931678 96.307274 
L 299.160836 103.619336 
L 299.389994 115.615112 
L 299.619152 111.204745 
L 299.84831 103.598309 
L 300.077468 102.410296 
L 300.306626 99.608478 
L 300.535784 132.646801 
L 300.764942 65.524073 
L 300.994101 34.798696 
L 301.223259 40.228861 
L 301.452417 53.549324 
L 302.369049 186.291365 
L 302.598207 137.214868 
L 302.827365 112.108897 
L 303.056524 34.320337 
L 303.285682 34.015448 
L 303.51484 19.874941 
L 303.743998 20.111492 
L 303.973156 36.312624 
L 304.202314 42.56809 
L 304.431472 37.274599 
L 304.66063 42.147554 
L 304.889788 51.972316 
L 305.118947 52.198353 
L 305.348105 49.517439 
L 305.577263 56.619233 
L 305.806421 55.036968 
L 306.035579 45.590689 
L 306.493895 38.336451 
L 306.952211 56.992458 
L 307.18137 56.303832 
L 307.639686 129.440217 
L 308.098002 31.161063 
L 308.32716 46.547407 
L 308.556318 51.346769 
L 309.014634 151.875788 
L 309.243793 164.313126 
L 309.472951 186.117894 
L 309.931267 86.750604 
L 310.160425 28.122694 
L 310.618741 46.326626 
L 310.847899 31.839177 
L 311.077057 30.766811 
L 311.306216 32.201889 
L 311.535374 28.643107 
L 311.764532 23.276022 
L 311.99369 22.965877 
L 312.222848 25.184202 
L 312.452006 17.083636 
L 312.681164 18.077152 
L 313.13948 28.348732 
L 313.597797 32.333306 
L 313.826955 43.072732 
L 314.056113 39.4351 
L 314.285271 97.758122 
L 314.514429 122.438301 
L 314.743587 59.315917 
L 314.972745 27.102895 
L 315.201903 52.892237 
L 315.431061 45.848267 
L 315.889378 151.944125 
L 316.118536 161.15911 
L 316.347694 182.11755 
L 316.80601 93.184798 
L 317.035168 62.648661 
L 317.264326 55.331343 
L 317.493484 64.888013 
L 317.722643 65.140334 
L 317.951801 64.777622 
L 318.180959 67.847532 
L 318.410117 67.253525 
L 318.639275 69.245813 
L 318.868433 64.230926 
L 319.097591 65.823705 
L 319.326749 71.211816 
L 319.555907 70.554729 
L 320.014224 54.09602 
L 320.243382 54.011913 
L 320.47254 54.06448 
L 320.701698 54.500785 
L 320.930856 49.585776 
L 321.160014 54.14333 
L 321.389172 103.367014 
L 321.61833 121.58146 
L 321.847489 59.389511 
L 322.076647 29.620852 
L 322.305805 54.637459 
L 322.534963 39.235346 
L 322.993279 138.287234 
L 323.222437 155.928699 
L 323.451595 183.773408 
L 323.680753 121.224004 
L 323.909912 96.060209 
L 324.13907 33.78941 
L 324.368228 32.012648 
L 324.826544 52.91852 
L 325.28486 56.650773 
L 325.514018 56.330115 
L 325.743176 56.913608 
L 325.972335 60.924466 
L 326.430651 76.095285 
L 326.659809 79.133654 
L 326.888967 77.940385 
L 327.118125 82.287671 
L 327.576441 85.877993 
L 327.805599 85.446944 
L 328.034758 86.792658 
L 328.493074 125.213835 
L 328.95139 22.671502 
L 329.180548 43.162096 
L 329.409706 46.552664 
L 329.638864 112.398015 
L 329.868022 142.68183 
L 330.097181 156.506936 
L 330.326339 183.347616 
L 330.555497 101.473462 
L 331.242971 117.84395 
L 331.472129 119.652253 
L 331.930445 114.385045 
L 332.159604 118.164608 
L 332.388762 119.883547 
L 332.61792 115.956797 
L 332.847078 117.065959 
L 333.076236 121.67608 
L 333.305394 120.041248 
L 333.534552 122.538178 
L 334.222027 125.644884 
L 334.451185 139.075738 
L 334.680343 141.435993 
L 334.909501 138.902267 
L 335.138659 134.907179 
L 335.367817 102.341959 
L 335.596975 125.219092 
L 336.055291 20.631905 
L 336.28445 45.022966 
L 336.513608 42.531293 
L 336.742766 109.943139 
L 337.201082 161.916074 
L 337.43024 179.688957 
L 337.659398 107.041444 
L 337.888556 117.17635 
L 338.117714 141.562154 
L 338.576031 150.041202 
L 338.805189 148.543044 
L 339.034347 147.959551 
L 339.263505 155.792025 
L 339.492663 158.546533 
L 339.721821 147.633636 
L 339.950979 152.17542 
L 340.180137 150.882273 
L 340.409296 152.559158 
L 340.638454 156.012806 
L 340.867612 162.678295 
L 341.09677 163.05152 
L 341.325928 157.610841 
L 341.555086 158.383575 
L 341.784244 162.010694 
L 342.24256 157.158766 
L 342.471719 110.915627 
L 342.700877 120.92963 
L 342.930035 54.132817 
L 343.159193 23.023701 
L 343.388351 47.141414 
L 343.617509 41.338023 
L 344.075825 143.25481 
L 344.534142 181.791635 
L 344.7633 103.282907 
L 344.992458 124.567262 
L 345.221616 167.162255 
L 345.450774 167.036094 
L 345.679932 172.907821 
L 345.90909 170.70001 
L 346.138248 166.957244 
L 346.367406 165.485369 
L 346.596565 159.90276 
L 346.825723 167.924475 
L 347.054881 167.845625 
L 347.284039 174.56368 
L 347.742355 176.992273 
L 347.971513 173.643759 
L 348.200671 174.621504 
L 348.429829 174.931649 
L 348.658988 174.658301 
L 348.888146 182.496032 
L 349.117304 177.339215 
L 349.346462 112.981508 
L 349.57562 121.818011 
L 349.804778 26.61928 
L 350.033936 21.446693 
L 350.263094 51.672684 
L 350.492252 41.674452 
L 350.721411 107.335818 
L 351.179727 158.972325 
L 351.408885 179.431379 
L 351.638043 88.905849 
L 351.867201 125.287429 
L 352.096359 190.065671 
L 352.554675 165.59576 
L 352.783834 167.067634 
L 353.012992 172.303302 
L 353.24215 173.123346 
L 353.471308 167.277902 
L 353.700466 168.528995 
L 353.929624 168.497455 
L 354.617098 181.807405 
L 355.075415 177.533712 
L 355.533731 174.069551 
L 355.762889 173.585935 
L 355.992047 166.568248 
L 356.221205 155.008778 
L 356.450363 104.350016 
L 356.679521 123.778758 
L 356.90868 27.917683 
L 357.137838 23.827975 
L 357.366996 44.134585 
L 357.596154 35.156151 
L 357.825312 110.190203 
L 358.05447 146.960779 
L 358.283628 158.767314 
L 358.512786 182.022929 
L 358.741944 82.198307 
L 358.971103 119.152867 
L 359.200261 96.691013 
L 359.429419 108.003419 
L 359.658577 112.193004 
L 359.887735 110.558172 
L 360.116893 122.669595 
L 360.346051 124.80907 
L 360.575209 117.696763 
L 360.804367 120.482811 
L 361.033526 120.498581 
L 361.262684 113.402043 
L 361.491842 111.37296 
L 361.721 110.710616 
L 362.179316 94.562052 
L 362.408474 96.496515 
L 362.637632 101.500888 
L 362.86679 100.796491 
L 363.095949 104.40784 
L 363.325107 109.864288 
L 363.554265 102.878142 
L 363.783423 31.839177 
L 364.012581 29.620852 
L 364.241739 57.717882 
L 364.470897 38.79904 
L 364.700055 115.136753 
L 364.929213 147.397085 
L 365.38753 181.796891 
L 365.616688 83.044635 
L 365.845846 120.367163 
L 366.304162 104.444637 
L 366.53332 98.394182 
L 366.991636 80.84208 
L 367.220795 87.292044 
L 367.449953 84.527022 
L 367.679111 85.42066 
L 367.908269 93.289932 
L 368.137427 94.173056 
L 368.366585 97.164115 
L 368.824901 107.03093 
L 369.054059 105.990105 
L 369.283218 107.756354 
L 369.970692 123.032307 
L 370.19985 123.447357 
L 370.19985 123.447357 
" style="fill:none;stroke:#000000;stroke-linecap:square;stroke-width:1.3;"/>
   </g>
  </g>
 </g>
 <defs>
  <clipPath id="p109e2e9390">
   <rect height="217.44" width="334.8" x="35.39985" y="7.2"/>
  </clipPath>
 </defs>
</svg>
