<?xml version="1.0" encoding="utf-8" standalone="no"?>
<!DOCTYPE svg PUBLIC "-//W3C//DTD SVG 1.1//EN"
  "http://www.w3.org/Graphics/SVG/1.1/DTD/svg11.dtd">
<!-- Created with matplotlib (https://matplotlib.org/) -->
<svg height="339.385906pt" version="1.1" viewBox="0 0 481.047303 339.385906" width="481.047303pt" xmlns="http://www.w3.org/2000/svg" xmlns:xlink="http://www.w3.org/1999/xlink">
 <defs>
  <style type="text/css">
*{stroke-linecap:butt;stroke-linejoin:round;}
  </style>
 </defs>
 <g id="figure_1">
  <g id="patch_1">
   <path d="M 0 339.385906 
L 481.047303 339.385906 
L 481.047303 0 
L 0 0 
z
" style="fill:none;"/>
  </g>
  <g id="axes_1">
   <g id="patch_2">
    <path d="M 27.447303 294.118125 
L 473.847303 294.118125 
L 473.847303 22.318125 
L 27.447303 22.318125 
z
" style="fill:#ffffff;"/>
   </g>
   <g id="matplotlib.axis_1">
    <g id="xtick_1">
     <g id="line2d_1">
      <path clip-path="url(#p803ce0ea42)" d="M 27.447303 294.118125 
L 27.447303 22.318125 
" style="fill:none;stroke:#dedede;stroke-linecap:square;stroke-width:0.8;"/>
     </g>
    </g>
    <g id="xtick_2">
     <g id="line2d_2">
      <path clip-path="url(#p803ce0ea42)" d="M 54.139262 294.118125 
L 54.139262 22.318125 
" style="fill:none;stroke:#dedede;stroke-linecap:square;stroke-width:0.8;"/>
     </g>
     <g id="text_1">
      <!-- Oct -->
      <defs>
       <path d="M 39.40625 66.21875 
Q 28.65625 66.21875 22.328125 58.203125 
Q 16.015625 50.203125 16.015625 36.375 
Q 16.015625 22.609375 22.328125 14.59375 
Q 28.65625 6.59375 39.40625 6.59375 
Q 50.140625 6.59375 56.421875 14.59375 
Q 62.703125 22.609375 62.703125 36.375 
Q 62.703125 50.203125 56.421875 58.203125 
Q 50.140625 66.21875 39.40625 66.21875 
z
M 39.40625 74.21875 
Q 54.734375 74.21875 63.90625 63.9375 
Q 73.09375 53.65625 73.09375 36.375 
Q 73.09375 19.140625 63.90625 8.859375 
Q 54.734375 -1.421875 39.40625 -1.421875 
Q 24.03125 -1.421875 14.8125 8.828125 
Q 5.609375 19.09375 5.609375 36.375 
Q 5.609375 53.65625 14.8125 63.9375 
Q 24.03125 74.21875 39.40625 74.21875 
z
" id="DejaVuSans-79"/>
       <path d="M 48.78125 52.59375 
L 48.78125 44.1875 
Q 44.96875 46.296875 41.140625 47.34375 
Q 37.3125 48.390625 33.40625 48.390625 
Q 24.65625 48.390625 19.8125 42.84375 
Q 14.984375 37.3125 14.984375 27.296875 
Q 14.984375 17.28125 19.8125 11.734375 
Q 24.65625 6.203125 33.40625 6.203125 
Q 37.3125 6.203125 41.140625 7.25 
Q 44.96875 8.296875 48.78125 10.40625 
L 48.78125 2.09375 
Q 45.015625 0.34375 40.984375 -0.53125 
Q 36.96875 -1.421875 32.421875 -1.421875 
Q 20.0625 -1.421875 12.78125 6.34375 
Q 5.515625 14.109375 5.515625 27.296875 
Q 5.515625 40.671875 12.859375 48.328125 
Q 20.21875 56 33.015625 56 
Q 37.15625 56 41.109375 55.140625 
Q 45.0625 54.296875 48.78125 52.59375 
z
" id="DejaVuSans-99"/>
       <path d="M 18.3125 70.21875 
L 18.3125 54.6875 
L 36.8125 54.6875 
L 36.8125 47.703125 
L 18.3125 47.703125 
L 18.3125 18.015625 
Q 18.3125 11.328125 20.140625 9.421875 
Q 21.96875 7.515625 27.59375 7.515625 
L 36.8125 7.515625 
L 36.8125 0 
L 27.59375 0 
Q 17.1875 0 13.234375 3.875 
Q 9.28125 7.765625 9.28125 18.015625 
L 9.28125 47.703125 
L 2.6875 47.703125 
L 2.6875 54.6875 
L 9.28125 54.6875 
L 9.28125 70.21875 
z
" id="DejaVuSans-116"/>
      </defs>
      <g style="fill:#333333;" transform="translate(46.937717 307.447623)scale(0.0833 -0.0833)">
       <use xlink:href="#DejaVuSans-79"/>
       <use x="78.710938" xlink:href="#DejaVuSans-99"/>
       <use x="133.691406" xlink:href="#DejaVuSans-116"/>
      </g>
     </g>
    </g>
    <g id="xtick_3">
     <g id="line2d_3">
      <path clip-path="url(#p803ce0ea42)" d="M 138.8172 294.118125 
L 138.8172 22.318125 
" style="fill:none;stroke:#dedede;stroke-linecap:square;stroke-width:0.8;"/>
     </g>
     <g id="text_2">
      <!-- Jan -->
      <defs>
       <path d="M 9.8125 72.90625 
L 19.671875 72.90625 
L 19.671875 5.078125 
Q 19.671875 -8.109375 14.671875 -14.0625 
Q 9.671875 -20.015625 -1.421875 -20.015625 
L -5.171875 -20.015625 
L -5.171875 -11.71875 
L -2.09375 -11.71875 
Q 4.4375 -11.71875 7.125 -8.046875 
Q 9.8125 -4.390625 9.8125 5.078125 
z
" id="DejaVuSans-74"/>
       <path d="M 34.28125 27.484375 
Q 23.390625 27.484375 19.1875 25 
Q 14.984375 22.515625 14.984375 16.5 
Q 14.984375 11.71875 18.140625 8.90625 
Q 21.296875 6.109375 26.703125 6.109375 
Q 34.1875 6.109375 38.703125 11.40625 
Q 43.21875 16.703125 43.21875 25.484375 
L 43.21875 27.484375 
z
M 52.203125 31.203125 
L 52.203125 0 
L 43.21875 0 
L 43.21875 8.296875 
Q 40.140625 3.328125 35.546875 0.953125 
Q 30.953125 -1.421875 24.3125 -1.421875 
Q 15.921875 -1.421875 10.953125 3.296875 
Q 6 8.015625 6 15.921875 
Q 6 25.140625 12.171875 29.828125 
Q 18.359375 34.515625 30.609375 34.515625 
L 43.21875 34.515625 
L 43.21875 35.40625 
Q 43.21875 41.609375 39.140625 45 
Q 35.0625 48.390625 27.6875 48.390625 
Q 23 48.390625 18.546875 47.265625 
Q 14.109375 46.140625 10.015625 43.890625 
L 10.015625 52.203125 
Q 14.9375 54.109375 19.578125 55.046875 
Q 24.21875 56 28.609375 56 
Q 40.484375 56 46.34375 49.84375 
Q 52.203125 43.703125 52.203125 31.203125 
z
" id="DejaVuSans-97"/>
       <path d="M 54.890625 33.015625 
L 54.890625 0 
L 45.90625 0 
L 45.90625 32.71875 
Q 45.90625 40.484375 42.875 44.328125 
Q 39.84375 48.1875 33.796875 48.1875 
Q 26.515625 48.1875 22.3125 43.546875 
Q 18.109375 38.921875 18.109375 30.90625 
L 18.109375 0 
L 9.078125 0 
L 9.078125 54.6875 
L 18.109375 54.6875 
L 18.109375 46.1875 
Q 21.34375 51.125 25.703125 53.5625 
Q 30.078125 56 35.796875 56 
Q 45.21875 56 50.046875 50.171875 
Q 54.890625 44.34375 54.890625 33.015625 
z
" id="DejaVuSans-110"/>
      </defs>
      <g style="fill:#333333;" transform="translate(132.396592 307.447623)scale(0.0833 -0.0833)">
       <use xlink:href="#DejaVuSans-74"/>
       <use x="29.492188" xlink:href="#DejaVuSans-97"/>
       <use x="90.771484" xlink:href="#DejaVuSans-110"/>
      </g>
      <!-- 2018 -->
      <defs>
       <path d="M 19.1875 8.296875 
L 53.609375 8.296875 
L 53.609375 0 
L 7.328125 0 
L 7.328125 8.296875 
Q 12.9375 14.109375 22.625 23.890625 
Q 32.328125 33.6875 34.8125 36.53125 
Q 39.546875 41.84375 41.421875 45.53125 
Q 43.3125 49.21875 43.3125 52.78125 
Q 43.3125 58.59375 39.234375 62.25 
Q 35.15625 65.921875 28.609375 65.921875 
Q 23.96875 65.921875 18.8125 64.3125 
Q 13.671875 62.703125 7.8125 59.421875 
L 7.8125 69.390625 
Q 13.765625 71.78125 18.9375 73 
Q 24.125 74.21875 28.421875 74.21875 
Q 39.75 74.21875 46.484375 68.546875 
Q 53.21875 62.890625 53.21875 53.421875 
Q 53.21875 48.921875 51.53125 44.890625 
Q 49.859375 40.875 45.40625 35.40625 
Q 44.1875 33.984375 37.640625 27.21875 
Q 31.109375 20.453125 19.1875 8.296875 
z
" id="DejaVuSans-50"/>
       <path d="M 31.78125 66.40625 
Q 24.171875 66.40625 20.328125 58.90625 
Q 16.5 51.421875 16.5 36.375 
Q 16.5 21.390625 20.328125 13.890625 
Q 24.171875 6.390625 31.78125 6.390625 
Q 39.453125 6.390625 43.28125 13.890625 
Q 47.125 21.390625 47.125 36.375 
Q 47.125 51.421875 43.28125 58.90625 
Q 39.453125 66.40625 31.78125 66.40625 
z
M 31.78125 74.21875 
Q 44.046875 74.21875 50.515625 64.515625 
Q 56.984375 54.828125 56.984375 36.375 
Q 56.984375 17.96875 50.515625 8.265625 
Q 44.046875 -1.421875 31.78125 -1.421875 
Q 19.53125 -1.421875 13.0625 8.265625 
Q 6.59375 17.96875 6.59375 36.375 
Q 6.59375 54.828125 13.0625 64.515625 
Q 19.53125 74.21875 31.78125 74.21875 
z
" id="DejaVuSans-48"/>
       <path d="M 12.40625 8.296875 
L 28.515625 8.296875 
L 28.515625 63.921875 
L 10.984375 60.40625 
L 10.984375 69.390625 
L 28.421875 72.90625 
L 38.28125 72.90625 
L 38.28125 8.296875 
L 54.390625 8.296875 
L 54.390625 0 
L 12.40625 0 
z
" id="DejaVuSans-49"/>
       <path d="M 31.78125 34.625 
Q 24.75 34.625 20.71875 30.859375 
Q 16.703125 27.09375 16.703125 20.515625 
Q 16.703125 13.921875 20.71875 10.15625 
Q 24.75 6.390625 31.78125 6.390625 
Q 38.8125 6.390625 42.859375 10.171875 
Q 46.921875 13.96875 46.921875 20.515625 
Q 46.921875 27.09375 42.890625 30.859375 
Q 38.875 34.625 31.78125 34.625 
z
M 21.921875 38.8125 
Q 15.578125 40.375 12.03125 44.71875 
Q 8.5 49.078125 8.5 55.328125 
Q 8.5 64.0625 14.71875 69.140625 
Q 20.953125 74.21875 31.78125 74.21875 
Q 42.671875 74.21875 48.875 69.140625 
Q 55.078125 64.0625 55.078125 55.328125 
Q 55.078125 49.078125 51.53125 44.71875 
Q 48 40.375 41.703125 38.8125 
Q 48.828125 37.15625 52.796875 32.3125 
Q 56.78125 27.484375 56.78125 20.515625 
Q 56.78125 9.90625 50.3125 4.234375 
Q 43.84375 -1.421875 31.78125 -1.421875 
Q 19.734375 -1.421875 13.25 4.234375 
Q 6.78125 9.90625 6.78125 20.515625 
Q 6.78125 27.484375 10.78125 32.3125 
Q 14.796875 37.15625 21.921875 38.8125 
z
M 18.3125 54.390625 
Q 18.3125 48.734375 21.84375 45.5625 
Q 25.390625 42.390625 31.78125 42.390625 
Q 38.140625 42.390625 41.71875 45.5625 
Q 45.3125 48.734375 45.3125 54.390625 
Q 45.3125 60.0625 41.71875 63.234375 
Q 38.140625 66.40625 31.78125 66.40625 
Q 25.390625 66.40625 21.84375 63.234375 
Q 18.3125 60.0625 18.3125 54.390625 
z
" id="DejaVuSans-56"/>
      </defs>
      <g style="fill:#333333;" transform="translate(128.217275 316.775401)scale(0.0833 -0.0833)">
       <use xlink:href="#DejaVuSans-50"/>
       <use x="63.623047" xlink:href="#DejaVuSans-48"/>
       <use x="127.246094" xlink:href="#DejaVuSans-49"/>
       <use x="190.869141" xlink:href="#DejaVuSans-56"/>
      </g>
     </g>
    </g>
    <g id="xtick_4">
     <g id="line2d_4">
      <path clip-path="url(#p803ce0ea42)" d="M 221.654313 294.118125 
L 221.654313 22.318125 
" style="fill:none;stroke:#dedede;stroke-linecap:square;stroke-width:0.8;"/>
     </g>
     <g id="text_3">
      <!-- Apr -->
      <defs>
       <path d="M 34.1875 63.1875 
L 20.796875 26.90625 
L 47.609375 26.90625 
z
M 28.609375 72.90625 
L 39.796875 72.90625 
L 67.578125 0 
L 57.328125 0 
L 50.6875 18.703125 
L 17.828125 18.703125 
L 11.1875 0 
L 0.78125 0 
z
" id="DejaVuSans-65"/>
       <path d="M 18.109375 8.203125 
L 18.109375 -20.796875 
L 9.078125 -20.796875 
L 9.078125 54.6875 
L 18.109375 54.6875 
L 18.109375 46.390625 
Q 20.953125 51.265625 25.265625 53.625 
Q 29.59375 56 35.59375 56 
Q 45.5625 56 51.78125 48.09375 
Q 58.015625 40.1875 58.015625 27.296875 
Q 58.015625 14.40625 51.78125 6.484375 
Q 45.5625 -1.421875 35.59375 -1.421875 
Q 29.59375 -1.421875 25.265625 0.953125 
Q 20.953125 3.328125 18.109375 8.203125 
z
M 48.6875 27.296875 
Q 48.6875 37.203125 44.609375 42.84375 
Q 40.53125 48.484375 33.40625 48.484375 
Q 26.265625 48.484375 22.1875 42.84375 
Q 18.109375 37.203125 18.109375 27.296875 
Q 18.109375 17.390625 22.1875 11.75 
Q 26.265625 6.109375 33.40625 6.109375 
Q 40.53125 6.109375 44.609375 11.75 
Q 48.6875 17.390625 48.6875 27.296875 
z
" id="DejaVuSans-112"/>
       <path d="M 41.109375 46.296875 
Q 39.59375 47.171875 37.8125 47.578125 
Q 36.03125 48 33.890625 48 
Q 26.265625 48 22.1875 43.046875 
Q 18.109375 38.09375 18.109375 28.8125 
L 18.109375 0 
L 9.078125 0 
L 9.078125 54.6875 
L 18.109375 54.6875 
L 18.109375 46.1875 
Q 20.953125 51.171875 25.484375 53.578125 
Q 30.03125 56 36.53125 56 
Q 37.453125 56 38.578125 55.875 
Q 39.703125 55.765625 41.0625 55.515625 
z
" id="DejaVuSans-114"/>
      </defs>
      <g style="fill:#333333;" transform="translate(214.448863 307.447623)scale(0.0833 -0.0833)">
       <use xlink:href="#DejaVuSans-65"/>
       <use x="68.408203" xlink:href="#DejaVuSans-112"/>
       <use x="131.884766" xlink:href="#DejaVuSans-114"/>
      </g>
     </g>
    </g>
    <g id="xtick_5">
     <g id="line2d_5">
      <path clip-path="url(#p803ce0ea42)" d="M 305.411839 294.118125 
L 305.411839 22.318125 
" style="fill:none;stroke:#dedede;stroke-linecap:square;stroke-width:0.8;"/>
     </g>
     <g id="text_4">
      <!-- Jul -->
      <defs>
       <path d="M 8.5 21.578125 
L 8.5 54.6875 
L 17.484375 54.6875 
L 17.484375 21.921875 
Q 17.484375 14.15625 20.5 10.265625 
Q 23.53125 6.390625 29.59375 6.390625 
Q 36.859375 6.390625 41.078125 11.03125 
Q 45.3125 15.671875 45.3125 23.6875 
L 45.3125 54.6875 
L 54.296875 54.6875 
L 54.296875 0 
L 45.3125 0 
L 45.3125 8.40625 
Q 42.046875 3.421875 37.71875 1 
Q 33.40625 -1.421875 27.6875 -1.421875 
Q 18.265625 -1.421875 13.375 4.4375 
Q 8.5 10.296875 8.5 21.578125 
z
M 31.109375 56 
z
" id="DejaVuSans-117"/>
       <path d="M 9.421875 75.984375 
L 18.40625 75.984375 
L 18.40625 0 
L 9.421875 0 
z
" id="DejaVuSans-108"/>
      </defs>
      <g style="fill:#333333;" transform="translate(300.386506 307.447623)scale(0.0833 -0.0833)">
       <use xlink:href="#DejaVuSans-74"/>
       <use x="29.492188" xlink:href="#DejaVuSans-117"/>
       <use x="92.871094" xlink:href="#DejaVuSans-108"/>
      </g>
     </g>
    </g>
    <g id="xtick_6">
     <g id="line2d_6">
      <path clip-path="url(#p803ce0ea42)" d="M 390.089777 294.118125 
L 390.089777 22.318125 
" style="fill:none;stroke:#dedede;stroke-linecap:square;stroke-width:0.8;"/>
     </g>
     <g id="text_5">
      <!-- Oct -->
      <g style="fill:#333333;" transform="translate(382.888232 307.447623)scale(0.0833 -0.0833)">
       <use xlink:href="#DejaVuSans-79"/>
       <use x="78.710938" xlink:href="#DejaVuSans-99"/>
       <use x="133.691406" xlink:href="#DejaVuSans-116"/>
      </g>
     </g>
    </g>
    <g id="xtick_7">
     <g id="line2d_7">
      <path clip-path="url(#p803ce0ea42)" d="M 473.847303 294.118125 
L 473.847303 22.318125 
" style="fill:none;stroke:#dedede;stroke-linecap:square;stroke-width:0.8;"/>
     </g>
    </g>
    <g id="xtick_8"/>
    <g id="xtick_9"/>
    <g id="xtick_10"/>
    <g id="xtick_11"/>
    <g id="xtick_12"/>
    <g id="xtick_13"/>
    <g id="xtick_14"/>
    <g id="xtick_15"/>
    <g id="xtick_16"/>
    <g id="xtick_17"/>
    <g id="text_6">
     <!-- time -->
     <defs>
      <path d="M 27.484375 70.21875 
L 27.484375 54.6875 
L 45.515625 54.6875 
L 45.515625 42.1875 
L 27.484375 42.1875 
L 27.484375 19 
Q 27.484375 15.1875 29 13.84375 
Q 30.515625 12.5 35.015625 12.5 
L 44 12.5 
L 44 0 
L 29 0 
Q 18.65625 0 14.328125 4.3125 
Q 10.015625 8.640625 10.015625 19 
L 10.015625 42.1875 
L 1.3125 42.1875 
L 1.3125 54.6875 
L 10.015625 54.6875 
L 10.015625 70.21875 
z
" id="DejaVuSans-Bold-116"/>
      <path d="M 8.40625 54.6875 
L 25.875 54.6875 
L 25.875 0 
L 8.40625 0 
z
M 8.40625 75.984375 
L 25.875 75.984375 
L 25.875 61.71875 
L 8.40625 61.71875 
z
" id="DejaVuSans-Bold-105"/>
      <path d="M 59.078125 45.609375 
Q 62.40625 50.6875 66.96875 53.34375 
Q 71.53125 56 77 56 
Q 86.421875 56 91.359375 50.1875 
Q 96.296875 44.390625 96.296875 33.296875 
L 96.296875 0 
L 78.71875 0 
L 78.71875 28.515625 
Q 78.765625 29.15625 78.78125 29.828125 
Q 78.8125 30.515625 78.8125 31.78125 
Q 78.8125 37.59375 77.09375 40.203125 
Q 75.390625 42.828125 71.578125 42.828125 
Q 66.609375 42.828125 63.890625 38.71875 
Q 61.1875 34.625 61.078125 26.859375 
L 61.078125 0 
L 43.5 0 
L 43.5 28.515625 
Q 43.5 37.59375 41.9375 40.203125 
Q 40.375 42.828125 36.375 42.828125 
Q 31.34375 42.828125 28.609375 38.703125 
Q 25.875 34.578125 25.875 26.90625 
L 25.875 0 
L 8.296875 0 
L 8.296875 54.6875 
L 25.875 54.6875 
L 25.875 46.6875 
Q 29.109375 51.3125 33.28125 53.65625 
Q 37.453125 56 42.484375 56 
Q 48.140625 56 52.484375 53.265625 
Q 56.84375 50.53125 59.078125 45.609375 
z
" id="DejaVuSans-Bold-109"/>
      <path d="M 62.984375 27.484375 
L 62.984375 22.515625 
L 22.125 22.515625 
Q 22.75 16.359375 26.5625 13.28125 
Q 30.375 10.203125 37.203125 10.203125 
Q 42.71875 10.203125 48.5 11.84375 
Q 54.296875 13.484375 60.40625 16.796875 
L 60.40625 3.328125 
Q 54.203125 0.984375 48 -0.21875 
Q 41.796875 -1.421875 35.59375 -1.421875 
Q 20.75 -1.421875 12.515625 6.125 
Q 4.296875 13.671875 4.296875 27.296875 
Q 4.296875 40.671875 12.375 48.328125 
Q 20.453125 56 34.625 56 
Q 47.515625 56 55.25 48.234375 
Q 62.984375 40.484375 62.984375 27.484375 
z
M 45.015625 33.296875 
Q 45.015625 38.28125 42.109375 41.328125 
Q 39.203125 44.390625 34.515625 44.390625 
Q 29.4375 44.390625 26.265625 41.53125 
Q 23.09375 38.671875 22.3125 33.296875 
z
" id="DejaVuSans-Bold-101"/>
     </defs>
     <g style="fill:#333333;" transform="translate(237.941834 330.106218)scale(0.1 -0.1)">
      <use xlink:href="#DejaVuSans-Bold-116"/>
      <use x="47.802734" xlink:href="#DejaVuSans-Bold-105"/>
      <use x="82.080078" xlink:href="#DejaVuSans-Bold-109"/>
      <use x="186.279297" xlink:href="#DejaVuSans-Bold-101"/>
     </g>
    </g>
   </g>
   <g id="matplotlib.axis_2">
    <g id="ytick_1">
     <g id="line2d_8">
      <path clip-path="url(#p803ce0ea42)" d="M 27.447303 281.869764 
L 473.847303 281.869764 
" style="fill:none;stroke:#dedede;stroke-linecap:square;stroke-width:0.8;"/>
     </g>
     <g id="line2d_9">
      <defs>
       <path d="M 0 0 
L -3.5 0 
" id="m6a0409581c" style="stroke:#333333;stroke-width:0.8;"/>
      </defs>
      <g>
       <use style="fill:#333333;stroke:#333333;stroke-width:0.8;" x="27.447303" xlink:href="#m6a0409581c" y="281.869764"/>
      </g>
     </g>
     <g id="text_7">
      <!-- 0.0 -->
      <defs>
       <path d="M 10.6875 12.40625 
L 21 12.40625 
L 21 0 
L 10.6875 0 
z
" id="DejaVuSans-46"/>
      </defs>
      <g style="fill:#333333;" transform="translate(7.2 285.034514)scale(0.0833 -0.0833)">
       <use xlink:href="#DejaVuSans-48"/>
       <use x="63.623047" xlink:href="#DejaVuSans-46"/>
       <use x="95.410156" xlink:href="#DejaVuSans-48"/>
      </g>
     </g>
    </g>
    <g id="ytick_2">
     <g id="line2d_10">
      <path clip-path="url(#p803ce0ea42)" d="M 27.447303 235.358273 
L 473.847303 235.358273 
" style="fill:none;stroke:#dedede;stroke-linecap:square;stroke-width:0.8;"/>
     </g>
     <g id="line2d_11">
      <g>
       <use style="fill:#333333;stroke:#333333;stroke-width:0.8;" x="27.447303" xlink:href="#m6a0409581c" y="235.358273"/>
      </g>
     </g>
     <g id="text_8">
      <!-- 0.2 -->
      <g style="fill:#333333;" transform="translate(7.2 238.523022)scale(0.0833 -0.0833)">
       <use xlink:href="#DejaVuSans-48"/>
       <use x="63.623047" xlink:href="#DejaVuSans-46"/>
       <use x="95.410156" xlink:href="#DejaVuSans-50"/>
      </g>
     </g>
    </g>
    <g id="ytick_3">
     <g id="line2d_12">
      <path clip-path="url(#p803ce0ea42)" d="M 27.447303 188.846781 
L 473.847303 188.846781 
" style="fill:none;stroke:#dedede;stroke-linecap:square;stroke-width:0.8;"/>
     </g>
     <g id="line2d_13">
      <g>
       <use style="fill:#333333;stroke:#333333;stroke-width:0.8;" x="27.447303" xlink:href="#m6a0409581c" y="188.846781"/>
      </g>
     </g>
     <g id="text_9">
      <!-- 0.4 -->
      <defs>
       <path d="M 37.796875 64.3125 
L 12.890625 25.390625 
L 37.796875 25.390625 
z
M 35.203125 72.90625 
L 47.609375 72.90625 
L 47.609375 25.390625 
L 58.015625 25.390625 
L 58.015625 17.1875 
L 47.609375 17.1875 
L 47.609375 0 
L 37.796875 0 
L 37.796875 17.1875 
L 4.890625 17.1875 
L 4.890625 26.703125 
z
" id="DejaVuSans-52"/>
      </defs>
      <g style="fill:#333333;" transform="translate(7.2 192.01153)scale(0.0833 -0.0833)">
       <use xlink:href="#DejaVuSans-48"/>
       <use x="63.623047" xlink:href="#DejaVuSans-46"/>
       <use x="95.410156" xlink:href="#DejaVuSans-52"/>
      </g>
     </g>
    </g>
    <g id="ytick_4">
     <g id="line2d_14">
      <path clip-path="url(#p803ce0ea42)" d="M 27.447303 142.335289 
L 473.847303 142.335289 
" style="fill:none;stroke:#dedede;stroke-linecap:square;stroke-width:0.8;"/>
     </g>
     <g id="line2d_15">
      <g>
       <use style="fill:#333333;stroke:#333333;stroke-width:0.8;" x="27.447303" xlink:href="#m6a0409581c" y="142.335289"/>
      </g>
     </g>
     <g id="text_10">
      <!-- 0.6 -->
      <defs>
       <path d="M 33.015625 40.375 
Q 26.375 40.375 22.484375 35.828125 
Q 18.609375 31.296875 18.609375 23.390625 
Q 18.609375 15.53125 22.484375 10.953125 
Q 26.375 6.390625 33.015625 6.390625 
Q 39.65625 6.390625 43.53125 10.953125 
Q 47.40625 15.53125 47.40625 23.390625 
Q 47.40625 31.296875 43.53125 35.828125 
Q 39.65625 40.375 33.015625 40.375 
z
M 52.59375 71.296875 
L 52.59375 62.3125 
Q 48.875 64.0625 45.09375 64.984375 
Q 41.3125 65.921875 37.59375 65.921875 
Q 27.828125 65.921875 22.671875 59.328125 
Q 17.53125 52.734375 16.796875 39.40625 
Q 19.671875 43.65625 24.015625 45.921875 
Q 28.375 48.1875 33.59375 48.1875 
Q 44.578125 48.1875 50.953125 41.515625 
Q 57.328125 34.859375 57.328125 23.390625 
Q 57.328125 12.15625 50.6875 5.359375 
Q 44.046875 -1.421875 33.015625 -1.421875 
Q 20.359375 -1.421875 13.671875 8.265625 
Q 6.984375 17.96875 6.984375 36.375 
Q 6.984375 53.65625 15.1875 63.9375 
Q 23.390625 74.21875 37.203125 74.21875 
Q 40.921875 74.21875 44.703125 73.484375 
Q 48.484375 72.75 52.59375 71.296875 
z
" id="DejaVuSans-54"/>
      </defs>
      <g style="fill:#333333;" transform="translate(7.2 145.500038)scale(0.0833 -0.0833)">
       <use xlink:href="#DejaVuSans-48"/>
       <use x="63.623047" xlink:href="#DejaVuSans-46"/>
       <use x="95.410156" xlink:href="#DejaVuSans-54"/>
      </g>
     </g>
    </g>
    <g id="ytick_5">
     <g id="line2d_16">
      <path clip-path="url(#p803ce0ea42)" d="M 27.447303 95.823797 
L 473.847303 95.823797 
" style="fill:none;stroke:#dedede;stroke-linecap:square;stroke-width:0.8;"/>
     </g>
     <g id="line2d_17">
      <g>
       <use style="fill:#333333;stroke:#333333;stroke-width:0.8;" x="27.447303" xlink:href="#m6a0409581c" y="95.823797"/>
      </g>
     </g>
     <g id="text_11">
      <!-- 0.8 -->
      <g style="fill:#333333;" transform="translate(7.2 98.988546)scale(0.0833 -0.0833)">
       <use xlink:href="#DejaVuSans-48"/>
       <use x="63.623047" xlink:href="#DejaVuSans-46"/>
       <use x="95.410156" xlink:href="#DejaVuSans-56"/>
      </g>
     </g>
    </g>
    <g id="ytick_6">
     <g id="line2d_18">
      <path clip-path="url(#p803ce0ea42)" d="M 27.447303 49.312305 
L 473.847303 49.312305 
" style="fill:none;stroke:#dedede;stroke-linecap:square;stroke-width:0.8;"/>
     </g>
     <g id="line2d_19">
      <g>
       <use style="fill:#333333;stroke:#333333;stroke-width:0.8;" x="27.447303" xlink:href="#m6a0409581c" y="49.312305"/>
      </g>
     </g>
     <g id="text_12">
      <!-- 1.0 -->
      <g style="fill:#333333;" transform="translate(7.2 52.477054)scale(0.0833 -0.0833)">
       <use xlink:href="#DejaVuSans-49"/>
       <use x="63.623047" xlink:href="#DejaVuSans-46"/>
       <use x="95.410156" xlink:href="#DejaVuSans-48"/>
      </g>
     </g>
    </g>
   </g>
   <g id="line2d_20">
    <path clip-path="url(#p803ce0ea42)" d="M 27.447303 131.255829 
L 28.367715 143.429618 
L 29.288128 179.551228 
L 30.20854 197.596418 
L 31.128953 192.961758 
L 32.049365 235.54191 
L 32.969777 246.703819 
L 33.89019 268.883974 
L 34.810602 272.769092 
L 35.731014 255.673321 
L 36.651427 235.11717 
L 37.571839 261.944477 
L 38.492252 260.495365 
L 39.412664 260.295488 
L 40.333076 257.603388 
L 41.253489 258.746437 
L 42.173901 263.462297 
L 43.094313 265.017594 
L 44.014726 264.524146 
L 44.935138 265.304917 
L 46.775963 263.00008 
L 47.696375 264.611592 
L 48.616788 270.501732 
L 49.5372 269.371175 
L 50.457612 272.775339 
L 51.378025 272.619184 
L 52.298437 273.39371 
L 53.21885 272.219429 
L 54.139262 243.218455 
L 55.059674 129.613086 
L 56.900499 170.431818 
L 57.820911 202.306031 
L 58.741324 205.68521 
L 60.582148 252.993713 
L 61.502561 266.06695 
L 62.422973 268.040741 
L 63.343386 247.153543 
L 64.263798 222.056426 
L 65.18421 273.493648 
L 66.104623 276.298179 
L 67.025035 281.220163 
L 67.945447 275.173869 
L 68.86586 275.648578 
L 69.786272 274.555498 
L 70.706685 265.879565 
L 71.627097 266.591629 
L 72.547509 272.875277 
L 73.467922 276.560519 
L 74.388334 276.017102 
L 75.308746 276.435595 
L 76.229159 276.391872 
L 77.149571 277.172643 
L 78.069984 275.330023 
L 78.990396 281.157701 
L 79.910808 281.76358 
L 80.831221 280.177052 
L 81.751633 279.433758 
L 82.672045 233.680551 
L 83.592458 161.068806 
L 84.51287 152.948783 
L 86.353695 183.654963 
L 87.274107 210.201192 
L 88.19452 227.403148 
L 89.114932 250.295367 
L 90.035344 262.088139 
L 90.955757 266.747783 
L 91.876169 244.804982 
L 92.796581 186.952941 
L 93.716994 252.300388 
L 94.637406 261.413553 
L 95.557819 257.216125 
L 96.478231 259.664625 
L 97.398643 259.208654 
L 98.319056 264.361746 
L 99.239468 267.234984 
L 100.15988 264.936393 
L 102.000705 273.062663 
L 102.921118 273.150109 
L 103.84153 270.770318 
L 104.761942 265.02384 
L 105.682355 265.279933 
L 106.602767 265.123778 
L 107.523179 266.466705 
L 108.443592 264.474177 
L 109.364004 258.815145 
L 110.284417 229.48937 
L 111.204829 166.977685 
L 112.125241 152.467828 
L 113.045654 164.616632 
L 113.966066 156.253008 
L 114.886478 204.429729 
L 115.806891 225.716682 
L 116.727303 254.736395 
L 117.647715 255.991876 
L 118.568128 273.424941 
L 119.48854 248.477731 
L 120.408953 173.910935 
L 121.329365 195.022995 
L 122.249777 179.232673 
L 123.17019 179.432551 
L 124.090602 181.968496 
L 125.011014 191.756247 
L 125.931427 194.235977 
L 126.851839 184.310811 
L 127.772252 184.260841 
L 129.613076 198.658267 
L 130.533489 211.263041 
L 132.374313 225.042096 
L 133.294726 220.707252 
L 134.215138 198.939345 
L 136.055963 161.381115 
L 136.976375 167.015162 
L 137.896788 173.64235 
L 138.8172 174.329429 
L 139.737612 171.493667 
L 140.658025 121.180755 
L 141.578437 80.505685 
L 142.49885 79.699929 
L 143.419262 89.050448 
L 144.339674 134.416392 
L 145.260087 197.346571 
L 147.100911 251.251031 
L 148.021324 211.825197 
L 148.941736 179.61369 
L 149.862148 172.63047 
L 150.782561 170.244432 
L 151.702973 162.667826 
L 152.623386 162.836473 
L 153.543798 149.213573 
L 154.46421 153.236107 
L 155.384623 170.250679 
L 156.305035 184.142164 
L 157.225447 175.709833 
L 158.14586 159.482279 
L 159.066272 156.034392 
L 159.986685 163.892076 
L 160.907097 157.814551 
L 161.827509 156.796425 
L 162.747922 180.325753 
L 163.668334 184.135918 
L 164.588746 175.172662 
L 165.509159 173.042717 
L 166.429571 171.368743 
L 167.349984 157.377319 
L 168.270396 167.945841 
L 169.190808 95.259143 
L 170.111221 74.759208 
L 171.031633 81.892336 
L 171.952045 90.037343 
L 172.872458 132.598756 
L 173.79287 194.554532 
L 175.633695 252.119249 
L 176.554107 191.949879 
L 177.47452 181.481295 
L 178.394932 152.18675 
L 179.315344 132.336417 
L 180.235757 122.473712 
L 181.156169 111.349281 
L 182.076581 114.572305 
L 182.996994 116.970835 
L 183.917406 114.103842 
L 184.837819 121.730418 
L 185.758231 131.511922 
L 186.678643 143.698203 
L 187.599056 141.124781 
L 188.519468 149.813205 
L 189.43988 164.066969 
L 190.360293 158.826431 
L 191.280705 149.78822 
L 192.201118 148.376586 
L 193.12153 145.047376 
L 194.041942 184.304565 
L 194.962355 104.5472 
L 195.882767 68.038327 
L 196.803179 74.490622 
L 197.723592 90.318421 
L 198.644004 132.836111 
L 199.564417 189.788703 
L 200.484829 216.409886 
L 201.405241 248.046745 
L 202.325654 189.732488 
L 203.246066 159.900772 
L 204.166478 67.469925 
L 205.086891 67.107647 
L 206.007303 50.305446 
L 206.927715 50.586524 
L 207.848128 69.837224 
L 208.76854 77.270169 
L 209.688953 70.980274 
L 210.609365 76.770475 
L 211.529777 88.44457 
L 212.45019 88.713155 
L 213.370602 85.527607 
L 214.291014 93.966185 
L 215.211427 92.086088 
L 216.131839 80.861717 
L 217.052252 75.483764 
L 217.972664 72.242 
L 218.893076 84.628159 
L 219.813489 94.409663 
L 220.733901 93.591415 
L 221.654313 143.766911 
L 222.574726 180.4944 
L 223.495138 106.371082 
L 224.415551 63.715976 
L 225.335963 81.99852 
L 226.256375 87.701275 
L 228.0972 207.15306 
L 229.017612 221.931502 
L 229.938025 247.840622 
L 230.858437 196.128567 
L 232.699262 60.105689 
L 233.619674 71.835999 
L 234.540087 81.736181 
L 235.460499 64.521732 
L 236.380911 63.247513 
L 237.301324 64.952718 
L 238.221736 60.72406 
L 239.142148 54.346719 
L 240.062561 53.978195 
L 240.982973 56.614079 
L 241.903386 46.988729 
L 242.823798 48.169255 
L 243.74421 56.070662 
L 244.664623 60.374275 
L 245.585035 63.078867 
L 246.505447 65.108873 
L 247.42586 77.869801 
L 248.346272 73.54745 
L 249.266685 142.848724 
L 250.187097 172.174499 
L 251.107509 97.170471 
L 252.027922 58.893932 
L 252.948334 89.53765 
L 253.868746 81.16778 
L 255.709571 207.23426 
L 256.629984 218.183799 
L 257.550396 243.087285 
L 258.470808 177.546207 
L 260.311633 101.130544 
L 261.232045 92.435873 
L 262.152458 103.791413 
L 263.07287 104.091229 
L 263.993283 103.660243 
L 264.913695 107.308008 
L 265.834107 106.60219 
L 266.75452 108.969489 
L 267.674932 103.010642 
L 268.595344 104.903232 
L 269.515757 111.305557 
L 270.436169 110.524786 
L 271.356581 102.142424 
L 272.276994 90.968023 
L 273.197406 90.868084 
L 274.117819 90.930546 
L 275.038231 91.448978 
L 275.958643 85.608808 
L 276.879056 91.024238 
L 277.799468 149.513389 
L 278.71988 171.156373 
L 279.640293 97.257918 
L 280.560705 61.885848 
L 281.481118 91.611379 
L 282.40153 73.310096 
L 283.321942 147.22729 
L 284.242355 191.006707 
L 285.162767 211.968858 
L 286.083179 245.054829 
L 287.003592 170.731634 
L 287.924004 140.83121 
L 288.844417 66.839062 
L 289.764829 64.727856 
L 290.685241 75.852288 
L 291.605654 89.56888 
L 292.526066 92.285965 
L 293.446478 94.003662 
L 294.366891 93.622646 
L 295.287303 94.315971 
L 296.207715 99.0818 
L 298.04854 117.108251 
L 298.968953 120.718538 
L 299.889365 119.300657 
L 300.809777 124.466241 
L 302.650602 128.732376 
L 303.571014 128.22019 
L 304.491427 129.81921 
L 305.411839 149.076157 
L 306.332252 175.472478 
L 307.252664 96.620808 
L 308.173076 53.628409 
L 309.093489 77.975986 
L 310.013901 82.004767 
L 310.934313 160.244312 
L 311.854726 196.228506 
L 312.775138 212.655937 
L 313.695551 244.548889 
L 314.615963 147.263409 
L 315.536375 153.723309 
L 316.456788 161.818347 
L 317.3772 166.715345 
L 318.297612 168.864028 
L 319.218025 165.997036 
L 320.138437 162.605365 
L 321.05885 167.096362 
L 321.979262 169.13886 
L 322.899674 164.47297 
L 323.820087 165.790912 
L 324.740499 171.268805 
L 325.660911 169.326245 
L 326.581324 172.293177 
L 327.501736 173.473703 
L 328.422148 175.128939 
L 329.342561 175.984664 
L 330.262973 191.943632 
L 331.183386 194.748163 
L 332.103798 191.737509 
L 333.02421 186.990418 
L 333.944623 148.295385 
L 334.865035 175.478724 
L 335.785447 99.593986 
L 336.70586 51.204895 
L 337.626272 80.187131 
L 338.546685 77.226445 
L 339.467097 157.32735 
L 340.387509 194.723179 
L 341.307922 219.083248 
L 342.228334 240.201554 
L 343.148746 153.879463 
L 344.069159 165.922082 
L 344.989571 194.898072 
L 345.909984 199.395315 
L 346.830396 204.973146 
L 347.750808 203.192987 
L 348.671221 202.499662 
L 349.591633 211.806458 
L 350.512045 215.079452 
L 351.432458 202.1124 
L 352.35287 207.509092 
L 353.273283 205.972534 
L 354.193695 207.965062 
L 355.114107 212.068797 
L 356.03452 219.988943 
L 356.954932 220.432421 
L 357.875344 213.967633 
L 358.795757 214.885821 
L 359.716169 219.195679 
L 360.636581 216.859611 
L 361.556994 213.430463 
L 362.477406 158.482891 
L 363.397819 170.381848 
L 364.318231 91.011746 
L 365.238643 54.046903 
L 366.159056 82.704338 
L 367.079468 75.808564 
L 367.99988 150.643946 
L 368.920293 196.909339 
L 369.840705 217.883983 
L 370.761118 242.700023 
L 371.68153 149.41345 
L 372.601942 174.704199 
L 373.522355 225.316927 
L 374.442767 225.167019 
L 375.363179 232.143993 
L 376.283592 229.520601 
L 377.204004 225.073326 
L 378.124417 223.324398 
L 379.044829 216.690964 
L 379.965241 226.222622 
L 380.885654 226.128929 
L 381.806066 234.111537 
L 382.726478 235.32954 
L 383.646891 236.997268 
L 384.567303 233.018457 
L 385.487715 234.180245 
L 386.408128 234.548769 
L 387.32854 234.223968 
L 388.248953 243.53701 
L 389.169365 237.409515 
L 390.089777 160.937637 
L 391.01019 171.437451 
L 391.930602 58.319284 
L 392.851014 52.173051 
L 393.771427 88.088538 
L 394.691839 76.208319 
L 395.612252 154.229248 
L 396.532664 190.400828 
L 398.373489 239.895492 
L 399.293901 132.330171 
L 400.214313 175.559924 
L 401.134726 252.531497 
L 402.055138 235.560648 
L 402.975551 223.455568 
L 403.895963 225.204496 
L 404.816375 231.425683 
L 405.736788 232.400086 
L 406.6572 225.454343 
L 407.577612 226.940932 
L 408.498025 226.903455 
L 409.418437 232.481286 
L 410.33885 240.651278 
L 411.259262 242.718761 
L 412.179674 239.858015 
L 414.020499 235.566895 
L 414.940911 233.524397 
L 415.861324 232.949749 
L 416.781736 224.61111 
L 417.702148 210.875778 
L 418.622561 150.681423 
L 419.542973 173.767273 
L 420.463386 59.862088 
L 421.383798 55.002567 
L 422.30421 79.131528 
L 423.224623 68.463067 
L 424.145035 157.62092 
L 425.065447 201.31289 
L 425.98586 215.341791 
L 426.906272 242.974854 
L 427.826685 124.360056 
L 428.747097 168.270642 
L 429.667509 141.580751 
L 430.587922 155.022512 
L 431.508334 160.000711 
L 432.428746 158.058152 
L 433.349159 172.449331 
L 434.269571 174.991523 
L 435.189984 166.540453 
L 436.110396 169.850924 
L 437.030808 169.869662 
L 437.951221 161.43733 
L 438.871633 159.026308 
L 439.792045 158.239291 
L 440.712458 149.607082 
L 441.63287 139.051052 
L 442.553283 141.349643 
L 443.473695 147.295998 
L 444.394107 146.459011 
L 445.31452 150.750131 
L 446.234932 157.233657 
L 447.155344 148.932495 
L 448.075757 64.521732 
L 448.996169 61.885848 
L 449.916581 95.271635 
L 450.836994 72.791664 
L 451.757406 163.498567 
L 452.677819 201.831322 
L 453.598231 218.833401 
L 454.518643 242.706269 
L 455.439056 125.36569 
L 456.359468 169.713508 
L 457.27988 158.738984 
L 459.120705 143.604511 
L 460.041118 131.268322 
L 460.96153 122.748544 
L 461.881942 130.412596 
L 462.802355 127.12711 
L 463.722767 128.188959 
L 464.643179 137.539478 
L 465.563592 138.588835 
L 466.484004 142.142907 
L 467.404417 147.483383 
L 468.324829 153.866971 
L 469.245241 152.630229 
L 470.165654 154.728942 
L 472.006478 165.266234 
L 472.926891 172.880317 
L 473.847303 173.373493 
L 473.847303 173.373493 
" style="fill:none;stroke:#000000;stroke-linecap:square;stroke-width:1.3;"/>
   </g>
   <g id="line2d_21">
    <path clip-path="url(#p803ce0ea42)" d="M 32.049365 224.041978 
L 36.651427 268.284511 
L 41.253489 240.374286 
L 45.855551 254.197729 
L 50.457612 267.740864 
L 55.059674 177.844709 
L 59.661736 215.703964 
L 64.263798 266.134021 
L 68.86586 261.211997 
L 73.467922 261.972233 
L 78.069984 273.050612 
L 82.672045 202.962968 
L 87.274107 192.364185 
L 91.876169 258.090665 
L 96.478231 214.902298 
L 101.080293 237.195292 
L 105.682355 245.325286 
L 110.284417 219.12619 
L 114.886478 175.756972 
L 119.48854 229.423191 
L 124.090602 219.290476 
L 128.692664 221.052745 
L 133.294726 217.325767 
L 137.896788 215.781069 
L 142.49885 146.926546 
L 147.100911 241.928105 
L 151.702973 131.465895 
L 156.305035 151.066451 
L 160.907097 156.302163 
L 165.509159 173.994045 
L 170.111221 101.451828 
L 174.713283 226.283463 
L 179.315344 116.639158 
L 183.917406 115.281937 
L 188.519468 128.371841 
L 193.12153 121.213496 
L 197.723592 99.526881 
L 202.325654 210.713573 
L 206.927715 86.371537 
L 211.529777 67.98536 
L 216.131839 91.319914 
L 220.733901 34.67267 
L 225.335963 65.972808 
L 229.938025 229.26123 
L 234.540087 63.901192 
L 239.142148 54.695767 
L 243.74421 74.506823 
L 248.346272 109.971982 
L 252.948334 72.243364 
L 257.550396 246.318456 
L 262.152458 100.457002 
L 266.75452 79.994344 
L 271.356581 116.709006 
L 275.958643 122.443289 
L 280.560705 74.32679 
L 285.162767 234.281902 
L 289.764829 147.943426 
L 294.366891 143.748006 
L 298.968953 92.924563 
L 303.571014 108.423888 
L 308.173076 73.253882 
L 312.775138 204.161621 
L 317.3772 117.719441 
L 321.979262 162.843296 
L 326.581324 188.1774 
L 331.183386 172.616198 
L 335.785447 83.8534 
L 340.387509 231.697431 
L 344.989571 200.444541 
L 349.591633 212.548234 
L 354.193695 179.035232 
L 358.795757 186.732817 
L 363.397819 103.43211 
L 367.99988 156.724828 
L 372.601942 240.522157 
L 377.204004 212.902118 
L 381.806066 197.243892 
L 386.408128 215.89831 
L 391.01019 149.902944 
L 395.612252 156.624443 
L 400.214313 226.96651 
L 404.816375 254.878583 
L 409.418437 213.724306 
L 414.020499 233.501873 
L 418.622561 163.11232 
L 423.224623 135.422065 
L 427.826685 219.3609 
L 432.428746 235.179521 
L 437.030808 154.347802 
L 441.63287 166.97286 
L 446.234932 182.726384 
L 450.836994 103.27104 
L 455.439056 214.01004 
L 460.041118 190.752889 
L 464.643179 121.736962 
L 469.245241 112.850698 
" style="fill:none;stroke:#003dfd;stroke-linecap:square;stroke-width:1.3;"/>
   </g>
   <g id="text_13">
    <!-- R2: 0.7418166923302916 -->
    <defs>
     <path d="M 44.390625 34.1875 
Q 47.5625 33.109375 50.5625 29.59375 
Q 53.5625 26.078125 56.59375 19.921875 
L 66.609375 0 
L 56 0 
L 46.6875 18.703125 
Q 43.0625 26.03125 39.671875 28.421875 
Q 36.28125 30.8125 30.421875 30.8125 
L 19.671875 30.8125 
L 19.671875 0 
L 9.8125 0 
L 9.8125 72.90625 
L 32.078125 72.90625 
Q 44.578125 72.90625 50.734375 67.671875 
Q 56.890625 62.453125 56.890625 51.90625 
Q 56.890625 45.015625 53.6875 40.46875 
Q 50.484375 35.9375 44.390625 34.1875 
z
M 19.671875 64.796875 
L 19.671875 38.921875 
L 32.078125 38.921875 
Q 39.203125 38.921875 42.84375 42.21875 
Q 46.484375 45.515625 46.484375 51.90625 
Q 46.484375 58.296875 42.84375 61.546875 
Q 39.203125 64.796875 32.078125 64.796875 
z
" id="DejaVuSans-82"/>
     <path d="M 11.71875 12.40625 
L 22.015625 12.40625 
L 22.015625 0 
L 11.71875 0 
z
M 11.71875 51.703125 
L 22.015625 51.703125 
L 22.015625 39.3125 
L 11.71875 39.3125 
z
" id="DejaVuSans-58"/>
     <path id="DejaVuSans-32"/>
     <path d="M 8.203125 72.90625 
L 55.078125 72.90625 
L 55.078125 68.703125 
L 28.609375 0 
L 18.3125 0 
L 43.21875 64.59375 
L 8.203125 64.59375 
z
" id="DejaVuSans-55"/>
     <path d="M 10.984375 1.515625 
L 10.984375 10.5 
Q 14.703125 8.734375 18.5 7.8125 
Q 22.3125 6.890625 25.984375 6.890625 
Q 35.75 6.890625 40.890625 13.453125 
Q 46.046875 20.015625 46.78125 33.40625 
Q 43.953125 29.203125 39.59375 26.953125 
Q 35.25 24.703125 29.984375 24.703125 
Q 19.046875 24.703125 12.671875 31.3125 
Q 6.296875 37.9375 6.296875 49.421875 
Q 6.296875 60.640625 12.9375 67.421875 
Q 19.578125 74.21875 30.609375 74.21875 
Q 43.265625 74.21875 49.921875 64.515625 
Q 56.59375 54.828125 56.59375 36.375 
Q 56.59375 19.140625 48.40625 8.859375 
Q 40.234375 -1.421875 26.421875 -1.421875 
Q 22.703125 -1.421875 18.890625 -0.6875 
Q 15.09375 0.046875 10.984375 1.515625 
z
M 30.609375 32.421875 
Q 37.25 32.421875 41.125 36.953125 
Q 45.015625 41.5 45.015625 49.421875 
Q 45.015625 57.28125 41.125 61.84375 
Q 37.25 66.40625 30.609375 66.40625 
Q 23.96875 66.40625 20.09375 61.84375 
Q 16.21875 57.28125 16.21875 49.421875 
Q 16.21875 41.5 20.09375 36.953125 
Q 23.96875 32.421875 30.609375 32.421875 
z
" id="DejaVuSans-57"/>
     <path d="M 40.578125 39.3125 
Q 47.65625 37.796875 51.625 33 
Q 55.609375 28.21875 55.609375 21.1875 
Q 55.609375 10.40625 48.1875 4.484375 
Q 40.765625 -1.421875 27.09375 -1.421875 
Q 22.515625 -1.421875 17.65625 -0.515625 
Q 12.796875 0.390625 7.625 2.203125 
L 7.625 11.71875 
Q 11.71875 9.328125 16.59375 8.109375 
Q 21.484375 6.890625 26.8125 6.890625 
Q 36.078125 6.890625 40.9375 10.546875 
Q 45.796875 14.203125 45.796875 21.1875 
Q 45.796875 27.640625 41.28125 31.265625 
Q 36.765625 34.90625 28.71875 34.90625 
L 20.21875 34.90625 
L 20.21875 43.015625 
L 29.109375 43.015625 
Q 36.375 43.015625 40.234375 45.921875 
Q 44.09375 48.828125 44.09375 54.296875 
Q 44.09375 59.90625 40.109375 62.90625 
Q 36.140625 65.921875 28.71875 65.921875 
Q 24.65625 65.921875 20.015625 65.03125 
Q 15.375 64.15625 9.8125 62.3125 
L 9.8125 71.09375 
Q 15.4375 72.65625 20.34375 73.4375 
Q 25.25 74.21875 29.59375 74.21875 
Q 40.828125 74.21875 47.359375 69.109375 
Q 53.90625 64.015625 53.90625 55.328125 
Q 53.90625 49.265625 50.4375 45.09375 
Q 46.96875 40.921875 40.578125 39.3125 
z
" id="DejaVuSans-51"/>
    </defs>
    <g transform="translate(171.928241 16.318125)scale(0.12 -0.12)">
     <use xlink:href="#DejaVuSans-82"/>
     <use x="69.482422" xlink:href="#DejaVuSans-50"/>
     <use x="133.105469" xlink:href="#DejaVuSans-58"/>
     <use x="166.796875" xlink:href="#DejaVuSans-32"/>
     <use x="198.583984" xlink:href="#DejaVuSans-48"/>
     <use x="262.207031" xlink:href="#DejaVuSans-46"/>
     <use x="293.994141" xlink:href="#DejaVuSans-55"/>
     <use x="357.617188" xlink:href="#DejaVuSans-52"/>
     <use x="421.240234" xlink:href="#DejaVuSans-49"/>
     <use x="484.863281" xlink:href="#DejaVuSans-56"/>
     <use x="548.486328" xlink:href="#DejaVuSans-49"/>
     <use x="612.109375" xlink:href="#DejaVuSans-54"/>
     <use x="675.732422" xlink:href="#DejaVuSans-54"/>
     <use x="739.355469" xlink:href="#DejaVuSans-57"/>
     <use x="802.978516" xlink:href="#DejaVuSans-50"/>
     <use x="866.601562" xlink:href="#DejaVuSans-51"/>
     <use x="930.224609" xlink:href="#DejaVuSans-51"/>
     <use x="993.847656" xlink:href="#DejaVuSans-48"/>
     <use x="1057.470703" xlink:href="#DejaVuSans-50"/>
     <use x="1121.09375" xlink:href="#DejaVuSans-57"/>
     <use x="1184.716797" xlink:href="#DejaVuSans-49"/>
     <use x="1248.339844" xlink:href="#DejaVuSans-54"/>
    </g>
   </g>
   <g id="legend_1">
    <g id="line2d_22">
     <path d="M 36.447303 35.416562 
L 56.447303 35.416562 
" style="fill:none;stroke:#000000;stroke-linecap:square;stroke-width:1.3;"/>
    </g>
    <g id="line2d_23"/>
    <g id="text_14">
     <!-- actual -->
     <g transform="translate(64.447303 38.916562)scale(0.1 -0.1)">
      <use xlink:href="#DejaVuSans-97"/>
      <use x="61.279297" xlink:href="#DejaVuSans-99"/>
      <use x="116.259766" xlink:href="#DejaVuSans-116"/>
      <use x="155.46875" xlink:href="#DejaVuSans-117"/>
      <use x="218.847656" xlink:href="#DejaVuSans-97"/>
      <use x="280.126953" xlink:href="#DejaVuSans-108"/>
     </g>
    </g>
    <g id="line2d_24">
     <path d="M 36.447303 50.094687 
L 56.447303 50.094687 
" style="fill:none;stroke:#003dfd;stroke-linecap:square;stroke-width:1.3;"/>
    </g>
    <g id="line2d_25"/>
    <g id="text_15">
     <!-- historic 7 day forecasts -->
     <defs>
      <path d="M 54.890625 33.015625 
L 54.890625 0 
L 45.90625 0 
L 45.90625 32.71875 
Q 45.90625 40.484375 42.875 44.328125 
Q 39.84375 48.1875 33.796875 48.1875 
Q 26.515625 48.1875 22.3125 43.546875 
Q 18.109375 38.921875 18.109375 30.90625 
L 18.109375 0 
L 9.078125 0 
L 9.078125 75.984375 
L 18.109375 75.984375 
L 18.109375 46.1875 
Q 21.34375 51.125 25.703125 53.5625 
Q 30.078125 56 35.796875 56 
Q 45.21875 56 50.046875 50.171875 
Q 54.890625 44.34375 54.890625 33.015625 
z
" id="DejaVuSans-104"/>
      <path d="M 9.421875 54.6875 
L 18.40625 54.6875 
L 18.40625 0 
L 9.421875 0 
z
M 9.421875 75.984375 
L 18.40625 75.984375 
L 18.40625 64.59375 
L 9.421875 64.59375 
z
" id="DejaVuSans-105"/>
      <path d="M 44.28125 53.078125 
L 44.28125 44.578125 
Q 40.484375 46.53125 36.375 47.5 
Q 32.28125 48.484375 27.875 48.484375 
Q 21.1875 48.484375 17.84375 46.4375 
Q 14.5 44.390625 14.5 40.28125 
Q 14.5 37.15625 16.890625 35.375 
Q 19.28125 33.59375 26.515625 31.984375 
L 29.59375 31.296875 
Q 39.15625 29.25 43.1875 25.515625 
Q 47.21875 21.78125 47.21875 15.09375 
Q 47.21875 7.46875 41.1875 3.015625 
Q 35.15625 -1.421875 24.609375 -1.421875 
Q 20.21875 -1.421875 15.453125 -0.5625 
Q 10.6875 0.296875 5.421875 2 
L 5.421875 11.28125 
Q 10.40625 8.6875 15.234375 7.390625 
Q 20.0625 6.109375 24.8125 6.109375 
Q 31.15625 6.109375 34.5625 8.28125 
Q 37.984375 10.453125 37.984375 14.40625 
Q 37.984375 18.0625 35.515625 20.015625 
Q 33.0625 21.96875 24.703125 23.78125 
L 21.578125 24.515625 
Q 13.234375 26.265625 9.515625 29.90625 
Q 5.8125 33.546875 5.8125 39.890625 
Q 5.8125 47.609375 11.28125 51.796875 
Q 16.75 56 26.8125 56 
Q 31.78125 56 36.171875 55.265625 
Q 40.578125 54.546875 44.28125 53.078125 
z
" id="DejaVuSans-115"/>
      <path d="M 30.609375 48.390625 
Q 23.390625 48.390625 19.1875 42.75 
Q 14.984375 37.109375 14.984375 27.296875 
Q 14.984375 17.484375 19.15625 11.84375 
Q 23.34375 6.203125 30.609375 6.203125 
Q 37.796875 6.203125 41.984375 11.859375 
Q 46.1875 17.53125 46.1875 27.296875 
Q 46.1875 37.015625 41.984375 42.703125 
Q 37.796875 48.390625 30.609375 48.390625 
z
M 30.609375 56 
Q 42.328125 56 49.015625 48.375 
Q 55.71875 40.765625 55.71875 27.296875 
Q 55.71875 13.875 49.015625 6.21875 
Q 42.328125 -1.421875 30.609375 -1.421875 
Q 18.84375 -1.421875 12.171875 6.21875 
Q 5.515625 13.875 5.515625 27.296875 
Q 5.515625 40.765625 12.171875 48.375 
Q 18.84375 56 30.609375 56 
z
" id="DejaVuSans-111"/>
      <path d="M 45.40625 46.390625 
L 45.40625 75.984375 
L 54.390625 75.984375 
L 54.390625 0 
L 45.40625 0 
L 45.40625 8.203125 
Q 42.578125 3.328125 38.25 0.953125 
Q 33.9375 -1.421875 27.875 -1.421875 
Q 17.96875 -1.421875 11.734375 6.484375 
Q 5.515625 14.40625 5.515625 27.296875 
Q 5.515625 40.1875 11.734375 48.09375 
Q 17.96875 56 27.875 56 
Q 33.9375 56 38.25 53.625 
Q 42.578125 51.265625 45.40625 46.390625 
z
M 14.796875 27.296875 
Q 14.796875 17.390625 18.875 11.75 
Q 22.953125 6.109375 30.078125 6.109375 
Q 37.203125 6.109375 41.296875 11.75 
Q 45.40625 17.390625 45.40625 27.296875 
Q 45.40625 37.203125 41.296875 42.84375 
Q 37.203125 48.484375 30.078125 48.484375 
Q 22.953125 48.484375 18.875 42.84375 
Q 14.796875 37.203125 14.796875 27.296875 
z
" id="DejaVuSans-100"/>
      <path d="M 32.171875 -5.078125 
Q 28.375 -14.84375 24.75 -17.8125 
Q 21.140625 -20.796875 15.09375 -20.796875 
L 7.90625 -20.796875 
L 7.90625 -13.28125 
L 13.1875 -13.28125 
Q 16.890625 -13.28125 18.9375 -11.515625 
Q 21 -9.765625 23.484375 -3.21875 
L 25.09375 0.875 
L 2.984375 54.6875 
L 12.5 54.6875 
L 29.59375 11.921875 
L 46.6875 54.6875 
L 56.203125 54.6875 
z
" id="DejaVuSans-121"/>
      <path d="M 37.109375 75.984375 
L 37.109375 68.5 
L 28.515625 68.5 
Q 23.6875 68.5 21.796875 66.546875 
Q 19.921875 64.59375 19.921875 59.515625 
L 19.921875 54.6875 
L 34.71875 54.6875 
L 34.71875 47.703125 
L 19.921875 47.703125 
L 19.921875 0 
L 10.890625 0 
L 10.890625 47.703125 
L 2.296875 47.703125 
L 2.296875 54.6875 
L 10.890625 54.6875 
L 10.890625 58.5 
Q 10.890625 67.625 15.140625 71.796875 
Q 19.390625 75.984375 28.609375 75.984375 
z
" id="DejaVuSans-102"/>
      <path d="M 56.203125 29.59375 
L 56.203125 25.203125 
L 14.890625 25.203125 
Q 15.484375 15.921875 20.484375 11.0625 
Q 25.484375 6.203125 34.421875 6.203125 
Q 39.59375 6.203125 44.453125 7.46875 
Q 49.3125 8.734375 54.109375 11.28125 
L 54.109375 2.78125 
Q 49.265625 0.734375 44.1875 -0.34375 
Q 39.109375 -1.421875 33.890625 -1.421875 
Q 20.796875 -1.421875 13.15625 6.1875 
Q 5.515625 13.8125 5.515625 26.8125 
Q 5.515625 40.234375 12.765625 48.109375 
Q 20.015625 56 32.328125 56 
Q 43.359375 56 49.78125 48.890625 
Q 56.203125 41.796875 56.203125 29.59375 
z
M 47.21875 32.234375 
Q 47.125 39.59375 43.09375 43.984375 
Q 39.0625 48.390625 32.421875 48.390625 
Q 24.90625 48.390625 20.390625 44.140625 
Q 15.875 39.890625 15.1875 32.171875 
z
" id="DejaVuSans-101"/>
     </defs>
     <g transform="translate(64.447303 53.594687)scale(0.1 -0.1)">
      <use xlink:href="#DejaVuSans-104"/>
      <use x="63.378906" xlink:href="#DejaVuSans-105"/>
      <use x="91.162109" xlink:href="#DejaVuSans-115"/>
      <use x="143.261719" xlink:href="#DejaVuSans-116"/>
      <use x="182.470703" xlink:href="#DejaVuSans-111"/>
      <use x="243.652344" xlink:href="#DejaVuSans-114"/>
      <use x="284.765625" xlink:href="#DejaVuSans-105"/>
      <use x="312.548828" xlink:href="#DejaVuSans-99"/>
      <use x="367.529297" xlink:href="#DejaVuSans-32"/>
      <use x="399.316406" xlink:href="#DejaVuSans-55"/>
      <use x="462.939453" xlink:href="#DejaVuSans-32"/>
      <use x="494.726562" xlink:href="#DejaVuSans-100"/>
      <use x="558.203125" xlink:href="#DejaVuSans-97"/>
      <use x="619.482422" xlink:href="#DejaVuSans-121"/>
      <use x="678.662109" xlink:href="#DejaVuSans-32"/>
      <use x="710.449219" xlink:href="#DejaVuSans-102"/>
      <use x="745.654297" xlink:href="#DejaVuSans-111"/>
      <use x="806.835938" xlink:href="#DejaVuSans-114"/>
      <use x="845.699219" xlink:href="#DejaVuSans-101"/>
      <use x="907.222656" xlink:href="#DejaVuSans-99"/>
      <use x="962.203125" xlink:href="#DejaVuSans-97"/>
      <use x="1023.482422" xlink:href="#DejaVuSans-115"/>
      <use x="1075.582031" xlink:href="#DejaVuSans-116"/>
      <use x="1114.791016" xlink:href="#DejaVuSans-115"/>
     </g>
    </g>
   </g>
  </g>
 </g>
 <defs>
  <clipPath id="p803ce0ea42">
   <rect height="271.8" width="446.4" x="27.447303" y="22.318125"/>
  </clipPath>
 </defs>
</svg>
