<?xml version="1.0" encoding="utf-8" standalone="no"?>
<!DOCTYPE svg PUBLIC "-//W3C//DTD SVG 1.1//EN"
  "http://www.w3.org/Graphics/SVG/1.1/DTD/svg11.dtd">
<!-- Created with matplotlib (https://matplotlib.org/) -->
<svg height="274.885212pt" version="1.1" viewBox="0 0 381.727545 274.885212" width="381.727545pt" xmlns="http://www.w3.org/2000/svg" xmlns:xlink="http://www.w3.org/1999/xlink">
 <defs>
  <style type="text/css">
*{stroke-linecap:butt;stroke-linejoin:round;}
  </style>
 </defs>
 <g id="figure_1">
  <g id="patch_1">
   <path d="M 0 274.885212 
L 381.727545 274.885212 
L 381.727545 0 
L 0 0 
z
" style="fill:none;"/>
  </g>
  <g id="axes_1">
   <g id="patch_2">
    <path d="M 39.727545 224.64 
L 374.527545 224.64 
L 374.527545 7.2 
L 39.727545 7.2 
z
" style="fill:#ffffff;"/>
   </g>
   <g id="matplotlib.axis_1">
    <g id="xtick_1">
     <g id="line2d_1">
      <path clip-path="url(#pef93e5d1ae)" d="M 39.727545 224.64 
L 39.727545 7.2 
" style="fill:none;stroke:#dedede;stroke-linecap:square;stroke-width:0.8;"/>
     </g>
     <g id="text_1">
      <!--  -->
      <g style="fill:#333333;" transform="translate(39.727545 237.969498)scale(0.0833 -0.0833)"/>
      <!--  -->
      <g style="fill:#333333;" transform="translate(39.727545 247.297276)scale(0.0833 -0.0833)"/>
      <!-- Jan -->
      <defs>
       <path d="M 9.8125 72.90625 
L 19.671875 72.90625 
L 19.671875 5.078125 
Q 19.671875 -8.109375 14.671875 -14.0625 
Q 9.671875 -20.015625 -1.421875 -20.015625 
L -5.171875 -20.015625 
L -5.171875 -11.71875 
L -2.09375 -11.71875 
Q 4.4375 -11.71875 7.125 -8.046875 
Q 9.8125 -4.390625 9.8125 5.078125 
z
" id="DejaVuSans-74"/>
       <path d="M 34.28125 27.484375 
Q 23.390625 27.484375 19.1875 25 
Q 14.984375 22.515625 14.984375 16.5 
Q 14.984375 11.71875 18.140625 8.90625 
Q 21.296875 6.109375 26.703125 6.109375 
Q 34.1875 6.109375 38.703125 11.40625 
Q 43.21875 16.703125 43.21875 25.484375 
L 43.21875 27.484375 
z
M 52.203125 31.203125 
L 52.203125 0 
L 43.21875 0 
L 43.21875 8.296875 
Q 40.140625 3.328125 35.546875 0.953125 
Q 30.953125 -1.421875 24.3125 -1.421875 
Q 15.921875 -1.421875 10.953125 3.296875 
Q 6 8.015625 6 15.921875 
Q 6 25.140625 12.171875 29.828125 
Q 18.359375 34.515625 30.609375 34.515625 
L 43.21875 34.515625 
L 43.21875 35.40625 
Q 43.21875 41.609375 39.140625 45 
Q 35.0625 48.390625 27.6875 48.390625 
Q 23 48.390625 18.546875 47.265625 
Q 14.109375 46.140625 10.015625 43.890625 
L 10.015625 52.203125 
Q 14.9375 54.109375 19.578125 55.046875 
Q 24.21875 56 28.609375 56 
Q 40.484375 56 46.34375 49.84375 
Q 52.203125 43.703125 52.203125 31.203125 
z
" id="DejaVuSans-97"/>
       <path d="M 54.890625 33.015625 
L 54.890625 0 
L 45.90625 0 
L 45.90625 32.71875 
Q 45.90625 40.484375 42.875 44.328125 
Q 39.84375 48.1875 33.796875 48.1875 
Q 26.515625 48.1875 22.3125 43.546875 
Q 18.109375 38.921875 18.109375 30.90625 
L 18.109375 0 
L 9.078125 0 
L 9.078125 54.6875 
L 18.109375 54.6875 
L 18.109375 46.1875 
Q 21.34375 51.125 25.703125 53.5625 
Q 30.078125 56 35.796875 56 
Q 45.21875 56 50.046875 50.171875 
Q 54.890625 44.34375 54.890625 33.015625 
z
" id="DejaVuSans-110"/>
      </defs>
      <g style="fill:#333333;" transform="translate(33.306938 256.625054)scale(0.0833 -0.0833)">
       <use xlink:href="#DejaVuSans-74"/>
       <use x="29.492188" xlink:href="#DejaVuSans-97"/>
       <use x="90.771484" xlink:href="#DejaVuSans-110"/>
      </g>
      <!-- 2000 -->
      <defs>
       <path d="M 19.1875 8.296875 
L 53.609375 8.296875 
L 53.609375 0 
L 7.328125 0 
L 7.328125 8.296875 
Q 12.9375 14.109375 22.625 23.890625 
Q 32.328125 33.6875 34.8125 36.53125 
Q 39.546875 41.84375 41.421875 45.53125 
Q 43.3125 49.21875 43.3125 52.78125 
Q 43.3125 58.59375 39.234375 62.25 
Q 35.15625 65.921875 28.609375 65.921875 
Q 23.96875 65.921875 18.8125 64.3125 
Q 13.671875 62.703125 7.8125 59.421875 
L 7.8125 69.390625 
Q 13.765625 71.78125 18.9375 73 
Q 24.125 74.21875 28.421875 74.21875 
Q 39.75 74.21875 46.484375 68.546875 
Q 53.21875 62.890625 53.21875 53.421875 
Q 53.21875 48.921875 51.53125 44.890625 
Q 49.859375 40.875 45.40625 35.40625 
Q 44.1875 33.984375 37.640625 27.21875 
Q 31.109375 20.453125 19.1875 8.296875 
z
" id="DejaVuSans-50"/>
       <path d="M 31.78125 66.40625 
Q 24.171875 66.40625 20.328125 58.90625 
Q 16.5 51.421875 16.5 36.375 
Q 16.5 21.390625 20.328125 13.890625 
Q 24.171875 6.390625 31.78125 6.390625 
Q 39.453125 6.390625 43.28125 13.890625 
Q 47.125 21.390625 47.125 36.375 
Q 47.125 51.421875 43.28125 58.90625 
Q 39.453125 66.40625 31.78125 66.40625 
z
M 31.78125 74.21875 
Q 44.046875 74.21875 50.515625 64.515625 
Q 56.984375 54.828125 56.984375 36.375 
Q 56.984375 17.96875 50.515625 8.265625 
Q 44.046875 -1.421875 31.78125 -1.421875 
Q 19.53125 -1.421875 13.0625 8.265625 
Q 6.59375 17.96875 6.59375 36.375 
Q 6.59375 54.828125 13.0625 64.515625 
Q 19.53125 74.21875 31.78125 74.21875 
z
" id="DejaVuSans-48"/>
      </defs>
      <g style="fill:#333333;" transform="translate(29.12762 265.952832)scale(0.0833 -0.0833)">
       <use xlink:href="#DejaVuSans-50"/>
       <use x="63.623047" xlink:href="#DejaVuSans-48"/>
       <use x="127.246094" xlink:href="#DejaVuSans-48"/>
       <use x="190.869141" xlink:href="#DejaVuSans-48"/>
      </g>
     </g>
    </g>
    <g id="xtick_2">
     <g id="line2d_2">
      <path clip-path="url(#pef93e5d1ae)" d="M 251.53979 224.64 
L 251.53979 7.2 
" style="fill:none;stroke:#dedede;stroke-linecap:square;stroke-width:0.8;"/>
     </g>
     <g id="text_2">
      <!--  -->
      <g style="fill:#333333;" transform="translate(251.53979 237.969498)scale(0.0833 -0.0833)"/>
      <!--  -->
      <g style="fill:#333333;" transform="translate(251.53979 247.297276)scale(0.0833 -0.0833)"/>
      <!-- Feb -->
      <defs>
       <path d="M 9.8125 72.90625 
L 51.703125 72.90625 
L 51.703125 64.59375 
L 19.671875 64.59375 
L 19.671875 43.109375 
L 48.578125 43.109375 
L 48.578125 34.8125 
L 19.671875 34.8125 
L 19.671875 0 
L 9.8125 0 
z
" id="DejaVuSans-70"/>
       <path d="M 56.203125 29.59375 
L 56.203125 25.203125 
L 14.890625 25.203125 
Q 15.484375 15.921875 20.484375 11.0625 
Q 25.484375 6.203125 34.421875 6.203125 
Q 39.59375 6.203125 44.453125 7.46875 
Q 49.3125 8.734375 54.109375 11.28125 
L 54.109375 2.78125 
Q 49.265625 0.734375 44.1875 -0.34375 
Q 39.109375 -1.421875 33.890625 -1.421875 
Q 20.796875 -1.421875 13.15625 6.1875 
Q 5.515625 13.8125 5.515625 26.8125 
Q 5.515625 40.234375 12.765625 48.109375 
Q 20.015625 56 32.328125 56 
Q 43.359375 56 49.78125 48.890625 
Q 56.203125 41.796875 56.203125 29.59375 
z
M 47.21875 32.234375 
Q 47.125 39.59375 43.09375 43.984375 
Q 39.0625 48.390625 32.421875 48.390625 
Q 24.90625 48.390625 20.390625 44.140625 
Q 15.875 39.890625 15.1875 32.171875 
z
" id="DejaVuSans-101"/>
       <path d="M 48.6875 27.296875 
Q 48.6875 37.203125 44.609375 42.84375 
Q 40.53125 48.484375 33.40625 48.484375 
Q 26.265625 48.484375 22.1875 42.84375 
Q 18.109375 37.203125 18.109375 27.296875 
Q 18.109375 17.390625 22.1875 11.75 
Q 26.265625 6.109375 33.40625 6.109375 
Q 40.53125 6.109375 44.609375 11.75 
Q 48.6875 17.390625 48.6875 27.296875 
z
M 18.109375 46.390625 
Q 20.953125 51.265625 25.265625 53.625 
Q 29.59375 56 35.59375 56 
Q 45.5625 56 51.78125 48.09375 
Q 58.015625 40.1875 58.015625 27.296875 
Q 58.015625 14.40625 51.78125 6.484375 
Q 45.5625 -1.421875 35.59375 -1.421875 
Q 29.59375 -1.421875 25.265625 0.953125 
Q 20.953125 3.328125 18.109375 8.203125 
L 18.109375 0 
L 9.078125 0 
L 9.078125 75.984375 
L 18.109375 75.984375 
z
" id="DejaVuSans-98"/>
      </defs>
      <g style="fill:#333333;" transform="translate(244.166439 256.625054)scale(0.0833 -0.0833)">
       <use xlink:href="#DejaVuSans-70"/>
       <use x="52.019531" xlink:href="#DejaVuSans-101"/>
       <use x="113.542969" xlink:href="#DejaVuSans-98"/>
      </g>
     </g>
    </g>
    <g id="xtick_3">
     <g id="line2d_3">
      <path clip-path="url(#pef93e5d1ae)" d="M 374.527545 224.64 
L 374.527545 7.2 
" style="fill:none;stroke:#dedede;stroke-linecap:square;stroke-width:0.8;"/>
     </g>
    </g>
    <g id="xtick_4"/>
    <g id="xtick_5">
     <g id="text_3">
      <!-- 03 -->
      <defs>
       <path d="M 40.578125 39.3125 
Q 47.65625 37.796875 51.625 33 
Q 55.609375 28.21875 55.609375 21.1875 
Q 55.609375 10.40625 48.1875 4.484375 
Q 40.765625 -1.421875 27.09375 -1.421875 
Q 22.515625 -1.421875 17.65625 -0.515625 
Q 12.796875 0.390625 7.625 2.203125 
L 7.625 11.71875 
Q 11.71875 9.328125 16.59375 8.109375 
Q 21.484375 6.890625 26.8125 6.890625 
Q 36.078125 6.890625 40.9375 10.546875 
Q 45.796875 14.203125 45.796875 21.1875 
Q 45.796875 27.640625 41.28125 31.265625 
Q 36.765625 34.90625 28.71875 34.90625 
L 20.21875 34.90625 
L 20.21875 43.015625 
L 29.109375 43.015625 
Q 36.375 43.015625 40.234375 45.921875 
Q 44.09375 48.828125 44.09375 54.296875 
Q 44.09375 59.90625 40.109375 62.90625 
Q 36.140625 65.921875 28.71875 65.921875 
Q 24.65625 65.921875 20.015625 65.03125 
Q 15.375 64.15625 9.8125 62.3125 
L 9.8125 71.09375 
Q 15.4375 72.65625 20.34375 73.4375 
Q 25.25 74.21875 29.59375 74.21875 
Q 40.828125 74.21875 47.359375 69.109375 
Q 53.90625 64.015625 53.90625 55.328125 
Q 53.90625 49.265625 50.4375 45.09375 
Q 46.96875 40.921875 40.578125 39.3125 
z
" id="DejaVuSans-51"/>
      </defs>
      <g style="fill:#333333;" transform="translate(48.092889 236.369498)scale(0.0833 -0.0833)">
       <use xlink:href="#DejaVuSans-48"/>
       <use x="63.623047" xlink:href="#DejaVuSans-51"/>
      </g>
     </g>
    </g>
    <g id="xtick_6"/>
    <g id="xtick_7"/>
    <g id="xtick_8"/>
    <g id="xtick_9"/>
    <g id="xtick_10"/>
    <g id="xtick_11"/>
    <g id="xtick_12">
     <g id="text_4">
      <!-- 10 -->
      <defs>
       <path d="M 12.40625 8.296875 
L 28.515625 8.296875 
L 28.515625 63.921875 
L 10.984375 60.40625 
L 10.984375 69.390625 
L 28.421875 72.90625 
L 38.28125 72.90625 
L 38.28125 8.296875 
L 54.390625 8.296875 
L 54.390625 0 
L 12.40625 0 
z
" id="DejaVuSans-49"/>
      </defs>
      <g style="fill:#333333;" transform="translate(95.92146 236.369498)scale(0.0833 -0.0833)">
       <use xlink:href="#DejaVuSans-49"/>
       <use x="63.623047" xlink:href="#DejaVuSans-48"/>
      </g>
     </g>
    </g>
    <g id="xtick_13"/>
    <g id="xtick_14"/>
    <g id="xtick_15"/>
    <g id="xtick_16"/>
    <g id="xtick_17"/>
    <g id="xtick_18"/>
    <g id="xtick_19">
     <g id="text_5">
      <!-- 17 -->
      <defs>
       <path d="M 8.203125 72.90625 
L 55.078125 72.90625 
L 55.078125 68.703125 
L 28.609375 0 
L 18.3125 0 
L 43.21875 64.59375 
L 8.203125 64.59375 
z
" id="DejaVuSans-55"/>
      </defs>
      <g style="fill:#333333;" transform="translate(143.750032 236.369498)scale(0.0833 -0.0833)">
       <use xlink:href="#DejaVuSans-49"/>
       <use x="63.623047" xlink:href="#DejaVuSans-55"/>
      </g>
     </g>
    </g>
    <g id="xtick_20"/>
    <g id="xtick_21"/>
    <g id="xtick_22"/>
    <g id="xtick_23"/>
    <g id="xtick_24"/>
    <g id="xtick_25"/>
    <g id="xtick_26">
     <g id="text_6">
      <!-- 24 -->
      <defs>
       <path d="M 37.796875 64.3125 
L 12.890625 25.390625 
L 37.796875 25.390625 
z
M 35.203125 72.90625 
L 47.609375 72.90625 
L 47.609375 25.390625 
L 58.015625 25.390625 
L 58.015625 17.1875 
L 47.609375 17.1875 
L 47.609375 0 
L 37.796875 0 
L 37.796875 17.1875 
L 4.890625 17.1875 
L 4.890625 26.703125 
z
" id="DejaVuSans-52"/>
      </defs>
      <g style="fill:#333333;" transform="translate(191.578603 236.369498)scale(0.0833 -0.0833)">
       <use xlink:href="#DejaVuSans-50"/>
       <use x="63.623047" xlink:href="#DejaVuSans-52"/>
      </g>
     </g>
    </g>
    <g id="xtick_27"/>
    <g id="xtick_28"/>
    <g id="xtick_29"/>
    <g id="xtick_30"/>
    <g id="xtick_31"/>
    <g id="xtick_32"/>
    <g id="xtick_33">
     <g id="text_7">
      <!-- 31 -->
      <g style="fill:#333333;" transform="translate(239.407175 236.369498)scale(0.0833 -0.0833)">
       <use xlink:href="#DejaVuSans-51"/>
       <use x="63.623047" xlink:href="#DejaVuSans-49"/>
      </g>
     </g>
    </g>
    <g id="xtick_34"/>
    <g id="xtick_35"/>
    <g id="xtick_36"/>
    <g id="xtick_37"/>
    <g id="xtick_38"/>
    <g id="xtick_39">
     <g id="text_8">
      <!-- 07 -->
      <g style="fill:#333333;" transform="translate(287.235746 236.369498)scale(0.0833 -0.0833)">
       <use xlink:href="#DejaVuSans-48"/>
       <use x="63.623047" xlink:href="#DejaVuSans-55"/>
      </g>
     </g>
    </g>
    <g id="xtick_40"/>
    <g id="xtick_41"/>
    <g id="xtick_42"/>
    <g id="xtick_43"/>
    <g id="xtick_44"/>
    <g id="xtick_45"/>
    <g id="xtick_46">
     <g id="text_9">
      <!-- 14 -->
      <g style="fill:#333333;" transform="translate(335.064318 236.369498)scale(0.0833 -0.0833)">
       <use xlink:href="#DejaVuSans-49"/>
       <use x="63.623047" xlink:href="#DejaVuSans-52"/>
      </g>
     </g>
    </g>
    <g id="xtick_47"/>
    <g id="xtick_48"/>
    <g id="xtick_49"/>
    <g id="xtick_50"/>
   </g>
   <g id="matplotlib.axis_2">
    <g id="ytick_1">
     <g id="line2d_4">
      <path clip-path="url(#pef93e5d1ae)" d="M 39.727545 219.715109 
L 374.527545 219.715109 
" style="fill:none;stroke:#dedede;stroke-linecap:square;stroke-width:0.8;"/>
     </g>
     <g id="line2d_5">
      <defs>
       <path d="M 0 0 
L -3.5 0 
" id="m57aed3b33b" style="stroke:#333333;stroke-width:0.8;"/>
      </defs>
      <g>
       <use style="fill:#333333;stroke:#333333;stroke-width:0.8;" x="39.727545" xlink:href="#m57aed3b33b" y="219.715109"/>
      </g>
     </g>
     <g id="text_10">
      <!-- −1.00 -->
      <defs>
       <path d="M 10.59375 35.5 
L 73.1875 35.5 
L 73.1875 27.203125 
L 10.59375 27.203125 
z
" id="DejaVuSans-8722"/>
       <path d="M 10.6875 12.40625 
L 21 12.40625 
L 21 0 
L 10.6875 0 
z
" id="DejaVuSans-46"/>
      </defs>
      <g style="fill:#333333;" transform="translate(7.2 222.879858)scale(0.0833 -0.0833)">
       <use xlink:href="#DejaVuSans-8722"/>
       <use x="83.789062" xlink:href="#DejaVuSans-49"/>
       <use x="147.412109" xlink:href="#DejaVuSans-46"/>
       <use x="179.199219" xlink:href="#DejaVuSans-48"/>
       <use x="242.822266" xlink:href="#DejaVuSans-48"/>
      </g>
     </g>
    </g>
    <g id="ytick_2">
     <g id="line2d_6">
      <path clip-path="url(#pef93e5d1ae)" d="M 39.727545 194.386175 
L 374.527545 194.386175 
" style="fill:none;stroke:#dedede;stroke-linecap:square;stroke-width:0.8;"/>
     </g>
     <g id="line2d_7">
      <g>
       <use style="fill:#333333;stroke:#333333;stroke-width:0.8;" x="39.727545" xlink:href="#m57aed3b33b" y="194.386175"/>
      </g>
     </g>
     <g id="text_11">
      <!-- −0.75 -->
      <defs>
       <path d="M 10.796875 72.90625 
L 49.515625 72.90625 
L 49.515625 64.59375 
L 19.828125 64.59375 
L 19.828125 46.734375 
Q 21.96875 47.46875 24.109375 47.828125 
Q 26.265625 48.1875 28.421875 48.1875 
Q 40.625 48.1875 47.75 41.5 
Q 54.890625 34.8125 54.890625 23.390625 
Q 54.890625 11.625 47.5625 5.09375 
Q 40.234375 -1.421875 26.90625 -1.421875 
Q 22.3125 -1.421875 17.546875 -0.640625 
Q 12.796875 0.140625 7.71875 1.703125 
L 7.71875 11.625 
Q 12.109375 9.234375 16.796875 8.0625 
Q 21.484375 6.890625 26.703125 6.890625 
Q 35.15625 6.890625 40.078125 11.328125 
Q 45.015625 15.765625 45.015625 23.390625 
Q 45.015625 31 40.078125 35.4375 
Q 35.15625 39.890625 26.703125 39.890625 
Q 22.75 39.890625 18.8125 39.015625 
Q 14.890625 38.140625 10.796875 36.28125 
z
" id="DejaVuSans-53"/>
      </defs>
      <g style="fill:#333333;" transform="translate(7.2 197.550924)scale(0.0833 -0.0833)">
       <use xlink:href="#DejaVuSans-8722"/>
       <use x="83.789062" xlink:href="#DejaVuSans-48"/>
       <use x="147.412109" xlink:href="#DejaVuSans-46"/>
       <use x="179.199219" xlink:href="#DejaVuSans-55"/>
       <use x="242.822266" xlink:href="#DejaVuSans-53"/>
      </g>
     </g>
    </g>
    <g id="ytick_3">
     <g id="line2d_8">
      <path clip-path="url(#pef93e5d1ae)" d="M 39.727545 169.057241 
L 374.527545 169.057241 
" style="fill:none;stroke:#dedede;stroke-linecap:square;stroke-width:0.8;"/>
     </g>
     <g id="line2d_9">
      <g>
       <use style="fill:#333333;stroke:#333333;stroke-width:0.8;" x="39.727545" xlink:href="#m57aed3b33b" y="169.057241"/>
      </g>
     </g>
     <g id="text_12">
      <!-- −0.50 -->
      <g style="fill:#333333;" transform="translate(7.2 172.22199)scale(0.0833 -0.0833)">
       <use xlink:href="#DejaVuSans-8722"/>
       <use x="83.789062" xlink:href="#DejaVuSans-48"/>
       <use x="147.412109" xlink:href="#DejaVuSans-46"/>
       <use x="179.199219" xlink:href="#DejaVuSans-53"/>
       <use x="242.822266" xlink:href="#DejaVuSans-48"/>
      </g>
     </g>
    </g>
    <g id="ytick_4">
     <g id="line2d_10">
      <path clip-path="url(#pef93e5d1ae)" d="M 39.727545 143.728307 
L 374.527545 143.728307 
" style="fill:none;stroke:#dedede;stroke-linecap:square;stroke-width:0.8;"/>
     </g>
     <g id="line2d_11">
      <g>
       <use style="fill:#333333;stroke:#333333;stroke-width:0.8;" x="39.727545" xlink:href="#m57aed3b33b" y="143.728307"/>
      </g>
     </g>
     <g id="text_13">
      <!-- −0.25 -->
      <g style="fill:#333333;" transform="translate(7.2 146.893056)scale(0.0833 -0.0833)">
       <use xlink:href="#DejaVuSans-8722"/>
       <use x="83.789062" xlink:href="#DejaVuSans-48"/>
       <use x="147.412109" xlink:href="#DejaVuSans-46"/>
       <use x="179.199219" xlink:href="#DejaVuSans-50"/>
       <use x="242.822266" xlink:href="#DejaVuSans-53"/>
      </g>
     </g>
    </g>
    <g id="ytick_5">
     <g id="line2d_12">
      <path clip-path="url(#pef93e5d1ae)" d="M 39.727545 118.399373 
L 374.527545 118.399373 
" style="fill:none;stroke:#dedede;stroke-linecap:square;stroke-width:0.8;"/>
     </g>
     <g id="line2d_13">
      <g>
       <use style="fill:#333333;stroke:#333333;stroke-width:0.8;" x="39.727545" xlink:href="#m57aed3b33b" y="118.399373"/>
      </g>
     </g>
     <g id="text_14">
      <!-- 0.00 -->
      <g style="fill:#333333;" transform="translate(14.18028 121.564122)scale(0.0833 -0.0833)">
       <use xlink:href="#DejaVuSans-48"/>
       <use x="63.623047" xlink:href="#DejaVuSans-46"/>
       <use x="95.410156" xlink:href="#DejaVuSans-48"/>
       <use x="159.033203" xlink:href="#DejaVuSans-48"/>
      </g>
     </g>
    </g>
    <g id="ytick_6">
     <g id="line2d_14">
      <path clip-path="url(#pef93e5d1ae)" d="M 39.727545 93.070438 
L 374.527545 93.070438 
" style="fill:none;stroke:#dedede;stroke-linecap:square;stroke-width:0.8;"/>
     </g>
     <g id="line2d_15">
      <g>
       <use style="fill:#333333;stroke:#333333;stroke-width:0.8;" x="39.727545" xlink:href="#m57aed3b33b" y="93.070438"/>
      </g>
     </g>
     <g id="text_15">
      <!-- 0.25 -->
      <g style="fill:#333333;" transform="translate(14.18028 96.235188)scale(0.0833 -0.0833)">
       <use xlink:href="#DejaVuSans-48"/>
       <use x="63.623047" xlink:href="#DejaVuSans-46"/>
       <use x="95.410156" xlink:href="#DejaVuSans-50"/>
       <use x="159.033203" xlink:href="#DejaVuSans-53"/>
      </g>
     </g>
    </g>
    <g id="ytick_7">
     <g id="line2d_16">
      <path clip-path="url(#pef93e5d1ae)" d="M 39.727545 67.741504 
L 374.527545 67.741504 
" style="fill:none;stroke:#dedede;stroke-linecap:square;stroke-width:0.8;"/>
     </g>
     <g id="line2d_17">
      <g>
       <use style="fill:#333333;stroke:#333333;stroke-width:0.8;" x="39.727545" xlink:href="#m57aed3b33b" y="67.741504"/>
      </g>
     </g>
     <g id="text_16">
      <!-- 0.50 -->
      <g style="fill:#333333;" transform="translate(14.18028 70.906254)scale(0.0833 -0.0833)">
       <use xlink:href="#DejaVuSans-48"/>
       <use x="63.623047" xlink:href="#DejaVuSans-46"/>
       <use x="95.410156" xlink:href="#DejaVuSans-53"/>
       <use x="159.033203" xlink:href="#DejaVuSans-48"/>
      </g>
     </g>
    </g>
    <g id="ytick_8">
     <g id="line2d_18">
      <path clip-path="url(#pef93e5d1ae)" d="M 39.727545 42.41257 
L 374.527545 42.41257 
" style="fill:none;stroke:#dedede;stroke-linecap:square;stroke-width:0.8;"/>
     </g>
     <g id="line2d_19">
      <g>
       <use style="fill:#333333;stroke:#333333;stroke-width:0.8;" x="39.727545" xlink:href="#m57aed3b33b" y="42.41257"/>
      </g>
     </g>
     <g id="text_17">
      <!-- 0.75 -->
      <g style="fill:#333333;" transform="translate(14.18028 45.57732)scale(0.0833 -0.0833)">
       <use xlink:href="#DejaVuSans-48"/>
       <use x="63.623047" xlink:href="#DejaVuSans-46"/>
       <use x="95.410156" xlink:href="#DejaVuSans-55"/>
       <use x="159.033203" xlink:href="#DejaVuSans-53"/>
      </g>
     </g>
    </g>
    <g id="ytick_9">
     <g id="line2d_20">
      <path clip-path="url(#pef93e5d1ae)" d="M 39.727545 17.083636 
L 374.527545 17.083636 
" style="fill:none;stroke:#dedede;stroke-linecap:square;stroke-width:0.8;"/>
     </g>
     <g id="line2d_21">
      <g>
       <use style="fill:#333333;stroke:#333333;stroke-width:0.8;" x="39.727545" xlink:href="#m57aed3b33b" y="17.083636"/>
      </g>
     </g>
     <g id="text_18">
      <!-- 1.00 -->
      <g style="fill:#333333;" transform="translate(14.18028 20.248386)scale(0.0833 -0.0833)">
       <use xlink:href="#DejaVuSans-49"/>
       <use x="63.623047" xlink:href="#DejaVuSans-46"/>
       <use x="95.410156" xlink:href="#DejaVuSans-48"/>
       <use x="159.033203" xlink:href="#DejaVuSans-48"/>
      </g>
     </g>
    </g>
   </g>
   <g id="line2d_22">
    <path clip-path="url(#pef93e5d1ae)" d="M 39.727545 118.399373 
L 46.560198 58.847477 
L 53.392851 22.042381 
L 60.225504 22.042381 
L 67.058158 58.847477 
L 73.890811 118.399373 
L 80.723464 177.951268 
L 87.556117 214.756364 
L 94.38877 214.756364 
L 101.221423 177.951268 
L 108.054076 118.399373 
L 114.886729 58.847477 
L 121.719382 22.042381 
L 128.552035 22.042381 
L 135.384688 58.847477 
L 142.217341 118.399373 
L 149.049994 177.951268 
L 155.882647 214.756364 
L 162.7153 214.756364 
L 169.547953 177.951268 
L 176.380607 118.399373 
L 183.21326 58.847477 
L 190.045913 22.042381 
L 196.878566 22.042381 
L 203.711219 58.847477 
L 210.543872 118.399373 
L 217.376525 177.951268 
L 224.209178 214.756364 
L 231.041831 214.756364 
L 237.874484 177.951268 
L 244.707137 118.399373 
L 251.53979 58.847477 
L 258.372443 22.042381 
L 265.205096 22.042381 
L 272.037749 58.847477 
L 278.870402 118.399373 
L 285.703056 177.951268 
L 292.535709 214.756364 
L 299.368362 214.756364 
L 306.201015 177.951268 
L 313.033668 118.399373 
L 319.866321 58.847477 
L 326.698974 22.042381 
L 333.531627 22.042381 
L 340.36428 58.847477 
L 347.196933 118.399373 
L 354.029586 177.951268 
L 360.862239 214.756364 
L 367.694892 214.756364 
L 374.527545 177.951268 
" style="fill:none;stroke:#000000;stroke-linecap:square;stroke-width:1.3;"/>
   </g>
   <g id="line2d_23">
    <path clip-path="url(#pef93e5d1ae)" d="M 39.727545 118.399373 
L 46.560198 116.331704 
L 53.392851 114.264036 
L 60.225504 112.196368 
L 67.058158 110.1287 
L 73.890811 108.061032 
L 80.723464 105.993364 
L 87.556117 103.925696 
L 94.38877 101.858028 
L 101.221423 99.79036 
L 108.054076 97.722692 
L 114.886729 95.655024 
L 121.719382 93.587356 
L 128.552035 91.519687 
L 135.384688 89.452019 
L 142.217341 87.384351 
L 149.049994 85.316683 
L 155.882647 83.249015 
L 162.7153 81.181347 
L 169.547953 79.113679 
L 176.380607 77.046011 
L 183.21326 74.978343 
L 190.045913 72.910675 
L 196.878566 70.843007 
L 203.711219 68.775338 
L 210.543872 66.70767 
L 217.376525 64.640002 
L 224.209178 62.572334 
L 231.041831 60.504666 
L 237.874484 58.436998 
L 244.707137 56.36933 
L 251.53979 54.301662 
L 258.372443 52.233994 
L 265.205096 50.166326 
L 272.037749 48.098658 
L 278.870402 46.03099 
L 285.703056 43.963321 
L 292.535709 41.895653 
L 299.368362 39.827985 
L 306.201015 37.760317 
L 313.033668 35.692649 
L 319.866321 33.624981 
L 326.698974 31.557313 
L 333.531627 29.489645 
L 340.36428 27.421977 
L 347.196933 25.354309 
L 354.029586 23.286641 
L 360.862239 21.218973 
L 367.694892 19.151304 
L 374.527545 17.083636 
" style="fill:none;stroke:#003dfd;stroke-linecap:square;stroke-width:1.3;"/>
   </g>
  </g>
 </g>
 <defs>
  <clipPath id="pef93e5d1ae">
   <rect height="217.44" width="334.8" x="39.727545" y="7.2"/>
  </clipPath>
 </defs>
</svg>
