<?xml version="1.0" encoding="utf-8" standalone="no"?>
<!DOCTYPE svg PUBLIC "-//W3C//DTD SVG 1.1//EN"
  "http://www.w3.org/Graphics/SVG/1.1/DTD/svg11.dtd">
<!-- Created with matplotlib (https://matplotlib.org/) -->
<svg height="440.39952pt" version="1.1" viewBox="0 0 584.39952 440.39952" width="584.39952pt" xmlns="http://www.w3.org/2000/svg" xmlns:xlink="http://www.w3.org/1999/xlink">
 <defs>
  <style type="text/css">
*{stroke-linecap:butt;stroke-linejoin:round;}
  </style>
 </defs>
 <g id="figure_1">
  <g id="patch_1">
   <path d="M 0 440.39952 
L 584.39952 440.39952 
L 584.39952 0 
L 0 0 
z
" style="fill:none;"/>
  </g>
  <g id="axes_1">
   <g id="patch_2">
    <path d="M 48.105708 193.099517 
L 577.19952 193.099517 
L 577.19952 22.318125 
L 48.105708 22.318125 
z
" style="fill:#ffffff;"/>
   </g>
   <g id="matplotlib.axis_1">
    <g id="xtick_1">
     <g id="line2d_1">
      <path clip-path="url(#p6bfc0656ea)" d="M 48.105708 193.099517 
L 48.105708 22.318125 
" style="fill:none;stroke:#dedede;stroke-linecap:square;stroke-width:0.8;"/>
     </g>
     <g id="text_1">
      <!-- 1951 -->
      <defs>
       <path d="M 12.40625 8.296875 
L 28.515625 8.296875 
L 28.515625 63.921875 
L 10.984375 60.40625 
L 10.984375 69.390625 
L 28.421875 72.90625 
L 38.28125 72.90625 
L 38.28125 8.296875 
L 54.390625 8.296875 
L 54.390625 0 
L 12.40625 0 
z
" id="DejaVuSans-49"/>
       <path d="M 10.984375 1.515625 
L 10.984375 10.5 
Q 14.703125 8.734375 18.5 7.8125 
Q 22.3125 6.890625 25.984375 6.890625 
Q 35.75 6.890625 40.890625 13.453125 
Q 46.046875 20.015625 46.78125 33.40625 
Q 43.953125 29.203125 39.59375 26.953125 
Q 35.25 24.703125 29.984375 24.703125 
Q 19.046875 24.703125 12.671875 31.3125 
Q 6.296875 37.9375 6.296875 49.421875 
Q 6.296875 60.640625 12.9375 67.421875 
Q 19.578125 74.21875 30.609375 74.21875 
Q 43.265625 74.21875 49.921875 64.515625 
Q 56.59375 54.828125 56.59375 36.375 
Q 56.59375 19.140625 48.40625 8.859375 
Q 40.234375 -1.421875 26.421875 -1.421875 
Q 22.703125 -1.421875 18.890625 -0.6875 
Q 15.09375 0.046875 10.984375 1.515625 
z
M 30.609375 32.421875 
Q 37.25 32.421875 41.125 36.953125 
Q 45.015625 41.5 45.015625 49.421875 
Q 45.015625 57.28125 41.125 61.84375 
Q 37.25 66.40625 30.609375 66.40625 
Q 23.96875 66.40625 20.09375 61.84375 
Q 16.21875 57.28125 16.21875 49.421875 
Q 16.21875 41.5 20.09375 36.953125 
Q 23.96875 32.421875 30.609375 32.421875 
z
" id="DejaVuSans-57"/>
       <path d="M 10.796875 72.90625 
L 49.515625 72.90625 
L 49.515625 64.59375 
L 19.828125 64.59375 
L 19.828125 46.734375 
Q 21.96875 47.46875 24.109375 47.828125 
Q 26.265625 48.1875 28.421875 48.1875 
Q 40.625 48.1875 47.75 41.5 
Q 54.890625 34.8125 54.890625 23.390625 
Q 54.890625 11.625 47.5625 5.09375 
Q 40.234375 -1.421875 26.90625 -1.421875 
Q 22.3125 -1.421875 17.546875 -0.640625 
Q 12.796875 0.140625 7.71875 1.703125 
L 7.71875 11.625 
Q 12.109375 9.234375 16.796875 8.0625 
Q 21.484375 6.890625 26.703125 6.890625 
Q 35.15625 6.890625 40.078125 11.328125 
Q 45.015625 15.765625 45.015625 23.390625 
Q 45.015625 31 40.078125 35.4375 
Q 35.15625 39.890625 26.703125 39.890625 
Q 22.75 39.890625 18.8125 39.015625 
Q 14.890625 38.140625 10.796875 36.28125 
z
" id="DejaVuSans-53"/>
      </defs>
      <g style="fill:#333333;" transform="translate(37.505783 206.429015)scale(0.0833 -0.0833)">
       <use xlink:href="#DejaVuSans-49"/>
       <use x="63.623047" xlink:href="#DejaVuSans-57"/>
       <use x="127.246094" xlink:href="#DejaVuSans-53"/>
       <use x="190.869141" xlink:href="#DejaVuSans-49"/>
      </g>
     </g>
    </g>
    <g id="xtick_2">
     <g id="line2d_2">
      <path clip-path="url(#p6bfc0656ea)" d="M 101.911858 193.099517 
L 101.911858 22.318125 
" style="fill:none;stroke:#dedede;stroke-linecap:square;stroke-width:0.8;"/>
     </g>
     <g id="text_2">
      <!-- 1952 -->
      <defs>
       <path d="M 19.1875 8.296875 
L 53.609375 8.296875 
L 53.609375 0 
L 7.328125 0 
L 7.328125 8.296875 
Q 12.9375 14.109375 22.625 23.890625 
Q 32.328125 33.6875 34.8125 36.53125 
Q 39.546875 41.84375 41.421875 45.53125 
Q 43.3125 49.21875 43.3125 52.78125 
Q 43.3125 58.59375 39.234375 62.25 
Q 35.15625 65.921875 28.609375 65.921875 
Q 23.96875 65.921875 18.8125 64.3125 
Q 13.671875 62.703125 7.8125 59.421875 
L 7.8125 69.390625 
Q 13.765625 71.78125 18.9375 73 
Q 24.125 74.21875 28.421875 74.21875 
Q 39.75 74.21875 46.484375 68.546875 
Q 53.21875 62.890625 53.21875 53.421875 
Q 53.21875 48.921875 51.53125 44.890625 
Q 49.859375 40.875 45.40625 35.40625 
Q 44.1875 33.984375 37.640625 27.21875 
Q 31.109375 20.453125 19.1875 8.296875 
z
" id="DejaVuSans-50"/>
      </defs>
      <g style="fill:#333333;" transform="translate(91.311933 206.429015)scale(0.0833 -0.0833)">
       <use xlink:href="#DejaVuSans-49"/>
       <use x="63.623047" xlink:href="#DejaVuSans-57"/>
       <use x="127.246094" xlink:href="#DejaVuSans-53"/>
       <use x="190.869141" xlink:href="#DejaVuSans-50"/>
      </g>
     </g>
    </g>
    <g id="xtick_3">
     <g id="line2d_3">
      <path clip-path="url(#p6bfc0656ea)" d="M 155.718009 193.099517 
L 155.718009 22.318125 
" style="fill:none;stroke:#dedede;stroke-linecap:square;stroke-width:0.8;"/>
     </g>
     <g id="text_3">
      <!-- 1953 -->
      <defs>
       <path d="M 40.578125 39.3125 
Q 47.65625 37.796875 51.625 33 
Q 55.609375 28.21875 55.609375 21.1875 
Q 55.609375 10.40625 48.1875 4.484375 
Q 40.765625 -1.421875 27.09375 -1.421875 
Q 22.515625 -1.421875 17.65625 -0.515625 
Q 12.796875 0.390625 7.625 2.203125 
L 7.625 11.71875 
Q 11.71875 9.328125 16.59375 8.109375 
Q 21.484375 6.890625 26.8125 6.890625 
Q 36.078125 6.890625 40.9375 10.546875 
Q 45.796875 14.203125 45.796875 21.1875 
Q 45.796875 27.640625 41.28125 31.265625 
Q 36.765625 34.90625 28.71875 34.90625 
L 20.21875 34.90625 
L 20.21875 43.015625 
L 29.109375 43.015625 
Q 36.375 43.015625 40.234375 45.921875 
Q 44.09375 48.828125 44.09375 54.296875 
Q 44.09375 59.90625 40.109375 62.90625 
Q 36.140625 65.921875 28.71875 65.921875 
Q 24.65625 65.921875 20.015625 65.03125 
Q 15.375 64.15625 9.8125 62.3125 
L 9.8125 71.09375 
Q 15.4375 72.65625 20.34375 73.4375 
Q 25.25 74.21875 29.59375 74.21875 
Q 40.828125 74.21875 47.359375 69.109375 
Q 53.90625 64.015625 53.90625 55.328125 
Q 53.90625 49.265625 50.4375 45.09375 
Q 46.96875 40.921875 40.578125 39.3125 
z
" id="DejaVuSans-51"/>
      </defs>
      <g style="fill:#333333;" transform="translate(145.118084 206.429015)scale(0.0833 -0.0833)">
       <use xlink:href="#DejaVuSans-49"/>
       <use x="63.623047" xlink:href="#DejaVuSans-57"/>
       <use x="127.246094" xlink:href="#DejaVuSans-53"/>
       <use x="190.869141" xlink:href="#DejaVuSans-51"/>
      </g>
     </g>
    </g>
    <g id="xtick_4">
     <g id="line2d_4">
      <path clip-path="url(#p6bfc0656ea)" d="M 209.524159 193.099517 
L 209.524159 22.318125 
" style="fill:none;stroke:#dedede;stroke-linecap:square;stroke-width:0.8;"/>
     </g>
     <g id="text_4">
      <!-- 1954 -->
      <defs>
       <path d="M 37.796875 64.3125 
L 12.890625 25.390625 
L 37.796875 25.390625 
z
M 35.203125 72.90625 
L 47.609375 72.90625 
L 47.609375 25.390625 
L 58.015625 25.390625 
L 58.015625 17.1875 
L 47.609375 17.1875 
L 47.609375 0 
L 37.796875 0 
L 37.796875 17.1875 
L 4.890625 17.1875 
L 4.890625 26.703125 
z
" id="DejaVuSans-52"/>
      </defs>
      <g style="fill:#333333;" transform="translate(198.924234 206.429015)scale(0.0833 -0.0833)">
       <use xlink:href="#DejaVuSans-49"/>
       <use x="63.623047" xlink:href="#DejaVuSans-57"/>
       <use x="127.246094" xlink:href="#DejaVuSans-53"/>
       <use x="190.869141" xlink:href="#DejaVuSans-52"/>
      </g>
     </g>
    </g>
    <g id="xtick_5">
     <g id="line2d_5">
      <path clip-path="url(#p6bfc0656ea)" d="M 263.330309 193.099517 
L 263.330309 22.318125 
" style="fill:none;stroke:#dedede;stroke-linecap:square;stroke-width:0.8;"/>
     </g>
     <g id="text_5">
      <!-- 1955 -->
      <g style="fill:#333333;" transform="translate(252.730384 206.429015)scale(0.0833 -0.0833)">
       <use xlink:href="#DejaVuSans-49"/>
       <use x="63.623047" xlink:href="#DejaVuSans-57"/>
       <use x="127.246094" xlink:href="#DejaVuSans-53"/>
       <use x="190.869141" xlink:href="#DejaVuSans-53"/>
      </g>
     </g>
    </g>
    <g id="xtick_6">
     <g id="line2d_6">
      <path clip-path="url(#p6bfc0656ea)" d="M 317.13646 193.099517 
L 317.13646 22.318125 
" style="fill:none;stroke:#dedede;stroke-linecap:square;stroke-width:0.8;"/>
     </g>
     <g id="text_6">
      <!-- 1956 -->
      <defs>
       <path d="M 33.015625 40.375 
Q 26.375 40.375 22.484375 35.828125 
Q 18.609375 31.296875 18.609375 23.390625 
Q 18.609375 15.53125 22.484375 10.953125 
Q 26.375 6.390625 33.015625 6.390625 
Q 39.65625 6.390625 43.53125 10.953125 
Q 47.40625 15.53125 47.40625 23.390625 
Q 47.40625 31.296875 43.53125 35.828125 
Q 39.65625 40.375 33.015625 40.375 
z
M 52.59375 71.296875 
L 52.59375 62.3125 
Q 48.875 64.0625 45.09375 64.984375 
Q 41.3125 65.921875 37.59375 65.921875 
Q 27.828125 65.921875 22.671875 59.328125 
Q 17.53125 52.734375 16.796875 39.40625 
Q 19.671875 43.65625 24.015625 45.921875 
Q 28.375 48.1875 33.59375 48.1875 
Q 44.578125 48.1875 50.953125 41.515625 
Q 57.328125 34.859375 57.328125 23.390625 
Q 57.328125 12.15625 50.6875 5.359375 
Q 44.046875 -1.421875 33.015625 -1.421875 
Q 20.359375 -1.421875 13.671875 8.265625 
Q 6.984375 17.96875 6.984375 36.375 
Q 6.984375 53.65625 15.1875 63.9375 
Q 23.390625 74.21875 37.203125 74.21875 
Q 40.921875 74.21875 44.703125 73.484375 
Q 48.484375 72.75 52.59375 71.296875 
z
" id="DejaVuSans-54"/>
      </defs>
      <g style="fill:#333333;" transform="translate(306.536535 206.429015)scale(0.0833 -0.0833)">
       <use xlink:href="#DejaVuSans-49"/>
       <use x="63.623047" xlink:href="#DejaVuSans-57"/>
       <use x="127.246094" xlink:href="#DejaVuSans-53"/>
       <use x="190.869141" xlink:href="#DejaVuSans-54"/>
      </g>
     </g>
    </g>
    <g id="xtick_7">
     <g id="line2d_7">
      <path clip-path="url(#p6bfc0656ea)" d="M 370.94261 193.099517 
L 370.94261 22.318125 
" style="fill:none;stroke:#dedede;stroke-linecap:square;stroke-width:0.8;"/>
     </g>
     <g id="text_7">
      <!-- 1957 -->
      <defs>
       <path d="M 8.203125 72.90625 
L 55.078125 72.90625 
L 55.078125 68.703125 
L 28.609375 0 
L 18.3125 0 
L 43.21875 64.59375 
L 8.203125 64.59375 
z
" id="DejaVuSans-55"/>
      </defs>
      <g style="fill:#333333;" transform="translate(360.342685 206.429015)scale(0.0833 -0.0833)">
       <use xlink:href="#DejaVuSans-49"/>
       <use x="63.623047" xlink:href="#DejaVuSans-57"/>
       <use x="127.246094" xlink:href="#DejaVuSans-53"/>
       <use x="190.869141" xlink:href="#DejaVuSans-55"/>
      </g>
     </g>
    </g>
    <g id="xtick_8">
     <g id="line2d_8">
      <path clip-path="url(#p6bfc0656ea)" d="M 424.748761 193.099517 
L 424.748761 22.318125 
" style="fill:none;stroke:#dedede;stroke-linecap:square;stroke-width:0.8;"/>
     </g>
     <g id="text_8">
      <!-- 1958 -->
      <defs>
       <path d="M 31.78125 34.625 
Q 24.75 34.625 20.71875 30.859375 
Q 16.703125 27.09375 16.703125 20.515625 
Q 16.703125 13.921875 20.71875 10.15625 
Q 24.75 6.390625 31.78125 6.390625 
Q 38.8125 6.390625 42.859375 10.171875 
Q 46.921875 13.96875 46.921875 20.515625 
Q 46.921875 27.09375 42.890625 30.859375 
Q 38.875 34.625 31.78125 34.625 
z
M 21.921875 38.8125 
Q 15.578125 40.375 12.03125 44.71875 
Q 8.5 49.078125 8.5 55.328125 
Q 8.5 64.0625 14.71875 69.140625 
Q 20.953125 74.21875 31.78125 74.21875 
Q 42.671875 74.21875 48.875 69.140625 
Q 55.078125 64.0625 55.078125 55.328125 
Q 55.078125 49.078125 51.53125 44.71875 
Q 48 40.375 41.703125 38.8125 
Q 48.828125 37.15625 52.796875 32.3125 
Q 56.78125 27.484375 56.78125 20.515625 
Q 56.78125 9.90625 50.3125 4.234375 
Q 43.84375 -1.421875 31.78125 -1.421875 
Q 19.734375 -1.421875 13.25 4.234375 
Q 6.78125 9.90625 6.78125 20.515625 
Q 6.78125 27.484375 10.78125 32.3125 
Q 14.796875 37.15625 21.921875 38.8125 
z
M 18.3125 54.390625 
Q 18.3125 48.734375 21.84375 45.5625 
Q 25.390625 42.390625 31.78125 42.390625 
Q 38.140625 42.390625 41.71875 45.5625 
Q 45.3125 48.734375 45.3125 54.390625 
Q 45.3125 60.0625 41.71875 63.234375 
Q 38.140625 66.40625 31.78125 66.40625 
Q 25.390625 66.40625 21.84375 63.234375 
Q 18.3125 60.0625 18.3125 54.390625 
z
" id="DejaVuSans-56"/>
      </defs>
      <g style="fill:#333333;" transform="translate(414.148836 206.429015)scale(0.0833 -0.0833)">
       <use xlink:href="#DejaVuSans-49"/>
       <use x="63.623047" xlink:href="#DejaVuSans-57"/>
       <use x="127.246094" xlink:href="#DejaVuSans-53"/>
       <use x="190.869141" xlink:href="#DejaVuSans-56"/>
      </g>
     </g>
    </g>
    <g id="xtick_9">
     <g id="line2d_9">
      <path clip-path="url(#p6bfc0656ea)" d="M 478.554911 193.099517 
L 478.554911 22.318125 
" style="fill:none;stroke:#dedede;stroke-linecap:square;stroke-width:0.8;"/>
     </g>
     <g id="text_9">
      <!-- 1959 -->
      <g style="fill:#333333;" transform="translate(467.954986 206.429015)scale(0.0833 -0.0833)">
       <use xlink:href="#DejaVuSans-49"/>
       <use x="63.623047" xlink:href="#DejaVuSans-57"/>
       <use x="127.246094" xlink:href="#DejaVuSans-53"/>
       <use x="190.869141" xlink:href="#DejaVuSans-57"/>
      </g>
     </g>
    </g>
    <g id="xtick_10">
     <g id="line2d_10">
      <path clip-path="url(#p6bfc0656ea)" d="M 532.361061 193.099517 
L 532.361061 22.318125 
" style="fill:none;stroke:#dedede;stroke-linecap:square;stroke-width:0.8;"/>
     </g>
     <g id="text_10">
      <!-- 1960 -->
      <defs>
       <path d="M 31.78125 66.40625 
Q 24.171875 66.40625 20.328125 58.90625 
Q 16.5 51.421875 16.5 36.375 
Q 16.5 21.390625 20.328125 13.890625 
Q 24.171875 6.390625 31.78125 6.390625 
Q 39.453125 6.390625 43.28125 13.890625 
Q 47.125 21.390625 47.125 36.375 
Q 47.125 51.421875 43.28125 58.90625 
Q 39.453125 66.40625 31.78125 66.40625 
z
M 31.78125 74.21875 
Q 44.046875 74.21875 50.515625 64.515625 
Q 56.984375 54.828125 56.984375 36.375 
Q 56.984375 17.96875 50.515625 8.265625 
Q 44.046875 -1.421875 31.78125 -1.421875 
Q 19.53125 -1.421875 13.0625 8.265625 
Q 6.59375 17.96875 6.59375 36.375 
Q 6.59375 54.828125 13.0625 64.515625 
Q 19.53125 74.21875 31.78125 74.21875 
z
" id="DejaVuSans-48"/>
      </defs>
      <g style="fill:#333333;" transform="translate(521.761136 206.429015)scale(0.0833 -0.0833)">
       <use xlink:href="#DejaVuSans-49"/>
       <use x="63.623047" xlink:href="#DejaVuSans-57"/>
       <use x="127.246094" xlink:href="#DejaVuSans-54"/>
       <use x="190.869141" xlink:href="#DejaVuSans-48"/>
      </g>
     </g>
    </g>
    <g id="xtick_11"/>
    <g id="xtick_12"/>
    <g id="xtick_13"/>
    <g id="xtick_14"/>
    <g id="xtick_15"/>
    <g id="xtick_16"/>
    <g id="xtick_17"/>
    <g id="xtick_18"/>
    <g id="xtick_19"/>
    <g id="xtick_20"/>
    <g id="xtick_21"/>
    <g id="xtick_22"/>
    <g id="xtick_23"/>
    <g id="xtick_24"/>
    <g id="xtick_25"/>
    <g id="xtick_26"/>
    <g id="xtick_27"/>
    <g id="xtick_28"/>
    <g id="xtick_29"/>
    <g id="xtick_30"/>
    <g id="xtick_31"/>
    <g id="xtick_32"/>
    <g id="xtick_33"/>
    <g id="xtick_34"/>
    <g id="xtick_35"/>
    <g id="xtick_36"/>
    <g id="xtick_37"/>
    <g id="xtick_38"/>
    <g id="xtick_39"/>
    <g id="xtick_40"/>
   </g>
   <g id="matplotlib.axis_2">
    <g id="ytick_1">
     <g id="line2d_11">
      <path clip-path="url(#p6bfc0656ea)" d="M 48.105708 185.313518 
L 577.19952 185.313518 
" style="fill:none;stroke:#dedede;stroke-linecap:square;stroke-width:0.8;"/>
     </g>
     <g id="line2d_12">
      <defs>
       <path d="M 0 0 
L -3.5 0 
" id="m1f544129e4" style="stroke:#333333;stroke-width:0.8;"/>
      </defs>
      <g>
       <use style="fill:#333333;stroke:#333333;stroke-width:0.8;" x="48.105708" xlink:href="#m1f544129e4" y="185.313518"/>
      </g>
     </g>
     <g id="text_11">
      <!-- −40 -->
      <defs>
       <path d="M 10.59375 35.5 
L 73.1875 35.5 
L 73.1875 27.203125 
L 10.59375 27.203125 
z
" id="DejaVuSans-8722"/>
      </defs>
      <g style="fill:#333333;" transform="translate(23.525503 188.478267)scale(0.0833 -0.0833)">
       <use xlink:href="#DejaVuSans-8722"/>
       <use x="83.789062" xlink:href="#DejaVuSans-52"/>
       <use x="147.412109" xlink:href="#DejaVuSans-48"/>
      </g>
     </g>
    </g>
    <g id="ytick_2">
     <g id="line2d_13">
      <path clip-path="url(#p6bfc0656ea)" d="M 48.105708 164.849354 
L 577.19952 164.849354 
" style="fill:none;stroke:#dedede;stroke-linecap:square;stroke-width:0.8;"/>
     </g>
     <g id="line2d_14">
      <g>
       <use style="fill:#333333;stroke:#333333;stroke-width:0.8;" x="48.105708" xlink:href="#m1f544129e4" y="164.849354"/>
      </g>
     </g>
     <g id="text_12">
      <!-- −30 -->
      <g style="fill:#333333;" transform="translate(23.525503 168.014103)scale(0.0833 -0.0833)">
       <use xlink:href="#DejaVuSans-8722"/>
       <use x="83.789062" xlink:href="#DejaVuSans-51"/>
       <use x="147.412109" xlink:href="#DejaVuSans-48"/>
      </g>
     </g>
    </g>
    <g id="ytick_3">
     <g id="line2d_15">
      <path clip-path="url(#p6bfc0656ea)" d="M 48.105708 144.38519 
L 577.19952 144.38519 
" style="fill:none;stroke:#dedede;stroke-linecap:square;stroke-width:0.8;"/>
     </g>
     <g id="line2d_16">
      <g>
       <use style="fill:#333333;stroke:#333333;stroke-width:0.8;" x="48.105708" xlink:href="#m1f544129e4" y="144.38519"/>
      </g>
     </g>
     <g id="text_13">
      <!-- −20 -->
      <g style="fill:#333333;" transform="translate(23.525503 147.549939)scale(0.0833 -0.0833)">
       <use xlink:href="#DejaVuSans-8722"/>
       <use x="83.789062" xlink:href="#DejaVuSans-50"/>
       <use x="147.412109" xlink:href="#DejaVuSans-48"/>
      </g>
     </g>
    </g>
    <g id="ytick_4">
     <g id="line2d_17">
      <path clip-path="url(#p6bfc0656ea)" d="M 48.105708 123.921026 
L 577.19952 123.921026 
" style="fill:none;stroke:#dedede;stroke-linecap:square;stroke-width:0.8;"/>
     </g>
     <g id="line2d_18">
      <g>
       <use style="fill:#333333;stroke:#333333;stroke-width:0.8;" x="48.105708" xlink:href="#m1f544129e4" y="123.921026"/>
      </g>
     </g>
     <g id="text_14">
      <!-- −10 -->
      <g style="fill:#333333;" transform="translate(23.525503 127.085775)scale(0.0833 -0.0833)">
       <use xlink:href="#DejaVuSans-8722"/>
       <use x="83.789062" xlink:href="#DejaVuSans-49"/>
       <use x="147.412109" xlink:href="#DejaVuSans-48"/>
      </g>
     </g>
    </g>
    <g id="ytick_5">
     <g id="line2d_19">
      <path clip-path="url(#p6bfc0656ea)" d="M 48.105708 103.456862 
L 577.19952 103.456862 
" style="fill:none;stroke:#dedede;stroke-linecap:square;stroke-width:0.8;"/>
     </g>
     <g id="line2d_20">
      <g>
       <use style="fill:#333333;stroke:#333333;stroke-width:0.8;" x="48.105708" xlink:href="#m1f544129e4" y="103.456862"/>
      </g>
     </g>
     <g id="text_15">
      <!-- 0 -->
      <g style="fill:#333333;" transform="translate(35.805745 106.621611)scale(0.0833 -0.0833)">
       <use xlink:href="#DejaVuSans-48"/>
      </g>
     </g>
    </g>
    <g id="ytick_6">
     <g id="line2d_21">
      <path clip-path="url(#p6bfc0656ea)" d="M 48.105708 82.992698 
L 577.19952 82.992698 
" style="fill:none;stroke:#dedede;stroke-linecap:square;stroke-width:0.8;"/>
     </g>
     <g id="line2d_22">
      <g>
       <use style="fill:#333333;stroke:#333333;stroke-width:0.8;" x="48.105708" xlink:href="#m1f544129e4" y="82.992698"/>
      </g>
     </g>
     <g id="text_16">
      <!-- 10 -->
      <g style="fill:#333333;" transform="translate(30.505783 86.157447)scale(0.0833 -0.0833)">
       <use xlink:href="#DejaVuSans-49"/>
       <use x="63.623047" xlink:href="#DejaVuSans-48"/>
      </g>
     </g>
    </g>
    <g id="ytick_7">
     <g id="line2d_23">
      <path clip-path="url(#p6bfc0656ea)" d="M 48.105708 62.528534 
L 577.19952 62.528534 
" style="fill:none;stroke:#dedede;stroke-linecap:square;stroke-width:0.8;"/>
     </g>
     <g id="line2d_24">
      <g>
       <use style="fill:#333333;stroke:#333333;stroke-width:0.8;" x="48.105708" xlink:href="#m1f544129e4" y="62.528534"/>
      </g>
     </g>
     <g id="text_17">
      <!-- 20 -->
      <g style="fill:#333333;" transform="translate(30.505783 65.693283)scale(0.0833 -0.0833)">
       <use xlink:href="#DejaVuSans-50"/>
       <use x="63.623047" xlink:href="#DejaVuSans-48"/>
      </g>
     </g>
    </g>
    <g id="ytick_8">
     <g id="line2d_25">
      <path clip-path="url(#p6bfc0656ea)" d="M 48.105708 42.06437 
L 577.19952 42.06437 
" style="fill:none;stroke:#dedede;stroke-linecap:square;stroke-width:0.8;"/>
     </g>
     <g id="line2d_26">
      <g>
       <use style="fill:#333333;stroke:#333333;stroke-width:0.8;" x="48.105708" xlink:href="#m1f544129e4" y="42.06437"/>
      </g>
     </g>
     <g id="text_18">
      <!-- 30 -->
      <g style="fill:#333333;" transform="translate(30.505783 45.229119)scale(0.0833 -0.0833)">
       <use xlink:href="#DejaVuSans-51"/>
       <use x="63.623047" xlink:href="#DejaVuSans-48"/>
      </g>
     </g>
    </g>
    <g id="text_19">
     <!-- value -->
     <defs>
      <path d="M 1.515625 54.6875 
L 19 54.6875 
L 32.625 16.890625 
L 46.1875 54.6875 
L 63.71875 54.6875 
L 42.1875 0 
L 23 0 
z
" id="DejaVuSans-Bold-118"/>
      <path d="M 32.90625 24.609375 
Q 27.4375 24.609375 24.671875 22.75 
Q 21.921875 20.90625 21.921875 17.28125 
Q 21.921875 13.96875 24.140625 12.078125 
Q 26.375 10.203125 30.328125 10.203125 
Q 35.25 10.203125 38.625 13.734375 
Q 42 17.28125 42 22.609375 
L 42 24.609375 
z
M 59.625 31.203125 
L 59.625 0 
L 42 0 
L 42 8.109375 
Q 38.484375 3.125 34.078125 0.84375 
Q 29.6875 -1.421875 23.390625 -1.421875 
Q 14.890625 -1.421875 9.59375 3.53125 
Q 4.296875 8.5 4.296875 16.40625 
Q 4.296875 26.03125 10.90625 30.515625 
Q 17.53125 35.015625 31.6875 35.015625 
L 42 35.015625 
L 42 36.375 
Q 42 40.53125 38.71875 42.453125 
Q 35.453125 44.390625 28.515625 44.390625 
Q 22.90625 44.390625 18.0625 43.265625 
Q 13.234375 42.140625 9.078125 39.890625 
L 9.078125 53.21875 
Q 14.703125 54.59375 20.359375 55.296875 
Q 26.03125 56 31.6875 56 
Q 46.484375 56 53.046875 50.171875 
Q 59.625 44.34375 59.625 31.203125 
z
" id="DejaVuSans-Bold-97"/>
      <path d="M 8.40625 75.984375 
L 25.875 75.984375 
L 25.875 0 
L 8.40625 0 
z
" id="DejaVuSans-Bold-108"/>
      <path d="M 7.8125 21.296875 
L 7.8125 54.6875 
L 25.390625 54.6875 
L 25.390625 49.21875 
Q 25.390625 44.78125 25.34375 38.0625 
Q 25.296875 31.34375 25.296875 29.109375 
Q 25.296875 22.515625 25.640625 19.609375 
Q 25.984375 16.703125 26.8125 15.375 
Q 27.875 13.671875 29.609375 12.734375 
Q 31.34375 11.8125 33.59375 11.8125 
Q 39.0625 11.8125 42.1875 16.015625 
Q 45.3125 20.21875 45.3125 27.6875 
L 45.3125 54.6875 
L 62.796875 54.6875 
L 62.796875 0 
L 45.3125 0 
L 45.3125 7.90625 
Q 41.359375 3.125 36.9375 0.84375 
Q 32.515625 -1.421875 27.203125 -1.421875 
Q 17.71875 -1.421875 12.765625 4.390625 
Q 7.8125 10.203125 7.8125 21.296875 
z
" id="DejaVuSans-Bold-117"/>
      <path d="M 62.984375 27.484375 
L 62.984375 22.515625 
L 22.125 22.515625 
Q 22.75 16.359375 26.5625 13.28125 
Q 30.375 10.203125 37.203125 10.203125 
Q 42.71875 10.203125 48.5 11.84375 
Q 54.296875 13.484375 60.40625 16.796875 
L 60.40625 3.328125 
Q 54.203125 0.984375 48 -0.21875 
Q 41.796875 -1.421875 35.59375 -1.421875 
Q 20.75 -1.421875 12.515625 6.125 
Q 4.296875 13.671875 4.296875 27.296875 
Q 4.296875 40.671875 12.375 48.328125 
Q 20.453125 56 34.625 56 
Q 47.515625 56 55.25 48.234375 
Q 62.984375 40.484375 62.984375 27.484375 
z
M 45.015625 33.296875 
Q 45.015625 38.28125 42.109375 41.328125 
Q 39.203125 44.390625 34.515625 44.390625 
Q 29.4375 44.390625 26.265625 41.53125 
Q 23.09375 38.671875 22.3125 33.296875 
z
" id="DejaVuSans-Bold-101"/>
     </defs>
     <g style="fill:#333333;" transform="translate(17.445816 123.007258)rotate(-90)scale(0.1 -0.1)">
      <use xlink:href="#DejaVuSans-Bold-118"/>
      <use x="65.185547" xlink:href="#DejaVuSans-Bold-97"/>
      <use x="132.666016" xlink:href="#DejaVuSans-Bold-108"/>
      <use x="166.943359" xlink:href="#DejaVuSans-Bold-117"/>
      <use x="238.134766" xlink:href="#DejaVuSans-Bold-101"/>
     </g>
    </g>
   </g>
   <g id="line2d_27">
    <path clip-path="url(#p6bfc0656ea)" d="M 48.105708 83.297943 
L 52.589554 108.916153 
L 57.0734 77.933918 
L 61.557245 132.480869 
L 66.041091 70.804384 
L 70.524937 132.679296 
L 75.008783 100.615473 
L 79.492629 102.193216 
L 83.976475 109.028553 
L 88.460321 107.991865 
L 92.944166 106.561512 
L 97.428012 103.43496 
L 101.911858 96.677579 
L 106.395704 97.286235 
L 110.87955 113.03873 
L 115.363396 115.989413 
L 119.847242 98.764293 
L 124.331088 59.783225 
L 128.814933 94.598467 
L 133.298779 76.579507 
L 137.782625 135.978169 
L 142.266471 109.775432 
L 146.750317 111.245096 
L 151.234163 102.954788 
L 155.718009 104.896082 
L 160.201854 119.941268 
L 164.6857 64.811708 
L 169.169546 66.741355 
L 173.653392 99.237268 
L 178.137238 114.04888 
L 182.621084 98.800883 
L 187.10493 91.331639 
L 191.588776 133.416685 
L 196.072621 127.911106 
L 200.556467 140.196484 
L 205.040313 111.206486 
L 209.524159 103.778856 
L 214.008005 146.362555 
L 218.491851 66.956308 
L 222.975697 87.188164 
L 227.459542 70.634148 
L 231.943388 73.381107 
L 236.427234 55.564182 
L 240.91108 124.307293 
L 245.394926 127.21397 
L 249.878772 131.931527 
L 254.362618 123.099466 
L 258.846464 105.997938 
L 263.330309 83.339031 
L 267.814155 114.073525 
L 272.298001 115.74487 
L 276.781847 77.718184 
L 281.265693 91.834495 
L 285.749539 50.935371 
L 290.233385 40.629128 
L 294.71723 69.782673 
L 299.201076 77.968575 
L 303.684922 102.928196 
L 308.168768 127.48934 
L 312.652614 91.679464 
L 317.13646 107.020124 
L 321.620306 101.130773 
L 326.104152 97.928044 
L 330.587997 114.840671 
L 335.071843 108.685495 
L 339.555689 78.298661 
L 344.039535 90.544444 
L 348.523381 67.663862 
L 353.007227 108.232117 
L 357.491073 130.308783 
L 361.974918 123.131004 
L 366.458764 126.9978 
L 370.94261 115.579875 
L 375.426456 125.963976 
L 379.910302 87.415029 
L 384.394148 102.485726 
L 388.877994 99.86205 
L 393.361839 71.635223 
L 397.845685 68.475398 
L 402.329531 48.650221 
L 406.813377 90.634544 
L 411.297223 117.349027 
L 415.781069 134.250076 
L 420.264915 141.565264 
L 424.748761 144.677788 
L 429.232606 156.306553 
L 433.716452 160.460913 
L 438.200298 156.268487 
L 442.684144 123.112123 
L 447.16799 97.076553 
L 451.651836 60.342837 
L 456.135682 30.080916 
L 460.619527 121.244938 
L 465.103373 92.672912 
L 469.587219 115.254779 
L 474.071065 127.933997 
L 478.554911 91.506537 
L 483.038757 99.142531 
L 487.522603 73.895078 
L 492.006449 88.103529 
L 496.490294 80.538888 
L 500.97414 128.036546 
L 505.457986 71.09071 
L 509.941832 68.090241 
L 514.425678 72.983589 
L 518.909524 102.466556 
L 523.39337 99.304274 
L 527.877215 75.970035 
L 532.361061 105.148311 
L 536.844907 122.333329 
L 541.328753 185.336726 
L 545.812599 53.901883 
L 550.296445 88.54998 
L 554.780291 77.356082 
L 559.264137 54.809917 
L 563.747982 115.393629 
L 568.231828 109.517557 
L 572.715674 89.940766 
L 577.19952 146.4786 
" style="fill:none;stroke:#000000;stroke-linecap:square;stroke-width:1.3;"/>
   </g>
   <g id="text_20">
    <!-- Residual values -->
    <defs>
     <path d="M 44.390625 34.1875 
Q 47.5625 33.109375 50.5625 29.59375 
Q 53.5625 26.078125 56.59375 19.921875 
L 66.609375 0 
L 56 0 
L 46.6875 18.703125 
Q 43.0625 26.03125 39.671875 28.421875 
Q 36.28125 30.8125 30.421875 30.8125 
L 19.671875 30.8125 
L 19.671875 0 
L 9.8125 0 
L 9.8125 72.90625 
L 32.078125 72.90625 
Q 44.578125 72.90625 50.734375 67.671875 
Q 56.890625 62.453125 56.890625 51.90625 
Q 56.890625 45.015625 53.6875 40.46875 
Q 50.484375 35.9375 44.390625 34.1875 
z
M 19.671875 64.796875 
L 19.671875 38.921875 
L 32.078125 38.921875 
Q 39.203125 38.921875 42.84375 42.21875 
Q 46.484375 45.515625 46.484375 51.90625 
Q 46.484375 58.296875 42.84375 61.546875 
Q 39.203125 64.796875 32.078125 64.796875 
z
" id="DejaVuSans-82"/>
     <path d="M 56.203125 29.59375 
L 56.203125 25.203125 
L 14.890625 25.203125 
Q 15.484375 15.921875 20.484375 11.0625 
Q 25.484375 6.203125 34.421875 6.203125 
Q 39.59375 6.203125 44.453125 7.46875 
Q 49.3125 8.734375 54.109375 11.28125 
L 54.109375 2.78125 
Q 49.265625 0.734375 44.1875 -0.34375 
Q 39.109375 -1.421875 33.890625 -1.421875 
Q 20.796875 -1.421875 13.15625 6.1875 
Q 5.515625 13.8125 5.515625 26.8125 
Q 5.515625 40.234375 12.765625 48.109375 
Q 20.015625 56 32.328125 56 
Q 43.359375 56 49.78125 48.890625 
Q 56.203125 41.796875 56.203125 29.59375 
z
M 47.21875 32.234375 
Q 47.125 39.59375 43.09375 43.984375 
Q 39.0625 48.390625 32.421875 48.390625 
Q 24.90625 48.390625 20.390625 44.140625 
Q 15.875 39.890625 15.1875 32.171875 
z
" id="DejaVuSans-101"/>
     <path d="M 44.28125 53.078125 
L 44.28125 44.578125 
Q 40.484375 46.53125 36.375 47.5 
Q 32.28125 48.484375 27.875 48.484375 
Q 21.1875 48.484375 17.84375 46.4375 
Q 14.5 44.390625 14.5 40.28125 
Q 14.5 37.15625 16.890625 35.375 
Q 19.28125 33.59375 26.515625 31.984375 
L 29.59375 31.296875 
Q 39.15625 29.25 43.1875 25.515625 
Q 47.21875 21.78125 47.21875 15.09375 
Q 47.21875 7.46875 41.1875 3.015625 
Q 35.15625 -1.421875 24.609375 -1.421875 
Q 20.21875 -1.421875 15.453125 -0.5625 
Q 10.6875 0.296875 5.421875 2 
L 5.421875 11.28125 
Q 10.40625 8.6875 15.234375 7.390625 
Q 20.0625 6.109375 24.8125 6.109375 
Q 31.15625 6.109375 34.5625 8.28125 
Q 37.984375 10.453125 37.984375 14.40625 
Q 37.984375 18.0625 35.515625 20.015625 
Q 33.0625 21.96875 24.703125 23.78125 
L 21.578125 24.515625 
Q 13.234375 26.265625 9.515625 29.90625 
Q 5.8125 33.546875 5.8125 39.890625 
Q 5.8125 47.609375 11.28125 51.796875 
Q 16.75 56 26.8125 56 
Q 31.78125 56 36.171875 55.265625 
Q 40.578125 54.546875 44.28125 53.078125 
z
" id="DejaVuSans-115"/>
     <path d="M 9.421875 54.6875 
L 18.40625 54.6875 
L 18.40625 0 
L 9.421875 0 
z
M 9.421875 75.984375 
L 18.40625 75.984375 
L 18.40625 64.59375 
L 9.421875 64.59375 
z
" id="DejaVuSans-105"/>
     <path d="M 45.40625 46.390625 
L 45.40625 75.984375 
L 54.390625 75.984375 
L 54.390625 0 
L 45.40625 0 
L 45.40625 8.203125 
Q 42.578125 3.328125 38.25 0.953125 
Q 33.9375 -1.421875 27.875 -1.421875 
Q 17.96875 -1.421875 11.734375 6.484375 
Q 5.515625 14.40625 5.515625 27.296875 
Q 5.515625 40.1875 11.734375 48.09375 
Q 17.96875 56 27.875 56 
Q 33.9375 56 38.25 53.625 
Q 42.578125 51.265625 45.40625 46.390625 
z
M 14.796875 27.296875 
Q 14.796875 17.390625 18.875 11.75 
Q 22.953125 6.109375 30.078125 6.109375 
Q 37.203125 6.109375 41.296875 11.75 
Q 45.40625 17.390625 45.40625 27.296875 
Q 45.40625 37.203125 41.296875 42.84375 
Q 37.203125 48.484375 30.078125 48.484375 
Q 22.953125 48.484375 18.875 42.84375 
Q 14.796875 37.203125 14.796875 27.296875 
z
" id="DejaVuSans-100"/>
     <path d="M 8.5 21.578125 
L 8.5 54.6875 
L 17.484375 54.6875 
L 17.484375 21.921875 
Q 17.484375 14.15625 20.5 10.265625 
Q 23.53125 6.390625 29.59375 6.390625 
Q 36.859375 6.390625 41.078125 11.03125 
Q 45.3125 15.671875 45.3125 23.6875 
L 45.3125 54.6875 
L 54.296875 54.6875 
L 54.296875 0 
L 45.3125 0 
L 45.3125 8.40625 
Q 42.046875 3.421875 37.71875 1 
Q 33.40625 -1.421875 27.6875 -1.421875 
Q 18.265625 -1.421875 13.375 4.4375 
Q 8.5 10.296875 8.5 21.578125 
z
M 31.109375 56 
z
" id="DejaVuSans-117"/>
     <path d="M 34.28125 27.484375 
Q 23.390625 27.484375 19.1875 25 
Q 14.984375 22.515625 14.984375 16.5 
Q 14.984375 11.71875 18.140625 8.90625 
Q 21.296875 6.109375 26.703125 6.109375 
Q 34.1875 6.109375 38.703125 11.40625 
Q 43.21875 16.703125 43.21875 25.484375 
L 43.21875 27.484375 
z
M 52.203125 31.203125 
L 52.203125 0 
L 43.21875 0 
L 43.21875 8.296875 
Q 40.140625 3.328125 35.546875 0.953125 
Q 30.953125 -1.421875 24.3125 -1.421875 
Q 15.921875 -1.421875 10.953125 3.296875 
Q 6 8.015625 6 15.921875 
Q 6 25.140625 12.171875 29.828125 
Q 18.359375 34.515625 30.609375 34.515625 
L 43.21875 34.515625 
L 43.21875 35.40625 
Q 43.21875 41.609375 39.140625 45 
Q 35.0625 48.390625 27.6875 48.390625 
Q 23 48.390625 18.546875 47.265625 
Q 14.109375 46.140625 10.015625 43.890625 
L 10.015625 52.203125 
Q 14.9375 54.109375 19.578125 55.046875 
Q 24.21875 56 28.609375 56 
Q 40.484375 56 46.34375 49.84375 
Q 52.203125 43.703125 52.203125 31.203125 
z
" id="DejaVuSans-97"/>
     <path d="M 9.421875 75.984375 
L 18.40625 75.984375 
L 18.40625 0 
L 9.421875 0 
z
" id="DejaVuSans-108"/>
     <path id="DejaVuSans-32"/>
     <path d="M 2.984375 54.6875 
L 12.5 54.6875 
L 29.59375 8.796875 
L 46.6875 54.6875 
L 56.203125 54.6875 
L 35.6875 0 
L 23.484375 0 
z
" id="DejaVuSans-118"/>
    </defs>
    <g transform="translate(265.891989 16.318125)scale(0.12 -0.12)">
     <use xlink:href="#DejaVuSans-82"/>
     <use x="64.982422" xlink:href="#DejaVuSans-101"/>
     <use x="126.505859" xlink:href="#DejaVuSans-115"/>
     <use x="178.605469" xlink:href="#DejaVuSans-105"/>
     <use x="206.388672" xlink:href="#DejaVuSans-100"/>
     <use x="269.865234" xlink:href="#DejaVuSans-117"/>
     <use x="333.244141" xlink:href="#DejaVuSans-97"/>
     <use x="394.523438" xlink:href="#DejaVuSans-108"/>
     <use x="422.306641" xlink:href="#DejaVuSans-32"/>
     <use x="454.09375" xlink:href="#DejaVuSans-118"/>
     <use x="513.273438" xlink:href="#DejaVuSans-97"/>
     <use x="574.552734" xlink:href="#DejaVuSans-108"/>
     <use x="602.335938" xlink:href="#DejaVuSans-117"/>
     <use x="665.714844" xlink:href="#DejaVuSans-101"/>
     <use x="727.238281" xlink:href="#DejaVuSans-115"/>
    </g>
   </g>
  </g>
  <g id="axes_2">
   <g id="patch_3">
    <path d="M 334.171879 404.381392 
L 577.19952 404.381392 
L 577.19952 233.6 
L 334.171879 233.6 
z
" style="fill:#ffffff;"/>
   </g>
   <g id="patch_4">
    <path clip-path="url(#p164b198596)" d="M 345.21859 404.381392 
L 356.265301 404.381392 
L 356.265301 393.538129 
L 345.21859 393.538129 
z
"/>
   </g>
   <g id="patch_5">
    <path clip-path="url(#p164b198596)" d="M 356.265301 404.381392 
L 367.312012 404.381392 
L 367.312012 404.381392 
L 356.265301 404.381392 
z
"/>
   </g>
   <g id="patch_6">
    <path clip-path="url(#p164b198596)" d="M 367.312012 404.381392 
L 378.358723 404.381392 
L 378.358723 404.381392 
L 367.312012 404.381392 
z
"/>
   </g>
   <g id="patch_7">
    <path clip-path="url(#p164b198596)" d="M 378.358723 404.381392 
L 389.405434 404.381392 
L 389.405434 371.851603 
L 378.358723 371.851603 
z
"/>
   </g>
   <g id="patch_8">
    <path clip-path="url(#p164b198596)" d="M 389.405434 404.381392 
L 400.452145 404.381392 
L 400.452145 404.381392 
L 389.405434 404.381392 
z
"/>
   </g>
   <g id="patch_9">
    <path clip-path="url(#p164b198596)" d="M 400.452145 404.381392 
L 411.498856 404.381392 
L 411.498856 350.165077 
L 400.452145 350.165077 
z
"/>
   </g>
   <g id="patch_10">
    <path clip-path="url(#p164b198596)" d="M 411.498856 404.381392 
L 422.545567 404.381392 
L 422.545567 339.321814 
L 411.498856 339.321814 
z
"/>
   </g>
   <g id="patch_11">
    <path clip-path="url(#p164b198596)" d="M 422.545567 404.381392 
L 433.592278 404.381392 
L 433.592278 306.792025 
L 422.545567 306.792025 
z
"/>
   </g>
   <g id="patch_12">
    <path clip-path="url(#p164b198596)" d="M 433.592278 404.381392 
L 444.638988 404.381392 
L 444.638988 295.948762 
L 433.592278 295.948762 
z
"/>
   </g>
   <g id="patch_13">
    <path clip-path="url(#p164b198596)" d="M 444.638988 404.381392 
L 455.685699 404.381392 
L 455.685699 241.732447 
L 444.638988 241.732447 
z
"/>
   </g>
   <g id="patch_14">
    <path clip-path="url(#p164b198596)" d="M 455.685699 404.381392 
L 466.73241 404.381392 
L 466.73241 252.57571 
L 455.685699 252.57571 
z
"/>
   </g>
   <g id="patch_15">
    <path clip-path="url(#p164b198596)" d="M 466.73241 404.381392 
L 477.779121 404.381392 
L 477.779121 274.262236 
L 466.73241 274.262236 
z
"/>
   </g>
   <g id="patch_16">
    <path clip-path="url(#p164b198596)" d="M 477.779121 404.381392 
L 488.825832 404.381392 
L 488.825832 285.105499 
L 477.779121 285.105499 
z
"/>
   </g>
   <g id="patch_17">
    <path clip-path="url(#p164b198596)" d="M 488.825832 404.381392 
L 499.872543 404.381392 
L 499.872543 317.635288 
L 488.825832 317.635288 
z
"/>
   </g>
   <g id="patch_18">
    <path clip-path="url(#p164b198596)" d="M 499.872543 404.381392 
L 510.919254 404.381392 
L 510.919254 295.948762 
L 499.872543 295.948762 
z
"/>
   </g>
   <g id="patch_19">
    <path clip-path="url(#p164b198596)" d="M 510.919254 404.381392 
L 521.965965 404.381392 
L 521.965965 339.321814 
L 510.919254 339.321814 
z
"/>
   </g>
   <g id="patch_20">
    <path clip-path="url(#p164b198596)" d="M 521.965965 404.381392 
L 533.012676 404.381392 
L 533.012676 350.165077 
L 521.965965 350.165077 
z
"/>
   </g>
   <g id="patch_21">
    <path clip-path="url(#p164b198596)" d="M 533.012676 404.381392 
L 544.059387 404.381392 
L 544.059387 382.694866 
L 533.012676 382.694866 
z
"/>
   </g>
   <g id="patch_22">
    <path clip-path="url(#p164b198596)" d="M 544.059387 404.381392 
L 555.106098 404.381392 
L 555.106098 393.538129 
L 544.059387 393.538129 
z
"/>
   </g>
   <g id="patch_23">
    <path clip-path="url(#p164b198596)" d="M 555.106098 404.381392 
L 566.152809 404.381392 
L 566.152809 393.538129 
L 555.106098 393.538129 
z
"/>
   </g>
   <g id="matplotlib.axis_3">
    <g id="xtick_41">
     <g id="line2d_28">
      <path clip-path="url(#p164b198596)" d="M 345.251617 404.381392 
L 345.251617 233.6 
" style="fill:none;stroke:#dedede;stroke-linecap:square;stroke-width:0.8;"/>
     </g>
     <g id="text_21">
      <!-- −40 -->
      <g style="fill:#333333;" transform="translate(336.461514 417.71089)scale(0.0833 -0.0833)">
       <use xlink:href="#DejaVuSans-8722"/>
       <use x="83.789062" xlink:href="#DejaVuSans-52"/>
       <use x="147.412109" xlink:href="#DejaVuSans-48"/>
      </g>
     </g>
    </g>
    <g id="xtick_42">
     <g id="line2d_29">
      <path clip-path="url(#p164b198596)" d="M 374.372807 404.381392 
L 374.372807 233.6 
" style="fill:none;stroke:#dedede;stroke-linecap:square;stroke-width:0.8;"/>
     </g>
     <g id="text_22">
      <!-- −30 -->
      <g style="fill:#333333;" transform="translate(365.582705 417.71089)scale(0.0833 -0.0833)">
       <use xlink:href="#DejaVuSans-8722"/>
       <use x="83.789062" xlink:href="#DejaVuSans-51"/>
       <use x="147.412109" xlink:href="#DejaVuSans-48"/>
      </g>
     </g>
    </g>
    <g id="xtick_43">
     <g id="line2d_30">
      <path clip-path="url(#p164b198596)" d="M 403.493998 404.381392 
L 403.493998 233.6 
" style="fill:none;stroke:#dedede;stroke-linecap:square;stroke-width:0.8;"/>
     </g>
     <g id="text_23">
      <!-- −20 -->
      <g style="fill:#333333;" transform="translate(394.703896 417.71089)scale(0.0833 -0.0833)">
       <use xlink:href="#DejaVuSans-8722"/>
       <use x="83.789062" xlink:href="#DejaVuSans-50"/>
       <use x="147.412109" xlink:href="#DejaVuSans-48"/>
      </g>
     </g>
    </g>
    <g id="xtick_44">
     <g id="line2d_31">
      <path clip-path="url(#p164b198596)" d="M 432.615189 404.381392 
L 432.615189 233.6 
" style="fill:none;stroke:#dedede;stroke-linecap:square;stroke-width:0.8;"/>
     </g>
     <g id="text_24">
      <!-- −10 -->
      <g style="fill:#333333;" transform="translate(423.825087 417.71089)scale(0.0833 -0.0833)">
       <use xlink:href="#DejaVuSans-8722"/>
       <use x="83.789062" xlink:href="#DejaVuSans-49"/>
       <use x="147.412109" xlink:href="#DejaVuSans-48"/>
      </g>
     </g>
    </g>
    <g id="xtick_45">
     <g id="line2d_32">
      <path clip-path="url(#p164b198596)" d="M 461.73638 404.381392 
L 461.73638 233.6 
" style="fill:none;stroke:#dedede;stroke-linecap:square;stroke-width:0.8;"/>
     </g>
     <g id="text_25">
      <!-- 0 -->
      <g style="fill:#333333;" transform="translate(459.086398 417.71089)scale(0.0833 -0.0833)">
       <use xlink:href="#DejaVuSans-48"/>
      </g>
     </g>
    </g>
    <g id="xtick_46">
     <g id="line2d_33">
      <path clip-path="url(#p164b198596)" d="M 490.857571 404.381392 
L 490.857571 233.6 
" style="fill:none;stroke:#dedede;stroke-linecap:square;stroke-width:0.8;"/>
     </g>
     <g id="text_26">
      <!-- 10 -->
      <g style="fill:#333333;" transform="translate(485.557608 417.71089)scale(0.0833 -0.0833)">
       <use xlink:href="#DejaVuSans-49"/>
       <use x="63.623047" xlink:href="#DejaVuSans-48"/>
      </g>
     </g>
    </g>
    <g id="xtick_47">
     <g id="line2d_34">
      <path clip-path="url(#p164b198596)" d="M 519.978761 404.381392 
L 519.978761 233.6 
" style="fill:none;stroke:#dedede;stroke-linecap:square;stroke-width:0.8;"/>
     </g>
     <g id="text_27">
      <!-- 20 -->
      <g style="fill:#333333;" transform="translate(514.678799 417.71089)scale(0.0833 -0.0833)">
       <use xlink:href="#DejaVuSans-50"/>
       <use x="63.623047" xlink:href="#DejaVuSans-48"/>
      </g>
     </g>
    </g>
    <g id="xtick_48">
     <g id="line2d_35">
      <path clip-path="url(#p164b198596)" d="M 549.099952 404.381392 
L 549.099952 233.6 
" style="fill:none;stroke:#dedede;stroke-linecap:square;stroke-width:0.8;"/>
     </g>
     <g id="text_28">
      <!-- 30 -->
      <g style="fill:#333333;" transform="translate(543.79999 417.71089)scale(0.0833 -0.0833)">
       <use xlink:href="#DejaVuSans-51"/>
       <use x="63.623047" xlink:href="#DejaVuSans-48"/>
      </g>
     </g>
    </g>
    <g id="text_29">
     <!-- value -->
     <g style="fill:#333333;" transform="translate(440.387262 431.041707)scale(0.1 -0.1)">
      <use xlink:href="#DejaVuSans-Bold-118"/>
      <use x="65.185547" xlink:href="#DejaVuSans-Bold-97"/>
      <use x="132.666016" xlink:href="#DejaVuSans-Bold-108"/>
      <use x="166.943359" xlink:href="#DejaVuSans-Bold-117"/>
      <use x="238.134766" xlink:href="#DejaVuSans-Bold-101"/>
     </g>
    </g>
   </g>
   <g id="matplotlib.axis_4">
    <g id="ytick_9">
     <g id="line2d_36">
      <path clip-path="url(#p164b198596)" d="M 334.171879 404.381392 
L 577.19952 404.381392 
" style="fill:none;stroke:#dedede;stroke-linecap:square;stroke-width:0.8;"/>
     </g>
     <g id="line2d_37">
      <g>
       <use style="fill:#333333;stroke:#333333;stroke-width:0.8;" x="334.171879" xlink:href="#m1f544129e4" y="404.381392"/>
      </g>
     </g>
     <g id="text_30">
      <!-- 0 -->
      <g style="fill:#333333;" transform="translate(321.871916 407.546141)scale(0.0833 -0.0833)">
       <use xlink:href="#DejaVuSans-48"/>
      </g>
     </g>
    </g>
    <g id="ytick_10">
     <g id="line2d_38">
      <path clip-path="url(#p164b198596)" d="M 334.171879 382.694866 
L 577.19952 382.694866 
" style="fill:none;stroke:#dedede;stroke-linecap:square;stroke-width:0.8;"/>
     </g>
     <g id="line2d_39">
      <g>
       <use style="fill:#333333;stroke:#333333;stroke-width:0.8;" x="334.171879" xlink:href="#m1f544129e4" y="382.694866"/>
      </g>
     </g>
     <g id="text_31">
      <!-- 2 -->
      <g style="fill:#333333;" transform="translate(321.871916 385.859615)scale(0.0833 -0.0833)">
       <use xlink:href="#DejaVuSans-50"/>
      </g>
     </g>
    </g>
    <g id="ytick_11">
     <g id="line2d_40">
      <path clip-path="url(#p164b198596)" d="M 334.171879 361.00834 
L 577.19952 361.00834 
" style="fill:none;stroke:#dedede;stroke-linecap:square;stroke-width:0.8;"/>
     </g>
     <g id="line2d_41">
      <g>
       <use style="fill:#333333;stroke:#333333;stroke-width:0.8;" x="334.171879" xlink:href="#m1f544129e4" y="361.00834"/>
      </g>
     </g>
     <g id="text_32">
      <!-- 4 -->
      <g style="fill:#333333;" transform="translate(321.871916 364.173089)scale(0.0833 -0.0833)">
       <use xlink:href="#DejaVuSans-52"/>
      </g>
     </g>
    </g>
    <g id="ytick_12">
     <g id="line2d_42">
      <path clip-path="url(#p164b198596)" d="M 334.171879 339.321814 
L 577.19952 339.321814 
" style="fill:none;stroke:#dedede;stroke-linecap:square;stroke-width:0.8;"/>
     </g>
     <g id="line2d_43">
      <g>
       <use style="fill:#333333;stroke:#333333;stroke-width:0.8;" x="334.171879" xlink:href="#m1f544129e4" y="339.321814"/>
      </g>
     </g>
     <g id="text_33">
      <!-- 6 -->
      <g style="fill:#333333;" transform="translate(321.871916 342.486563)scale(0.0833 -0.0833)">
       <use xlink:href="#DejaVuSans-54"/>
      </g>
     </g>
    </g>
    <g id="ytick_13">
     <g id="line2d_44">
      <path clip-path="url(#p164b198596)" d="M 334.171879 317.635288 
L 577.19952 317.635288 
" style="fill:none;stroke:#dedede;stroke-linecap:square;stroke-width:0.8;"/>
     </g>
     <g id="line2d_45">
      <g>
       <use style="fill:#333333;stroke:#333333;stroke-width:0.8;" x="334.171879" xlink:href="#m1f544129e4" y="317.635288"/>
      </g>
     </g>
     <g id="text_34">
      <!-- 8 -->
      <g style="fill:#333333;" transform="translate(321.871916 320.800037)scale(0.0833 -0.0833)">
       <use xlink:href="#DejaVuSans-56"/>
      </g>
     </g>
    </g>
    <g id="ytick_14">
     <g id="line2d_46">
      <path clip-path="url(#p164b198596)" d="M 334.171879 295.948762 
L 577.19952 295.948762 
" style="fill:none;stroke:#dedede;stroke-linecap:square;stroke-width:0.8;"/>
     </g>
     <g id="line2d_47">
      <g>
       <use style="fill:#333333;stroke:#333333;stroke-width:0.8;" x="334.171879" xlink:href="#m1f544129e4" y="295.948762"/>
      </g>
     </g>
     <g id="text_35">
      <!-- 10 -->
      <g style="fill:#333333;" transform="translate(316.571954 299.113511)scale(0.0833 -0.0833)">
       <use xlink:href="#DejaVuSans-49"/>
       <use x="63.623047" xlink:href="#DejaVuSans-48"/>
      </g>
     </g>
    </g>
    <g id="ytick_15">
     <g id="line2d_48">
      <path clip-path="url(#p164b198596)" d="M 334.171879 274.262236 
L 577.19952 274.262236 
" style="fill:none;stroke:#dedede;stroke-linecap:square;stroke-width:0.8;"/>
     </g>
     <g id="line2d_49">
      <g>
       <use style="fill:#333333;stroke:#333333;stroke-width:0.8;" x="334.171879" xlink:href="#m1f544129e4" y="274.262236"/>
      </g>
     </g>
     <g id="text_36">
      <!-- 12 -->
      <g style="fill:#333333;" transform="translate(316.571954 277.426985)scale(0.0833 -0.0833)">
       <use xlink:href="#DejaVuSans-49"/>
       <use x="63.623047" xlink:href="#DejaVuSans-50"/>
      </g>
     </g>
    </g>
    <g id="ytick_16">
     <g id="line2d_50">
      <path clip-path="url(#p164b198596)" d="M 334.171879 252.57571 
L 577.19952 252.57571 
" style="fill:none;stroke:#dedede;stroke-linecap:square;stroke-width:0.8;"/>
     </g>
     <g id="line2d_51">
      <g>
       <use style="fill:#333333;stroke:#333333;stroke-width:0.8;" x="334.171879" xlink:href="#m1f544129e4" y="252.57571"/>
      </g>
     </g>
     <g id="text_37">
      <!-- 14 -->
      <g style="fill:#333333;" transform="translate(316.571954 255.740459)scale(0.0833 -0.0833)">
       <use xlink:href="#DejaVuSans-49"/>
       <use x="63.623047" xlink:href="#DejaVuSans-52"/>
      </g>
     </g>
    </g>
    <g id="text_38">
     <!-- count -->
     <defs>
      <path d="M 52.59375 52.984375 
L 52.59375 38.71875 
Q 49.03125 41.15625 45.4375 42.328125 
Q 41.84375 43.5 37.984375 43.5 
Q 30.671875 43.5 26.59375 39.234375 
Q 22.515625 34.96875 22.515625 27.296875 
Q 22.515625 19.625 26.59375 15.34375 
Q 30.671875 11.078125 37.984375 11.078125 
Q 42.09375 11.078125 45.78125 12.296875 
Q 49.46875 13.53125 52.59375 15.921875 
L 52.59375 1.609375 
Q 48.484375 0.09375 44.265625 -0.65625 
Q 40.046875 -1.421875 35.796875 -1.421875 
Q 21 -1.421875 12.640625 6.171875 
Q 4.296875 13.765625 4.296875 27.296875 
Q 4.296875 40.828125 12.640625 48.40625 
Q 21 56 35.796875 56 
Q 40.09375 56 44.265625 55.25 
Q 48.4375 54.5 52.59375 52.984375 
z
" id="DejaVuSans-Bold-99"/>
      <path d="M 34.421875 43.5 
Q 28.609375 43.5 25.5625 39.328125 
Q 22.515625 35.15625 22.515625 27.296875 
Q 22.515625 19.4375 25.5625 15.25 
Q 28.609375 11.078125 34.421875 11.078125 
Q 40.140625 11.078125 43.15625 15.25 
Q 46.1875 19.4375 46.1875 27.296875 
Q 46.1875 35.15625 43.15625 39.328125 
Q 40.140625 43.5 34.421875 43.5 
z
M 34.421875 56 
Q 48.53125 56 56.46875 48.375 
Q 64.40625 40.765625 64.40625 27.296875 
Q 64.40625 13.8125 56.46875 6.1875 
Q 48.53125 -1.421875 34.421875 -1.421875 
Q 20.265625 -1.421875 12.28125 6.1875 
Q 4.296875 13.8125 4.296875 27.296875 
Q 4.296875 40.765625 12.28125 48.375 
Q 20.265625 56 34.421875 56 
z
" id="DejaVuSans-Bold-111"/>
      <path d="M 63.375 33.296875 
L 63.375 0 
L 45.796875 0 
L 45.796875 5.421875 
L 45.796875 25.484375 
Q 45.796875 32.5625 45.484375 35.25 
Q 45.171875 37.9375 44.390625 39.203125 
Q 43.359375 40.921875 41.59375 41.875 
Q 39.84375 42.828125 37.59375 42.828125 
Q 32.125 42.828125 29 38.59375 
Q 25.875 34.375 25.875 26.90625 
L 25.875 0 
L 8.40625 0 
L 8.40625 54.6875 
L 25.875 54.6875 
L 25.875 46.6875 
Q 29.828125 51.46875 34.265625 53.734375 
Q 38.71875 56 44.09375 56 
Q 53.5625 56 58.46875 50.1875 
Q 63.375 44.390625 63.375 33.296875 
z
" id="DejaVuSans-Bold-110"/>
      <path d="M 27.484375 70.21875 
L 27.484375 54.6875 
L 45.515625 54.6875 
L 45.515625 42.1875 
L 27.484375 42.1875 
L 27.484375 19 
Q 27.484375 15.1875 29 13.84375 
Q 30.515625 12.5 35.015625 12.5 
L 44 12.5 
L 44 0 
L 29 0 
Q 18.65625 0 14.328125 4.3125 
Q 10.015625 8.640625 10.015625 19 
L 10.015625 42.1875 
L 1.3125 42.1875 
L 1.3125 54.6875 
L 10.015625 54.6875 
L 10.015625 70.21875 
z
" id="DejaVuSans-Bold-116"/>
     </defs>
     <g style="fill:#333333;" transform="translate(310.492266 334.898508)rotate(-90)scale(0.1 -0.1)">
      <use xlink:href="#DejaVuSans-Bold-99"/>
      <use x="59.277344" xlink:href="#DejaVuSans-Bold-111"/>
      <use x="127.978516" xlink:href="#DejaVuSans-Bold-117"/>
      <use x="199.169922" xlink:href="#DejaVuSans-Bold-110"/>
      <use x="270.361328" xlink:href="#DejaVuSans-Bold-116"/>
     </g>
    </g>
   </g>
   <g id="line2d_52">
    <path clip-path="url(#p164b198596)" d="M 345.21859 403.173424 
L 347.450249 402.939518 
L 349.681907 402.666032 
L 351.913566 402.347446 
L 354.145225 401.977694 
L 356.376884 401.550153 
L 358.608543 401.057635 
L 360.840201 400.49239 
L 363.07186 399.84612 
L 365.303519 399.110008 
L 367.535178 398.274754 
L 369.766836 397.330632 
L 371.998495 396.267564 
L 374.230154 395.075203 
L 376.461813 393.743045 
L 378.693472 392.260555 
L 380.92513 390.617311 
L 383.156789 388.803164 
L 385.388448 386.808426 
L 387.620107 384.624062 
L 389.851765 382.2419 
L 392.083424 379.65486 
L 394.315083 376.857175 
L 396.546742 373.844635 
L 398.778401 370.614814 
L 401.010059 367.167305 
L 403.241718 363.503935 
L 405.473377 359.628969 
L 407.705036 355.549289 
L 409.936694 351.274548 
L 412.168353 346.817289 
L 414.400012 342.193022 
L 416.631671 337.420258 
L 418.86333 332.5205 
L 421.094988 327.518167 
L 423.326647 322.440482 
L 425.558306 317.317285 
L 427.789965 312.180801 
L 430.021623 307.065349 
L 432.253282 302.006992 
L 434.484941 297.043149 
L 436.7166 292.212151 
L 438.948259 287.552766 
L 441.179917 283.103695 
L 443.411576 278.903042 
L 445.643235 274.987777 
L 447.874894 271.393201 
L 450.106553 268.152415 
L 452.338211 265.295813 
L 454.56987 262.850614 
L 456.801529 260.840424 
L 459.033188 259.284859 
L 461.264846 258.199228 
L 463.496505 257.594281 
L 465.728164 257.47603 
L 467.959823 257.845654 
L 470.191482 258.699473 
L 472.42314 260.029016 
L 474.654799 261.821156 
L 476.886458 264.058327 
L 479.118117 266.718812 
L 481.349775 269.777092 
L 483.581434 273.204255 
L 485.813093 276.968448 
L 488.044752 281.035373 
L 490.276411 285.3688 
L 492.508069 289.931108 
L 494.739728 294.683818 
L 496.971387 299.588131 
L 499.203046 304.605441 
L 501.434704 309.697831 
L 503.666363 314.828529 
L 505.898022 319.962323 
L 508.129681 325.065936 
L 510.36134 330.108339 
L 512.592998 335.061015 
L 514.824657 339.898168 
L 517.056316 344.596871 
L 519.287975 349.137158 
L 521.519633 353.502067 
L 523.751292 357.677625 
L 525.982951 361.652792 
L 528.21461 365.419359 
L 530.446269 368.971815 
L 532.677927 372.307175 
L 534.909586 375.424792 
L 537.141245 378.326141 
L 539.372904 381.014598 
L 541.604562 383.495203 
L 543.836221 385.774431 
L 546.06788 387.859953 
L 548.299539 389.760411 
L 550.531198 391.485205 
L 552.762856 393.044283 
L 554.994515 394.447956 
L 557.226174 395.706724 
L 559.457833 396.831123 
L 561.689491 397.83159 
L 563.92115 398.718346 
L 566.152809 399.501298 
" style="fill:none;stroke:#003dfd;stroke-linecap:square;stroke-width:1.3;"/>
   </g>
   <g id="text_39">
    <!-- Distribution -->
    <defs>
     <path d="M 19.671875 64.796875 
L 19.671875 8.109375 
L 31.59375 8.109375 
Q 46.6875 8.109375 53.6875 14.9375 
Q 60.6875 21.78125 60.6875 36.53125 
Q 60.6875 51.171875 53.6875 57.984375 
Q 46.6875 64.796875 31.59375 64.796875 
z
M 9.8125 72.90625 
L 30.078125 72.90625 
Q 51.265625 72.90625 61.171875 64.09375 
Q 71.09375 55.28125 71.09375 36.53125 
Q 71.09375 17.671875 61.125 8.828125 
Q 51.171875 0 30.078125 0 
L 9.8125 0 
z
" id="DejaVuSans-68"/>
     <path d="M 18.3125 70.21875 
L 18.3125 54.6875 
L 36.8125 54.6875 
L 36.8125 47.703125 
L 18.3125 47.703125 
L 18.3125 18.015625 
Q 18.3125 11.328125 20.140625 9.421875 
Q 21.96875 7.515625 27.59375 7.515625 
L 36.8125 7.515625 
L 36.8125 0 
L 27.59375 0 
Q 17.1875 0 13.234375 3.875 
Q 9.28125 7.765625 9.28125 18.015625 
L 9.28125 47.703125 
L 2.6875 47.703125 
L 2.6875 54.6875 
L 9.28125 54.6875 
L 9.28125 70.21875 
z
" id="DejaVuSans-116"/>
     <path d="M 41.109375 46.296875 
Q 39.59375 47.171875 37.8125 47.578125 
Q 36.03125 48 33.890625 48 
Q 26.265625 48 22.1875 43.046875 
Q 18.109375 38.09375 18.109375 28.8125 
L 18.109375 0 
L 9.078125 0 
L 9.078125 54.6875 
L 18.109375 54.6875 
L 18.109375 46.1875 
Q 20.953125 51.171875 25.484375 53.578125 
Q 30.03125 56 36.53125 56 
Q 37.453125 56 38.578125 55.875 
Q 39.703125 55.765625 41.0625 55.515625 
z
" id="DejaVuSans-114"/>
     <path d="M 48.6875 27.296875 
Q 48.6875 37.203125 44.609375 42.84375 
Q 40.53125 48.484375 33.40625 48.484375 
Q 26.265625 48.484375 22.1875 42.84375 
Q 18.109375 37.203125 18.109375 27.296875 
Q 18.109375 17.390625 22.1875 11.75 
Q 26.265625 6.109375 33.40625 6.109375 
Q 40.53125 6.109375 44.609375 11.75 
Q 48.6875 17.390625 48.6875 27.296875 
z
M 18.109375 46.390625 
Q 20.953125 51.265625 25.265625 53.625 
Q 29.59375 56 35.59375 56 
Q 45.5625 56 51.78125 48.09375 
Q 58.015625 40.1875 58.015625 27.296875 
Q 58.015625 14.40625 51.78125 6.484375 
Q 45.5625 -1.421875 35.59375 -1.421875 
Q 29.59375 -1.421875 25.265625 0.953125 
Q 20.953125 3.328125 18.109375 8.203125 
L 18.109375 0 
L 9.078125 0 
L 9.078125 75.984375 
L 18.109375 75.984375 
z
" id="DejaVuSans-98"/>
     <path d="M 30.609375 48.390625 
Q 23.390625 48.390625 19.1875 42.75 
Q 14.984375 37.109375 14.984375 27.296875 
Q 14.984375 17.484375 19.15625 11.84375 
Q 23.34375 6.203125 30.609375 6.203125 
Q 37.796875 6.203125 41.984375 11.859375 
Q 46.1875 17.53125 46.1875 27.296875 
Q 46.1875 37.015625 41.984375 42.703125 
Q 37.796875 48.390625 30.609375 48.390625 
z
M 30.609375 56 
Q 42.328125 56 49.015625 48.375 
Q 55.71875 40.765625 55.71875 27.296875 
Q 55.71875 13.875 49.015625 6.21875 
Q 42.328125 -1.421875 30.609375 -1.421875 
Q 18.84375 -1.421875 12.171875 6.21875 
Q 5.515625 13.875 5.515625 27.296875 
Q 5.515625 40.765625 12.171875 48.375 
Q 18.84375 56 30.609375 56 
z
" id="DejaVuSans-111"/>
     <path d="M 54.890625 33.015625 
L 54.890625 0 
L 45.90625 0 
L 45.90625 32.71875 
Q 45.90625 40.484375 42.875 44.328125 
Q 39.84375 48.1875 33.796875 48.1875 
Q 26.515625 48.1875 22.3125 43.546875 
Q 18.109375 38.921875 18.109375 30.90625 
L 18.109375 0 
L 9.078125 0 
L 9.078125 54.6875 
L 18.109375 54.6875 
L 18.109375 46.1875 
Q 21.34375 51.125 25.703125 53.5625 
Q 30.078125 56 35.796875 56 
Q 45.21875 56 50.046875 50.171875 
Q 54.890625 44.34375 54.890625 33.015625 
z
" id="DejaVuSans-110"/>
    </defs>
    <g transform="translate(420.683199 227.6)scale(0.12 -0.12)">
     <use xlink:href="#DejaVuSans-68"/>
     <use x="77.001953" xlink:href="#DejaVuSans-105"/>
     <use x="104.785156" xlink:href="#DejaVuSans-115"/>
     <use x="156.884766" xlink:href="#DejaVuSans-116"/>
     <use x="196.09375" xlink:href="#DejaVuSans-114"/>
     <use x="237.207031" xlink:href="#DejaVuSans-105"/>
     <use x="264.990234" xlink:href="#DejaVuSans-98"/>
     <use x="328.466797" xlink:href="#DejaVuSans-117"/>
     <use x="391.845703" xlink:href="#DejaVuSans-116"/>
     <use x="431.054688" xlink:href="#DejaVuSans-105"/>
     <use x="458.837891" xlink:href="#DejaVuSans-111"/>
     <use x="520.019531" xlink:href="#DejaVuSans-110"/>
    </g>
   </g>
  </g>
  <g id="axes_3">
   <g id="patch_24">
    <path d="M 48.105708 404.381392 
L 291.133349 404.381392 
L 291.133349 233.6 
L 48.105708 233.6 
z
" style="fill:#ffffff;"/>
   </g>
   <g id="PolyCollection_1">
    <defs>
     <path d="M 67.989788 -76.09282 
L 67.989788 -77.315234 
L 76.827156 -77.376332 
L 85.664525 -77.403844 
L 94.501894 -77.404392 
L 103.339263 -77.42375 
L 112.176631 -77.441524 
L 121.014 -77.470224 
L 129.851369 -77.499145 
L 138.688738 -77.512093 
L 147.526106 -77.512438 
L 156.363475 -77.514485 
L 165.200844 -77.520083 
L 174.038213 -77.546127 
L 182.875582 -77.572989 
L 191.71295 -77.584534 
L 200.550319 -77.586761 
L 209.387688 -77.592818 
L 218.225057 -77.599501 
L 227.062425 -77.620797 
L 235.899794 -77.649851 
L 244.737163 -77.669333 
L 253.574532 -77.672403 
L 262.4119 -77.67306 
L 271.249269 -77.693284 
L 271.249269 -75.714771 
L 271.249269 -75.714771 
L 262.4119 -75.734995 
L 253.574532 -75.735651 
L 244.737163 -75.738721 
L 235.899794 -75.758203 
L 227.062425 -75.787257 
L 218.225057 -75.808553 
L 209.387688 -75.815236 
L 200.550319 -75.821293 
L 191.71295 -75.82352 
L 182.875582 -75.835066 
L 174.038213 -75.861928 
L 165.200844 -75.887971 
L 156.363475 -75.893569 
L 147.526106 -75.895616 
L 138.688738 -75.895961 
L 129.851369 -75.908909 
L 121.014 -75.93783 
L 112.176631 -75.96653 
L 103.339263 -75.984304 
L 94.501894 -76.003662 
L 85.664525 -76.00421 
L 76.827156 -76.031722 
L 67.989788 -76.09282 
z
" id="m16888d901a" style="stroke:#003dfd;stroke-opacity:0.25;"/>
    </defs>
    <g clip-path="url(#p9b64809130)">
     <use style="fill:#003dfd;fill-opacity:0.25;stroke:#003dfd;stroke-opacity:0.25;" x="0" xlink:href="#m16888d901a" y="440.39952"/>
    </g>
   </g>
   <g id="matplotlib.axis_5">
    <g id="xtick_49">
     <g id="line2d_53">
      <path clip-path="url(#p9b64809130)" d="M 59.152419 404.381392 
L 59.152419 233.6 
" style="fill:none;stroke:#dedede;stroke-linecap:square;stroke-width:0.8;"/>
     </g>
     <g id="text_40">
      <!-- 0 -->
      <g style="fill:#333333;" transform="translate(56.502438 417.71089)scale(0.0833 -0.0833)">
       <use xlink:href="#DejaVuSans-48"/>
      </g>
     </g>
    </g>
    <g id="xtick_50">
     <g id="line2d_54">
      <path clip-path="url(#p9b64809130)" d="M 103.339263 404.381392 
L 103.339263 233.6 
" style="fill:none;stroke:#dedede;stroke-linecap:square;stroke-width:0.8;"/>
     </g>
     <g id="text_41">
      <!-- 5 -->
      <g style="fill:#333333;" transform="translate(100.689281 417.71089)scale(0.0833 -0.0833)">
       <use xlink:href="#DejaVuSans-53"/>
      </g>
     </g>
    </g>
    <g id="xtick_51">
     <g id="line2d_55">
      <path clip-path="url(#p9b64809130)" d="M 147.526106 404.381392 
L 147.526106 233.6 
" style="fill:none;stroke:#dedede;stroke-linecap:square;stroke-width:0.8;"/>
     </g>
     <g id="text_42">
      <!-- 10 -->
      <g style="fill:#333333;" transform="translate(142.226144 417.71089)scale(0.0833 -0.0833)">
       <use xlink:href="#DejaVuSans-49"/>
       <use x="63.623047" xlink:href="#DejaVuSans-48"/>
      </g>
     </g>
    </g>
    <g id="xtick_52">
     <g id="line2d_56">
      <path clip-path="url(#p9b64809130)" d="M 191.71295 404.381392 
L 191.71295 233.6 
" style="fill:none;stroke:#dedede;stroke-linecap:square;stroke-width:0.8;"/>
     </g>
     <g id="text_43">
      <!-- 15 -->
      <g style="fill:#333333;" transform="translate(186.412988 417.71089)scale(0.0833 -0.0833)">
       <use xlink:href="#DejaVuSans-49"/>
       <use x="63.623047" xlink:href="#DejaVuSans-53"/>
      </g>
     </g>
    </g>
    <g id="xtick_53">
     <g id="line2d_57">
      <path clip-path="url(#p9b64809130)" d="M 235.899794 404.381392 
L 235.899794 233.6 
" style="fill:none;stroke:#dedede;stroke-linecap:square;stroke-width:0.8;"/>
     </g>
     <g id="text_44">
      <!-- 20 -->
      <g style="fill:#333333;" transform="translate(230.599832 417.71089)scale(0.0833 -0.0833)">
       <use xlink:href="#DejaVuSans-50"/>
       <use x="63.623047" xlink:href="#DejaVuSans-48"/>
      </g>
     </g>
    </g>
    <g id="xtick_54">
     <g id="line2d_58">
      <path clip-path="url(#p9b64809130)" d="M 280.086638 404.381392 
L 280.086638 233.6 
" style="fill:none;stroke:#dedede;stroke-linecap:square;stroke-width:0.8;"/>
     </g>
     <g id="text_45">
      <!-- 25 -->
      <g style="fill:#333333;" transform="translate(274.786675 417.71089)scale(0.0833 -0.0833)">
       <use xlink:href="#DejaVuSans-50"/>
       <use x="63.623047" xlink:href="#DejaVuSans-53"/>
      </g>
     </g>
    </g>
    <g id="text_46">
     <!-- lag -->
     <defs>
      <path d="M 45.609375 9.28125 
Q 42 4.5 37.640625 2.25 
Q 33.296875 0 27.59375 0 
Q 17.578125 0 11.03125 7.875 
Q 4.5 15.765625 4.5 27.984375 
Q 4.5 40.234375 11.03125 48.0625 
Q 17.578125 55.90625 27.59375 55.90625 
Q 33.296875 55.90625 37.640625 53.65625 
Q 42 51.421875 45.609375 46.578125 
L 45.609375 54.6875 
L 63.1875 54.6875 
L 63.1875 5.515625 
Q 63.1875 -7.671875 54.859375 -14.625 
Q 46.53125 -21.578125 30.71875 -21.578125 
Q 25.59375 -21.578125 20.796875 -20.796875 
Q 16.015625 -20.015625 11.1875 -18.40625 
L 11.1875 -4.78125 
Q 15.765625 -7.421875 20.15625 -8.71875 
Q 24.5625 -10.015625 29 -10.015625 
Q 37.59375 -10.015625 41.59375 -6.25 
Q 45.609375 -2.484375 45.609375 5.515625 
z
M 34.078125 43.3125 
Q 28.65625 43.3125 25.625 39.296875 
Q 22.609375 35.296875 22.609375 27.984375 
Q 22.609375 20.453125 25.53125 16.578125 
Q 28.46875 12.703125 34.078125 12.703125 
Q 39.546875 12.703125 42.578125 16.703125 
Q 45.609375 20.703125 45.609375 27.984375 
Q 45.609375 35.296875 42.578125 39.296875 
Q 39.546875 43.3125 34.078125 43.3125 
z
" id="DejaVuSans-Bold-103"/>
     </defs>
     <g style="fill:#333333;" transform="translate(160.952341 431.041707)scale(0.1 -0.1)">
      <use xlink:href="#DejaVuSans-Bold-108"/>
      <use x="34.277344" xlink:href="#DejaVuSans-Bold-97"/>
      <use x="101.757812" xlink:href="#DejaVuSans-Bold-103"/>
     </g>
    </g>
   </g>
   <g id="matplotlib.axis_6">
    <g id="ytick_17">
     <g id="line2d_59">
      <path clip-path="url(#p9b64809130)" d="M 48.105708 388.162033 
L 291.133349 388.162033 
" style="fill:none;stroke:#dedede;stroke-linecap:square;stroke-width:0.8;"/>
     </g>
     <g id="line2d_60">
      <g>
       <use style="fill:#333333;stroke:#333333;stroke-width:0.8;" x="48.105708" xlink:href="#m1f544129e4" y="388.162033"/>
      </g>
     </g>
     <g id="text_47">
      <!-- −0.2 -->
      <defs>
       <path d="M 10.6875 12.40625 
L 21 12.40625 
L 21 0 
L 10.6875 0 
z
" id="DejaVuSans-46"/>
      </defs>
      <g style="fill:#333333;" transform="translate(20.878125 391.326783)scale(0.0833 -0.0833)">
       <use xlink:href="#DejaVuSans-8722"/>
       <use x="83.789062" xlink:href="#DejaVuSans-48"/>
       <use x="147.412109" xlink:href="#DejaVuSans-46"/>
       <use x="179.199219" xlink:href="#DejaVuSans-50"/>
      </g>
     </g>
    </g>
    <g id="ytick_18">
     <g id="line2d_61">
      <path clip-path="url(#p9b64809130)" d="M 48.105708 363.695493 
L 291.133349 363.695493 
" style="fill:none;stroke:#dedede;stroke-linecap:square;stroke-width:0.8;"/>
     </g>
     <g id="line2d_62">
      <g>
       <use style="fill:#333333;stroke:#333333;stroke-width:0.8;" x="48.105708" xlink:href="#m1f544129e4" y="363.695493"/>
      </g>
     </g>
     <g id="text_48">
      <!-- 0.0 -->
      <g style="fill:#333333;" transform="translate(27.858405 366.860242)scale(0.0833 -0.0833)">
       <use xlink:href="#DejaVuSans-48"/>
       <use x="63.623047" xlink:href="#DejaVuSans-46"/>
       <use x="95.410156" xlink:href="#DejaVuSans-48"/>
      </g>
     </g>
    </g>
    <g id="ytick_19">
     <g id="line2d_63">
      <path clip-path="url(#p9b64809130)" d="M 48.105708 339.228952 
L 291.133349 339.228952 
" style="fill:none;stroke:#dedede;stroke-linecap:square;stroke-width:0.8;"/>
     </g>
     <g id="line2d_64">
      <g>
       <use style="fill:#333333;stroke:#333333;stroke-width:0.8;" x="48.105708" xlink:href="#m1f544129e4" y="339.228952"/>
      </g>
     </g>
     <g id="text_49">
      <!-- 0.2 -->
      <g style="fill:#333333;" transform="translate(27.858405 342.393702)scale(0.0833 -0.0833)">
       <use xlink:href="#DejaVuSans-48"/>
       <use x="63.623047" xlink:href="#DejaVuSans-46"/>
       <use x="95.410156" xlink:href="#DejaVuSans-50"/>
      </g>
     </g>
    </g>
    <g id="ytick_20">
     <g id="line2d_65">
      <path clip-path="url(#p9b64809130)" d="M 48.105708 314.762412 
L 291.133349 314.762412 
" style="fill:none;stroke:#dedede;stroke-linecap:square;stroke-width:0.8;"/>
     </g>
     <g id="line2d_66">
      <g>
       <use style="fill:#333333;stroke:#333333;stroke-width:0.8;" x="48.105708" xlink:href="#m1f544129e4" y="314.762412"/>
      </g>
     </g>
     <g id="text_50">
      <!-- 0.4 -->
      <g style="fill:#333333;" transform="translate(27.858405 317.927161)scale(0.0833 -0.0833)">
       <use xlink:href="#DejaVuSans-48"/>
       <use x="63.623047" xlink:href="#DejaVuSans-46"/>
       <use x="95.410156" xlink:href="#DejaVuSans-52"/>
      </g>
     </g>
    </g>
    <g id="ytick_21">
     <g id="line2d_67">
      <path clip-path="url(#p9b64809130)" d="M 48.105708 290.295871 
L 291.133349 290.295871 
" style="fill:none;stroke:#dedede;stroke-linecap:square;stroke-width:0.8;"/>
     </g>
     <g id="line2d_68">
      <g>
       <use style="fill:#333333;stroke:#333333;stroke-width:0.8;" x="48.105708" xlink:href="#m1f544129e4" y="290.295871"/>
      </g>
     </g>
     <g id="text_51">
      <!-- 0.6 -->
      <g style="fill:#333333;" transform="translate(27.858405 293.460621)scale(0.0833 -0.0833)">
       <use xlink:href="#DejaVuSans-48"/>
       <use x="63.623047" xlink:href="#DejaVuSans-46"/>
       <use x="95.410156" xlink:href="#DejaVuSans-54"/>
      </g>
     </g>
    </g>
    <g id="ytick_22">
     <g id="line2d_69">
      <path clip-path="url(#p9b64809130)" d="M 48.105708 265.829331 
L 291.133349 265.829331 
" style="fill:none;stroke:#dedede;stroke-linecap:square;stroke-width:0.8;"/>
     </g>
     <g id="line2d_70">
      <g>
       <use style="fill:#333333;stroke:#333333;stroke-width:0.8;" x="48.105708" xlink:href="#m1f544129e4" y="265.829331"/>
      </g>
     </g>
     <g id="text_52">
      <!-- 0.8 -->
      <g style="fill:#333333;" transform="translate(27.858405 268.99408)scale(0.0833 -0.0833)">
       <use xlink:href="#DejaVuSans-48"/>
       <use x="63.623047" xlink:href="#DejaVuSans-46"/>
       <use x="95.410156" xlink:href="#DejaVuSans-56"/>
      </g>
     </g>
    </g>
    <g id="ytick_23">
     <g id="line2d_71">
      <path clip-path="url(#p9b64809130)" d="M 48.105708 241.362791 
L 291.133349 241.362791 
" style="fill:none;stroke:#dedede;stroke-linecap:square;stroke-width:0.8;"/>
     </g>
     <g id="line2d_72">
      <g>
       <use style="fill:#333333;stroke:#333333;stroke-width:0.8;" x="48.105708" xlink:href="#m1f544129e4" y="241.362791"/>
      </g>
     </g>
     <g id="text_53">
      <!-- 1.0 -->
      <g style="fill:#333333;" transform="translate(27.858405 244.52754)scale(0.0833 -0.0833)">
       <use xlink:href="#DejaVuSans-49"/>
       <use x="63.623047" xlink:href="#DejaVuSans-46"/>
       <use x="95.410156" xlink:href="#DejaVuSans-48"/>
      </g>
     </g>
    </g>
    <g id="text_54">
     <!-- ACF value -->
     <defs>
      <path d="M 53.421875 13.28125 
L 24.03125 13.28125 
L 19.390625 0 
L 0.484375 0 
L 27.484375 72.90625 
L 49.90625 72.90625 
L 76.90625 0 
L 58.015625 0 
z
M 28.71875 26.8125 
L 48.6875 26.8125 
L 38.71875 55.8125 
z
" id="DejaVuSans-Bold-65"/>
      <path d="M 67 4 
Q 61.8125 1.3125 56.203125 -0.046875 
Q 50.59375 -1.421875 44.484375 -1.421875 
Q 26.265625 -1.421875 15.625 8.765625 
Q 4.984375 18.953125 4.984375 36.375 
Q 4.984375 53.859375 15.625 64.03125 
Q 26.265625 74.21875 44.484375 74.21875 
Q 50.59375 74.21875 56.203125 72.84375 
Q 61.8125 71.484375 67 68.796875 
L 67 53.71875 
Q 61.765625 57.28125 56.6875 58.9375 
Q 51.609375 60.59375 46 60.59375 
Q 35.9375 60.59375 30.171875 54.140625 
Q 24.421875 47.703125 24.421875 36.375 
Q 24.421875 25.09375 30.171875 18.640625 
Q 35.9375 12.203125 46 12.203125 
Q 51.609375 12.203125 56.6875 13.859375 
Q 61.765625 15.53125 67 19.09375 
z
" id="DejaVuSans-Bold-67"/>
      <path d="M 9.1875 72.90625 
L 59.90625 72.90625 
L 59.90625 58.6875 
L 27.984375 58.6875 
L 27.984375 45.125 
L 58.015625 45.125 
L 58.015625 30.90625 
L 27.984375 30.90625 
L 27.984375 0 
L 9.1875 0 
z
" id="DejaVuSans-Bold-70"/>
      <path id="DejaVuSans-Bold-32"/>
     </defs>
     <g style="fill:#333333;" transform="translate(14.798437 346.984446)rotate(-90)scale(0.1 -0.1)">
      <use xlink:href="#DejaVuSans-Bold-65"/>
      <use x="77.392578" xlink:href="#DejaVuSans-Bold-67"/>
      <use x="150.78125" xlink:href="#DejaVuSans-Bold-70"/>
      <use x="219.091797" xlink:href="#DejaVuSans-Bold-32"/>
      <use x="253.90625" xlink:href="#DejaVuSans-Bold-118"/>
      <use x="319.091797" xlink:href="#DejaVuSans-Bold-97"/>
      <use x="386.572266" xlink:href="#DejaVuSans-Bold-108"/>
      <use x="420.849609" xlink:href="#DejaVuSans-Bold-117"/>
      <use x="492.041016" xlink:href="#DejaVuSans-Bold-101"/>
     </g>
    </g>
   </g>
   <g id="line2d_73">
    <path clip-path="url(#p9b64809130)" d="M 59.152419 363.695493 
L 59.152419 241.362791 
" style="fill:none;stroke:#000000;stroke-linecap:square;stroke-width:0.5;"/>
   </g>
   <g id="line2d_74">
    <path clip-path="url(#p9b64809130)" d="M 67.989788 363.695493 
L 67.989788 324.062902 
" style="fill:none;stroke:#000000;stroke-linecap:square;stroke-width:0.5;"/>
   </g>
   <g id="line2d_75">
    <path clip-path="url(#p9b64809130)" d="M 76.827156 363.695493 
L 76.827156 336.197749 
" style="fill:none;stroke:#000000;stroke-linecap:square;stroke-width:0.5;"/>
   </g>
   <g id="line2d_76">
    <path clip-path="url(#p9b64809130)" d="M 85.664525 363.695493 
L 85.664525 367.614034 
" style="fill:none;stroke:#000000;stroke-linecap:square;stroke-width:0.5;"/>
   </g>
   <g id="line2d_77">
    <path clip-path="url(#p9b64809130)" d="M 94.501894 363.695493 
L 94.501894 387.161126 
" style="fill:none;stroke:#000000;stroke-linecap:square;stroke-width:0.5;"/>
   </g>
   <g id="line2d_78">
    <path clip-path="url(#p9b64809130)" d="M 103.339263 363.695493 
L 103.339263 386.471929 
" style="fill:none;stroke:#000000;stroke-linecap:square;stroke-width:0.5;"/>
   </g>
   <g id="line2d_79">
    <path clip-path="url(#p9b64809130)" d="M 112.176631 363.695493 
L 112.176631 393.096729 
" style="fill:none;stroke:#000000;stroke-linecap:square;stroke-width:0.5;"/>
   </g>
   <g id="line2d_80">
    <path clip-path="url(#p9b64809130)" d="M 121.014 363.695493 
L 121.014 393.769225 
" style="fill:none;stroke:#000000;stroke-linecap:square;stroke-width:0.5;"/>
   </g>
   <g id="line2d_81">
    <path clip-path="url(#p9b64809130)" d="M 129.851369 363.695493 
L 129.851369 384.085942 
" style="fill:none;stroke:#000000;stroke-linecap:square;stroke-width:0.5;"/>
   </g>
   <g id="line2d_82">
    <path clip-path="url(#p9b64809130)" d="M 138.688738 363.695493 
L 138.688738 367.039498 
" style="fill:none;stroke:#000000;stroke-linecap:square;stroke-width:0.5;"/>
   </g>
   <g id="line2d_83">
    <path clip-path="url(#p9b64809130)" d="M 147.526106 363.695493 
L 147.526106 371.841886 
" style="fill:none;stroke:#000000;stroke-linecap:square;stroke-width:0.5;"/>
   </g>
   <g id="line2d_84">
    <path clip-path="url(#p9b64809130)" d="M 156.363475 363.695493 
L 156.363475 350.190564 
" style="fill:none;stroke:#000000;stroke-linecap:square;stroke-width:0.5;"/>
   </g>
   <g id="line2d_85">
    <path clip-path="url(#p9b64809130)" d="M 165.200844 363.695493 
L 165.200844 334.284987 
" style="fill:none;stroke:#000000;stroke-linecap:square;stroke-width:0.5;"/>
   </g>
   <g id="line2d_86">
    <path clip-path="url(#p9b64809130)" d="M 174.038213 363.695493 
L 174.038213 333.353715 
" style="fill:none;stroke:#000000;stroke-linecap:square;stroke-width:0.5;"/>
   </g>
   <g id="line2d_87">
    <path clip-path="url(#p9b64809130)" d="M 182.875582 363.695493 
L 182.875582 343.581646 
" style="fill:none;stroke:#000000;stroke-linecap:square;stroke-width:0.5;"/>
   </g>
   <g id="line2d_88">
    <path clip-path="url(#p9b64809130)" d="M 191.71295 363.695493 
L 191.71295 354.825987 
" style="fill:none;stroke:#000000;stroke-linecap:square;stroke-width:0.5;"/>
   </g>
   <g id="line2d_89">
    <path clip-path="url(#p9b64809130)" d="M 200.550319 363.695493 
L 200.550319 378.355701 
" style="fill:none;stroke:#000000;stroke-linecap:square;stroke-width:0.5;"/>
   </g>
   <g id="line2d_90">
    <path clip-path="url(#p9b64809130)" d="M 209.387688 363.695493 
L 209.387688 379.149571 
" style="fill:none;stroke:#000000;stroke-linecap:square;stroke-width:0.5;"/>
   </g>
   <g id="line2d_91">
    <path clip-path="url(#p9b64809130)" d="M 218.225057 363.695493 
L 218.225057 391.498683 
" style="fill:none;stroke:#000000;stroke-linecap:square;stroke-width:0.5;"/>
   </g>
   <g id="line2d_92">
    <path clip-path="url(#p9b64809130)" d="M 227.062425 363.695493 
L 227.062425 396.618601 
" style="fill:none;stroke:#000000;stroke-linecap:square;stroke-width:0.5;"/>
   </g>
   <g id="line2d_93">
    <path clip-path="url(#p9b64809130)" d="M 235.899794 363.695493 
L 235.899794 391.004379 
" style="fill:none;stroke:#000000;stroke-linecap:square;stroke-width:0.5;"/>
   </g>
   <g id="line2d_94">
    <path clip-path="url(#p9b64809130)" d="M 244.737163 363.695493 
L 244.737163 374.599676 
" style="fill:none;stroke:#000000;stroke-linecap:square;stroke-width:0.5;"/>
   </g>
   <g id="line2d_95">
    <path clip-path="url(#p9b64809130)" d="M 253.574532 363.695493 
L 253.574532 368.743469 
" style="fill:none;stroke:#000000;stroke-linecap:square;stroke-width:0.5;"/>
   </g>
   <g id="line2d_96">
    <path clip-path="url(#p9b64809130)" d="M 262.4119 363.695493 
L 262.4119 335.530425 
" style="fill:none;stroke:#000000;stroke-linecap:square;stroke-width:0.5;"/>
   </g>
   <g id="line2d_97">
    <path clip-path="url(#p9b64809130)" d="M 271.249269 363.695493 
L 271.249269 333.175402 
" style="fill:none;stroke:#000000;stroke-linecap:square;stroke-width:0.5;"/>
   </g>
   <g id="line2d_98">
    <path clip-path="url(#p9b64809130)" d="M 59.152419 363.695493 
L 280.086638 363.695493 
" style="fill:none;stroke:#000000;stroke-linecap:square;stroke-width:1.3;"/>
   </g>
   <g id="text_55">
    <!-- ACF -->
    <defs>
     <path d="M 34.1875 63.1875 
L 20.796875 26.90625 
L 47.609375 26.90625 
z
M 28.609375 72.90625 
L 39.796875 72.90625 
L 67.578125 0 
L 57.328125 0 
L 50.6875 18.703125 
L 17.828125 18.703125 
L 11.1875 0 
L 0.78125 0 
z
" id="DejaVuSans-65"/>
     <path d="M 64.40625 67.28125 
L 64.40625 56.890625 
Q 59.421875 61.53125 53.78125 63.8125 
Q 48.140625 66.109375 41.796875 66.109375 
Q 29.296875 66.109375 22.65625 58.46875 
Q 16.015625 50.828125 16.015625 36.375 
Q 16.015625 21.96875 22.65625 14.328125 
Q 29.296875 6.6875 41.796875 6.6875 
Q 48.140625 6.6875 53.78125 8.984375 
Q 59.421875 11.28125 64.40625 15.921875 
L 64.40625 5.609375 
Q 59.234375 2.09375 53.4375 0.328125 
Q 47.65625 -1.421875 41.21875 -1.421875 
Q 24.65625 -1.421875 15.125 8.703125 
Q 5.609375 18.84375 5.609375 36.375 
Q 5.609375 53.953125 15.125 64.078125 
Q 24.65625 74.21875 41.21875 74.21875 
Q 47.75 74.21875 53.53125 72.484375 
Q 59.328125 70.75 64.40625 67.28125 
z
" id="DejaVuSans-67"/>
     <path d="M 9.8125 72.90625 
L 51.703125 72.90625 
L 51.703125 64.59375 
L 19.671875 64.59375 
L 19.671875 43.109375 
L 48.578125 43.109375 
L 48.578125 34.8125 
L 19.671875 34.8125 
L 19.671875 0 
L 9.8125 0 
z
" id="DejaVuSans-70"/>
    </defs>
    <g transform="translate(157.979528 227.6)scale(0.12 -0.12)">
     <use xlink:href="#DejaVuSans-65"/>
     <use x="66.658203" xlink:href="#DejaVuSans-67"/>
     <use x="136.482422" xlink:href="#DejaVuSans-70"/>
    </g>
   </g>
  </g>
 </g>
 <defs>
  <clipPath id="p6bfc0656ea">
   <rect height="170.781392" width="529.093812" x="48.105708" y="22.318125"/>
  </clipPath>
  <clipPath id="p164b198596">
   <rect height="170.781392" width="243.027641" x="334.171879" y="233.6"/>
  </clipPath>
  <clipPath id="p9b64809130">
   <rect height="170.781392" width="243.027641" x="48.105708" y="233.6"/>
  </clipPath>
 </defs>
</svg>
