<?xml version="1.0" encoding="utf-8" standalone="no"?>
<!DOCTYPE svg PUBLIC "-//W3C//DTD SVG 1.1//EN"
  "http://www.w3.org/Graphics/SVG/1.1/DTD/svg11.dtd">
<!-- Created with matplotlib (https://matplotlib.org/) -->
<svg height="260.580003pt" version="1.1" viewBox="0 0 369.447303 260.580003" width="369.447303pt" xmlns="http://www.w3.org/2000/svg" xmlns:xlink="http://www.w3.org/1999/xlink">
 <defs>
  <style type="text/css">
*{stroke-linecap:butt;stroke-linejoin:round;}
  </style>
 </defs>
 <g id="figure_1">
  <g id="patch_1">
   <path d="M 0 260.580003 
L 369.447303 260.580003 
L 369.447303 0 
L 0 0 
z
" style="fill:none;"/>
  </g>
  <g id="axes_1">
   <g id="patch_2">
    <path d="M 27.447303 224.64 
L 362.247303 224.64 
L 362.247303 7.2 
L 27.447303 7.2 
z
" style="fill:#ffffff;"/>
   </g>
   <g id="matplotlib.axis_1">
    <g id="xtick_1">
     <g id="line2d_1">
      <path clip-path="url(#p5fcc61f20c)" d="M 52.055427 224.64 
L 52.055427 7.2 
" style="fill:none;stroke:#d0d0d0;stroke-linecap:square;stroke-width:0.8;"/>
     </g>
     <g id="text_1">
      <!-- 1944 -->
      <defs>
       <path d="M 12.40625 8.296875 
L 28.515625 8.296875 
L 28.515625 63.921875 
L 10.984375 60.40625 
L 10.984375 69.390625 
L 28.421875 72.90625 
L 38.28125 72.90625 
L 38.28125 8.296875 
L 54.390625 8.296875 
L 54.390625 0 
L 12.40625 0 
z
" id="DejaVuSans-49"/>
       <path d="M 10.984375 1.515625 
L 10.984375 10.5 
Q 14.703125 8.734375 18.5 7.8125 
Q 22.3125 6.890625 25.984375 6.890625 
Q 35.75 6.890625 40.890625 13.453125 
Q 46.046875 20.015625 46.78125 33.40625 
Q 43.953125 29.203125 39.59375 26.953125 
Q 35.25 24.703125 29.984375 24.703125 
Q 19.046875 24.703125 12.671875 31.3125 
Q 6.296875 37.9375 6.296875 49.421875 
Q 6.296875 60.640625 12.9375 67.421875 
Q 19.578125 74.21875 30.609375 74.21875 
Q 43.265625 74.21875 49.921875 64.515625 
Q 56.59375 54.828125 56.59375 36.375 
Q 56.59375 19.140625 48.40625 8.859375 
Q 40.234375 -1.421875 26.421875 -1.421875 
Q 22.703125 -1.421875 18.890625 -0.6875 
Q 15.09375 0.046875 10.984375 1.515625 
z
M 30.609375 32.421875 
Q 37.25 32.421875 41.125 36.953125 
Q 45.015625 41.5 45.015625 49.421875 
Q 45.015625 57.28125 41.125 61.84375 
Q 37.25 66.40625 30.609375 66.40625 
Q 23.96875 66.40625 20.09375 61.84375 
Q 16.21875 57.28125 16.21875 49.421875 
Q 16.21875 41.5 20.09375 36.953125 
Q 23.96875 32.421875 30.609375 32.421875 
z
" id="DejaVuSans-57"/>
       <path d="M 37.796875 64.3125 
L 12.890625 25.390625 
L 37.796875 25.390625 
z
M 35.203125 72.90625 
L 47.609375 72.90625 
L 47.609375 25.390625 
L 58.015625 25.390625 
L 58.015625 17.1875 
L 47.609375 17.1875 
L 47.609375 0 
L 37.796875 0 
L 37.796875 17.1875 
L 4.890625 17.1875 
L 4.890625 26.703125 
z
" id="DejaVuSans-52"/>
      </defs>
      <g style="fill:#333333;" transform="translate(41.455502 237.969498)scale(0.0833 -0.0833)">
       <use xlink:href="#DejaVuSans-49"/>
       <use x="63.623047" xlink:href="#DejaVuSans-57"/>
       <use x="127.246094" xlink:href="#DejaVuSans-52"/>
       <use x="190.869141" xlink:href="#DejaVuSans-52"/>
      </g>
     </g>
    </g>
    <g id="xtick_2">
     <g id="line2d_2">
      <path clip-path="url(#p5fcc61f20c)" d="M 90.910359 224.64 
L 90.910359 7.2 
" style="fill:none;stroke:#d0d0d0;stroke-linecap:square;stroke-width:0.8;"/>
     </g>
     <g id="text_2">
      <!-- 1949 -->
      <g style="fill:#333333;" transform="translate(80.310434 237.969498)scale(0.0833 -0.0833)">
       <use xlink:href="#DejaVuSans-49"/>
       <use x="63.623047" xlink:href="#DejaVuSans-57"/>
       <use x="127.246094" xlink:href="#DejaVuSans-52"/>
       <use x="190.869141" xlink:href="#DejaVuSans-57"/>
      </g>
     </g>
    </g>
    <g id="xtick_3">
     <g id="line2d_3">
      <path clip-path="url(#p5fcc61f20c)" d="M 129.765292 224.64 
L 129.765292 7.2 
" style="fill:none;stroke:#d0d0d0;stroke-linecap:square;stroke-width:0.8;"/>
     </g>
     <g id="text_3">
      <!-- 1954 -->
      <defs>
       <path d="M 10.796875 72.90625 
L 49.515625 72.90625 
L 49.515625 64.59375 
L 19.828125 64.59375 
L 19.828125 46.734375 
Q 21.96875 47.46875 24.109375 47.828125 
Q 26.265625 48.1875 28.421875 48.1875 
Q 40.625 48.1875 47.75 41.5 
Q 54.890625 34.8125 54.890625 23.390625 
Q 54.890625 11.625 47.5625 5.09375 
Q 40.234375 -1.421875 26.90625 -1.421875 
Q 22.3125 -1.421875 17.546875 -0.640625 
Q 12.796875 0.140625 7.71875 1.703125 
L 7.71875 11.625 
Q 12.109375 9.234375 16.796875 8.0625 
Q 21.484375 6.890625 26.703125 6.890625 
Q 35.15625 6.890625 40.078125 11.328125 
Q 45.015625 15.765625 45.015625 23.390625 
Q 45.015625 31 40.078125 35.4375 
Q 35.15625 39.890625 26.703125 39.890625 
Q 22.75 39.890625 18.8125 39.015625 
Q 14.890625 38.140625 10.796875 36.28125 
z
" id="DejaVuSans-53"/>
      </defs>
      <g style="fill:#333333;" transform="translate(119.165367 237.969498)scale(0.0833 -0.0833)">
       <use xlink:href="#DejaVuSans-49"/>
       <use x="63.623047" xlink:href="#DejaVuSans-57"/>
       <use x="127.246094" xlink:href="#DejaVuSans-53"/>
       <use x="190.869141" xlink:href="#DejaVuSans-52"/>
      </g>
     </g>
    </g>
    <g id="xtick_4">
     <g id="line2d_4">
      <path clip-path="url(#p5fcc61f20c)" d="M 168.620224 224.64 
L 168.620224 7.2 
" style="fill:none;stroke:#d0d0d0;stroke-linecap:square;stroke-width:0.8;"/>
     </g>
     <g id="text_4">
      <!-- 1959 -->
      <g style="fill:#333333;" transform="translate(158.020299 237.969498)scale(0.0833 -0.0833)">
       <use xlink:href="#DejaVuSans-49"/>
       <use x="63.623047" xlink:href="#DejaVuSans-57"/>
       <use x="127.246094" xlink:href="#DejaVuSans-53"/>
       <use x="190.869141" xlink:href="#DejaVuSans-57"/>
      </g>
     </g>
    </g>
    <g id="xtick_5">
     <g id="line2d_5">
      <path clip-path="url(#p5fcc61f20c)" d="M 207.475156 224.64 
L 207.475156 7.2 
" style="fill:none;stroke:#d0d0d0;stroke-linecap:square;stroke-width:0.8;"/>
     </g>
     <g id="text_5">
      <!-- 1964 -->
      <defs>
       <path d="M 33.015625 40.375 
Q 26.375 40.375 22.484375 35.828125 
Q 18.609375 31.296875 18.609375 23.390625 
Q 18.609375 15.53125 22.484375 10.953125 
Q 26.375 6.390625 33.015625 6.390625 
Q 39.65625 6.390625 43.53125 10.953125 
Q 47.40625 15.53125 47.40625 23.390625 
Q 47.40625 31.296875 43.53125 35.828125 
Q 39.65625 40.375 33.015625 40.375 
z
M 52.59375 71.296875 
L 52.59375 62.3125 
Q 48.875 64.0625 45.09375 64.984375 
Q 41.3125 65.921875 37.59375 65.921875 
Q 27.828125 65.921875 22.671875 59.328125 
Q 17.53125 52.734375 16.796875 39.40625 
Q 19.671875 43.65625 24.015625 45.921875 
Q 28.375 48.1875 33.59375 48.1875 
Q 44.578125 48.1875 50.953125 41.515625 
Q 57.328125 34.859375 57.328125 23.390625 
Q 57.328125 12.15625 50.6875 5.359375 
Q 44.046875 -1.421875 33.015625 -1.421875 
Q 20.359375 -1.421875 13.671875 8.265625 
Q 6.984375 17.96875 6.984375 36.375 
Q 6.984375 53.65625 15.1875 63.9375 
Q 23.390625 74.21875 37.203125 74.21875 
Q 40.921875 74.21875 44.703125 73.484375 
Q 48.484375 72.75 52.59375 71.296875 
z
" id="DejaVuSans-54"/>
      </defs>
      <g style="fill:#333333;" transform="translate(196.875231 237.969498)scale(0.0833 -0.0833)">
       <use xlink:href="#DejaVuSans-49"/>
       <use x="63.623047" xlink:href="#DejaVuSans-57"/>
       <use x="127.246094" xlink:href="#DejaVuSans-54"/>
       <use x="190.869141" xlink:href="#DejaVuSans-52"/>
      </g>
     </g>
    </g>
    <g id="xtick_6">
     <g id="line2d_6">
      <path clip-path="url(#p5fcc61f20c)" d="M 246.330088 224.64 
L 246.330088 7.2 
" style="fill:none;stroke:#d0d0d0;stroke-linecap:square;stroke-width:0.8;"/>
     </g>
     <g id="text_6">
      <!-- 1969 -->
      <g style="fill:#333333;" transform="translate(235.730163 237.969498)scale(0.0833 -0.0833)">
       <use xlink:href="#DejaVuSans-49"/>
       <use x="63.623047" xlink:href="#DejaVuSans-57"/>
       <use x="127.246094" xlink:href="#DejaVuSans-54"/>
       <use x="190.869141" xlink:href="#DejaVuSans-57"/>
      </g>
     </g>
    </g>
    <g id="xtick_7">
     <g id="line2d_7">
      <path clip-path="url(#p5fcc61f20c)" d="M 285.185021 224.64 
L 285.185021 7.2 
" style="fill:none;stroke:#d0d0d0;stroke-linecap:square;stroke-width:0.8;"/>
     </g>
     <g id="text_7">
      <!-- 1974 -->
      <defs>
       <path d="M 8.203125 72.90625 
L 55.078125 72.90625 
L 55.078125 68.703125 
L 28.609375 0 
L 18.3125 0 
L 43.21875 64.59375 
L 8.203125 64.59375 
z
" id="DejaVuSans-55"/>
      </defs>
      <g style="fill:#333333;" transform="translate(274.585096 237.969498)scale(0.0833 -0.0833)">
       <use xlink:href="#DejaVuSans-49"/>
       <use x="63.623047" xlink:href="#DejaVuSans-57"/>
       <use x="127.246094" xlink:href="#DejaVuSans-55"/>
       <use x="190.869141" xlink:href="#DejaVuSans-52"/>
      </g>
     </g>
    </g>
    <g id="xtick_8">
     <g id="line2d_8">
      <path clip-path="url(#p5fcc61f20c)" d="M 324.039953 224.64 
L 324.039953 7.2 
" style="fill:none;stroke:#d0d0d0;stroke-linecap:square;stroke-width:0.8;"/>
     </g>
     <g id="text_8">
      <!-- 1979 -->
      <g style="fill:#333333;" transform="translate(313.440028 237.969498)scale(0.0833 -0.0833)">
       <use xlink:href="#DejaVuSans-49"/>
       <use x="63.623047" xlink:href="#DejaVuSans-57"/>
       <use x="127.246094" xlink:href="#DejaVuSans-55"/>
       <use x="190.869141" xlink:href="#DejaVuSans-57"/>
      </g>
     </g>
    </g>
    <g id="xtick_9"/>
    <g id="xtick_10"/>
    <g id="xtick_11"/>
    <g id="xtick_12"/>
    <g id="xtick_13"/>
    <g id="xtick_14"/>
    <g id="xtick_15"/>
    <g id="xtick_16"/>
    <g id="xtick_17"/>
    <g id="xtick_18"/>
    <g id="xtick_19"/>
    <g id="xtick_20"/>
    <g id="xtick_21"/>
    <g id="xtick_22"/>
    <g id="xtick_23"/>
    <g id="xtick_24"/>
    <g id="xtick_25"/>
    <g id="xtick_26"/>
    <g id="xtick_27"/>
    <g id="xtick_28"/>
    <g id="xtick_29"/>
    <g id="xtick_30"/>
    <g id="xtick_31"/>
    <g id="xtick_32"/>
    <g id="xtick_33"/>
    <g id="xtick_34"/>
    <g id="xtick_35"/>
    <g id="xtick_36"/>
    <g id="xtick_37"/>
    <g id="xtick_38"/>
    <g id="xtick_39"/>
    <g id="xtick_40"/>
    <g id="xtick_41"/>
    <g id="xtick_42"/>
    <g id="xtick_43"/>
    <g id="text_9">
     <!-- Month -->
     <defs>
      <path d="M 9.1875 72.90625 
L 33.109375 72.90625 
L 49.703125 33.890625 
L 66.40625 72.90625 
L 90.28125 72.90625 
L 90.28125 0 
L 72.515625 0 
L 72.515625 53.328125 
L 55.71875 14.015625 
L 43.796875 14.015625 
L 27 53.328125 
L 27 0 
L 9.1875 0 
z
" id="DejaVuSans-Bold-77"/>
      <path d="M 34.421875 43.5 
Q 28.609375 43.5 25.5625 39.328125 
Q 22.515625 35.15625 22.515625 27.296875 
Q 22.515625 19.4375 25.5625 15.25 
Q 28.609375 11.078125 34.421875 11.078125 
Q 40.140625 11.078125 43.15625 15.25 
Q 46.1875 19.4375 46.1875 27.296875 
Q 46.1875 35.15625 43.15625 39.328125 
Q 40.140625 43.5 34.421875 43.5 
z
M 34.421875 56 
Q 48.53125 56 56.46875 48.375 
Q 64.40625 40.765625 64.40625 27.296875 
Q 64.40625 13.8125 56.46875 6.1875 
Q 48.53125 -1.421875 34.421875 -1.421875 
Q 20.265625 -1.421875 12.28125 6.1875 
Q 4.296875 13.8125 4.296875 27.296875 
Q 4.296875 40.765625 12.28125 48.375 
Q 20.265625 56 34.421875 56 
z
" id="DejaVuSans-Bold-111"/>
      <path d="M 63.375 33.296875 
L 63.375 0 
L 45.796875 0 
L 45.796875 5.421875 
L 45.796875 25.484375 
Q 45.796875 32.5625 45.484375 35.25 
Q 45.171875 37.9375 44.390625 39.203125 
Q 43.359375 40.921875 41.59375 41.875 
Q 39.84375 42.828125 37.59375 42.828125 
Q 32.125 42.828125 29 38.59375 
Q 25.875 34.375 25.875 26.90625 
L 25.875 0 
L 8.40625 0 
L 8.40625 54.6875 
L 25.875 54.6875 
L 25.875 46.6875 
Q 29.828125 51.46875 34.265625 53.734375 
Q 38.71875 56 44.09375 56 
Q 53.5625 56 58.46875 50.1875 
Q 63.375 44.390625 63.375 33.296875 
z
" id="DejaVuSans-Bold-110"/>
      <path d="M 27.484375 70.21875 
L 27.484375 54.6875 
L 45.515625 54.6875 
L 45.515625 42.1875 
L 27.484375 42.1875 
L 27.484375 19 
Q 27.484375 15.1875 29 13.84375 
Q 30.515625 12.5 35.015625 12.5 
L 44 12.5 
L 44 0 
L 29 0 
Q 18.65625 0 14.328125 4.3125 
Q 10.015625 8.640625 10.015625 19 
L 10.015625 42.1875 
L 1.3125 42.1875 
L 1.3125 54.6875 
L 10.015625 54.6875 
L 10.015625 70.21875 
z
" id="DejaVuSans-Bold-116"/>
      <path d="M 63.375 33.296875 
L 63.375 0 
L 45.796875 0 
L 45.796875 5.421875 
L 45.796875 25.390625 
Q 45.796875 32.5625 45.484375 35.25 
Q 45.171875 37.9375 44.390625 39.203125 
Q 43.359375 40.921875 41.59375 41.875 
Q 39.84375 42.828125 37.59375 42.828125 
Q 32.125 42.828125 29 38.59375 
Q 25.875 34.375 25.875 26.90625 
L 25.875 0 
L 8.40625 0 
L 8.40625 75.984375 
L 25.875 75.984375 
L 25.875 46.6875 
Q 29.828125 51.46875 34.265625 53.734375 
Q 38.71875 56 44.09375 56 
Q 53.5625 56 58.46875 50.1875 
Q 63.375 44.390625 63.375 33.296875 
z
" id="DejaVuSans-Bold-104"/>
     </defs>
     <g style="fill:#333333;" transform="translate(176.927772 251.300316)scale(0.1 -0.1)">
      <use xlink:href="#DejaVuSans-Bold-77"/>
      <use x="99.511719" xlink:href="#DejaVuSans-Bold-111"/>
      <use x="168.212891" xlink:href="#DejaVuSans-Bold-110"/>
      <use x="239.404297" xlink:href="#DejaVuSans-Bold-116"/>
      <use x="287.207031" xlink:href="#DejaVuSans-Bold-104"/>
     </g>
    </g>
   </g>
   <g id="matplotlib.axis_2">
    <g id="ytick_1">
     <g id="line2d_9">
      <path clip-path="url(#p5fcc61f20c)" d="M 27.447303 214.912257 
L 362.247303 214.912257 
" style="fill:none;stroke:#d0d0d0;stroke-linecap:square;stroke-width:0.8;"/>
     </g>
     <g id="line2d_10">
      <defs>
       <path d="M 0 0 
L -3.5 0 
" id="m37ad430789" style="stroke:#333333;stroke-width:0.8;"/>
      </defs>
      <g>
       <use style="fill:#333333;stroke:#333333;stroke-width:0.8;" x="27.447303" xlink:href="#m37ad430789" y="214.912257"/>
      </g>
     </g>
     <g id="text_10">
      <!-- 0.0 -->
      <defs>
       <path d="M 31.78125 66.40625 
Q 24.171875 66.40625 20.328125 58.90625 
Q 16.5 51.421875 16.5 36.375 
Q 16.5 21.390625 20.328125 13.890625 
Q 24.171875 6.390625 31.78125 6.390625 
Q 39.453125 6.390625 43.28125 13.890625 
Q 47.125 21.390625 47.125 36.375 
Q 47.125 51.421875 43.28125 58.90625 
Q 39.453125 66.40625 31.78125 66.40625 
z
M 31.78125 74.21875 
Q 44.046875 74.21875 50.515625 64.515625 
Q 56.984375 54.828125 56.984375 36.375 
Q 56.984375 17.96875 50.515625 8.265625 
Q 44.046875 -1.421875 31.78125 -1.421875 
Q 19.53125 -1.421875 13.0625 8.265625 
Q 6.59375 17.96875 6.59375 36.375 
Q 6.59375 54.828125 13.0625 64.515625 
Q 19.53125 74.21875 31.78125 74.21875 
z
" id="DejaVuSans-48"/>
       <path d="M 10.6875 12.40625 
L 21 12.40625 
L 21 0 
L 10.6875 0 
z
" id="DejaVuSans-46"/>
      </defs>
      <g style="fill:#333333;" transform="translate(7.2 218.077006)scale(0.0833 -0.0833)">
       <use xlink:href="#DejaVuSans-48"/>
       <use x="63.623047" xlink:href="#DejaVuSans-46"/>
       <use x="95.410156" xlink:href="#DejaVuSans-48"/>
      </g>
     </g>
    </g>
    <g id="ytick_2">
     <g id="line2d_11">
      <path clip-path="url(#p5fcc61f20c)" d="M 27.447303 177.669343 
L 362.247303 177.669343 
" style="fill:none;stroke:#d0d0d0;stroke-linecap:square;stroke-width:0.8;"/>
     </g>
     <g id="line2d_12">
      <g>
       <use style="fill:#333333;stroke:#333333;stroke-width:0.8;" x="27.447303" xlink:href="#m37ad430789" y="177.669343"/>
      </g>
     </g>
     <g id="text_11">
      <!-- 0.2 -->
      <defs>
       <path d="M 19.1875 8.296875 
L 53.609375 8.296875 
L 53.609375 0 
L 7.328125 0 
L 7.328125 8.296875 
Q 12.9375 14.109375 22.625 23.890625 
Q 32.328125 33.6875 34.8125 36.53125 
Q 39.546875 41.84375 41.421875 45.53125 
Q 43.3125 49.21875 43.3125 52.78125 
Q 43.3125 58.59375 39.234375 62.25 
Q 35.15625 65.921875 28.609375 65.921875 
Q 23.96875 65.921875 18.8125 64.3125 
Q 13.671875 62.703125 7.8125 59.421875 
L 7.8125 69.390625 
Q 13.765625 71.78125 18.9375 73 
Q 24.125 74.21875 28.421875 74.21875 
Q 39.75 74.21875 46.484375 68.546875 
Q 53.21875 62.890625 53.21875 53.421875 
Q 53.21875 48.921875 51.53125 44.890625 
Q 49.859375 40.875 45.40625 35.40625 
Q 44.1875 33.984375 37.640625 27.21875 
Q 31.109375 20.453125 19.1875 8.296875 
z
" id="DejaVuSans-50"/>
      </defs>
      <g style="fill:#333333;" transform="translate(7.2 180.834092)scale(0.0833 -0.0833)">
       <use xlink:href="#DejaVuSans-48"/>
       <use x="63.623047" xlink:href="#DejaVuSans-46"/>
       <use x="95.410156" xlink:href="#DejaVuSans-50"/>
      </g>
     </g>
    </g>
    <g id="ytick_3">
     <g id="line2d_13">
      <path clip-path="url(#p5fcc61f20c)" d="M 27.447303 140.42643 
L 362.247303 140.42643 
" style="fill:none;stroke:#d0d0d0;stroke-linecap:square;stroke-width:0.8;"/>
     </g>
     <g id="line2d_14">
      <g>
       <use style="fill:#333333;stroke:#333333;stroke-width:0.8;" x="27.447303" xlink:href="#m37ad430789" y="140.42643"/>
      </g>
     </g>
     <g id="text_12">
      <!-- 0.4 -->
      <g style="fill:#333333;" transform="translate(7.2 143.591179)scale(0.0833 -0.0833)">
       <use xlink:href="#DejaVuSans-48"/>
       <use x="63.623047" xlink:href="#DejaVuSans-46"/>
       <use x="95.410156" xlink:href="#DejaVuSans-52"/>
      </g>
     </g>
    </g>
    <g id="ytick_4">
     <g id="line2d_15">
      <path clip-path="url(#p5fcc61f20c)" d="M 27.447303 103.183516 
L 362.247303 103.183516 
" style="fill:none;stroke:#d0d0d0;stroke-linecap:square;stroke-width:0.8;"/>
     </g>
     <g id="line2d_16">
      <g>
       <use style="fill:#333333;stroke:#333333;stroke-width:0.8;" x="27.447303" xlink:href="#m37ad430789" y="103.183516"/>
      </g>
     </g>
     <g id="text_13">
      <!-- 0.6 -->
      <g style="fill:#333333;" transform="translate(7.2 106.348265)scale(0.0833 -0.0833)">
       <use xlink:href="#DejaVuSans-48"/>
       <use x="63.623047" xlink:href="#DejaVuSans-46"/>
       <use x="95.410156" xlink:href="#DejaVuSans-54"/>
      </g>
     </g>
    </g>
    <g id="ytick_5">
     <g id="line2d_17">
      <path clip-path="url(#p5fcc61f20c)" d="M 27.447303 65.940602 
L 362.247303 65.940602 
" style="fill:none;stroke:#d0d0d0;stroke-linecap:square;stroke-width:0.8;"/>
     </g>
     <g id="line2d_18">
      <g>
       <use style="fill:#333333;stroke:#333333;stroke-width:0.8;" x="27.447303" xlink:href="#m37ad430789" y="65.940602"/>
      </g>
     </g>
     <g id="text_14">
      <!-- 0.8 -->
      <defs>
       <path d="M 31.78125 34.625 
Q 24.75 34.625 20.71875 30.859375 
Q 16.703125 27.09375 16.703125 20.515625 
Q 16.703125 13.921875 20.71875 10.15625 
Q 24.75 6.390625 31.78125 6.390625 
Q 38.8125 6.390625 42.859375 10.171875 
Q 46.921875 13.96875 46.921875 20.515625 
Q 46.921875 27.09375 42.890625 30.859375 
Q 38.875 34.625 31.78125 34.625 
z
M 21.921875 38.8125 
Q 15.578125 40.375 12.03125 44.71875 
Q 8.5 49.078125 8.5 55.328125 
Q 8.5 64.0625 14.71875 69.140625 
Q 20.953125 74.21875 31.78125 74.21875 
Q 42.671875 74.21875 48.875 69.140625 
Q 55.078125 64.0625 55.078125 55.328125 
Q 55.078125 49.078125 51.53125 44.71875 
Q 48 40.375 41.703125 38.8125 
Q 48.828125 37.15625 52.796875 32.3125 
Q 56.78125 27.484375 56.78125 20.515625 
Q 56.78125 9.90625 50.3125 4.234375 
Q 43.84375 -1.421875 31.78125 -1.421875 
Q 19.734375 -1.421875 13.25 4.234375 
Q 6.78125 9.90625 6.78125 20.515625 
Q 6.78125 27.484375 10.78125 32.3125 
Q 14.796875 37.15625 21.921875 38.8125 
z
M 18.3125 54.390625 
Q 18.3125 48.734375 21.84375 45.5625 
Q 25.390625 42.390625 31.78125 42.390625 
Q 38.140625 42.390625 41.71875 45.5625 
Q 45.3125 48.734375 45.3125 54.390625 
Q 45.3125 60.0625 41.71875 63.234375 
Q 38.140625 66.40625 31.78125 66.40625 
Q 25.390625 66.40625 21.84375 63.234375 
Q 18.3125 60.0625 18.3125 54.390625 
z
" id="DejaVuSans-56"/>
      </defs>
      <g style="fill:#333333;" transform="translate(7.2 69.105351)scale(0.0833 -0.0833)">
       <use xlink:href="#DejaVuSans-48"/>
       <use x="63.623047" xlink:href="#DejaVuSans-46"/>
       <use x="95.410156" xlink:href="#DejaVuSans-56"/>
      </g>
     </g>
    </g>
    <g id="ytick_6">
     <g id="line2d_19">
      <path clip-path="url(#p5fcc61f20c)" d="M 27.447303 28.697689 
L 362.247303 28.697689 
" style="fill:none;stroke:#d0d0d0;stroke-linecap:square;stroke-width:0.8;"/>
     </g>
     <g id="line2d_20">
      <g>
       <use style="fill:#333333;stroke:#333333;stroke-width:0.8;" x="27.447303" xlink:href="#m37ad430789" y="28.697689"/>
      </g>
     </g>
     <g id="text_15">
      <!-- 1.0 -->
      <g style="fill:#333333;" transform="translate(7.2 31.862438)scale(0.0833 -0.0833)">
       <use xlink:href="#DejaVuSans-49"/>
       <use x="63.623047" xlink:href="#DejaVuSans-46"/>
       <use x="95.410156" xlink:href="#DejaVuSans-48"/>
      </g>
     </g>
    </g>
   </g>
   <g id="line2d_21">
    <path clip-path="url(#p5fcc61f20c)" d="M 27.447303 169.391408 
L 28.094885 161.674689 
L 28.742468 179.36858 
L 29.39005 180.225994 
L 30.037632 178.745007 
L 30.685214 189.345753 
L 31.332796 191.917993 
L 31.980379 168.300155 
L 32.627961 162.765942 
L 33.275543 168.144262 
L 33.923125 163.545409 
L 34.570707 178.822954 
L 35.21829 185.058687 
L 35.865872 188.644233 
L 36.513454 187.163246 
L 37.161036 173.756421 
L 37.808618 172.665168 
L 38.456201 167.598635 
L 39.103783 195.425592 
L 39.751365 206.026338 
L 40.398947 201.115698 
L 41.046529 199.167032 
L 41.694112 201.505432 
L 42.341694 199.946498 
L 42.989276 190.982633 
L 43.636858 197.374259 
L 44.28444 205.246871 
L 44.932023 192.385672 
L 46.227187 194.568179 
L 46.874769 203.921778 
L 47.522351 208.988311 
L 48.817516 199.790605 
L 49.465098 207.117591 
L 50.11268 208.832418 
L 50.760263 206.961698 
L 51.407845 200.258285 
L 52.055427 212.028231 
L 52.703009 214.522524 
L 53.350591 206.338124 
L 53.998174 214.678417 
L 55.293338 211.014924 
L 55.94092 211.014924 
L 56.588502 201.895165 
L 57.236085 203.765885 
L 57.883667 201.739272 
L 58.531249 206.494018 
L 59.178831 192.775406 
L 59.826413 200.492125 
L 60.473996 205.013031 
L 61.121578 198.153725 
L 61.76916 189.969326 
L 62.416742 191.060579 
L 63.711907 181.70698 
L 64.359489 194.724072 
L 65.007071 187.708873 
L 65.654653 161.284956 
L 66.302235 179.056794 
L 66.949818 193.554872 
L 67.5974 177.809647 
L 68.244982 147.722237 
L 68.892564 155.205116 
L 69.540146 155.906636 
L 70.187729 148.735543 
L 70.835311 157.621463 
L 71.482893 124.338239 
L 72.130475 131.353438 
L 72.778057 141.330611 
L 73.42564 135.172825 
L 74.073222 118.414293 
L 74.720804 120.051173 
L 75.368386 124.727972 
L 76.015969 126.520746 
L 76.663551 113.737494 
L 77.311133 98.148162 
L 77.958715 58.005632 
L 78.606297 87.157683 
L 79.25388 91.834482 
L 79.901462 67.748965 
L 80.549044 82.870617 
L 81.196626 87.391523 
L 81.844208 115.140533 
L 82.491791 124.104399 
L 83.139373 130.340132 
L 83.786955 147.800184 
L 84.434537 141.018824 
L 85.082119 67.047445 
L 85.729702 79.28507 
L 86.377284 84.117763 
L 87.024866 104.072108 
L 87.672448 91.834482 
L 88.32003 103.214695 
L 88.967613 108.670961 
L 89.615195 140.239358 
L 90.262777 107.345868 
L 90.910359 122.077786 
L 91.557941 72.815498 
L 92.205524 92.146269 
L 92.853106 100.330668 
L 93.500688 132.132905 
L 94.14827 120.051173 
L 94.795852 116.85536 
L 95.443435 118.414293 
L 96.091017 101.655761 
L 96.738599 112.334454 
L 97.386181 103.058801 
L 98.033763 123.246986 
L 98.681346 135.718451 
L 99.328928 141.018824 
L 99.97651 129.404772 
L 100.624092 126.520746 
L 101.271674 132.132905 
L 101.919257 149.74885 
L 102.566839 143.980797 
L 103.214421 148.501703 
L 103.862003 174.925621 
L 104.509586 167.053008 
L 105.157168 172.197488 
L 105.80475 172.743114 
L 106.452332 168.222208 
L 107.747497 168.222208 
L 108.395079 142.499811 
L 109.042661 130.340132 
L 109.690243 136.497918 
L 110.337825 166.975062 
L 110.985408 167.364795 
L 111.63299 150.138583 
L 112.280572 174.691781 
L 112.928154 174.068208 
L 113.575736 179.212687 
L 114.223319 183.187967 
L 114.870901 197.218365 
L 115.518483 197.763992 
L 116.166065 192.229779 
L 116.813647 196.672739 
L 117.46123 186.539673 
L 118.108812 184.27922 
L 118.756394 172.119541 
L 119.403976 192.931299 
L 120.051558 196.360952 
L 120.699141 197.686045 
L 121.346723 188.176553 
L 121.994305 194.256392 
L 122.641887 211.872337 
L 123.289469 207.117591 
L 123.937052 193.243086 
L 124.584634 205.168925 
L 125.232216 197.919885 
L 125.879798 208.208844 
L 126.52738 196.594792 
L 127.174963 199.868552 
L 127.822545 208.520631 
L 128.470127 213.66511 
L 129.117709 212.96359 
L 129.765292 214.756364 
L 130.412874 214.522524 
L 131.060456 206.416071 
L 131.708038 213.509217 
L 132.35562 214.288684 
L 133.003203 214.756364 
L 133.650785 211.170817 
L 134.298367 208.364738 
L 134.945949 213.743057 
L 135.593531 209.455991 
L 136.241114 207.741164 
L 136.888696 208.988311 
L 137.536278 196.906579 
L 138.18386 198.699352 
L 138.831442 211.092871 
L 139.479025 206.104284 
L 140.126607 192.385672 
L 140.774189 190.203166 
L 141.421771 194.100499 
L 142.069353 183.187967 
L 142.716936 181.629034 
L 143.364518 169.313461 
L 144.0121 145.383837 
L 144.659682 154.971276 
L 145.307264 157.543516 
L 145.954847 118.2584 
L 146.602429 122.623413 
L 147.250011 128.625305 
L 147.897593 108.437121 
L 148.545175 124.026453 
L 149.192758 114.28312 
L 149.84034 82.714723 
L 150.487922 79.908644 
L 151.135504 93.861095 
L 151.783086 58.005632 
L 152.430669 65.176725 
L 153.078251 86.30027 
L 153.725833 113.425707 
L 154.373415 92.224216 
L 155.020998 78.34971 
L 155.66858 86.612056 
L 156.316162 58.473312 
L 156.963744 68.996111 
L 157.611326 91.756536 
L 158.258909 31.114035 
L 158.906491 17.083636 
L 159.554073 50.522753 
L 160.201655 28.307955 
L 161.49682 86.378216 
L 162.144402 66.267978 
L 162.791984 62.136805 
L 163.439566 78.271764 
L 164.087148 81.233737 
L 164.734731 65.722352 
L 165.382313 58.863046 
L 166.029895 58.083579 
L 166.677477 73.439071 
L 167.325059 96.199495 
L 168.620224 45.45622 
L 169.267806 103.370588 
L 169.915388 70.165311 
L 170.56297 87.625363 
L 171.210553 80.844003 
L 171.858135 83.416243 
L 172.505717 98.304055 
L 173.153299 59.330726 
L 173.800881 101.733708 
L 174.448464 128.079679 
L 175.096046 118.2584 
L 175.743628 117.478933 
L 176.39121 100.876295 
L 177.038792 132.288798 
L 177.686375 135.250771 
L 178.333957 119.817333 
L 178.981539 121.688053 
L 179.629121 129.015039 
L 180.924286 110.385787 
L 181.571868 115.764107 
L 182.21945 150.372423 
L 182.867032 145.07205 
L 183.514615 148.189917 
L 184.162197 169.781141 
L 184.809779 178.978847 
L 185.457361 173.600528 
L 186.104943 167.053008 
L 186.752526 175.159461 
L 187.400108 154.581543 
L 188.04769 160.193702 
L 188.695272 171.340075 
L 189.342854 165.338182 
L 189.990437 185.526367 
L 190.638019 189.501646 
L 191.285601 183.733593 
L 191.933183 184.7469 
L 192.580765 175.705087 
L 193.228348 179.36858 
L 193.87593 178.745007 
L 194.523512 180.849567 
L 195.171094 182.17466 
L 195.818676 197.919885 
L 196.466259 197.919885 
L 197.113841 174.925621 
L 198.409005 193.944606 
L 199.70417 199.478818 
L 200.351752 195.893272 
L 200.999334 201.583378 
L 202.294498 181.395194 
L 202.942081 186.929406 
L 203.589663 199.634712 
L 204.237245 189.033966 
L 204.884827 184.668953 
L 205.53241 187.397086 
L 206.179992 196.672739 
L 206.827574 203.298205 
L 207.475156 202.986418 
L 208.122738 201.115698 
L 208.770321 202.051058 
L 209.417903 208.208844 
L 210.065485 207.507324 
L 210.713067 207.819111 
L 211.360649 212.495911 
L 212.008232 207.663218 
L 212.655814 211.248764 
L 213.950978 209.144204 
L 214.59856 203.142311 
L 215.246143 201.271592 
L 215.893725 203.843831 
L 216.541307 205.792498 
L 217.188889 209.611884 
L 217.836471 196.127112 
L 218.484054 202.518738 
L 219.131636 205.636605 
L 219.779218 207.975004 
L 220.4268 201.817218 
L 221.074382 199.244978 
L 221.721965 202.596685 
L 222.369547 201.661325 
L 223.017129 192.931299 
L 223.664711 195.893272 
L 224.312293 195.191752 
L 224.959876 176.952234 
L 225.607458 179.60242 
L 226.25504 177.731701 
L 226.902622 170.716501 
L 227.550204 175.003568 
L 228.197787 175.783034 
L 228.845369 170.326768 
L 229.492951 170.326768 
L 230.140533 160.037809 
L 230.788116 128.469412 
L 231.435698 141.954184 
L 232.08328 127.767892 
L 232.730862 160.739329 
L 233.378444 147.488397 
L 234.026027 162.454155 
L 234.673609 143.591064 
L 235.321191 131.353438 
L 235.968773 155.049223 
L 236.616355 146.163304 
L 237.263938 141.408557 
L 237.91152 116.38768 
L 238.559102 119.973226 
L 239.206684 127.689946 
L 239.854266 143.045437 
L 240.501849 151.61957 
L 241.149431 115.764107 
L 242.444595 140.005518 
L 243.092177 129.716559 
L 243.73976 123.558773 
L 244.387342 130.963705 
L 245.034924 147.87813 
L 245.682506 129.326825 
L 246.330088 133.535945 
L 247.625253 109.060694 
L 248.272835 131.665225 
L 248.920417 121.376266 
L 249.567999 132.288798 
L 250.215582 139.459891 
L 250.863164 138.524531 
L 251.510746 143.746957 
L 252.158328 140.317304 
L 252.80591 142.032131 
L 253.453493 138.602478 
L 254.101075 128.001732 
L 254.748657 115.296427 
L 255.396239 134.705145 
L 256.043822 129.560665 
L 256.691404 115.530267 
L 257.338986 131.665225 
L 257.986568 127.222266 
L 258.63415 142.421864 
L 259.281733 137.355331 
L 259.929315 147.41045 
L 260.576897 140.707038 
L 261.224479 149.826797 
L 261.872061 143.746957 
L 262.519644 153.334396 
L 263.167226 167.598635 
L 263.814808 158.946556 
L 264.46239 170.092928 
L 265.109972 176.094821 
L 265.757555 151.775463 
L 266.405137 167.053008 
L 267.052719 175.783034 
L 267.700301 174.613834 
L 268.347883 165.649968 
L 268.995466 150.840103 
L 269.643048 166.975062 
L 270.29063 146.00741 
L 270.938212 152.476983 
L 271.585794 165.649968 
L 272.233377 152.165196 
L 272.880959 146.319197 
L 273.528541 155.283063 
L 274.176123 155.049223 
L 274.823705 165.026395 
L 275.471288 167.130955 
L 276.11887 182.486447 
L 276.766452 179.60242 
L 277.414034 181.083407 
L 278.061616 181.47314 
L 278.709199 179.056794 
L 279.356781 169.937035 
L 280.004363 181.862874 
L 280.651945 184.123327 
L 281.299527 196.906579 
L 281.94711 194.957912 
L 282.594692 168.689888 
L 283.242274 190.982633 
L 283.889856 196.283005 
L 284.537439 196.750685 
L 285.185021 193.398979 
L 285.832603 194.646126 
L 286.480185 198.309619 
L 287.127767 183.499753 
L 287.77535 184.123327 
L 288.422932 186.85146 
L 289.070514 171.418021 
L 289.718096 188.72218 
L 291.013261 178.199381 
L 291.660843 195.425592 
L 292.308425 198.933192 
L 292.956007 200.180338 
L 293.603589 205.948391 
L 294.251172 205.948391 
L 294.898754 210.936977 
L 295.546336 207.897058 
L 296.193918 206.026338 
L 296.8415 192.931299 
L 297.489083 183.967433 
L 298.136665 204.077671 
L 298.784247 207.819111 
L 299.431829 199.790605 
L 300.079411 208.832418 
L 300.726994 208.598578 
L 301.374576 211.560551 
L 302.022158 197.841939 
L 302.66974 200.258285 
L 303.317322 205.246871 
L 303.964905 205.402765 
L 304.612487 213.43127 
L 305.260069 202.129005 
L 305.907651 204.389458 
L 306.555233 198.855245 
L 307.202816 210.859031 
L 307.850398 202.986418 
L 308.49798 202.129005 
L 309.145562 196.906579 
L 309.793145 208.130898 
L 310.440727 204.857138 
L 311.088309 200.414178 
L 311.735891 184.902793 
L 312.383473 198.231672 
L 313.031056 191.450313 
L 313.678638 180.615727 
L 314.32622 180.77162 
L 314.973802 192.229779 
L 315.621384 181.2393 
L 316.268967 174.457941 
L 316.916549 141.954184 
L 317.564131 155.283063 
L 318.211713 137.199438 
L 318.859295 150.45037 
L 319.506878 140.784984 
L 320.15446 160.037809 
L 320.802042 169.625248 
L 321.449624 107.189974 
L 322.097206 117.400987 
L 322.744789 138.602478 
L 323.392371 119.271706 
L 324.039953 85.053123 
L 324.687535 107.735601 
L 325.335117 107.345868 
L 325.9827 135.796398 
L 326.630282 110.151947 
L 327.277864 98.382002 
L 327.925446 90.665282 
L 328.573028 104.072108 
L 329.220611 68.060751 
L 329.868193 69.775578 
L 330.515775 72.036031 
L 331.163357 77.492297 
L 331.810939 90.509389 
L 332.458522 94.094935 
L 333.106104 116.543573 
L 333.753686 87.00179 
L 334.401268 74.686217 
L 335.696433 108.670961 
L 336.344015 109.372481 
L 336.991597 94.094935 
L 337.639179 86.53411 
L 338.286762 99.629148 
L 338.934344 78.973284 
L 339.581926 126.053066 
L 340.229508 104.773628 
L 340.87709 109.294534 
L 341.524673 93.003682 
L 342.172255 115.530267 
L 342.819837 144.760264 
L 343.467419 102.824961 
L 344.115001 91.210909 
L 344.762584 84.507496 
L 345.410166 88.326883 
L 346.057748 107.735601 
L 346.70533 97.914322 
L 347.352912 128.235572 
L 348.000495 87.391523 
L 348.648077 95.030295 
L 349.295659 119.817333 
L 349.943241 150.840103 
L 350.590823 128.859145 
L 351.238406 132.210852 
L 351.885988 131.041652 
L 352.53357 122.311626 
L 353.181152 141.096771 
L 353.828734 138.446584 
L 354.476317 115.92 
L 355.123899 149.203223 
L 355.771481 175.159461 
L 357.714228 137.589171 
L 359.009392 150.840103 
L 359.656974 158.946556 
L 360.304557 175.705087 
L 360.952139 171.418021 
L 361.599721 188.95602 
L 362.247303 188.878073 
L 362.247303 188.878073 
" style="fill:none;stroke:#000000;stroke-linecap:square;stroke-width:1.3;"/>
   </g>
   <g id="line2d_22">
    <path clip-path="url(#p5fcc61f20c)" d="M 49.465098 149.086482 
L 55.94092 160.104689 
L 62.416742 172.589914 
L 68.892564 210.78081 
L 75.368386 210.942052 
L 81.844208 210.936479 
L 88.32003 210.399153 
L 94.795852 140.413365 
L 101.271674 111.979548 
L 107.747497 116.279887 
L 114.223319 112.862293 
L 120.699141 112.47605 
L 127.174963 145.625352 
L 133.650785 147.38525 
L 140.126607 210.3931 
L 146.602429 210.845378 
L 153.078251 210.971606 
L 159.554073 210.977519 
L 166.029895 210.428913 
L 172.505717 114.160318 
L 178.981539 111.506076 
L 185.457361 111.033025 
L 191.933183 111.101019 
L 198.409005 112.236595 
L 204.884827 113.360206 
L 211.360649 153.313505 
L 217.836471 168.473944 
L 224.312293 210.754816 
L 230.788116 210.76673 
L 237.263938 210.969331 
L 243.73976 210.912733 
L 250.215582 172.173073 
L 256.691404 142.165088 
L 263.167226 123.358757 
L 269.643048 121.299735 
L 276.11887 127.90358 
L 282.594692 120.987224 
L 289.070514 151.131564 
L 295.546336 149.164066 
L 302.022158 162.564838 
L 308.49798 210.522559 
L 314.973802 209.280122 
L 321.449624 210.850502 
L 327.925446 210.945002 
L 334.401268 210.899569 
L 340.87709 155.017152 
L 347.352912 113.269525 
L 353.828734 111.416549 
L 360.304557 111.872806 
" style="fill:none;stroke:#003dfd;stroke-linecap:square;stroke-width:1.3;"/>
   </g>
   <g id="line2d_23">
    <path clip-path="url(#p5fcc61f20c)" d="M 49.465098 154.805836 
L 55.94092 170.285212 
L 62.416742 183.154019 
L 68.892564 195.320848 
L 75.368386 208.718938 
L 81.844208 204.995347 
L 88.32003 189.085887 
L 94.795852 139.231212 
L 101.271674 80.823754 
L 107.747497 138.031091 
L 114.223319 118.727485 
L 120.699141 106.169427 
L 127.174963 160.822948 
L 133.650785 153.472249 
L 140.126607 194.190182 
L 146.602429 205.228881 
L 153.078251 214.001805 
L 159.554073 209.36528 
L 166.029895 185.085186 
L 172.505717 116.86659 
L 178.981539 84.498722 
L 185.457361 65.750839 
L 191.933183 58.871881 
L 198.409005 113.505089 
L 204.884827 115.413342 
L 211.360649 161.417417 
L 217.836471 179.443729 
L 224.312293 199.221758 
L 230.788116 201.655396 
L 237.263938 209.846119 
L 243.73976 203.810312 
L 250.215582 175.118187 
L 256.691404 147.230767 
L 263.167226 134.863959 
L 269.643048 134.091376 
L 276.11887 141.174315 
L 282.594692 136.02143 
L 289.070514 160.693565 
L 295.546336 154.922132 
L 302.022158 179.856496 
L 308.49798 194.545751 
L 314.973802 188.894978 
L 321.449624 198.105783 
L 327.925446 209.274568 
L 334.401268 201.673188 
L 340.87709 157.263565 
L 347.352912 103.713283 
L 353.828734 73.190743 
L 360.304557 98.003498 
" style="fill:none;stroke:#b512b8;stroke-linecap:square;stroke-width:1.3;"/>
   </g>
   <g id="legend_1">
    <g id="line2d_24">
     <path d="M 245.503553 20.298437 
L 265.503553 20.298437 
" style="fill:none;stroke:#000000;stroke-linecap:square;stroke-width:1.3;"/>
    </g>
    <g id="line2d_25"/>
    <g id="text_16">
     <!-- actual -->
     <defs>
      <path d="M 34.28125 27.484375 
Q 23.390625 27.484375 19.1875 25 
Q 14.984375 22.515625 14.984375 16.5 
Q 14.984375 11.71875 18.140625 8.90625 
Q 21.296875 6.109375 26.703125 6.109375 
Q 34.1875 6.109375 38.703125 11.40625 
Q 43.21875 16.703125 43.21875 25.484375 
L 43.21875 27.484375 
z
M 52.203125 31.203125 
L 52.203125 0 
L 43.21875 0 
L 43.21875 8.296875 
Q 40.140625 3.328125 35.546875 0.953125 
Q 30.953125 -1.421875 24.3125 -1.421875 
Q 15.921875 -1.421875 10.953125 3.296875 
Q 6 8.015625 6 15.921875 
Q 6 25.140625 12.171875 29.828125 
Q 18.359375 34.515625 30.609375 34.515625 
L 43.21875 34.515625 
L 43.21875 35.40625 
Q 43.21875 41.609375 39.140625 45 
Q 35.0625 48.390625 27.6875 48.390625 
Q 23 48.390625 18.546875 47.265625 
Q 14.109375 46.140625 10.015625 43.890625 
L 10.015625 52.203125 
Q 14.9375 54.109375 19.578125 55.046875 
Q 24.21875 56 28.609375 56 
Q 40.484375 56 46.34375 49.84375 
Q 52.203125 43.703125 52.203125 31.203125 
z
" id="DejaVuSans-97"/>
      <path d="M 48.78125 52.59375 
L 48.78125 44.1875 
Q 44.96875 46.296875 41.140625 47.34375 
Q 37.3125 48.390625 33.40625 48.390625 
Q 24.65625 48.390625 19.8125 42.84375 
Q 14.984375 37.3125 14.984375 27.296875 
Q 14.984375 17.28125 19.8125 11.734375 
Q 24.65625 6.203125 33.40625 6.203125 
Q 37.3125 6.203125 41.140625 7.25 
Q 44.96875 8.296875 48.78125 10.40625 
L 48.78125 2.09375 
Q 45.015625 0.34375 40.984375 -0.53125 
Q 36.96875 -1.421875 32.421875 -1.421875 
Q 20.0625 -1.421875 12.78125 6.34375 
Q 5.515625 14.109375 5.515625 27.296875 
Q 5.515625 40.671875 12.859375 48.328125 
Q 20.21875 56 33.015625 56 
Q 37.15625 56 41.109375 55.140625 
Q 45.0625 54.296875 48.78125 52.59375 
z
" id="DejaVuSans-99"/>
      <path d="M 18.3125 70.21875 
L 18.3125 54.6875 
L 36.8125 54.6875 
L 36.8125 47.703125 
L 18.3125 47.703125 
L 18.3125 18.015625 
Q 18.3125 11.328125 20.140625 9.421875 
Q 21.96875 7.515625 27.59375 7.515625 
L 36.8125 7.515625 
L 36.8125 0 
L 27.59375 0 
Q 17.1875 0 13.234375 3.875 
Q 9.28125 7.765625 9.28125 18.015625 
L 9.28125 47.703125 
L 2.6875 47.703125 
L 2.6875 54.6875 
L 9.28125 54.6875 
L 9.28125 70.21875 
z
" id="DejaVuSans-116"/>
      <path d="M 8.5 21.578125 
L 8.5 54.6875 
L 17.484375 54.6875 
L 17.484375 21.921875 
Q 17.484375 14.15625 20.5 10.265625 
Q 23.53125 6.390625 29.59375 6.390625 
Q 36.859375 6.390625 41.078125 11.03125 
Q 45.3125 15.671875 45.3125 23.6875 
L 45.3125 54.6875 
L 54.296875 54.6875 
L 54.296875 0 
L 45.3125 0 
L 45.3125 8.40625 
Q 42.046875 3.421875 37.71875 1 
Q 33.40625 -1.421875 27.6875 -1.421875 
Q 18.265625 -1.421875 13.375 4.4375 
Q 8.5 10.296875 8.5 21.578125 
z
M 31.109375 56 
z
" id="DejaVuSans-117"/>
      <path d="M 9.421875 75.984375 
L 18.40625 75.984375 
L 18.40625 0 
L 9.421875 0 
z
" id="DejaVuSans-108"/>
     </defs>
     <g transform="translate(273.503553 23.798437)scale(0.1 -0.1)">
      <use xlink:href="#DejaVuSans-97"/>
      <use x="61.279297" xlink:href="#DejaVuSans-99"/>
      <use x="116.259766" xlink:href="#DejaVuSans-116"/>
      <use x="155.46875" xlink:href="#DejaVuSans-117"/>
      <use x="218.847656" xlink:href="#DejaVuSans-97"/>
      <use x="280.126953" xlink:href="#DejaVuSans-108"/>
     </g>
    </g>
    <g id="line2d_26">
     <path d="M 245.503553 34.976562 
L 265.503553 34.976562 
" style="fill:none;stroke:#003dfd;stroke-linecap:square;stroke-width:1.3;"/>
    </g>
    <g id="line2d_27"/>
    <g id="text_17">
     <!-- our Transformer -->
     <defs>
      <path d="M 30.609375 48.390625 
Q 23.390625 48.390625 19.1875 42.75 
Q 14.984375 37.109375 14.984375 27.296875 
Q 14.984375 17.484375 19.15625 11.84375 
Q 23.34375 6.203125 30.609375 6.203125 
Q 37.796875 6.203125 41.984375 11.859375 
Q 46.1875 17.53125 46.1875 27.296875 
Q 46.1875 37.015625 41.984375 42.703125 
Q 37.796875 48.390625 30.609375 48.390625 
z
M 30.609375 56 
Q 42.328125 56 49.015625 48.375 
Q 55.71875 40.765625 55.71875 27.296875 
Q 55.71875 13.875 49.015625 6.21875 
Q 42.328125 -1.421875 30.609375 -1.421875 
Q 18.84375 -1.421875 12.171875 6.21875 
Q 5.515625 13.875 5.515625 27.296875 
Q 5.515625 40.765625 12.171875 48.375 
Q 18.84375 56 30.609375 56 
z
" id="DejaVuSans-111"/>
      <path d="M 41.109375 46.296875 
Q 39.59375 47.171875 37.8125 47.578125 
Q 36.03125 48 33.890625 48 
Q 26.265625 48 22.1875 43.046875 
Q 18.109375 38.09375 18.109375 28.8125 
L 18.109375 0 
L 9.078125 0 
L 9.078125 54.6875 
L 18.109375 54.6875 
L 18.109375 46.1875 
Q 20.953125 51.171875 25.484375 53.578125 
Q 30.03125 56 36.53125 56 
Q 37.453125 56 38.578125 55.875 
Q 39.703125 55.765625 41.0625 55.515625 
z
" id="DejaVuSans-114"/>
      <path id="DejaVuSans-32"/>
      <path d="M -0.296875 72.90625 
L 61.375 72.90625 
L 61.375 64.59375 
L 35.5 64.59375 
L 35.5 0 
L 25.59375 0 
L 25.59375 64.59375 
L -0.296875 64.59375 
z
" id="DejaVuSans-84"/>
      <path d="M 54.890625 33.015625 
L 54.890625 0 
L 45.90625 0 
L 45.90625 32.71875 
Q 45.90625 40.484375 42.875 44.328125 
Q 39.84375 48.1875 33.796875 48.1875 
Q 26.515625 48.1875 22.3125 43.546875 
Q 18.109375 38.921875 18.109375 30.90625 
L 18.109375 0 
L 9.078125 0 
L 9.078125 54.6875 
L 18.109375 54.6875 
L 18.109375 46.1875 
Q 21.34375 51.125 25.703125 53.5625 
Q 30.078125 56 35.796875 56 
Q 45.21875 56 50.046875 50.171875 
Q 54.890625 44.34375 54.890625 33.015625 
z
" id="DejaVuSans-110"/>
      <path d="M 44.28125 53.078125 
L 44.28125 44.578125 
Q 40.484375 46.53125 36.375 47.5 
Q 32.28125 48.484375 27.875 48.484375 
Q 21.1875 48.484375 17.84375 46.4375 
Q 14.5 44.390625 14.5 40.28125 
Q 14.5 37.15625 16.890625 35.375 
Q 19.28125 33.59375 26.515625 31.984375 
L 29.59375 31.296875 
Q 39.15625 29.25 43.1875 25.515625 
Q 47.21875 21.78125 47.21875 15.09375 
Q 47.21875 7.46875 41.1875 3.015625 
Q 35.15625 -1.421875 24.609375 -1.421875 
Q 20.21875 -1.421875 15.453125 -0.5625 
Q 10.6875 0.296875 5.421875 2 
L 5.421875 11.28125 
Q 10.40625 8.6875 15.234375 7.390625 
Q 20.0625 6.109375 24.8125 6.109375 
Q 31.15625 6.109375 34.5625 8.28125 
Q 37.984375 10.453125 37.984375 14.40625 
Q 37.984375 18.0625 35.515625 20.015625 
Q 33.0625 21.96875 24.703125 23.78125 
L 21.578125 24.515625 
Q 13.234375 26.265625 9.515625 29.90625 
Q 5.8125 33.546875 5.8125 39.890625 
Q 5.8125 47.609375 11.28125 51.796875 
Q 16.75 56 26.8125 56 
Q 31.78125 56 36.171875 55.265625 
Q 40.578125 54.546875 44.28125 53.078125 
z
" id="DejaVuSans-115"/>
      <path d="M 37.109375 75.984375 
L 37.109375 68.5 
L 28.515625 68.5 
Q 23.6875 68.5 21.796875 66.546875 
Q 19.921875 64.59375 19.921875 59.515625 
L 19.921875 54.6875 
L 34.71875 54.6875 
L 34.71875 47.703125 
L 19.921875 47.703125 
L 19.921875 0 
L 10.890625 0 
L 10.890625 47.703125 
L 2.296875 47.703125 
L 2.296875 54.6875 
L 10.890625 54.6875 
L 10.890625 58.5 
Q 10.890625 67.625 15.140625 71.796875 
Q 19.390625 75.984375 28.609375 75.984375 
z
" id="DejaVuSans-102"/>
      <path d="M 52 44.1875 
Q 55.375 50.25 60.0625 53.125 
Q 64.75 56 71.09375 56 
Q 79.640625 56 84.28125 50.015625 
Q 88.921875 44.046875 88.921875 33.015625 
L 88.921875 0 
L 79.890625 0 
L 79.890625 32.71875 
Q 79.890625 40.578125 77.09375 44.375 
Q 74.3125 48.1875 68.609375 48.1875 
Q 61.625 48.1875 57.5625 43.546875 
Q 53.515625 38.921875 53.515625 30.90625 
L 53.515625 0 
L 44.484375 0 
L 44.484375 32.71875 
Q 44.484375 40.625 41.703125 44.40625 
Q 38.921875 48.1875 33.109375 48.1875 
Q 26.21875 48.1875 22.15625 43.53125 
Q 18.109375 38.875 18.109375 30.90625 
L 18.109375 0 
L 9.078125 0 
L 9.078125 54.6875 
L 18.109375 54.6875 
L 18.109375 46.1875 
Q 21.1875 51.21875 25.484375 53.609375 
Q 29.78125 56 35.6875 56 
Q 41.65625 56 45.828125 52.96875 
Q 50 49.953125 52 44.1875 
z
" id="DejaVuSans-109"/>
      <path d="M 56.203125 29.59375 
L 56.203125 25.203125 
L 14.890625 25.203125 
Q 15.484375 15.921875 20.484375 11.0625 
Q 25.484375 6.203125 34.421875 6.203125 
Q 39.59375 6.203125 44.453125 7.46875 
Q 49.3125 8.734375 54.109375 11.28125 
L 54.109375 2.78125 
Q 49.265625 0.734375 44.1875 -0.34375 
Q 39.109375 -1.421875 33.890625 -1.421875 
Q 20.796875 -1.421875 13.15625 6.1875 
Q 5.515625 13.8125 5.515625 26.8125 
Q 5.515625 40.234375 12.765625 48.109375 
Q 20.015625 56 32.328125 56 
Q 43.359375 56 49.78125 48.890625 
Q 56.203125 41.796875 56.203125 29.59375 
z
M 47.21875 32.234375 
Q 47.125 39.59375 43.09375 43.984375 
Q 39.0625 48.390625 32.421875 48.390625 
Q 24.90625 48.390625 20.390625 44.140625 
Q 15.875 39.890625 15.1875 32.171875 
z
" id="DejaVuSans-101"/>
     </defs>
     <g transform="translate(273.503553 38.476562)scale(0.1 -0.1)">
      <use xlink:href="#DejaVuSans-111"/>
      <use x="61.181641" xlink:href="#DejaVuSans-117"/>
      <use x="124.560547" xlink:href="#DejaVuSans-114"/>
      <use x="165.673828" xlink:href="#DejaVuSans-32"/>
      <use x="197.460938" xlink:href="#DejaVuSans-84"/>
      <use x="243.794922" xlink:href="#DejaVuSans-114"/>
      <use x="284.908203" xlink:href="#DejaVuSans-97"/>
      <use x="346.1875" xlink:href="#DejaVuSans-110"/>
      <use x="409.566406" xlink:href="#DejaVuSans-115"/>
      <use x="461.666016" xlink:href="#DejaVuSans-102"/>
      <use x="496.871094" xlink:href="#DejaVuSans-111"/>
      <use x="558.052734" xlink:href="#DejaVuSans-114"/>
      <use x="597.416016" xlink:href="#DejaVuSans-109"/>
      <use x="694.828125" xlink:href="#DejaVuSans-101"/>
      <use x="756.351562" xlink:href="#DejaVuSans-114"/>
     </g>
    </g>
    <g id="line2d_28">
     <path d="M 245.503553 49.654687 
L 265.503553 49.654687 
" style="fill:none;stroke:#b512b8;stroke-linecap:square;stroke-width:1.3;"/>
    </g>
    <g id="line2d_29"/>
    <g id="text_18">
     <!-- ETS -->
     <defs>
      <path d="M 9.8125 72.90625 
L 55.90625 72.90625 
L 55.90625 64.59375 
L 19.671875 64.59375 
L 19.671875 43.015625 
L 54.390625 43.015625 
L 54.390625 34.71875 
L 19.671875 34.71875 
L 19.671875 8.296875 
L 56.78125 8.296875 
L 56.78125 0 
L 9.8125 0 
z
" id="DejaVuSans-69"/>
      <path d="M 53.515625 70.515625 
L 53.515625 60.890625 
Q 47.90625 63.578125 42.921875 64.890625 
Q 37.9375 66.21875 33.296875 66.21875 
Q 25.25 66.21875 20.875 63.09375 
Q 16.5 59.96875 16.5 54.203125 
Q 16.5 49.359375 19.40625 46.890625 
Q 22.3125 44.4375 30.421875 42.921875 
L 36.375 41.703125 
Q 47.40625 39.59375 52.65625 34.296875 
Q 57.90625 29 57.90625 20.125 
Q 57.90625 9.515625 50.796875 4.046875 
Q 43.703125 -1.421875 29.984375 -1.421875 
Q 24.8125 -1.421875 18.96875 -0.25 
Q 13.140625 0.921875 6.890625 3.21875 
L 6.890625 13.375 
Q 12.890625 10.015625 18.65625 8.296875 
Q 24.421875 6.59375 29.984375 6.59375 
Q 38.421875 6.59375 43.015625 9.90625 
Q 47.609375 13.234375 47.609375 19.390625 
Q 47.609375 24.75 44.3125 27.78125 
Q 41.015625 30.8125 33.5 32.328125 
L 27.484375 33.5 
Q 16.453125 35.6875 11.515625 40.375 
Q 6.59375 45.0625 6.59375 53.421875 
Q 6.59375 63.09375 13.40625 68.65625 
Q 20.21875 74.21875 32.171875 74.21875 
Q 37.3125 74.21875 42.625 73.28125 
Q 47.953125 72.359375 53.515625 70.515625 
z
" id="DejaVuSans-83"/>
     </defs>
     <g transform="translate(273.503553 53.154687)scale(0.1 -0.1)">
      <use xlink:href="#DejaVuSans-69"/>
      <use x="63.183594" xlink:href="#DejaVuSans-84"/>
      <use x="124.267578" xlink:href="#DejaVuSans-83"/>
     </g>
    </g>
   </g>
  </g>
 </g>
 <defs>
  <clipPath id="p5fcc61f20c">
   <rect height="217.44" width="334.8" x="27.447303" y="7.2"/>
  </clipPath>
 </defs>
</svg>
