<?xml version="1.0" encoding="utf-8" standalone="no"?>
<!DOCTYPE svg PUBLIC "-//W3C//DTD SVG 1.1//EN"
  "http://www.w3.org/Graphics/SVG/1.1/DTD/svg11.dtd">
<!-- Created with matplotlib (https://matplotlib.org/) -->
<svg height="314.940003pt" version="1.1" viewBox="0 0 483.699887 314.940003" width="483.699887pt" xmlns="http://www.w3.org/2000/svg" xmlns:xlink="http://www.w3.org/1999/xlink">
 <defs>
  <style type="text/css">
*{stroke-linecap:butt;stroke-linejoin:round;}
  </style>
 </defs>
 <g id="figure_1">
  <g id="patch_1">
   <path d="M 0 314.940003 
L 483.699887 314.940003 
L 483.699887 0 
L 0 0 
z
" style="fill:none;"/>
  </g>
  <g id="axes_1">
   <g id="patch_2">
    <path d="M 30.099888 279 
L 476.499887 279 
L 476.499887 7.2 
L 30.099888 7.2 
z
" style="fill:#ffffff;"/>
   </g>
   <g id="matplotlib.axis_1">
    <g id="xtick_1">
     <g id="line2d_1">
      <path clip-path="url(#p7e3fca58d6)" d="M 30.099888 279 
L 30.099888 7.2 
" style="fill:none;stroke:#dedede;stroke-linecap:square;stroke-width:0.8;"/>
     </g>
     <g id="text_1">
      <!-- 1949 -->
      <defs>
       <path d="M 12.40625 8.296875 
L 28.515625 8.296875 
L 28.515625 63.921875 
L 10.984375 60.40625 
L 10.984375 69.390625 
L 28.421875 72.90625 
L 38.28125 72.90625 
L 38.28125 8.296875 
L 54.390625 8.296875 
L 54.390625 0 
L 12.40625 0 
z
" id="DejaVuSans-49"/>
       <path d="M 10.984375 1.515625 
L 10.984375 10.5 
Q 14.703125 8.734375 18.5 7.8125 
Q 22.3125 6.890625 25.984375 6.890625 
Q 35.75 6.890625 40.890625 13.453125 
Q 46.046875 20.015625 46.78125 33.40625 
Q 43.953125 29.203125 39.59375 26.953125 
Q 35.25 24.703125 29.984375 24.703125 
Q 19.046875 24.703125 12.671875 31.3125 
Q 6.296875 37.9375 6.296875 49.421875 
Q 6.296875 60.640625 12.9375 67.421875 
Q 19.578125 74.21875 30.609375 74.21875 
Q 43.265625 74.21875 49.921875 64.515625 
Q 56.59375 54.828125 56.59375 36.375 
Q 56.59375 19.140625 48.40625 8.859375 
Q 40.234375 -1.421875 26.421875 -1.421875 
Q 22.703125 -1.421875 18.890625 -0.6875 
Q 15.09375 0.046875 10.984375 1.515625 
z
M 30.609375 32.421875 
Q 37.25 32.421875 41.125 36.953125 
Q 45.015625 41.5 45.015625 49.421875 
Q 45.015625 57.28125 41.125 61.84375 
Q 37.25 66.40625 30.609375 66.40625 
Q 23.96875 66.40625 20.09375 61.84375 
Q 16.21875 57.28125 16.21875 49.421875 
Q 16.21875 41.5 20.09375 36.953125 
Q 23.96875 32.421875 30.609375 32.421875 
z
" id="DejaVuSans-57"/>
       <path d="M 37.796875 64.3125 
L 12.890625 25.390625 
L 37.796875 25.390625 
z
M 35.203125 72.90625 
L 47.609375 72.90625 
L 47.609375 25.390625 
L 58.015625 25.390625 
L 58.015625 17.1875 
L 47.609375 17.1875 
L 47.609375 0 
L 37.796875 0 
L 37.796875 17.1875 
L 4.890625 17.1875 
L 4.890625 26.703125 
z
" id="DejaVuSans-52"/>
      </defs>
      <g style="fill:#333333;" transform="translate(19.499963 292.329498)scale(0.0833 -0.0833)">
       <use xlink:href="#DejaVuSans-49"/>
       <use x="63.623047" xlink:href="#DejaVuSans-57"/>
       <use x="127.246094" xlink:href="#DejaVuSans-52"/>
       <use x="190.869141" xlink:href="#DejaVuSans-57"/>
      </g>
     </g>
    </g>
    <g id="xtick_2">
     <g id="line2d_2">
      <path clip-path="url(#p7e3fca58d6)" d="M 105.020167 279 
L 105.020167 7.2 
" style="fill:none;stroke:#dedede;stroke-linecap:square;stroke-width:0.8;"/>
     </g>
     <g id="text_2">
      <!-- 1951 -->
      <defs>
       <path d="M 10.796875 72.90625 
L 49.515625 72.90625 
L 49.515625 64.59375 
L 19.828125 64.59375 
L 19.828125 46.734375 
Q 21.96875 47.46875 24.109375 47.828125 
Q 26.265625 48.1875 28.421875 48.1875 
Q 40.625 48.1875 47.75 41.5 
Q 54.890625 34.8125 54.890625 23.390625 
Q 54.890625 11.625 47.5625 5.09375 
Q 40.234375 -1.421875 26.90625 -1.421875 
Q 22.3125 -1.421875 17.546875 -0.640625 
Q 12.796875 0.140625 7.71875 1.703125 
L 7.71875 11.625 
Q 12.109375 9.234375 16.796875 8.0625 
Q 21.484375 6.890625 26.703125 6.890625 
Q 35.15625 6.890625 40.078125 11.328125 
Q 45.015625 15.765625 45.015625 23.390625 
Q 45.015625 31 40.078125 35.4375 
Q 35.15625 39.890625 26.703125 39.890625 
Q 22.75 39.890625 18.8125 39.015625 
Q 14.890625 38.140625 10.796875 36.28125 
z
" id="DejaVuSans-53"/>
      </defs>
      <g style="fill:#333333;" transform="translate(94.420242 292.329498)scale(0.0833 -0.0833)">
       <use xlink:href="#DejaVuSans-49"/>
       <use x="63.623047" xlink:href="#DejaVuSans-57"/>
       <use x="127.246094" xlink:href="#DejaVuSans-53"/>
       <use x="190.869141" xlink:href="#DejaVuSans-49"/>
      </g>
     </g>
    </g>
    <g id="xtick_3">
     <g id="line2d_3">
      <path clip-path="url(#p7e3fca58d6)" d="M 179.940447 279 
L 179.940447 7.2 
" style="fill:none;stroke:#dedede;stroke-linecap:square;stroke-width:0.8;"/>
     </g>
     <g id="text_3">
      <!-- 1953 -->
      <defs>
       <path d="M 40.578125 39.3125 
Q 47.65625 37.796875 51.625 33 
Q 55.609375 28.21875 55.609375 21.1875 
Q 55.609375 10.40625 48.1875 4.484375 
Q 40.765625 -1.421875 27.09375 -1.421875 
Q 22.515625 -1.421875 17.65625 -0.515625 
Q 12.796875 0.390625 7.625 2.203125 
L 7.625 11.71875 
Q 11.71875 9.328125 16.59375 8.109375 
Q 21.484375 6.890625 26.8125 6.890625 
Q 36.078125 6.890625 40.9375 10.546875 
Q 45.796875 14.203125 45.796875 21.1875 
Q 45.796875 27.640625 41.28125 31.265625 
Q 36.765625 34.90625 28.71875 34.90625 
L 20.21875 34.90625 
L 20.21875 43.015625 
L 29.109375 43.015625 
Q 36.375 43.015625 40.234375 45.921875 
Q 44.09375 48.828125 44.09375 54.296875 
Q 44.09375 59.90625 40.109375 62.90625 
Q 36.140625 65.921875 28.71875 65.921875 
Q 24.65625 65.921875 20.015625 65.03125 
Q 15.375 64.15625 9.8125 62.3125 
L 9.8125 71.09375 
Q 15.4375 72.65625 20.34375 73.4375 
Q 25.25 74.21875 29.59375 74.21875 
Q 40.828125 74.21875 47.359375 69.109375 
Q 53.90625 64.015625 53.90625 55.328125 
Q 53.90625 49.265625 50.4375 45.09375 
Q 46.96875 40.921875 40.578125 39.3125 
z
" id="DejaVuSans-51"/>
      </defs>
      <g style="fill:#333333;" transform="translate(169.340522 292.329498)scale(0.0833 -0.0833)">
       <use xlink:href="#DejaVuSans-49"/>
       <use x="63.623047" xlink:href="#DejaVuSans-57"/>
       <use x="127.246094" xlink:href="#DejaVuSans-53"/>
       <use x="190.869141" xlink:href="#DejaVuSans-51"/>
      </g>
     </g>
    </g>
    <g id="xtick_4">
     <g id="line2d_4">
      <path clip-path="url(#p7e3fca58d6)" d="M 254.860727 279 
L 254.860727 7.2 
" style="fill:none;stroke:#dedede;stroke-linecap:square;stroke-width:0.8;"/>
     </g>
     <g id="text_4">
      <!-- 1955 -->
      <g style="fill:#333333;" transform="translate(244.260802 292.329498)scale(0.0833 -0.0833)">
       <use xlink:href="#DejaVuSans-49"/>
       <use x="63.623047" xlink:href="#DejaVuSans-57"/>
       <use x="127.246094" xlink:href="#DejaVuSans-53"/>
       <use x="190.869141" xlink:href="#DejaVuSans-53"/>
      </g>
     </g>
    </g>
    <g id="xtick_5">
     <g id="line2d_5">
      <path clip-path="url(#p7e3fca58d6)" d="M 329.781006 279 
L 329.781006 7.2 
" style="fill:none;stroke:#dedede;stroke-linecap:square;stroke-width:0.8;"/>
     </g>
     <g id="text_5">
      <!-- 1957 -->
      <defs>
       <path d="M 8.203125 72.90625 
L 55.078125 72.90625 
L 55.078125 68.703125 
L 28.609375 0 
L 18.3125 0 
L 43.21875 64.59375 
L 8.203125 64.59375 
z
" id="DejaVuSans-55"/>
      </defs>
      <g style="fill:#333333;" transform="translate(319.181081 292.329498)scale(0.0833 -0.0833)">
       <use xlink:href="#DejaVuSans-49"/>
       <use x="63.623047" xlink:href="#DejaVuSans-57"/>
       <use x="127.246094" xlink:href="#DejaVuSans-53"/>
       <use x="190.869141" xlink:href="#DejaVuSans-55"/>
      </g>
     </g>
    </g>
    <g id="xtick_6">
     <g id="line2d_6">
      <path clip-path="url(#p7e3fca58d6)" d="M 404.701286 279 
L 404.701286 7.2 
" style="fill:none;stroke:#dedede;stroke-linecap:square;stroke-width:0.8;"/>
     </g>
     <g id="text_6">
      <!-- 1959 -->
      <g style="fill:#333333;" transform="translate(394.101361 292.329498)scale(0.0833 -0.0833)">
       <use xlink:href="#DejaVuSans-49"/>
       <use x="63.623047" xlink:href="#DejaVuSans-57"/>
       <use x="127.246094" xlink:href="#DejaVuSans-53"/>
       <use x="190.869141" xlink:href="#DejaVuSans-57"/>
      </g>
     </g>
    </g>
    <g id="xtick_7"/>
    <g id="xtick_8"/>
    <g id="xtick_9"/>
    <g id="xtick_10"/>
    <g id="xtick_11"/>
    <g id="xtick_12"/>
    <g id="text_7">
     <!-- Month -->
     <defs>
      <path d="M 9.1875 72.90625 
L 33.109375 72.90625 
L 49.703125 33.890625 
L 66.40625 72.90625 
L 90.28125 72.90625 
L 90.28125 0 
L 72.515625 0 
L 72.515625 53.328125 
L 55.71875 14.015625 
L 43.796875 14.015625 
L 27 53.328125 
L 27 0 
L 9.1875 0 
z
" id="DejaVuSans-Bold-77"/>
      <path d="M 34.421875 43.5 
Q 28.609375 43.5 25.5625 39.328125 
Q 22.515625 35.15625 22.515625 27.296875 
Q 22.515625 19.4375 25.5625 15.25 
Q 28.609375 11.078125 34.421875 11.078125 
Q 40.140625 11.078125 43.15625 15.25 
Q 46.1875 19.4375 46.1875 27.296875 
Q 46.1875 35.15625 43.15625 39.328125 
Q 40.140625 43.5 34.421875 43.5 
z
M 34.421875 56 
Q 48.53125 56 56.46875 48.375 
Q 64.40625 40.765625 64.40625 27.296875 
Q 64.40625 13.8125 56.46875 6.1875 
Q 48.53125 -1.421875 34.421875 -1.421875 
Q 20.265625 -1.421875 12.28125 6.1875 
Q 4.296875 13.8125 4.296875 27.296875 
Q 4.296875 40.765625 12.28125 48.375 
Q 20.265625 56 34.421875 56 
z
" id="DejaVuSans-Bold-111"/>
      <path d="M 63.375 33.296875 
L 63.375 0 
L 45.796875 0 
L 45.796875 5.421875 
L 45.796875 25.484375 
Q 45.796875 32.5625 45.484375 35.25 
Q 45.171875 37.9375 44.390625 39.203125 
Q 43.359375 40.921875 41.59375 41.875 
Q 39.84375 42.828125 37.59375 42.828125 
Q 32.125 42.828125 29 38.59375 
Q 25.875 34.375 25.875 26.90625 
L 25.875 0 
L 8.40625 0 
L 8.40625 54.6875 
L 25.875 54.6875 
L 25.875 46.6875 
Q 29.828125 51.46875 34.265625 53.734375 
Q 38.71875 56 44.09375 56 
Q 53.5625 56 58.46875 50.1875 
Q 63.375 44.390625 63.375 33.296875 
z
" id="DejaVuSans-Bold-110"/>
      <path d="M 27.484375 70.21875 
L 27.484375 54.6875 
L 45.515625 54.6875 
L 45.515625 42.1875 
L 27.484375 42.1875 
L 27.484375 19 
Q 27.484375 15.1875 29 13.84375 
Q 30.515625 12.5 35.015625 12.5 
L 44 12.5 
L 44 0 
L 29 0 
Q 18.65625 0 14.328125 4.3125 
Q 10.015625 8.640625 10.015625 19 
L 10.015625 42.1875 
L 1.3125 42.1875 
L 1.3125 54.6875 
L 10.015625 54.6875 
L 10.015625 70.21875 
z
" id="DejaVuSans-Bold-116"/>
      <path d="M 63.375 33.296875 
L 63.375 0 
L 45.796875 0 
L 45.796875 5.421875 
L 45.796875 25.390625 
Q 45.796875 32.5625 45.484375 35.25 
Q 45.171875 37.9375 44.390625 39.203125 
Q 43.359375 40.921875 41.59375 41.875 
Q 39.84375 42.828125 37.59375 42.828125 
Q 32.125 42.828125 29 38.59375 
Q 25.875 34.375 25.875 26.90625 
L 25.875 0 
L 8.40625 0 
L 8.40625 75.984375 
L 25.875 75.984375 
L 25.875 46.6875 
Q 29.828125 51.46875 34.265625 53.734375 
Q 38.71875 56 44.09375 56 
Q 53.5625 56 58.46875 50.1875 
Q 63.375 44.390625 63.375 33.296875 
z
" id="DejaVuSans-Bold-104"/>
     </defs>
     <g style="fill:#333333;" transform="translate(235.380356 305.660316)scale(0.1 -0.1)">
      <use xlink:href="#DejaVuSans-Bold-77"/>
      <use x="99.511719" xlink:href="#DejaVuSans-Bold-111"/>
      <use x="168.212891" xlink:href="#DejaVuSans-Bold-110"/>
      <use x="239.404297" xlink:href="#DejaVuSans-Bold-116"/>
      <use x="287.207031" xlink:href="#DejaVuSans-Bold-104"/>
     </g>
    </g>
   </g>
   <g id="matplotlib.axis_2">
    <g id="ytick_1">
     <g id="line2d_7">
      <path clip-path="url(#p7e3fca58d6)" d="M 30.099888 268.553492 
L 476.499887 268.553492 
" style="fill:none;stroke:#dedede;stroke-linecap:square;stroke-width:0.8;"/>
     </g>
     <g id="line2d_8">
      <defs>
       <path d="M 0 0 
L -3.5 0 
" id="m3c572e655d" style="stroke:#333333;stroke-width:0.8;"/>
      </defs>
      <g>
       <use style="fill:#333333;stroke:#333333;stroke-width:0.8;" x="30.099888" xlink:href="#m3c572e655d" y="268.553492"/>
      </g>
     </g>
     <g id="text_8">
      <!-- 100 -->
      <defs>
       <path d="M 31.78125 66.40625 
Q 24.171875 66.40625 20.328125 58.90625 
Q 16.5 51.421875 16.5 36.375 
Q 16.5 21.390625 20.328125 13.890625 
Q 24.171875 6.390625 31.78125 6.390625 
Q 39.453125 6.390625 43.28125 13.890625 
Q 47.125 21.390625 47.125 36.375 
Q 47.125 51.421875 43.28125 58.90625 
Q 39.453125 66.40625 31.78125 66.40625 
z
M 31.78125 74.21875 
Q 44.046875 74.21875 50.515625 64.515625 
Q 56.984375 54.828125 56.984375 36.375 
Q 56.984375 17.96875 50.515625 8.265625 
Q 44.046875 -1.421875 31.78125 -1.421875 
Q 19.53125 -1.421875 13.0625 8.265625 
Q 6.59375 17.96875 6.59375 36.375 
Q 6.59375 54.828125 13.0625 64.515625 
Q 19.53125 74.21875 31.78125 74.21875 
z
" id="DejaVuSans-48"/>
      </defs>
      <g style="fill:#333333;" transform="translate(7.2 271.718242)scale(0.0833 -0.0833)">
       <use xlink:href="#DejaVuSans-49"/>
       <use x="63.623047" xlink:href="#DejaVuSans-48"/>
       <use x="127.246094" xlink:href="#DejaVuSans-48"/>
      </g>
     </g>
    </g>
    <g id="ytick_2">
     <g id="line2d_9">
      <path clip-path="url(#p7e3fca58d6)" d="M 30.099888 220.852545 
L 476.499887 220.852545 
" style="fill:none;stroke:#dedede;stroke-linecap:square;stroke-width:0.8;"/>
     </g>
     <g id="line2d_10">
      <g>
       <use style="fill:#333333;stroke:#333333;stroke-width:0.8;" x="30.099888" xlink:href="#m3c572e655d" y="220.852545"/>
      </g>
     </g>
     <g id="text_9">
      <!-- 200 -->
      <defs>
       <path d="M 19.1875 8.296875 
L 53.609375 8.296875 
L 53.609375 0 
L 7.328125 0 
L 7.328125 8.296875 
Q 12.9375 14.109375 22.625 23.890625 
Q 32.328125 33.6875 34.8125 36.53125 
Q 39.546875 41.84375 41.421875 45.53125 
Q 43.3125 49.21875 43.3125 52.78125 
Q 43.3125 58.59375 39.234375 62.25 
Q 35.15625 65.921875 28.609375 65.921875 
Q 23.96875 65.921875 18.8125 64.3125 
Q 13.671875 62.703125 7.8125 59.421875 
L 7.8125 69.390625 
Q 13.765625 71.78125 18.9375 73 
Q 24.125 74.21875 28.421875 74.21875 
Q 39.75 74.21875 46.484375 68.546875 
Q 53.21875 62.890625 53.21875 53.421875 
Q 53.21875 48.921875 51.53125 44.890625 
Q 49.859375 40.875 45.40625 35.40625 
Q 44.1875 33.984375 37.640625 27.21875 
Q 31.109375 20.453125 19.1875 8.296875 
z
" id="DejaVuSans-50"/>
      </defs>
      <g style="fill:#333333;" transform="translate(7.2 224.017294)scale(0.0833 -0.0833)">
       <use xlink:href="#DejaVuSans-50"/>
       <use x="63.623047" xlink:href="#DejaVuSans-48"/>
       <use x="127.246094" xlink:href="#DejaVuSans-48"/>
      </g>
     </g>
    </g>
    <g id="ytick_3">
     <g id="line2d_11">
      <path clip-path="url(#p7e3fca58d6)" d="M 30.099888 173.151597 
L 476.499887 173.151597 
" style="fill:none;stroke:#dedede;stroke-linecap:square;stroke-width:0.8;"/>
     </g>
     <g id="line2d_12">
      <g>
       <use style="fill:#333333;stroke:#333333;stroke-width:0.8;" x="30.099888" xlink:href="#m3c572e655d" y="173.151597"/>
      </g>
     </g>
     <g id="text_10">
      <!-- 300 -->
      <g style="fill:#333333;" transform="translate(7.2 176.316346)scale(0.0833 -0.0833)">
       <use xlink:href="#DejaVuSans-51"/>
       <use x="63.623047" xlink:href="#DejaVuSans-48"/>
       <use x="127.246094" xlink:href="#DejaVuSans-48"/>
      </g>
     </g>
    </g>
    <g id="ytick_4">
     <g id="line2d_13">
      <path clip-path="url(#p7e3fca58d6)" d="M 30.099888 125.450649 
L 476.499887 125.450649 
" style="fill:none;stroke:#dedede;stroke-linecap:square;stroke-width:0.8;"/>
     </g>
     <g id="line2d_14">
      <g>
       <use style="fill:#333333;stroke:#333333;stroke-width:0.8;" x="30.099888" xlink:href="#m3c572e655d" y="125.450649"/>
      </g>
     </g>
     <g id="text_11">
      <!-- 400 -->
      <g style="fill:#333333;" transform="translate(7.2 128.615399)scale(0.0833 -0.0833)">
       <use xlink:href="#DejaVuSans-52"/>
       <use x="63.623047" xlink:href="#DejaVuSans-48"/>
       <use x="127.246094" xlink:href="#DejaVuSans-48"/>
      </g>
     </g>
    </g>
    <g id="ytick_5">
     <g id="line2d_15">
      <path clip-path="url(#p7e3fca58d6)" d="M 30.099888 77.749702 
L 476.499887 77.749702 
" style="fill:none;stroke:#dedede;stroke-linecap:square;stroke-width:0.8;"/>
     </g>
     <g id="line2d_16">
      <g>
       <use style="fill:#333333;stroke:#333333;stroke-width:0.8;" x="30.099888" xlink:href="#m3c572e655d" y="77.749702"/>
      </g>
     </g>
     <g id="text_12">
      <!-- 500 -->
      <g style="fill:#333333;" transform="translate(7.2 80.914451)scale(0.0833 -0.0833)">
       <use xlink:href="#DejaVuSans-53"/>
       <use x="63.623047" xlink:href="#DejaVuSans-48"/>
       <use x="127.246094" xlink:href="#DejaVuSans-48"/>
      </g>
     </g>
    </g>
    <g id="ytick_6">
     <g id="line2d_17">
      <path clip-path="url(#p7e3fca58d6)" d="M 30.099888 30.048754 
L 476.499887 30.048754 
" style="fill:none;stroke:#dedede;stroke-linecap:square;stroke-width:0.8;"/>
     </g>
     <g id="line2d_18">
      <g>
       <use style="fill:#333333;stroke:#333333;stroke-width:0.8;" x="30.099888" xlink:href="#m3c572e655d" y="30.048754"/>
      </g>
     </g>
     <g id="text_13">
      <!-- 600 -->
      <defs>
       <path d="M 33.015625 40.375 
Q 26.375 40.375 22.484375 35.828125 
Q 18.609375 31.296875 18.609375 23.390625 
Q 18.609375 15.53125 22.484375 10.953125 
Q 26.375 6.390625 33.015625 6.390625 
Q 39.65625 6.390625 43.53125 10.953125 
Q 47.40625 15.53125 47.40625 23.390625 
Q 47.40625 31.296875 43.53125 35.828125 
Q 39.65625 40.375 33.015625 40.375 
z
M 52.59375 71.296875 
L 52.59375 62.3125 
Q 48.875 64.0625 45.09375 64.984375 
Q 41.3125 65.921875 37.59375 65.921875 
Q 27.828125 65.921875 22.671875 59.328125 
Q 17.53125 52.734375 16.796875 39.40625 
Q 19.671875 43.65625 24.015625 45.921875 
Q 28.375 48.1875 33.59375 48.1875 
Q 44.578125 48.1875 50.953125 41.515625 
Q 57.328125 34.859375 57.328125 23.390625 
Q 57.328125 12.15625 50.6875 5.359375 
Q 44.046875 -1.421875 33.015625 -1.421875 
Q 20.359375 -1.421875 13.671875 8.265625 
Q 6.984375 17.96875 6.984375 36.375 
Q 6.984375 53.65625 15.1875 63.9375 
Q 23.390625 74.21875 37.203125 74.21875 
Q 40.921875 74.21875 44.703125 73.484375 
Q 48.484375 72.75 52.59375 71.296875 
z
" id="DejaVuSans-54"/>
      </defs>
      <g style="fill:#333333;" transform="translate(7.2 33.213503)scale(0.0833 -0.0833)">
       <use xlink:href="#DejaVuSans-54"/>
       <use x="63.623047" xlink:href="#DejaVuSans-48"/>
       <use x="127.246094" xlink:href="#DejaVuSans-48"/>
      </g>
     </g>
    </g>
   </g>
   <g id="line2d_19">
    <path clip-path="url(#p7e3fca58d6)" d="M 30.099888 262.829379 
L 33.221566 259.967322 
L 36.343244 253.289189 
L 39.464922 254.720218 
L 42.586601 258.536293 
L 45.708279 251.858161 
L 48.829957 245.657038 
L 51.951636 245.657038 
L 55.073314 251.381151 
L 58.194992 259.490312 
L 61.316671 266.645455 
L 64.438349 259.967322 
L 67.560027 261.39835 
L 70.681706 256.151246 
L 73.803384 248.996104 
L 76.925062 251.858161 
L 80.046741 256.628256 
L 83.168419 245.180028 
L 86.290097 235.162829 
L 89.411776 235.162829 
L 92.533454 240.886943 
L 95.655132 252.81218 
L 98.776811 261.87536 
L 101.898489 249.473113 
L 108.141846 244.703019 
L 111.263524 231.346753 
L 114.385202 238.501895 
L 117.506881 234.20881 
L 120.628559 231.346753 
L 123.750237 221.329554 
L 126.871915 221.329554 
L 129.993594 228.484696 
L 133.115272 238.978905 
L 136.23695 246.611057 
L 139.358629 237.070867 
L 142.480307 234.68582 
L 145.601985 230.392734 
L 148.723664 224.191611 
L 151.845342 229.915725 
L 154.96702 228.961706 
L 158.088699 212.266374 
L 164.332055 200.818147 
L 167.453734 216.559459 
L 170.575412 225.14563 
L 173.69709 234.20881 
L 176.818769 223.714602 
L 179.940447 222.760583 
L 183.062125 222.760583 
L 186.183804 203.680204 
L 189.305482 204.157213 
L 192.42716 207.01927 
L 195.548839 200.341137 
L 198.670517 190.323938 
L 201.792195 186.507862 
L 204.913874 203.203194 
L 208.035552 215.605441 
L 211.15723 230.392734 
L 214.278908 220.375535 
L 217.400587 218.944507 
L 220.522265 226.576658 
L 223.643943 204.157213 
L 226.765622 207.973289 
L 229.8873 204.634223 
L 233.008978 190.323938 
L 236.130657 172.197578 
L 239.252335 176.490663 
L 242.374013 192.708986 
L 245.495692 207.01927 
L 248.61737 219.421516 
L 251.739048 207.01927 
L 254.860727 200.818147 
L 257.982405 205.111232 
L 261.104083 188.89291 
L 264.225762 187.938891 
L 267.34744 187.461881 
L 270.469118 165.996455 
L 273.590797 142.622991 
L 276.712475 150.732152 
L 279.834153 167.427483 
L 286.07751 203.203194 
L 289.199188 183.645806 
L 292.320867 180.783749 
L 295.442545 184.122815 
L 298.564223 165.042436 
L 301.685901 166.950474 
L 304.80758 164.565426 
L 307.929258 137.852896 
L 311.050936 119.249526 
L 314.172615 123.065602 
L 320.415971 170.28954 
L 323.53765 186.984872 
L 326.659328 170.28954 
L 329.781006 165.996455 
L 332.902685 172.674588 
L 336.024363 146.439066 
L 339.146041 150.255142 
L 342.26772 146.916076 
L 345.389398 114.956441 
L 348.511076 94.445033 
L 351.632755 93.491014 
L 354.754433 123.542611 
L 357.876111 150.732152 
L 360.99779 170.76655 
L 364.119468 155.979256 
L 367.241146 154.071218 
L 370.362825 164.565426 
L 373.484503 143.577009 
L 376.606181 150.255142 
L 379.72786 143.1 
L 382.849538 108.755318 
L 385.971216 82.042787 
L 389.092894 75.364654 
L 392.214573 123.542611 
L 395.336251 145.008038 
L 398.457929 168.381502 
L 401.579608 155.502246 
L 404.701286 144.531028 
L 407.822964 153.117199 
L 410.944643 122.588592 
L 414.066321 127.358687 
L 417.187999 115.91046 
L 420.309678 91.105967 
L 423.431356 54.853247 
L 426.553034 49.606143 
L 429.674713 95.399052 
L 432.796391 122.111583 
L 435.918069 143.577009 
L 439.039748 123.065602 
L 442.161426 117.341488 
L 445.283104 129.743735 
L 448.404783 116.387469 
L 451.526461 96.353071 
L 454.648139 91.105967 
L 457.769818 61.05437 
L 460.891496 19.554545 
L 464.013174 27.186697 
L 467.134853 73.933626 
L 470.256531 96.353071 
L 473.378209 130.220744 
L 476.499888 110.186346 
L 476.499888 110.186346 
" style="fill:none;stroke:#000000;stroke-linecap:square;stroke-width:1.3;"/>
   </g>
   <g id="line2d_20">
    <path clip-path="url(#p7e3fca58d6)" d="M 345.389398 170.28954 
L 348.511076 165.996455 
L 351.632755 172.674588 
L 354.754433 146.439066 
L 357.876111 150.255142 
L 360.99779 146.916076 
L 364.119468 114.956441 
L 367.241146 94.445033 
L 370.362825 93.491014 
L 373.484503 123.542611 
L 376.606181 150.732152 
L 379.72786 170.76655 
L 382.849538 155.979256 
L 385.971216 154.071218 
L 389.092894 164.565426 
L 392.214573 143.577009 
L 395.336251 150.255142 
L 398.457929 143.1 
L 401.579608 108.755318 
L 404.701286 82.042787 
L 407.822964 75.364654 
L 410.944643 123.542611 
L 414.066321 145.008038 
L 417.187999 168.381502 
L 420.309678 155.502246 
L 423.431356 144.531028 
L 426.553034 153.117199 
L 429.674713 122.588592 
L 432.796391 127.358687 
L 435.918069 115.91046 
L 439.039748 91.105967 
L 442.161426 54.853247 
L 445.283104 49.606143 
L 448.404783 95.399052 
L 451.526461 122.111583 
L 454.648139 143.577009 
L 457.769818 123.065602 
L 460.891496 117.341488 
L 464.013174 129.743735 
L 467.134853 116.387469 
L 470.256531 96.353071 
L 473.378209 91.105967 
" style="fill:none;stroke:#003dfd;stroke-linecap:square;stroke-width:1.3;"/>
   </g>
   <g id="line2d_21">
    <path clip-path="url(#p7e3fca58d6)" d="M 345.389398 137.852896 
L 348.511076 119.249526 
L 351.632755 123.065602 
L 354.754433 146.916076 
L 357.876111 170.28954 
L 360.99779 186.984872 
L 364.119468 170.28954 
L 367.241146 165.996455 
L 370.362825 172.674588 
L 373.484503 146.439066 
L 376.606181 150.255142 
L 379.72786 146.916076 
L 382.849538 114.956441 
L 385.971216 94.445033 
L 389.092894 93.491014 
L 392.214573 123.542611 
L 395.336251 150.732152 
L 398.457929 170.76655 
L 401.579608 155.979256 
L 404.701286 154.071218 
L 407.822964 164.565426 
L 410.944643 143.577009 
L 414.066321 150.255142 
L 417.187999 143.1 
L 420.309678 108.755318 
L 423.431356 82.042787 
L 426.553034 75.364654 
L 429.674713 123.542611 
L 432.796391 145.008038 
L 435.918069 168.381502 
L 439.039748 155.502246 
L 442.161426 144.531028 
L 445.283104 153.117199 
L 448.404783 122.588592 
L 451.526461 127.358687 
L 454.648139 115.91046 
L 457.769818 91.105967 
L 460.891496 54.853247 
L 464.013174 49.606143 
L 467.134853 95.399052 
L 470.256531 122.111583 
L 473.378209 143.577009 
" style="fill:none;stroke:#b512b8;stroke-linecap:square;stroke-width:1.3;"/>
   </g>
   <g id="line2d_22">
    <path clip-path="url(#p7e3fca58d6)" d="M 345.389398 164.444919 
L 348.511076 159.944397 
L 351.632755 167.098003 
L 354.754433 139.313129 
L 357.876111 143.432461 
L 360.99779 139.961278 
L 364.119468 106.17191 
L 367.241146 84.540072 
L 370.362825 83.626644 
L 373.484503 115.506836 
L 376.606181 144.326596 
L 379.72786 165.555446 
L 382.849538 149.98766 
L 385.971216 148.029098 
L 389.092894 159.156402 
L 392.214573 137.072335 
L 395.336251 144.170048 
L 398.457929 136.685926 
L 401.579608 100.574394 
L 404.701286 72.527703 
L 407.822964 65.583886 
L 410.944643 116.338123 
L 414.066321 138.965918 
L 417.187999 163.579068 
L 420.309678 150.090794 
L 423.431356 138.616111 
L 426.553034 147.676926 
L 429.674713 115.691505 
L 432.796391 120.750361 
L 435.918069 108.80148 
L 439.039748 82.863243 
L 442.161426 44.949621 
L 445.283104 39.532604 
L 448.404783 87.550756 
L 451.526461 115.566569 
L 454.648139 138.073054 
L 457.769818 116.664208 
L 460.891496 110.728402 
L 464.013174 123.739871 
L 467.134853 109.830369 
L 470.256531 88.954124 
L 473.378209 83.529934 
" style="fill:none;stroke:#11a9ba;stroke-linecap:square;stroke-width:1.3;"/>
   </g>
   <g id="line2d_23">
    <path clip-path="url(#p7e3fca58d6)" d="M 373.484503 125.200712 
L 376.606181 124.821709 
L 379.72786 116.758511 
L 382.849538 87.183248 
L 385.971216 70.05364 
L 389.092894 72.020622 
L 392.214573 114.311526 
L 395.336251 151.714555 
L 398.457929 172.016406 
L 401.579608 152.351736 
L 404.701286 149.459846 
L 407.822964 164.155898 
L 410.944643 142.513982 
L 414.066321 147.917914 
L 417.187999 138.102467 
L 420.309678 99.010458 
L 423.431356 67.351896 
L 426.553034 55.176728 
L 429.674713 104.580174 
L 432.796391 123.145877 
L 435.918069 144.451439 
L 439.039748 135.608326 
L 442.161426 126.139204 
L 445.283104 130.258868 
L 448.404783 93.219188 
L 451.526461 96.2215 
L 454.648139 86.192423 
L 457.769818 64.111708 
L 460.891496 25.182187 
L 464.013174 21.172831 
L 467.134853 66.623069 
L 470.256531 93.452106 
" style="fill:none;stroke:#0d780f;stroke-linecap:square;stroke-width:1.3;"/>
   </g>
   <g id="legend_1">
    <g id="line2d_24">
     <path d="M 39.099888 20.298437 
L 59.099888 20.298437 
" style="fill:none;stroke:#000000;stroke-linecap:square;stroke-width:1.3;"/>
    </g>
    <g id="line2d_25"/>
    <g id="text_14">
     <!-- actual -->
     <defs>
      <path d="M 34.28125 27.484375 
Q 23.390625 27.484375 19.1875 25 
Q 14.984375 22.515625 14.984375 16.5 
Q 14.984375 11.71875 18.140625 8.90625 
Q 21.296875 6.109375 26.703125 6.109375 
Q 34.1875 6.109375 38.703125 11.40625 
Q 43.21875 16.703125 43.21875 25.484375 
L 43.21875 27.484375 
z
M 52.203125 31.203125 
L 52.203125 0 
L 43.21875 0 
L 43.21875 8.296875 
Q 40.140625 3.328125 35.546875 0.953125 
Q 30.953125 -1.421875 24.3125 -1.421875 
Q 15.921875 -1.421875 10.953125 3.296875 
Q 6 8.015625 6 15.921875 
Q 6 25.140625 12.171875 29.828125 
Q 18.359375 34.515625 30.609375 34.515625 
L 43.21875 34.515625 
L 43.21875 35.40625 
Q 43.21875 41.609375 39.140625 45 
Q 35.0625 48.390625 27.6875 48.390625 
Q 23 48.390625 18.546875 47.265625 
Q 14.109375 46.140625 10.015625 43.890625 
L 10.015625 52.203125 
Q 14.9375 54.109375 19.578125 55.046875 
Q 24.21875 56 28.609375 56 
Q 40.484375 56 46.34375 49.84375 
Q 52.203125 43.703125 52.203125 31.203125 
z
" id="DejaVuSans-97"/>
      <path d="M 48.78125 52.59375 
L 48.78125 44.1875 
Q 44.96875 46.296875 41.140625 47.34375 
Q 37.3125 48.390625 33.40625 48.390625 
Q 24.65625 48.390625 19.8125 42.84375 
Q 14.984375 37.3125 14.984375 27.296875 
Q 14.984375 17.28125 19.8125 11.734375 
Q 24.65625 6.203125 33.40625 6.203125 
Q 37.3125 6.203125 41.140625 7.25 
Q 44.96875 8.296875 48.78125 10.40625 
L 48.78125 2.09375 
Q 45.015625 0.34375 40.984375 -0.53125 
Q 36.96875 -1.421875 32.421875 -1.421875 
Q 20.0625 -1.421875 12.78125 6.34375 
Q 5.515625 14.109375 5.515625 27.296875 
Q 5.515625 40.671875 12.859375 48.328125 
Q 20.21875 56 33.015625 56 
Q 37.15625 56 41.109375 55.140625 
Q 45.0625 54.296875 48.78125 52.59375 
z
" id="DejaVuSans-99"/>
      <path d="M 18.3125 70.21875 
L 18.3125 54.6875 
L 36.8125 54.6875 
L 36.8125 47.703125 
L 18.3125 47.703125 
L 18.3125 18.015625 
Q 18.3125 11.328125 20.140625 9.421875 
Q 21.96875 7.515625 27.59375 7.515625 
L 36.8125 7.515625 
L 36.8125 0 
L 27.59375 0 
Q 17.1875 0 13.234375 3.875 
Q 9.28125 7.765625 9.28125 18.015625 
L 9.28125 47.703125 
L 2.6875 47.703125 
L 2.6875 54.6875 
L 9.28125 54.6875 
L 9.28125 70.21875 
z
" id="DejaVuSans-116"/>
      <path d="M 8.5 21.578125 
L 8.5 54.6875 
L 17.484375 54.6875 
L 17.484375 21.921875 
Q 17.484375 14.15625 20.5 10.265625 
Q 23.53125 6.390625 29.59375 6.390625 
Q 36.859375 6.390625 41.078125 11.03125 
Q 45.3125 15.671875 45.3125 23.6875 
L 45.3125 54.6875 
L 54.296875 54.6875 
L 54.296875 0 
L 45.3125 0 
L 45.3125 8.40625 
Q 42.046875 3.421875 37.71875 1 
Q 33.40625 -1.421875 27.6875 -1.421875 
Q 18.265625 -1.421875 13.375 4.4375 
Q 8.5 10.296875 8.5 21.578125 
z
M 31.109375 56 
z
" id="DejaVuSans-117"/>
      <path d="M 9.421875 75.984375 
L 18.40625 75.984375 
L 18.40625 0 
L 9.421875 0 
z
" id="DejaVuSans-108"/>
     </defs>
     <g transform="translate(67.099887 23.798437)scale(0.1 -0.1)">
      <use xlink:href="#DejaVuSans-97"/>
      <use x="61.279297" xlink:href="#DejaVuSans-99"/>
      <use x="116.259766" xlink:href="#DejaVuSans-116"/>
      <use x="155.46875" xlink:href="#DejaVuSans-117"/>
      <use x="218.847656" xlink:href="#DejaVuSans-97"/>
      <use x="280.126953" xlink:href="#DejaVuSans-108"/>
     </g>
    </g>
    <g id="line2d_26">
     <path d="M 39.099888 34.976562 
L 59.099888 34.976562 
" style="fill:none;stroke:#003dfd;stroke-linecap:square;stroke-width:1.3;"/>
    </g>
    <g id="line2d_27"/>
    <g id="text_15">
     <!-- Naive seasonal model, with K=6 -->
     <defs>
      <path d="M 9.8125 72.90625 
L 23.09375 72.90625 
L 55.421875 11.921875 
L 55.421875 72.90625 
L 64.984375 72.90625 
L 64.984375 0 
L 51.703125 0 
L 19.390625 60.984375 
L 19.390625 0 
L 9.8125 0 
z
" id="DejaVuSans-78"/>
      <path d="M 9.421875 54.6875 
L 18.40625 54.6875 
L 18.40625 0 
L 9.421875 0 
z
M 9.421875 75.984375 
L 18.40625 75.984375 
L 18.40625 64.59375 
L 9.421875 64.59375 
z
" id="DejaVuSans-105"/>
      <path d="M 2.984375 54.6875 
L 12.5 54.6875 
L 29.59375 8.796875 
L 46.6875 54.6875 
L 56.203125 54.6875 
L 35.6875 0 
L 23.484375 0 
z
" id="DejaVuSans-118"/>
      <path d="M 56.203125 29.59375 
L 56.203125 25.203125 
L 14.890625 25.203125 
Q 15.484375 15.921875 20.484375 11.0625 
Q 25.484375 6.203125 34.421875 6.203125 
Q 39.59375 6.203125 44.453125 7.46875 
Q 49.3125 8.734375 54.109375 11.28125 
L 54.109375 2.78125 
Q 49.265625 0.734375 44.1875 -0.34375 
Q 39.109375 -1.421875 33.890625 -1.421875 
Q 20.796875 -1.421875 13.15625 6.1875 
Q 5.515625 13.8125 5.515625 26.8125 
Q 5.515625 40.234375 12.765625 48.109375 
Q 20.015625 56 32.328125 56 
Q 43.359375 56 49.78125 48.890625 
Q 56.203125 41.796875 56.203125 29.59375 
z
M 47.21875 32.234375 
Q 47.125 39.59375 43.09375 43.984375 
Q 39.0625 48.390625 32.421875 48.390625 
Q 24.90625 48.390625 20.390625 44.140625 
Q 15.875 39.890625 15.1875 32.171875 
z
" id="DejaVuSans-101"/>
      <path id="DejaVuSans-32"/>
      <path d="M 44.28125 53.078125 
L 44.28125 44.578125 
Q 40.484375 46.53125 36.375 47.5 
Q 32.28125 48.484375 27.875 48.484375 
Q 21.1875 48.484375 17.84375 46.4375 
Q 14.5 44.390625 14.5 40.28125 
Q 14.5 37.15625 16.890625 35.375 
Q 19.28125 33.59375 26.515625 31.984375 
L 29.59375 31.296875 
Q 39.15625 29.25 43.1875 25.515625 
Q 47.21875 21.78125 47.21875 15.09375 
Q 47.21875 7.46875 41.1875 3.015625 
Q 35.15625 -1.421875 24.609375 -1.421875 
Q 20.21875 -1.421875 15.453125 -0.5625 
Q 10.6875 0.296875 5.421875 2 
L 5.421875 11.28125 
Q 10.40625 8.6875 15.234375 7.390625 
Q 20.0625 6.109375 24.8125 6.109375 
Q 31.15625 6.109375 34.5625 8.28125 
Q 37.984375 10.453125 37.984375 14.40625 
Q 37.984375 18.0625 35.515625 20.015625 
Q 33.0625 21.96875 24.703125 23.78125 
L 21.578125 24.515625 
Q 13.234375 26.265625 9.515625 29.90625 
Q 5.8125 33.546875 5.8125 39.890625 
Q 5.8125 47.609375 11.28125 51.796875 
Q 16.75 56 26.8125 56 
Q 31.78125 56 36.171875 55.265625 
Q 40.578125 54.546875 44.28125 53.078125 
z
" id="DejaVuSans-115"/>
      <path d="M 30.609375 48.390625 
Q 23.390625 48.390625 19.1875 42.75 
Q 14.984375 37.109375 14.984375 27.296875 
Q 14.984375 17.484375 19.15625 11.84375 
Q 23.34375 6.203125 30.609375 6.203125 
Q 37.796875 6.203125 41.984375 11.859375 
Q 46.1875 17.53125 46.1875 27.296875 
Q 46.1875 37.015625 41.984375 42.703125 
Q 37.796875 48.390625 30.609375 48.390625 
z
M 30.609375 56 
Q 42.328125 56 49.015625 48.375 
Q 55.71875 40.765625 55.71875 27.296875 
Q 55.71875 13.875 49.015625 6.21875 
Q 42.328125 -1.421875 30.609375 -1.421875 
Q 18.84375 -1.421875 12.171875 6.21875 
Q 5.515625 13.875 5.515625 27.296875 
Q 5.515625 40.765625 12.171875 48.375 
Q 18.84375 56 30.609375 56 
z
" id="DejaVuSans-111"/>
      <path d="M 54.890625 33.015625 
L 54.890625 0 
L 45.90625 0 
L 45.90625 32.71875 
Q 45.90625 40.484375 42.875 44.328125 
Q 39.84375 48.1875 33.796875 48.1875 
Q 26.515625 48.1875 22.3125 43.546875 
Q 18.109375 38.921875 18.109375 30.90625 
L 18.109375 0 
L 9.078125 0 
L 9.078125 54.6875 
L 18.109375 54.6875 
L 18.109375 46.1875 
Q 21.34375 51.125 25.703125 53.5625 
Q 30.078125 56 35.796875 56 
Q 45.21875 56 50.046875 50.171875 
Q 54.890625 44.34375 54.890625 33.015625 
z
" id="DejaVuSans-110"/>
      <path d="M 52 44.1875 
Q 55.375 50.25 60.0625 53.125 
Q 64.75 56 71.09375 56 
Q 79.640625 56 84.28125 50.015625 
Q 88.921875 44.046875 88.921875 33.015625 
L 88.921875 0 
L 79.890625 0 
L 79.890625 32.71875 
Q 79.890625 40.578125 77.09375 44.375 
Q 74.3125 48.1875 68.609375 48.1875 
Q 61.625 48.1875 57.5625 43.546875 
Q 53.515625 38.921875 53.515625 30.90625 
L 53.515625 0 
L 44.484375 0 
L 44.484375 32.71875 
Q 44.484375 40.625 41.703125 44.40625 
Q 38.921875 48.1875 33.109375 48.1875 
Q 26.21875 48.1875 22.15625 43.53125 
Q 18.109375 38.875 18.109375 30.90625 
L 18.109375 0 
L 9.078125 0 
L 9.078125 54.6875 
L 18.109375 54.6875 
L 18.109375 46.1875 
Q 21.1875 51.21875 25.484375 53.609375 
Q 29.78125 56 35.6875 56 
Q 41.65625 56 45.828125 52.96875 
Q 50 49.953125 52 44.1875 
z
" id="DejaVuSans-109"/>
      <path d="M 45.40625 46.390625 
L 45.40625 75.984375 
L 54.390625 75.984375 
L 54.390625 0 
L 45.40625 0 
L 45.40625 8.203125 
Q 42.578125 3.328125 38.25 0.953125 
Q 33.9375 -1.421875 27.875 -1.421875 
Q 17.96875 -1.421875 11.734375 6.484375 
Q 5.515625 14.40625 5.515625 27.296875 
Q 5.515625 40.1875 11.734375 48.09375 
Q 17.96875 56 27.875 56 
Q 33.9375 56 38.25 53.625 
Q 42.578125 51.265625 45.40625 46.390625 
z
M 14.796875 27.296875 
Q 14.796875 17.390625 18.875 11.75 
Q 22.953125 6.109375 30.078125 6.109375 
Q 37.203125 6.109375 41.296875 11.75 
Q 45.40625 17.390625 45.40625 27.296875 
Q 45.40625 37.203125 41.296875 42.84375 
Q 37.203125 48.484375 30.078125 48.484375 
Q 22.953125 48.484375 18.875 42.84375 
Q 14.796875 37.203125 14.796875 27.296875 
z
" id="DejaVuSans-100"/>
      <path d="M 11.71875 12.40625 
L 22.015625 12.40625 
L 22.015625 4 
L 14.015625 -11.625 
L 7.71875 -11.625 
L 11.71875 4 
z
" id="DejaVuSans-44"/>
      <path d="M 4.203125 54.6875 
L 13.1875 54.6875 
L 24.421875 12.015625 
L 35.59375 54.6875 
L 46.1875 54.6875 
L 57.421875 12.015625 
L 68.609375 54.6875 
L 77.59375 54.6875 
L 63.28125 0 
L 52.6875 0 
L 40.921875 44.828125 
L 29.109375 0 
L 18.5 0 
z
" id="DejaVuSans-119"/>
      <path d="M 54.890625 33.015625 
L 54.890625 0 
L 45.90625 0 
L 45.90625 32.71875 
Q 45.90625 40.484375 42.875 44.328125 
Q 39.84375 48.1875 33.796875 48.1875 
Q 26.515625 48.1875 22.3125 43.546875 
Q 18.109375 38.921875 18.109375 30.90625 
L 18.109375 0 
L 9.078125 0 
L 9.078125 75.984375 
L 18.109375 75.984375 
L 18.109375 46.1875 
Q 21.34375 51.125 25.703125 53.5625 
Q 30.078125 56 35.796875 56 
Q 45.21875 56 50.046875 50.171875 
Q 54.890625 44.34375 54.890625 33.015625 
z
" id="DejaVuSans-104"/>
      <path d="M 9.8125 72.90625 
L 19.671875 72.90625 
L 19.671875 42.09375 
L 52.390625 72.90625 
L 65.09375 72.90625 
L 28.90625 38.921875 
L 67.671875 0 
L 54.6875 0 
L 19.671875 35.109375 
L 19.671875 0 
L 9.8125 0 
z
" id="DejaVuSans-75"/>
      <path d="M 10.59375 45.40625 
L 73.1875 45.40625 
L 73.1875 37.203125 
L 10.59375 37.203125 
z
M 10.59375 25.484375 
L 73.1875 25.484375 
L 73.1875 17.1875 
L 10.59375 17.1875 
z
" id="DejaVuSans-61"/>
     </defs>
     <g transform="translate(67.099887 38.476562)scale(0.1 -0.1)">
      <use xlink:href="#DejaVuSans-78"/>
      <use x="74.804688" xlink:href="#DejaVuSans-97"/>
      <use x="136.083984" xlink:href="#DejaVuSans-105"/>
      <use x="163.867188" xlink:href="#DejaVuSans-118"/>
      <use x="223.046875" xlink:href="#DejaVuSans-101"/>
      <use x="284.570312" xlink:href="#DejaVuSans-32"/>
      <use x="316.357422" xlink:href="#DejaVuSans-115"/>
      <use x="368.457031" xlink:href="#DejaVuSans-101"/>
      <use x="429.980469" xlink:href="#DejaVuSans-97"/>
      <use x="491.259766" xlink:href="#DejaVuSans-115"/>
      <use x="543.359375" xlink:href="#DejaVuSans-111"/>
      <use x="604.541016" xlink:href="#DejaVuSans-110"/>
      <use x="667.919922" xlink:href="#DejaVuSans-97"/>
      <use x="729.199219" xlink:href="#DejaVuSans-108"/>
      <use x="756.982422" xlink:href="#DejaVuSans-32"/>
      <use x="788.769531" xlink:href="#DejaVuSans-109"/>
      <use x="886.181641" xlink:href="#DejaVuSans-111"/>
      <use x="947.363281" xlink:href="#DejaVuSans-100"/>
      <use x="1010.839844" xlink:href="#DejaVuSans-101"/>
      <use x="1072.363281" xlink:href="#DejaVuSans-108"/>
      <use x="1100.146484" xlink:href="#DejaVuSans-44"/>
      <use x="1131.933594" xlink:href="#DejaVuSans-32"/>
      <use x="1163.720703" xlink:href="#DejaVuSans-119"/>
      <use x="1245.507812" xlink:href="#DejaVuSans-105"/>
      <use x="1273.291016" xlink:href="#DejaVuSans-116"/>
      <use x="1312.5" xlink:href="#DejaVuSans-104"/>
      <use x="1375.878906" xlink:href="#DejaVuSans-32"/>
      <use x="1407.666016" xlink:href="#DejaVuSans-75"/>
      <use x="1473.242188" xlink:href="#DejaVuSans-61"/>
      <use x="1557.03125" xlink:href="#DejaVuSans-54"/>
     </g>
    </g>
    <g id="line2d_28">
     <path d="M 39.099888 49.654687 
L 59.099888 49.654687 
" style="fill:none;stroke:#b512b8;stroke-linecap:square;stroke-width:1.3;"/>
    </g>
    <g id="line2d_29"/>
    <g id="text_16">
     <!-- Naive seasonal model, with K=12 -->
     <g transform="translate(67.099887 53.154687)scale(0.1 -0.1)">
      <use xlink:href="#DejaVuSans-78"/>
      <use x="74.804688" xlink:href="#DejaVuSans-97"/>
      <use x="136.083984" xlink:href="#DejaVuSans-105"/>
      <use x="163.867188" xlink:href="#DejaVuSans-118"/>
      <use x="223.046875" xlink:href="#DejaVuSans-101"/>
      <use x="284.570312" xlink:href="#DejaVuSans-32"/>
      <use x="316.357422" xlink:href="#DejaVuSans-115"/>
      <use x="368.457031" xlink:href="#DejaVuSans-101"/>
      <use x="429.980469" xlink:href="#DejaVuSans-97"/>
      <use x="491.259766" xlink:href="#DejaVuSans-115"/>
      <use x="543.359375" xlink:href="#DejaVuSans-111"/>
      <use x="604.541016" xlink:href="#DejaVuSans-110"/>
      <use x="667.919922" xlink:href="#DejaVuSans-97"/>
      <use x="729.199219" xlink:href="#DejaVuSans-108"/>
      <use x="756.982422" xlink:href="#DejaVuSans-32"/>
      <use x="788.769531" xlink:href="#DejaVuSans-109"/>
      <use x="886.181641" xlink:href="#DejaVuSans-111"/>
      <use x="947.363281" xlink:href="#DejaVuSans-100"/>
      <use x="1010.839844" xlink:href="#DejaVuSans-101"/>
      <use x="1072.363281" xlink:href="#DejaVuSans-108"/>
      <use x="1100.146484" xlink:href="#DejaVuSans-44"/>
      <use x="1131.933594" xlink:href="#DejaVuSans-32"/>
      <use x="1163.720703" xlink:href="#DejaVuSans-119"/>
      <use x="1245.507812" xlink:href="#DejaVuSans-105"/>
      <use x="1273.291016" xlink:href="#DejaVuSans-116"/>
      <use x="1312.5" xlink:href="#DejaVuSans-104"/>
      <use x="1375.878906" xlink:href="#DejaVuSans-32"/>
      <use x="1407.666016" xlink:href="#DejaVuSans-75"/>
      <use x="1473.242188" xlink:href="#DejaVuSans-61"/>
      <use x="1557.03125" xlink:href="#DejaVuSans-49"/>
      <use x="1620.654297" xlink:href="#DejaVuSans-50"/>
     </g>
    </g>
    <g id="line2d_30">
     <path d="M 39.099888 64.332812 
L 59.099888 64.332812 
" style="fill:none;stroke:#11a9ba;stroke-linecap:square;stroke-width:1.3;"/>
    </g>
    <g id="line2d_31"/>
    <g id="text_17">
     <!-- Naive drift model -->
     <defs>
      <path d="M 41.109375 46.296875 
Q 39.59375 47.171875 37.8125 47.578125 
Q 36.03125 48 33.890625 48 
Q 26.265625 48 22.1875 43.046875 
Q 18.109375 38.09375 18.109375 28.8125 
L 18.109375 0 
L 9.078125 0 
L 9.078125 54.6875 
L 18.109375 54.6875 
L 18.109375 46.1875 
Q 20.953125 51.171875 25.484375 53.578125 
Q 30.03125 56 36.53125 56 
Q 37.453125 56 38.578125 55.875 
Q 39.703125 55.765625 41.0625 55.515625 
z
" id="DejaVuSans-114"/>
      <path d="M 37.109375 75.984375 
L 37.109375 68.5 
L 28.515625 68.5 
Q 23.6875 68.5 21.796875 66.546875 
Q 19.921875 64.59375 19.921875 59.515625 
L 19.921875 54.6875 
L 34.71875 54.6875 
L 34.71875 47.703125 
L 19.921875 47.703125 
L 19.921875 0 
L 10.890625 0 
L 10.890625 47.703125 
L 2.296875 47.703125 
L 2.296875 54.6875 
L 10.890625 54.6875 
L 10.890625 58.5 
Q 10.890625 67.625 15.140625 71.796875 
Q 19.390625 75.984375 28.609375 75.984375 
z
" id="DejaVuSans-102"/>
     </defs>
     <g transform="translate(67.099887 67.832812)scale(0.1 -0.1)">
      <use xlink:href="#DejaVuSans-78"/>
      <use x="74.804688" xlink:href="#DejaVuSans-97"/>
      <use x="136.083984" xlink:href="#DejaVuSans-105"/>
      <use x="163.867188" xlink:href="#DejaVuSans-118"/>
      <use x="223.046875" xlink:href="#DejaVuSans-101"/>
      <use x="284.570312" xlink:href="#DejaVuSans-32"/>
      <use x="316.357422" xlink:href="#DejaVuSans-100"/>
      <use x="379.833984" xlink:href="#DejaVuSans-114"/>
      <use x="420.947266" xlink:href="#DejaVuSans-105"/>
      <use x="448.730469" xlink:href="#DejaVuSans-102"/>
      <use x="482.185547" xlink:href="#DejaVuSans-116"/>
      <use x="521.394531" xlink:href="#DejaVuSans-32"/>
      <use x="553.181641" xlink:href="#DejaVuSans-109"/>
      <use x="650.59375" xlink:href="#DejaVuSans-111"/>
      <use x="711.775391" xlink:href="#DejaVuSans-100"/>
      <use x="775.251953" xlink:href="#DejaVuSans-101"/>
      <use x="836.775391" xlink:href="#DejaVuSans-108"/>
     </g>
    </g>
    <g id="line2d_32">
     <path d="M 39.099888 79.010937 
L 59.099888 79.010937 
" style="fill:none;stroke:#0d780f;stroke-linecap:square;stroke-width:1.3;"/>
    </g>
    <g id="line2d_33"/>
    <g id="text_18">
     <!-- Ensemble -->
     <defs>
      <path d="M 9.8125 72.90625 
L 55.90625 72.90625 
L 55.90625 64.59375 
L 19.671875 64.59375 
L 19.671875 43.015625 
L 54.390625 43.015625 
L 54.390625 34.71875 
L 19.671875 34.71875 
L 19.671875 8.296875 
L 56.78125 8.296875 
L 56.78125 0 
L 9.8125 0 
z
" id="DejaVuSans-69"/>
      <path d="M 48.6875 27.296875 
Q 48.6875 37.203125 44.609375 42.84375 
Q 40.53125 48.484375 33.40625 48.484375 
Q 26.265625 48.484375 22.1875 42.84375 
Q 18.109375 37.203125 18.109375 27.296875 
Q 18.109375 17.390625 22.1875 11.75 
Q 26.265625 6.109375 33.40625 6.109375 
Q 40.53125 6.109375 44.609375 11.75 
Q 48.6875 17.390625 48.6875 27.296875 
z
M 18.109375 46.390625 
Q 20.953125 51.265625 25.265625 53.625 
Q 29.59375 56 35.59375 56 
Q 45.5625 56 51.78125 48.09375 
Q 58.015625 40.1875 58.015625 27.296875 
Q 58.015625 14.40625 51.78125 6.484375 
Q 45.5625 -1.421875 35.59375 -1.421875 
Q 29.59375 -1.421875 25.265625 0.953125 
Q 20.953125 3.328125 18.109375 8.203125 
L 18.109375 0 
L 9.078125 0 
L 9.078125 75.984375 
L 18.109375 75.984375 
z
" id="DejaVuSans-98"/>
     </defs>
     <g transform="translate(67.099887 82.510937)scale(0.1 -0.1)">
      <use xlink:href="#DejaVuSans-69"/>
      <use x="63.183594" xlink:href="#DejaVuSans-110"/>
      <use x="126.5625" xlink:href="#DejaVuSans-115"/>
      <use x="178.662109" xlink:href="#DejaVuSans-101"/>
      <use x="240.185547" xlink:href="#DejaVuSans-109"/>
      <use x="337.597656" xlink:href="#DejaVuSans-98"/>
      <use x="401.074219" xlink:href="#DejaVuSans-108"/>
      <use x="428.857422" xlink:href="#DejaVuSans-101"/>
     </g>
    </g>
   </g>
  </g>
 </g>
 <defs>
  <clipPath id="p7e3fca58d6">
   <rect height="271.8" width="446.4" x="30.099888" y="7.2"/>
  </clipPath>
 </defs>
</svg>
