<?xml version="1.0" encoding="utf-8" standalone="no"?>
<!DOCTYPE svg PUBLIC "-//W3C//DTD SVG 1.1//EN"
  "http://www.w3.org/Graphics/SVG/1.1/DTD/svg11.dtd">
<!-- Created with matplotlib (https://matplotlib.org/) -->
<svg height="301.261878pt" version="1.1" viewBox="0 0 601.157685 301.261878" width="601.157685pt" xmlns="http://www.w3.org/2000/svg" xmlns:xlink="http://www.w3.org/1999/xlink">
 <defs>
  <style type="text/css">
*{stroke-linecap:butt;stroke-linejoin:round;}
  </style>
 </defs>
 <g id="figure_1">
  <g id="patch_1">
   <path d="M 0 301.261878 
L 601.157685 301.261878 
L 601.157685 0 
L 0 0 
z
" style="fill:none;"/>
  </g>
  <g id="axes_1">
   <g id="patch_2">
    <path d="M 34.427583 279 
L 592.427583 279 
L 592.427583 7.2 
L 34.427583 7.2 
z
" style="fill:#ffffff;"/>
   </g>
   <g id="PolyCollection_1">
    <defs>
     <path d="M 61.896085 -100.561851 
L 61.896085 -102.69722 
L 64.000951 -103.383598 
L 66.105817 -103.83964 
L 68.210684 -104.204074 
L 70.31555 -104.515422 
L 72.420416 -104.787699 
L 74.525282 -105.030789 
L 76.630148 -105.248692 
L 78.735014 -105.447536 
L 80.83988 -105.632739 
L 82.944746 -105.801622 
L 85.049612 -105.955084 
L 87.154478 -106.0949 
L 89.259344 -106.221644 
L 91.364211 -106.337093 
L 93.469077 -106.442463 
L 95.573943 -106.536158 
L 97.678809 -106.619659 
L 99.783675 -106.693029 
L 101.888541 -106.758691 
L 103.993407 -106.816517 
L 106.098273 -106.866858 
L 108.203139 -106.910989 
L 110.308005 -106.950056 
L 112.412871 -106.982664 
L 114.517737 -107.011269 
L 116.622604 -107.03489 
L 118.72747 -107.053559 
L 120.832336 -107.068187 
L 122.937202 -107.079506 
L 125.042068 -107.088165 
L 127.146934 -107.094436 
L 129.2518 -107.098965 
L 131.356666 -107.10173 
L 133.461532 -107.103166 
L 135.566398 -107.103755 
L 137.671264 -107.103887 
L 139.776131 -107.103888 
L 141.880997 -107.104069 
L 143.985863 -107.104753 
L 146.090729 -107.106046 
L 148.195595 -107.10821 
L 150.300461 -107.111465 
L 152.405327 -107.116129 
L 154.510193 -107.122023 
L 156.615059 -107.129335 
L 158.719925 -107.13836 
L 160.824791 -107.148963 
L 162.929658 -107.161321 
L 165.034524 -107.175581 
L 167.13939 -107.191342 
L 169.244256 -107.208532 
L 171.349122 -107.2271 
L 173.453988 -107.247095 
L 175.558854 -107.268486 
L 177.66372 -107.291486 
L 179.768586 -107.315509 
L 181.873452 -107.340731 
L 183.978318 -107.367051 
L 186.083184 -107.394076 
L 188.188051 -107.421019 
L 190.292917 -107.448124 
L 192.397783 -107.475132 
L 194.502649 -107.502076 
L 196.607515 -107.528558 
L 198.712381 -107.554853 
L 200.817247 -107.580732 
L 202.922113 -107.60547 
L 205.026979 -107.629708 
L 207.131845 -107.653083 
L 209.236711 -107.675133 
L 211.341578 -107.695899 
L 213.446444 -107.715534 
L 215.55131 -107.733623 
L 217.656176 -107.750666 
L 219.761042 -107.766222 
L 221.865908 -107.780087 
L 223.970774 -107.792777 
L 226.07564 -107.804384 
L 228.180506 -107.814391 
L 230.285372 -107.823028 
L 232.390238 -107.830517 
L 234.495105 -107.836622 
L 236.599971 -107.84155 
L 238.704837 -107.845222 
L 240.809703 -107.847912 
L 242.914569 -107.849834 
L 245.019435 -107.851206 
L 247.124301 -107.852031 
L 249.229167 -107.852377 
L 251.334033 -107.852445 
L 253.438899 -107.852446 
L 255.543765 -107.852593 
L 257.648631 -107.853079 
L 259.753498 -107.854091 
L 261.858364 -107.855809 
L 263.96323 -107.858544 
L 266.068096 -107.862214 
L 268.172962 -107.867248 
L 270.277828 -107.873721 
L 272.382694 -107.881818 
L 274.48756 -107.891698 
L 276.592426 -107.903743 
L 278.697292 -107.917593 
L 280.802158 -107.933545 
L 282.907025 -107.95179 
L 285.011891 -107.972198 
L 287.116757 -107.994917 
L 289.221623 -108.02033 
L 291.326489 -108.047587 
L 293.431355 -108.076712 
L 295.536221 -108.108617 
L 297.641087 -108.142893 
L 299.745953 -108.179259 
L 301.850819 -108.216765 
L 303.955685 -108.256249 
L 306.060552 -108.297819 
L 308.165418 -108.341298 
L 310.270284 -108.38543 
L 312.37515 -108.430289 
L 314.480016 -108.476262 
L 316.584882 -108.5233 
L 318.689748 -108.571254 
L 320.794614 -108.619765 
L 322.89948 -108.668384 
L 325.004346 -108.716946 
L 327.109212 -108.764957 
L 329.214078 -108.812711 
L 331.318945 -108.86026 
L 333.423811 -108.906755 
L 335.528677 -108.951692 
L 337.633543 -108.995506 
L 339.738409 -109.038209 
L 341.843275 -109.079123 
L 343.948141 -109.118741 
L 346.053007 -109.15616 
L 348.157873 -109.192316 
L 350.262739 -109.227216 
L 352.367605 -109.260323 
L 354.472472 -109.291104 
L 356.577338 -109.320097 
L 358.682204 -109.346567 
L 360.78707 -109.370554 
L 362.891936 -109.392728 
L 364.996802 -109.412988 
L 367.101668 -109.431211 
L 369.206534 -109.447742 
L 371.3114 -109.462104 
L 373.416266 -109.474947 
L 375.521132 -109.486227 
L 377.625999 -109.495941 
L 379.730865 -109.504037 
L 381.835731 -109.510665 
L 383.940597 -109.516287 
L 386.045463 -109.520842 
L 388.150329 -109.52454 
L 390.255195 -109.527214 
L 392.360061 -109.529195 
L 394.464927 -109.530528 
L 396.569793 -109.531329 
L 398.674659 -109.531735 
L 400.779525 -109.531901 
L 402.884392 -109.531945 
L 404.989258 -109.531945 
L 407.094124 -109.531989 
L 409.19899 -109.532169 
L 411.303856 -109.532576 
L 413.408722 -109.533332 
L 415.513588 -109.534405 
L 417.618454 -109.535813 
L 419.72332 -109.537749 
L 421.828186 -109.540311 
L 423.933052 -109.543392 
L 426.037919 -109.547048 
L 428.142785 -109.551313 
L 430.247651 -109.556245 
L 432.352517 -109.561605 
L 434.457383 -109.567796 
L 436.562249 -109.574514 
L 438.667115 -109.581714 
L 440.771981 -109.5894 
L 442.876847 -109.597825 
L 444.981713 -109.606893 
L 447.086579 -109.616492 
L 449.191446 -109.626441 
L 451.296312 -109.636643 
L 453.401178 -109.647347 
L 455.506044 -109.658273 
L 457.61091 -109.669277 
L 459.715776 -109.680373 
L 461.820642 -109.691688 
L 463.925508 -109.703094 
L 466.030374 -109.714391 
L 468.13524 -109.725811 
L 470.240106 -109.73687 
L 472.344972 -109.747751 
L 474.449839 -109.758699 
L 476.554705 -109.769263 
L 478.659571 -109.779506 
L 480.764437 -109.789315 
L 482.869303 -109.798838 
L 484.974169 -109.807863 
L 487.079035 -109.816391 
L 489.183901 -109.824607 
L 491.288767 -109.832265 
L 493.393633 -109.839351 
L 495.498499 -109.845968 
L 497.603366 -109.851926 
L 499.708232 -109.857196 
L 501.813098 -109.862014 
L 503.917964 -109.866375 
L 506.02283 -109.870295 
L 508.127696 -109.873883 
L 510.232562 -109.876954 
L 512.337428 -109.87951 
L 514.442294 -109.881706 
L 516.54716 -109.883404 
L 518.652026 -109.884651 
L 520.756893 -109.885618 
L 522.861759 -109.886314 
L 524.966625 -109.886716 
L 527.071491 -109.88695 
L 529.176357 -109.887072 
L 531.281223 -109.887117 
L 533.386089 -109.887118 
L 535.490955 -109.88713 
L 537.595821 -109.887218 
L 539.700687 -109.887442 
L 541.805553 -109.887855 
L 543.910419 -109.888545 
L 546.015286 -109.889613 
L 548.120152 -109.89106 
L 550.225018 -109.892848 
L 552.329884 -109.895228 
L 554.43475 -109.898062 
L 556.539616 -109.901299 
L 558.644482 -109.905129 
L 560.749348 -109.909607 
L 562.854214 -109.914649 
L 564.95908 -109.920368 
L 564.95908 -93.338703 
L 564.95908 -93.338703 
L 562.854214 -93.344422 
L 560.749348 -93.349463 
L 558.644482 -93.353942 
L 556.539616 -93.357772 
L 554.43475 -93.361008 
L 552.329884 -93.363843 
L 550.225018 -93.366222 
L 548.120152 -93.36801 
L 546.015286 -93.369458 
L 543.910419 -93.370526 
L 541.805553 -93.371216 
L 539.700687 -93.371629 
L 537.595821 -93.371853 
L 535.490955 -93.37194 
L 533.386089 -93.371953 
L 531.281223 -93.371954 
L 529.176357 -93.371999 
L 527.071491 -93.372121 
L 524.966625 -93.372355 
L 522.861759 -93.372756 
L 520.756893 -93.373453 
L 518.652026 -93.374419 
L 516.54716 -93.375666 
L 514.442294 -93.377364 
L 512.337428 -93.379561 
L 510.232562 -93.382117 
L 508.127696 -93.385188 
L 506.02283 -93.388776 
L 503.917964 -93.392696 
L 501.813098 -93.397056 
L 499.708232 -93.401874 
L 497.603366 -93.407144 
L 495.498499 -93.413102 
L 493.393633 -93.41972 
L 491.288767 -93.426806 
L 489.183901 -93.434464 
L 487.079035 -93.44268 
L 484.974169 -93.451208 
L 482.869303 -93.460232 
L 480.764437 -93.469756 
L 478.659571 -93.479564 
L 476.554705 -93.489807 
L 474.449839 -93.500372 
L 472.344972 -93.51132 
L 470.240106 -93.522201 
L 468.13524 -93.53326 
L 466.030374 -93.54468 
L 463.925508 -93.555976 
L 461.820642 -93.567383 
L 459.715776 -93.578697 
L 457.61091 -93.589794 
L 455.506044 -93.600798 
L 453.401178 -93.611723 
L 451.296312 -93.622427 
L 449.191446 -93.63263 
L 447.086579 -93.642579 
L 444.981713 -93.652178 
L 442.876847 -93.661245 
L 440.771981 -93.669671 
L 438.667115 -93.677357 
L 436.562249 -93.684557 
L 434.457383 -93.691275 
L 432.352517 -93.697466 
L 430.247651 -93.702825 
L 428.142785 -93.707757 
L 426.037919 -93.712023 
L 423.933052 -93.715679 
L 421.828186 -93.71876 
L 419.72332 -93.721322 
L 417.618454 -93.723257 
L 415.513588 -93.724666 
L 413.408722 -93.725739 
L 411.303856 -93.726495 
L 409.19899 -93.726901 
L 407.094124 -93.727081 
L 404.989258 -93.727125 
L 402.884392 -93.727126 
L 400.779525 -93.72717 
L 398.674659 -93.727336 
L 396.569793 -93.727741 
L 394.464927 -93.728543 
L 392.360061 -93.729876 
L 390.255195 -93.731857 
L 388.150329 -93.734531 
L 386.045463 -93.738228 
L 383.940597 -93.742784 
L 381.835731 -93.748406 
L 379.730865 -93.755034 
L 377.625999 -93.76313 
L 375.521132 -93.772843 
L 373.416266 -93.784124 
L 371.3114 -93.796966 
L 369.206534 -93.811328 
L 367.101668 -93.82786 
L 364.996802 -93.846082 
L 362.891936 -93.866343 
L 360.78707 -93.888517 
L 358.682204 -93.912503 
L 356.577338 -93.938974 
L 354.472472 -93.967967 
L 352.367605 -93.998748 
L 350.262739 -94.031855 
L 348.157873 -94.066754 
L 346.053007 -94.10291 
L 343.948141 -94.14033 
L 341.843275 -94.179947 
L 339.738409 -94.220862 
L 337.633543 -94.263564 
L 335.528677 -94.307378 
L 333.423811 -94.352316 
L 331.318945 -94.398811 
L 329.214078 -94.446359 
L 327.109212 -94.494113 
L 325.004346 -94.542125 
L 322.89948 -94.590686 
L 320.794614 -94.639305 
L 318.689748 -94.687816 
L 316.584882 -94.735771 
L 314.480016 -94.782808 
L 312.37515 -94.828782 
L 310.270284 -94.873641 
L 308.165418 -94.917773 
L 306.060552 -94.961251 
L 303.955685 -95.002821 
L 301.850819 -95.042306 
L 299.745953 -95.079812 
L 297.641087 -95.116177 
L 295.536221 -95.150454 
L 293.431355 -95.182359 
L 291.326489 -95.211484 
L 289.221623 -95.23874 
L 287.116757 -95.264153 
L 285.011891 -95.286872 
L 282.907025 -95.30728 
L 280.802158 -95.325525 
L 278.697292 -95.341478 
L 276.592426 -95.355328 
L 274.48756 -95.367372 
L 272.382694 -95.377252 
L 270.277828 -95.385349 
L 268.172962 -95.391822 
L 266.068096 -95.396857 
L 263.96323 -95.400526 
L 261.858364 -95.403262 
L 259.753498 -95.40498 
L 257.648631 -95.405991 
L 255.543765 -95.406477 
L 253.438899 -95.406625 
L 251.334033 -95.406625 
L 249.229167 -95.406694 
L 247.124301 -95.40704 
L 245.019435 -95.407864 
L 242.914569 -95.409237 
L 240.809703 -95.411158 
L 238.704837 -95.413848 
L 236.599971 -95.417521 
L 234.495105 -95.422449 
L 232.390238 -95.428554 
L 230.285372 -95.436042 
L 228.180506 -95.444679 
L 226.07564 -95.454686 
L 223.970774 -95.466293 
L 221.865908 -95.478983 
L 219.761042 -95.492849 
L 217.656176 -95.508405 
L 215.55131 -95.525447 
L 213.446444 -95.543537 
L 211.341578 -95.563171 
L 209.236711 -95.583938 
L 207.131845 -95.605988 
L 205.026979 -95.629362 
L 202.922113 -95.6536 
L 200.817247 -95.678339 
L 198.712381 -95.704218 
L 196.607515 -95.730513 
L 194.502649 -95.756995 
L 192.397783 -95.783938 
L 190.292917 -95.810946 
L 188.188051 -95.838052 
L 186.083184 -95.864995 
L 183.978318 -95.892019 
L 181.873452 -95.918339 
L 179.768586 -95.943562 
L 177.66372 -95.967585 
L 175.558854 -95.990585 
L 173.453988 -96.011976 
L 171.349122 -96.03197 
L 169.244256 -96.050538 
L 167.13939 -96.067729 
L 165.034524 -96.083489 
L 162.929658 -96.09775 
L 160.824791 -96.110108 
L 158.719925 -96.120711 
L 156.615059 -96.129736 
L 154.510193 -96.137048 
L 152.405327 -96.142942 
L 150.300461 -96.147606 
L 148.195595 -96.150861 
L 146.090729 -96.153024 
L 143.985863 -96.154318 
L 141.880997 -96.155002 
L 139.776131 -96.155182 
L 137.671264 -96.155183 
L 135.566398 -96.155315 
L 133.461532 -96.155905 
L 131.356666 -96.15734 
L 129.2518 -96.160105 
L 127.146934 -96.164634 
L 125.042068 -96.170905 
L 122.937202 -96.179565 
L 120.832336 -96.190884 
L 118.72747 -96.205511 
L 116.622604 -96.22418 
L 114.517737 -96.247801 
L 112.412871 -96.276407 
L 110.308005 -96.309014 
L 108.203139 -96.348082 
L 106.098273 -96.392213 
L 103.993407 -96.442554 
L 101.888541 -96.50038 
L 99.783675 -96.566042 
L 97.678809 -96.639412 
L 95.573943 -96.722913 
L 93.469077 -96.816608 
L 91.364211 -96.921978 
L 89.259344 -97.037427 
L 87.154478 -97.16417 
L 85.049612 -97.303986 
L 82.944746 -97.457449 
L 80.83988 -97.626331 
L 78.735014 -97.811534 
L 76.630148 -98.010379 
L 74.525282 -98.228282 
L 72.420416 -98.471372 
L 70.31555 -98.743649 
L 68.210684 -99.054997 
L 66.105817 -99.41943 
L 64.000951 -99.875472 
L 61.896085 -100.561851 
z
" id="mb3ae7845ca" style="stroke:#003dfd;stroke-opacity:0.25;"/>
    </defs>
    <g clip-path="url(#p1150e5dc48)">
     <use style="fill:#003dfd;fill-opacity:0.25;stroke:#003dfd;stroke-opacity:0.25;" x="0" xlink:href="#mb3ae7845ca" y="301.261878"/>
    </g>
   </g>
   <g id="matplotlib.axis_1">
    <g id="xtick_1">
     <g id="line2d_1">
      <path clip-path="url(#p1150e5dc48)" d="M 59.791219 279 
L 59.791219 7.2 
" style="fill:none;stroke:#dedede;stroke-linecap:square;stroke-width:0.8;"/>
     </g>
     <g id="text_1">
      <!-- 0 -->
      <defs>
       <path d="M 31.78125 66.40625 
Q 24.171875 66.40625 20.328125 58.90625 
Q 16.5 51.421875 16.5 36.375 
Q 16.5 21.390625 20.328125 13.890625 
Q 24.171875 6.390625 31.78125 6.390625 
Q 39.453125 6.390625 43.28125 13.890625 
Q 47.125 21.390625 47.125 36.375 
Q 47.125 51.421875 43.28125 58.90625 
Q 39.453125 66.40625 31.78125 66.40625 
z
M 31.78125 74.21875 
Q 44.046875 74.21875 50.515625 64.515625 
Q 56.984375 54.828125 56.984375 36.375 
Q 56.984375 17.96875 50.515625 8.265625 
Q 44.046875 -1.421875 31.78125 -1.421875 
Q 19.53125 -1.421875 13.0625 8.265625 
Q 6.59375 17.96875 6.59375 36.375 
Q 6.59375 54.828125 13.0625 64.515625 
Q 19.53125 74.21875 31.78125 74.21875 
z
" id="DejaVuSans-48"/>
      </defs>
      <g style="fill:#333333;" transform="translate(57.141238 292.329498)scale(0.0833 -0.0833)">
       <use xlink:href="#DejaVuSans-48"/>
      </g>
     </g>
    </g>
    <g id="xtick_2">
     <g id="line2d_2">
      <path clip-path="url(#p1150e5dc48)" d="M 165.034524 279 
L 165.034524 7.2 
" style="fill:none;stroke:#dedede;stroke-linecap:square;stroke-width:0.8;"/>
     </g>
     <g id="text_2">
      <!-- 50 -->
      <defs>
       <path d="M 10.796875 72.90625 
L 49.515625 72.90625 
L 49.515625 64.59375 
L 19.828125 64.59375 
L 19.828125 46.734375 
Q 21.96875 47.46875 24.109375 47.828125 
Q 26.265625 48.1875 28.421875 48.1875 
Q 40.625 48.1875 47.75 41.5 
Q 54.890625 34.8125 54.890625 23.390625 
Q 54.890625 11.625 47.5625 5.09375 
Q 40.234375 -1.421875 26.90625 -1.421875 
Q 22.3125 -1.421875 17.546875 -0.640625 
Q 12.796875 0.140625 7.71875 1.703125 
L 7.71875 11.625 
Q 12.109375 9.234375 16.796875 8.0625 
Q 21.484375 6.890625 26.703125 6.890625 
Q 35.15625 6.890625 40.078125 11.328125 
Q 45.015625 15.765625 45.015625 23.390625 
Q 45.015625 31 40.078125 35.4375 
Q 35.15625 39.890625 26.703125 39.890625 
Q 22.75 39.890625 18.8125 39.015625 
Q 14.890625 38.140625 10.796875 36.28125 
z
" id="DejaVuSans-53"/>
      </defs>
      <g style="fill:#333333;" transform="translate(159.734561 292.329498)scale(0.0833 -0.0833)">
       <use xlink:href="#DejaVuSans-53"/>
       <use x="63.623047" xlink:href="#DejaVuSans-48"/>
      </g>
     </g>
    </g>
    <g id="xtick_3">
     <g id="line2d_3">
      <path clip-path="url(#p1150e5dc48)" d="M 270.277828 279 
L 270.277828 7.2 
" style="fill:none;stroke:#dedede;stroke-linecap:square;stroke-width:0.8;"/>
     </g>
     <g id="text_3">
      <!-- 100 -->
      <defs>
       <path d="M 12.40625 8.296875 
L 28.515625 8.296875 
L 28.515625 63.921875 
L 10.984375 60.40625 
L 10.984375 69.390625 
L 28.421875 72.90625 
L 38.28125 72.90625 
L 38.28125 8.296875 
L 54.390625 8.296875 
L 54.390625 0 
L 12.40625 0 
z
" id="DejaVuSans-49"/>
      </defs>
      <g style="fill:#333333;" transform="translate(262.327884 292.329498)scale(0.0833 -0.0833)">
       <use xlink:href="#DejaVuSans-49"/>
       <use x="63.623047" xlink:href="#DejaVuSans-48"/>
       <use x="127.246094" xlink:href="#DejaVuSans-48"/>
      </g>
     </g>
    </g>
    <g id="xtick_4">
     <g id="line2d_4">
      <path clip-path="url(#p1150e5dc48)" d="M 375.521132 279 
L 375.521132 7.2 
" style="fill:none;stroke:#dedede;stroke-linecap:square;stroke-width:0.8;"/>
     </g>
     <g id="text_4">
      <!-- 150 -->
      <g style="fill:#333333;" transform="translate(367.571189 292.329498)scale(0.0833 -0.0833)">
       <use xlink:href="#DejaVuSans-49"/>
       <use x="63.623047" xlink:href="#DejaVuSans-53"/>
       <use x="127.246094" xlink:href="#DejaVuSans-48"/>
      </g>
     </g>
    </g>
    <g id="xtick_5">
     <g id="line2d_5">
      <path clip-path="url(#p1150e5dc48)" d="M 480.764437 279 
L 480.764437 7.2 
" style="fill:none;stroke:#dedede;stroke-linecap:square;stroke-width:0.8;"/>
     </g>
     <g id="text_5">
      <!-- 200 -->
      <defs>
       <path d="M 19.1875 8.296875 
L 53.609375 8.296875 
L 53.609375 0 
L 7.328125 0 
L 7.328125 8.296875 
Q 12.9375 14.109375 22.625 23.890625 
Q 32.328125 33.6875 34.8125 36.53125 
Q 39.546875 41.84375 41.421875 45.53125 
Q 43.3125 49.21875 43.3125 52.78125 
Q 43.3125 58.59375 39.234375 62.25 
Q 35.15625 65.921875 28.609375 65.921875 
Q 23.96875 65.921875 18.8125 64.3125 
Q 13.671875 62.703125 7.8125 59.421875 
L 7.8125 69.390625 
Q 13.765625 71.78125 18.9375 73 
Q 24.125 74.21875 28.421875 74.21875 
Q 39.75 74.21875 46.484375 68.546875 
Q 53.21875 62.890625 53.21875 53.421875 
Q 53.21875 48.921875 51.53125 44.890625 
Q 49.859375 40.875 45.40625 35.40625 
Q 44.1875 33.984375 37.640625 27.21875 
Q 31.109375 20.453125 19.1875 8.296875 
z
" id="DejaVuSans-50"/>
      </defs>
      <g style="fill:#333333;" transform="translate(472.814493 292.329498)scale(0.0833 -0.0833)">
       <use xlink:href="#DejaVuSans-50"/>
       <use x="63.623047" xlink:href="#DejaVuSans-48"/>
       <use x="127.246094" xlink:href="#DejaVuSans-48"/>
      </g>
     </g>
    </g>
    <g id="xtick_6">
     <g id="line2d_6">
      <path clip-path="url(#p1150e5dc48)" d="M 586.007741 279 
L 586.007741 7.2 
" style="fill:none;stroke:#dedede;stroke-linecap:square;stroke-width:0.8;"/>
     </g>
     <g id="text_6">
      <!-- 250 -->
      <g style="fill:#333333;" transform="translate(578.057797 292.329498)scale(0.0833 -0.0833)">
       <use xlink:href="#DejaVuSans-50"/>
       <use x="63.623047" xlink:href="#DejaVuSans-53"/>
       <use x="127.246094" xlink:href="#DejaVuSans-48"/>
      </g>
     </g>
    </g>
   </g>
   <g id="matplotlib.axis_2">
    <g id="ytick_1">
     <g id="line2d_7">
      <path clip-path="url(#p1150e5dc48)" d="M 34.427583 271.663462 
L 592.427583 271.663462 
" style="fill:none;stroke:#dedede;stroke-linecap:square;stroke-width:0.8;"/>
     </g>
     <g id="line2d_8">
      <defs>
       <path d="M 0 0 
L -3.5 0 
" id="mcb5f296ef5" style="stroke:#333333;stroke-width:0.8;"/>
      </defs>
      <g>
       <use style="fill:#333333;stroke:#333333;stroke-width:0.8;" x="34.427583" xlink:href="#mcb5f296ef5" y="271.663462"/>
      </g>
     </g>
     <g id="text_7">
      <!-- −0.4 -->
      <defs>
       <path d="M 10.59375 35.5 
L 73.1875 35.5 
L 73.1875 27.203125 
L 10.59375 27.203125 
z
" id="DejaVuSans-8722"/>
       <path d="M 10.6875 12.40625 
L 21 12.40625 
L 21 0 
L 10.6875 0 
z
" id="DejaVuSans-46"/>
       <path d="M 37.796875 64.3125 
L 12.890625 25.390625 
L 37.796875 25.390625 
z
M 35.203125 72.90625 
L 47.609375 72.90625 
L 47.609375 25.390625 
L 58.015625 25.390625 
L 58.015625 17.1875 
L 47.609375 17.1875 
L 47.609375 0 
L 37.796875 0 
L 37.796875 17.1875 
L 4.890625 17.1875 
L 4.890625 26.703125 
z
" id="DejaVuSans-52"/>
      </defs>
      <g style="fill:#333333;" transform="translate(7.2 274.828211)scale(0.0833 -0.0833)">
       <use xlink:href="#DejaVuSans-8722"/>
       <use x="83.789062" xlink:href="#DejaVuSans-48"/>
       <use x="147.412109" xlink:href="#DejaVuSans-46"/>
       <use x="179.199219" xlink:href="#DejaVuSans-52"/>
      </g>
     </g>
    </g>
    <g id="ytick_2">
     <g id="line2d_9">
      <path clip-path="url(#p1150e5dc48)" d="M 34.427583 235.647902 
L 592.427583 235.647902 
" style="fill:none;stroke:#dedede;stroke-linecap:square;stroke-width:0.8;"/>
     </g>
     <g id="line2d_10">
      <g>
       <use style="fill:#333333;stroke:#333333;stroke-width:0.8;" x="34.427583" xlink:href="#mcb5f296ef5" y="235.647902"/>
      </g>
     </g>
     <g id="text_8">
      <!-- −0.2 -->
      <g style="fill:#333333;" transform="translate(7.2 238.812651)scale(0.0833 -0.0833)">
       <use xlink:href="#DejaVuSans-8722"/>
       <use x="83.789062" xlink:href="#DejaVuSans-48"/>
       <use x="147.412109" xlink:href="#DejaVuSans-46"/>
       <use x="179.199219" xlink:href="#DejaVuSans-50"/>
      </g>
     </g>
    </g>
    <g id="ytick_3">
     <g id="line2d_11">
      <path clip-path="url(#p1150e5dc48)" d="M 34.427583 199.632343 
L 592.427583 199.632343 
" style="fill:none;stroke:#dedede;stroke-linecap:square;stroke-width:0.8;"/>
     </g>
     <g id="line2d_12">
      <g>
       <use style="fill:#333333;stroke:#333333;stroke-width:0.8;" x="34.427583" xlink:href="#mcb5f296ef5" y="199.632343"/>
      </g>
     </g>
     <g id="text_9">
      <!-- 0.0 -->
      <g style="fill:#333333;" transform="translate(14.18028 202.797092)scale(0.0833 -0.0833)">
       <use xlink:href="#DejaVuSans-48"/>
       <use x="63.623047" xlink:href="#DejaVuSans-46"/>
       <use x="95.410156" xlink:href="#DejaVuSans-48"/>
      </g>
     </g>
    </g>
    <g id="ytick_4">
     <g id="line2d_13">
      <path clip-path="url(#p1150e5dc48)" d="M 34.427583 163.616783 
L 592.427583 163.616783 
" style="fill:none;stroke:#dedede;stroke-linecap:square;stroke-width:0.8;"/>
     </g>
     <g id="line2d_14">
      <g>
       <use style="fill:#333333;stroke:#333333;stroke-width:0.8;" x="34.427583" xlink:href="#mcb5f296ef5" y="163.616783"/>
      </g>
     </g>
     <g id="text_10">
      <!-- 0.2 -->
      <g style="fill:#333333;" transform="translate(14.18028 166.781533)scale(0.0833 -0.0833)">
       <use xlink:href="#DejaVuSans-48"/>
       <use x="63.623047" xlink:href="#DejaVuSans-46"/>
       <use x="95.410156" xlink:href="#DejaVuSans-50"/>
      </g>
     </g>
    </g>
    <g id="ytick_5">
     <g id="line2d_15">
      <path clip-path="url(#p1150e5dc48)" d="M 34.427583 127.601224 
L 592.427583 127.601224 
" style="fill:none;stroke:#dedede;stroke-linecap:square;stroke-width:0.8;"/>
     </g>
     <g id="line2d_16">
      <g>
       <use style="fill:#333333;stroke:#333333;stroke-width:0.8;" x="34.427583" xlink:href="#mcb5f296ef5" y="127.601224"/>
      </g>
     </g>
     <g id="text_11">
      <!-- 0.4 -->
      <g style="fill:#333333;" transform="translate(14.18028 130.765973)scale(0.0833 -0.0833)">
       <use xlink:href="#DejaVuSans-48"/>
       <use x="63.623047" xlink:href="#DejaVuSans-46"/>
       <use x="95.410156" xlink:href="#DejaVuSans-52"/>
      </g>
     </g>
    </g>
    <g id="ytick_6">
     <g id="line2d_17">
      <path clip-path="url(#p1150e5dc48)" d="M 34.427583 91.585664 
L 592.427583 91.585664 
" style="fill:none;stroke:#dedede;stroke-linecap:square;stroke-width:0.8;"/>
     </g>
     <g id="line2d_18">
      <g>
       <use style="fill:#333333;stroke:#333333;stroke-width:0.8;" x="34.427583" xlink:href="#mcb5f296ef5" y="91.585664"/>
      </g>
     </g>
     <g id="text_12">
      <!-- 0.6 -->
      <defs>
       <path d="M 33.015625 40.375 
Q 26.375 40.375 22.484375 35.828125 
Q 18.609375 31.296875 18.609375 23.390625 
Q 18.609375 15.53125 22.484375 10.953125 
Q 26.375 6.390625 33.015625 6.390625 
Q 39.65625 6.390625 43.53125 10.953125 
Q 47.40625 15.53125 47.40625 23.390625 
Q 47.40625 31.296875 43.53125 35.828125 
Q 39.65625 40.375 33.015625 40.375 
z
M 52.59375 71.296875 
L 52.59375 62.3125 
Q 48.875 64.0625 45.09375 64.984375 
Q 41.3125 65.921875 37.59375 65.921875 
Q 27.828125 65.921875 22.671875 59.328125 
Q 17.53125 52.734375 16.796875 39.40625 
Q 19.671875 43.65625 24.015625 45.921875 
Q 28.375 48.1875 33.59375 48.1875 
Q 44.578125 48.1875 50.953125 41.515625 
Q 57.328125 34.859375 57.328125 23.390625 
Q 57.328125 12.15625 50.6875 5.359375 
Q 44.046875 -1.421875 33.015625 -1.421875 
Q 20.359375 -1.421875 13.671875 8.265625 
Q 6.984375 17.96875 6.984375 36.375 
Q 6.984375 53.65625 15.1875 63.9375 
Q 23.390625 74.21875 37.203125 74.21875 
Q 40.921875 74.21875 44.703125 73.484375 
Q 48.484375 72.75 52.59375 71.296875 
z
" id="DejaVuSans-54"/>
      </defs>
      <g style="fill:#333333;" transform="translate(14.18028 94.750414)scale(0.0833 -0.0833)">
       <use xlink:href="#DejaVuSans-48"/>
       <use x="63.623047" xlink:href="#DejaVuSans-46"/>
       <use x="95.410156" xlink:href="#DejaVuSans-54"/>
      </g>
     </g>
    </g>
    <g id="ytick_7">
     <g id="line2d_19">
      <path clip-path="url(#p1150e5dc48)" d="M 34.427583 55.570105 
L 592.427583 55.570105 
" style="fill:none;stroke:#dedede;stroke-linecap:square;stroke-width:0.8;"/>
     </g>
     <g id="line2d_20">
      <g>
       <use style="fill:#333333;stroke:#333333;stroke-width:0.8;" x="34.427583" xlink:href="#mcb5f296ef5" y="55.570105"/>
      </g>
     </g>
     <g id="text_13">
      <!-- 0.8 -->
      <defs>
       <path d="M 31.78125 34.625 
Q 24.75 34.625 20.71875 30.859375 
Q 16.703125 27.09375 16.703125 20.515625 
Q 16.703125 13.921875 20.71875 10.15625 
Q 24.75 6.390625 31.78125 6.390625 
Q 38.8125 6.390625 42.859375 10.171875 
Q 46.921875 13.96875 46.921875 20.515625 
Q 46.921875 27.09375 42.890625 30.859375 
Q 38.875 34.625 31.78125 34.625 
z
M 21.921875 38.8125 
Q 15.578125 40.375 12.03125 44.71875 
Q 8.5 49.078125 8.5 55.328125 
Q 8.5 64.0625 14.71875 69.140625 
Q 20.953125 74.21875 31.78125 74.21875 
Q 42.671875 74.21875 48.875 69.140625 
Q 55.078125 64.0625 55.078125 55.328125 
Q 55.078125 49.078125 51.53125 44.71875 
Q 48 40.375 41.703125 38.8125 
Q 48.828125 37.15625 52.796875 32.3125 
Q 56.78125 27.484375 56.78125 20.515625 
Q 56.78125 9.90625 50.3125 4.234375 
Q 43.84375 -1.421875 31.78125 -1.421875 
Q 19.734375 -1.421875 13.25 4.234375 
Q 6.78125 9.90625 6.78125 20.515625 
Q 6.78125 27.484375 10.78125 32.3125 
Q 14.796875 37.15625 21.921875 38.8125 
z
M 18.3125 54.390625 
Q 18.3125 48.734375 21.84375 45.5625 
Q 25.390625 42.390625 31.78125 42.390625 
Q 38.140625 42.390625 41.71875 45.5625 
Q 45.3125 48.734375 45.3125 54.390625 
Q 45.3125 60.0625 41.71875 63.234375 
Q 38.140625 66.40625 31.78125 66.40625 
Q 25.390625 66.40625 21.84375 63.234375 
Q 18.3125 60.0625 18.3125 54.390625 
z
" id="DejaVuSans-56"/>
      </defs>
      <g style="fill:#333333;" transform="translate(14.18028 58.734854)scale(0.0833 -0.0833)">
       <use xlink:href="#DejaVuSans-48"/>
       <use x="63.623047" xlink:href="#DejaVuSans-46"/>
       <use x="95.410156" xlink:href="#DejaVuSans-56"/>
      </g>
     </g>
    </g>
    <g id="ytick_8">
     <g id="line2d_21">
      <path clip-path="url(#p1150e5dc48)" d="M 34.427583 19.554545 
L 592.427583 19.554545 
" style="fill:none;stroke:#dedede;stroke-linecap:square;stroke-width:0.8;"/>
     </g>
     <g id="line2d_22">
      <g>
       <use style="fill:#333333;stroke:#333333;stroke-width:0.8;" x="34.427583" xlink:href="#mcb5f296ef5" y="19.554545"/>
      </g>
     </g>
     <g id="text_14">
      <!-- 1.0 -->
      <g style="fill:#333333;" transform="translate(14.18028 22.719295)scale(0.0833 -0.0833)">
       <use xlink:href="#DejaVuSans-49"/>
       <use x="63.623047" xlink:href="#DejaVuSans-46"/>
       <use x="95.410156" xlink:href="#DejaVuSans-48"/>
      </g>
     </g>
    </g>
   </g>
   <g id="line2d_23">
    <path clip-path="url(#p1150e5dc48)" d="M 59.791219 199.632343 
L 59.791219 19.554545 
" style="fill:none;stroke:#000000;stroke-linecap:square;stroke-width:0.5;"/>
   </g>
   <g id="line2d_24">
    <path clip-path="url(#p1150e5dc48)" d="M 61.896085 199.632343 
L 61.896085 33.65714 
" style="fill:none;stroke:#000000;stroke-linecap:square;stroke-width:0.5;"/>
   </g>
   <g id="line2d_25">
    <path clip-path="url(#p1150e5dc48)" d="M 64.000951 199.632343 
L 64.000951 39.278071 
" style="fill:none;stroke:#000000;stroke-linecap:square;stroke-width:0.5;"/>
   </g>
   <g id="line2d_26">
    <path clip-path="url(#p1150e5dc48)" d="M 66.105817 199.632343 
L 66.105817 42.148457 
" style="fill:none;stroke:#000000;stroke-linecap:square;stroke-width:0.5;"/>
   </g>
   <g id="line2d_27">
    <path clip-path="url(#p1150e5dc48)" d="M 68.210684 199.632343 
L 68.210684 44.129434 
" style="fill:none;stroke:#000000;stroke-linecap:square;stroke-width:0.5;"/>
   </g>
   <g id="line2d_28">
    <path clip-path="url(#p1150e5dc48)" d="M 70.31555 199.632343 
L 70.31555 46.639293 
" style="fill:none;stroke:#000000;stroke-linecap:square;stroke-width:0.5;"/>
   </g>
   <g id="line2d_29">
    <path clip-path="url(#p1150e5dc48)" d="M 72.420416 199.632343 
L 72.420416 49.034461 
" style="fill:none;stroke:#000000;stroke-linecap:square;stroke-width:0.5;"/>
   </g>
   <g id="line2d_30">
    <path clip-path="url(#p1150e5dc48)" d="M 74.525282 199.632343 
L 74.525282 52.124572 
" style="fill:none;stroke:#000000;stroke-linecap:square;stroke-width:0.5;"/>
   </g>
   <g id="line2d_31">
    <path clip-path="url(#p1150e5dc48)" d="M 76.630148 199.632343 
L 76.630148 54.600886 
" style="fill:none;stroke:#000000;stroke-linecap:square;stroke-width:0.5;"/>
   </g>
   <g id="line2d_32">
    <path clip-path="url(#p1150e5dc48)" d="M 78.735014 199.632343 
L 78.735014 56.095582 
" style="fill:none;stroke:#000000;stroke-linecap:square;stroke-width:0.5;"/>
   </g>
   <g id="line2d_33">
    <path clip-path="url(#p1150e5dc48)" d="M 80.83988 199.632343 
L 80.83988 59.497399 
" style="fill:none;stroke:#000000;stroke-linecap:square;stroke-width:0.5;"/>
   </g>
   <g id="line2d_34">
    <path clip-path="url(#p1150e5dc48)" d="M 82.944746 199.632343 
L 82.944746 63.44006 
" style="fill:none;stroke:#000000;stroke-linecap:square;stroke-width:0.5;"/>
   </g>
   <g id="line2d_35">
    <path clip-path="url(#p1150e5dc48)" d="M 85.049612 199.632343 
L 85.049612 67.41219 
" style="fill:none;stroke:#000000;stroke-linecap:square;stroke-width:0.5;"/>
   </g>
   <g id="line2d_36">
    <path clip-path="url(#p1150e5dc48)" d="M 87.154478 199.632343 
L 87.154478 71.85085 
" style="fill:none;stroke:#000000;stroke-linecap:square;stroke-width:0.5;"/>
   </g>
   <g id="line2d_37">
    <path clip-path="url(#p1150e5dc48)" d="M 89.259344 199.632343 
L 89.259344 76.056973 
" style="fill:none;stroke:#000000;stroke-linecap:square;stroke-width:0.5;"/>
   </g>
   <g id="line2d_38">
    <path clip-path="url(#p1150e5dc48)" d="M 91.364211 199.632343 
L 91.364211 80.18118 
" style="fill:none;stroke:#000000;stroke-linecap:square;stroke-width:0.5;"/>
   </g>
   <g id="line2d_39">
    <path clip-path="url(#p1150e5dc48)" d="M 93.469077 199.632343 
L 93.469077 85.821834 
" style="fill:none;stroke:#000000;stroke-linecap:square;stroke-width:0.5;"/>
   </g>
   <g id="line2d_40">
    <path clip-path="url(#p1150e5dc48)" d="M 95.573943 199.632343 
L 95.573943 91.216145 
" style="fill:none;stroke:#000000;stroke-linecap:square;stroke-width:0.5;"/>
   </g>
   <g id="line2d_41">
    <path clip-path="url(#p1150e5dc48)" d="M 97.678809 199.632343 
L 97.678809 97.203304 
" style="fill:none;stroke:#000000;stroke-linecap:square;stroke-width:0.5;"/>
   </g>
   <g id="line2d_42">
    <path clip-path="url(#p1150e5dc48)" d="M 99.783675 199.632343 
L 99.783675 102.065452 
" style="fill:none;stroke:#000000;stroke-linecap:square;stroke-width:0.5;"/>
   </g>
   <g id="line2d_43">
    <path clip-path="url(#p1150e5dc48)" d="M 101.888541 199.632343 
L 101.888541 107.518905 
" style="fill:none;stroke:#000000;stroke-linecap:square;stroke-width:0.5;"/>
   </g>
   <g id="line2d_44">
    <path clip-path="url(#p1150e5dc48)" d="M 103.993407 199.632343 
L 103.993407 113.237464 
" style="fill:none;stroke:#000000;stroke-linecap:square;stroke-width:0.5;"/>
   </g>
   <g id="line2d_45">
    <path clip-path="url(#p1150e5dc48)" d="M 106.098273 199.632343 
L 106.098273 118.37647 
" style="fill:none;stroke:#000000;stroke-linecap:square;stroke-width:0.5;"/>
   </g>
   <g id="line2d_46">
    <path clip-path="url(#p1150e5dc48)" d="M 108.203139 199.632343 
L 108.203139 122.877822 
" style="fill:none;stroke:#000000;stroke-linecap:square;stroke-width:0.5;"/>
   </g>
   <g id="line2d_47">
    <path clip-path="url(#p1150e5dc48)" d="M 110.308005 199.632343 
L 110.308005 129.273367 
" style="fill:none;stroke:#000000;stroke-linecap:square;stroke-width:0.5;"/>
   </g>
   <g id="line2d_48">
    <path clip-path="url(#p1150e5dc48)" d="M 112.412871 199.632343 
L 112.412871 133.544234 
" style="fill:none;stroke:#000000;stroke-linecap:square;stroke-width:0.5;"/>
   </g>
   <g id="line2d_49">
    <path clip-path="url(#p1150e5dc48)" d="M 114.517737 199.632343 
L 114.517737 139.431538 
" style="fill:none;stroke:#000000;stroke-linecap:square;stroke-width:0.5;"/>
   </g>
   <g id="line2d_50">
    <path clip-path="url(#p1150e5dc48)" d="M 116.622604 199.632343 
L 116.622604 146.007537 
" style="fill:none;stroke:#000000;stroke-linecap:square;stroke-width:0.5;"/>
   </g>
   <g id="line2d_51">
    <path clip-path="url(#p1150e5dc48)" d="M 118.72747 199.632343 
L 118.72747 152.092696 
" style="fill:none;stroke:#000000;stroke-linecap:square;stroke-width:0.5;"/>
   </g>
   <g id="line2d_52">
    <path clip-path="url(#p1150e5dc48)" d="M 120.832336 199.632343 
L 120.832336 157.763042 
" style="fill:none;stroke:#000000;stroke-linecap:square;stroke-width:0.5;"/>
   </g>
   <g id="line2d_53">
    <path clip-path="url(#p1150e5dc48)" d="M 122.937202 199.632343 
L 122.937202 162.978024 
" style="fill:none;stroke:#000000;stroke-linecap:square;stroke-width:0.5;"/>
   </g>
   <g id="line2d_54">
    <path clip-path="url(#p1150e5dc48)" d="M 125.042068 199.632343 
L 125.042068 168.417702 
" style="fill:none;stroke:#000000;stroke-linecap:square;stroke-width:0.5;"/>
   </g>
   <g id="line2d_55">
    <path clip-path="url(#p1150e5dc48)" d="M 127.146934 199.632343 
L 127.146934 173.092407 
" style="fill:none;stroke:#000000;stroke-linecap:square;stroke-width:0.5;"/>
   </g>
   <g id="line2d_56">
    <path clip-path="url(#p1150e5dc48)" d="M 129.2518 199.632343 
L 129.2518 178.887923 
" style="fill:none;stroke:#000000;stroke-linecap:square;stroke-width:0.5;"/>
   </g>
   <g id="line2d_57">
    <path clip-path="url(#p1150e5dc48)" d="M 131.356666 199.632343 
L 131.356666 184.683853 
" style="fill:none;stroke:#000000;stroke-linecap:square;stroke-width:0.5;"/>
   </g>
   <g id="line2d_58">
    <path clip-path="url(#p1150e5dc48)" d="M 133.461532 199.632343 
L 133.461532 190.050813 
" style="fill:none;stroke:#000000;stroke-linecap:square;stroke-width:0.5;"/>
   </g>
   <g id="line2d_59">
    <path clip-path="url(#p1150e5dc48)" d="M 135.566398 199.632343 
L 135.566398 195.100704 
" style="fill:none;stroke:#000000;stroke-linecap:square;stroke-width:0.5;"/>
   </g>
   <g id="line2d_60">
    <path clip-path="url(#p1150e5dc48)" d="M 137.671264 199.632343 
L 137.671264 200.075121 
" style="fill:none;stroke:#000000;stroke-linecap:square;stroke-width:0.5;"/>
   </g>
   <g id="line2d_61">
    <path clip-path="url(#p1150e5dc48)" d="M 139.776131 199.632343 
L 139.776131 204.930607 
" style="fill:none;stroke:#000000;stroke-linecap:square;stroke-width:0.5;"/>
   </g>
   <g id="line2d_62">
    <path clip-path="url(#p1150e5dc48)" d="M 141.880997 199.632343 
L 141.880997 209.952473 
" style="fill:none;stroke:#000000;stroke-linecap:square;stroke-width:0.5;"/>
   </g>
   <g id="line2d_63">
    <path clip-path="url(#p1150e5dc48)" d="M 143.985863 199.632343 
L 143.985863 213.828563 
" style="fill:none;stroke:#000000;stroke-linecap:square;stroke-width:0.5;"/>
   </g>
   <g id="line2d_64">
    <path clip-path="url(#p1150e5dc48)" d="M 146.090729 199.632343 
L 146.090729 217.994042 
" style="fill:none;stroke:#000000;stroke-linecap:square;stroke-width:0.5;"/>
   </g>
   <g id="line2d_65">
    <path clip-path="url(#p1150e5dc48)" d="M 148.195595 199.632343 
L 148.195595 222.157589 
" style="fill:none;stroke:#000000;stroke-linecap:square;stroke-width:0.5;"/>
   </g>
   <g id="line2d_66">
    <path clip-path="url(#p1150e5dc48)" d="M 150.300461 199.632343 
L 150.300461 226.606663 
" style="fill:none;stroke:#000000;stroke-linecap:square;stroke-width:0.5;"/>
   </g>
   <g id="line2d_67">
    <path clip-path="url(#p1150e5dc48)" d="M 152.405327 199.632343 
L 152.405327 229.97123 
" style="fill:none;stroke:#000000;stroke-linecap:square;stroke-width:0.5;"/>
   </g>
   <g id="line2d_68">
    <path clip-path="url(#p1150e5dc48)" d="M 154.510193 199.632343 
L 154.510193 233.443918 
" style="fill:none;stroke:#000000;stroke-linecap:square;stroke-width:0.5;"/>
   </g>
   <g id="line2d_69">
    <path clip-path="url(#p1150e5dc48)" d="M 156.615059 199.632343 
L 156.615059 237.224232 
" style="fill:none;stroke:#000000;stroke-linecap:square;stroke-width:0.5;"/>
   </g>
   <g id="line2d_70">
    <path clip-path="url(#p1150e5dc48)" d="M 158.719925 199.632343 
L 158.719925 240.414713 
" style="fill:none;stroke:#000000;stroke-linecap:square;stroke-width:0.5;"/>
   </g>
   <g id="line2d_71">
    <path clip-path="url(#p1150e5dc48)" d="M 160.824791 199.632343 
L 160.824791 243.705221 
" style="fill:none;stroke:#000000;stroke-linecap:square;stroke-width:0.5;"/>
   </g>
   <g id="line2d_72">
    <path clip-path="url(#p1150e5dc48)" d="M 162.929658 199.632343 
L 162.929658 247.03462 
" style="fill:none;stroke:#000000;stroke-linecap:square;stroke-width:0.5;"/>
   </g>
   <g id="line2d_73">
    <path clip-path="url(#p1150e5dc48)" d="M 165.034524 199.632343 
L 165.034524 249.532316 
" style="fill:none;stroke:#000000;stroke-linecap:square;stroke-width:0.5;"/>
   </g>
   <g id="line2d_74">
    <path clip-path="url(#p1150e5dc48)" d="M 167.13939 199.632343 
L 167.13939 251.825136 
" style="fill:none;stroke:#000000;stroke-linecap:square;stroke-width:0.5;"/>
   </g>
   <g id="line2d_75">
    <path clip-path="url(#p1150e5dc48)" d="M 169.244256 199.632343 
L 169.244256 253.961991 
" style="fill:none;stroke:#000000;stroke-linecap:square;stroke-width:0.5;"/>
   </g>
   <g id="line2d_76">
    <path clip-path="url(#p1150e5dc48)" d="M 171.349122 199.632343 
L 171.349122 256.10812 
" style="fill:none;stroke:#000000;stroke-linecap:square;stroke-width:0.5;"/>
   </g>
   <g id="line2d_77">
    <path clip-path="url(#p1150e5dc48)" d="M 173.453988 199.632343 
L 173.453988 258.154294 
" style="fill:none;stroke:#000000;stroke-linecap:square;stroke-width:0.5;"/>
   </g>
   <g id="line2d_78">
    <path clip-path="url(#p1150e5dc48)" d="M 175.558854 199.632343 
L 175.558854 260.435237 
" style="fill:none;stroke:#000000;stroke-linecap:square;stroke-width:0.5;"/>
   </g>
   <g id="line2d_79">
    <path clip-path="url(#p1150e5dc48)" d="M 177.66372 199.632343 
L 177.66372 261.900941 
" style="fill:none;stroke:#000000;stroke-linecap:square;stroke-width:0.5;"/>
   </g>
   <g id="line2d_80">
    <path clip-path="url(#p1150e5dc48)" d="M 179.768586 199.632343 
L 179.768586 263.5758 
" style="fill:none;stroke:#000000;stroke-linecap:square;stroke-width:0.5;"/>
   </g>
   <g id="line2d_81">
    <path clip-path="url(#p1150e5dc48)" d="M 181.873452 199.632343 
L 181.873452 265.099737 
" style="fill:none;stroke:#000000;stroke-linecap:square;stroke-width:0.5;"/>
   </g>
   <g id="line2d_82">
    <path clip-path="url(#p1150e5dc48)" d="M 183.978318 199.632343 
L 183.978318 266.124411 
" style="fill:none;stroke:#000000;stroke-linecap:square;stroke-width:0.5;"/>
   </g>
   <g id="line2d_83">
    <path clip-path="url(#p1150e5dc48)" d="M 186.083184 199.632343 
L 186.083184 266.179228 
" style="fill:none;stroke:#000000;stroke-linecap:square;stroke-width:0.5;"/>
   </g>
   <g id="line2d_84">
    <path clip-path="url(#p1150e5dc48)" d="M 188.188051 199.632343 
L 188.188051 266.535626 
" style="fill:none;stroke:#000000;stroke-linecap:square;stroke-width:0.5;"/>
   </g>
   <g id="line2d_85">
    <path clip-path="url(#p1150e5dc48)" d="M 190.292917 199.632343 
L 190.292917 266.570821 
" style="fill:none;stroke:#000000;stroke-linecap:square;stroke-width:0.5;"/>
   </g>
   <g id="line2d_86">
    <path clip-path="url(#p1150e5dc48)" d="M 192.397783 199.632343 
L 192.397783 266.645455 
" style="fill:none;stroke:#000000;stroke-linecap:square;stroke-width:0.5;"/>
   </g>
   <g id="line2d_87">
    <path clip-path="url(#p1150e5dc48)" d="M 194.502649 199.632343 
L 194.502649 266.220424 
" style="fill:none;stroke:#000000;stroke-linecap:square;stroke-width:0.5;"/>
   </g>
   <g id="line2d_88">
    <path clip-path="url(#p1150e5dc48)" d="M 196.607515 199.632343 
L 196.607515 266.132833 
" style="fill:none;stroke:#000000;stroke-linecap:square;stroke-width:0.5;"/>
   </g>
   <g id="line2d_89">
    <path clip-path="url(#p1150e5dc48)" d="M 198.712381 199.632343 
L 198.712381 265.750144 
" style="fill:none;stroke:#000000;stroke-linecap:square;stroke-width:0.5;"/>
   </g>
   <g id="line2d_90">
    <path clip-path="url(#p1150e5dc48)" d="M 200.817247 199.632343 
L 200.817247 264.415231 
" style="fill:none;stroke:#000000;stroke-linecap:square;stroke-width:0.5;"/>
   </g>
   <g id="line2d_91">
    <path clip-path="url(#p1150e5dc48)" d="M 202.922113 199.632343 
L 202.922113 263.887574 
" style="fill:none;stroke:#000000;stroke-linecap:square;stroke-width:0.5;"/>
   </g>
   <g id="line2d_92">
    <path clip-path="url(#p1150e5dc48)" d="M 205.026979 199.632343 
L 205.026979 262.857727 
" style="fill:none;stroke:#000000;stroke-linecap:square;stroke-width:0.5;"/>
   </g>
   <g id="line2d_93">
    <path clip-path="url(#p1150e5dc48)" d="M 207.131845 199.632343 
L 207.131845 261.156235 
" style="fill:none;stroke:#000000;stroke-linecap:square;stroke-width:0.5;"/>
   </g>
   <g id="line2d_94">
    <path clip-path="url(#p1150e5dc48)" d="M 209.236711 199.632343 
L 209.236711 259.444779 
" style="fill:none;stroke:#000000;stroke-linecap:square;stroke-width:0.5;"/>
   </g>
   <g id="line2d_95">
    <path clip-path="url(#p1150e5dc48)" d="M 211.341578 199.632343 
L 211.341578 257.888656 
" style="fill:none;stroke:#000000;stroke-linecap:square;stroke-width:0.5;"/>
   </g>
   <g id="line2d_96">
    <path clip-path="url(#p1150e5dc48)" d="M 213.446444 199.632343 
L 213.446444 255.636485 
" style="fill:none;stroke:#000000;stroke-linecap:square;stroke-width:0.5;"/>
   </g>
   <g id="line2d_97">
    <path clip-path="url(#p1150e5dc48)" d="M 215.55131 199.632343 
L 215.55131 254.069302 
" style="fill:none;stroke:#000000;stroke-linecap:square;stroke-width:0.5;"/>
   </g>
   <g id="line2d_98">
    <path clip-path="url(#p1150e5dc48)" d="M 217.656176 199.632343 
L 217.656176 251.71057 
" style="fill:none;stroke:#000000;stroke-linecap:square;stroke-width:0.5;"/>
   </g>
   <g id="line2d_99">
    <path clip-path="url(#p1150e5dc48)" d="M 219.761042 199.632343 
L 219.761042 248.858937 
" style="fill:none;stroke:#000000;stroke-linecap:square;stroke-width:0.5;"/>
   </g>
   <g id="line2d_100">
    <path clip-path="url(#p1150e5dc48)" d="M 221.865908 199.632343 
L 221.865908 246.777074 
" style="fill:none;stroke:#000000;stroke-linecap:square;stroke-width:0.5;"/>
   </g>
   <g id="line2d_101">
    <path clip-path="url(#p1150e5dc48)" d="M 223.970774 199.632343 
L 223.970774 244.764332 
" style="fill:none;stroke:#000000;stroke-linecap:square;stroke-width:0.5;"/>
   </g>
   <g id="line2d_102">
    <path clip-path="url(#p1150e5dc48)" d="M 226.07564 199.632343 
L 226.07564 241.575127 
" style="fill:none;stroke:#000000;stroke-linecap:square;stroke-width:0.5;"/>
   </g>
   <g id="line2d_103">
    <path clip-path="url(#p1150e5dc48)" d="M 228.180506 199.632343 
L 228.180506 238.627742 
" style="fill:none;stroke:#000000;stroke-linecap:square;stroke-width:0.5;"/>
   </g>
   <g id="line2d_104">
    <path clip-path="url(#p1150e5dc48)" d="M 230.285372 199.632343 
L 230.285372 235.967005 
" style="fill:none;stroke:#000000;stroke-linecap:square;stroke-width:0.5;"/>
   </g>
   <g id="line2d_105">
    <path clip-path="url(#p1150e5dc48)" d="M 232.390238 199.632343 
L 232.390238 232.45624 
" style="fill:none;stroke:#000000;stroke-linecap:square;stroke-width:0.5;"/>
   </g>
   <g id="line2d_106">
    <path clip-path="url(#p1150e5dc48)" d="M 234.495105 199.632343 
L 234.495105 229.135847 
" style="fill:none;stroke:#000000;stroke-linecap:square;stroke-width:0.5;"/>
   </g>
   <g id="line2d_107">
    <path clip-path="url(#p1150e5dc48)" d="M 236.599971 199.632343 
L 236.599971 225.111855 
" style="fill:none;stroke:#000000;stroke-linecap:square;stroke-width:0.5;"/>
   </g>
   <g id="line2d_108">
    <path clip-path="url(#p1150e5dc48)" d="M 238.704837 199.632343 
L 238.704837 221.443848 
" style="fill:none;stroke:#000000;stroke-linecap:square;stroke-width:0.5;"/>
   </g>
   <g id="line2d_109">
    <path clip-path="url(#p1150e5dc48)" d="M 240.809703 199.632343 
L 240.809703 218.068942 
" style="fill:none;stroke:#000000;stroke-linecap:square;stroke-width:0.5;"/>
   </g>
   <g id="line2d_110">
    <path clip-path="url(#p1150e5dc48)" d="M 242.914569 199.632343 
L 242.914569 215.218164 
" style="fill:none;stroke:#000000;stroke-linecap:square;stroke-width:0.5;"/>
   </g>
   <g id="line2d_111">
    <path clip-path="url(#p1150e5dc48)" d="M 245.019435 199.632343 
L 245.019435 211.713679 
" style="fill:none;stroke:#000000;stroke-linecap:square;stroke-width:0.5;"/>
   </g>
   <g id="line2d_112">
    <path clip-path="url(#p1150e5dc48)" d="M 247.124301 199.632343 
L 247.124301 207.457657 
" style="fill:none;stroke:#000000;stroke-linecap:square;stroke-width:0.5;"/>
   </g>
   <g id="line2d_113">
    <path clip-path="url(#p1150e5dc48)" d="M 249.229167 199.632343 
L 249.229167 203.111604 
" style="fill:none;stroke:#000000;stroke-linecap:square;stroke-width:0.5;"/>
   </g>
   <g id="line2d_114">
    <path clip-path="url(#p1150e5dc48)" d="M 251.334033 199.632343 
L 251.334033 199.245865 
" style="fill:none;stroke:#000000;stroke-linecap:square;stroke-width:0.5;"/>
   </g>
   <g id="line2d_115">
    <path clip-path="url(#p1150e5dc48)" d="M 253.438899 199.632343 
L 253.438899 194.523871 
" style="fill:none;stroke:#000000;stroke-linecap:square;stroke-width:0.5;"/>
   </g>
   <g id="line2d_116">
    <path clip-path="url(#p1150e5dc48)" d="M 255.543765 199.632343 
L 255.543765 190.357682 
" style="fill:none;stroke:#000000;stroke-linecap:square;stroke-width:0.5;"/>
   </g>
   <g id="line2d_117">
    <path clip-path="url(#p1150e5dc48)" d="M 257.648631 199.632343 
L 257.648631 186.251008 
" style="fill:none;stroke:#000000;stroke-linecap:square;stroke-width:0.5;"/>
   </g>
   <g id="line2d_118">
    <path clip-path="url(#p1150e5dc48)" d="M 259.753498 199.632343 
L 259.753498 182.188663 
" style="fill:none;stroke:#000000;stroke-linecap:square;stroke-width:0.5;"/>
   </g>
   <g id="line2d_119">
    <path clip-path="url(#p1150e5dc48)" d="M 261.858364 199.632343 
L 261.858364 177.618409 
" style="fill:none;stroke:#000000;stroke-linecap:square;stroke-width:0.5;"/>
   </g>
   <g id="line2d_120">
    <path clip-path="url(#p1150e5dc48)" d="M 263.96323 199.632343 
L 263.96323 174.129025 
" style="fill:none;stroke:#000000;stroke-linecap:square;stroke-width:0.5;"/>
   </g>
   <g id="line2d_121">
    <path clip-path="url(#p1150e5dc48)" d="M 266.068096 199.632343 
L 266.068096 169.750189 
" style="fill:none;stroke:#000000;stroke-linecap:square;stroke-width:0.5;"/>
   </g>
   <g id="line2d_122">
    <path clip-path="url(#p1150e5dc48)" d="M 268.172962 199.632343 
L 268.172962 165.731914 
" style="fill:none;stroke:#000000;stroke-linecap:square;stroke-width:0.5;"/>
   </g>
   <g id="line2d_123">
    <path clip-path="url(#p1150e5dc48)" d="M 270.277828 199.632343 
L 270.277828 161.696513 
" style="fill:none;stroke:#000000;stroke-linecap:square;stroke-width:0.5;"/>
   </g>
   <g id="line2d_124">
    <path clip-path="url(#p1150e5dc48)" d="M 272.382694 199.632343 
L 272.382694 157.696125 
" style="fill:none;stroke:#000000;stroke-linecap:square;stroke-width:0.5;"/>
   </g>
   <g id="line2d_125">
    <path clip-path="url(#p1150e5dc48)" d="M 274.48756 199.632343 
L 274.48756 153.290101 
" style="fill:none;stroke:#000000;stroke-linecap:square;stroke-width:0.5;"/>
   </g>
   <g id="line2d_126">
    <path clip-path="url(#p1150e5dc48)" d="M 276.592426 199.632343 
L 276.592426 149.885219 
" style="fill:none;stroke:#000000;stroke-linecap:square;stroke-width:0.5;"/>
   </g>
   <g id="line2d_127">
    <path clip-path="url(#p1150e5dc48)" d="M 278.697292 199.632343 
L 278.697292 146.18066 
" style="fill:none;stroke:#000000;stroke-linecap:square;stroke-width:0.5;"/>
   </g>
   <g id="line2d_128">
    <path clip-path="url(#p1150e5dc48)" d="M 280.802158 199.632343 
L 280.802158 142.390562 
" style="fill:none;stroke:#000000;stroke-linecap:square;stroke-width:0.5;"/>
   </g>
   <g id="line2d_129">
    <path clip-path="url(#p1150e5dc48)" d="M 282.907025 199.632343 
L 282.907025 139.000144 
" style="fill:none;stroke:#000000;stroke-linecap:square;stroke-width:0.5;"/>
   </g>
   <g id="line2d_130">
    <path clip-path="url(#p1150e5dc48)" d="M 285.011891 199.632343 
L 285.011891 135.550117 
" style="fill:none;stroke:#000000;stroke-linecap:square;stroke-width:0.5;"/>
   </g>
   <g id="line2d_131">
    <path clip-path="url(#p1150e5dc48)" d="M 287.116757 199.632343 
L 287.116757 131.729014 
" style="fill:none;stroke:#000000;stroke-linecap:square;stroke-width:0.5;"/>
   </g>
   <g id="line2d_132">
    <path clip-path="url(#p1150e5dc48)" d="M 289.221623 199.632343 
L 289.221623 129.164426 
" style="fill:none;stroke:#000000;stroke-linecap:square;stroke-width:0.5;"/>
   </g>
   <g id="line2d_133">
    <path clip-path="url(#p1150e5dc48)" d="M 291.326489 199.632343 
L 291.326489 126.628648 
" style="fill:none;stroke:#000000;stroke-linecap:square;stroke-width:0.5;"/>
   </g>
   <g id="line2d_134">
    <path clip-path="url(#p1150e5dc48)" d="M 293.431355 199.632343 
L 293.431355 123.043197 
" style="fill:none;stroke:#000000;stroke-linecap:square;stroke-width:0.5;"/>
   </g>
   <g id="line2d_135">
    <path clip-path="url(#p1150e5dc48)" d="M 295.536221 199.632343 
L 295.536221 120.044765 
" style="fill:none;stroke:#000000;stroke-linecap:square;stroke-width:0.5;"/>
   </g>
   <g id="line2d_136">
    <path clip-path="url(#p1150e5dc48)" d="M 297.641087 199.632343 
L 297.641087 117.432814 
" style="fill:none;stroke:#000000;stroke-linecap:square;stroke-width:0.5;"/>
   </g>
   <g id="line2d_137">
    <path clip-path="url(#p1150e5dc48)" d="M 299.745953 199.632343 
L 299.745953 115.917661 
" style="fill:none;stroke:#000000;stroke-linecap:square;stroke-width:0.5;"/>
   </g>
   <g id="line2d_138">
    <path clip-path="url(#p1150e5dc48)" d="M 301.850819 199.632343 
L 301.850819 113.487187 
" style="fill:none;stroke:#000000;stroke-linecap:square;stroke-width:0.5;"/>
   </g>
   <g id="line2d_139">
    <path clip-path="url(#p1150e5dc48)" d="M 303.955685 199.632343 
L 303.955685 110.970507 
" style="fill:none;stroke:#000000;stroke-linecap:square;stroke-width:0.5;"/>
   </g>
   <g id="line2d_140">
    <path clip-path="url(#p1150e5dc48)" d="M 306.060552 199.632343 
L 306.060552 108.668471 
" style="fill:none;stroke:#000000;stroke-linecap:square;stroke-width:0.5;"/>
   </g>
   <g id="line2d_141">
    <path clip-path="url(#p1150e5dc48)" d="M 308.165418 199.632343 
L 308.165418 107.688172 
" style="fill:none;stroke:#000000;stroke-linecap:square;stroke-width:0.5;"/>
   </g>
   <g id="line2d_142">
    <path clip-path="url(#p1150e5dc48)" d="M 310.270284 199.632343 
L 310.270284 106.628069 
" style="fill:none;stroke:#000000;stroke-linecap:square;stroke-width:0.5;"/>
   </g>
   <g id="line2d_143">
    <path clip-path="url(#p1150e5dc48)" d="M 312.37515 199.632343 
L 312.37515 105.164804 
" style="fill:none;stroke:#000000;stroke-linecap:square;stroke-width:0.5;"/>
   </g>
   <g id="line2d_144">
    <path clip-path="url(#p1150e5dc48)" d="M 314.480016 199.632343 
L 314.480016 103.753257 
" style="fill:none;stroke:#000000;stroke-linecap:square;stroke-width:0.5;"/>
   </g>
   <g id="line2d_145">
    <path clip-path="url(#p1150e5dc48)" d="M 316.584882 199.632343 
L 316.584882 102.488526 
" style="fill:none;stroke:#000000;stroke-linecap:square;stroke-width:0.5;"/>
   </g>
   <g id="line2d_146">
    <path clip-path="url(#p1150e5dc48)" d="M 318.689748 199.632343 
L 318.689748 101.586616 
" style="fill:none;stroke:#000000;stroke-linecap:square;stroke-width:0.5;"/>
   </g>
   <g id="line2d_147">
    <path clip-path="url(#p1150e5dc48)" d="M 320.794614 199.632343 
L 320.794614 101.135977 
" style="fill:none;stroke:#000000;stroke-linecap:square;stroke-width:0.5;"/>
   </g>
   <g id="line2d_148">
    <path clip-path="url(#p1150e5dc48)" d="M 322.89948 199.632343 
L 322.89948 100.853749 
" style="fill:none;stroke:#b512b8;stroke-linecap:square;"/>
   </g>
   <g id="line2d_149">
    <path clip-path="url(#p1150e5dc48)" d="M 325.004346 199.632343 
L 325.004346 101.080268 
" style="fill:none;stroke:#000000;stroke-linecap:square;stroke-width:0.5;"/>
   </g>
   <g id="line2d_150">
    <path clip-path="url(#p1150e5dc48)" d="M 327.109212 199.632343 
L 327.109212 101.014014 
" style="fill:none;stroke:#000000;stroke-linecap:square;stroke-width:0.5;"/>
   </g>
   <g id="line2d_151">
    <path clip-path="url(#p1150e5dc48)" d="M 329.214078 199.632343 
L 329.214078 100.899653 
" style="fill:none;stroke:#000000;stroke-linecap:square;stroke-width:0.5;"/>
   </g>
   <g id="line2d_152">
    <path clip-path="url(#p1150e5dc48)" d="M 331.318945 199.632343 
L 331.318945 101.680943 
" style="fill:none;stroke:#000000;stroke-linecap:square;stroke-width:0.5;"/>
   </g>
   <g id="line2d_153">
    <path clip-path="url(#p1150e5dc48)" d="M 333.423811 199.632343 
L 333.423811 103.03325 
" style="fill:none;stroke:#000000;stroke-linecap:square;stroke-width:0.5;"/>
   </g>
   <g id="line2d_154">
    <path clip-path="url(#p1150e5dc48)" d="M 335.528677 199.632343 
L 335.528677 103.959048 
" style="fill:none;stroke:#000000;stroke-linecap:square;stroke-width:0.5;"/>
   </g>
   <g id="line2d_155">
    <path clip-path="url(#p1150e5dc48)" d="M 337.633543 199.632343 
L 337.633543 104.90202 
" style="fill:none;stroke:#000000;stroke-linecap:square;stroke-width:0.5;"/>
   </g>
   <g id="line2d_156">
    <path clip-path="url(#p1150e5dc48)" d="M 339.738409 199.632343 
L 339.738409 106.644901 
" style="fill:none;stroke:#000000;stroke-linecap:square;stroke-width:0.5;"/>
   </g>
   <g id="line2d_157">
    <path clip-path="url(#p1150e5dc48)" d="M 341.843275 199.632343 
L 341.843275 107.882986 
" style="fill:none;stroke:#000000;stroke-linecap:square;stroke-width:0.5;"/>
   </g>
   <g id="line2d_158">
    <path clip-path="url(#p1150e5dc48)" d="M 343.948141 199.632343 
L 343.948141 110.234927 
" style="fill:none;stroke:#000000;stroke-linecap:square;stroke-width:0.5;"/>
   </g>
   <g id="line2d_159">
    <path clip-path="url(#p1150e5dc48)" d="M 346.053007 199.632343 
L 346.053007 111.541982 
" style="fill:none;stroke:#000000;stroke-linecap:square;stroke-width:0.5;"/>
   </g>
   <g id="line2d_160">
    <path clip-path="url(#p1150e5dc48)" d="M 348.157873 199.632343 
L 348.157873 112.882767 
" style="fill:none;stroke:#000000;stroke-linecap:square;stroke-width:0.5;"/>
   </g>
   <g id="line2d_161">
    <path clip-path="url(#p1150e5dc48)" d="M 350.262739 199.632343 
L 350.262739 114.949888 
" style="fill:none;stroke:#000000;stroke-linecap:square;stroke-width:0.5;"/>
   </g>
   <g id="line2d_162">
    <path clip-path="url(#p1150e5dc48)" d="M 352.367605 199.632343 
L 352.367605 117.809011 
" style="fill:none;stroke:#000000;stroke-linecap:square;stroke-width:0.5;"/>
   </g>
   <g id="line2d_163">
    <path clip-path="url(#p1150e5dc48)" d="M 354.472472 199.632343 
L 354.472472 120.064914 
" style="fill:none;stroke:#000000;stroke-linecap:square;stroke-width:0.5;"/>
   </g>
   <g id="line2d_164">
    <path clip-path="url(#p1150e5dc48)" d="M 356.577338 199.632343 
L 356.577338 123.468287 
" style="fill:none;stroke:#000000;stroke-linecap:square;stroke-width:0.5;"/>
   </g>
   <g id="line2d_165">
    <path clip-path="url(#p1150e5dc48)" d="M 358.682204 199.632343 
L 358.682204 127.011002 
" style="fill:none;stroke:#000000;stroke-linecap:square;stroke-width:0.5;"/>
   </g>
   <g id="line2d_166">
    <path clip-path="url(#p1150e5dc48)" d="M 360.78707 199.632343 
L 360.78707 129.704265 
" style="fill:none;stroke:#000000;stroke-linecap:square;stroke-width:0.5;"/>
   </g>
   <g id="line2d_167">
    <path clip-path="url(#p1150e5dc48)" d="M 362.891936 199.632343 
L 362.891936 132.698744 
" style="fill:none;stroke:#000000;stroke-linecap:square;stroke-width:0.5;"/>
   </g>
   <g id="line2d_168">
    <path clip-path="url(#p1150e5dc48)" d="M 364.996802 199.632343 
L 364.996802 136.075981 
" style="fill:none;stroke:#000000;stroke-linecap:square;stroke-width:0.5;"/>
   </g>
   <g id="line2d_169">
    <path clip-path="url(#p1150e5dc48)" d="M 367.101668 199.632343 
L 367.101668 139.028766 
" style="fill:none;stroke:#000000;stroke-linecap:square;stroke-width:0.5;"/>
   </g>
   <g id="line2d_170">
    <path clip-path="url(#p1150e5dc48)" d="M 369.206534 199.632343 
L 369.206534 143.089659 
" style="fill:none;stroke:#000000;stroke-linecap:square;stroke-width:0.5;"/>
   </g>
   <g id="line2d_171">
    <path clip-path="url(#p1150e5dc48)" d="M 371.3114 199.632343 
L 371.3114 146.117682 
" style="fill:none;stroke:#000000;stroke-linecap:square;stroke-width:0.5;"/>
   </g>
   <g id="line2d_172">
    <path clip-path="url(#p1150e5dc48)" d="M 373.416266 199.632343 
L 373.416266 149.438816 
" style="fill:none;stroke:#000000;stroke-linecap:square;stroke-width:0.5;"/>
   </g>
   <g id="line2d_173">
    <path clip-path="url(#p1150e5dc48)" d="M 375.521132 199.632343 
L 375.521132 153.024428 
" style="fill:none;stroke:#000000;stroke-linecap:square;stroke-width:0.5;"/>
   </g>
   <g id="line2d_174">
    <path clip-path="url(#p1150e5dc48)" d="M 377.625999 199.632343 
L 377.625999 157.058721 
" style="fill:none;stroke:#000000;stroke-linecap:square;stroke-width:0.5;"/>
   </g>
   <g id="line2d_175">
    <path clip-path="url(#p1150e5dc48)" d="M 379.730865 199.632343 
L 379.730865 161.091459 
" style="fill:none;stroke:#000000;stroke-linecap:square;stroke-width:0.5;"/>
   </g>
   <g id="line2d_176">
    <path clip-path="url(#p1150e5dc48)" d="M 381.835731 199.632343 
L 381.835731 164.123554 
" style="fill:none;stroke:#000000;stroke-linecap:square;stroke-width:0.5;"/>
   </g>
   <g id="line2d_177">
    <path clip-path="url(#p1150e5dc48)" d="M 383.940597 199.632343 
L 383.940597 167.659149 
" style="fill:none;stroke:#000000;stroke-linecap:square;stroke-width:0.5;"/>
   </g>
   <g id="line2d_178">
    <path clip-path="url(#p1150e5dc48)" d="M 386.045463 199.632343 
L 386.045463 170.817572 
" style="fill:none;stroke:#000000;stroke-linecap:square;stroke-width:0.5;"/>
   </g>
   <g id="line2d_179">
    <path clip-path="url(#p1150e5dc48)" d="M 388.150329 199.632343 
L 388.150329 175.124272 
" style="fill:none;stroke:#000000;stroke-linecap:square;stroke-width:0.5;"/>
   </g>
   <g id="line2d_180">
    <path clip-path="url(#p1150e5dc48)" d="M 390.255195 199.632343 
L 390.255195 178.535582 
" style="fill:none;stroke:#000000;stroke-linecap:square;stroke-width:0.5;"/>
   </g>
   <g id="line2d_181">
    <path clip-path="url(#p1150e5dc48)" d="M 392.360061 199.632343 
L 392.360061 182.325513 
" style="fill:none;stroke:#000000;stroke-linecap:square;stroke-width:0.5;"/>
   </g>
   <g id="line2d_182">
    <path clip-path="url(#p1150e5dc48)" d="M 394.464927 199.632343 
L 394.464927 186.207044 
" style="fill:none;stroke:#000000;stroke-linecap:square;stroke-width:0.5;"/>
   </g>
   <g id="line2d_183">
    <path clip-path="url(#p1150e5dc48)" d="M 396.569793 199.632343 
L 396.569793 190.082543 
" style="fill:none;stroke:#000000;stroke-linecap:square;stroke-width:0.5;"/>
   </g>
   <g id="line2d_184">
    <path clip-path="url(#p1150e5dc48)" d="M 398.674659 199.632343 
L 398.674659 193.53239 
" style="fill:none;stroke:#000000;stroke-linecap:square;stroke-width:0.5;"/>
   </g>
   <g id="line2d_185">
    <path clip-path="url(#p1150e5dc48)" d="M 400.779525 199.632343 
L 400.779525 196.471441 
" style="fill:none;stroke:#000000;stroke-linecap:square;stroke-width:0.5;"/>
   </g>
   <g id="line2d_186">
    <path clip-path="url(#p1150e5dc48)" d="M 402.884392 199.632343 
L 402.884392 199.47285 
" style="fill:none;stroke:#000000;stroke-linecap:square;stroke-width:0.5;"/>
   </g>
   <g id="line2d_187">
    <path clip-path="url(#p1150e5dc48)" d="M 404.989258 199.632343 
L 404.989258 202.785967 
" style="fill:none;stroke:#000000;stroke-linecap:square;stroke-width:0.5;"/>
   </g>
   <g id="line2d_188">
    <path clip-path="url(#p1150e5dc48)" d="M 407.094124 199.632343 
L 407.094124 205.994254 
" style="fill:none;stroke:#000000;stroke-linecap:square;stroke-width:0.5;"/>
   </g>
   <g id="line2d_189">
    <path clip-path="url(#p1150e5dc48)" d="M 409.19899 199.632343 
L 409.19899 209.188607 
" style="fill:none;stroke:#000000;stroke-linecap:square;stroke-width:0.5;"/>
   </g>
   <g id="line2d_190">
    <path clip-path="url(#p1150e5dc48)" d="M 411.303856 199.632343 
L 411.303856 212.672064 
" style="fill:none;stroke:#000000;stroke-linecap:square;stroke-width:0.5;"/>
   </g>
   <g id="line2d_191">
    <path clip-path="url(#p1150e5dc48)" d="M 413.408722 199.632343 
L 413.408722 215.165768 
" style="fill:none;stroke:#000000;stroke-linecap:square;stroke-width:0.5;"/>
   </g>
   <g id="line2d_192">
    <path clip-path="url(#p1150e5dc48)" d="M 415.513588 199.632343 
L 415.513588 217.427915 
" style="fill:none;stroke:#000000;stroke-linecap:square;stroke-width:0.5;"/>
   </g>
   <g id="line2d_193">
    <path clip-path="url(#p1150e5dc48)" d="M 417.618454 199.632343 
L 417.618454 220.499061 
" style="fill:none;stroke:#000000;stroke-linecap:square;stroke-width:0.5;"/>
   </g>
   <g id="line2d_194">
    <path clip-path="url(#p1150e5dc48)" d="M 419.72332 199.632343 
L 419.72332 223.641154 
" style="fill:none;stroke:#000000;stroke-linecap:square;stroke-width:0.5;"/>
   </g>
   <g id="line2d_195">
    <path clip-path="url(#p1150e5dc48)" d="M 421.828186 199.632343 
L 421.828186 225.966339 
" style="fill:none;stroke:#000000;stroke-linecap:square;stroke-width:0.5;"/>
   </g>
   <g id="line2d_196">
    <path clip-path="url(#p1150e5dc48)" d="M 423.933052 199.632343 
L 423.933052 228.323166 
" style="fill:none;stroke:#000000;stroke-linecap:square;stroke-width:0.5;"/>
   </g>
   <g id="line2d_197">
    <path clip-path="url(#p1150e5dc48)" d="M 426.037919 199.632343 
L 426.037919 230.632649 
" style="fill:none;stroke:#000000;stroke-linecap:square;stroke-width:0.5;"/>
   </g>
   <g id="line2d_198">
    <path clip-path="url(#p1150e5dc48)" d="M 428.142785 199.632343 
L 428.142785 232.975857 
" style="fill:none;stroke:#000000;stroke-linecap:square;stroke-width:0.5;"/>
   </g>
   <g id="line2d_199">
    <path clip-path="url(#p1150e5dc48)" d="M 430.247651 199.632343 
L 430.247651 234.402386 
" style="fill:none;stroke:#000000;stroke-linecap:square;stroke-width:0.5;"/>
   </g>
   <g id="line2d_200">
    <path clip-path="url(#p1150e5dc48)" d="M 432.352517 199.632343 
L 432.352517 237.014242 
" style="fill:none;stroke:#000000;stroke-linecap:square;stroke-width:0.5;"/>
   </g>
   <g id="line2d_201">
    <path clip-path="url(#p1150e5dc48)" d="M 434.457383 199.632343 
L 434.457383 238.591306 
" style="fill:none;stroke:#000000;stroke-linecap:square;stroke-width:0.5;"/>
   </g>
   <g id="line2d_202">
    <path clip-path="url(#p1150e5dc48)" d="M 436.562249 199.632343 
L 436.562249 239.980194 
" style="fill:none;stroke:#000000;stroke-linecap:square;stroke-width:0.5;"/>
   </g>
   <g id="line2d_203">
    <path clip-path="url(#p1150e5dc48)" d="M 438.667115 199.632343 
L 438.667115 241.340391 
" style="fill:none;stroke:#000000;stroke-linecap:square;stroke-width:0.5;"/>
   </g>
   <g id="line2d_204">
    <path clip-path="url(#p1150e5dc48)" d="M 440.771981 199.632343 
L 440.771981 243.321996 
" style="fill:none;stroke:#000000;stroke-linecap:square;stroke-width:0.5;"/>
   </g>
   <g id="line2d_205">
    <path clip-path="url(#p1150e5dc48)" d="M 442.876847 199.632343 
L 442.876847 244.981276 
" style="fill:none;stroke:#000000;stroke-linecap:square;stroke-width:0.5;"/>
   </g>
   <g id="line2d_206">
    <path clip-path="url(#p1150e5dc48)" d="M 444.981713 199.632343 
L 444.981713 246.319472 
" style="fill:none;stroke:#000000;stroke-linecap:square;stroke-width:0.5;"/>
   </g>
   <g id="line2d_207">
    <path clip-path="url(#p1150e5dc48)" d="M 447.086579 199.632343 
L 447.086579 247.190861 
" style="fill:none;stroke:#000000;stroke-linecap:square;stroke-width:0.5;"/>
   </g>
   <g id="line2d_208">
    <path clip-path="url(#p1150e5dc48)" d="M 449.191446 199.632343 
L 449.191446 247.823809 
" style="fill:none;stroke:#000000;stroke-linecap:square;stroke-width:0.5;"/>
   </g>
   <g id="line2d_209">
    <path clip-path="url(#p1150e5dc48)" d="M 451.296312 199.632343 
L 451.296312 249.026254 
" style="fill:none;stroke:#000000;stroke-linecap:square;stroke-width:0.5;"/>
   </g>
   <g id="line2d_210">
    <path clip-path="url(#p1150e5dc48)" d="M 453.401178 199.632343 
L 453.401178 249.568424 
" style="fill:none;stroke:#000000;stroke-linecap:square;stroke-width:0.5;"/>
   </g>
   <g id="line2d_211">
    <path clip-path="url(#p1150e5dc48)" d="M 455.506044 199.632343 
L 455.506044 249.781348 
" style="fill:none;stroke:#000000;stroke-linecap:square;stroke-width:0.5;"/>
   </g>
   <g id="line2d_212">
    <path clip-path="url(#p1150e5dc48)" d="M 457.61091 199.632343 
L 457.61091 250.026485 
" style="fill:none;stroke:#000000;stroke-linecap:square;stroke-width:0.5;"/>
   </g>
   <g id="line2d_213">
    <path clip-path="url(#p1150e5dc48)" d="M 459.715776 199.632343 
L 459.715776 250.555108 
" style="fill:none;stroke:#000000;stroke-linecap:square;stroke-width:0.5;"/>
   </g>
   <g id="line2d_214">
    <path clip-path="url(#p1150e5dc48)" d="M 461.820642 199.632343 
L 461.820642 250.797357 
" style="fill:none;stroke:#000000;stroke-linecap:square;stroke-width:0.5;"/>
   </g>
   <g id="line2d_215">
    <path clip-path="url(#p1150e5dc48)" d="M 463.925508 199.632343 
L 463.925508 250.584807 
" style="fill:none;stroke:#000000;stroke-linecap:square;stroke-width:0.5;"/>
   </g>
   <g id="line2d_216">
    <path clip-path="url(#p1150e5dc48)" d="M 466.030374 199.632343 
L 466.030374 250.900527 
" style="fill:none;stroke:#000000;stroke-linecap:square;stroke-width:0.5;"/>
   </g>
   <g id="line2d_217">
    <path clip-path="url(#p1150e5dc48)" d="M 468.13524 199.632343 
L 468.13524 250.117143 
" style="fill:none;stroke:#000000;stroke-linecap:square;stroke-width:0.5;"/>
   </g>
   <g id="line2d_218">
    <path clip-path="url(#p1150e5dc48)" d="M 470.240106 199.632343 
L 470.240106 249.74374 
" style="fill:none;stroke:#000000;stroke-linecap:square;stroke-width:0.5;"/>
   </g>
   <g id="line2d_219">
    <path clip-path="url(#p1150e5dc48)" d="M 472.344972 199.632343 
L 472.344972 249.93186 
" style="fill:none;stroke:#000000;stroke-linecap:square;stroke-width:0.5;"/>
   </g>
   <g id="line2d_220">
    <path clip-path="url(#p1150e5dc48)" d="M 474.449839 199.632343 
L 474.449839 249.074972 
" style="fill:none;stroke:#000000;stroke-linecap:square;stroke-width:0.5;"/>
   </g>
   <g id="line2d_221">
    <path clip-path="url(#p1150e5dc48)" d="M 476.554705 199.632343 
L 476.554705 248.348546 
" style="fill:none;stroke:#000000;stroke-linecap:square;stroke-width:0.5;"/>
   </g>
   <g id="line2d_222">
    <path clip-path="url(#p1150e5dc48)" d="M 478.659571 199.632343 
L 478.659571 247.333155 
" style="fill:none;stroke:#000000;stroke-linecap:square;stroke-width:0.5;"/>
   </g>
   <g id="line2d_223">
    <path clip-path="url(#p1150e5dc48)" d="M 480.764437 199.632343 
L 480.764437 246.66385 
" style="fill:none;stroke:#000000;stroke-linecap:square;stroke-width:0.5;"/>
   </g>
   <g id="line2d_224">
    <path clip-path="url(#p1150e5dc48)" d="M 482.869303 199.632343 
L 482.869303 245.440321 
" style="fill:none;stroke:#000000;stroke-linecap:square;stroke-width:0.5;"/>
   </g>
   <g id="line2d_225">
    <path clip-path="url(#p1150e5dc48)" d="M 484.974169 199.632343 
L 484.974169 244.185108 
" style="fill:none;stroke:#000000;stroke-linecap:square;stroke-width:0.5;"/>
   </g>
   <g id="line2d_226">
    <path clip-path="url(#p1150e5dc48)" d="M 487.079035 199.632343 
L 487.079035 243.387526 
" style="fill:none;stroke:#000000;stroke-linecap:square;stroke-width:0.5;"/>
   </g>
   <g id="line2d_227">
    <path clip-path="url(#p1150e5dc48)" d="M 489.183901 199.632343 
L 489.183901 241.893555 
" style="fill:none;stroke:#000000;stroke-linecap:square;stroke-width:0.5;"/>
   </g>
   <g id="line2d_228">
    <path clip-path="url(#p1150e5dc48)" d="M 491.288767 199.632343 
L 491.288767 240.304976 
" style="fill:none;stroke:#000000;stroke-linecap:square;stroke-width:0.5;"/>
   </g>
   <g id="line2d_229">
    <path clip-path="url(#p1150e5dc48)" d="M 493.393633 199.632343 
L 493.393633 238.952498 
" style="fill:none;stroke:#000000;stroke-linecap:square;stroke-width:0.5;"/>
   </g>
   <g id="line2d_230">
    <path clip-path="url(#p1150e5dc48)" d="M 495.498499 199.632343 
L 495.498499 236.955835 
" style="fill:none;stroke:#000000;stroke-linecap:square;stroke-width:0.5;"/>
   </g>
   <g id="line2d_231">
    <path clip-path="url(#p1150e5dc48)" d="M 497.603366 199.632343 
L 497.603366 234.747056 
" style="fill:none;stroke:#000000;stroke-linecap:square;stroke-width:0.5;"/>
   </g>
   <g id="line2d_232">
    <path clip-path="url(#p1150e5dc48)" d="M 499.708232 199.632343 
L 499.708232 233.218079 
" style="fill:none;stroke:#000000;stroke-linecap:square;stroke-width:0.5;"/>
   </g>
   <g id="line2d_233">
    <path clip-path="url(#p1150e5dc48)" d="M 501.813098 199.632343 
L 501.813098 231.592295 
" style="fill:none;stroke:#000000;stroke-linecap:square;stroke-width:0.5;"/>
   </g>
   <g id="line2d_234">
    <path clip-path="url(#p1150e5dc48)" d="M 503.917964 199.632343 
L 503.917964 229.942541 
" style="fill:none;stroke:#000000;stroke-linecap:square;stroke-width:0.5;"/>
   </g>
   <g id="line2d_235">
    <path clip-path="url(#p1150e5dc48)" d="M 506.02283 199.632343 
L 506.02283 228.637136 
" style="fill:none;stroke:#000000;stroke-linecap:square;stroke-width:0.5;"/>
   </g>
   <g id="line2d_236">
    <path clip-path="url(#p1150e5dc48)" d="M 508.127696 199.632343 
L 508.127696 226.473441 
" style="fill:none;stroke:#000000;stroke-linecap:square;stroke-width:0.5;"/>
   </g>
   <g id="line2d_237">
    <path clip-path="url(#p1150e5dc48)" d="M 510.232562 199.632343 
L 510.232562 224.120203 
" style="fill:none;stroke:#000000;stroke-linecap:square;stroke-width:0.5;"/>
   </g>
   <g id="line2d_238">
    <path clip-path="url(#p1150e5dc48)" d="M 512.337428 199.632343 
L 512.337428 222.3389 
" style="fill:none;stroke:#000000;stroke-linecap:square;stroke-width:0.5;"/>
   </g>
   <g id="line2d_239">
    <path clip-path="url(#p1150e5dc48)" d="M 514.442294 199.632343 
L 514.442294 219.599348 
" style="fill:none;stroke:#000000;stroke-linecap:square;stroke-width:0.5;"/>
   </g>
   <g id="line2d_240">
    <path clip-path="url(#p1150e5dc48)" d="M 516.54716 199.632343 
L 516.54716 216.745381 
" style="fill:none;stroke:#000000;stroke-linecap:square;stroke-width:0.5;"/>
   </g>
   <g id="line2d_241">
    <path clip-path="url(#p1150e5dc48)" d="M 518.652026 199.632343 
L 518.652026 214.698647 
" style="fill:none;stroke:#000000;stroke-linecap:square;stroke-width:0.5;"/>
   </g>
   <g id="line2d_242">
    <path clip-path="url(#p1150e5dc48)" d="M 520.756893 199.632343 
L 520.756893 212.418826 
" style="fill:none;stroke:#000000;stroke-linecap:square;stroke-width:0.5;"/>
   </g>
   <g id="line2d_243">
    <path clip-path="url(#p1150e5dc48)" d="M 522.861759 199.632343 
L 522.861759 209.342605 
" style="fill:none;stroke:#000000;stroke-linecap:square;stroke-width:0.5;"/>
   </g>
   <g id="line2d_244">
    <path clip-path="url(#p1150e5dc48)" d="M 524.966625 199.632343 
L 524.966625 207.048824 
" style="fill:none;stroke:#000000;stroke-linecap:square;stroke-width:0.5;"/>
   </g>
   <g id="line2d_245">
    <path clip-path="url(#p1150e5dc48)" d="M 527.071491 199.632343 
L 527.071491 204.99297 
" style="fill:none;stroke:#000000;stroke-linecap:square;stroke-width:0.5;"/>
   </g>
   <g id="line2d_246">
    <path clip-path="url(#p1150e5dc48)" d="M 529.176357 199.632343 
L 529.176357 202.872793 
" style="fill:none;stroke:#000000;stroke-linecap:square;stroke-width:0.5;"/>
   </g>
   <g id="line2d_247">
    <path clip-path="url(#p1150e5dc48)" d="M 531.281223 199.632343 
L 531.281223 200.092808 
" style="fill:none;stroke:#000000;stroke-linecap:square;stroke-width:0.5;"/>
   </g>
   <g id="line2d_248">
    <path clip-path="url(#p1150e5dc48)" d="M 533.386089 199.632343 
L 533.386089 197.901519 
" style="fill:none;stroke:#000000;stroke-linecap:square;stroke-width:0.5;"/>
   </g>
   <g id="line2d_249">
    <path clip-path="url(#p1150e5dc48)" d="M 535.490955 199.632343 
L 535.490955 195.110032 
" style="fill:none;stroke:#000000;stroke-linecap:square;stroke-width:0.5;"/>
   </g>
   <g id="line2d_250">
    <path clip-path="url(#p1150e5dc48)" d="M 537.595821 199.632343 
L 537.595821 192.371769 
" style="fill:none;stroke:#000000;stroke-linecap:square;stroke-width:0.5;"/>
   </g>
   <g id="line2d_251">
    <path clip-path="url(#p1150e5dc48)" d="M 539.700687 199.632343 
L 539.700687 189.781974 
" style="fill:none;stroke:#000000;stroke-linecap:square;stroke-width:0.5;"/>
   </g>
   <g id="line2d_252">
    <path clip-path="url(#p1150e5dc48)" d="M 541.805553 199.632343 
L 541.805553 186.900982 
" style="fill:none;stroke:#000000;stroke-linecap:square;stroke-width:0.5;"/>
   </g>
   <g id="line2d_253">
    <path clip-path="url(#p1150e5dc48)" d="M 543.910419 199.632343 
L 543.910419 183.794218 
" style="fill:none;stroke:#000000;stroke-linecap:square;stroke-width:0.5;"/>
   </g>
   <g id="line2d_254">
    <path clip-path="url(#p1150e5dc48)" d="M 546.015286 199.632343 
L 546.015286 181.187008 
" style="fill:none;stroke:#000000;stroke-linecap:square;stroke-width:0.5;"/>
   </g>
   <g id="line2d_255">
    <path clip-path="url(#p1150e5dc48)" d="M 548.120152 199.632343 
L 548.120152 179.131876 
" style="fill:none;stroke:#000000;stroke-linecap:square;stroke-width:0.5;"/>
   </g>
   <g id="line2d_256">
    <path clip-path="url(#p1150e5dc48)" d="M 550.225018 199.632343 
L 550.225018 175.981015 
" style="fill:none;stroke:#000000;stroke-linecap:square;stroke-width:0.5;"/>
   </g>
   <g id="line2d_257">
    <path clip-path="url(#p1150e5dc48)" d="M 552.329884 199.632343 
L 552.329884 173.812805 
" style="fill:none;stroke:#000000;stroke-linecap:square;stroke-width:0.5;"/>
   </g>
   <g id="line2d_258">
    <path clip-path="url(#p1150e5dc48)" d="M 554.43475 199.632343 
L 554.43475 172.040035 
" style="fill:none;stroke:#000000;stroke-linecap:square;stroke-width:0.5;"/>
   </g>
   <g id="line2d_259">
    <path clip-path="url(#p1150e5dc48)" d="M 556.539616 199.632343 
L 556.539616 169.608607 
" style="fill:none;stroke:#000000;stroke-linecap:square;stroke-width:0.5;"/>
   </g>
   <g id="line2d_260">
    <path clip-path="url(#p1150e5dc48)" d="M 558.644482 199.632343 
L 558.644482 167.15709 
" style="fill:none;stroke:#000000;stroke-linecap:square;stroke-width:0.5;"/>
   </g>
   <g id="line2d_261">
    <path clip-path="url(#p1150e5dc48)" d="M 560.749348 199.632343 
L 560.749348 165.166172 
" style="fill:none;stroke:#000000;stroke-linecap:square;stroke-width:0.5;"/>
   </g>
   <g id="line2d_262">
    <path clip-path="url(#p1150e5dc48)" d="M 562.854214 199.632343 
L 562.854214 162.913233 
" style="fill:none;stroke:#000000;stroke-linecap:square;stroke-width:0.5;"/>
   </g>
   <g id="line2d_263">
    <path clip-path="url(#p1150e5dc48)" d="M 564.95908 199.632343 
L 564.95908 160.836604 
" style="fill:none;stroke:#000000;stroke-linecap:square;stroke-width:0.5;"/>
   </g>
   <g id="line2d_264">
    <path clip-path="url(#p1150e5dc48)" d="M 59.791219 199.632343 
L 567.063946 199.632343 
" style="fill:none;stroke:#000000;stroke-linecap:square;stroke-width:1.3;"/>
   </g>
  </g>
 </g>
 <defs>
  <clipPath id="p1150e5dc48">
   <rect height="271.8" width="558" x="34.427583" y="7.2"/>
  </clipPath>
 </defs>
</svg>
