<?xml version="1.0" encoding="utf-8" standalone="no"?>
<!DOCTYPE svg PUBLIC "-//W3C//DTD SVG 1.1//EN"
  "http://www.w3.org/Graphics/SVG/1.1/DTD/svg11.dtd">
<!-- Created with matplotlib (https://matplotlib.org/) -->
<svg height="260.580003pt" version="1.1" viewBox="0 0 369.447303 260.580003" width="369.447303pt" xmlns="http://www.w3.org/2000/svg" xmlns:xlink="http://www.w3.org/1999/xlink">
 <defs>
  <style type="text/css">
*{stroke-linecap:butt;stroke-linejoin:round;}
  </style>
 </defs>
 <g id="figure_1">
  <g id="patch_1">
   <path d="M 0 260.580003 
L 369.447303 260.580003 
L 369.447303 0 
L 0 0 
z
" style="fill:none;"/>
  </g>
  <g id="axes_1">
   <g id="patch_2">
    <path d="M 27.447303 224.64 
L 362.247303 224.64 
L 362.247303 7.2 
L 27.447303 7.2 
z
" style="fill:#ffffff;"/>
   </g>
   <g id="matplotlib.axis_1">
    <g id="xtick_1">
     <g id="line2d_1">
      <path clip-path="url(#p193c907d32)" d="M 27.447303 224.64 
L 27.447303 7.2 
" style="fill:none;stroke:#dedede;stroke-linecap:square;stroke-width:0.8;"/>
     </g>
    </g>
    <g id="xtick_2">
     <g id="line2d_2">
      <path clip-path="url(#p193c907d32)" d="M 27.676461 224.64 
L 27.676461 7.2 
" style="fill:none;stroke:#dedede;stroke-linecap:square;stroke-width:0.8;"/>
     </g>
     <g id="text_1">
      <!-- 2015 -->
      <defs>
       <path d="M 19.1875 8.296875 
L 53.609375 8.296875 
L 53.609375 0 
L 7.328125 0 
L 7.328125 8.296875 
Q 12.9375 14.109375 22.625 23.890625 
Q 32.328125 33.6875 34.8125 36.53125 
Q 39.546875 41.84375 41.421875 45.53125 
Q 43.3125 49.21875 43.3125 52.78125 
Q 43.3125 58.59375 39.234375 62.25 
Q 35.15625 65.921875 28.609375 65.921875 
Q 23.96875 65.921875 18.8125 64.3125 
Q 13.671875 62.703125 7.8125 59.421875 
L 7.8125 69.390625 
Q 13.765625 71.78125 18.9375 73 
Q 24.125 74.21875 28.421875 74.21875 
Q 39.75 74.21875 46.484375 68.546875 
Q 53.21875 62.890625 53.21875 53.421875 
Q 53.21875 48.921875 51.53125 44.890625 
Q 49.859375 40.875 45.40625 35.40625 
Q 44.1875 33.984375 37.640625 27.21875 
Q 31.109375 20.453125 19.1875 8.296875 
z
" id="DejaVuSans-50"/>
       <path d="M 31.78125 66.40625 
Q 24.171875 66.40625 20.328125 58.90625 
Q 16.5 51.421875 16.5 36.375 
Q 16.5 21.390625 20.328125 13.890625 
Q 24.171875 6.390625 31.78125 6.390625 
Q 39.453125 6.390625 43.28125 13.890625 
Q 47.125 21.390625 47.125 36.375 
Q 47.125 51.421875 43.28125 58.90625 
Q 39.453125 66.40625 31.78125 66.40625 
z
M 31.78125 74.21875 
Q 44.046875 74.21875 50.515625 64.515625 
Q 56.984375 54.828125 56.984375 36.375 
Q 56.984375 17.96875 50.515625 8.265625 
Q 44.046875 -1.421875 31.78125 -1.421875 
Q 19.53125 -1.421875 13.0625 8.265625 
Q 6.59375 17.96875 6.59375 36.375 
Q 6.59375 54.828125 13.0625 64.515625 
Q 19.53125 74.21875 31.78125 74.21875 
z
" id="DejaVuSans-48"/>
       <path d="M 12.40625 8.296875 
L 28.515625 8.296875 
L 28.515625 63.921875 
L 10.984375 60.40625 
L 10.984375 69.390625 
L 28.421875 72.90625 
L 38.28125 72.90625 
L 38.28125 8.296875 
L 54.390625 8.296875 
L 54.390625 0 
L 12.40625 0 
z
" id="DejaVuSans-49"/>
       <path d="M 10.796875 72.90625 
L 49.515625 72.90625 
L 49.515625 64.59375 
L 19.828125 64.59375 
L 19.828125 46.734375 
Q 21.96875 47.46875 24.109375 47.828125 
Q 26.265625 48.1875 28.421875 48.1875 
Q 40.625 48.1875 47.75 41.5 
Q 54.890625 34.8125 54.890625 23.390625 
Q 54.890625 11.625 47.5625 5.09375 
Q 40.234375 -1.421875 26.90625 -1.421875 
Q 22.3125 -1.421875 17.546875 -0.640625 
Q 12.796875 0.140625 7.71875 1.703125 
L 7.71875 11.625 
Q 12.109375 9.234375 16.796875 8.0625 
Q 21.484375 6.890625 26.703125 6.890625 
Q 35.15625 6.890625 40.078125 11.328125 
Q 45.015625 15.765625 45.015625 23.390625 
Q 45.015625 31 40.078125 35.4375 
Q 35.15625 39.890625 26.703125 39.890625 
Q 22.75 39.890625 18.8125 39.015625 
Q 14.890625 38.140625 10.796875 36.28125 
z
" id="DejaVuSans-53"/>
      </defs>
      <g style="fill:#333333;" transform="translate(17.076536 237.969498)scale(0.0833 -0.0833)">
       <use xlink:href="#DejaVuSans-50"/>
       <use x="63.623047" xlink:href="#DejaVuSans-48"/>
       <use x="127.246094" xlink:href="#DejaVuSans-49"/>
       <use x="190.869141" xlink:href="#DejaVuSans-53"/>
      </g>
     </g>
    </g>
    <g id="xtick_3">
     <g id="line2d_3">
      <path clip-path="url(#p193c907d32)" d="M 111.319172 224.64 
L 111.319172 7.2 
" style="fill:none;stroke:#dedede;stroke-linecap:square;stroke-width:0.8;"/>
     </g>
     <g id="text_2">
      <!-- 2016 -->
      <defs>
       <path d="M 33.015625 40.375 
Q 26.375 40.375 22.484375 35.828125 
Q 18.609375 31.296875 18.609375 23.390625 
Q 18.609375 15.53125 22.484375 10.953125 
Q 26.375 6.390625 33.015625 6.390625 
Q 39.65625 6.390625 43.53125 10.953125 
Q 47.40625 15.53125 47.40625 23.390625 
Q 47.40625 31.296875 43.53125 35.828125 
Q 39.65625 40.375 33.015625 40.375 
z
M 52.59375 71.296875 
L 52.59375 62.3125 
Q 48.875 64.0625 45.09375 64.984375 
Q 41.3125 65.921875 37.59375 65.921875 
Q 27.828125 65.921875 22.671875 59.328125 
Q 17.53125 52.734375 16.796875 39.40625 
Q 19.671875 43.65625 24.015625 45.921875 
Q 28.375 48.1875 33.59375 48.1875 
Q 44.578125 48.1875 50.953125 41.515625 
Q 57.328125 34.859375 57.328125 23.390625 
Q 57.328125 12.15625 50.6875 5.359375 
Q 44.046875 -1.421875 33.015625 -1.421875 
Q 20.359375 -1.421875 13.671875 8.265625 
Q 6.984375 17.96875 6.984375 36.375 
Q 6.984375 53.65625 15.1875 63.9375 
Q 23.390625 74.21875 37.203125 74.21875 
Q 40.921875 74.21875 44.703125 73.484375 
Q 48.484375 72.75 52.59375 71.296875 
z
" id="DejaVuSans-54"/>
      </defs>
      <g style="fill:#333333;" transform="translate(100.719247 237.969498)scale(0.0833 -0.0833)">
       <use xlink:href="#DejaVuSans-50"/>
       <use x="63.623047" xlink:href="#DejaVuSans-48"/>
       <use x="127.246094" xlink:href="#DejaVuSans-49"/>
       <use x="190.869141" xlink:href="#DejaVuSans-54"/>
      </g>
     </g>
    </g>
    <g id="xtick_4">
     <g id="line2d_4">
      <path clip-path="url(#p193c907d32)" d="M 195.19104 224.64 
L 195.19104 7.2 
" style="fill:none;stroke:#dedede;stroke-linecap:square;stroke-width:0.8;"/>
     </g>
     <g id="text_3">
      <!-- 2017 -->
      <defs>
       <path d="M 8.203125 72.90625 
L 55.078125 72.90625 
L 55.078125 68.703125 
L 28.609375 0 
L 18.3125 0 
L 43.21875 64.59375 
L 8.203125 64.59375 
z
" id="DejaVuSans-55"/>
      </defs>
      <g style="fill:#333333;" transform="translate(184.591115 237.969498)scale(0.0833 -0.0833)">
       <use xlink:href="#DejaVuSans-50"/>
       <use x="63.623047" xlink:href="#DejaVuSans-48"/>
       <use x="127.246094" xlink:href="#DejaVuSans-49"/>
       <use x="190.869141" xlink:href="#DejaVuSans-55"/>
      </g>
     </g>
    </g>
    <g id="xtick_5">
     <g id="line2d_5">
      <path clip-path="url(#p193c907d32)" d="M 278.833751 224.64 
L 278.833751 7.2 
" style="fill:none;stroke:#dedede;stroke-linecap:square;stroke-width:0.8;"/>
     </g>
     <g id="text_4">
      <!-- 2018 -->
      <defs>
       <path d="M 31.78125 34.625 
Q 24.75 34.625 20.71875 30.859375 
Q 16.703125 27.09375 16.703125 20.515625 
Q 16.703125 13.921875 20.71875 10.15625 
Q 24.75 6.390625 31.78125 6.390625 
Q 38.8125 6.390625 42.859375 10.171875 
Q 46.921875 13.96875 46.921875 20.515625 
Q 46.921875 27.09375 42.890625 30.859375 
Q 38.875 34.625 31.78125 34.625 
z
M 21.921875 38.8125 
Q 15.578125 40.375 12.03125 44.71875 
Q 8.5 49.078125 8.5 55.328125 
Q 8.5 64.0625 14.71875 69.140625 
Q 20.953125 74.21875 31.78125 74.21875 
Q 42.671875 74.21875 48.875 69.140625 
Q 55.078125 64.0625 55.078125 55.328125 
Q 55.078125 49.078125 51.53125 44.71875 
Q 48 40.375 41.703125 38.8125 
Q 48.828125 37.15625 52.796875 32.3125 
Q 56.78125 27.484375 56.78125 20.515625 
Q 56.78125 9.90625 50.3125 4.234375 
Q 43.84375 -1.421875 31.78125 -1.421875 
Q 19.734375 -1.421875 13.25 4.234375 
Q 6.78125 9.90625 6.78125 20.515625 
Q 6.78125 27.484375 10.78125 32.3125 
Q 14.796875 37.15625 21.921875 38.8125 
z
M 18.3125 54.390625 
Q 18.3125 48.734375 21.84375 45.5625 
Q 25.390625 42.390625 31.78125 42.390625 
Q 38.140625 42.390625 41.71875 45.5625 
Q 45.3125 48.734375 45.3125 54.390625 
Q 45.3125 60.0625 41.71875 63.234375 
Q 38.140625 66.40625 31.78125 66.40625 
Q 25.390625 66.40625 21.84375 63.234375 
Q 18.3125 60.0625 18.3125 54.390625 
z
" id="DejaVuSans-56"/>
      </defs>
      <g style="fill:#333333;" transform="translate(268.233826 237.969498)scale(0.0833 -0.0833)">
       <use xlink:href="#DejaVuSans-50"/>
       <use x="63.623047" xlink:href="#DejaVuSans-48"/>
       <use x="127.246094" xlink:href="#DejaVuSans-49"/>
       <use x="190.869141" xlink:href="#DejaVuSans-56"/>
      </g>
     </g>
    </g>
    <g id="xtick_6">
     <g id="line2d_6">
      <path clip-path="url(#p193c907d32)" d="M 362.247303 224.64 
L 362.247303 7.2 
" style="fill:none;stroke:#dedede;stroke-linecap:square;stroke-width:0.8;"/>
     </g>
    </g>
    <g id="xtick_7"/>
    <g id="xtick_8"/>
    <g id="xtick_9"/>
    <g id="xtick_10"/>
    <g id="xtick_11"/>
    <g id="xtick_12"/>
    <g id="xtick_13"/>
    <g id="xtick_14"/>
    <g id="xtick_15"/>
    <g id="xtick_16"/>
    <g id="xtick_17"/>
    <g id="xtick_18"/>
    <g id="text_5">
     <!-- time -->
     <defs>
      <path d="M 27.484375 70.21875 
L 27.484375 54.6875 
L 45.515625 54.6875 
L 45.515625 42.1875 
L 27.484375 42.1875 
L 27.484375 19 
Q 27.484375 15.1875 29 13.84375 
Q 30.515625 12.5 35.015625 12.5 
L 44 12.5 
L 44 0 
L 29 0 
Q 18.65625 0 14.328125 4.3125 
Q 10.015625 8.640625 10.015625 19 
L 10.015625 42.1875 
L 1.3125 42.1875 
L 1.3125 54.6875 
L 10.015625 54.6875 
L 10.015625 70.21875 
z
" id="DejaVuSans-Bold-116"/>
      <path d="M 8.40625 54.6875 
L 25.875 54.6875 
L 25.875 0 
L 8.40625 0 
z
M 8.40625 75.984375 
L 25.875 75.984375 
L 25.875 61.71875 
L 8.40625 61.71875 
z
" id="DejaVuSans-Bold-105"/>
      <path d="M 59.078125 45.609375 
Q 62.40625 50.6875 66.96875 53.34375 
Q 71.53125 56 77 56 
Q 86.421875 56 91.359375 50.1875 
Q 96.296875 44.390625 96.296875 33.296875 
L 96.296875 0 
L 78.71875 0 
L 78.71875 28.515625 
Q 78.765625 29.15625 78.78125 29.828125 
Q 78.8125 30.515625 78.8125 31.78125 
Q 78.8125 37.59375 77.09375 40.203125 
Q 75.390625 42.828125 71.578125 42.828125 
Q 66.609375 42.828125 63.890625 38.71875 
Q 61.1875 34.625 61.078125 26.859375 
L 61.078125 0 
L 43.5 0 
L 43.5 28.515625 
Q 43.5 37.59375 41.9375 40.203125 
Q 40.375 42.828125 36.375 42.828125 
Q 31.34375 42.828125 28.609375 38.703125 
Q 25.875 34.578125 25.875 26.90625 
L 25.875 0 
L 8.296875 0 
L 8.296875 54.6875 
L 25.875 54.6875 
L 25.875 46.6875 
Q 29.109375 51.3125 33.28125 53.65625 
Q 37.453125 56 42.484375 56 
Q 48.140625 56 52.484375 53.265625 
Q 56.84375 50.53125 59.078125 45.609375 
z
" id="DejaVuSans-Bold-109"/>
      <path d="M 62.984375 27.484375 
L 62.984375 22.515625 
L 22.125 22.515625 
Q 22.75 16.359375 26.5625 13.28125 
Q 30.375 10.203125 37.203125 10.203125 
Q 42.71875 10.203125 48.5 11.84375 
Q 54.296875 13.484375 60.40625 16.796875 
L 60.40625 3.328125 
Q 54.203125 0.984375 48 -0.21875 
Q 41.796875 -1.421875 35.59375 -1.421875 
Q 20.75 -1.421875 12.515625 6.125 
Q 4.296875 13.671875 4.296875 27.296875 
Q 4.296875 40.671875 12.375 48.328125 
Q 20.453125 56 34.625 56 
Q 47.515625 56 55.25 48.234375 
Q 62.984375 40.484375 62.984375 27.484375 
z
M 45.015625 33.296875 
Q 45.015625 38.28125 42.109375 41.328125 
Q 39.203125 44.390625 34.515625 44.390625 
Q 29.4375 44.390625 26.265625 41.53125 
Q 23.09375 38.671875 22.3125 33.296875 
z
" id="DejaVuSans-Bold-101"/>
     </defs>
     <g style="fill:#333333;" transform="translate(182.141834 251.300316)scale(0.1 -0.1)">
      <use xlink:href="#DejaVuSans-Bold-116"/>
      <use x="47.802734" xlink:href="#DejaVuSans-Bold-105"/>
      <use x="82.080078" xlink:href="#DejaVuSans-Bold-109"/>
      <use x="186.279297" xlink:href="#DejaVuSans-Bold-101"/>
     </g>
    </g>
   </g>
   <g id="matplotlib.axis_2">
    <g id="ytick_1">
     <g id="line2d_7">
      <path clip-path="url(#p193c907d32)" d="M 27.447303 214.756364 
L 362.247303 214.756364 
" style="fill:none;stroke:#dedede;stroke-linecap:square;stroke-width:0.8;"/>
     </g>
     <g id="line2d_8">
      <defs>
       <path d="M 0 0 
L -3.5 0 
" id="m697f367035" style="stroke:#333333;stroke-width:0.8;"/>
      </defs>
      <g>
       <use style="fill:#333333;stroke:#333333;stroke-width:0.8;" x="27.447303" xlink:href="#m697f367035" y="214.756364"/>
      </g>
     </g>
     <g id="text_6">
      <!-- 0.0 -->
      <defs>
       <path d="M 10.6875 12.40625 
L 21 12.40625 
L 21 0 
L 10.6875 0 
z
" id="DejaVuSans-46"/>
      </defs>
      <g style="fill:#333333;" transform="translate(7.2 217.921113)scale(0.0833 -0.0833)">
       <use xlink:href="#DejaVuSans-48"/>
       <use x="63.623047" xlink:href="#DejaVuSans-46"/>
       <use x="95.410156" xlink:href="#DejaVuSans-48"/>
      </g>
     </g>
    </g>
    <g id="ytick_2">
     <g id="line2d_9">
      <path clip-path="url(#p193c907d32)" d="M 27.447303 175.221818 
L 362.247303 175.221818 
" style="fill:none;stroke:#dedede;stroke-linecap:square;stroke-width:0.8;"/>
     </g>
     <g id="line2d_10">
      <g>
       <use style="fill:#333333;stroke:#333333;stroke-width:0.8;" x="27.447303" xlink:href="#m697f367035" y="175.221818"/>
      </g>
     </g>
     <g id="text_7">
      <!-- 0.2 -->
      <g style="fill:#333333;" transform="translate(7.2 178.386567)scale(0.0833 -0.0833)">
       <use xlink:href="#DejaVuSans-48"/>
       <use x="63.623047" xlink:href="#DejaVuSans-46"/>
       <use x="95.410156" xlink:href="#DejaVuSans-50"/>
      </g>
     </g>
    </g>
    <g id="ytick_3">
     <g id="line2d_11">
      <path clip-path="url(#p193c907d32)" d="M 27.447303 135.687273 
L 362.247303 135.687273 
" style="fill:none;stroke:#dedede;stroke-linecap:square;stroke-width:0.8;"/>
     </g>
     <g id="line2d_12">
      <g>
       <use style="fill:#333333;stroke:#333333;stroke-width:0.8;" x="27.447303" xlink:href="#m697f367035" y="135.687273"/>
      </g>
     </g>
     <g id="text_8">
      <!-- 0.4 -->
      <defs>
       <path d="M 37.796875 64.3125 
L 12.890625 25.390625 
L 37.796875 25.390625 
z
M 35.203125 72.90625 
L 47.609375 72.90625 
L 47.609375 25.390625 
L 58.015625 25.390625 
L 58.015625 17.1875 
L 47.609375 17.1875 
L 47.609375 0 
L 37.796875 0 
L 37.796875 17.1875 
L 4.890625 17.1875 
L 4.890625 26.703125 
z
" id="DejaVuSans-52"/>
      </defs>
      <g style="fill:#333333;" transform="translate(7.2 138.852022)scale(0.0833 -0.0833)">
       <use xlink:href="#DejaVuSans-48"/>
       <use x="63.623047" xlink:href="#DejaVuSans-46"/>
       <use x="95.410156" xlink:href="#DejaVuSans-52"/>
      </g>
     </g>
    </g>
    <g id="ytick_4">
     <g id="line2d_13">
      <path clip-path="url(#p193c907d32)" d="M 27.447303 96.152727 
L 362.247303 96.152727 
" style="fill:none;stroke:#dedede;stroke-linecap:square;stroke-width:0.8;"/>
     </g>
     <g id="line2d_14">
      <g>
       <use style="fill:#333333;stroke:#333333;stroke-width:0.8;" x="27.447303" xlink:href="#m697f367035" y="96.152727"/>
      </g>
     </g>
     <g id="text_9">
      <!-- 0.6 -->
      <g style="fill:#333333;" transform="translate(7.2 99.317476)scale(0.0833 -0.0833)">
       <use xlink:href="#DejaVuSans-48"/>
       <use x="63.623047" xlink:href="#DejaVuSans-46"/>
       <use x="95.410156" xlink:href="#DejaVuSans-54"/>
      </g>
     </g>
    </g>
    <g id="ytick_5">
     <g id="line2d_15">
      <path clip-path="url(#p193c907d32)" d="M 27.447303 56.618182 
L 362.247303 56.618182 
" style="fill:none;stroke:#dedede;stroke-linecap:square;stroke-width:0.8;"/>
     </g>
     <g id="line2d_16">
      <g>
       <use style="fill:#333333;stroke:#333333;stroke-width:0.8;" x="27.447303" xlink:href="#m697f367035" y="56.618182"/>
      </g>
     </g>
     <g id="text_10">
      <!-- 0.8 -->
      <g style="fill:#333333;" transform="translate(7.2 59.782931)scale(0.0833 -0.0833)">
       <use xlink:href="#DejaVuSans-48"/>
       <use x="63.623047" xlink:href="#DejaVuSans-46"/>
       <use x="95.410156" xlink:href="#DejaVuSans-56"/>
      </g>
     </g>
    </g>
    <g id="ytick_6">
     <g id="line2d_17">
      <path clip-path="url(#p193c907d32)" d="M 27.447303 17.083636 
L 362.247303 17.083636 
" style="fill:none;stroke:#dedede;stroke-linecap:square;stroke-width:0.8;"/>
     </g>
     <g id="line2d_18">
      <g>
       <use style="fill:#333333;stroke:#333333;stroke-width:0.8;" x="27.447303" xlink:href="#m697f367035" y="17.083636"/>
      </g>
     </g>
     <g id="text_11">
      <!-- 1.0 -->
      <g style="fill:#333333;" transform="translate(7.2 20.248386)scale(0.0833 -0.0833)">
       <use xlink:href="#DejaVuSans-49"/>
       <use x="63.623047" xlink:href="#DejaVuSans-46"/>
       <use x="95.410156" xlink:href="#DejaVuSans-48"/>
      </g>
     </g>
    </g>
   </g>
   <g id="line2d_19">
    <path clip-path="url(#p193c907d32)" d="M 27.447303 124.966771 
L 27.676461 124.22032 
L 27.905619 93.552766 
L 28.363936 70.60204 
L 28.822252 154.441055 
L 29.280568 174.143145 
L 29.509726 181.365842 
L 29.738884 195.821751 
L 30.426359 139.780135 
L 30.655517 132.909636 
L 30.884675 129.971143 
L 31.113833 113.691162 
L 31.342991 120.241003 
L 31.572149 121.544663 
L 32.030465 108.560628 
L 32.259623 109.49632 
L 32.488782 115.36279 
L 32.71794 115.152523 
L 33.176256 127.984113 
L 33.405414 117.349821 
L 33.634572 129.985771 
L 33.86373 135.372282 
L 34.092888 123.752474 
L 34.322046 98.073523 
L 34.551205 97.810689 
L 34.780363 115.399587 
L 35.238679 62.117735 
L 35.467837 73.503735 
L 36.155311 168.345011 
L 36.384469 178.169772 
L 36.613628 181.271222 
L 36.842786 192.394387 
L 37.301102 157.211333 
L 37.53026 98.152374 
L 37.759418 99.697842 
L 38.217734 87.449744 
L 38.446892 93.542253 
L 38.676051 94.21511 
L 39.134367 83.959299 
L 39.363525 99.529628 
L 39.592683 106.258196 
L 39.821841 89.447288 
L 40.050999 88.516853 
L 40.280157 91.592019 
L 40.509315 88.758661 
L 40.738474 80.563475 
L 40.967632 84.75306 
L 41.19679 124.309684 
L 41.425948 72.993835 
L 41.655106 53.806902 
L 41.884264 86.461486 
L 42.113422 102.951736 
L 42.34258 155.581757 
L 43.259213 193.240714 
L 43.488371 163.887334 
L 43.717529 168.875937 
L 43.946687 60.256866 
L 44.175845 75.075486 
L 44.405003 81.257359 
L 44.634161 78.36092 
L 45.092478 100.680844 
L 45.321636 103.561512 
L 45.550794 103.188287 
L 45.779952 98.183914 
L 46.00911 103.472148 
L 46.238268 95.114005 
L 46.467426 104.907226 
L 46.696584 103.950507 
L 46.925743 108.497548 
L 47.154901 89.77846 
L 47.613217 95.382096 
L 48.071533 80.458341 
L 48.300691 125.255889 
L 48.529849 74.213389 
L 48.759007 54.711053 
L 48.988166 96.081236 
L 49.217324 94.609362 
L 49.446482 160.076231 
L 49.904798 174.143145 
L 50.133956 180.84543 
L 50.363114 192.378617 
L 50.592272 161.548105 
L 50.82143 160.454713 
L 51.050589 99.33513 
L 51.279747 101.627049 
L 51.508905 97.47426 
L 51.738063 124.215292 
L 51.967221 134.281633 
L 52.196379 137.877212 
L 52.425537 139.491017 
L 52.654695 134.865126 
L 52.883853 144.616293 
L 53.34217 132.41025 
L 53.800486 142.10885 
L 54.48796 115.026362 
L 54.717118 121.224004 
L 54.946276 118.763872 
L 55.175435 118.206662 
L 55.633751 61.576296 
L 55.862909 100.402239 
L 56.092067 84.621643 
L 56.321225 160.801655 
L 56.550383 172.250735 
L 56.779541 174.989472 
L 57.008699 182.364614 
L 57.237858 174.905365 
L 57.467016 159.513765 
L 57.696174 170.726293 
L 57.925332 121.891605 
L 58.15449 133.009513 
L 58.841964 143.701629 
L 59.071122 130.407449 
L 59.300281 144.379742 
L 59.529439 145.17876 
L 59.758597 151.229215 
L 59.987755 150.724572 
L 60.216913 157.794826 
L 60.446071 157.468911 
L 60.675229 152.816736 
L 60.904387 158.909245 
L 61.133545 161.479768 
L 61.362704 157.516221 
L 61.591862 159.776599 
L 61.82102 164.186966 
L 62.050178 160.333809 
L 62.737652 57.633775 
L 62.96681 98.977675 
L 63.195968 81.756745 
L 63.425127 168.134743 
L 63.654285 165.401262 
L 64.112601 184.257024 
L 64.341759 165.905905 
L 64.570917 158.283698 
L 64.800075 181.896768 
L 65.029233 151.281782 
L 65.258391 148.259182 
L 65.48755 146.748683 
L 65.716708 150.971637 
L 65.945866 150.293523 
L 66.404182 153.862818 
L 66.63334 159.014379 
L 66.862498 160.512537 
L 67.091656 155.056088 
L 67.320814 155.45034 
L 67.549973 156.249358 
L 67.779131 155.382003 
L 68.008289 157.926243 
L 68.237447 163.125114 
L 68.466605 163.608729 
L 68.695763 157.542504 
L 68.924921 156.501679 
L 69.383237 85.599388 
L 69.612396 72.641637 
L 69.841554 95.907765 
L 70.070712 101.790006 
L 70.29987 169.059921 
L 70.529028 168.933761 
L 70.987344 182.25948 
L 71.216502 172.807944 
L 71.44566 169.780088 
L 71.674819 184.414725 
L 71.903977 174.101091 
L 72.362293 178.390553 
L 72.820609 176.703155 
L 73.049767 183.620964 
L 73.278925 184.125607 
L 73.508083 177.581023 
L 73.737242 177.439092 
L 74.195558 175.015756 
L 74.653874 183.037471 
L 74.883032 184.13612 
L 75.11219 179.809861 
L 75.341348 178.595564 
L 75.570506 179.489203 
L 75.799665 177.943734 
L 76.028823 170.826171 
L 76.487139 105.233141 
L 76.716297 78.676322 
L 76.945455 101.705899 
L 77.174613 106.641935 
L 77.403771 164.024008 
L 77.862088 178.280163 
L 78.091246 183.326589 
L 78.320404 181.097751 
L 78.549562 175.78849 
L 78.77872 176.303646 
L 79.007878 186.769724 
L 79.237036 183.741868 
L 79.466194 185.36093 
L 79.695352 185.681588 
L 79.924511 179.478689 
L 80.153669 178.127719 
L 80.382827 177.77552 
L 80.611985 179.920251 
L 80.841143 179.673187 
L 81.299459 187.694902 
L 81.528617 181.323789 
L 81.757775 181.870485 
L 81.986934 183.889056 
L 82.216092 181.686501 
L 82.44525 181.397382 
L 82.674408 187.495148 
L 82.903566 187.589768 
L 83.132724 181.46572 
L 83.59104 96.8382 
L 83.820198 65.445223 
L 84.049357 93.211081 
L 84.278515 101.385241 
L 84.507673 161.973898 
L 84.736831 173.422977 
L 85.195147 185.187459 
L 85.424305 182.948107 
L 85.653463 166.589275 
L 85.882621 169.554051 
L 86.11178 185.056042 
L 87.028412 163.01998 
L 87.715886 178.711212 
L 87.945044 178.511457 
L 88.174203 184.299078 
L 88.403361 185.43978 
L 88.632519 183.804948 
L 88.861677 183.873285 
L 89.090835 190.076185 
L 89.549151 195.085814 
L 89.778309 191.08547 
L 90.007467 190.785838 
L 90.694942 61.707713 
L 91.611574 175.862084 
L 92.06989 185.355673 
L 92.299049 184.052013 
L 92.528207 164.497111 
L 93.215681 188.940739 
L 93.444839 188.625337 
L 93.673997 190.52826 
L 93.903155 194.665279 
L 94.132313 195.390702 
L 94.59063 183.804948 
L 95.048946 189.308707 
L 95.278104 189.660906 
L 95.73642 197.130668 
L 95.965578 194.370904 
L 96.423895 173.24425 
L 96.653053 161.390405 
L 96.882211 161.563875 
L 97.111369 166.999297 
L 97.340527 147.265667 
L 97.798843 58.280349 
L 98.028001 95.403123 
L 98.257159 111.351933 
L 98.715476 182.390898 
L 98.944634 181.565597 
L 99.173792 189.340247 
L 99.40295 188.073384 
L 99.632108 163.729633 
L 99.861266 173.333614 
L 100.090424 171.704038 
L 100.319582 184.341131 
L 100.54874 187.016789 
L 100.777899 176.203769 
L 101.007057 179.205341 
L 101.236215 178.117205 
L 101.465373 180.945307 
L 101.694531 181.439436 
L 101.923689 179.872941 
L 102.382005 158.220618 
L 102.611163 162.284043 
L 102.840322 160.502023 
L 103.298638 151.623467 
L 103.756954 162.688808 
L 103.986112 155.460853 
L 104.21527 139.396396 
L 104.673586 59.526185 
L 104.902745 106.778609 
L 105.131903 115.499464 
L 105.590219 182.254224 
L 106.048535 185.755182 
L 106.277693 183.053241 
L 106.506851 165.990012 
L 106.965168 190.44941 
L 107.423484 173.84877 
L 107.652642 174.190455 
L 107.8818 173.139116 
L 108.110958 170.148057 
L 108.340116 185.623765 
L 108.569274 183.158375 
L 108.798432 175.404751 
L 109.027591 175.657072 
L 109.256749 169.674955 
L 109.485907 175.194483 
L 109.715065 191.348305 
L 109.944223 190.57557 
L 110.173381 192.073728 
L 110.631697 167.467143 
L 110.860855 171.704038 
L 111.090014 165.327668 
L 111.319172 175.362698 
L 112.006646 34.483294 
L 112.235804 81.325696 
L 112.464962 70.381258 
L 112.69412 129.319313 
L 112.923278 157.526734 
L 113.152437 169.317499 
L 113.381595 205.562406 
L 113.610753 202.62917 
L 114.069069 116.740044 
L 114.527385 107.630193 
L 114.985701 118.253972 
L 115.21486 114.994822 
L 115.444018 109.790695 
L 115.673176 110.78421 
L 116.131492 113.791039 
L 116.589808 125.003568 
L 116.818966 122.317397 
L 117.277283 127.327026 
L 117.506441 121.365935 
L 117.735599 124.635599 
L 117.964757 143.107622 
L 118.193915 140.610692 
L 118.423073 173.386181 
L 119.110547 39.40356 
L 119.339706 76.678778 
L 119.568864 75.664236 
L 119.798022 138.534298 
L 120.256338 171.467487 
L 120.485496 207.107874 
L 120.714654 199.596058 
L 121.17297 102.184258 
L 121.402129 114.789811 
L 122.089603 106.736555 
L 122.547919 100.281335 
L 122.777077 107.430439 
L 123.006235 110.484578 
L 123.235393 100.323388 
L 123.464552 102.709928 
L 123.69371 100.123634 
L 124.152026 56.903095 
L 124.610342 74.607641 
L 124.8395 76.000665 
L 125.068658 175.21551 
L 125.297816 134.355226 
L 125.526975 63.058684 
L 125.756133 47.530409 
L 125.985291 77.320095 
L 126.214449 76.894303 
L 126.443607 142.198214 
L 126.901923 175.462575 
L 127.131081 204.074761 
L 127.360239 198.981024 
L 127.589398 164.639041 
L 127.818556 86.088261 
L 128.047714 73.92427 
L 128.276872 76.289783 
L 128.50603 87.418204 
L 128.964346 81.704178 
L 129.193504 89.489342 
L 129.880979 69.403513 
L 130.339295 84.595359 
L 130.568453 82.892191 
L 130.797611 73.640409 
L 131.026769 71.175019 
L 131.255927 45.87455 
L 131.714244 30.598597 
L 131.943402 39.298426 
L 132.17256 147.123737 
L 132.401718 138.103249 
L 132.630876 56.924121 
L 132.860034 36.538661 
L 133.776667 161.164367 
L 134.005825 177.439092 
L 134.234983 202.807898 
L 134.464141 193.282768 
L 134.693299 161.269501 
L 134.922457 36.165436 
L 135.151615 29.594568 
L 135.380773 19.133747 
L 135.83909 25.888599 
L 136.068248 26.146177 
L 136.297406 28.275138 
L 136.526564 19.964305 
L 136.755722 19.039127 
L 136.98488 21.730554 
L 137.214038 28.601053 
L 137.443196 48.092875 
L 137.672354 44.744361 
L 137.901513 38.357478 
L 138.130671 37.027534 
L 138.359829 40.402332 
L 138.588987 53.102505 
L 138.818145 76.38966 
L 139.047303 134.045081 
L 139.276461 133.640316 
L 139.734777 29.599825 
L 140.422252 140.531842 
L 140.65141 161.679523 
L 140.880568 167.777288 
L 141.109726 201.96157 
L 141.568042 152.885073 
L 141.7972 29.999334 
L 142.026359 30.246399 
L 142.255517 36.281083 
L 142.713833 38.499408 
L 142.942991 50.048365 
L 143.172149 52.476958 
L 143.401307 43.225176 
L 143.630465 53.039424 
L 143.859623 57.775706 
L 144.088782 52.876467 
L 144.31794 59.662859 
L 144.547098 61.150504 
L 144.776256 63.395112 
L 145.005414 67.900099 
L 145.234572 64.966863 
L 145.692888 57.102849 
L 145.922046 73.840163 
L 146.151205 139.732825 
L 146.380363 150.014918 
L 146.609521 70.859618 
L 146.838679 35.550403 
L 147.296995 91.134687 
L 147.526153 141.641005 
L 147.755311 167.393549 
L 147.984469 172.445232 
L 148.213628 197.151695 
L 148.442786 171.629759 
L 148.671944 160.396889 
L 148.901102 102.420809 
L 149.13026 102.447093 
L 149.588576 92.480401 
L 149.817734 93.989072 
L 150.276051 120.829752 
L 150.505209 111.015504 
L 150.963525 116.824151 
L 151.192683 108.161119 
L 151.421841 112.77124 
L 151.650999 124.577775 
L 151.880157 130.496813 
L 152.109315 118.874262 
L 152.338474 115.247143 
L 152.567632 125.50821 
L 152.79679 126.643656 
L 153.025948 139.837958 
L 153.255106 145.672889 
L 153.484264 59.021542 
L 153.713422 34.188919 
L 154.171738 94.935277 
L 154.630055 172.397922 
L 154.859213 180.663959 
L 155.088371 195.53789 
L 155.317529 173.827743 
L 155.546687 167.393549 
L 155.775845 150.26724 
L 156.234161 155.923443 
L 156.46332 162.310326 
L 156.692478 164.43403 
L 157.150794 148.080455 
L 157.379952 150.771882 
L 157.60911 151.5709 
L 158.067426 161.337838 
L 158.296584 160.55459 
L 158.754901 149.699517 
L 158.984059 152.753656 
L 159.213217 144.868615 
L 159.442375 149.063457 
L 159.671533 162.341866 
L 159.900691 162.636241 
L 160.129849 125.644884 
L 160.359007 125.934002 
L 160.588166 57.160673 
L 160.817324 38.0999 
L 161.27564 92.948247 
L 161.504798 140.86827 
L 162.192272 204.858009 
L 162.42143 180.440664 
L 162.650589 177.985788 
L 162.879747 167.004554 
L 163.108905 172.040467 
L 163.338063 164.486597 
L 163.567221 161.022436 
L 163.796379 162.625728 
L 164.025537 156.759257 
L 164.254695 158.299468 
L 164.483853 171.835456 
L 164.713012 173.964417 
L 164.94217 162.615214 
L 165.400486 175.141916 
L 165.858802 163.929388 
L 166.317118 170.452945 
L 166.546276 164.071319 
L 166.775435 165.669354 
L 167.004593 165.264588 
L 167.233751 123.757731 
L 167.462909 120.456527 
L 167.692067 59.494645 
L 167.921225 49.517439 
L 168.150383 48.544951 
L 168.608699 147.139507 
L 169.296174 205.593946 
L 169.525332 172.855254 
L 169.75449 178.784805 
L 170.212806 180.298733 
L 170.441964 179.657417 
L 170.671122 175.304874 
L 171.129439 185.161176 
L 171.358597 180.777093 
L 171.816913 185.003475 
L 172.046071 184.956164 
L 172.275229 185.371443 
L 172.504387 192.536317 
L 172.733545 191.963338 
L 172.962704 186.953708 
L 173.191862 190.622881 
L 173.650178 200.784071 
L 173.879336 192.347076 
L 174.108494 124.562005 
L 174.337652 111.204745 
L 174.56681 61.539499 
L 175.025127 37.101128 
L 175.483443 158.005093 
L 175.712601 166.431574 
L 175.941759 178.995073 
L 176.170917 199.711705 
L 176.400075 173.854026 
L 176.858391 197.156952 
L 177.08755 189.928997 
L 177.316708 201.651425 
L 177.545866 204.248232 
L 177.775024 199.033591 
L 178.004182 199.154495 
L 178.23334 202.340052 
L 178.462498 201.456927 
L 178.691656 198.381761 
L 178.920814 207.754447 
L 179.149973 206.177439 
L 179.379131 189.11421 
L 179.608289 188.441353 
L 180.066605 198.408045 
L 180.754079 207.402249 
L 180.983237 200.353022 
L 181.212396 112.72393 
L 181.441554 102.263109 
L 181.89987 36.097099 
L 182.129028 29.626109 
L 182.587344 143.543928 
L 183.274819 199.674908 
L 183.503977 173.049752 
L 183.733135 184.099323 
L 183.962293 166.32644 
L 184.191451 165.033294 
L 184.649767 170.526539 
L 184.878925 171.162599 
L 185.337242 185.192716 
L 185.5664 179.951792 
L 185.795558 150.120052 
L 186.024716 138.329287 
L 186.253874 137.840415 
L 186.483032 129.871266 
L 187.170506 148.038401 
L 187.399665 144.931695 
L 187.857981 156.685663 
L 188.087139 111.031274 
L 188.316297 99.466547 
L 188.545455 81.309926 
L 188.774613 37.285112 
L 189.003771 32.858976 
L 189.232929 110.111353 
L 189.462088 148.264439 
L 189.920404 181.103008 
L 190.149562 203.428188 
L 190.37872 174.747664 
L 190.607878 179.363042 
L 190.837036 180.204113 
L 191.066194 178.674415 
L 191.524511 171.903793 
L 191.753669 180.798119 
L 191.982827 184.225484 
L 192.211985 177.896424 
L 192.441143 178.96879 
L 192.899459 173.375667 
L 193.128617 173.470288 
L 193.357775 184.551399 
L 193.586934 187.747469 
L 193.816092 187.805293 
L 194.04525 180.141033 
L 194.274408 180.572082 
L 194.503566 182.401411 
L 194.732724 180.87697 
L 194.961882 191.726787 
L 195.19104 191.963338 
L 195.649357 108.339847 
L 195.878515 111.740928 
L 196.107673 151.392172 
L 196.336831 134.581264 
L 196.795147 183.783922 
L 197.253463 208.658598 
L 197.482621 214.756364 
L 197.940938 172.371639 
L 198.170096 172.287532 
L 198.399254 176.077608 
L 198.85757 162.178909 
L 199.086728 164.702122 
L 199.315886 162.284043 
L 199.545044 163.324868 
L 200.003361 173.94339 
L 200.232519 170.978615 
L 200.461677 173.549138 
L 200.690835 172.723837 
L 200.919993 175.746436 
L 201.149151 175.588735 
L 201.378309 178.527227 
L 201.607467 175.473088 
L 202.065784 146.755768 
L 202.294942 185.282079 
L 202.5241 130.712337 
L 202.753258 108.713072 
L 202.982416 117.980624 
L 203.211574 153.563187 
L 203.440732 140.752623 
L 203.899049 183.300306 
L 204.128207 199.869406 
L 204.357365 205.068276 
L 204.586523 213.137302 
L 204.815681 189.823863 
L 205.044839 90.771975 
L 205.273997 78.082315 
L 205.503155 79.764458 
L 205.732313 80.447828 
L 205.961472 88.50634 
L 206.19063 105.506489 
L 206.648946 114.994822 
L 206.878104 110.81575 
L 207.107262 113.854119 
L 207.33642 109.328106 
L 207.565578 122.832553 
L 207.794736 121.833781 
L 208.023895 124.130956 
L 208.253053 123.794528 
L 208.482211 109.937882 
L 208.711369 184.125607 
L 208.940527 124.488411 
L 209.169685 106.494747 
L 209.398843 102.284135 
L 209.628001 154.809023 
L 209.857159 140.526585 
L 210.315476 180.277707 
L 210.544634 199.070388 
L 211.00295 208.753219 
L 211.232108 191.600626 
L 211.461266 100.870085 
L 211.919582 102.310419 
L 212.14874 100.617763 
L 212.377899 99.766179 
L 212.836215 111.415013 
L 213.065373 110.84729 
L 213.294531 111.131152 
L 213.523689 113.365247 
L 213.752847 111.4045 
L 213.982005 107.924568 
L 214.211163 118.595657 
L 214.440322 117.554832 
L 214.66948 93.763034 
L 215.127796 106.994133 
L 215.356954 109.322849 
L 215.586112 108.423954 
L 215.81527 183.084781 
L 216.044428 107.072984 
L 216.273586 99.27205 
L 216.502745 113.37576 
L 216.731903 153.168935 
L 216.961061 145.551985 
L 217.419377 183.426466 
L 217.877693 208.232806 
L 218.106851 208.327427 
L 218.336009 185.918139 
L 218.565168 126.433388 
L 219.023484 133.661343 
L 219.252642 136.300203 
L 219.4818 125.318969 
L 219.710958 125.271659 
L 219.940116 128.730564 
L 220.398432 130.733364 
L 220.856749 137.351542 
L 221.085907 131.705853 
L 221.315065 129.492784 
L 221.544223 129.792416 
L 221.773381 134.681141 
L 222.231697 155.639581 
L 222.460855 159.135283 
L 222.690014 183.242482 
L 222.919172 89.18971 
L 223.606646 146.803078 
L 223.835804 139.648717 
L 224.29412 187.663362 
L 224.523278 194.907086 
L 224.752437 207.943688 
L 224.981595 205.120843 
L 225.210753 183.983676 
L 225.439911 115.026362 
L 225.669069 117.433928 
L 225.898227 124.514695 
L 226.127385 123.531693 
L 226.356543 121.539406 
L 226.585701 112.02479 
L 226.81486 110.16392 
L 227.044018 125.912976 
L 227.273176 132.194725 
L 227.502334 122.669595 
L 227.731492 132.757191 
L 227.96065 133.850584 
L 228.189808 132.683598 
L 228.418966 129.503298 
L 228.648124 130.654514 
L 228.877283 133.561466 
L 229.106441 126.938031 
L 229.564757 138.939064 
L 229.793915 183.526344 
L 230.023073 96.859227 
L 230.252231 92.270133 
L 230.710547 143.974977 
L 230.939706 140.926094 
L 231.168864 169.259676 
L 231.856338 206.992226 
L 232.085496 203.207407 
L 232.314654 189.534745 
L 232.543812 149.541816 
L 232.77297 149.872988 
L 233.002129 155.960239 
L 233.231287 152.443511 
L 233.689603 160.664981 
L 234.377077 151.329092 
L 235.064552 164.707379 
L 235.29371 162.457513 
L 235.522868 156.096913 
L 235.752026 158.593843 
L 235.981184 153.000721 
L 236.210342 157.29544 
L 236.4395 159.308754 
L 236.668658 183.237225 
L 236.897816 66.854017 
L 237.585291 147.407598 
L 237.814449 147.171047 
L 238.272765 181.428923 
L 238.731081 209.415562 
L 238.960239 203.990654 
L 239.189398 192.199889 
L 239.418556 170.705267 
L 239.647714 174.5006 
L 239.876872 180.729782 
L 240.10603 181.681244 
L 240.335188 176.240566 
L 240.564346 178.41158 
L 241.022662 176.955476 
L 241.251821 174.984216 
L 241.710137 180.340787 
L 241.939295 179.06341 
L 242.168453 180.014872 
L 242.397611 173.727866 
L 242.626769 174.174685 
L 243.314244 187.242826 
L 243.543402 183.358129 
L 243.77256 184.719613 
L 244.001718 72.336749 
L 244.689192 142.802734 
L 244.91835 143.512388 
L 245.147508 174.374439 
L 245.376667 180.451178 
L 245.834983 210.640372 
L 246.293299 181.402639 
L 246.522457 195.748158 
L 246.751615 190.507233 
L 246.980773 193.093527 
L 247.209931 187.200773 
L 247.43909 186.738184 
L 247.668248 191.11701 
L 247.897406 198.928458 
L 248.126564 201.672452 
L 248.355722 194.465524 
L 248.58488 192.294509 
L 248.814038 192.42067 
L 249.272354 191.364075 
L 249.501513 198.05059 
L 249.730671 200.121727 
L 249.959829 193.655993 
L 250.188987 192.699275 
L 250.418145 194.444497 
L 250.647303 190.754298 
L 250.876461 184.383185 
L 251.105619 88.001697 
L 251.334777 98.246994 
L 251.563936 128.646457 
L 251.793094 143.833046 
L 252.022252 139.932579 
L 252.25141 175.767463 
L 252.480568 185.161176 
L 252.709726 203.827696 
L 252.938884 207.09736 
L 253.3972 175.410008 
L 253.626359 197.987509 
L 253.855517 196.767956 
L 254.084675 196.599742 
L 254.313833 194.334107 
L 254.542991 195.296082 
L 254.772149 199.264886 
L 255.001307 200.573803 
L 255.230465 200.158524 
L 255.459623 200.815611 
L 255.91794 198.875891 
L 256.147098 200.232118 
L 256.376256 205.18918 
L 256.605414 204.237719 
L 256.834572 207.102617 
L 257.06373 206.9712 
L 257.292888 207.62303 
L 257.522046 206.634771 
L 257.751205 182.22794 
L 257.980363 86.619187 
L 259.355311 190.454667 
L 259.584469 201.456927 
L 259.813628 203.118043 
L 260.271944 164.41826 
L 260.501102 207.707137 
L 260.73026 210.067392 
L 260.959418 214.209667 
L 261.188576 209.121187 
L 261.417734 209.520696 
L 261.646892 208.600775 
L 261.876051 201.299227 
L 262.105209 201.89849 
L 262.563525 210.288174 
L 262.792683 209.830841 
L 263.021841 210.18304 
L 263.250999 210.146243 
L 263.480157 210.80333 
L 263.709315 209.252605 
L 263.938474 214.157101 
L 264.167632 214.667 
L 264.39679 213.3318 
L 264.625948 212.706253 
L 264.855106 174.200968 
L 265.084264 113.091899 
L 265.313422 106.258196 
L 265.771738 132.100105 
L 266.230055 168.917991 
L 266.688371 198.108413 
L 266.917529 202.029907 
L 267.146687 183.56314 
L 267.375845 134.875639 
L 267.605003 189.871173 
L 267.834161 197.54069 
L 268.06332 194.008192 
L 268.292478 196.068816 
L 268.521636 195.685077 
L 268.979952 202.439929 
L 269.20911 200.505466 
L 269.667426 207.344425 
L 269.896584 207.418019 
L 270.125743 205.415218 
L 270.354901 200.579059 
L 270.584059 200.794584 
L 270.813217 200.663167 
L 271.042375 201.793356 
L 271.271533 200.11647 
L 271.500691 195.353905 
L 271.729849 170.673726 
L 271.959007 118.064731 
L 272.188166 105.853431 
L 272.417324 116.077701 
L 272.646482 109.038987 
L 272.87564 149.583869 
L 273.333956 191.921284 
L 273.563114 192.97788 
L 273.792272 207.649313 
L 274.02143 186.654077 
L 274.250589 123.899662 
L 274.479747 141.667288 
L 274.708905 128.378365 
L 274.938063 128.546579 
L 275.167221 130.680797 
L 275.396379 138.918037 
L 275.625537 141.004945 
L 275.854695 132.652058 
L 276.083853 132.610004 
L 276.54217 144.726684 
L 277.000486 161.101286 
L 277.229644 166.93096 
L 277.458802 163.282814 
L 278.146276 113.354733 
L 278.604593 123.673624 
L 278.833751 124.25186 
L 279.062909 121.865321 
L 279.521225 45.291057 
L 279.750383 44.612944 
L 279.979541 52.482215 
L 280.896174 188.988049 
L 281.35449 128.699024 
L 281.583648 122.822039 
L 281.812806 120.813982 
L 282.041964 114.437612 
L 282.271122 114.579543 
L 282.500281 103.114693 
L 282.729439 106.500004 
L 283.187755 132.510127 
L 283.416913 125.41359 
L 283.646071 111.756698 
L 283.875229 108.855003 
L 284.104387 115.467924 
L 284.333545 110.353161 
L 284.562704 109.49632 
L 284.791862 129.298287 
L 285.02102 132.50487 
L 285.250178 124.961514 
L 285.708494 121.760187 
L 285.937652 109.985192 
L 286.16681 118.879519 
L 286.395968 57.707369 
L 286.625127 40.454899 
L 287.083443 53.312773 
L 288.000075 189.718729 
L 288.229233 139.080994 
L 288.458391 130.270775 
L 288.916708 88.911105 
L 289.375024 71.248613 
L 289.83334 75.979638 
L 290.062498 73.566815 
L 290.520814 88.217222 
L 290.749973 98.473032 
L 290.979131 96.307274 
L 291.208289 103.619336 
L 291.437447 115.615112 
L 291.666605 111.204745 
L 291.895763 103.598309 
L 292.124921 102.410296 
L 292.354079 99.608478 
L 292.583237 132.646801 
L 292.812396 65.524073 
L 293.041554 34.798696 
L 293.270712 40.228861 
L 293.49987 53.549324 
L 294.416502 186.291365 
L 294.64566 137.214868 
L 294.874819 112.108897 
L 295.103977 34.320337 
L 295.333135 34.015448 
L 295.562293 19.874941 
L 295.791451 20.111492 
L 296.020609 36.312624 
L 296.249767 42.56809 
L 296.478925 37.274599 
L 296.708083 42.147554 
L 296.937242 51.972316 
L 297.1664 52.198353 
L 297.395558 49.517439 
L 297.624716 56.619233 
L 297.853874 55.036968 
L 298.083032 45.590689 
L 298.541348 38.336451 
L 298.999665 56.992458 
L 299.228823 56.303832 
L 299.687139 129.440217 
L 300.145455 31.161063 
L 300.374613 46.547407 
L 300.603771 51.346769 
L 301.062088 151.875788 
L 301.291246 164.313126 
L 301.520404 186.117894 
L 301.97872 86.750604 
L 302.207878 28.122694 
L 302.666194 46.326626 
L 302.895352 31.839177 
L 303.124511 30.766811 
L 303.353669 32.201889 
L 303.582827 28.643107 
L 303.811985 23.276022 
L 304.041143 22.965877 
L 304.270301 25.184202 
L 304.499459 17.083636 
L 304.728617 18.077152 
L 305.186934 28.348732 
L 305.64525 32.333306 
L 305.874408 43.072732 
L 306.103566 39.4351 
L 306.332724 97.758122 
L 306.561882 122.438301 
L 306.79104 59.315917 
L 307.020198 27.102895 
L 307.249357 52.892237 
L 307.478515 45.848267 
L 307.936831 151.944125 
L 308.165989 161.15911 
L 308.395147 182.11755 
L 308.853463 93.184798 
L 309.082621 62.648661 
L 309.31178 55.331343 
L 309.540938 64.888013 
L 309.770096 65.140334 
L 309.999254 64.777622 
L 310.228412 67.847532 
L 310.45757 67.253525 
L 310.686728 69.245813 
L 310.915886 64.230926 
L 311.145044 65.823705 
L 311.374203 71.211816 
L 311.603361 70.554729 
L 312.061677 54.09602 
L 312.290835 54.011913 
L 312.519993 54.06448 
L 312.749151 54.500785 
L 312.978309 49.585776 
L 313.207467 54.14333 
L 313.436626 103.367014 
L 313.665784 121.58146 
L 313.894942 59.389511 
L 314.1241 29.620852 
L 314.353258 54.637459 
L 314.582416 39.235346 
L 315.040732 138.287234 
L 315.26989 155.928699 
L 315.499049 183.773408 
L 315.728207 121.224004 
L 315.957365 96.060209 
L 316.186523 33.78941 
L 316.415681 32.012648 
L 316.873997 52.91852 
L 317.332313 56.650773 
L 317.561472 56.330115 
L 317.79063 56.913608 
L 318.019788 60.924466 
L 318.478104 76.095285 
L 318.707262 79.133654 
L 318.93642 77.940385 
L 319.165578 82.287671 
L 319.623895 85.877993 
L 319.853053 85.446944 
L 320.082211 86.792658 
L 320.540527 125.213835 
L 320.998843 22.671502 
L 321.228001 43.162096 
L 321.457159 46.552664 
L 321.686317 112.398015 
L 321.915476 142.68183 
L 322.144634 156.506936 
L 322.373792 183.347616 
L 322.60295 101.473462 
L 323.290424 117.84395 
L 323.519582 119.652253 
L 323.977899 114.385045 
L 324.207057 118.164608 
L 324.436215 119.883547 
L 324.665373 115.956797 
L 324.894531 117.065959 
L 325.123689 121.67608 
L 325.352847 120.041248 
L 325.582005 122.538178 
L 326.26948 125.644884 
L 326.498638 139.075738 
L 326.727796 141.435993 
L 326.956954 138.902267 
L 327.186112 134.907179 
L 327.41527 102.341959 
L 327.644428 125.219092 
L 328.102745 20.631905 
L 328.331903 45.022966 
L 328.561061 42.531293 
L 328.790219 109.943139 
L 329.248535 161.916074 
L 329.477693 179.688957 
L 329.706851 107.041444 
L 329.936009 117.17635 
L 330.165168 141.562154 
L 330.623484 150.041202 
L 330.852642 148.543044 
L 331.0818 147.959551 
L 331.310958 155.792025 
L 331.540116 158.546533 
L 331.769274 147.633636 
L 331.998432 152.17542 
L 332.227591 150.882273 
L 332.456749 152.559158 
L 332.685907 156.012806 
L 332.915065 162.678295 
L 333.144223 163.05152 
L 333.373381 157.610841 
L 333.602539 158.383575 
L 333.831697 162.010694 
L 334.290014 157.158766 
L 334.519172 110.915627 
L 334.74833 120.92963 
L 334.977488 54.132817 
L 335.206646 23.023701 
L 335.435804 47.141414 
L 335.664962 41.338023 
L 336.123278 143.25481 
L 336.581595 181.791635 
L 336.810753 103.282907 
L 337.039911 124.567262 
L 337.269069 167.162255 
L 337.498227 167.036094 
L 337.727385 172.907821 
L 337.956543 170.70001 
L 338.185701 166.957244 
L 338.41486 165.485369 
L 338.644018 159.90276 
L 338.873176 167.924475 
L 339.102334 167.845625 
L 339.331492 174.56368 
L 339.789808 176.992273 
L 340.018966 173.643759 
L 340.248124 174.621504 
L 340.477283 174.931649 
L 340.706441 174.658301 
L 340.935599 182.496032 
L 341.164757 177.339215 
L 341.393915 112.981508 
L 341.623073 121.818011 
L 341.852231 26.61928 
L 342.081389 21.446693 
L 342.310547 51.672684 
L 342.539706 41.674452 
L 342.768864 107.335818 
L 343.22718 158.972325 
L 343.456338 179.431379 
L 343.685496 88.905849 
L 343.914654 125.287429 
L 344.143812 190.065671 
L 344.602129 165.59576 
L 344.831287 167.067634 
L 345.060445 172.303302 
L 345.289603 173.123346 
L 345.518761 167.277902 
L 345.747919 168.528995 
L 345.977077 168.497455 
L 346.664552 181.807405 
L 347.122868 177.533712 
L 347.581184 174.069551 
L 347.810342 173.585935 
L 348.0395 166.568248 
L 348.268658 155.008778 
L 348.497816 104.350016 
L 348.726975 123.778758 
L 348.956133 27.917683 
L 349.185291 23.827975 
L 349.414449 44.134585 
L 349.643607 35.156151 
L 349.872765 110.190203 
L 350.101923 146.960779 
L 350.331081 158.767314 
L 350.560239 182.022929 
L 350.789398 82.198307 
L 351.018556 119.152867 
L 351.247714 96.691013 
L 351.476872 108.003419 
L 351.70603 112.193004 
L 351.935188 110.558172 
L 352.164346 122.669595 
L 352.393504 124.80907 
L 352.622662 117.696763 
L 352.851821 120.482811 
L 353.080979 120.498581 
L 353.310137 113.402043 
L 353.539295 111.37296 
L 353.768453 110.710616 
L 354.226769 94.562052 
L 354.455927 96.496515 
L 354.685085 101.500888 
L 354.914244 100.796491 
L 355.143402 104.40784 
L 355.37256 109.864288 
L 355.601718 102.878142 
L 355.830876 31.839177 
L 356.060034 29.620852 
L 356.289192 57.717882 
L 356.51835 38.79904 
L 356.747508 115.136753 
L 356.976667 147.397085 
L 357.434983 181.796891 
L 357.664141 83.044635 
L 357.893299 120.367163 
L 358.351615 104.444637 
L 358.580773 98.394182 
L 359.03909 80.84208 
L 359.268248 87.292044 
L 359.497406 84.527022 
L 359.726564 85.42066 
L 359.955722 93.289932 
L 360.18488 94.173056 
L 360.414038 97.164115 
L 360.872354 107.03093 
L 361.101513 105.990105 
L 361.330671 107.756354 
L 362.018145 123.032307 
L 362.247303 123.447357 
L 362.247303 123.447357 
" style="fill:none;stroke:#000000;stroke-linecap:square;stroke-width:1.3;"/>
   </g>
  </g>
 </g>
 <defs>
  <clipPath id="p193c907d32">
   <rect height="217.44" width="334.8" x="27.447303" y="7.2"/>
  </clipPath>
 </defs>
</svg>
