<?xml version="1.0" encoding="utf-8" standalone="no"?>
<!DOCTYPE svg PUBLIC "-//W3C//DTD SVG 1.1//EN"
  "http://www.w3.org/Graphics/SVG/1.1/DTD/svg11.dtd">
<!-- Created with matplotlib (https://matplotlib.org/) -->
<svg height="340.656875pt" version="1.1" viewBox="0 0 481.7 340.656875" width="481.7pt" xmlns="http://www.w3.org/2000/svg" xmlns:xlink="http://www.w3.org/1999/xlink">
 <defs>
  <style type="text/css">
*{stroke-linecap:butt;stroke-linejoin:round;}
  </style>
 </defs>
 <g id="figure_1">
  <g id="patch_1">
   <path d="M 0 340.656875 
L 481.7 340.656875 
L 481.7 0 
L 0 0 
z
" style="fill:#f0f0f0;"/>
  </g>
  <g id="axes_1">
   <g id="patch_2">
    <path d="M 28.1 293.589375 
L 474.5 293.589375 
L 474.5 21.789375 
L 28.1 21.789375 
z
" style="fill:#f0f0f0;"/>
   </g>
   <g id="matplotlib.axis_1">
    <g id="xtick_1">
     <g id="line2d_1">
      <path clip-path="url(#p0ff63c89bf)" d="M 28.1 293.589375 
L 28.1 21.789375 
" style="fill:none;stroke:#d0d0d0;stroke-linecap:square;stroke-opacity:0.5;stroke-width:0.8;"/>
     </g>
    </g>
    <g id="xtick_2">
     <g id="line2d_2">
      <path clip-path="url(#p0ff63c89bf)" d="M 54.791959 293.589375 
L 54.791959 21.789375 
" style="fill:none;stroke:#d0d0d0;stroke-linecap:square;stroke-opacity:0.5;stroke-width:0.8;"/>
     </g>
     <g id="text_1">
      <!-- Oct -->
      <defs>
       <path d="M 4.828125 34.859375 
Q 4.828125 52.6875 14.390625 62.765625 
Q 23.96875 72.859375 39.109375 72.859375 
Q 49.03125 72.859375 56.984375 68.109375 
Q 64.9375 63.375 69.109375 54.90625 
Q 73.296875 46.4375 73.296875 35.6875 
Q 73.296875 24.8125 68.890625 16.21875 
Q 64.5 7.625 56.4375 3.203125 
Q 48.390625 -1.21875 39.0625 -1.21875 
Q 28.953125 -1.21875 20.984375 3.65625 
Q 13.03125 8.546875 8.921875 16.984375 
Q 4.828125 25.4375 4.828125 34.859375 
z
M 14.59375 34.71875 
Q 14.59375 21.78125 21.546875 14.328125 
Q 28.515625 6.890625 39.015625 6.890625 
Q 49.703125 6.890625 56.609375 14.40625 
Q 63.53125 21.921875 63.53125 35.75 
Q 63.53125 44.484375 60.578125 51 
Q 57.625 57.515625 51.921875 61.109375 
Q 46.234375 64.703125 39.15625 64.703125 
Q 29.109375 64.703125 21.84375 57.78125 
Q 14.59375 50.875 14.59375 34.71875 
z
" id="ArialMT-79"/>
       <path d="M 40.4375 19 
L 49.078125 17.875 
Q 47.65625 8.9375 41.8125 3.875 
Q 35.984375 -1.171875 27.484375 -1.171875 
Q 16.84375 -1.171875 10.375 5.78125 
Q 3.90625 12.75 3.90625 25.734375 
Q 3.90625 34.125 6.6875 40.421875 
Q 9.46875 46.734375 15.15625 49.875 
Q 20.84375 53.03125 27.546875 53.03125 
Q 35.984375 53.03125 41.359375 48.75 
Q 46.734375 44.484375 48.25 36.625 
L 39.703125 35.296875 
Q 38.484375 40.53125 35.375 43.15625 
Q 32.28125 45.796875 27.875 45.796875 
Q 21.234375 45.796875 17.078125 41.03125 
Q 12.9375 36.28125 12.9375 25.984375 
Q 12.9375 15.53125 16.9375 10.796875 
Q 20.953125 6.0625 27.390625 6.0625 
Q 32.5625 6.0625 36.03125 9.234375 
Q 39.5 12.40625 40.4375 19 
z
" id="ArialMT-99"/>
       <path d="M 25.78125 7.859375 
L 27.046875 0.09375 
Q 23.34375 -0.6875 20.40625 -0.6875 
Q 15.625 -0.6875 12.984375 0.828125 
Q 10.359375 2.34375 9.28125 4.8125 
Q 8.203125 7.28125 8.203125 15.1875 
L 8.203125 45.015625 
L 1.765625 45.015625 
L 1.765625 51.859375 
L 8.203125 51.859375 
L 8.203125 64.703125 
L 16.9375 69.96875 
L 16.9375 51.859375 
L 25.78125 51.859375 
L 25.78125 45.015625 
L 16.9375 45.015625 
L 16.9375 14.703125 
Q 16.9375 10.9375 17.40625 9.859375 
Q 17.875 8.796875 18.921875 8.15625 
Q 19.96875 7.515625 21.921875 7.515625 
Q 23.390625 7.515625 25.78125 7.859375 
z
" id="ArialMT-116"/>
      </defs>
      <g transform="translate(47.013834 307.747187)scale(0.1 -0.1)">
       <use xlink:href="#ArialMT-79"/>
       <use x="77.783203" xlink:href="#ArialMT-99"/>
       <use x="127.783203" xlink:href="#ArialMT-116"/>
      </g>
     </g>
    </g>
    <g id="xtick_3">
     <g id="line2d_3">
      <path clip-path="url(#p0ff63c89bf)" d="M 139.469897 293.589375 
L 139.469897 21.789375 
" style="fill:none;stroke:#d0d0d0;stroke-linecap:square;stroke-opacity:0.5;stroke-width:0.8;"/>
     </g>
     <g id="text_2">
      <!-- Jan -->
      <defs>
       <path d="M 2.875 20.3125 
L 11.421875 21.484375 
Q 11.765625 13.28125 14.5 10.25 
Q 17.234375 7.234375 22.078125 7.234375 
Q 25.640625 7.234375 28.21875 8.859375 
Q 30.8125 10.5 31.78125 13.296875 
Q 32.765625 16.109375 32.765625 22.265625 
L 32.765625 71.578125 
L 42.234375 71.578125 
L 42.234375 22.796875 
Q 42.234375 13.8125 40.0625 8.875 
Q 37.890625 3.953125 33.171875 1.359375 
Q 28.46875 -1.21875 22.125 -1.21875 
Q 12.703125 -1.21875 7.6875 4.203125 
Q 2.6875 9.625 2.875 20.3125 
z
" id="ArialMT-74"/>
       <path d="M 40.4375 6.390625 
Q 35.546875 2.25 31.03125 0.53125 
Q 26.515625 -1.171875 21.34375 -1.171875 
Q 12.796875 -1.171875 8.203125 3 
Q 3.609375 7.171875 3.609375 13.671875 
Q 3.609375 17.484375 5.34375 20.625 
Q 7.078125 23.78125 9.890625 25.6875 
Q 12.703125 27.59375 16.21875 28.5625 
Q 18.796875 29.25 24.03125 29.890625 
Q 34.671875 31.15625 39.703125 32.90625 
Q 39.75 34.71875 39.75 35.203125 
Q 39.75 40.578125 37.25 42.78125 
Q 33.890625 45.75 27.25 45.75 
Q 21.046875 45.75 18.09375 43.578125 
Q 15.140625 41.40625 13.71875 35.890625 
L 5.125 37.0625 
Q 6.296875 42.578125 8.984375 45.96875 
Q 11.671875 49.359375 16.75 51.1875 
Q 21.828125 53.03125 28.515625 53.03125 
Q 35.15625 53.03125 39.296875 51.46875 
Q 43.453125 49.90625 45.40625 47.53125 
Q 47.359375 45.171875 48.140625 41.546875 
Q 48.578125 39.3125 48.578125 33.453125 
L 48.578125 21.734375 
Q 48.578125 9.46875 49.140625 6.21875 
Q 49.703125 2.984375 51.375 0 
L 42.1875 0 
Q 40.828125 2.734375 40.4375 6.390625 
z
M 39.703125 26.03125 
Q 34.90625 24.078125 25.34375 22.703125 
Q 19.921875 21.921875 17.671875 20.9375 
Q 15.4375 19.96875 14.203125 18.09375 
Q 12.984375 16.21875 12.984375 13.921875 
Q 12.984375 10.40625 15.640625 8.0625 
Q 18.3125 5.71875 23.4375 5.71875 
Q 28.515625 5.71875 32.46875 7.9375 
Q 36.421875 10.15625 38.28125 14.015625 
Q 39.703125 17 39.703125 22.796875 
z
" id="ArialMT-97"/>
       <path d="M 6.59375 0 
L 6.59375 51.859375 
L 14.5 51.859375 
L 14.5 44.484375 
Q 20.21875 53.03125 31 53.03125 
Q 35.6875 53.03125 39.625 51.34375 
Q 43.5625 49.65625 45.515625 46.921875 
Q 47.46875 44.1875 48.25 40.4375 
Q 48.734375 37.984375 48.734375 31.890625 
L 48.734375 0 
L 39.9375 0 
L 39.9375 31.546875 
Q 39.9375 36.921875 38.90625 39.578125 
Q 37.890625 42.234375 35.28125 43.8125 
Q 32.671875 45.40625 29.15625 45.40625 
Q 23.53125 45.40625 19.453125 41.84375 
Q 15.375 38.28125 15.375 28.328125 
L 15.375 0 
z
" id="ArialMT-110"/>
      </defs>
      <g transform="translate(131.408959 307.747187)scale(0.1 -0.1)">
       <use xlink:href="#ArialMT-74"/>
       <use x="50" xlink:href="#ArialMT-97"/>
       <use x="105.615234" xlink:href="#ArialMT-110"/>
      </g>
      <!-- 2018 -->
      <defs>
       <path d="M 50.34375 8.453125 
L 50.34375 0 
L 3.03125 0 
Q 2.9375 3.171875 4.046875 6.109375 
Q 5.859375 10.9375 9.828125 15.625 
Q 13.8125 20.3125 21.34375 26.46875 
Q 33.015625 36.03125 37.109375 41.625 
Q 41.21875 47.21875 41.21875 52.203125 
Q 41.21875 57.421875 37.46875 61 
Q 33.734375 64.59375 27.734375 64.59375 
Q 21.390625 64.59375 17.578125 60.78125 
Q 13.765625 56.984375 13.71875 50.25 
L 4.6875 51.171875 
Q 5.609375 61.28125 11.65625 66.578125 
Q 17.71875 71.875 27.9375 71.875 
Q 38.234375 71.875 44.234375 66.15625 
Q 50.25 60.453125 50.25 52 
Q 50.25 47.703125 48.484375 43.546875 
Q 46.734375 39.40625 42.65625 34.8125 
Q 38.578125 30.21875 29.109375 22.21875 
Q 21.1875 15.578125 18.9375 13.203125 
Q 16.703125 10.84375 15.234375 8.453125 
z
" id="ArialMT-50"/>
       <path d="M 4.15625 35.296875 
Q 4.15625 48 6.765625 55.734375 
Q 9.375 63.484375 14.515625 67.671875 
Q 19.671875 71.875 27.484375 71.875 
Q 33.25 71.875 37.59375 69.546875 
Q 41.9375 67.234375 44.765625 62.859375 
Q 47.609375 58.5 49.21875 52.21875 
Q 50.828125 45.953125 50.828125 35.296875 
Q 50.828125 22.703125 48.234375 14.96875 
Q 45.65625 7.234375 40.5 3 
Q 35.359375 -1.21875 27.484375 -1.21875 
Q 17.140625 -1.21875 11.234375 6.203125 
Q 4.15625 15.140625 4.15625 35.296875 
z
M 13.1875 35.296875 
Q 13.1875 17.671875 17.3125 11.828125 
Q 21.4375 6 27.484375 6 
Q 33.546875 6 37.671875 11.859375 
Q 41.796875 17.71875 41.796875 35.296875 
Q 41.796875 52.984375 37.671875 58.78125 
Q 33.546875 64.59375 27.390625 64.59375 
Q 21.34375 64.59375 17.71875 59.46875 
Q 13.1875 52.9375 13.1875 35.296875 
z
" id="ArialMT-48"/>
       <path d="M 37.25 0 
L 28.46875 0 
L 28.46875 56 
Q 25.296875 52.984375 20.140625 49.953125 
Q 14.984375 46.921875 10.890625 45.40625 
L 10.890625 53.90625 
Q 18.265625 57.375 23.78125 62.296875 
Q 29.296875 67.234375 31.59375 71.875 
L 37.25 71.875 
z
" id="ArialMT-49"/>
       <path d="M 17.671875 38.8125 
Q 12.203125 40.828125 9.5625 44.53125 
Q 6.9375 48.25 6.9375 53.421875 
Q 6.9375 61.234375 12.546875 66.546875 
Q 18.171875 71.875 27.484375 71.875 
Q 36.859375 71.875 42.578125 66.421875 
Q 48.296875 60.984375 48.296875 53.171875 
Q 48.296875 48.1875 45.671875 44.5 
Q 43.0625 40.828125 37.75 38.8125 
Q 44.34375 36.671875 47.78125 31.875 
Q 51.21875 27.09375 51.21875 20.453125 
Q 51.21875 11.28125 44.71875 5.03125 
Q 38.234375 -1.21875 27.640625 -1.21875 
Q 17.046875 -1.21875 10.546875 5.046875 
Q 4.046875 11.328125 4.046875 20.703125 
Q 4.046875 27.6875 7.59375 32.390625 
Q 11.140625 37.109375 17.671875 38.8125 
z
M 15.921875 53.71875 
Q 15.921875 48.640625 19.1875 45.40625 
Q 22.46875 42.1875 27.6875 42.1875 
Q 32.765625 42.1875 36.015625 45.375 
Q 39.265625 48.578125 39.265625 53.21875 
Q 39.265625 58.0625 35.90625 61.359375 
Q 32.5625 64.65625 27.59375 64.65625 
Q 22.5625 64.65625 19.234375 61.421875 
Q 15.921875 58.203125 15.921875 53.71875 
z
M 13.09375 20.65625 
Q 13.09375 16.890625 14.875 13.375 
Q 16.65625 9.859375 20.171875 7.921875 
Q 23.6875 6 27.734375 6 
Q 34.03125 6 38.125 10.046875 
Q 42.234375 14.109375 42.234375 20.359375 
Q 42.234375 26.703125 38.015625 30.859375 
Q 33.796875 35.015625 27.4375 35.015625 
Q 21.234375 35.015625 17.15625 30.90625 
Q 13.09375 26.8125 13.09375 20.65625 
z
" id="ArialMT-56"/>
      </defs>
      <g transform="translate(128.348022 318.324062)scale(0.1 -0.1)">
       <use xlink:href="#ArialMT-50"/>
       <use x="55.615234" xlink:href="#ArialMT-48"/>
       <use x="111.230469" xlink:href="#ArialMT-49"/>
       <use x="166.845703" xlink:href="#ArialMT-56"/>
      </g>
     </g>
    </g>
    <g id="xtick_4">
     <g id="line2d_4">
      <path clip-path="url(#p0ff63c89bf)" d="M 222.30701 293.589375 
L 222.30701 21.789375 
" style="fill:none;stroke:#d0d0d0;stroke-linecap:square;stroke-opacity:0.5;stroke-width:0.8;"/>
     </g>
     <g id="text_3">
      <!-- Apr -->
      <defs>
       <path d="M -0.140625 0 
L 27.34375 71.578125 
L 37.546875 71.578125 
L 66.84375 0 
L 56.0625 0 
L 47.703125 21.6875 
L 17.78125 21.6875 
L 9.90625 0 
z
M 20.515625 29.390625 
L 44.78125 29.390625 
L 37.3125 49.21875 
Q 33.890625 58.25 32.234375 64.0625 
Q 30.859375 57.171875 28.375 50.390625 
z
" id="ArialMT-65"/>
       <path d="M 6.59375 -19.875 
L 6.59375 51.859375 
L 14.59375 51.859375 
L 14.59375 45.125 
Q 17.4375 49.078125 21 51.046875 
Q 24.5625 53.03125 29.640625 53.03125 
Q 36.28125 53.03125 41.359375 49.609375 
Q 46.4375 46.1875 49.015625 39.953125 
Q 51.609375 33.734375 51.609375 26.3125 
Q 51.609375 18.359375 48.75 11.984375 
Q 45.90625 5.609375 40.453125 2.21875 
Q 35.015625 -1.171875 29 -1.171875 
Q 24.609375 -1.171875 21.109375 0.6875 
Q 17.625 2.546875 15.375 5.375 
L 15.375 -19.875 
z
M 14.546875 25.640625 
Q 14.546875 15.625 18.59375 10.84375 
Q 22.65625 6.0625 28.421875 6.0625 
Q 34.28125 6.0625 38.453125 11.015625 
Q 42.625 15.96875 42.625 26.375 
Q 42.625 36.28125 38.546875 41.203125 
Q 34.46875 46.140625 28.8125 46.140625 
Q 23.1875 46.140625 18.859375 40.890625 
Q 14.546875 35.640625 14.546875 25.640625 
z
" id="ArialMT-112"/>
       <path d="M 6.5 0 
L 6.5 51.859375 
L 14.40625 51.859375 
L 14.40625 44 
Q 17.4375 49.515625 20 51.265625 
Q 22.5625 53.03125 25.640625 53.03125 
Q 30.078125 53.03125 34.671875 50.203125 
L 31.640625 42.046875 
Q 28.421875 43.953125 25.203125 43.953125 
Q 22.3125 43.953125 20.015625 42.21875 
Q 17.71875 40.484375 16.75 37.40625 
Q 15.28125 32.71875 15.28125 27.15625 
L 15.28125 0 
z
" id="ArialMT-114"/>
      </defs>
      <g transform="translate(214.526542 307.747187)scale(0.1 -0.1)">
       <use xlink:href="#ArialMT-65"/>
       <use x="66.699219" xlink:href="#ArialMT-112"/>
       <use x="122.314453" xlink:href="#ArialMT-114"/>
      </g>
     </g>
    </g>
    <g id="xtick_5">
     <g id="line2d_5">
      <path clip-path="url(#p0ff63c89bf)" d="M 306.064536 293.589375 
L 306.064536 21.789375 
" style="fill:none;stroke:#d0d0d0;stroke-linecap:square;stroke-opacity:0.5;stroke-width:0.8;"/>
     </g>
     <g id="text_4">
      <!-- Jul -->
      <defs>
       <path d="M 40.578125 0 
L 40.578125 7.625 
Q 34.515625 -1.171875 24.125 -1.171875 
Q 19.53125 -1.171875 15.546875 0.578125 
Q 11.578125 2.34375 9.640625 5 
Q 7.71875 7.671875 6.9375 11.53125 
Q 6.390625 14.109375 6.390625 19.734375 
L 6.390625 51.859375 
L 15.1875 51.859375 
L 15.1875 23.09375 
Q 15.1875 16.21875 15.71875 13.8125 
Q 16.546875 10.359375 19.234375 8.375 
Q 21.921875 6.390625 25.875 6.390625 
Q 29.828125 6.390625 33.296875 8.421875 
Q 36.765625 10.453125 38.203125 13.9375 
Q 39.65625 17.4375 39.65625 24.078125 
L 39.65625 51.859375 
L 48.4375 51.859375 
L 48.4375 0 
z
" id="ArialMT-117"/>
       <path d="M 6.390625 0 
L 6.390625 71.578125 
L 15.1875 71.578125 
L 15.1875 0 
z
" id="ArialMT-108"/>
      </defs>
      <g transform="translate(299.67313 307.747187)scale(0.1 -0.1)">
       <use xlink:href="#ArialMT-74"/>
       <use x="50" xlink:href="#ArialMT-117"/>
       <use x="105.615234" xlink:href="#ArialMT-108"/>
      </g>
     </g>
    </g>
    <g id="xtick_6">
     <g id="line2d_6">
      <path clip-path="url(#p0ff63c89bf)" d="M 390.742474 293.589375 
L 390.742474 21.789375 
" style="fill:none;stroke:#d0d0d0;stroke-linecap:square;stroke-opacity:0.5;stroke-width:0.8;"/>
     </g>
     <g id="text_5">
      <!-- Oct -->
      <g transform="translate(382.964349 307.747187)scale(0.1 -0.1)">
       <use xlink:href="#ArialMT-79"/>
       <use x="77.783203" xlink:href="#ArialMT-99"/>
       <use x="127.783203" xlink:href="#ArialMT-116"/>
      </g>
     </g>
    </g>
    <g id="xtick_7">
     <g id="line2d_7">
      <path clip-path="url(#p0ff63c89bf)" d="M 474.5 293.589375 
L 474.5 21.789375 
" style="fill:none;stroke:#d0d0d0;stroke-linecap:square;stroke-opacity:0.5;stroke-width:0.8;"/>
     </g>
    </g>
    <g id="xtick_8"/>
    <g id="xtick_9"/>
    <g id="xtick_10"/>
    <g id="xtick_11"/>
    <g id="xtick_12"/>
    <g id="xtick_13"/>
    <g id="xtick_14"/>
    <g id="xtick_15"/>
    <g id="xtick_16"/>
    <g id="xtick_17"/>
    <g id="text_6">
     <!-- time -->
     <defs>
      <path d="M 6.640625 61.46875 
L 6.640625 71.578125 
L 15.4375 71.578125 
L 15.4375 61.46875 
z
M 6.640625 0 
L 6.640625 51.859375 
L 15.4375 51.859375 
L 15.4375 0 
z
" id="ArialMT-105"/>
      <path d="M 6.59375 0 
L 6.59375 51.859375 
L 14.453125 51.859375 
L 14.453125 44.578125 
Q 16.890625 48.390625 20.9375 50.703125 
Q 25 53.03125 30.171875 53.03125 
Q 35.9375 53.03125 39.625 50.640625 
Q 43.3125 48.25 44.828125 43.953125 
Q 50.984375 53.03125 60.84375 53.03125 
Q 68.5625 53.03125 72.703125 48.75 
Q 76.859375 44.484375 76.859375 35.59375 
L 76.859375 0 
L 68.109375 0 
L 68.109375 32.671875 
Q 68.109375 37.9375 67.25 40.25 
Q 66.40625 42.578125 64.15625 43.984375 
Q 61.921875 45.40625 58.890625 45.40625 
Q 53.421875 45.40625 49.796875 41.765625 
Q 46.1875 38.140625 46.1875 30.125 
L 46.1875 0 
L 37.40625 0 
L 37.40625 33.6875 
Q 37.40625 39.546875 35.25 42.46875 
Q 33.109375 45.40625 28.21875 45.40625 
Q 24.515625 45.40625 21.359375 43.453125 
Q 18.21875 41.5 16.796875 37.734375 
Q 15.375 33.984375 15.375 26.90625 
L 15.375 0 
z
" id="ArialMT-109"/>
      <path d="M 42.09375 16.703125 
L 51.171875 15.578125 
Q 49.03125 7.625 43.21875 3.21875 
Q 37.40625 -1.171875 28.375 -1.171875 
Q 17 -1.171875 10.328125 5.828125 
Q 3.65625 12.84375 3.65625 25.484375 
Q 3.65625 38.578125 10.390625 45.796875 
Q 17.140625 53.03125 27.875 53.03125 
Q 38.28125 53.03125 44.875 45.953125 
Q 51.46875 38.875 51.46875 26.03125 
Q 51.46875 25.25 51.421875 23.6875 
L 12.75 23.6875 
Q 13.234375 15.140625 17.578125 10.59375 
Q 21.921875 6.0625 28.421875 6.0625 
Q 33.25 6.0625 36.671875 8.59375 
Q 40.09375 11.140625 42.09375 16.703125 
z
M 13.234375 30.90625 
L 42.1875 30.90625 
Q 41.609375 37.453125 38.875 40.71875 
Q 34.671875 45.796875 27.984375 45.796875 
Q 21.921875 45.796875 17.796875 41.75 
Q 13.671875 37.703125 13.234375 30.90625 
z
" id="ArialMT-101"/>
     </defs>
     <g transform="translate(241.854687 331.469375)scale(0.1 -0.1)">
      <use xlink:href="#ArialMT-116"/>
      <use x="27.783203" xlink:href="#ArialMT-105"/>
      <use x="50" xlink:href="#ArialMT-109"/>
      <use x="133.300781" xlink:href="#ArialMT-101"/>
     </g>
    </g>
   </g>
   <g id="matplotlib.axis_2">
    <g id="ytick_1">
     <g id="line2d_8">
      <path clip-path="url(#p0ff63c89bf)" d="M 28.1 281.346585 
L 474.5 281.346585 
" style="fill:none;stroke:#d0d0d0;stroke-linecap:square;stroke-opacity:0.5;stroke-width:0.8;"/>
     </g>
     <g id="text_7">
      <!-- 0.0 -->
      <defs>
       <path d="M 9.078125 0 
L 9.078125 10.015625 
L 19.09375 10.015625 
L 19.09375 0 
z
" id="ArialMT-46"/>
      </defs>
      <g transform="translate(7.2 284.925491)scale(0.1 -0.1)">
       <use xlink:href="#ArialMT-48"/>
       <use x="55.615234" xlink:href="#ArialMT-46"/>
       <use x="83.398438" xlink:href="#ArialMT-48"/>
      </g>
     </g>
    </g>
    <g id="ytick_2">
     <g id="line2d_9">
      <path clip-path="url(#p0ff63c89bf)" d="M 28.1 231.906052 
L 474.5 231.906052 
" style="fill:none;stroke:#d0d0d0;stroke-linecap:square;stroke-opacity:0.5;stroke-width:0.8;"/>
     </g>
     <g id="text_8">
      <!-- 0.2 -->
      <g transform="translate(7.2 235.484958)scale(0.1 -0.1)">
       <use xlink:href="#ArialMT-48"/>
       <use x="55.615234" xlink:href="#ArialMT-46"/>
       <use x="83.398438" xlink:href="#ArialMT-50"/>
      </g>
     </g>
    </g>
    <g id="ytick_3">
     <g id="line2d_10">
      <path clip-path="url(#p0ff63c89bf)" d="M 28.1 182.465519 
L 474.5 182.465519 
" style="fill:none;stroke:#d0d0d0;stroke-linecap:square;stroke-opacity:0.5;stroke-width:0.8;"/>
     </g>
     <g id="text_9">
      <!-- 0.4 -->
      <defs>
       <path d="M 32.328125 0 
L 32.328125 17.140625 
L 1.265625 17.140625 
L 1.265625 25.203125 
L 33.9375 71.578125 
L 41.109375 71.578125 
L 41.109375 25.203125 
L 50.78125 25.203125 
L 50.78125 17.140625 
L 41.109375 17.140625 
L 41.109375 0 
z
M 32.328125 25.203125 
L 32.328125 57.46875 
L 9.90625 25.203125 
z
" id="ArialMT-52"/>
      </defs>
      <g transform="translate(7.2 186.044425)scale(0.1 -0.1)">
       <use xlink:href="#ArialMT-48"/>
       <use x="55.615234" xlink:href="#ArialMT-46"/>
       <use x="83.398438" xlink:href="#ArialMT-52"/>
      </g>
     </g>
    </g>
    <g id="ytick_4">
     <g id="line2d_11">
      <path clip-path="url(#p0ff63c89bf)" d="M 28.1 133.024986 
L 474.5 133.024986 
" style="fill:none;stroke:#d0d0d0;stroke-linecap:square;stroke-opacity:0.5;stroke-width:0.8;"/>
     </g>
     <g id="text_10">
      <!-- 0.6 -->
      <defs>
       <path d="M 49.75 54.046875 
L 41.015625 53.375 
Q 39.84375 58.546875 37.703125 60.890625 
Q 34.125 64.65625 28.90625 64.65625 
Q 24.703125 64.65625 21.53125 62.3125 
Q 17.390625 59.28125 14.984375 53.46875 
Q 12.59375 47.65625 12.5 36.921875 
Q 15.671875 41.75 20.265625 44.09375 
Q 24.859375 46.4375 29.890625 46.4375 
Q 38.671875 46.4375 44.84375 39.96875 
Q 51.03125 33.5 51.03125 23.25 
Q 51.03125 16.5 48.125 10.71875 
Q 45.21875 4.9375 40.140625 1.859375 
Q 35.0625 -1.21875 28.609375 -1.21875 
Q 17.625 -1.21875 10.6875 6.859375 
Q 3.765625 14.9375 3.765625 33.5 
Q 3.765625 54.25 11.421875 63.671875 
Q 18.109375 71.875 29.4375 71.875 
Q 37.890625 71.875 43.28125 67.140625 
Q 48.6875 62.40625 49.75 54.046875 
z
M 13.875 23.1875 
Q 13.875 18.65625 15.796875 14.5 
Q 17.71875 10.359375 21.1875 8.171875 
Q 24.65625 6 28.46875 6 
Q 34.03125 6 38.03125 10.484375 
Q 42.046875 14.984375 42.046875 22.703125 
Q 42.046875 30.125 38.078125 34.390625 
Q 34.125 38.671875 28.125 38.671875 
Q 22.171875 38.671875 18.015625 34.390625 
Q 13.875 30.125 13.875 23.1875 
z
" id="ArialMT-54"/>
      </defs>
      <g transform="translate(7.2 136.603892)scale(0.1 -0.1)">
       <use xlink:href="#ArialMT-48"/>
       <use x="55.615234" xlink:href="#ArialMT-46"/>
       <use x="83.398438" xlink:href="#ArialMT-54"/>
      </g>
     </g>
    </g>
    <g id="ytick_5">
     <g id="line2d_12">
      <path clip-path="url(#p0ff63c89bf)" d="M 28.1 83.584453 
L 474.5 83.584453 
" style="fill:none;stroke:#d0d0d0;stroke-linecap:square;stroke-opacity:0.5;stroke-width:0.8;"/>
     </g>
     <g id="text_11">
      <!-- 0.8 -->
      <g transform="translate(7.2 87.16336)scale(0.1 -0.1)">
       <use xlink:href="#ArialMT-48"/>
       <use x="55.615234" xlink:href="#ArialMT-46"/>
       <use x="83.398438" xlink:href="#ArialMT-56"/>
      </g>
     </g>
    </g>
    <g id="ytick_6">
     <g id="line2d_13">
      <path clip-path="url(#p0ff63c89bf)" d="M 28.1 34.14392 
L 474.5 34.14392 
" style="fill:none;stroke:#d0d0d0;stroke-linecap:square;stroke-opacity:0.5;stroke-width:0.8;"/>
     </g>
     <g id="text_12">
      <!-- 1.0 -->
      <g transform="translate(7.2 37.722827)scale(0.1 -0.1)">
       <use xlink:href="#ArialMT-49"/>
       <use x="55.615234" xlink:href="#ArialMT-46"/>
       <use x="83.398438" xlink:href="#ArialMT-48"/>
      </g>
     </g>
    </g>
   </g>
   <g id="line2d_14">
    <path clip-path="url(#p0ff63c89bf)" d="M 28.1 122.831591 
L 29.020412 135.644004 
L 29.940825 173.660518 
L 30.861237 192.652341 
L 31.781649 187.774552 
L 32.702062 232.588416 
L 33.622474 244.335868 
L 34.542887 267.679572 
L 35.463299 271.768501 
L 36.383711 253.775902 
L 37.304124 232.141395 
L 38.224536 260.376036 
L 39.144948 258.850906 
L 40.065361 258.640543 
L 40.985773 255.807218 
L 41.906186 257.010231 
L 42.826598 261.97348 
L 43.74701 263.610366 
L 44.667423 263.091032 
L 45.587835 263.912762 
L 47.42866 261.487015 
L 48.349072 263.183066 
L 49.269485 269.382197 
L 50.189897 268.192332 
L 51.110309 271.775074 
L 52.030722 271.610728 
L 52.951134 272.425884 
L 53.871546 271.190003 
L 54.791959 240.667665 
L 55.712371 121.102671 
L 57.553196 164.062712 
L 58.473608 197.609016 
L 59.394021 201.165463 
L 61.234845 250.955724 
L 62.155258 264.714771 
L 63.07567 266.792104 
L 63.996082 244.809184 
L 64.916495 218.395497 
L 65.836907 272.531066 
L 66.75732 275.48272 
L 67.677732 280.662906 
L 68.598144 274.299429 
L 69.518557 274.799041 
L 70.438969 273.648619 
L 71.359381 264.517555 
L 72.279794 265.266973 
L 73.200206 271.880256 
L 74.120619 275.758821 
L 75.041031 275.186897 
L 75.961443 275.627344 
L 76.881856 275.581327 
L 77.802268 276.403057 
L 78.72268 274.463775 
L 79.643093 280.597167 
L 80.563505 281.23483 
L 81.483918 279.565074 
L 82.40433 278.782787 
L 83.324742 230.629412 
L 84.245155 154.208527 
L 85.165567 145.662535 
L 87.006392 177.979531 
L 87.926804 205.918349 
L 88.847216 224.022703 
L 89.767629 248.115826 
L 90.688041 260.527235 
L 91.608454 265.431319 
L 92.528866 242.337421 
L 93.449278 181.450518 
L 94.369691 250.226028 
L 95.290103 259.81726 
L 96.210515 255.39964 
L 97.130928 257.976585 
L 98.05134 257.496695 
L 98.971753 262.920112 
L 99.892165 265.944079 
L 100.812577 263.524906 
L 102.653402 272.077471 
L 103.573814 272.169505 
L 104.494227 269.664872 
L 105.414639 263.616939 
L 106.335052 263.886467 
L 107.255464 263.722121 
L 108.175876 265.135496 
L 109.096289 263.038442 
L 110.016701 257.082543 
L 110.937113 226.218366 
L 111.857526 160.427379 
L 112.777938 145.15635 
L 113.698351 157.942468 
L 114.618763 149.140097 
L 115.539175 199.844121 
L 116.459588 222.247767 
L 117.38 252.789826 
L 118.300412 254.111167 
L 119.220825 272.458754 
L 120.141237 246.202838 
L 121.061649 167.724341 
L 121.982062 189.943919 
L 122.902474 173.325252 
L 123.822887 173.535615 
L 124.743299 176.204594 
L 125.663711 186.505801 
L 126.584124 189.115615 
L 127.504536 178.669784 
L 128.424948 178.617193 
L 130.265773 193.769894 
L 131.186186 207.035902 
L 133.02701 221.537792 
L 133.947423 216.975547 
L 134.867835 194.065716 
L 136.70866 154.537219 
L 137.629072 160.466822 
L 138.549485 167.441666 
L 139.469897 168.164788 
L 140.390309 165.180265 
L 141.310722 112.227987 
L 142.231134 69.419144 
L 143.151546 68.571118 
L 144.071959 78.412156 
L 144.992371 126.157953 
L 145.912784 192.389387 
L 147.753608 249.121623 
L 148.674021 207.627548 
L 149.594433 173.726257 
L 150.514845 166.376704 
L 151.435258 163.865497 
L 152.35567 155.89143 
L 153.276082 156.068924 
L 154.196495 141.731379 
L 155.116907 145.964932 
L 156.03732 163.872071 
L 156.957732 178.49229 
L 157.878144 169.617607 
L 158.798557 152.538772 
L 159.718969 148.910012 
L 160.639381 157.179902 
L 161.559794 150.783556 
L 162.480206 149.712021 
L 163.400619 174.475674 
L 164.321031 178.485717 
L 165.241443 169.052257 
L 166.161856 166.810577 
L 167.082268 165.048788 
L 168.00268 150.323388 
L 168.923093 161.446324 
L 169.843505 84.946553 
L 170.763918 63.371211 
L 171.68433 70.878536 
L 172.604742 79.450823 
L 173.525155 124.244966 
L 174.445567 189.450881 
L 176.286392 250.035387 
L 177.206804 186.70959 
L 178.127216 175.691835 
L 179.047629 144.860527 
L 179.968041 123.968865 
L 180.888454 113.588772 
L 181.808866 101.880764 
L 182.729278 105.272865 
L 183.649691 107.797219 
L 184.570103 104.779827 
L 185.490515 112.806485 
L 186.410928 123.101118 
L 187.33134 135.926679 
L 188.251753 133.218257 
L 189.172165 142.362468 
L 190.092577 157.36397 
L 191.01299 151.848519 
L 191.933402 142.336173 
L 192.853814 140.850485 
L 193.774227 137.346628 
L 194.694639 178.66321 
L 195.615052 94.721852 
L 196.535464 56.29776 
L 197.455876 63.088536 
L 198.376289 79.746646 
L 199.296701 124.494772 
L 200.217113 184.435041 
L 201.137526 212.452746 
L 202.057938 245.749243 
L 202.978351 184.375877 
L 203.898763 152.979219 
L 204.819175 55.699541 
L 205.739588 55.318258 
L 206.66 37.634629 
L 207.580412 37.930452 
L 208.500825 58.191026 
L 209.421237 66.013895 
L 210.341649 59.394038 
L 211.262062 65.487988 
L 212.182474 77.774494 
L 213.102887 78.057169 
L 214.023299 74.704511 
L 214.943711 83.585768 
L 215.864124 81.607042 
L 216.784536 69.793853 
L 217.704948 64.133777 
L 218.625361 60.721954 
L 219.545773 73.757878 
L 220.466186 84.052511 
L 221.386598 83.191338 
L 222.30701 135.998991 
L 223.227423 174.653168 
L 224.147835 96.641414 
L 225.068247 51.748663 
L 225.98866 70.990291 
L 226.909072 76.992207 
L 228.749897 202.710316 
L 229.670309 218.26402 
L 230.590722 245.532307 
L 231.511134 191.107489 
L 233.351959 47.948984 
L 234.272371 60.294654 
L 235.192784 70.71419 
L 236.113196 52.596688 
L 237.033608 51.255625 
L 237.954021 53.050283 
L 238.874433 48.599794 
L 239.794845 41.887904 
L 240.715258 41.500047 
L 241.63567 44.274207 
L 242.556082 34.14392 
L 243.476495 35.386376 
L 244.396907 43.702283 
L 245.31732 48.231659 
L 246.237732 51.078131 
L 247.158144 53.214629 
L 248.078557 66.644983 
L 248.998969 62.095886 
L 249.919381 135.032637 
L 250.839794 165.896814 
L 251.760206 86.958148 
L 252.680619 46.673659 
L 253.601031 78.924916 
L 254.521443 70.115971 
L 256.362268 202.795775 
L 257.28268 214.319716 
L 258.203093 240.529615 
L 259.123505 171.550316 
L 260.96433 91.125962 
L 261.884742 81.975177 
L 262.805155 93.926418 
L 263.725567 94.241962 
L 264.645979 93.788367 
L 265.566392 97.627489 
L 266.486804 96.884646 
L 267.407216 99.376131 
L 268.327629 93.104688 
L 269.248041 95.096561 
L 270.168454 101.834747 
L 271.088866 101.013017 
L 272.009278 92.190924 
L 272.929691 80.430325 
L 273.850103 80.325144 
L 274.770515 80.390882 
L 275.690928 80.936511 
L 276.61134 74.789971 
L 277.531753 80.48949 
L 278.452165 142.046924 
L 279.372577 164.825278 
L 280.29299 87.050182 
L 281.213402 49.822528 
L 282.133814 81.107431 
L 283.054227 61.846081 
L 283.974639 139.640898 
L 284.895052 185.71694 
L 285.815464 207.778746 
L 286.735876 242.600374 
L 287.656289 164.378257 
L 288.576701 132.909287 
L 289.497113 55.035583 
L 290.417526 52.813625 
L 291.337938 64.521633 
L 292.258351 78.957785 
L 293.178763 81.817405 
L 294.099175 83.625211 
L 295.019588 83.224207 
L 295.94 83.953903 
L 296.860412 88.969743 
L 298.701237 107.941844 
L 299.621649 111.741523 
L 300.542062 110.249262 
L 301.462474 115.685827 
L 303.303299 120.175759 
L 304.223711 119.636704 
L 305.144124 121.319607 
L 306.064536 141.586755 
L 306.984948 169.367801 
L 307.905361 86.37965 
L 308.825773 41.131912 
L 309.746186 66.756739 
L 310.666598 70.996865 
L 311.58701 153.34078 
L 312.507423 191.21267 
L 313.427835 208.501868 
L 314.348247 242.067893 
L 315.26866 139.678912 
L 316.189072 146.477692 
L 317.109485 154.997388 
L 318.029897 160.151278 
L 318.950309 162.412679 
L 319.870722 159.395286 
L 320.791134 155.825691 
L 321.711546 160.552282 
L 322.631959 162.701928 
L 323.552371 157.79127 
L 324.472784 159.17835 
L 325.393196 164.943607 
L 326.313608 162.899143 
L 327.234021 166.021717 
L 328.154433 167.264172 
L 329.074845 169.00624 
L 329.995258 169.906856 
L 330.91567 186.703016 
L 331.836082 189.65467 
L 332.756495 186.486079 
L 333.676907 181.489961 
L 334.59732 140.765025 
L 335.517732 169.374375 
L 336.438144 89.508798 
L 337.358557 38.581262 
L 338.278969 69.083878 
L 339.199381 65.967878 
L 340.119794 150.270797 
L 341.040206 189.628375 
L 341.960619 215.266349 
L 342.881031 237.492501 
L 343.801443 146.642038 
L 344.721856 159.3164 
L 345.642268 189.812442 
L 346.56268 194.545607 
L 347.483093 200.416045 
L 348.403505 198.542501 
L 349.323918 197.812805 
L 350.24433 207.607826 
L 351.164742 211.052518 
L 352.085155 197.405227 
L 353.005567 203.085024 
L 353.925979 201.46786 
L 354.846392 203.564915 
L 355.766804 207.883927 
L 356.687216 216.219556 
L 357.607629 216.686299 
L 358.528041 209.882375 
L 359.448454 210.848729 
L 360.368866 215.384678 
L 361.289278 212.926062 
L 362.209691 209.317024 
L 363.130103 151.486957 
L 364.050515 164.010122 
L 364.970928 80.476342 
L 365.89134 41.572359 
L 366.811753 71.733135 
L 367.732165 64.475616 
L 368.652577 143.236789 
L 369.57299 191.929219 
L 370.493402 214.004172 
L 371.413814 240.122037 
L 372.334227 141.941742 
L 373.254639 168.559219 
L 374.175052 221.827041 
L 375.095464 221.669269 
L 376.015876 229.012248 
L 376.936289 226.251235 
L 377.856701 221.570661 
L 378.777113 219.729986 
L 379.697526 212.748569 
L 380.617938 222.780248 
L 381.538351 222.68164 
L 382.458763 231.083007 
L 383.379175 232.364906 
L 384.299588 234.120121 
L 385.22 229.932585 
L 386.140412 231.155319 
L 387.060825 231.543176 
L 387.981237 231.201336 
L 388.901649 241.002931 
L 389.822062 234.553995 
L 390.742474 154.070476 
L 391.662887 165.121101 
L 392.583299 46.068865 
L 393.503711 39.600207 
L 394.424124 77.399785 
L 395.344536 64.896342 
L 396.264948 147.010173 
L 397.185361 185.079278 
L 399.026186 237.170383 
L 399.946598 123.962291 
L 400.86701 169.459835 
L 401.787423 250.46926 
L 402.707835 232.608138 
L 403.628247 219.868037 
L 404.54866 221.708712 
L 405.469072 228.256256 
L 406.389485 229.281775 
L 407.309897 221.971666 
L 408.230309 223.536239 
L 409.150722 223.496796 
L 410.071134 229.367235 
L 410.991546 237.965817 
L 411.911959 240.141758 
L 412.832371 237.13094 
L 414.673196 232.614712 
L 415.593608 230.465066 
L 416.514021 229.860273 
L 417.434433 221.084197 
L 418.354845 206.628324 
L 419.275258 143.276232 
L 420.19567 167.573143 
L 421.116082 47.692604 
L 422.036495 42.578157 
L 422.956907 67.972899 
L 423.87732 56.744781 
L 424.797732 150.579767 
L 425.718144 196.563775 
L 426.638557 211.328619 
L 427.558969 240.411286 
L 428.479381 115.574072 
L 429.399794 161.788164 
L 430.320206 133.698147 
L 431.240619 147.84505 
L 432.161031 153.0844 
L 433.081443 151.039936 
L 434.001856 166.186063 
L 434.922268 168.861615 
L 435.84268 159.96721 
L 436.763093 163.451345 
L 437.683505 163.471067 
L 438.603918 154.596383 
L 439.52433 152.058881 
L 440.444742 151.230578 
L 441.365155 142.145531 
L 442.285567 131.035742 
L 443.205979 133.454915 
L 444.126392 139.713211 
L 445.046804 138.832316 
L 445.967216 143.348544 
L 446.887629 150.172189 
L 447.808041 141.435557 
L 448.728454 52.596688 
L 449.648866 49.822528 
L 450.569278 84.959701 
L 451.489691 61.300452 
L 452.410103 156.765751 
L 453.330515 197.109404 
L 454.250928 215.003396 
L 455.17134 240.128611 
L 456.091753 116.63246 
L 457.012165 163.306721 
L 457.932577 151.756485 
L 459.773402 135.828071 
L 460.693814 122.844738 
L 461.614227 113.878021 
L 462.534639 121.944122 
L 463.455052 118.486283 
L 464.375464 119.603835 
L 465.295876 129.444873 
L 466.216289 130.549278 
L 467.136701 134.289793 
L 468.057113 139.910426 
L 468.977526 146.62889 
L 469.897938 145.32727 
L 470.818351 147.53608 
L 472.659175 158.626147 
L 473.579588 166.639658 
L 474.5 167.158705 
L 474.5 167.158705 
" style="fill:none;stroke:#000000;stroke-linecap:square;stroke-width:1.3;"/>
   </g>
   <g id="line2d_15">
    <path clip-path="url(#p0ff63c89bf)" d="M 32.702062 239.526439 
L 37.304124 240.799173 
L 41.906186 235.097926 
L 46.508247 243.799835 
L 51.110309 256.336612 
L 55.712371 205.224365 
L 60.314433 207.39387 
L 64.916495 247.168748 
L 69.518557 236.151876 
L 74.120619 246.628761 
L 78.72268 259.635429 
L 83.324742 208.18046 
L 87.926804 211.613132 
L 92.528866 248.218289 
L 97.130928 249.595445 
L 101.73299 237.92551 
L 106.335052 239.934815 
L 110.937113 242.435862 
L 115.539175 173.462908 
L 120.141237 254.446748 
L 124.743299 229.743402 
L 129.345361 215.664885 
L 133.947423 210.385246 
L 138.549485 215.648412 
L 143.151546 165.802435 
L 147.753608 243.948517 
L 152.35567 177.161934 
L 156.957732 181.564471 
L 161.559794 196.379429 
L 166.161856 155.457468 
L 170.763918 113.032529 
L 175.365979 222.680675 
L 179.968041 151.142388 
L 184.570103 179.128803 
L 189.172165 131.484334 
L 193.774227 129.143063 
L 198.376289 95.340667 
L 202.978351 207.117371 
L 207.580412 131.348026 
L 212.182474 78.323921 
L 216.784536 119.457638 
L 221.386598 154.459917 
L 225.98866 90.782645 
L 230.590722 210.899646 
L 235.192784 89.542242 
L 239.794845 71.898326 
L 244.396907 94.234244 
L 248.998969 118.070937 
L 253.601031 93.39721 
L 258.203093 226.125702 
L 262.805155 66.644648 
L 267.407216 67.355172 
L 272.009278 109.225035 
L 276.61134 135.495855 
L 281.213402 83.312527 
L 285.815464 208.675831 
L 290.417526 101.451254 
L 295.019588 113.97039 
L 299.621649 103.647436 
L 304.223711 106.325845 
L 308.825773 74.977585 
L 313.427835 192.87584 
L 318.029897 100.523089 
L 322.631959 126.34056 
L 327.234021 153.020659 
L 331.836082 165.695036 
L 336.438144 112.21966 
L 341.040206 204.426997 
L 345.642268 137.618718 
L 350.24433 180.991515 
L 354.846392 186.786396 
L 359.448454 202.396335 
L 364.050515 159.403524 
L 368.652577 195.144072 
L 373.254639 167.088743 
L 377.856701 219.246987 
L 382.458763 213.75853 
L 387.060825 220.998553 
L 391.662887 187.894248 
L 396.264948 152.273461 
L 400.86701 175.645474 
L 405.469072 238.773646 
L 410.071134 219.591216 
L 414.673196 224.701778 
L 419.275258 177.600556 
L 423.87732 147.3548 
L 428.479381 175.649762 
L 433.081443 232.423941 
L 437.683505 192.805232 
L 442.285567 195.016229 
L 446.887629 174.365944 
L 451.489691 126.364445 
L 456.091753 205.908124 
L 460.693814 159.748295 
L 465.295876 153.026788 
L 469.897938 123.268211 
" style="fill:none;stroke:#003dfd;stroke-linecap:square;stroke-width:1.3;"/>
   </g>
   <g id="text_13">
    <!-- R2: 0.7022225868378522 -->
    <defs>
     <path d="M 7.859375 0 
L 7.859375 71.578125 
L 39.59375 71.578125 
Q 49.171875 71.578125 54.140625 69.640625 
Q 59.125 67.71875 62.109375 62.828125 
Q 65.09375 57.953125 65.09375 52.046875 
Q 65.09375 44.4375 60.15625 39.203125 
Q 55.21875 33.984375 44.921875 32.5625 
Q 48.6875 30.765625 50.640625 29 
Q 54.78125 25.203125 58.5 19.484375 
L 70.953125 0 
L 59.03125 0 
L 49.5625 14.890625 
Q 45.40625 21.34375 42.71875 24.75 
Q 40.046875 28.171875 37.921875 29.53125 
Q 35.796875 30.90625 33.59375 31.453125 
Q 31.984375 31.78125 28.328125 31.78125 
L 17.328125 31.78125 
L 17.328125 0 
z
M 17.328125 39.984375 
L 37.703125 39.984375 
Q 44.1875 39.984375 47.84375 41.328125 
Q 51.515625 42.671875 53.421875 45.625 
Q 55.328125 48.578125 55.328125 52.046875 
Q 55.328125 57.125 51.640625 60.390625 
Q 47.953125 63.671875 39.984375 63.671875 
L 17.328125 63.671875 
z
" id="ArialMT-82"/>
     <path d="M 9.03125 41.84375 
L 9.03125 51.859375 
L 19.046875 51.859375 
L 19.046875 41.84375 
z
M 9.03125 0 
L 9.03125 10.015625 
L 19.046875 10.015625 
L 19.046875 0 
z
" id="ArialMT-58"/>
     <path id="ArialMT-32"/>
     <path d="M 4.734375 62.203125 
L 4.734375 70.65625 
L 51.078125 70.65625 
L 51.078125 63.8125 
Q 44.234375 56.546875 37.515625 44.484375 
Q 30.8125 32.421875 27.15625 19.671875 
Q 24.515625 10.6875 23.78125 0 
L 14.75 0 
Q 14.890625 8.453125 18.0625 20.40625 
Q 21.234375 32.375 27.171875 43.484375 
Q 33.109375 54.59375 39.796875 62.203125 
z
" id="ArialMT-55"/>
     <path d="M 4.15625 18.75 
L 13.375 19.53125 
Q 14.40625 12.796875 18.140625 9.390625 
Q 21.875 6 27.15625 6 
Q 33.5 6 37.890625 10.78125 
Q 42.28125 15.578125 42.28125 23.484375 
Q 42.28125 31 38.0625 35.34375 
Q 33.84375 39.703125 27 39.703125 
Q 22.75 39.703125 19.328125 37.765625 
Q 15.921875 35.84375 13.96875 32.765625 
L 5.71875 33.84375 
L 12.640625 70.609375 
L 48.25 70.609375 
L 48.25 62.203125 
L 19.671875 62.203125 
L 15.828125 42.96875 
Q 22.265625 47.46875 29.34375 47.46875 
Q 38.71875 47.46875 45.15625 40.96875 
Q 51.609375 34.46875 51.609375 24.265625 
Q 51.609375 14.546875 45.953125 7.46875 
Q 39.0625 -1.21875 27.15625 -1.21875 
Q 17.390625 -1.21875 11.203125 4.25 
Q 5.03125 9.71875 4.15625 18.75 
z
" id="ArialMT-53"/>
     <path d="M 4.203125 18.890625 
L 12.984375 20.0625 
Q 14.5 12.59375 18.140625 9.296875 
Q 21.78125 6 27 6 
Q 33.203125 6 37.46875 10.296875 
Q 41.75 14.59375 41.75 20.953125 
Q 41.75 27 37.796875 30.921875 
Q 33.84375 34.859375 27.734375 34.859375 
Q 25.25 34.859375 21.53125 33.890625 
L 22.515625 41.609375 
Q 23.390625 41.5 23.921875 41.5 
Q 29.546875 41.5 34.03125 44.421875 
Q 38.53125 47.359375 38.53125 53.46875 
Q 38.53125 58.296875 35.25 61.46875 
Q 31.984375 64.65625 26.8125 64.65625 
Q 21.6875 64.65625 18.265625 61.421875 
Q 14.84375 58.203125 13.875 51.765625 
L 5.078125 53.328125 
Q 6.6875 62.15625 12.390625 67.015625 
Q 18.109375 71.875 26.609375 71.875 
Q 32.46875 71.875 37.390625 69.359375 
Q 42.328125 66.84375 44.9375 62.5 
Q 47.5625 58.15625 47.5625 53.265625 
Q 47.5625 48.640625 45.0625 44.828125 
Q 42.578125 41.015625 37.703125 38.765625 
Q 44.046875 37.3125 47.5625 32.6875 
Q 51.078125 28.078125 51.078125 21.140625 
Q 51.078125 11.765625 44.234375 5.25 
Q 37.40625 -1.265625 26.953125 -1.265625 
Q 17.53125 -1.265625 11.296875 4.34375 
Q 5.078125 9.96875 4.203125 18.890625 
z
" id="ArialMT-51"/>
    </defs>
    <g transform="translate(181.908125 15.789375)scale(0.12 -0.12)">
     <use xlink:href="#ArialMT-82"/>
     <use x="72.216797" xlink:href="#ArialMT-50"/>
     <use x="127.832031" xlink:href="#ArialMT-58"/>
     <use x="155.615234" xlink:href="#ArialMT-32"/>
     <use x="183.398438" xlink:href="#ArialMT-48"/>
     <use x="239.013672" xlink:href="#ArialMT-46"/>
     <use x="266.796875" xlink:href="#ArialMT-55"/>
     <use x="322.412109" xlink:href="#ArialMT-48"/>
     <use x="378.027344" xlink:href="#ArialMT-50"/>
     <use x="433.642578" xlink:href="#ArialMT-50"/>
     <use x="489.257812" xlink:href="#ArialMT-50"/>
     <use x="544.873047" xlink:href="#ArialMT-50"/>
     <use x="600.488281" xlink:href="#ArialMT-53"/>
     <use x="656.103516" xlink:href="#ArialMT-56"/>
     <use x="711.71875" xlink:href="#ArialMT-54"/>
     <use x="767.333984" xlink:href="#ArialMT-56"/>
     <use x="822.949219" xlink:href="#ArialMT-51"/>
     <use x="878.564453" xlink:href="#ArialMT-55"/>
     <use x="934.179688" xlink:href="#ArialMT-56"/>
     <use x="989.794922" xlink:href="#ArialMT-53"/>
     <use x="1045.410156" xlink:href="#ArialMT-50"/>
     <use x="1101.025391" xlink:href="#ArialMT-50"/>
    </g>
   </g>
   <g id="legend_1">
    <g id="line2d_16">
     <path d="M 37.1 34.447187 
L 57.1 34.447187 
" style="fill:none;stroke:#000000;stroke-linecap:square;stroke-width:1.3;"/>
    </g>
    <g id="line2d_17"/>
    <g id="text_14">
     <!-- actual -->
     <g transform="translate(65.1 37.947187)scale(0.1 -0.1)">
      <use xlink:href="#ArialMT-97"/>
      <use x="55.615234" xlink:href="#ArialMT-99"/>
      <use x="105.615234" xlink:href="#ArialMT-116"/>
      <use x="133.398438" xlink:href="#ArialMT-117"/>
      <use x="189.013672" xlink:href="#ArialMT-97"/>
      <use x="244.628906" xlink:href="#ArialMT-108"/>
     </g>
    </g>
    <g id="line2d_18">
     <path d="M 37.1 48.714375 
L 57.1 48.714375 
" style="fill:none;stroke:#003dfd;stroke-linecap:square;stroke-width:1.3;"/>
    </g>
    <g id="line2d_19"/>
    <g id="text_15">
     <!-- historic 7 day forecasts -->
     <defs>
      <path d="M 6.59375 0 
L 6.59375 71.578125 
L 15.375 71.578125 
L 15.375 45.90625 
Q 21.53125 53.03125 30.90625 53.03125 
Q 36.671875 53.03125 40.921875 50.75 
Q 45.171875 48.484375 47 44.484375 
Q 48.828125 40.484375 48.828125 32.859375 
L 48.828125 0 
L 40.046875 0 
L 40.046875 32.859375 
Q 40.046875 39.453125 37.1875 42.453125 
Q 34.328125 45.453125 29.109375 45.453125 
Q 25.203125 45.453125 21.75 43.421875 
Q 18.3125 41.40625 16.84375 37.9375 
Q 15.375 34.46875 15.375 28.375 
L 15.375 0 
z
" id="ArialMT-104"/>
      <path d="M 3.078125 15.484375 
L 11.765625 16.84375 
Q 12.5 11.625 15.84375 8.84375 
Q 19.1875 6.0625 25.203125 6.0625 
Q 31.25 6.0625 34.171875 8.515625 
Q 37.109375 10.984375 37.109375 14.3125 
Q 37.109375 17.28125 34.515625 19 
Q 32.71875 20.171875 25.53125 21.96875 
Q 15.875 24.421875 12.140625 26.203125 
Q 8.40625 27.984375 6.46875 31.125 
Q 4.546875 34.28125 4.546875 38.09375 
Q 4.546875 41.546875 6.125 44.5 
Q 7.71875 47.46875 10.453125 49.421875 
Q 12.5 50.921875 16.03125 51.96875 
Q 19.578125 53.03125 23.640625 53.03125 
Q 29.734375 53.03125 34.34375 51.265625 
Q 38.96875 49.515625 41.15625 46.5 
Q 43.359375 43.5 44.1875 38.484375 
L 35.59375 37.3125 
Q 35.015625 41.3125 32.203125 43.546875 
Q 29.390625 45.796875 24.265625 45.796875 
Q 18.21875 45.796875 15.625 43.796875 
Q 13.03125 41.796875 13.03125 39.109375 
Q 13.03125 37.40625 14.109375 36.03125 
Q 15.1875 34.625 17.484375 33.6875 
Q 18.796875 33.203125 25.25 31.453125 
Q 34.578125 28.953125 38.25 27.359375 
Q 41.9375 25.78125 44.03125 22.75 
Q 46.140625 19.734375 46.140625 15.234375 
Q 46.140625 10.84375 43.578125 6.953125 
Q 41.015625 3.078125 36.171875 0.953125 
Q 31.34375 -1.171875 25.25 -1.171875 
Q 15.140625 -1.171875 9.84375 3.03125 
Q 4.546875 7.234375 3.078125 15.484375 
z
" id="ArialMT-115"/>
      <path d="M 3.328125 25.921875 
Q 3.328125 40.328125 11.328125 47.265625 
Q 18.015625 53.03125 27.640625 53.03125 
Q 38.328125 53.03125 45.109375 46.015625 
Q 51.90625 39.015625 51.90625 26.65625 
Q 51.90625 16.65625 48.90625 10.90625 
Q 45.90625 5.171875 40.15625 2 
Q 34.421875 -1.171875 27.640625 -1.171875 
Q 16.75 -1.171875 10.03125 5.8125 
Q 3.328125 12.796875 3.328125 25.921875 
z
M 12.359375 25.921875 
Q 12.359375 15.96875 16.703125 11.015625 
Q 21.046875 6.0625 27.640625 6.0625 
Q 34.1875 6.0625 38.53125 11.03125 
Q 42.875 16.015625 42.875 26.21875 
Q 42.875 35.84375 38.5 40.796875 
Q 34.125 45.75 27.640625 45.75 
Q 21.046875 45.75 16.703125 40.8125 
Q 12.359375 35.890625 12.359375 25.921875 
z
" id="ArialMT-111"/>
      <path d="M 40.234375 0 
L 40.234375 6.546875 
Q 35.296875 -1.171875 25.734375 -1.171875 
Q 19.53125 -1.171875 14.328125 2.25 
Q 9.125 5.671875 6.265625 11.796875 
Q 3.421875 17.921875 3.421875 25.875 
Q 3.421875 33.640625 6 39.96875 
Q 8.59375 46.296875 13.765625 49.65625 
Q 18.953125 53.03125 25.34375 53.03125 
Q 30.03125 53.03125 33.6875 51.046875 
Q 37.359375 49.078125 39.65625 45.90625 
L 39.65625 71.578125 
L 48.390625 71.578125 
L 48.390625 0 
z
M 12.453125 25.875 
Q 12.453125 15.921875 16.640625 10.984375 
Q 20.84375 6.0625 26.5625 6.0625 
Q 32.328125 6.0625 36.34375 10.765625 
Q 40.375 15.484375 40.375 25.140625 
Q 40.375 35.796875 36.265625 40.765625 
Q 32.171875 45.75 26.171875 45.75 
Q 20.3125 45.75 16.375 40.96875 
Q 12.453125 36.1875 12.453125 25.875 
z
" id="ArialMT-100"/>
      <path d="M 6.203125 -19.96875 
L 5.21875 -11.71875 
Q 8.109375 -12.5 10.25 -12.5 
Q 13.1875 -12.5 14.9375 -11.515625 
Q 16.703125 -10.546875 17.828125 -8.796875 
Q 18.65625 -7.46875 20.515625 -2.25 
Q 20.75 -1.515625 21.296875 -0.09375 
L 1.609375 51.859375 
L 11.078125 51.859375 
L 21.875 21.828125 
Q 23.96875 16.109375 25.640625 9.8125 
Q 27.15625 15.875 29.25 21.625 
L 40.328125 51.859375 
L 49.125 51.859375 
L 29.390625 -0.875 
Q 26.21875 -9.421875 24.46875 -12.640625 
Q 22.125 -17 19.09375 -19.015625 
Q 16.0625 -21.046875 11.859375 -21.046875 
Q 9.328125 -21.046875 6.203125 -19.96875 
z
" id="ArialMT-121"/>
      <path d="M 8.6875 0 
L 8.6875 45.015625 
L 0.921875 45.015625 
L 0.921875 51.859375 
L 8.6875 51.859375 
L 8.6875 57.375 
Q 8.6875 62.59375 9.625 65.140625 
Q 10.890625 68.5625 14.078125 70.671875 
Q 17.28125 72.796875 23.046875 72.796875 
Q 26.765625 72.796875 31.25 71.921875 
L 29.9375 64.265625 
Q 27.203125 64.75 24.75 64.75 
Q 20.75 64.75 19.09375 63.03125 
Q 17.4375 61.328125 17.4375 56.640625 
L 17.4375 51.859375 
L 27.546875 51.859375 
L 27.546875 45.015625 
L 17.4375 45.015625 
L 17.4375 0 
z
" id="ArialMT-102"/>
     </defs>
     <g transform="translate(65.1 52.214375)scale(0.1 -0.1)">
      <use xlink:href="#ArialMT-104"/>
      <use x="55.615234" xlink:href="#ArialMT-105"/>
      <use x="77.832031" xlink:href="#ArialMT-115"/>
      <use x="127.832031" xlink:href="#ArialMT-116"/>
      <use x="155.615234" xlink:href="#ArialMT-111"/>
      <use x="211.230469" xlink:href="#ArialMT-114"/>
      <use x="244.53125" xlink:href="#ArialMT-105"/>
      <use x="266.748047" xlink:href="#ArialMT-99"/>
      <use x="316.748047" xlink:href="#ArialMT-32"/>
      <use x="344.53125" xlink:href="#ArialMT-55"/>
      <use x="400.146484" xlink:href="#ArialMT-32"/>
      <use x="427.929688" xlink:href="#ArialMT-100"/>
      <use x="483.544922" xlink:href="#ArialMT-97"/>
      <use x="539.160156" xlink:href="#ArialMT-121"/>
      <use x="589.160156" xlink:href="#ArialMT-32"/>
      <use x="616.943359" xlink:href="#ArialMT-102"/>
      <use x="644.726562" xlink:href="#ArialMT-111"/>
      <use x="700.341797" xlink:href="#ArialMT-114"/>
      <use x="733.642578" xlink:href="#ArialMT-101"/>
      <use x="789.257812" xlink:href="#ArialMT-99"/>
      <use x="839.257812" xlink:href="#ArialMT-97"/>
      <use x="894.873047" xlink:href="#ArialMT-115"/>
      <use x="944.873047" xlink:href="#ArialMT-116"/>
      <use x="972.65625" xlink:href="#ArialMT-115"/>
     </g>
    </g>
   </g>
  </g>
 </g>
 <defs>
  <clipPath id="p0ff63c89bf">
   <rect height="271.8" width="446.4" x="28.1" y="21.789375"/>
  </clipPath>
 </defs>
</svg>
