<?xml version="1.0" encoding="utf-8" standalone="no"?>
<!DOCTYPE svg PUBLIC "-//W3C//DTD SVG 1.1//EN"
  "http://www.w3.org/Graphics/SVG/1.1/DTD/svg11.dtd">
<!-- Created with matplotlib (https://matplotlib.org/) -->
<svg height="260.580003pt" version="1.1" viewBox="0 0 372.099887 260.580003" width="372.099887pt" xmlns="http://www.w3.org/2000/svg" xmlns:xlink="http://www.w3.org/1999/xlink">
 <defs>
  <style type="text/css">
*{stroke-linecap:butt;stroke-linejoin:round;}
  </style>
 </defs>
 <g id="figure_1">
  <g id="patch_1">
   <path d="M 0 260.580003 
L 372.099887 260.580003 
L 372.099887 0 
L 0 0 
z
" style="fill:none;"/>
  </g>
  <g id="axes_1">
   <g id="patch_2">
    <path d="M 30.099888 224.64 
L 364.899888 224.64 
L 364.899888 7.2 
L 30.099888 7.2 
z
" style="fill:#ffffff;"/>
   </g>
   <g id="matplotlib.axis_1">
    <g id="xtick_1">
     <g id="line2d_1">
      <path clip-path="url(#p8e6a7e5fd0)" d="M 58.603612 224.64 
L 58.603612 7.2 
" style="fill:none;stroke:#dedede;stroke-linecap:square;stroke-width:0.8;"/>
     </g>
     <g id="text_1">
      <!-- 1769 -->
      <defs>
       <path d="M 12.40625 8.296875 
L 28.515625 8.296875 
L 28.515625 63.921875 
L 10.984375 60.40625 
L 10.984375 69.390625 
L 28.421875 72.90625 
L 38.28125 72.90625 
L 38.28125 8.296875 
L 54.390625 8.296875 
L 54.390625 0 
L 12.40625 0 
z
" id="DejaVuSans-49"/>
       <path d="M 8.203125 72.90625 
L 55.078125 72.90625 
L 55.078125 68.703125 
L 28.609375 0 
L 18.3125 0 
L 43.21875 64.59375 
L 8.203125 64.59375 
z
" id="DejaVuSans-55"/>
       <path d="M 33.015625 40.375 
Q 26.375 40.375 22.484375 35.828125 
Q 18.609375 31.296875 18.609375 23.390625 
Q 18.609375 15.53125 22.484375 10.953125 
Q 26.375 6.390625 33.015625 6.390625 
Q 39.65625 6.390625 43.53125 10.953125 
Q 47.40625 15.53125 47.40625 23.390625 
Q 47.40625 31.296875 43.53125 35.828125 
Q 39.65625 40.375 33.015625 40.375 
z
M 52.59375 71.296875 
L 52.59375 62.3125 
Q 48.875 64.0625 45.09375 64.984375 
Q 41.3125 65.921875 37.59375 65.921875 
Q 27.828125 65.921875 22.671875 59.328125 
Q 17.53125 52.734375 16.796875 39.40625 
Q 19.671875 43.65625 24.015625 45.921875 
Q 28.375 48.1875 33.59375 48.1875 
Q 44.578125 48.1875 50.953125 41.515625 
Q 57.328125 34.859375 57.328125 23.390625 
Q 57.328125 12.15625 50.6875 5.359375 
Q 44.046875 -1.421875 33.015625 -1.421875 
Q 20.359375 -1.421875 13.671875 8.265625 
Q 6.984375 17.96875 6.984375 36.375 
Q 6.984375 53.65625 15.1875 63.9375 
Q 23.390625 74.21875 37.203125 74.21875 
Q 40.921875 74.21875 44.703125 73.484375 
Q 48.484375 72.75 52.59375 71.296875 
z
" id="DejaVuSans-54"/>
       <path d="M 10.984375 1.515625 
L 10.984375 10.5 
Q 14.703125 8.734375 18.5 7.8125 
Q 22.3125 6.890625 25.984375 6.890625 
Q 35.75 6.890625 40.890625 13.453125 
Q 46.046875 20.015625 46.78125 33.40625 
Q 43.953125 29.203125 39.59375 26.953125 
Q 35.25 24.703125 29.984375 24.703125 
Q 19.046875 24.703125 12.671875 31.3125 
Q 6.296875 37.9375 6.296875 49.421875 
Q 6.296875 60.640625 12.9375 67.421875 
Q 19.578125 74.21875 30.609375 74.21875 
Q 43.265625 74.21875 49.921875 64.515625 
Q 56.59375 54.828125 56.59375 36.375 
Q 56.59375 19.140625 48.40625 8.859375 
Q 40.234375 -1.421875 26.421875 -1.421875 
Q 22.703125 -1.421875 18.890625 -0.6875 
Q 15.09375 0.046875 10.984375 1.515625 
z
M 30.609375 32.421875 
Q 37.25 32.421875 41.125 36.953125 
Q 45.015625 41.5 45.015625 49.421875 
Q 45.015625 57.28125 41.125 61.84375 
Q 37.25 66.40625 30.609375 66.40625 
Q 23.96875 66.40625 20.09375 61.84375 
Q 16.21875 57.28125 16.21875 49.421875 
Q 16.21875 41.5 20.09375 36.953125 
Q 23.96875 32.421875 30.609375 32.421875 
z
" id="DejaVuSans-57"/>
      </defs>
      <g style="fill:#333333;" transform="translate(48.003687 237.969498)scale(0.0833 -0.0833)">
       <use xlink:href="#DejaVuSans-49"/>
       <use x="63.623047" xlink:href="#DejaVuSans-55"/>
       <use x="127.246094" xlink:href="#DejaVuSans-54"/>
       <use x="190.869141" xlink:href="#DejaVuSans-57"/>
      </g>
     </g>
    </g>
    <g id="xtick_2">
     <g id="line2d_2">
      <path clip-path="url(#p8e6a7e5fd0)" d="M 129.862924 224.64 
L 129.862924 7.2 
" style="fill:none;stroke:#dedede;stroke-linecap:square;stroke-width:0.8;"/>
     </g>
     <g id="text_2">
      <!-- 1819 -->
      <defs>
       <path d="M 31.78125 34.625 
Q 24.75 34.625 20.71875 30.859375 
Q 16.703125 27.09375 16.703125 20.515625 
Q 16.703125 13.921875 20.71875 10.15625 
Q 24.75 6.390625 31.78125 6.390625 
Q 38.8125 6.390625 42.859375 10.171875 
Q 46.921875 13.96875 46.921875 20.515625 
Q 46.921875 27.09375 42.890625 30.859375 
Q 38.875 34.625 31.78125 34.625 
z
M 21.921875 38.8125 
Q 15.578125 40.375 12.03125 44.71875 
Q 8.5 49.078125 8.5 55.328125 
Q 8.5 64.0625 14.71875 69.140625 
Q 20.953125 74.21875 31.78125 74.21875 
Q 42.671875 74.21875 48.875 69.140625 
Q 55.078125 64.0625 55.078125 55.328125 
Q 55.078125 49.078125 51.53125 44.71875 
Q 48 40.375 41.703125 38.8125 
Q 48.828125 37.15625 52.796875 32.3125 
Q 56.78125 27.484375 56.78125 20.515625 
Q 56.78125 9.90625 50.3125 4.234375 
Q 43.84375 -1.421875 31.78125 -1.421875 
Q 19.734375 -1.421875 13.25 4.234375 
Q 6.78125 9.90625 6.78125 20.515625 
Q 6.78125 27.484375 10.78125 32.3125 
Q 14.796875 37.15625 21.921875 38.8125 
z
M 18.3125 54.390625 
Q 18.3125 48.734375 21.84375 45.5625 
Q 25.390625 42.390625 31.78125 42.390625 
Q 38.140625 42.390625 41.71875 45.5625 
Q 45.3125 48.734375 45.3125 54.390625 
Q 45.3125 60.0625 41.71875 63.234375 
Q 38.140625 66.40625 31.78125 66.40625 
Q 25.390625 66.40625 21.84375 63.234375 
Q 18.3125 60.0625 18.3125 54.390625 
z
" id="DejaVuSans-56"/>
      </defs>
      <g style="fill:#333333;" transform="translate(119.262999 237.969498)scale(0.0833 -0.0833)">
       <use xlink:href="#DejaVuSans-49"/>
       <use x="63.623047" xlink:href="#DejaVuSans-56"/>
       <use x="127.246094" xlink:href="#DejaVuSans-49"/>
       <use x="190.869141" xlink:href="#DejaVuSans-57"/>
      </g>
     </g>
    </g>
    <g id="xtick_3">
     <g id="line2d_3">
      <path clip-path="url(#p8e6a7e5fd0)" d="M 201.122236 224.64 
L 201.122236 7.2 
" style="fill:none;stroke:#dedede;stroke-linecap:square;stroke-width:0.8;"/>
     </g>
     <g id="text_3">
      <!-- 1869 -->
      <g style="fill:#333333;" transform="translate(190.522311 237.969498)scale(0.0833 -0.0833)">
       <use xlink:href="#DejaVuSans-49"/>
       <use x="63.623047" xlink:href="#DejaVuSans-56"/>
       <use x="127.246094" xlink:href="#DejaVuSans-54"/>
       <use x="190.869141" xlink:href="#DejaVuSans-57"/>
      </g>
     </g>
    </g>
    <g id="xtick_4">
     <g id="line2d_4">
      <path clip-path="url(#p8e6a7e5fd0)" d="M 272.381548 224.64 
L 272.381548 7.2 
" style="fill:none;stroke:#dedede;stroke-linecap:square;stroke-width:0.8;"/>
     </g>
     <g id="text_4">
      <!-- 1919 -->
      <g style="fill:#333333;" transform="translate(261.781623 237.969498)scale(0.0833 -0.0833)">
       <use xlink:href="#DejaVuSans-49"/>
       <use x="63.623047" xlink:href="#DejaVuSans-57"/>
       <use x="127.246094" xlink:href="#DejaVuSans-49"/>
       <use x="190.869141" xlink:href="#DejaVuSans-57"/>
      </g>
     </g>
    </g>
    <g id="xtick_5">
     <g id="line2d_5">
      <path clip-path="url(#p8e6a7e5fd0)" d="M 343.640859 224.64 
L 343.640859 7.2 
" style="fill:none;stroke:#dedede;stroke-linecap:square;stroke-width:0.8;"/>
     </g>
     <g id="text_5">
      <!-- 1969 -->
      <g style="fill:#333333;" transform="translate(333.040934 237.969498)scale(0.0833 -0.0833)">
       <use xlink:href="#DejaVuSans-49"/>
       <use x="63.623047" xlink:href="#DejaVuSans-57"/>
       <use x="127.246094" xlink:href="#DejaVuSans-54"/>
       <use x="190.869141" xlink:href="#DejaVuSans-57"/>
      </g>
     </g>
    </g>
    <g id="xtick_6"/>
    <g id="xtick_7"/>
    <g id="xtick_8"/>
    <g id="xtick_9"/>
    <g id="xtick_10"/>
    <g id="xtick_11"/>
    <g id="xtick_12"/>
    <g id="xtick_13"/>
    <g id="xtick_14"/>
    <g id="xtick_15"/>
    <g id="xtick_16"/>
    <g id="xtick_17"/>
    <g id="xtick_18"/>
    <g id="xtick_19"/>
    <g id="xtick_20"/>
    <g id="xtick_21"/>
    <g id="xtick_22"/>
    <g id="xtick_23"/>
    <g id="xtick_24"/>
    <g id="text_6">
     <!-- Month -->
     <defs>
      <path d="M 9.1875 72.90625 
L 33.109375 72.90625 
L 49.703125 33.890625 
L 66.40625 72.90625 
L 90.28125 72.90625 
L 90.28125 0 
L 72.515625 0 
L 72.515625 53.328125 
L 55.71875 14.015625 
L 43.796875 14.015625 
L 27 53.328125 
L 27 0 
L 9.1875 0 
z
" id="DejaVuSans-Bold-77"/>
      <path d="M 34.421875 43.5 
Q 28.609375 43.5 25.5625 39.328125 
Q 22.515625 35.15625 22.515625 27.296875 
Q 22.515625 19.4375 25.5625 15.25 
Q 28.609375 11.078125 34.421875 11.078125 
Q 40.140625 11.078125 43.15625 15.25 
Q 46.1875 19.4375 46.1875 27.296875 
Q 46.1875 35.15625 43.15625 39.328125 
Q 40.140625 43.5 34.421875 43.5 
z
M 34.421875 56 
Q 48.53125 56 56.46875 48.375 
Q 64.40625 40.765625 64.40625 27.296875 
Q 64.40625 13.8125 56.46875 6.1875 
Q 48.53125 -1.421875 34.421875 -1.421875 
Q 20.265625 -1.421875 12.28125 6.1875 
Q 4.296875 13.8125 4.296875 27.296875 
Q 4.296875 40.765625 12.28125 48.375 
Q 20.265625 56 34.421875 56 
z
" id="DejaVuSans-Bold-111"/>
      <path d="M 63.375 33.296875 
L 63.375 0 
L 45.796875 0 
L 45.796875 5.421875 
L 45.796875 25.484375 
Q 45.796875 32.5625 45.484375 35.25 
Q 45.171875 37.9375 44.390625 39.203125 
Q 43.359375 40.921875 41.59375 41.875 
Q 39.84375 42.828125 37.59375 42.828125 
Q 32.125 42.828125 29 38.59375 
Q 25.875 34.375 25.875 26.90625 
L 25.875 0 
L 8.40625 0 
L 8.40625 54.6875 
L 25.875 54.6875 
L 25.875 46.6875 
Q 29.828125 51.46875 34.265625 53.734375 
Q 38.71875 56 44.09375 56 
Q 53.5625 56 58.46875 50.1875 
Q 63.375 44.390625 63.375 33.296875 
z
" id="DejaVuSans-Bold-110"/>
      <path d="M 27.484375 70.21875 
L 27.484375 54.6875 
L 45.515625 54.6875 
L 45.515625 42.1875 
L 27.484375 42.1875 
L 27.484375 19 
Q 27.484375 15.1875 29 13.84375 
Q 30.515625 12.5 35.015625 12.5 
L 44 12.5 
L 44 0 
L 29 0 
Q 18.65625 0 14.328125 4.3125 
Q 10.015625 8.640625 10.015625 19 
L 10.015625 42.1875 
L 1.3125 42.1875 
L 1.3125 54.6875 
L 10.015625 54.6875 
L 10.015625 70.21875 
z
" id="DejaVuSans-Bold-116"/>
      <path d="M 63.375 33.296875 
L 63.375 0 
L 45.796875 0 
L 45.796875 5.421875 
L 45.796875 25.390625 
Q 45.796875 32.5625 45.484375 35.25 
Q 45.171875 37.9375 44.390625 39.203125 
Q 43.359375 40.921875 41.59375 41.875 
Q 39.84375 42.828125 37.59375 42.828125 
Q 32.125 42.828125 29 38.59375 
Q 25.875 34.375 25.875 26.90625 
L 25.875 0 
L 8.40625 0 
L 8.40625 75.984375 
L 25.875 75.984375 
L 25.875 46.6875 
Q 29.828125 51.46875 34.265625 53.734375 
Q 38.71875 56 44.09375 56 
Q 53.5625 56 58.46875 50.1875 
Q 63.375 44.390625 63.375 33.296875 
z
" id="DejaVuSans-Bold-104"/>
     </defs>
     <g style="fill:#333333;" transform="translate(179.580356 251.300316)scale(0.1 -0.1)">
      <use xlink:href="#DejaVuSans-Bold-77"/>
      <use x="99.511719" xlink:href="#DejaVuSans-Bold-111"/>
      <use x="168.212891" xlink:href="#DejaVuSans-Bold-110"/>
      <use x="239.404297" xlink:href="#DejaVuSans-Bold-116"/>
      <use x="287.207031" xlink:href="#DejaVuSans-Bold-104"/>
     </g>
    </g>
   </g>
   <g id="matplotlib.axis_2">
    <g id="ytick_1">
     <g id="line2d_6">
      <path clip-path="url(#p8e6a7e5fd0)" d="M 30.099888 214.756364 
L 364.899888 214.756364 
" style="fill:none;stroke:#dedede;stroke-linecap:square;stroke-width:0.8;"/>
     </g>
     <g id="line2d_7">
      <defs>
       <path d="M 0 0 
L -3.5 0 
" id="m93a5df648a" style="stroke:#333333;stroke-width:0.8;"/>
      </defs>
      <g>
       <use style="fill:#333333;stroke:#333333;stroke-width:0.8;" x="30.099888" xlink:href="#m93a5df648a" y="214.756364"/>
      </g>
     </g>
     <g id="text_7">
      <!-- 0 -->
      <defs>
       <path d="M 31.78125 66.40625 
Q 24.171875 66.40625 20.328125 58.90625 
Q 16.5 51.421875 16.5 36.375 
Q 16.5 21.390625 20.328125 13.890625 
Q 24.171875 6.390625 31.78125 6.390625 
Q 39.453125 6.390625 43.28125 13.890625 
Q 47.125 21.390625 47.125 36.375 
Q 47.125 51.421875 43.28125 58.90625 
Q 39.453125 66.40625 31.78125 66.40625 
z
M 31.78125 74.21875 
Q 44.046875 74.21875 50.515625 64.515625 
Q 56.984375 54.828125 56.984375 36.375 
Q 56.984375 17.96875 50.515625 8.265625 
Q 44.046875 -1.421875 31.78125 -1.421875 
Q 19.53125 -1.421875 13.0625 8.265625 
Q 6.59375 17.96875 6.59375 36.375 
Q 6.59375 54.828125 13.0625 64.515625 
Q 19.53125 74.21875 31.78125 74.21875 
z
" id="DejaVuSans-48"/>
      </defs>
      <g style="fill:#333333;" transform="translate(17.799925 217.921113)scale(0.0833 -0.0833)">
       <use xlink:href="#DejaVuSans-48"/>
      </g>
     </g>
    </g>
    <g id="ytick_2">
     <g id="line2d_8">
      <path clip-path="url(#p8e6a7e5fd0)" d="M 30.099888 175.813746 
L 364.899888 175.813746 
" style="fill:none;stroke:#dedede;stroke-linecap:square;stroke-width:0.8;"/>
     </g>
     <g id="line2d_9">
      <g>
       <use style="fill:#333333;stroke:#333333;stroke-width:0.8;" x="30.099888" xlink:href="#m93a5df648a" y="175.813746"/>
      </g>
     </g>
     <g id="text_8">
      <!-- 50 -->
      <defs>
       <path d="M 10.796875 72.90625 
L 49.515625 72.90625 
L 49.515625 64.59375 
L 19.828125 64.59375 
L 19.828125 46.734375 
Q 21.96875 47.46875 24.109375 47.828125 
Q 26.265625 48.1875 28.421875 48.1875 
Q 40.625 48.1875 47.75 41.5 
Q 54.890625 34.8125 54.890625 23.390625 
Q 54.890625 11.625 47.5625 5.09375 
Q 40.234375 -1.421875 26.90625 -1.421875 
Q 22.3125 -1.421875 17.546875 -0.640625 
Q 12.796875 0.140625 7.71875 1.703125 
L 7.71875 11.625 
Q 12.109375 9.234375 16.796875 8.0625 
Q 21.484375 6.890625 26.703125 6.890625 
Q 35.15625 6.890625 40.078125 11.328125 
Q 45.015625 15.765625 45.015625 23.390625 
Q 45.015625 31 40.078125 35.4375 
Q 35.15625 39.890625 26.703125 39.890625 
Q 22.75 39.890625 18.8125 39.015625 
Q 14.890625 38.140625 10.796875 36.28125 
z
" id="DejaVuSans-53"/>
      </defs>
      <g style="fill:#333333;" transform="translate(12.499963 178.978495)scale(0.0833 -0.0833)">
       <use xlink:href="#DejaVuSans-53"/>
       <use x="63.623047" xlink:href="#DejaVuSans-48"/>
      </g>
     </g>
    </g>
    <g id="ytick_3">
     <g id="line2d_10">
      <path clip-path="url(#p8e6a7e5fd0)" d="M 30.099888 136.871128 
L 364.899888 136.871128 
" style="fill:none;stroke:#dedede;stroke-linecap:square;stroke-width:0.8;"/>
     </g>
     <g id="line2d_11">
      <g>
       <use style="fill:#333333;stroke:#333333;stroke-width:0.8;" x="30.099888" xlink:href="#m93a5df648a" y="136.871128"/>
      </g>
     </g>
     <g id="text_9">
      <!-- 100 -->
      <g style="fill:#333333;" transform="translate(7.2 140.035878)scale(0.0833 -0.0833)">
       <use xlink:href="#DejaVuSans-49"/>
       <use x="63.623047" xlink:href="#DejaVuSans-48"/>
       <use x="127.246094" xlink:href="#DejaVuSans-48"/>
      </g>
     </g>
    </g>
    <g id="ytick_4">
     <g id="line2d_12">
      <path clip-path="url(#p8e6a7e5fd0)" d="M 30.099888 97.928511 
L 364.899888 97.928511 
" style="fill:none;stroke:#dedede;stroke-linecap:square;stroke-width:0.8;"/>
     </g>
     <g id="line2d_13">
      <g>
       <use style="fill:#333333;stroke:#333333;stroke-width:0.8;" x="30.099888" xlink:href="#m93a5df648a" y="97.928511"/>
      </g>
     </g>
     <g id="text_10">
      <!-- 150 -->
      <g style="fill:#333333;" transform="translate(7.2 101.09326)scale(0.0833 -0.0833)">
       <use xlink:href="#DejaVuSans-49"/>
       <use x="63.623047" xlink:href="#DejaVuSans-53"/>
       <use x="127.246094" xlink:href="#DejaVuSans-48"/>
      </g>
     </g>
    </g>
    <g id="ytick_5">
     <g id="line2d_14">
      <path clip-path="url(#p8e6a7e5fd0)" d="M 30.099888 58.985893 
L 364.899888 58.985893 
" style="fill:none;stroke:#dedede;stroke-linecap:square;stroke-width:0.8;"/>
     </g>
     <g id="line2d_15">
      <g>
       <use style="fill:#333333;stroke:#333333;stroke-width:0.8;" x="30.099888" xlink:href="#m93a5df648a" y="58.985893"/>
      </g>
     </g>
     <g id="text_11">
      <!-- 200 -->
      <defs>
       <path d="M 19.1875 8.296875 
L 53.609375 8.296875 
L 53.609375 0 
L 7.328125 0 
L 7.328125 8.296875 
Q 12.9375 14.109375 22.625 23.890625 
Q 32.328125 33.6875 34.8125 36.53125 
Q 39.546875 41.84375 41.421875 45.53125 
Q 43.3125 49.21875 43.3125 52.78125 
Q 43.3125 58.59375 39.234375 62.25 
Q 35.15625 65.921875 28.609375 65.921875 
Q 23.96875 65.921875 18.8125 64.3125 
Q 13.671875 62.703125 7.8125 59.421875 
L 7.8125 69.390625 
Q 13.765625 71.78125 18.9375 73 
Q 24.125 74.21875 28.421875 74.21875 
Q 39.75 74.21875 46.484375 68.546875 
Q 53.21875 62.890625 53.21875 53.421875 
Q 53.21875 48.921875 51.53125 44.890625 
Q 49.859375 40.875 45.40625 35.40625 
Q 44.1875 33.984375 37.640625 27.21875 
Q 31.109375 20.453125 19.1875 8.296875 
z
" id="DejaVuSans-50"/>
      </defs>
      <g style="fill:#333333;" transform="translate(7.2 62.150642)scale(0.0833 -0.0833)">
       <use xlink:href="#DejaVuSans-50"/>
       <use x="63.623047" xlink:href="#DejaVuSans-48"/>
       <use x="127.246094" xlink:href="#DejaVuSans-48"/>
      </g>
     </g>
    </g>
    <g id="ytick_6">
     <g id="line2d_16">
      <path clip-path="url(#p8e6a7e5fd0)" d="M 30.099888 20.043275 
L 364.899888 20.043275 
" style="fill:none;stroke:#dedede;stroke-linecap:square;stroke-width:0.8;"/>
     </g>
     <g id="line2d_17">
      <g>
       <use style="fill:#333333;stroke:#333333;stroke-width:0.8;" x="30.099888" xlink:href="#m93a5df648a" y="20.043275"/>
      </g>
     </g>
     <g id="text_12">
      <!-- 250 -->
      <g style="fill:#333333;" transform="translate(7.2 23.208025)scale(0.0833 -0.0833)">
       <use xlink:href="#DejaVuSans-50"/>
       <use x="63.623047" xlink:href="#DejaVuSans-53"/>
       <use x="127.246094" xlink:href="#DejaVuSans-48"/>
      </g>
     </g>
    </g>
   </g>
   <g id="line2d_18">
    <path clip-path="url(#p8e6a7e5fd0)" d="M 30.099887 169.582927 
L 30.337419 160.236699 
L 30.456184 171.374288 
L 30.57495 148.553914 
L 30.693715 149.722192 
L 30.812481 140.921161 
L 30.931246 163.118453 
L 31.050012 155.64147 
L 31.168777 155.953011 
L 31.287543 91.23038 
L 31.525074 157.666486 
L 31.643839 155.64147 
L 31.762605 145.282734 
L 31.88137 145.983701 
L 32.000136 144.659652 
L 32.118901 136.871128 
L 32.237667 148.242373 
L 32.356432 134.534571 
L 32.475198 143.725029 
L 32.712729 165.45501 
L 32.831494 156.030896 
L 32.95026 160.236699 
L 33.069025 180.876286 
L 33.187791 179.474352 
L 33.425322 167.480026 
L 33.544088 175.268549 
L 33.662853 163.118453 
L 33.781619 168.180993 
L 33.900384 196.453333 
L 34.01915 196.686989 
L 34.137915 192.559072 
L 34.256681 180.48686 
L 34.375446 187.496531 
L 34.612977 159.457847 
L 34.731743 168.570419 
L 34.850508 168.258878 
L 34.969274 183.91381 
L 35.088039 153.694339 
L 35.206805 191.93599 
L 35.32557 193.649465 
L 35.444336 178.461844 
L 35.563101 185.471515 
L 35.800632 180.48686 
L 35.919398 189.833088 
L 36.038163 179.162811 
L 36.275695 186.717679 
L 36.39446 190.066744 
L 36.513226 197.465841 
L 36.631991 184.381122 
L 36.869522 195.285055 
L 36.988288 199.179317 
L 37.225819 214.756364 
L 37.344584 212.419807 
L 37.46335 213.432315 
L 37.819646 193.961006 
L 38.175943 208.369774 
L 38.294708 195.986022 
L 38.532239 211.485184 
L 38.76977 206.033217 
L 39.126067 214.756364 
L 39.244833 214.756364 
L 39.363598 208.058233 
L 39.482364 212.264036 
L 39.719895 196.297563 
L 39.83866 209.460168 
L 39.957426 199.179317 
L 40.194957 209.226512 
L 40.313722 210.550561 
L 40.551253 205.020709 
L 40.670019 204.709168 
L 40.788784 211.952495 
L 41.263846 201.515874 
L 41.382612 207.435152 
L 41.857674 191.390793 
L 41.976439 185.082089 
L 42.095205 204.787054 
L 42.213971 195.285055 
L 42.332736 174.801238 
L 42.570267 189.443662 
L 42.689033 164.364616 
L 42.807798 188.66481 
L 42.926564 185.471515 
L 43.045329 174.256041 
L 43.164095 176.592598 
L 43.28286 158.445338 
L 43.401626 178.617614 
L 43.639157 180.48686 
L 43.757922 184.614778 
L 43.876688 166.078092 
L 43.995453 185.39363 
L 44.114219 181.265712 
L 44.232984 181.265712 
L 44.35175 177.137795 
L 44.470515 180.48686 
L 44.708046 178.150303 
L 44.945577 175.813746 
L 45.064343 175.034894 
L 45.301874 154.628962 
L 45.539405 178.6955 
L 45.776936 162.3396 
L 45.895702 168.414649 
L 46.014467 156.576093 
L 46.133233 169.349271 
L 46.251998 158.678994 
L 46.370764 177.137795 
L 46.608295 155.875126 
L 46.845826 175.346435 
L 47.320888 143.880799 
L 47.558419 158.91265 
L 47.677184 131.263391 
L 47.914715 141.466357 
L 48.033481 143.802914 
L 48.152246 136.325932 
L 48.271012 145.67216 
L 48.389778 144.893308 
L 48.508543 178.929155 
L 48.627309 180.642631 
L 48.746074 158.055912 
L 48.86484 179.162811 
L 48.983605 167.869452 
L 49.102371 183.680155 
L 49.221136 154.706847 
L 49.339902 188.431154 
L 49.458667 162.028059 
L 49.696198 160.781896 
L 49.814964 154.161651 
L 49.933729 154.628962 
L 50.17126 189.910974 
L 50.290026 188.119613 
L 50.527557 189.287892 
L 50.646322 186.873449 
L 50.765088 172.542566 
L 50.883853 194.116776 
L 51.002619 161.716518 
L 51.121384 178.6955 
L 51.24015 167.324255 
L 51.358916 166.934829 
L 51.477681 168.258878 
L 51.596447 168.258878 
L 51.833978 187.963843 
L 51.952743 180.253204 
L 52.071509 191.390793 
L 52.30904 191.390793 
L 52.665336 194.506202 
L 52.784102 194.739858 
L 52.902867 196.063907 
L 53.021633 194.506202 
L 53.140398 195.285055 
L 53.377929 199.023546 
L 53.496695 199.179317 
L 53.734226 191.624449 
L 53.971757 203.852431 
L 54.090522 203.852431 
L 54.446819 206.188988 
L 54.565585 186.250368 
L 54.68435 210.08325 
L 54.803116 193.883121 
L 54.921881 212.419807 
L 55.040647 212.186151 
L 55.515709 210.316905 
L 55.75324 193.415809 
L 55.872005 191.390793 
L 55.990771 181.265712 
L 56.228302 191.546564 
L 56.347067 188.82058 
L 56.465833 197.699497 
L 56.703364 181.499368 
L 56.822129 180.408975 
L 56.940895 172.15314 
L 57.05966 173.243533 
L 57.178426 173.087763 
L 57.297192 163.274223 
L 57.534723 181.499368 
L 57.653488 154.239536 
L 57.772254 154.473191 
L 57.891019 173.78873 
L 58.12855 156.498208 
L 58.247316 154.161651 
L 58.484847 127.680671 
L 58.722378 164.754043 
L 58.841143 164.676157 
L 58.959909 139.441341 
L 59.078674 157.43283 
L 59.672502 91.541921 
L 59.791267 99.40833 
L 60.028798 133.755719 
L 60.147564 103.769903 
L 60.385095 175.034894 
L 60.860157 116.387311 
L 60.978923 133.444178 
L 61.097688 134.06726 
L 61.216454 111.792083 
L 61.335219 135.079768 
L 61.453985 186.717679 
L 61.57275 178.773385 
L 61.691516 178.383959 
L 61.810281 164.208846 
L 61.929047 95.825609 
L 62.285343 169.193501 
L 62.404109 135.780735 
L 62.522874 144.659652 
L 62.64164 137.104784 
L 62.760405 140.220193 
L 62.879171 136.170161 
L 62.997936 144.03657 
L 63.116702 190.534055 
L 63.235467 142.946177 
L 63.354233 185.159974 
L 63.591764 154.551077 
L 63.829295 175.42432 
L 63.948061 153.538569 
L 64.066826 167.012714 
L 64.185592 164.909813 
L 64.304357 172.231025 
L 64.423123 192.169645 
L 64.541888 174.879123 
L 64.660654 189.132121 
L 64.779419 182.745532 
L 64.898185 192.636957 
L 65.01695 193.182153 
L 65.135716 204.864939 
L 65.254481 191.93599 
L 65.373247 194.272547 
L 65.610778 181.109942 
L 65.729543 178.306074 
L 65.848309 163.81942 
L 66.08584 180.642631 
L 66.204605 174.801238 
L 66.442137 201.126447 
L 66.560902 209.615938 
L 66.679668 208.60343 
L 66.917199 200.970677 
L 67.273495 214.756364 
L 67.392261 205.721676 
L 67.511026 206.033217 
L 67.629792 211.718839 
L 67.748557 205.17648 
L 67.867323 213.977511 
L 67.986088 208.60343 
L 68.104854 212.264036 
L 68.223619 210.39479 
L 68.342385 202.995693 
L 68.46115 208.60343 
L 68.579916 197.855268 
L 68.817447 209.849594 
L 68.936212 197.777382 
L 69.054978 206.033217 
L 69.173743 199.958169 
L 69.292509 213.977511 
L 69.411275 195.908137 
L 69.53004 202.294726 
L 69.767571 187.496531 
L 70.005102 179.708008 
L 70.123868 186.328253 
L 70.242633 184.381122 
L 70.361399 140.375964 
L 70.480164 152.21452 
L 70.59893 151.902979 
L 70.955226 124.25372 
L 71.073992 131.808588 
L 71.311523 92.242888 
L 71.430288 76.665841 
L 71.549054 129.627801 
L 71.786585 101.822772 
L 71.90535 28.688536 
L 72.142881 95.591954 
L 72.261647 105.717034 
L 72.380413 81.027415 
L 72.617944 97.694855 
L 72.736709 132.976867 
L 72.855475 125.421999 
L 72.97424 85.700529 
L 73.093006 122.851786 
L 73.211771 101.822772 
L 73.330537 105.717034 
L 73.449302 126.200851 
L 73.568068 103.380477 
L 73.686833 127.5249 
L 73.805599 128.303752 
L 73.924364 118.178672 
L 74.161895 129.082605 
L 74.280661 160.236699 
L 74.399426 138.428833 
L 74.518192 138.428833 
L 74.636957 140.76539 
L 74.755723 131.263391 
L 74.993254 147.775061 
L 75.112019 147.775061 
L 75.230785 141.777898 
L 75.587082 169.03773 
L 75.705847 137.883636 
L 75.943378 173.477189 
L 76.062144 161.560748 
L 76.180909 133.210522 
L 76.299675 138.662489 
L 76.537206 163.352108 
L 76.774737 193.493694 
L 76.893502 162.573256 
L 77.012268 187.340761 
L 77.131033 172.698337 
L 77.249799 185.5494 
L 77.368564 185.938827 
L 77.48733 182.823417 
L 77.606095 172.464681 
L 77.724861 185.159974 
L 77.843626 185.938827 
L 77.962392 180.48686 
L 78.199923 196.686989 
L 78.318688 190.222515 
L 78.55622 192.948498 
L 78.674985 184.614778 
L 78.793751 193.961006 
L 78.912516 192.714842 
L 79.031282 196.84276 
L 79.150047 195.129284 
L 79.268813 189.677318 
L 79.506344 200.737021 
L 79.625109 208.525545 
L 79.743875 203.073578 
L 79.86264 206.578414 
L 79.981406 204.631283 
L 80.100171 208.525545 
L 80.218937 206.188988 
L 80.337702 206.96784 
L 80.456468 210.08325 
L 80.575233 207.746692 
L 80.693999 210.08325 
L 80.812764 206.96784 
L 80.93153 206.96784 
L 81.050295 208.525545 
L 81.169061 201.515874 
L 81.287826 203.852431 
L 81.406592 209.693823 
L 81.644123 207.746692 
L 82.119185 186.484023 
L 82.237951 199.179317 
L 82.475482 177.994533 
L 82.713013 193.493694 
L 82.950544 177.682992 
L 83.069309 177.605106 
L 83.30684 142.868291 
L 83.425606 168.804075 
L 83.781902 127.914326 
L 83.900668 127.291244 
L 84.019433 124.409491 
L 84.138199 126.979703 
L 84.256964 109.844952 
L 84.494496 146.684668 
L 84.732027 109.767066 
L 84.850792 137.49421 
L 85.088323 107.897821 
L 85.207089 92.242888 
L 85.325854 92.476544 
L 85.44462 104.548756 
L 85.563385 79.236054 
L 85.800916 114.12864 
L 85.919682 103.146821 
L 86.038447 130.250883 
L 86.157213 126.746048 
L 86.275978 94.657331 
L 86.513509 108.832444 
L 86.75104 104.159329 
L 86.869806 140.999046 
L 86.988571 113.894984 
L 87.107337 125.967195 
L 87.226102 117.166164 
L 87.344868 121.294081 
L 87.463634 118.723868 
L 87.582399 118.568098 
L 87.81993 123.630638 
L 87.938696 134.534571 
L 88.057461 127.5249 
L 88.176227 144.893308 
L 88.294992 110.390148 
L 88.413758 109.22187 
L 88.532523 134.534571 
L 88.651289 115.452689 
L 88.88882 141.544242 
L 89.007585 142.323095 
L 89.126351 143.880799 
L 89.245116 160.781896 
L 89.363882 146.996209 
L 89.482647 154.551077 
L 89.601413 149.09911 
L 89.720178 150.890471 
L 90.076475 166.467518 
L 90.314006 154.628962 
L 90.432772 157.354945 
L 90.551537 164.754043 
L 90.670303 159.457847 
L 90.789068 181.265712 
L 90.907834 162.962682 
L 91.026599 166.701173 
L 91.145365 162.573256 
L 91.26413 163.352108 
L 91.382896 169.582927 
L 91.501661 164.909813 
L 91.620427 165.688665 
L 91.739192 155.79724 
L 92.095489 179.084926 
L 92.214254 168.025222 
L 92.33302 168.804075 
L 92.451785 168.804075 
L 92.689316 171.140632 
L 92.808082 171.140632 
L 92.926847 171.919484 
L 93.045613 171.530058 
L 93.283144 174.022386 
L 93.520675 175.813746 
L 93.758206 196.063907 
L 93.876972 178.150303 
L 93.995737 180.48686 
L 94.114503 179.162811 
L 94.352034 180.48686 
L 94.589565 192.636957 
L 94.70833 171.374288 
L 94.827096 182.433991 
L 94.945861 182.823417 
L 95.064627 183.60227 
L 95.183392 206.111103 
L 95.302158 192.559072 
L 95.420923 162.261715 
L 95.658454 198.088923 
L 95.77722 183.680155 
L 95.895985 204.942824 
L 96.014751 200.26971 
L 96.133516 190.611941 
L 96.371047 204.709168 
L 96.489813 194.739858 
L 96.608579 204.241857 
L 96.84611 195.285055 
L 96.964875 200.737021 
L 97.202406 196.219678 
L 97.321172 202.528382 
L 97.439937 190.066744 
L 97.677468 209.538053 
L 97.796234 193.805235 
L 97.914999 213.588085 
L 98.033765 200.42548 
L 98.271296 208.214004 
L 98.390061 210.784217 
L 98.508827 203.54089 
L 98.627592 211.485184 
L 98.865123 211.640954 
L 99.102654 206.111103 
L 99.22142 211.407299 
L 99.340185 210.08325 
L 99.458951 210.316905 
L 99.577717 209.382282 
L 99.696482 210.23902 
L 99.934013 213.198659 
L 100.052779 211.640954 
L 100.171544 205.098594 
L 100.409075 214.756364 
L 100.646606 214.756364 
L 100.765372 212.419807 
L 101.002903 213.588085 
L 101.121668 205.020709 
L 101.240434 207.045725 
L 101.359199 213.5102 
L 101.59673 197.855268 
L 101.715496 208.214004 
L 101.834261 208.369774 
L 101.953027 206.500529 
L 102.190558 214.756364 
L 102.309323 214.756364 
L 102.428089 211.173643 
L 102.546855 212.653462 
L 102.66562 208.058233 
L 102.784386 209.382282 
L 103.021917 203.930316 
L 103.140682 214.756364 
L 103.259448 210.862102 
L 103.378213 196.297563 
L 103.615744 199.568743 
L 103.73451 205.799562 
L 103.853275 205.17648 
L 103.972041 206.578414 
L 104.090806 183.524384 
L 104.209572 193.72735 
L 104.447103 191.390793 
L 104.684634 189.833088 
L 104.803399 190.45617 
L 105.04093 184.614778 
L 105.278461 189.365777 
L 105.515993 177.21568 
L 105.634758 177.527221 
L 105.753524 178.150303 
L 105.872289 182.979188 
L 106.10982 180.48686 
L 106.584882 174.411812 
L 106.822413 187.885957 
L 106.941179 175.813746 
L 107.059944 175.813746 
L 107.17871 175.190664 
L 107.416241 195.285055 
L 107.535006 180.253204 
L 107.653772 186.717679 
L 107.772537 177.137795 
L 107.891303 188.197498 
L 108.128834 172.464681 
L 108.48513 179.474352 
L 108.603896 177.137795 
L 108.722662 177.371451 
L 108.841427 175.346435 
L 108.960193 188.742695 
L 109.078958 187.652302 
L 109.197724 191.546564 
L 109.55402 166.233862 
L 109.791551 168.025222 
L 109.910317 167.24637 
L 110.029082 180.408975 
L 110.147848 174.723353 
L 110.266613 185.5494 
L 110.504144 183.212843 
L 110.62291 185.471515 
L 110.860441 180.175319 
L 110.979206 191.858104 
L 111.097972 182.823417 
L 111.216737 184.926319 
L 111.335503 184.381122 
L 111.454268 191.702334 
L 111.573034 189.287892 
L 111.810565 194.194662 
L 111.929331 194.817743 
L 112.048096 191.390793 
L 112.285627 196.063907 
L 112.404393 193.72735 
L 112.641924 196.063907 
L 112.760689 205.410135 
L 112.879455 205.254365 
L 112.99822 207.279381 
L 113.116986 196.219678 
L 113.235751 206.96784 
L 113.473282 204.864939 
L 113.592048 205.410135 
L 113.710813 210.316905 
L 113.829579 208.525545 
L 114.06711 214.756364 
L 114.185875 214.756364 
L 114.304641 211.251528 
L 114.423406 214.756364 
L 114.660938 204.241857 
L 114.779703 204.241857 
L 114.898469 209.538053 
L 115.017234 208.525545 
L 115.136 205.643791 
L 115.254765 211.095758 
L 115.492296 205.17648 
L 115.611062 209.148627 
L 115.729827 207.590922 
L 115.848593 214.055397 
L 115.967358 212.809233 
L 116.086124 213.198659 
L 116.204889 208.759201 
L 116.323655 214.522708 
L 116.44242 214.600593 
L 116.561186 214.444823 
L 116.798717 214.756364 
L 119.055262 214.756364 
L 119.174027 209.615938 
L 119.292793 214.756364 
L 119.530324 210.005364 
L 119.649089 214.133282 
L 119.767855 213.899626 
L 119.88662 205.955332 
L 120.124151 214.211167 
L 120.242917 214.756364 
L 120.480448 213.743856 
L 120.599214 214.366937 
L 120.717979 202.606267 
L 120.95551 211.718839 
L 121.193041 206.889955 
L 121.311807 214.756364 
L 121.430572 206.734184 
L 121.549338 213.276544 
L 121.668103 201.827415 
L 121.786869 210.472676 
L 122.0244 200.503366 
L 122.143165 208.214004 
L 122.380696 193.104268 
L 122.618227 203.618775 
L 122.736993 197.465841 
L 122.974524 210.316905 
L 123.093289 196.219678 
L 123.212055 210.23902 
L 123.449586 200.347595 
L 123.568351 212.965003 
L 124.043414 199.101431 
L 124.162179 199.802398 
L 124.280945 189.677318 
L 124.39971 194.350432 
L 124.518476 190.144629 
L 124.637241 207.123611 
L 124.756007 171.218517 
L 124.874772 187.107105 
L 124.993538 177.994533 
L 125.112303 190.222515 
L 125.349834 185.783056 
L 125.4686 164.130961 
L 125.587365 194.272547 
L 125.824896 157.354945 
L 126.062427 180.253204 
L 126.181193 180.798401 
L 126.299958 184.536892 
L 126.418724 196.686989 
L 126.656255 170.829091 
L 126.893786 191.468678 
L 127.012552 186.406138 
L 127.250083 139.830767 
L 127.487614 198.244694 
L 127.725145 175.813746 
L 127.962676 186.172482 
L 128.081441 194.817743 
L 128.200207 192.247531 
L 128.318972 192.636957 
L 128.437738 187.574417 
L 128.556503 197.310071 
L 128.675269 194.973514 
L 128.794034 187.885957 
L 128.9128 173.399304 
L 129.150331 192.948498 
L 129.269096 190.222515 
L 129.387862 194.428317 
L 129.506627 190.066744 
L 129.625393 206.266873 
L 129.862924 189.443662 
L 130.100455 211.87461 
L 130.219221 199.023546 
L 130.337986 199.490858 
L 130.456752 187.496531 
L 130.694283 194.428317 
L 130.813048 203.151464 
L 130.931814 193.337924 
L 131.050579 195.20717 
L 131.169345 190.923482 
L 131.28811 199.802398 
L 131.406876 194.038891 
L 131.525641 211.251528 
L 131.763172 191.93599 
L 131.881938 206.344758 
L 132.119469 194.584088 
L 132.238234 210.706331 
L 132.357 207.746692 
L 132.475765 208.60343 
L 132.594531 207.201496 
L 132.713297 198.011038 
L 132.832062 211.407299 
L 132.950828 210.316905 
L 133.069593 207.590922 
L 133.188359 213.432315 
L 133.307124 213.354429 
L 133.42589 212.809233 
L 133.544655 211.017872 
L 133.663421 211.329413 
L 133.782186 200.113939 
L 134.019717 214.756364 
L 134.138483 214.756364 
L 134.257248 214.055397 
L 134.376014 202.216841 
L 134.494779 204.241857 
L 134.613545 213.588085 
L 134.851076 208.60343 
L 135.088607 214.756364 
L 135.207372 214.444823 
L 135.444903 214.756364 
L 135.682435 214.756364 
L 135.8012 214.289052 
L 135.919966 214.756364 
L 136.157497 214.756364 
L 136.276262 214.366937 
L 136.395028 214.756364 
L 136.751324 214.756364 
L 136.87009 198.867776 
L 136.988855 197.933153 
L 137.226386 214.756364 
L 137.345152 199.646628 
L 137.582683 214.756364 
L 137.701448 214.756364 
L 137.820214 213.66597 
L 138.057745 195.129284 
L 138.17651 214.756364 
L 138.295276 214.133282 
L 138.414041 210.862102 
L 138.651572 197.310071 
L 138.770338 211.796725 
L 138.889104 202.762037 
L 139.007869 202.762037 
L 139.126635 190.689826 
L 139.601697 205.643791 
L 139.720462 197.621612 
L 139.839228 200.970677 
L 139.957993 200.581251 
L 140.076759 186.172482 
L 140.195524 196.063907 
L 140.551821 173.866615 
L 140.789352 200.036054 
L 140.908117 175.346435 
L 141.026883 183.991696 
L 141.145648 161.716518 
L 141.264414 187.808072 
L 141.501945 169.738698 
L 141.62071 178.929155 
L 141.739476 170.906976 
L 141.858242 170.595435 
L 141.977007 181.343598 
L 142.095773 172.931992 
L 142.214538 176.125287 
L 142.333304 170.206009 
L 142.570835 178.85127 
L 142.927131 164.130961 
L 143.045897 167.168485 
L 143.283428 138.428833 
L 143.402193 172.464681 
L 143.520959 155.252044 
L 143.639724 175.502205 
L 143.877255 170.361779 
L 144.114786 181.265712 
L 144.233552 176.281057 
L 144.471083 140.76539 
L 144.589848 162.18383 
L 144.708614 157.199175 
L 144.82738 144.03657 
L 144.946145 153.772224 
L 145.064911 173.632959 
L 145.183676 170.206009 
L 145.302442 162.105945 
L 145.539973 174.100271 
L 145.896269 131.341277 
L 146.015035 163.118453 
L 146.1338 164.053075 
L 146.252566 180.564745 
L 146.490097 166.389632 
L 146.608862 149.021225 
L 146.727628 151.513553 
L 146.846393 150.812585 
L 146.965159 177.760877 
L 147.083924 175.735861 
L 147.20269 142.011554 
L 147.440221 185.082089 
L 147.558986 188.742695 
L 147.796518 171.997369 
L 147.915283 185.237859 
L 148.034049 178.773385 
L 148.152814 180.876286 
L 148.27158 192.247531 
L 148.390345 190.689826 
L 148.509111 171.530058 
L 148.627876 171.841599 
L 148.746642 193.805235 
L 148.865407 182.589761 
L 149.221704 207.824578 
L 149.340469 208.369774 
L 149.459235 198.322579 
L 149.578 203.618775 
L 149.696766 193.337924 
L 149.815531 205.955332 
L 149.934297 203.151464 
L 150.053062 205.565906 
L 150.171828 212.575577 
L 150.290593 204.709168 
L 150.409359 213.977511 
L 150.528124 209.304397 
L 150.64689 210.316905 
L 150.765656 205.721676 
L 151.003187 210.161135 
L 151.121952 207.045725 
L 151.240718 210.939987 
L 151.359483 200.659136 
L 151.597014 213.66597 
L 151.71578 207.902463 
L 151.834545 208.681315 
L 151.953311 207.980348 
L 152.072076 211.640954 
L 152.547138 187.885957 
L 152.665904 208.914971 
L 152.784669 195.674481 
L 152.903435 199.412972 
L 153.0222 166.856944 
L 153.259731 188.898466 
L 153.378497 168.180993 
L 153.497262 168.804075 
L 153.616028 136.248046 
L 153.734793 140.60962 
L 153.853559 136.871128 
L 153.972325 154.395306 
L 154.209856 130.95185 
L 154.328621 138.350948 
L 154.447387 103.458362 
L 154.566152 127.992211 
L 154.684918 117.633475 
L 155.041214 140.687505 
L 155.15998 107.74205 
L 155.278745 120.593114 
L 155.397511 54.157008 
L 155.991338 128.070097 
L 156.228869 87.959201 
L 156.4664 139.752882 
L 156.585166 118.412328 
L 156.703931 131.419162 
L 156.941463 101.900658 
L 157.060228 148.709684 
L 157.178994 105.093952 
L 157.297759 116.153656 
L 157.416525 107.58628 
L 157.53529 141.154816 
L 157.654056 130.484539 
L 157.891587 157.43283 
L 158.010352 144.03657 
L 158.129118 154.473191 
L 158.247883 152.603946 
L 158.366649 130.95185 
L 158.485414 134.923997 
L 158.722945 166.623288 
L 158.841711 172.854107 
L 158.960476 172.231025 
L 159.316773 111.402656 
L 159.554304 161.171322 
L 159.673069 165.221354 
L 159.910601 146.451012 
L 160.029366 171.530058 
L 160.266897 160.859781 
L 160.385663 176.982025 
L 160.504428 167.480026 
L 160.623194 169.738698 
L 160.741959 157.121289 
L 160.860725 175.969516 
L 160.97949 172.464681 
L 161.098256 172.931992 
L 161.217021 196.063907 
L 161.335787 191.468678 
L 161.454552 191.624449 
L 161.692083 162.261715 
L 161.810849 171.374288 
L 161.929614 190.767711 
L 162.04838 184.147466 
L 162.285911 192.559072 
L 162.404676 199.335087 
L 162.523442 184.536892 
L 162.642207 198.867776 
L 162.760973 197.543727 
L 162.879739 197.855268 
L 162.998504 193.805235 
L 163.11727 195.36294 
L 163.354801 204.942824 
L 163.473566 194.116776 
L 163.592332 200.347595 
L 163.829863 183.212843 
L 164.067394 204.397627 
L 164.186159 212.03038 
L 164.542456 198.322579 
L 164.779987 207.357266 
L 164.898752 205.565906 
L 165.017518 211.485184 
L 165.136283 210.628446 
L 165.255049 199.880284 
L 165.49258 207.435152 
L 165.611345 203.307234 
L 165.730111 204.163972 
L 165.848877 198.556235 
L 166.086408 211.87461 
L 166.323939 196.141792 
L 166.442704 209.382282 
L 166.56147 198.011038 
L 166.680235 206.422643 
L 167.036532 180.798401 
L 167.155297 181.032057 
L 167.274063 170.439665 
L 167.630359 190.923482 
L 167.749125 189.599433 
L 167.86789 191.702334 
L 167.986656 183.057073 
L 168.105421 184.069581 
L 168.224187 168.258878 
L 168.342952 184.614778 
L 168.699249 160.859781 
L 168.818014 168.103108 
L 168.93678 164.053075 
L 169.055546 178.539729 
L 169.174311 172.075255 
L 169.293077 131.341277 
L 169.411842 171.218517 
L 169.649373 163.741534 
L 169.768139 166.000206 
L 169.886904 179.785893 
L 170.00567 148.008717 
L 170.124435 179.941663 
L 170.361966 148.320258 
L 170.480732 174.100271 
L 170.718263 89.205364 
L 170.837028 74.251399 
L 171.074559 129.394146 
L 171.193325 90.840954 
L 171.31209 127.680671 
L 171.668387 135.157653 
L 171.905918 106.340116 
L 172.024684 111.558427 
L 172.143449 136.637473 
L 172.262215 111.636312 
L 172.38098 125.499884 
L 172.499746 90.217872 
L 172.618511 92.7102 
L 172.856042 139.597112 
L 172.974808 134.923997 
L 173.093573 151.980864 
L 173.212339 151.513553 
L 173.331104 154.00588 
L 173.44987 167.012714 
L 173.568635 141.777898 
L 173.687401 159.06842 
L 173.806166 137.104784 
L 173.924932 139.207685 
L 174.043697 154.00588 
L 174.162463 145.126963 
L 174.281228 150.423159 
L 174.399994 180.408975 
L 174.637525 160.236699 
L 174.75629 184.303237 
L 174.993822 147.619291 
L 175.231353 172.075255 
L 175.350118 168.025222 
L 175.587649 132.665326 
L 175.82518 170.751206 
L 176.062711 165.532895 
L 176.181477 186.639794 
L 176.419008 161.872289 
L 176.537773 166.078092 
L 176.656539 175.112779 
L 176.775304 159.146306 
L 177.131601 167.0906 
L 177.250366 163.81942 
L 177.606663 182.044565 
L 177.844194 185.5494 
L 177.96296 162.3396 
L 178.200491 179.396467 
L 178.319256 182.745532 
L 178.438022 181.343598 
L 178.556787 185.39363 
L 178.675553 177.682992 
L 178.794318 187.730187 
L 179.150615 175.502205 
L 179.26938 188.66481 
L 179.388146 181.810909 
L 179.625677 196.531219 
L 179.744442 202.762037 
L 180.100739 194.194662 
L 180.575801 202.450496 
L 180.694566 197.310071 
L 180.813332 204.864939 
L 180.932098 192.792727 
L 181.288394 205.877447 
L 181.40716 201.204333 
L 181.525925 211.329413 
L 181.644691 207.668807 
L 181.882222 214.444823 
L 182.000987 212.341921 
L 182.119753 214.756364 
L 182.238518 207.201496 
L 182.476049 212.341921 
L 182.594815 214.366937 
L 182.71358 210.939987 
L 182.832346 214.444823 
L 182.951111 209.693823 
L 183.069877 214.756364 
L 183.188642 210.862102 
L 183.307408 211.173643 
L 183.426173 210.161135 
L 183.544939 211.329413 
L 183.663704 211.251528 
L 183.78247 208.759201 
L 183.901235 209.148627 
L 184.020001 204.086086 
L 184.257532 210.706331 
L 184.376298 206.111103 
L 184.495063 192.013875 
L 184.613829 202.294726 
L 184.732594 197.465841 
L 184.85136 201.593759 
L 184.970125 181.733024 
L 185.088891 183.134958 
L 185.207656 190.3004 
L 185.445187 184.381122 
L 185.563953 187.574417 
L 185.682718 169.972353 
L 185.801484 184.926319 
L 186.039015 180.097434 
L 186.15778 170.595435 
L 186.276546 171.685828 
L 186.514077 143.725029 
L 186.632842 174.333926 
L 186.989139 146.528897 
L 187.107905 144.425996 
L 187.22667 148.008717 
L 187.345436 143.880799 
L 187.464201 146.918324 
L 187.939263 125.499884 
L 188.176794 151.669323 
L 188.29556 151.279897 
L 188.533091 137.727866 
L 188.651856 159.146306 
L 188.770622 131.341277 
L 188.889387 130.172998 
L 189.008153 123.864294 
L 189.245684 142.946177 
L 189.364449 144.581767 
L 189.483215 138.506718 
L 189.60198 140.298079 
L 189.720746 166.233862 
L 189.958277 136.092276 
L 190.077043 138.039407 
L 190.195808 170.51755 
L 190.314574 146.373127 
L 190.433339 154.00588 
L 190.552105 150.501044 
L 190.67087 152.526061 
L 190.908401 172.931992 
L 191.027167 152.058749 
L 191.145932 165.61078 
L 191.264698 164.520387 
L 191.383463 180.798401 
L 191.620994 164.598272 
L 191.73976 149.332766 
L 191.977291 166.078092 
L 192.096056 162.884797 
L 192.214822 182.044565 
L 192.333587 175.346435 
L 192.452353 182.901302 
L 192.808649 163.040567 
L 192.927415 183.134958 
L 193.046181 172.854107 
L 193.283712 189.287892 
L 193.402477 177.293565 
L 193.521243 197.621612 
L 193.640008 183.680155 
L 193.758774 185.39363 
L 193.877539 182.667647 
L 193.996305 169.816583 
L 194.11507 178.072418 
L 194.233836 163.118453 
L 194.352601 186.873449 
L 194.471367 183.134958 
L 194.590132 169.738698 
L 194.708898 172.15314 
L 194.827663 172.075255 
L 194.946429 192.559072 
L 195.065194 188.353269 
L 195.18396 169.894468 
L 195.302725 192.481186 
L 195.421491 176.826254 
L 195.540256 184.147466 
L 195.659022 183.991696 
L 195.777787 191.858104 
L 195.896553 187.885957 
L 196.015319 188.586925 
L 196.134084 193.883121 
L 196.25285 185.315745 
L 196.490381 201.437988 
L 196.609146 195.596596 
L 196.727912 204.787054 
L 196.965443 184.848433 
L 197.202974 201.048562 
L 197.321739 204.709168 
L 197.440505 201.9053 
L 197.55927 207.513037 
L 197.678036 204.864939 
L 197.796801 209.070741 
L 197.915567 203.774545 
L 198.271863 214.756364 
L 198.390629 214.211167 
L 198.509394 207.590922 
L 198.746925 212.497692 
L 198.865691 213.588085 
L 198.984456 210.862102 
L 199.103222 210.939987 
L 199.340753 204.241857 
L 199.459519 207.513037 
L 199.578284 195.129284 
L 199.69705 202.606267 
L 199.815815 202.450496 
L 200.053346 186.250368 
L 200.172112 193.961006 
L 200.290877 190.534055 
L 200.409643 192.481186 
L 200.647174 180.642631 
L 200.765939 166.701173 
L 200.884705 168.72619 
L 201.00347 162.105945 
L 201.478532 182.823417 
L 201.716063 130.328769 
L 201.834829 168.648304 
L 201.953594 152.759716 
L 202.07236 151.980864 
L 202.191126 168.492534 
L 202.428657 133.522063 
L 202.547422 154.551077 
L 202.903719 90.139987 
L 203.022484 77.678349 
L 203.260015 111.636312 
L 203.378781 94.968872 
L 203.497546 108.832444 
L 203.735077 99.875642 
L 203.853843 113.505558 
L 203.972608 145.983701 
L 204.210139 103.224707 
L 204.328905 88.270741 
L 204.44767 101.433346 
L 204.566436 143.335603 
L 204.803967 129.082605 
L 204.922732 152.21452 
L 205.160264 132.665326 
L 205.397795 152.837602 
L 205.51656 121.216196 
L 205.635326 145.905816 
L 205.872857 130.95185 
L 205.991622 129.16049 
L 206.110388 132.58744 
L 206.229153 142.40098 
L 206.347919 125.499884 
L 206.466684 134.145145 
L 206.58545 127.5249 
L 206.704215 149.410651 
L 206.822981 147.229865 
L 206.941746 131.419162 
L 207.060512 138.195177 
L 207.416808 179.863778 
L 207.535574 162.651141 
L 207.654339 161.638633 
L 207.773105 177.760877 
L 207.89187 177.838762 
L 208.010636 171.607943 
L 208.129402 176.436828 
L 208.366933 164.754043 
L 208.604464 189.833088 
L 208.723229 180.019549 
L 208.841995 185.004204 
L 208.96076 161.950174 
L 209.079526 167.012714 
L 209.198291 192.948498 
L 209.317057 188.041728 
L 209.435822 192.247531 
L 209.554588 191.93599 
L 209.673353 203.385119 
L 209.910884 188.431154 
L 210.02965 192.09176 
L 210.148415 205.799562 
L 210.267181 196.141792 
L 210.385946 205.020709 
L 210.504712 203.385119 
L 210.623477 212.887118 
L 210.861008 200.970677 
L 210.979774 207.045725 
L 211.217305 203.073578 
L 211.336071 190.45617 
L 211.454836 212.965003 
L 211.573602 210.784217 
L 211.692367 213.5102 
L 211.811133 202.917808 
L 211.929898 207.902463 
L 212.048664 207.045725 
L 212.167429 203.618775 
L 212.40496 208.369774 
L 212.523726 195.752366 
L 212.642491 207.980348 
L 212.880022 202.450496 
L 212.998788 198.244694 
L 213.236319 210.161135 
L 213.355084 209.849594 
L 213.47385 201.983185 
L 213.592615 209.538053 
L 213.711381 203.463005 
L 213.830146 212.965003 
L 213.948912 212.186151 
L 214.186443 208.681315 
L 214.305209 214.678478 
L 214.54274 209.771709 
L 214.661505 214.678478 
L 214.780271 214.756364 
L 214.899036 210.628446 
L 215.017802 213.899626 
L 215.136567 211.563069 
L 215.255333 214.366937 
L 215.374098 214.133282 
L 215.492864 214.289052 
L 215.611629 214.756364 
L 215.730395 209.927479 
L 215.84916 212.887118 
L 216.205457 206.422643 
L 216.324222 210.005364 
L 216.561753 204.709168 
L 216.680519 209.148627 
L 216.91805 193.337924 
L 217.036815 199.568743 
L 217.155581 199.724513 
L 217.274347 196.453333 
L 217.393112 188.197498 
L 217.511878 197.699497 
L 217.749409 163.352108 
L 217.98694 190.845596 
L 218.105705 191.702334 
L 218.224471 186.406138 
L 218.343236 173.321418 
L 218.462002 174.645467 
L 218.580767 174.489697 
L 218.699533 180.876286 
L 218.937064 154.862618 
L 219.174595 173.321418 
L 219.29336 164.909813 
L 219.649657 179.708008 
L 219.768422 160.781896 
L 219.887188 162.18383 
L 220.005953 140.142308 
L 220.243485 179.552237 
L 220.36225 179.396467 
L 220.481016 183.290729 
L 220.837312 149.021225 
L 220.956078 182.200335 
L 221.074843 167.557911 
L 221.312374 181.421483 
L 221.43114 150.812585 
L 221.549905 189.755203 
L 221.787436 151.980864 
L 221.906202 178.929155 
L 222.024967 173.78873 
L 222.143733 149.488536 
L 222.262498 148.94334 
L 222.381264 155.64147 
L 222.500029 143.491373 
L 222.618795 147.074094 
L 222.73756 147.151979 
L 223.093857 174.879123 
L 223.212623 173.399304 
L 223.331388 171.296402 
L 223.450154 166.545403 
L 223.687685 186.250368 
L 223.80645 177.994533 
L 223.925216 181.421483 
L 224.043981 158.834765 
L 224.162747 175.969516 
L 224.281512 171.919484 
L 224.519043 149.566422 
L 224.87534 183.91381 
L 224.994105 184.614778 
L 225.112871 188.82058 
L 225.231636 197.855268 
L 225.350402 191.468678 
L 225.469167 194.584088 
L 225.587933 170.128124 
L 225.944229 193.649465 
L 226.062995 191.157137 
L 226.181761 201.593759 
L 226.300526 198.088923 
L 226.538057 214.522708 
L 226.656823 205.098594 
L 226.775588 206.734184 
L 226.894354 204.475513 
L 227.013119 211.485184 
L 227.131885 209.382282 
L 227.25065 199.179317 
L 227.369416 202.528382 
L 227.488181 196.609104 
L 227.606947 198.088923 
L 227.725712 208.992856 
L 227.844478 209.615938 
L 227.963243 209.382282 
L 228.082009 198.63412 
L 228.31954 209.226512 
L 228.438305 208.681315 
L 228.557071 210.784217 
L 228.675836 209.304397 
L 228.794602 209.226512 
L 229.032133 212.575577 
L 229.150898 207.902463 
L 229.269664 213.120774 
L 229.38843 206.422643 
L 229.625961 214.133282 
L 229.744726 208.136119 
L 229.982257 211.407299 
L 230.101023 212.887118 
L 230.338554 207.201496 
L 230.457319 198.712005 
L 230.69485 213.120774 
L 230.813616 214.600593 
L 230.932381 209.538053 
L 231.051147 210.628446 
L 231.169912 214.289052 
L 231.288678 210.784217 
L 231.407443 213.5102 
L 231.526209 211.017872 
L 231.644974 213.743856 
L 231.76374 205.721676 
L 231.882505 208.136119 
L 232.001271 201.360103 
L 232.238802 207.279381 
L 232.357568 208.681315 
L 232.595099 197.465841 
L 232.713864 206.656299 
L 232.83263 198.78989 
L 233.070161 177.137795 
L 233.188926 168.959845 
L 233.307692 188.898466 
L 233.426457 172.854107 
L 233.545223 174.645467 
L 233.782754 189.599433 
L 234.020285 155.875126 
L 234.13905 175.891631 
L 234.376581 152.759716 
L 234.495347 155.329929 
L 234.614112 154.940503 
L 234.732878 135.780735 
L 234.851643 165.844436 
L 234.970409 159.847273 
L 235.089174 163.81942 
L 235.20794 153.538569 
L 235.564237 163.585764 
L 235.683002 146.139471 
L 235.801768 148.787569 
L 236.039299 145.594275 
L 236.158064 114.12864 
L 236.27683 154.083765 
L 236.395595 152.681831 
L 236.514361 156.264552 
L 236.633126 141.700013 
L 236.751892 149.955848 
L 236.870657 148.865455 
L 236.989423 174.022386 
L 237.226954 135.936505 
L 237.345719 137.727866 
L 237.464485 132.198014 
L 237.702016 163.429994 
L 237.820781 155.953011 
L 237.939547 170.67332 
L 238.295844 162.417485 
L 238.414609 167.24637 
L 238.533375 154.862618 
L 238.65214 162.18383 
L 238.770906 159.06842 
L 238.889671 177.527221 
L 239.008437 161.093436 
L 239.127202 169.816583 
L 239.245968 161.872289 
L 239.364733 177.994533 
L 239.483499 159.691502 
L 239.602264 192.169645 
L 239.72103 170.050239 
L 239.958561 180.642631 
L 240.077326 193.182153 
L 240.196092 176.592598 
L 240.314857 179.708008 
L 240.433623 193.57158 
L 240.552388 167.012714 
L 240.671154 192.636957 
L 240.908685 181.577253 
L 241.02745 183.134958 
L 241.146216 191.858104 
L 241.264982 192.09176 
L 241.383747 190.611941 
L 241.621278 205.955332 
L 241.740044 193.260039 
L 241.858809 197.777382 
L 241.977575 177.293565 
L 242.215106 208.214004 
L 242.333871 188.82058 
L 242.452637 191.235023 
L 242.690168 184.926319 
L 242.808933 203.463005 
L 242.927699 194.661973 
L 243.046464 197.387956 
L 243.16523 207.746692 
L 243.402761 187.652302 
L 243.521526 187.963843 
L 243.640292 190.689826 
L 243.759057 204.942824 
L 243.877823 199.568743 
L 243.996588 207.590922 
L 244.115354 200.659136 
L 244.352885 208.759201 
L 244.471651 198.78989 
L 244.709182 212.497692 
L 244.946713 204.631283 
L 245.065478 208.681315 
L 245.184244 206.578414 
L 245.303009 207.435152 
L 245.421775 204.163972 
L 245.54054 208.058233 
L 245.659306 202.294726 
L 245.778071 202.917808 
L 246.134368 211.407299 
L 246.371899 204.709168 
L 246.60943 214.522708 
L 246.728195 214.600593 
L 246.965726 211.251528 
L 247.084492 214.756364 
L 247.203257 206.81207 
L 247.440789 214.211167 
L 247.559554 213.977511 
L 247.67832 214.289052 
L 247.797085 211.87461 
L 247.915851 211.796725 
L 248.034616 214.756364 
L 248.153382 210.706331 
L 248.272147 214.756364 
L 248.390913 205.098594 
L 248.509678 214.756364 
L 248.628444 212.575577 
L 248.865975 214.055397 
L 248.98474 212.965003 
L 249.222271 202.06107 
L 249.459802 213.899626 
L 249.697333 201.515874 
L 249.816099 204.241857 
L 249.934864 194.428317 
L 250.05363 203.385119 
L 250.172395 202.06107 
L 250.409927 192.325416 
L 250.528692 206.111103 
L 250.766223 180.097434 
L 250.884989 179.240696 
L 251.12252 195.674481 
L 251.360051 181.265712 
L 251.478816 183.991696 
L 251.597582 182.12245 
L 251.835113 169.427157 
L 251.953878 191.312908 
L 252.072644 172.542566 
L 252.191409 185.159974 
L 252.310175 172.231025 
L 252.42894 172.075255 
L 252.547706 147.930832 
L 252.785237 184.147466 
L 253.141533 157.900142 
L 253.379065 171.919484 
L 253.616596 131.263391 
L 253.854127 179.318582 
L 253.972892 190.378285 
L 254.091658 164.520387 
L 254.210423 171.685828 
L 254.329189 169.816583 
L 254.447954 165.532895 
L 254.56672 134.06726 
L 254.685485 177.605106 
L 254.804251 171.062747 
L 254.923016 200.892792 
L 255.398078 130.484539 
L 255.635609 173.78873 
L 255.87314 183.290729 
L 256.110671 172.464681 
L 256.229437 148.553914 
L 256.466968 166.856944 
L 256.704499 184.225351 
L 256.94203 192.403301 
L 257.060796 169.894468 
L 257.179561 182.979188 
L 257.298327 177.293565 
L 257.417092 183.991696 
L 257.535858 144.270226 
L 257.654623 147.074094 
L 257.773389 189.599433 
L 257.892154 179.318582 
L 258.01092 183.991696 
L 258.129685 170.595435 
L 258.248451 178.461844 
L 258.367216 163.118453 
L 258.485982 189.599433 
L 258.604747 186.717679 
L 258.723513 197.1543 
L 258.842278 186.873449 
L 258.961044 196.764874 
L 259.198575 169.271386 
L 259.31734 171.296402 
L 259.436106 172.542566 
L 259.554872 194.194662 
L 259.673637 190.222515 
L 259.911168 208.214004 
L 260.029934 197.465841 
L 260.148699 205.17648 
L 260.267465 203.774545 
L 260.38623 205.799562 
L 260.623761 184.926319 
L 260.742527 210.939987 
L 260.861292 210.23902 
L 260.980058 212.108266 
L 261.098823 207.746692 
L 261.217589 208.681315 
L 261.336354 201.9053 
L 261.573885 213.042888 
L 261.811416 211.640954 
L 261.930182 211.640954 
L 262.048947 212.731348 
L 262.167713 211.485184 
L 262.52401 214.756364 
L 262.642775 210.939987 
L 263.117837 212.419807 
L 263.236603 214.522708 
L 263.355368 207.357266 
L 263.592899 213.899626 
L 263.711665 209.771709 
L 263.83043 212.965003 
L 263.949196 212.497692 
L 264.067961 214.366937 
L 264.186727 214.055397 
L 264.305492 214.756364 
L 264.424258 214.756364 
L 264.543023 213.432315 
L 264.661789 214.600593 
L 264.89932 212.341921 
L 265.018085 214.211167 
L 265.136851 211.796725 
L 265.374382 212.731348 
L 265.493148 212.341921 
L 265.611913 201.282218 
L 265.730679 210.706331 
L 265.849444 205.877447 
L 265.96821 210.550561 
L 266.086975 208.759201 
L 266.205741 204.864939 
L 266.324506 208.369774 
L 266.562037 197.387956 
L 266.680803 196.84276 
L 266.799568 181.810909 
L 266.918334 184.536892 
L 267.037099 182.589761 
L 267.155865 189.054236 
L 267.393396 158.990535 
L 267.512161 160.54824 
L 267.630927 176.203172 
L 267.749692 173.087763 
L 267.987223 187.885957 
L 268.462286 158.834765 
L 268.581051 156.731863 
L 268.699817 162.028059 
L 268.937348 187.340761 
L 269.293644 163.663649 
L 269.41241 173.477189 
L 269.531175 156.576093 
L 269.649941 158.756879 
L 269.768706 140.921161 
L 269.887472 156.576093 
L 270.006237 125.88931 
L 270.125003 125.266228 
L 270.243768 121.449852 
L 270.362534 94.423675 
L 270.481299 113.972869 
L 270.600065 158.523224 
L 270.837596 114.050754 
L 271.075127 163.897305 
L 271.312658 152.058749 
L 271.431424 155.018388 
L 271.550189 168.492534 
L 271.668955 130.95185 
L 271.78772 135.547079 
L 271.906486 152.526061 
L 272.025251 148.553914 
L 272.144017 149.800077 
L 272.381548 177.293565 
L 272.500313 152.837602 
L 272.737844 174.411812 
L 272.975375 128.147982 
L 273.094141 164.364616 
L 273.212906 161.015551 
L 273.450437 173.632959 
L 273.687968 187.574417 
L 274.044265 160.080928 
L 274.16303 203.229349 
L 274.400561 184.614778 
L 274.638093 199.802398 
L 274.875624 176.125287 
L 274.994389 193.57158 
L 275.23192 190.222515 
L 275.469451 193.961006 
L 275.588217 189.521547 
L 275.706982 197.465841 
L 275.944513 182.12245 
L 276.182044 200.892792 
L 276.30081 200.581251 
L 276.419575 200.892792 
L 276.538341 198.945661 
L 276.657106 205.565906 
L 276.775872 194.194662 
L 276.894637 172.15314 
L 277.132168 208.525545 
L 277.250934 210.23902 
L 277.369699 206.266873 
L 277.607231 211.095758 
L 277.844762 208.992856 
L 277.963527 201.126447 
L 278.201058 213.588085 
L 278.438589 210.005364 
L 278.557355 212.264036 
L 278.67612 207.668807 
L 278.913651 214.366937 
L 279.032417 204.475513 
L 279.269948 206.96784 
L 279.507479 214.366937 
L 279.626244 210.784217 
L 279.74501 213.354429 
L 280.101306 196.063907 
L 280.220072 192.870613 
L 280.338837 199.724513 
L 280.576369 194.817743 
L 280.8139 201.9053 
L 280.932665 210.472676 
L 281.051431 196.686989 
L 281.170196 200.737021 
L 281.526493 177.760877 
L 281.764024 185.237859 
L 282.001555 160.859781 
L 282.12032 169.115616 
L 282.239086 137.961522 
L 282.476617 160.236699 
L 282.595382 166.078092 
L 282.714148 184.770548 
L 282.951679 157.510716 
L 283.070444 174.022386 
L 283.18921 166.779059 
L 283.307975 167.402141 
L 283.426741 159.06842 
L 283.545507 167.635796 
L 283.783038 151.202012 
L 283.901803 142.323095 
L 284.020569 160.54824 
L 284.139334 141.933669 
L 284.495631 171.997369 
L 284.614396 172.854107 
L 284.733162 161.482863 
L 284.851927 165.61078 
L 284.970693 162.417485 
L 285.089458 179.552237 
L 285.208224 149.722192 
L 285.326989 157.510716 
L 285.445755 148.242373 
L 285.683286 154.862618 
L 285.920817 138.428833 
L 286.039582 149.488536 
L 286.158348 144.893308 
L 286.395879 175.58009 
L 286.63341 161.093436 
L 286.752176 164.831928 
L 286.870941 175.657975 
L 286.989707 173.632959 
L 287.108472 169.427157 
L 287.227238 158.756879 
L 287.346003 160.080928 
L 287.464769 163.507879 
L 287.583534 187.963843 
L 287.939831 130.640309 
L 288.177362 176.436828 
L 288.296127 187.496531 
L 288.414893 185.004204 
L 288.533658 186.094597 
L 288.771189 197.699497 
L 288.889955 195.36294 
L 289.127486 187.963843 
L 289.246251 187.02922 
L 289.483782 203.385119 
L 289.602548 181.187827 
L 289.721314 191.390793 
L 289.840079 190.45617 
L 290.07761 202.839923 
L 290.196376 201.204333 
L 290.315141 204.631283 
L 290.433907 199.958169 
L 290.552672 206.96784 
L 290.671438 200.191825 
L 290.790203 200.892792 
L 291.027734 206.500529 
L 291.1465 206.033217 
L 291.265265 206.033217 
L 291.502796 197.465841 
L 291.740327 209.460168 
L 291.859093 211.640954 
L 291.977858 207.824578 
L 292.096624 208.369774 
L 292.334155 205.17648 
L 292.45292 197.465841 
L 292.690452 212.497692 
L 292.809217 212.264036 
L 292.927983 210.706331 
L 293.165514 214.600593 
L 293.284279 210.784217 
L 293.640576 214.522708 
L 293.878107 208.681315 
L 293.996872 211.407299 
L 294.234403 199.412972 
L 294.353169 209.538053 
L 294.471934 207.513037 
L 294.5907 208.291889 
L 294.709465 211.640954 
L 294.946996 207.980348 
L 295.184527 200.036054 
L 295.422058 196.764874 
L 295.540824 205.254365 
L 295.778355 179.162811 
L 296.015886 191.312908 
L 296.372183 164.754043 
L 296.490948 166.856944 
L 296.609714 165.844436 
L 296.847245 154.706847 
L 296.96601 156.420322 
L 297.084776 172.231025 
L 297.203541 160.236699 
L 297.322307 174.022386 
L 297.441072 146.996209 
L 297.559838 155.563585 
L 297.678603 145.438504 
L 297.916134 118.645983 
L 298.0349 111.558427 
L 298.153665 114.673836 
L 298.272431 149.410651 
L 298.509962 123.864294 
L 298.747493 101.744887 
L 298.866259 107.508395 
L 298.985024 136.325932 
L 299.10379 117.477705 
L 299.222555 156.809749 
L 299.578852 121.917163 
L 299.697617 147.385635 
L 299.935148 115.530574 
L 300.053914 138.818259 
L 300.172679 86.01207 
L 300.41021 144.971193 
L 300.528976 137.572095 
L 300.647741 119.580606 
L 300.885272 152.21452 
L 301.004038 154.473191 
L 301.122803 164.442502 
L 301.360334 122.61813 
L 301.597866 138.740374 
L 301.835397 127.057589 
L 302.191693 181.96668 
L 302.429224 168.492534 
L 302.54799 149.877963 
L 302.785521 172.386796 
L 302.904286 149.410651 
L 303.023052 162.18383 
L 303.141817 132.58744 
L 303.379348 171.919484 
L 303.498114 169.271386 
L 303.616879 161.560748 
L 303.735645 179.240696 
L 303.85441 180.097434 
L 303.973176 178.617614 
L 304.210707 191.780219 
L 304.448238 162.651141 
L 304.567003 168.025222 
L 304.685769 163.429994 
L 304.9233 184.926319 
L 305.042066 188.509039 
L 305.160831 187.02922 
L 305.398362 172.542566 
L 305.517128 167.480026 
L 305.754659 205.877447 
L 305.99219 199.023546 
L 306.110955 201.360103 
L 306.229721 199.802398 
L 306.348486 190.845596 
L 306.586017 205.098594 
L 306.704783 192.247531 
L 306.942314 194.428317 
L 307.179845 208.837086 
L 307.417376 199.646628 
L 307.654907 208.681315 
L 307.773673 206.81207 
L 307.892438 200.113939 
L 308.129969 214.366937 
L 308.248735 206.188988 
L 308.3675 214.522708 
L 308.723797 210.862102 
L 308.842562 201.749529 
L 308.961328 203.618775 
L 309.080093 201.593759 
L 309.198859 206.344758 
L 309.317624 192.636957 
L 309.555155 204.864939 
L 309.792686 189.833088 
L 309.911452 190.923482 
L 310.148983 181.577253 
L 310.267748 194.584088 
L 310.386514 187.574417 
L 310.505279 161.171322 
L 310.742811 193.415809 
L 310.980342 147.619291 
L 311.099107 155.096273 
L 311.217873 155.79724 
L 311.336638 148.631799 
L 311.455404 157.510716 
L 311.574169 124.25372 
L 311.8117 141.232701 
L 311.930466 135.079768 
L 312.049231 118.334442 
L 312.167997 119.970032 
L 312.405528 126.434507 
L 312.643059 98.084281 
L 312.761824 57.973385 
L 312.999355 91.775577 
L 313.118121 67.709039 
L 313.830714 147.697176 
L 313.94948 140.921161 
L 314.068245 67.008072 
L 314.424542 104.003559 
L 314.543307 91.775577 
L 314.780838 108.598788 
L 314.899604 140.142308 
L 315.018369 107.274739 
L 315.137135 121.995048 
L 315.2559 72.77158 
L 315.612197 132.042244 
L 315.849728 116.776738 
L 315.968493 118.334442 
L 316.087259 101.589117 
L 316.206024 112.259394 
L 316.32479 102.991051 
L 316.562321 135.624965 
L 316.681087 140.921161 
L 316.918618 126.434507 
L 317.037383 132.042244 
L 317.156149 149.644307 
L 317.274914 143.880799 
L 317.39368 148.398143 
L 317.512445 174.801238 
L 317.631211 166.934829 
L 317.868742 172.620451 
L 317.987507 168.103108 
L 318.225038 168.103108 
L 318.462569 130.250883 
L 318.581335 136.403817 
L 318.7001 166.856944 
L 318.818866 167.24637 
L 318.937631 150.033733 
L 319.056397 174.567582 
L 319.175162 173.9445 
L 319.412693 183.057073 
L 319.531459 197.076415 
L 319.650224 197.621612 
L 319.76899 192.09176 
L 319.887756 196.531219 
L 320.244052 171.997369 
L 320.481583 196.219678 
L 320.600349 197.543727 
L 320.719114 188.041728 
L 320.83788 194.116776 
L 320.956645 211.718839 
L 321.075411 206.96784 
L 321.194176 193.104268 
L 321.312942 205.020709 
L 321.431707 197.777382 
L 321.550473 208.058233 
L 321.669238 196.453333 
L 321.788004 199.724513 
L 322.025535 213.5102 
L 322.1443 212.809233 
L 322.263066 214.600593 
L 322.381831 214.366937 
L 322.500597 206.266873 
L 322.738128 214.133282 
L 322.856894 214.600593 
L 323.094425 208.214004 
L 323.21319 213.588085 
L 323.450721 207.590922 
L 323.569487 208.837086 
L 323.688252 196.764874 
L 323.807018 198.556235 
L 323.925783 210.939987 
L 324.044549 205.955332 
L 324.28208 190.066744 
L 324.400845 193.961006 
L 324.875907 145.282734 
L 325.113438 157.43283 
L 325.232204 118.178672 
L 325.469735 128.537408 
L 325.5885 108.365132 
L 325.707266 123.942179 
L 325.826032 114.206525 
L 326.063563 79.859136 
L 326.182328 93.800593 
L 326.301094 57.973385 
L 326.419859 65.138827 
L 326.65739 113.349787 
L 326.894921 78.301431 
L 327.013687 86.557266 
L 327.132452 58.440696 
L 327.251218 68.955203 
L 327.369983 91.697692 
L 327.607514 17.083636 
L 327.72628 50.496402 
L 327.845045 28.29911 
L 328.082576 86.323611 
L 328.320107 62.101302 
L 328.557638 81.183185 
L 328.79517 58.830123 
L 328.913935 58.05127 
L 329.151466 96.13715 
L 329.388997 45.433862 
L 329.507763 103.302592 
L 329.626528 70.123482 
L 329.745294 87.569774 
L 329.864059 80.793759 
L 329.982825 83.363972 
L 330.10159 98.240052 
L 330.220356 59.297434 
L 330.457887 127.992211 
L 330.814183 100.810264 
L 331.051714 135.157653 
L 331.17048 119.736377 
L 331.289245 121.605622 
L 331.408011 128.926834 
L 331.645542 110.312263 
L 331.764308 115.686344 
L 331.883073 150.267389 
L 332.001839 144.971193 
L 332.120604 148.086602 
L 332.358135 178.85127 
L 332.595666 166.934829 
L 332.714432 175.034894 
L 332.833197 154.473191 
L 332.951963 160.080928 
L 333.070728 171.218517 
L 333.189494 165.221354 
L 333.427025 189.365777 
L 333.54579 183.60227 
L 333.664556 184.614778 
L 333.783321 175.58009 
L 333.902087 179.240696 
L 334.020852 178.617614 
L 334.258383 182.044565 
L 334.377149 197.777382 
L 334.495914 197.777382 
L 334.61468 174.801238 
L 334.970977 196.686989 
L 335.089742 199.335087 
L 335.208508 195.752366 
L 335.327273 201.437988 
L 335.564804 181.265712 
L 335.68357 186.795564 
L 335.802335 199.490858 
L 336.039866 184.536892 
L 336.158632 187.262876 
L 336.396163 203.151464 
L 336.514928 202.839923 
L 336.633694 200.970677 
L 336.752459 201.9053 
L 336.871225 208.058233 
L 336.98999 207.357266 
L 337.108756 207.668807 
L 337.227521 212.341921 
L 337.346287 207.513037 
L 337.465052 211.095758 
L 337.702583 208.992856 
L 337.940115 201.126447 
L 338.296411 209.460168 
L 338.415177 195.986022 
L 338.652708 205.488021 
L 338.771473 207.824578 
L 339.009004 199.101431 
L 339.12777 202.450496 
L 339.246535 201.515874 
L 339.365301 192.792727 
L 339.484066 195.752366 
L 339.602832 195.051399 
L 339.721597 176.826254 
L 339.840363 179.474352 
L 339.959128 177.605106 
L 340.077894 170.595435 
L 340.315425 175.657975 
L 340.43419 170.206009 
L 340.552956 170.206009 
L 340.671721 159.925158 
L 340.790487 128.381638 
L 340.909253 141.855783 
L 341.028018 127.680671 
L 341.146784 160.626125 
L 341.265549 147.385635 
L 341.384315 162.3396 
L 341.621846 131.263391 
L 341.740611 154.940503 
L 341.978142 141.310587 
L 342.096908 116.309426 
L 342.215673 119.892147 
L 342.334439 127.602785 
L 342.57197 151.513553 
L 342.690735 115.686344 
L 342.928266 139.908652 
L 343.165797 123.474868 
L 343.284563 130.873965 
L 343.403328 147.775061 
L 343.522094 129.238375 
L 343.640859 133.444178 
L 343.878391 108.988214 
L 343.997156 131.574932 
L 344.115922 121.294081 
L 344.353453 139.363456 
L 344.472218 138.428833 
L 344.590984 143.647144 
L 344.709749 140.220193 
L 344.828515 141.933669 
L 344.94728 138.506718 
L 345.184811 115.219033 
L 345.303577 134.612456 
L 345.422342 129.472031 
L 345.541108 115.452689 
L 345.659873 131.574932 
L 345.778639 127.135474 
L 345.897404 142.323095 
L 346.01617 137.260554 
L 346.134935 147.30775 
L 346.253701 140.60962 
L 346.372466 149.722192 
L 346.491232 143.647144 
L 346.728763 167.480026 
L 346.847529 158.834765 
L 347.08506 175.969516 
L 347.203825 151.669323 
L 347.441356 175.657975 
L 347.560122 174.489697 
L 347.797653 150.7347 
L 347.916418 166.856944 
L 348.035184 145.905816 
L 348.153949 152.37029 
L 348.272715 165.532895 
L 348.510246 146.217357 
L 348.629011 155.174159 
L 348.747777 154.940503 
L 349.104073 182.356106 
L 349.222839 179.474352 
L 349.46037 181.343598 
L 349.579135 178.929155 
L 349.697901 169.816583 
L 350.054198 196.764874 
L 350.172963 194.817743 
L 350.291729 168.570419 
L 350.52926 196.141792 
L 350.648025 196.609104 
L 350.766791 193.260039 
L 350.885556 194.506202 
L 351.004322 198.166809 
L 351.123087 183.368614 
L 351.241853 183.991696 
L 351.360618 186.717679 
L 351.479384 171.296402 
L 351.598149 188.586925 
L 351.83568 178.072418 
L 352.073211 198.78989 
L 352.191977 200.036054 
L 352.310742 205.799562 
L 352.429508 205.799562 
L 352.548273 210.784217 
L 352.785804 205.877447 
L 353.023336 183.835925 
L 353.260867 207.668807 
L 353.379632 199.646628 
L 353.498398 208.681315 
L 353.617163 208.44766 
L 353.735929 211.407299 
L 353.854694 197.699497 
L 353.97346 200.113939 
L 354.092225 205.098594 
L 354.210991 205.254365 
L 354.329756 213.276544 
L 354.448522 201.983185 
L 354.567287 204.241857 
L 354.686053 198.712005 
L 354.804818 210.706331 
L 355.042349 201.983185 
L 355.161115 196.764874 
L 355.27988 207.980348 
L 355.517411 200.26971 
L 355.636177 184.770548 
L 355.754942 198.088923 
L 355.992474 180.48686 
L 356.111239 180.642631 
L 356.230005 192.09176 
L 356.467536 174.333926 
L 356.586301 141.855783 
L 356.705067 155.174159 
L 356.823832 137.104784 
L 356.942598 150.345274 
L 357.061363 140.687505 
L 357.298894 169.505042 
L 357.41766 107.118968 
L 357.536425 117.321934 
L 357.655191 138.506718 
L 357.892722 84.999562 
L 358.011487 107.664165 
L 358.130253 107.274739 
L 358.249018 135.70285 
L 358.486549 98.317937 
L 358.605315 90.607299 
L 358.72408 104.003559 
L 358.842846 68.02058 
L 359.080377 71.992727 
L 359.199143 77.444694 
L 359.555439 116.465197 
L 359.79297 74.640825 
L 360.030501 108.598788 
L 360.149267 109.299755 
L 360.386798 86.479381 
L 360.505563 99.564101 
L 360.624329 78.924513 
L 360.743094 125.967195 
L 360.86186 104.704526 
L 360.980625 109.22187 
L 361.099391 92.943856 
L 361.336922 144.659652 
L 361.574453 91.152495 
L 361.693218 84.454365 
L 361.811984 88.270741 
L 361.93075 107.664165 
L 362.049515 97.850625 
L 362.168281 128.147982 
L 362.287046 87.336119 
L 362.405812 94.968872 
L 362.643343 150.7347 
L 362.762108 128.771064 
L 362.880874 132.120129 
L 362.999639 130.95185 
L 363.118405 122.228704 
L 363.23717 140.999046 
L 363.355936 138.350948 
L 363.474701 115.842115 
L 363.712232 175.034894 
L 364.068529 137.49421 
L 364.424825 158.834765 
L 364.543591 175.58009 
L 364.662356 171.296402 
L 364.781122 188.82058 
L 364.899887 188.742695 
L 364.899887 188.742695 
" style="fill:none;stroke:#000000;stroke-linecap:square;stroke-width:1.3;"/>
   </g>
  </g>
 </g>
 <defs>
  <clipPath id="p8e6a7e5fd0">
   <rect height="217.44" width="334.8" x="30.099888" y="7.2"/>
  </clipPath>
 </defs>
</svg>
