<?xml version="1.0" encoding="utf-8" standalone="no"?>
<!DOCTYPE svg PUBLIC "-//W3C//DTD SVG 1.1//EN"
  "http://www.w3.org/Graphics/SVG/1.1/DTD/svg11.dtd">
<!-- Created with matplotlib (https://matplotlib.org/) -->
<svg height="330.058128pt" version="1.1" viewBox="0 0 481.047303 330.058128" width="481.047303pt" xmlns="http://www.w3.org/2000/svg" xmlns:xlink="http://www.w3.org/1999/xlink">
 <defs>
  <style type="text/css">
*{stroke-linecap:butt;stroke-linejoin:round;}
  </style>
 </defs>
 <g id="figure_1">
  <g id="patch_1">
   <path d="M 0 330.058128 
L 481.047303 330.058128 
L 481.047303 0 
L 0 0 
z
" style="fill:none;"/>
  </g>
  <g id="axes_1">
   <g id="patch_2">
    <path d="M 27.447303 294.118125 
L 473.847303 294.118125 
L 473.847303 22.318125 
L 27.447303 22.318125 
z
" style="fill:#ffffff;"/>
   </g>
   <g id="matplotlib.axis_1">
    <g id="xtick_1">
     <g id="line2d_1">
      <path clip-path="url(#p9518e9f21c)" d="M 69.64012 294.118125 
L 69.64012 22.318125 
" style="fill:none;stroke:#dedede;stroke-linecap:square;stroke-width:0.8;"/>
     </g>
     <g id="text_1">
      <!-- 1944 -->
      <defs>
       <path d="M 12.40625 8.296875 
L 28.515625 8.296875 
L 28.515625 63.921875 
L 10.984375 60.40625 
L 10.984375 69.390625 
L 28.421875 72.90625 
L 38.28125 72.90625 
L 38.28125 8.296875 
L 54.390625 8.296875 
L 54.390625 0 
L 12.40625 0 
z
" id="DejaVuSans-49"/>
       <path d="M 10.984375 1.515625 
L 10.984375 10.5 
Q 14.703125 8.734375 18.5 7.8125 
Q 22.3125 6.890625 25.984375 6.890625 
Q 35.75 6.890625 40.890625 13.453125 
Q 46.046875 20.015625 46.78125 33.40625 
Q 43.953125 29.203125 39.59375 26.953125 
Q 35.25 24.703125 29.984375 24.703125 
Q 19.046875 24.703125 12.671875 31.3125 
Q 6.296875 37.9375 6.296875 49.421875 
Q 6.296875 60.640625 12.9375 67.421875 
Q 19.578125 74.21875 30.609375 74.21875 
Q 43.265625 74.21875 49.921875 64.515625 
Q 56.59375 54.828125 56.59375 36.375 
Q 56.59375 19.140625 48.40625 8.859375 
Q 40.234375 -1.421875 26.421875 -1.421875 
Q 22.703125 -1.421875 18.890625 -0.6875 
Q 15.09375 0.046875 10.984375 1.515625 
z
M 30.609375 32.421875 
Q 37.25 32.421875 41.125 36.953125 
Q 45.015625 41.5 45.015625 49.421875 
Q 45.015625 57.28125 41.125 61.84375 
Q 37.25 66.40625 30.609375 66.40625 
Q 23.96875 66.40625 20.09375 61.84375 
Q 16.21875 57.28125 16.21875 49.421875 
Q 16.21875 41.5 20.09375 36.953125 
Q 23.96875 32.421875 30.609375 32.421875 
z
" id="DejaVuSans-57"/>
       <path d="M 37.796875 64.3125 
L 12.890625 25.390625 
L 37.796875 25.390625 
z
M 35.203125 72.90625 
L 47.609375 72.90625 
L 47.609375 25.390625 
L 58.015625 25.390625 
L 58.015625 17.1875 
L 47.609375 17.1875 
L 47.609375 0 
L 37.796875 0 
L 37.796875 17.1875 
L 4.890625 17.1875 
L 4.890625 26.703125 
z
" id="DejaVuSans-52"/>
      </defs>
      <g style="fill:#333333;" transform="translate(59.040195 307.447623)scale(0.0833 -0.0833)">
       <use xlink:href="#DejaVuSans-49"/>
       <use x="63.623047" xlink:href="#DejaVuSans-57"/>
       <use x="127.246094" xlink:href="#DejaVuSans-52"/>
       <use x="190.869141" xlink:href="#DejaVuSans-52"/>
      </g>
     </g>
    </g>
    <g id="xtick_2">
     <g id="line2d_2">
      <path clip-path="url(#p9518e9f21c)" d="M 120.2715 294.118125 
L 120.2715 22.318125 
" style="fill:none;stroke:#dedede;stroke-linecap:square;stroke-width:0.8;"/>
     </g>
     <g id="text_2">
      <!-- 1949 -->
      <g style="fill:#333333;" transform="translate(109.671575 307.447623)scale(0.0833 -0.0833)">
       <use xlink:href="#DejaVuSans-49"/>
       <use x="63.623047" xlink:href="#DejaVuSans-57"/>
       <use x="127.246094" xlink:href="#DejaVuSans-52"/>
       <use x="190.869141" xlink:href="#DejaVuSans-57"/>
      </g>
     </g>
    </g>
    <g id="xtick_3">
     <g id="line2d_3">
      <path clip-path="url(#p9518e9f21c)" d="M 170.90288 294.118125 
L 170.90288 22.318125 
" style="fill:none;stroke:#dedede;stroke-linecap:square;stroke-width:0.8;"/>
     </g>
     <g id="text_3">
      <!-- 1954 -->
      <defs>
       <path d="M 10.796875 72.90625 
L 49.515625 72.90625 
L 49.515625 64.59375 
L 19.828125 64.59375 
L 19.828125 46.734375 
Q 21.96875 47.46875 24.109375 47.828125 
Q 26.265625 48.1875 28.421875 48.1875 
Q 40.625 48.1875 47.75 41.5 
Q 54.890625 34.8125 54.890625 23.390625 
Q 54.890625 11.625 47.5625 5.09375 
Q 40.234375 -1.421875 26.90625 -1.421875 
Q 22.3125 -1.421875 17.546875 -0.640625 
Q 12.796875 0.140625 7.71875 1.703125 
L 7.71875 11.625 
Q 12.109375 9.234375 16.796875 8.0625 
Q 21.484375 6.890625 26.703125 6.890625 
Q 35.15625 6.890625 40.078125 11.328125 
Q 45.015625 15.765625 45.015625 23.390625 
Q 45.015625 31 40.078125 35.4375 
Q 35.15625 39.890625 26.703125 39.890625 
Q 22.75 39.890625 18.8125 39.015625 
Q 14.890625 38.140625 10.796875 36.28125 
z
" id="DejaVuSans-53"/>
      </defs>
      <g style="fill:#333333;" transform="translate(160.302955 307.447623)scale(0.0833 -0.0833)">
       <use xlink:href="#DejaVuSans-49"/>
       <use x="63.623047" xlink:href="#DejaVuSans-57"/>
       <use x="127.246094" xlink:href="#DejaVuSans-53"/>
       <use x="190.869141" xlink:href="#DejaVuSans-52"/>
      </g>
     </g>
    </g>
    <g id="xtick_4">
     <g id="line2d_4">
      <path clip-path="url(#p9518e9f21c)" d="M 221.53426 294.118125 
L 221.53426 22.318125 
" style="fill:none;stroke:#dedede;stroke-linecap:square;stroke-width:0.8;"/>
     </g>
     <g id="text_4">
      <!-- 1959 -->
      <g style="fill:#333333;" transform="translate(210.934335 307.447623)scale(0.0833 -0.0833)">
       <use xlink:href="#DejaVuSans-49"/>
       <use x="63.623047" xlink:href="#DejaVuSans-57"/>
       <use x="127.246094" xlink:href="#DejaVuSans-53"/>
       <use x="190.869141" xlink:href="#DejaVuSans-57"/>
      </g>
     </g>
    </g>
    <g id="xtick_5">
     <g id="line2d_5">
      <path clip-path="url(#p9518e9f21c)" d="M 272.16564 294.118125 
L 272.16564 22.318125 
" style="fill:none;stroke:#dedede;stroke-linecap:square;stroke-width:0.8;"/>
     </g>
     <g id="text_5">
      <!-- 1964 -->
      <defs>
       <path d="M 33.015625 40.375 
Q 26.375 40.375 22.484375 35.828125 
Q 18.609375 31.296875 18.609375 23.390625 
Q 18.609375 15.53125 22.484375 10.953125 
Q 26.375 6.390625 33.015625 6.390625 
Q 39.65625 6.390625 43.53125 10.953125 
Q 47.40625 15.53125 47.40625 23.390625 
Q 47.40625 31.296875 43.53125 35.828125 
Q 39.65625 40.375 33.015625 40.375 
z
M 52.59375 71.296875 
L 52.59375 62.3125 
Q 48.875 64.0625 45.09375 64.984375 
Q 41.3125 65.921875 37.59375 65.921875 
Q 27.828125 65.921875 22.671875 59.328125 
Q 17.53125 52.734375 16.796875 39.40625 
Q 19.671875 43.65625 24.015625 45.921875 
Q 28.375 48.1875 33.59375 48.1875 
Q 44.578125 48.1875 50.953125 41.515625 
Q 57.328125 34.859375 57.328125 23.390625 
Q 57.328125 12.15625 50.6875 5.359375 
Q 44.046875 -1.421875 33.015625 -1.421875 
Q 20.359375 -1.421875 13.671875 8.265625 
Q 6.984375 17.96875 6.984375 36.375 
Q 6.984375 53.65625 15.1875 63.9375 
Q 23.390625 74.21875 37.203125 74.21875 
Q 40.921875 74.21875 44.703125 73.484375 
Q 48.484375 72.75 52.59375 71.296875 
z
" id="DejaVuSans-54"/>
      </defs>
      <g style="fill:#333333;" transform="translate(261.565715 307.447623)scale(0.0833 -0.0833)">
       <use xlink:href="#DejaVuSans-49"/>
       <use x="63.623047" xlink:href="#DejaVuSans-57"/>
       <use x="127.246094" xlink:href="#DejaVuSans-54"/>
       <use x="190.869141" xlink:href="#DejaVuSans-52"/>
      </g>
     </g>
    </g>
    <g id="xtick_6">
     <g id="line2d_6">
      <path clip-path="url(#p9518e9f21c)" d="M 322.79702 294.118125 
L 322.79702 22.318125 
" style="fill:none;stroke:#dedede;stroke-linecap:square;stroke-width:0.8;"/>
     </g>
     <g id="text_6">
      <!-- 1969 -->
      <g style="fill:#333333;" transform="translate(312.197095 307.447623)scale(0.0833 -0.0833)">
       <use xlink:href="#DejaVuSans-49"/>
       <use x="63.623047" xlink:href="#DejaVuSans-57"/>
       <use x="127.246094" xlink:href="#DejaVuSans-54"/>
       <use x="190.869141" xlink:href="#DejaVuSans-57"/>
      </g>
     </g>
    </g>
    <g id="xtick_7">
     <g id="line2d_7">
      <path clip-path="url(#p9518e9f21c)" d="M 373.4284 294.118125 
L 373.4284 22.318125 
" style="fill:none;stroke:#dedede;stroke-linecap:square;stroke-width:0.8;"/>
     </g>
     <g id="text_7">
      <!-- 1974 -->
      <defs>
       <path d="M 8.203125 72.90625 
L 55.078125 72.90625 
L 55.078125 68.703125 
L 28.609375 0 
L 18.3125 0 
L 43.21875 64.59375 
L 8.203125 64.59375 
z
" id="DejaVuSans-55"/>
      </defs>
      <g style="fill:#333333;" transform="translate(362.828475 307.447623)scale(0.0833 -0.0833)">
       <use xlink:href="#DejaVuSans-49"/>
       <use x="63.623047" xlink:href="#DejaVuSans-57"/>
       <use x="127.246094" xlink:href="#DejaVuSans-55"/>
       <use x="190.869141" xlink:href="#DejaVuSans-52"/>
      </g>
     </g>
    </g>
    <g id="xtick_8">
     <g id="line2d_8">
      <path clip-path="url(#p9518e9f21c)" d="M 424.059779 294.118125 
L 424.059779 22.318125 
" style="fill:none;stroke:#dedede;stroke-linecap:square;stroke-width:0.8;"/>
     </g>
     <g id="text_8">
      <!-- 1979 -->
      <g style="fill:#333333;" transform="translate(413.459854 307.447623)scale(0.0833 -0.0833)">
       <use xlink:href="#DejaVuSans-49"/>
       <use x="63.623047" xlink:href="#DejaVuSans-57"/>
       <use x="127.246094" xlink:href="#DejaVuSans-55"/>
       <use x="190.869141" xlink:href="#DejaVuSans-57"/>
      </g>
     </g>
    </g>
    <g id="xtick_9"/>
    <g id="xtick_10"/>
    <g id="xtick_11"/>
    <g id="xtick_12"/>
    <g id="xtick_13"/>
    <g id="xtick_14"/>
    <g id="xtick_15"/>
    <g id="xtick_16"/>
    <g id="xtick_17"/>
    <g id="xtick_18"/>
    <g id="xtick_19"/>
    <g id="xtick_20"/>
    <g id="xtick_21"/>
    <g id="xtick_22"/>
    <g id="xtick_23"/>
    <g id="xtick_24"/>
    <g id="xtick_25"/>
    <g id="xtick_26"/>
    <g id="xtick_27"/>
    <g id="xtick_28"/>
    <g id="xtick_29"/>
    <g id="xtick_30"/>
    <g id="xtick_31"/>
    <g id="xtick_32"/>
    <g id="xtick_33"/>
    <g id="xtick_34"/>
    <g id="xtick_35"/>
    <g id="xtick_36"/>
    <g id="xtick_37"/>
    <g id="xtick_38"/>
    <g id="xtick_39"/>
    <g id="xtick_40"/>
    <g id="xtick_41"/>
    <g id="xtick_42"/>
    <g id="xtick_43"/>
    <g id="xtick_44"/>
    <g id="text_9">
     <!-- Month -->
     <defs>
      <path d="M 9.1875 72.90625 
L 33.109375 72.90625 
L 49.703125 33.890625 
L 66.40625 72.90625 
L 90.28125 72.90625 
L 90.28125 0 
L 72.515625 0 
L 72.515625 53.328125 
L 55.71875 14.015625 
L 43.796875 14.015625 
L 27 53.328125 
L 27 0 
L 9.1875 0 
z
" id="DejaVuSans-Bold-77"/>
      <path d="M 34.421875 43.5 
Q 28.609375 43.5 25.5625 39.328125 
Q 22.515625 35.15625 22.515625 27.296875 
Q 22.515625 19.4375 25.5625 15.25 
Q 28.609375 11.078125 34.421875 11.078125 
Q 40.140625 11.078125 43.15625 15.25 
Q 46.1875 19.4375 46.1875 27.296875 
Q 46.1875 35.15625 43.15625 39.328125 
Q 40.140625 43.5 34.421875 43.5 
z
M 34.421875 56 
Q 48.53125 56 56.46875 48.375 
Q 64.40625 40.765625 64.40625 27.296875 
Q 64.40625 13.8125 56.46875 6.1875 
Q 48.53125 -1.421875 34.421875 -1.421875 
Q 20.265625 -1.421875 12.28125 6.1875 
Q 4.296875 13.8125 4.296875 27.296875 
Q 4.296875 40.765625 12.28125 48.375 
Q 20.265625 56 34.421875 56 
z
" id="DejaVuSans-Bold-111"/>
      <path d="M 63.375 33.296875 
L 63.375 0 
L 45.796875 0 
L 45.796875 5.421875 
L 45.796875 25.484375 
Q 45.796875 32.5625 45.484375 35.25 
Q 45.171875 37.9375 44.390625 39.203125 
Q 43.359375 40.921875 41.59375 41.875 
Q 39.84375 42.828125 37.59375 42.828125 
Q 32.125 42.828125 29 38.59375 
Q 25.875 34.375 25.875 26.90625 
L 25.875 0 
L 8.40625 0 
L 8.40625 54.6875 
L 25.875 54.6875 
L 25.875 46.6875 
Q 29.828125 51.46875 34.265625 53.734375 
Q 38.71875 56 44.09375 56 
Q 53.5625 56 58.46875 50.1875 
Q 63.375 44.390625 63.375 33.296875 
z
" id="DejaVuSans-Bold-110"/>
      <path d="M 27.484375 70.21875 
L 27.484375 54.6875 
L 45.515625 54.6875 
L 45.515625 42.1875 
L 27.484375 42.1875 
L 27.484375 19 
Q 27.484375 15.1875 29 13.84375 
Q 30.515625 12.5 35.015625 12.5 
L 44 12.5 
L 44 0 
L 29 0 
Q 18.65625 0 14.328125 4.3125 
Q 10.015625 8.640625 10.015625 19 
L 10.015625 42.1875 
L 1.3125 42.1875 
L 1.3125 54.6875 
L 10.015625 54.6875 
L 10.015625 70.21875 
z
" id="DejaVuSans-Bold-116"/>
      <path d="M 63.375 33.296875 
L 63.375 0 
L 45.796875 0 
L 45.796875 5.421875 
L 45.796875 25.390625 
Q 45.796875 32.5625 45.484375 35.25 
Q 45.171875 37.9375 44.390625 39.203125 
Q 43.359375 40.921875 41.59375 41.875 
Q 39.84375 42.828125 37.59375 42.828125 
Q 32.125 42.828125 29 38.59375 
Q 25.875 34.375 25.875 26.90625 
L 25.875 0 
L 8.40625 0 
L 8.40625 75.984375 
L 25.875 75.984375 
L 25.875 46.6875 
Q 29.828125 51.46875 34.265625 53.734375 
Q 38.71875 56 44.09375 56 
Q 53.5625 56 58.46875 50.1875 
Q 63.375 44.390625 63.375 33.296875 
z
" id="DejaVuSans-Bold-104"/>
     </defs>
     <g style="fill:#333333;" transform="translate(232.727772 320.778441)scale(0.1 -0.1)">
      <use xlink:href="#DejaVuSans-Bold-77"/>
      <use x="99.511719" xlink:href="#DejaVuSans-Bold-111"/>
      <use x="168.212891" xlink:href="#DejaVuSans-Bold-110"/>
      <use x="239.404297" xlink:href="#DejaVuSans-Bold-116"/>
      <use x="287.207031" xlink:href="#DejaVuSans-Bold-104"/>
     </g>
    </g>
   </g>
   <g id="matplotlib.axis_2">
    <g id="ytick_1">
     <g id="line2d_9">
      <path clip-path="url(#p9518e9f21c)" d="M 27.447303 281.958446 
L 473.847303 281.958446 
" style="fill:none;stroke:#dedede;stroke-linecap:square;stroke-width:0.8;"/>
     </g>
     <g id="line2d_10">
      <defs>
       <path d="M 0 0 
L -3.5 0 
" id="m7bca227c66" style="stroke:#333333;stroke-width:0.8;"/>
      </defs>
      <g>
       <use style="fill:#333333;stroke:#333333;stroke-width:0.8;" x="27.447303" xlink:href="#m7bca227c66" y="281.958446"/>
      </g>
     </g>
     <g id="text_10">
      <!-- 0.0 -->
      <defs>
       <path d="M 31.78125 66.40625 
Q 24.171875 66.40625 20.328125 58.90625 
Q 16.5 51.421875 16.5 36.375 
Q 16.5 21.390625 20.328125 13.890625 
Q 24.171875 6.390625 31.78125 6.390625 
Q 39.453125 6.390625 43.28125 13.890625 
Q 47.125 21.390625 47.125 36.375 
Q 47.125 51.421875 43.28125 58.90625 
Q 39.453125 66.40625 31.78125 66.40625 
z
M 31.78125 74.21875 
Q 44.046875 74.21875 50.515625 64.515625 
Q 56.984375 54.828125 56.984375 36.375 
Q 56.984375 17.96875 50.515625 8.265625 
Q 44.046875 -1.421875 31.78125 -1.421875 
Q 19.53125 -1.421875 13.0625 8.265625 
Q 6.59375 17.96875 6.59375 36.375 
Q 6.59375 54.828125 13.0625 64.515625 
Q 19.53125 74.21875 31.78125 74.21875 
z
" id="DejaVuSans-48"/>
       <path d="M 10.6875 12.40625 
L 21 12.40625 
L 21 0 
L 10.6875 0 
z
" id="DejaVuSans-46"/>
      </defs>
      <g style="fill:#333333;" transform="translate(7.2 285.123195)scale(0.0833 -0.0833)">
       <use xlink:href="#DejaVuSans-48"/>
       <use x="63.623047" xlink:href="#DejaVuSans-46"/>
       <use x="95.410156" xlink:href="#DejaVuSans-48"/>
      </g>
     </g>
    </g>
    <g id="ytick_2">
     <g id="line2d_11">
      <path clip-path="url(#p9518e9f21c)" d="M 27.447303 235.404804 
L 473.847303 235.404804 
" style="fill:none;stroke:#dedede;stroke-linecap:square;stroke-width:0.8;"/>
     </g>
     <g id="line2d_12">
      <g>
       <use style="fill:#333333;stroke:#333333;stroke-width:0.8;" x="27.447303" xlink:href="#m7bca227c66" y="235.404804"/>
      </g>
     </g>
     <g id="text_11">
      <!-- 0.2 -->
      <defs>
       <path d="M 19.1875 8.296875 
L 53.609375 8.296875 
L 53.609375 0 
L 7.328125 0 
L 7.328125 8.296875 
Q 12.9375 14.109375 22.625 23.890625 
Q 32.328125 33.6875 34.8125 36.53125 
Q 39.546875 41.84375 41.421875 45.53125 
Q 43.3125 49.21875 43.3125 52.78125 
Q 43.3125 58.59375 39.234375 62.25 
Q 35.15625 65.921875 28.609375 65.921875 
Q 23.96875 65.921875 18.8125 64.3125 
Q 13.671875 62.703125 7.8125 59.421875 
L 7.8125 69.390625 
Q 13.765625 71.78125 18.9375 73 
Q 24.125 74.21875 28.421875 74.21875 
Q 39.75 74.21875 46.484375 68.546875 
Q 53.21875 62.890625 53.21875 53.421875 
Q 53.21875 48.921875 51.53125 44.890625 
Q 49.859375 40.875 45.40625 35.40625 
Q 44.1875 33.984375 37.640625 27.21875 
Q 31.109375 20.453125 19.1875 8.296875 
z
" id="DejaVuSans-50"/>
      </defs>
      <g style="fill:#333333;" transform="translate(7.2 238.569553)scale(0.0833 -0.0833)">
       <use xlink:href="#DejaVuSans-48"/>
       <use x="63.623047" xlink:href="#DejaVuSans-46"/>
       <use x="95.410156" xlink:href="#DejaVuSans-50"/>
      </g>
     </g>
    </g>
    <g id="ytick_3">
     <g id="line2d_13">
      <path clip-path="url(#p9518e9f21c)" d="M 27.447303 188.851162 
L 473.847303 188.851162 
" style="fill:none;stroke:#dedede;stroke-linecap:square;stroke-width:0.8;"/>
     </g>
     <g id="line2d_14">
      <g>
       <use style="fill:#333333;stroke:#333333;stroke-width:0.8;" x="27.447303" xlink:href="#m7bca227c66" y="188.851162"/>
      </g>
     </g>
     <g id="text_12">
      <!-- 0.4 -->
      <g style="fill:#333333;" transform="translate(7.2 192.015911)scale(0.0833 -0.0833)">
       <use xlink:href="#DejaVuSans-48"/>
       <use x="63.623047" xlink:href="#DejaVuSans-46"/>
       <use x="95.410156" xlink:href="#DejaVuSans-52"/>
      </g>
     </g>
    </g>
    <g id="ytick_4">
     <g id="line2d_15">
      <path clip-path="url(#p9518e9f21c)" d="M 27.447303 142.29752 
L 473.847303 142.29752 
" style="fill:none;stroke:#dedede;stroke-linecap:square;stroke-width:0.8;"/>
     </g>
     <g id="line2d_16">
      <g>
       <use style="fill:#333333;stroke:#333333;stroke-width:0.8;" x="27.447303" xlink:href="#m7bca227c66" y="142.29752"/>
      </g>
     </g>
     <g id="text_13">
      <!-- 0.6 -->
      <g style="fill:#333333;" transform="translate(7.2 145.462269)scale(0.0833 -0.0833)">
       <use xlink:href="#DejaVuSans-48"/>
       <use x="63.623047" xlink:href="#DejaVuSans-46"/>
       <use x="95.410156" xlink:href="#DejaVuSans-54"/>
      </g>
     </g>
    </g>
    <g id="ytick_5">
     <g id="line2d_17">
      <path clip-path="url(#p9518e9f21c)" d="M 27.447303 95.743878 
L 473.847303 95.743878 
" style="fill:none;stroke:#dedede;stroke-linecap:square;stroke-width:0.8;"/>
     </g>
     <g id="line2d_18">
      <g>
       <use style="fill:#333333;stroke:#333333;stroke-width:0.8;" x="27.447303" xlink:href="#m7bca227c66" y="95.743878"/>
      </g>
     </g>
     <g id="text_14">
      <!-- 0.8 -->
      <defs>
       <path d="M 31.78125 34.625 
Q 24.75 34.625 20.71875 30.859375 
Q 16.703125 27.09375 16.703125 20.515625 
Q 16.703125 13.921875 20.71875 10.15625 
Q 24.75 6.390625 31.78125 6.390625 
Q 38.8125 6.390625 42.859375 10.171875 
Q 46.921875 13.96875 46.921875 20.515625 
Q 46.921875 27.09375 42.890625 30.859375 
Q 38.875 34.625 31.78125 34.625 
z
M 21.921875 38.8125 
Q 15.578125 40.375 12.03125 44.71875 
Q 8.5 49.078125 8.5 55.328125 
Q 8.5 64.0625 14.71875 69.140625 
Q 20.953125 74.21875 31.78125 74.21875 
Q 42.671875 74.21875 48.875 69.140625 
Q 55.078125 64.0625 55.078125 55.328125 
Q 55.078125 49.078125 51.53125 44.71875 
Q 48 40.375 41.703125 38.8125 
Q 48.828125 37.15625 52.796875 32.3125 
Q 56.78125 27.484375 56.78125 20.515625 
Q 56.78125 9.90625 50.3125 4.234375 
Q 43.84375 -1.421875 31.78125 -1.421875 
Q 19.734375 -1.421875 13.25 4.234375 
Q 6.78125 9.90625 6.78125 20.515625 
Q 6.78125 27.484375 10.78125 32.3125 
Q 14.796875 37.15625 21.921875 38.8125 
z
M 18.3125 54.390625 
Q 18.3125 48.734375 21.84375 45.5625 
Q 25.390625 42.390625 31.78125 42.390625 
Q 38.140625 42.390625 41.71875 45.5625 
Q 45.3125 48.734375 45.3125 54.390625 
Q 45.3125 60.0625 41.71875 63.234375 
Q 38.140625 66.40625 31.78125 66.40625 
Q 25.390625 66.40625 21.84375 63.234375 
Q 18.3125 60.0625 18.3125 54.390625 
z
" id="DejaVuSans-56"/>
      </defs>
      <g style="fill:#333333;" transform="translate(7.2 98.908627)scale(0.0833 -0.0833)">
       <use xlink:href="#DejaVuSans-48"/>
       <use x="63.623047" xlink:href="#DejaVuSans-46"/>
       <use x="95.410156" xlink:href="#DejaVuSans-56"/>
      </g>
     </g>
    </g>
    <g id="ytick_6">
     <g id="line2d_19">
      <path clip-path="url(#p9518e9f21c)" d="M 27.447303 49.190236 
L 473.847303 49.190236 
" style="fill:none;stroke:#dedede;stroke-linecap:square;stroke-width:0.8;"/>
     </g>
     <g id="line2d_20">
      <g>
       <use style="fill:#333333;stroke:#333333;stroke-width:0.8;" x="27.447303" xlink:href="#m7bca227c66" y="49.190236"/>
      </g>
     </g>
     <g id="text_15">
      <!-- 1.0 -->
      <g style="fill:#333333;" transform="translate(7.2 52.354985)scale(0.0833 -0.0833)">
       <use xlink:href="#DejaVuSans-49"/>
       <use x="63.623047" xlink:href="#DejaVuSans-46"/>
       <use x="95.410156" xlink:href="#DejaVuSans-48"/>
      </g>
     </g>
    </g>
   </g>
   <g id="line2d_21">
    <path clip-path="url(#p9518e9f21c)" d="M 27.447303 215.606353 
L 28.291159 240.939017 
L 29.978872 224.083052 
L 30.822728 200.796487 
L 31.666585 222.816419 
L 32.510441 228.954718 
L 33.354297 200.211888 
L 34.198154 216.190953 
L 35.04201 179.16629 
L 35.885866 217.165286 
L 36.729723 228.370118 
L 37.573579 225.057385 
L 38.417435 215.411486 
L 39.261292 237.528851 
L 40.105148 238.600617 
L 40.949004 236.749384 
L 41.792861 250.000316 
L 42.636717 253.215616 
L 43.480573 223.693319 
L 44.32443 216.775553 
L 45.168286 223.498452 
L 46.012142 217.749886 
L 46.855999 236.846817 
L 47.699855 244.641483 
L 48.543711 249.123416 
L 49.387568 247.272183 
L 50.231424 230.513651 
L 51.07528 229.149585 
L 51.919137 222.816419 
L 52.762993 257.600115 
L 53.606849 270.851047 
L 54.450706 264.712748 
L 55.294562 262.276915 
L 56.138418 265.199915 
L 56.982275 263.251248 
L 57.826131 252.046416 
L 58.669987 260.035948 
L 59.513844 269.876714 
L 60.3577 253.800216 
L 62.045413 256.528349 
L 62.889269 268.220348 
L 63.733125 274.553514 
L 65.420838 263.056381 
L 66.264694 272.215114 
L 67.108551 274.358647 
L 67.952407 272.020247 
L 68.796263 263.640981 
L 69.64012 278.353413 
L 70.483976 281.47128 
L 71.327832 271.240781 
L 72.171689 281.666146 
L 73.859401 277.08678 
L 74.703258 277.08678 
L 75.547114 265.687081 
L 76.39097 268.025481 
L 77.234827 265.492214 
L 78.078683 271.435647 
L 78.922539 254.287382 
L 79.766396 263.933281 
L 80.610252 269.584414 
L 81.454108 261.010282 
L 82.297965 250.779783 
L 83.141821 252.143849 
L 83.985677 246.687583 
L 84.829534 240.45185 
L 85.67339 256.723215 
L 86.517246 247.954216 
L 87.361103 214.924319 
L 88.204959 237.139117 
L 89.048815 255.261715 
L 89.892672 235.580184 
L 90.736528 197.970921 
L 91.580384 207.32452 
L 92.424241 208.20142 
L 93.268097 199.237554 
L 94.111953 210.344953 
L 94.95581 168.740924 
L 95.799666 177.509923 
L 96.643522 189.981389 
L 97.487379 182.284156 
L 98.331235 161.335991 
L 99.175091 163.382091 
L 100.018948 169.228091 
L 100.862804 171.469057 
L 101.70666 155.489992 
L 102.550517 136.003327 
L 103.394373 85.825165 
L 104.238229 122.265229 
L 105.082086 128.111228 
L 105.925942 98.004331 
L 106.769798 116.906396 
L 107.613655 122.557528 
L 108.457511 157.243792 
L 109.301367 168.448624 
L 110.145224 176.24329 
L 110.98908 198.068354 
L 111.832936 189.591655 
L 112.676793 97.127431 
L 113.520649 112.424463 
L 114.364505 118.465329 
L 115.208362 143.40826 
L 116.052218 128.111228 
L 116.896074 142.336493 
L 117.739931 149.156826 
L 118.583787 188.617322 
L 119.427643 147.500459 
L 120.2715 165.915358 
L 121.115356 104.337497 
L 121.959212 128.500961 
L 122.803069 138.73146 
L 123.646925 178.484256 
L 124.490781 163.382091 
L 125.334638 159.387325 
L 126.178494 161.335991 
L 127.02235 140.387827 
L 127.866207 153.736192 
L 128.710063 142.141627 
L 129.553919 167.376857 
L 130.397776 182.966189 
L 131.241632 189.591655 
L 132.085488 175.07409 
L 132.929345 171.469057 
L 133.773201 178.484256 
L 134.617057 200.504188 
L 135.460914 193.294122 
L 136.30477 198.945254 
L 137.148626 231.975151 
L 137.992483 222.134385 
L 138.836339 228.564985 
L 139.680195 229.247018 
L 140.524052 223.595885 
L 142.211764 223.595885 
L 143.055621 191.442888 
L 143.899477 176.24329 
L 144.743333 183.940522 
L 145.58719 222.036952 
L 146.431046 222.524119 
L 147.274902 200.991354 
L 148.118759 231.682851 
L 148.962615 230.903385 
L 149.806471 237.333984 
L 150.650328 242.303083 
L 151.494184 259.841082 
L 152.33804 260.523115 
L 153.181897 253.605349 
L 154.025753 259.159048 
L 154.869609 246.492716 
L 155.713466 243.66715 
L 156.557322 228.467551 
L 157.401178 254.482249 
L 158.245035 258.769315 
L 159.088891 260.425682 
L 159.932747 248.538816 
L 160.776604 256.138615 
L 161.62046 278.158547 
L 162.464316 272.215114 
L 163.308173 254.871982 
L 164.152029 269.779281 
L 164.995885 260.717982 
L 165.839742 273.57918 
L 166.683598 259.061615 
L 167.527454 263.153815 
L 168.371311 273.968914 
L 169.215167 280.399513 
L 170.059023 279.522613 
L 170.90288 281.76358 
L 171.746736 281.47128 
L 172.590592 271.338214 
L 173.434449 280.204646 
L 174.278305 281.17898 
L 175.122161 281.76358 
L 175.966018 277.281647 
L 176.809874 273.774047 
L 177.65373 280.496946 
L 178.497587 275.138114 
L 179.341443 272.99458 
L 180.185299 274.553514 
L 181.029156 259.451348 
L 181.873012 261.692315 
L 182.716868 277.184213 
L 183.560725 270.948481 
L 184.404581 253.800216 
L 185.248437 251.072083 
L 186.092294 255.943749 
L 186.93615 242.303083 
L 187.780006 240.354417 
L 188.623863 224.959952 
L 189.467719 195.047921 
L 190.311575 207.03222 
L 191.155432 210.24752 
L 191.999288 161.141125 
L 192.843144 166.597391 
L 193.687001 174.099757 
L 194.530857 148.864526 
L 195.374713 168.351191 
L 196.21857 156.172025 
L 197.062426 116.711529 
L 197.906282 113.203929 
L 198.750139 130.644494 
L 199.593995 85.825165 
L 200.437851 94.789031 
L 201.281708 121.193462 
L 202.125564 155.100259 
L 202.96942 128.598395 
L 203.813277 111.255263 
L 204.657133 121.583195 
L 205.500989 86.409765 
L 206.344846 99.563264 
L 207.188702 128.013795 
L 208.032558 52.210669 
L 208.876415 34.67267 
L 209.720271 76.471566 
L 210.564127 48.703069 
L 212.25184 121.290895 
L 213.095696 96.153098 
L 213.939553 90.989132 
L 214.783409 111.15783 
L 215.627265 114.860296 
L 216.471122 95.471064 
L 217.314978 86.896932 
L 218.158834 85.922599 
L 219.002691 105.116964 
L 219.846547 133.567494 
L 220.690403 99.173531 
L 221.53426 70.1384 
L 222.378116 142.53136 
L 223.221972 101.024764 
L 224.065829 122.849828 
L 224.909685 114.373129 
L 225.753541 117.588429 
L 226.597398 136.198194 
L 227.441254 87.481532 
L 228.28511 140.48526 
L 229.128967 173.417724 
L 229.972823 161.141125 
L 230.816679 160.166791 
L 231.660536 139.413494 
L 232.504392 178.679123 
L 233.348248 182.381589 
L 234.192105 163.089791 
L 235.035961 165.428191 
L 235.879817 174.586923 
L 237.56753 151.300359 
L 238.411386 158.023258 
L 239.255243 201.283654 
L 240.099099 194.658188 
L 240.942955 198.555521 
L 241.786812 225.544552 
L 242.630668 237.041684 
L 243.474524 230.318785 
L 244.318381 222.134385 
L 245.162237 232.267451 
L 246.006093 206.545054 
L 246.84995 213.560253 
L 247.693806 227.493218 
L 248.537662 219.990852 
L 249.381519 245.226083 
L 250.225375 250.195183 
L 251.069231 242.985117 
L 251.913088 244.25175 
L 252.756944 232.949484 
L 253.6008 237.528851 
L 254.444657 236.749384 
L 255.288513 239.380084 
L 256.132369 241.03645 
L 256.976226 260.717982 
L 257.820082 260.717982 
L 258.663938 231.975151 
L 260.351651 255.748882 
L 262.039364 262.666648 
L 262.88322 258.184715 
L 263.727076 265.297348 
L 265.414789 240.062117 
L 266.258645 246.979883 
L 267.102502 262.861515 
L 267.946358 249.610583 
L 268.790214 244.154317 
L 269.634071 247.564483 
L 270.477927 259.159048 
L 271.321783 267.440881 
L 272.16564 267.051148 
L 273.009496 264.712748 
L 273.853352 265.881948 
L 274.697209 273.57918 
L 275.541065 272.70228 
L 276.384921 273.092014 
L 277.228778 278.938013 
L 278.072634 272.897147 
L 278.91649 277.37908 
L 280.604203 274.74838 
L 281.448059 267.246014 
L 282.291916 264.907615 
L 283.135772 268.122914 
L 283.979628 270.558747 
L 284.823485 275.33298 
L 285.667341 258.477015 
L 286.511197 266.466548 
L 287.355054 270.363881 
L 288.19891 273.28688 
L 289.042766 265.589648 
L 289.886623 262.374348 
L 290.730479 266.563981 
L 291.574335 265.394781 
L 292.418192 254.482249 
L 293.262048 258.184715 
L 294.105904 257.307815 
L 294.949761 234.508418 
L 295.793617 237.821151 
L 296.637473 235.482751 
L 297.48133 226.713752 
L 298.325186 232.072584 
L 299.169042 233.046918 
L 300.012899 226.226585 
L 300.856755 226.226585 
L 301.700611 213.365386 
L 302.544468 173.90489 
L 303.388324 190.760855 
L 304.23218 173.02799 
L 305.076037 214.242286 
L 305.919893 197.678621 
L 306.763749 216.385819 
L 307.607606 192.806955 
L 308.451462 177.509923 
L 309.295318 207.129654 
L 310.139175 196.022255 
L 310.983031 190.078822 
L 311.826887 158.802725 
L 312.670744 163.284658 
L 313.5146 172.930557 
L 314.358456 192.124922 
L 315.202313 202.842587 
L 316.046169 158.023258 
L 316.890025 174.48949 
L 317.733882 188.325022 
L 318.577738 175.463823 
L 319.421594 167.766591 
L 320.265451 177.022756 
L 321.109307 198.165788 
L 321.953163 174.976657 
L 322.79702 180.238056 
L 324.484732 149.643993 
L 325.328589 177.899656 
L 326.172445 165.038458 
L 327.016301 178.679123 
L 327.860158 187.642989 
L 328.704014 186.473789 
L 329.54787 193.001822 
L 330.391727 188.714755 
L 331.235583 190.858288 
L 332.079439 186.571222 
L 332.923296 173.32029 
L 333.767152 157.438658 
L 334.611008 181.699556 
L 335.454865 175.268957 
L 336.298721 157.730958 
L 337.142577 177.899656 
L 337.986434 172.345957 
L 338.83029 191.345455 
L 339.674146 185.012289 
L 340.518003 197.581188 
L 341.361859 189.201922 
L 342.205715 200.601621 
L 343.049572 193.001822 
L 343.893428 204.98612 
L 344.737284 222.816419 
L 345.581141 212.00132 
L 346.424997 225.934285 
L 347.268853 233.436651 
L 348.11271 203.037454 
L 348.956566 222.134385 
L 349.800422 233.046918 
L 350.644279 231.585418 
L 351.488135 220.380586 
L 352.331991 201.868254 
L 353.175848 222.036952 
L 354.019704 195.827388 
L 354.86356 203.914354 
L 355.707417 220.380586 
L 356.551273 203.524621 
L 357.395129 196.217121 
L 358.238986 207.421954 
L 359.082842 207.129654 
L 359.926698 219.601119 
L 360.770555 222.231819 
L 361.614411 241.426184 
L 362.458267 237.821151 
L 363.302124 239.672384 
L 364.14598 240.15955 
L 364.989836 237.139117 
L 365.833693 225.739418 
L 366.677549 240.646717 
L 367.521405 243.472283 
L 368.365262 259.451348 
L 369.209118 257.015515 
L 370.052974 224.180485 
L 370.896831 252.046416 
L 371.740687 258.671882 
L 372.584543 259.256482 
L 373.4284 255.066849 
L 374.272256 256.625782 
L 375.116112 261.205148 
L 375.959969 242.692817 
L 376.803825 243.472283 
L 377.647681 246.88245 
L 378.491538 227.590652 
L 379.335394 249.220849 
L 381.023107 236.067351 
L 381.866963 257.600115 
L 382.710819 261.984615 
L 383.554676 263.543548 
L 384.398532 270.753614 
L 385.242388 270.753614 
L 386.086245 276.989347 
L 386.930101 273.189447 
L 387.773957 270.851047 
L 388.617814 254.482249 
L 389.46167 243.277417 
L 390.305526 268.415214 
L 391.149383 273.092014 
L 391.993239 263.056381 
L 392.837095 274.358647 
L 393.680952 274.066347 
L 394.524808 277.768813 
L 395.368664 260.620548 
L 396.212521 263.640981 
L 397.056377 269.876714 
L 397.900233 270.071581 
L 398.74409 280.107213 
L 399.587946 265.979381 
L 400.431802 268.804947 
L 401.275659 261.887181 
L 402.119515 276.891913 
L 402.963371 267.051148 
L 403.807228 265.979381 
L 404.651084 259.451348 
L 405.49494 273.481747 
L 406.338797 269.389547 
L 407.182653 263.835848 
L 408.026509 244.446617 
L 408.870366 261.107715 
L 409.714222 252.631016 
L 410.558078 239.087784 
L 411.401935 239.28265 
L 412.245791 253.605349 
L 413.089647 239.86725 
L 413.933504 231.390551 
L 414.77736 190.760855 
L 415.621216 207.421954 
L 416.465073 184.817422 
L 417.308929 201.381087 
L 418.152785 189.299355 
L 418.996641 213.365386 
L 419.840498 225.349685 
L 420.684354 147.305593 
L 421.52821 160.069358 
L 422.372067 186.571222 
L 423.215923 162.407758 
L 424.059779 119.634529 
L 424.903636 147.987626 
L 425.747492 147.500459 
L 426.591348 183.063623 
L 427.435205 151.008059 
L 428.279061 136.295627 
L 429.122917 126.649728 
L 429.966774 143.40826 
L 430.81063 98.394064 
L 431.654486 100.537597 
L 432.498343 103.363164 
L 433.342199 110.183496 
L 434.186055 126.454861 
L 435.029912 130.936794 
L 435.873768 158.997592 
L 436.717624 122.070362 
L 437.561481 106.675897 
L 439.249193 149.156826 
L 440.09305 150.033726 
L 440.936906 130.936794 
L 441.780762 121.485762 
L 442.624619 137.85456 
L 443.468475 112.03473 
L 444.312331 170.884457 
L 445.156188 144.28516 
L 446.000044 149.936292 
L 446.8439 129.572728 
L 447.687757 157.730958 
L 448.531613 194.268455 
L 449.375469 141.849327 
L 450.219326 127.331761 
L 451.063182 118.952496 
L 451.907038 123.726728 
L 452.750895 147.987626 
L 453.594751 135.711027 
L 454.438607 173.61259 
L 455.282464 122.557528 
L 456.12632 132.105994 
L 456.970176 163.089791 
L 457.814033 201.868254 
L 458.657889 174.392057 
L 459.501745 178.58169 
L 460.345602 177.12019 
L 461.189458 166.207658 
L 462.033314 189.689089 
L 462.877171 186.376356 
L 463.721027 158.218125 
L 464.564883 199.822154 
L 465.40874 232.267451 
L 467.940309 185.304589 
L 469.628021 201.868254 
L 470.471878 212.00132 
L 471.315734 232.949484 
L 472.15959 227.590652 
L 473.003447 249.513149 
L 473.847303 249.415716 
L 473.847303 249.415716 
" style="fill:none;stroke:#000000;stroke-linecap:square;stroke-width:1.3;"/>
   </g>
   <g id="line2d_22">
    <path clip-path="url(#p9518e9f21c)" d="M 64.576982 267.831129 
L 69.64012 272.51944 
L 74.703258 266.335841 
L 79.766396 260.952045 
L 84.829534 253.656105 
L 89.892672 241.412569 
L 94.95581 232.707543 
L 100.018948 222.16953 
L 105.082086 211.817479 
L 110.145224 203.473178 
L 115.208362 198.963912 
L 120.2715 201.74594 
L 125.334638 198.922727 
L 130.397776 210.910406 
L 135.460914 196.964638 
L 140.524052 237.864089 
L 145.58719 234.994901 
L 150.650328 236.870068 
L 155.713466 255.281003 
L 160.776604 252.20651 
L 165.839742 266.172101 
L 170.90288 270.051351 
L 175.966018 265.212975 
L 181.029156 267.539122 
L 186.092294 249.963801 
L 191.155432 241.078995 
L 196.21857 226.782255 
L 201.281708 222.836339 
L 206.344846 201.733079 
L 211.407984 188.922938 
L 216.471122 186.243363 
L 221.53426 174.802808 
L 226.597398 168.835829 
L 231.660536 189.857301 
L 236.723674 200.367475 
L 241.786812 207.18884 
L 246.84995 222.334201 
L 251.913088 232.426912 
L 256.976226 236.47277 
L 262.039364 257.124375 
L 267.102502 252.249415 
L 272.16564 265.235997 
L 277.228778 265.181654 
L 282.291916 260.661274 
L 287.355054 241.096969 
L 292.418192 223.748995 
L 297.48133 210.114603 
L 302.544468 206.950817 
L 307.607606 199.917234 
L 312.670744 192.749988 
L 317.733882 191.09699 
L 322.79702 190.701996 
L 327.860158 188.763483 
L 332.923296 189.919422 
L 337.986434 197.467344 
L 343.049572 205.894605 
L 348.11271 212.317743 
L 353.175848 225.600809 
L 358.238986 238.198988 
L 363.302124 239.687152 
L 368.365262 249.674936 
L 373.4284 260.473617 
L 378.491538 269.822608 
L 383.554676 258.631548 
L 388.617814 254.27909 
L 393.680952 263.643575 
L 398.74409 256.2295 
L 403.807228 250.623936 
L 408.870366 230.747054 
L 413.933504 233.863572 
L 418.996641 217.56848 
L 424.059779 222.245151 
L 429.122917 217.027135 
L 434.186055 213.820401 
L 439.249193 210.375651 
L 444.312331 199.211315 
L 449.375469 204.460658 
L 454.438607 197.962919 
L 459.501745 205.264188 
L 464.564883 218.169734 
L 469.628021 237.034972 
" style="fill:none;stroke:#003dfd;stroke-linecap:square;stroke-width:1.3;"/>
   </g>
   <g id="text_16">
    <!-- R2: 0.35185444160172064 -->
    <defs>
     <path d="M 44.390625 34.1875 
Q 47.5625 33.109375 50.5625 29.59375 
Q 53.5625 26.078125 56.59375 19.921875 
L 66.609375 0 
L 56 0 
L 46.6875 18.703125 
Q 43.0625 26.03125 39.671875 28.421875 
Q 36.28125 30.8125 30.421875 30.8125 
L 19.671875 30.8125 
L 19.671875 0 
L 9.8125 0 
L 9.8125 72.90625 
L 32.078125 72.90625 
Q 44.578125 72.90625 50.734375 67.671875 
Q 56.890625 62.453125 56.890625 51.90625 
Q 56.890625 45.015625 53.6875 40.46875 
Q 50.484375 35.9375 44.390625 34.1875 
z
M 19.671875 64.796875 
L 19.671875 38.921875 
L 32.078125 38.921875 
Q 39.203125 38.921875 42.84375 42.21875 
Q 46.484375 45.515625 46.484375 51.90625 
Q 46.484375 58.296875 42.84375 61.546875 
Q 39.203125 64.796875 32.078125 64.796875 
z
" id="DejaVuSans-82"/>
     <path d="M 11.71875 12.40625 
L 22.015625 12.40625 
L 22.015625 0 
L 11.71875 0 
z
M 11.71875 51.703125 
L 22.015625 51.703125 
L 22.015625 39.3125 
L 11.71875 39.3125 
z
" id="DejaVuSans-58"/>
     <path id="DejaVuSans-32"/>
     <path d="M 40.578125 39.3125 
Q 47.65625 37.796875 51.625 33 
Q 55.609375 28.21875 55.609375 21.1875 
Q 55.609375 10.40625 48.1875 4.484375 
Q 40.765625 -1.421875 27.09375 -1.421875 
Q 22.515625 -1.421875 17.65625 -0.515625 
Q 12.796875 0.390625 7.625 2.203125 
L 7.625 11.71875 
Q 11.71875 9.328125 16.59375 8.109375 
Q 21.484375 6.890625 26.8125 6.890625 
Q 36.078125 6.890625 40.9375 10.546875 
Q 45.796875 14.203125 45.796875 21.1875 
Q 45.796875 27.640625 41.28125 31.265625 
Q 36.765625 34.90625 28.71875 34.90625 
L 20.21875 34.90625 
L 20.21875 43.015625 
L 29.109375 43.015625 
Q 36.375 43.015625 40.234375 45.921875 
Q 44.09375 48.828125 44.09375 54.296875 
Q 44.09375 59.90625 40.109375 62.90625 
Q 36.140625 65.921875 28.71875 65.921875 
Q 24.65625 65.921875 20.015625 65.03125 
Q 15.375 64.15625 9.8125 62.3125 
L 9.8125 71.09375 
Q 15.4375 72.65625 20.34375 73.4375 
Q 25.25 74.21875 29.59375 74.21875 
Q 40.828125 74.21875 47.359375 69.109375 
Q 53.90625 64.015625 53.90625 55.328125 
Q 53.90625 49.265625 50.4375 45.09375 
Q 46.96875 40.921875 40.578125 39.3125 
z
" id="DejaVuSans-51"/>
    </defs>
    <g transform="translate(168.110741 16.318125)scale(0.12 -0.12)">
     <use xlink:href="#DejaVuSans-82"/>
     <use x="69.482422" xlink:href="#DejaVuSans-50"/>
     <use x="133.105469" xlink:href="#DejaVuSans-58"/>
     <use x="166.796875" xlink:href="#DejaVuSans-32"/>
     <use x="198.583984" xlink:href="#DejaVuSans-48"/>
     <use x="262.207031" xlink:href="#DejaVuSans-46"/>
     <use x="293.994141" xlink:href="#DejaVuSans-51"/>
     <use x="357.617188" xlink:href="#DejaVuSans-53"/>
     <use x="421.240234" xlink:href="#DejaVuSans-49"/>
     <use x="484.863281" xlink:href="#DejaVuSans-56"/>
     <use x="548.486328" xlink:href="#DejaVuSans-53"/>
     <use x="612.109375" xlink:href="#DejaVuSans-52"/>
     <use x="675.732422" xlink:href="#DejaVuSans-52"/>
     <use x="739.355469" xlink:href="#DejaVuSans-52"/>
     <use x="802.978516" xlink:href="#DejaVuSans-49"/>
     <use x="866.601562" xlink:href="#DejaVuSans-54"/>
     <use x="930.224609" xlink:href="#DejaVuSans-48"/>
     <use x="993.847656" xlink:href="#DejaVuSans-49"/>
     <use x="1057.470703" xlink:href="#DejaVuSans-55"/>
     <use x="1121.09375" xlink:href="#DejaVuSans-50"/>
     <use x="1184.716797" xlink:href="#DejaVuSans-48"/>
     <use x="1248.339844" xlink:href="#DejaVuSans-54"/>
     <use x="1311.962891" xlink:href="#DejaVuSans-52"/>
    </g>
   </g>
   <g id="legend_1">
    <g id="line2d_23">
     <path d="M 316.244178 35.416562 
L 336.244178 35.416562 
" style="fill:none;stroke:#000000;stroke-linecap:square;stroke-width:1.3;"/>
    </g>
    <g id="line2d_24"/>
    <g id="text_17">
     <!-- actual -->
     <defs>
      <path d="M 34.28125 27.484375 
Q 23.390625 27.484375 19.1875 25 
Q 14.984375 22.515625 14.984375 16.5 
Q 14.984375 11.71875 18.140625 8.90625 
Q 21.296875 6.109375 26.703125 6.109375 
Q 34.1875 6.109375 38.703125 11.40625 
Q 43.21875 16.703125 43.21875 25.484375 
L 43.21875 27.484375 
z
M 52.203125 31.203125 
L 52.203125 0 
L 43.21875 0 
L 43.21875 8.296875 
Q 40.140625 3.328125 35.546875 0.953125 
Q 30.953125 -1.421875 24.3125 -1.421875 
Q 15.921875 -1.421875 10.953125 3.296875 
Q 6 8.015625 6 15.921875 
Q 6 25.140625 12.171875 29.828125 
Q 18.359375 34.515625 30.609375 34.515625 
L 43.21875 34.515625 
L 43.21875 35.40625 
Q 43.21875 41.609375 39.140625 45 
Q 35.0625 48.390625 27.6875 48.390625 
Q 23 48.390625 18.546875 47.265625 
Q 14.109375 46.140625 10.015625 43.890625 
L 10.015625 52.203125 
Q 14.9375 54.109375 19.578125 55.046875 
Q 24.21875 56 28.609375 56 
Q 40.484375 56 46.34375 49.84375 
Q 52.203125 43.703125 52.203125 31.203125 
z
" id="DejaVuSans-97"/>
      <path d="M 48.78125 52.59375 
L 48.78125 44.1875 
Q 44.96875 46.296875 41.140625 47.34375 
Q 37.3125 48.390625 33.40625 48.390625 
Q 24.65625 48.390625 19.8125 42.84375 
Q 14.984375 37.3125 14.984375 27.296875 
Q 14.984375 17.28125 19.8125 11.734375 
Q 24.65625 6.203125 33.40625 6.203125 
Q 37.3125 6.203125 41.140625 7.25 
Q 44.96875 8.296875 48.78125 10.40625 
L 48.78125 2.09375 
Q 45.015625 0.34375 40.984375 -0.53125 
Q 36.96875 -1.421875 32.421875 -1.421875 
Q 20.0625 -1.421875 12.78125 6.34375 
Q 5.515625 14.109375 5.515625 27.296875 
Q 5.515625 40.671875 12.859375 48.328125 
Q 20.21875 56 33.015625 56 
Q 37.15625 56 41.109375 55.140625 
Q 45.0625 54.296875 48.78125 52.59375 
z
" id="DejaVuSans-99"/>
      <path d="M 18.3125 70.21875 
L 18.3125 54.6875 
L 36.8125 54.6875 
L 36.8125 47.703125 
L 18.3125 47.703125 
L 18.3125 18.015625 
Q 18.3125 11.328125 20.140625 9.421875 
Q 21.96875 7.515625 27.59375 7.515625 
L 36.8125 7.515625 
L 36.8125 0 
L 27.59375 0 
Q 17.1875 0 13.234375 3.875 
Q 9.28125 7.765625 9.28125 18.015625 
L 9.28125 47.703125 
L 2.6875 47.703125 
L 2.6875 54.6875 
L 9.28125 54.6875 
L 9.28125 70.21875 
z
" id="DejaVuSans-116"/>
      <path d="M 8.5 21.578125 
L 8.5 54.6875 
L 17.484375 54.6875 
L 17.484375 21.921875 
Q 17.484375 14.15625 20.5 10.265625 
Q 23.53125 6.390625 29.59375 6.390625 
Q 36.859375 6.390625 41.078125 11.03125 
Q 45.3125 15.671875 45.3125 23.6875 
L 45.3125 54.6875 
L 54.296875 54.6875 
L 54.296875 0 
L 45.3125 0 
L 45.3125 8.40625 
Q 42.046875 3.421875 37.71875 1 
Q 33.40625 -1.421875 27.6875 -1.421875 
Q 18.265625 -1.421875 13.375 4.4375 
Q 8.5 10.296875 8.5 21.578125 
z
M 31.109375 56 
z
" id="DejaVuSans-117"/>
      <path d="M 9.421875 75.984375 
L 18.40625 75.984375 
L 18.40625 0 
L 9.421875 0 
z
" id="DejaVuSans-108"/>
     </defs>
     <g transform="translate(344.244178 38.916562)scale(0.1 -0.1)">
      <use xlink:href="#DejaVuSans-97"/>
      <use x="61.279297" xlink:href="#DejaVuSans-99"/>
      <use x="116.259766" xlink:href="#DejaVuSans-116"/>
      <use x="155.46875" xlink:href="#DejaVuSans-117"/>
      <use x="218.847656" xlink:href="#DejaVuSans-97"/>
      <use x="280.126953" xlink:href="#DejaVuSans-108"/>
     </g>
    </g>
    <g id="line2d_25">
     <path d="M 316.244178 50.094687 
L 336.244178 50.094687 
" style="fill:none;stroke:#003dfd;stroke-linecap:square;stroke-width:1.3;"/>
    </g>
    <g id="line2d_26"/>
    <g id="text_18">
     <!-- historic 3 year forecasts -->
     <defs>
      <path d="M 54.890625 33.015625 
L 54.890625 0 
L 45.90625 0 
L 45.90625 32.71875 
Q 45.90625 40.484375 42.875 44.328125 
Q 39.84375 48.1875 33.796875 48.1875 
Q 26.515625 48.1875 22.3125 43.546875 
Q 18.109375 38.921875 18.109375 30.90625 
L 18.109375 0 
L 9.078125 0 
L 9.078125 75.984375 
L 18.109375 75.984375 
L 18.109375 46.1875 
Q 21.34375 51.125 25.703125 53.5625 
Q 30.078125 56 35.796875 56 
Q 45.21875 56 50.046875 50.171875 
Q 54.890625 44.34375 54.890625 33.015625 
z
" id="DejaVuSans-104"/>
      <path d="M 9.421875 54.6875 
L 18.40625 54.6875 
L 18.40625 0 
L 9.421875 0 
z
M 9.421875 75.984375 
L 18.40625 75.984375 
L 18.40625 64.59375 
L 9.421875 64.59375 
z
" id="DejaVuSans-105"/>
      <path d="M 44.28125 53.078125 
L 44.28125 44.578125 
Q 40.484375 46.53125 36.375 47.5 
Q 32.28125 48.484375 27.875 48.484375 
Q 21.1875 48.484375 17.84375 46.4375 
Q 14.5 44.390625 14.5 40.28125 
Q 14.5 37.15625 16.890625 35.375 
Q 19.28125 33.59375 26.515625 31.984375 
L 29.59375 31.296875 
Q 39.15625 29.25 43.1875 25.515625 
Q 47.21875 21.78125 47.21875 15.09375 
Q 47.21875 7.46875 41.1875 3.015625 
Q 35.15625 -1.421875 24.609375 -1.421875 
Q 20.21875 -1.421875 15.453125 -0.5625 
Q 10.6875 0.296875 5.421875 2 
L 5.421875 11.28125 
Q 10.40625 8.6875 15.234375 7.390625 
Q 20.0625 6.109375 24.8125 6.109375 
Q 31.15625 6.109375 34.5625 8.28125 
Q 37.984375 10.453125 37.984375 14.40625 
Q 37.984375 18.0625 35.515625 20.015625 
Q 33.0625 21.96875 24.703125 23.78125 
L 21.578125 24.515625 
Q 13.234375 26.265625 9.515625 29.90625 
Q 5.8125 33.546875 5.8125 39.890625 
Q 5.8125 47.609375 11.28125 51.796875 
Q 16.75 56 26.8125 56 
Q 31.78125 56 36.171875 55.265625 
Q 40.578125 54.546875 44.28125 53.078125 
z
" id="DejaVuSans-115"/>
      <path d="M 30.609375 48.390625 
Q 23.390625 48.390625 19.1875 42.75 
Q 14.984375 37.109375 14.984375 27.296875 
Q 14.984375 17.484375 19.15625 11.84375 
Q 23.34375 6.203125 30.609375 6.203125 
Q 37.796875 6.203125 41.984375 11.859375 
Q 46.1875 17.53125 46.1875 27.296875 
Q 46.1875 37.015625 41.984375 42.703125 
Q 37.796875 48.390625 30.609375 48.390625 
z
M 30.609375 56 
Q 42.328125 56 49.015625 48.375 
Q 55.71875 40.765625 55.71875 27.296875 
Q 55.71875 13.875 49.015625 6.21875 
Q 42.328125 -1.421875 30.609375 -1.421875 
Q 18.84375 -1.421875 12.171875 6.21875 
Q 5.515625 13.875 5.515625 27.296875 
Q 5.515625 40.765625 12.171875 48.375 
Q 18.84375 56 30.609375 56 
z
" id="DejaVuSans-111"/>
      <path d="M 41.109375 46.296875 
Q 39.59375 47.171875 37.8125 47.578125 
Q 36.03125 48 33.890625 48 
Q 26.265625 48 22.1875 43.046875 
Q 18.109375 38.09375 18.109375 28.8125 
L 18.109375 0 
L 9.078125 0 
L 9.078125 54.6875 
L 18.109375 54.6875 
L 18.109375 46.1875 
Q 20.953125 51.171875 25.484375 53.578125 
Q 30.03125 56 36.53125 56 
Q 37.453125 56 38.578125 55.875 
Q 39.703125 55.765625 41.0625 55.515625 
z
" id="DejaVuSans-114"/>
      <path d="M 32.171875 -5.078125 
Q 28.375 -14.84375 24.75 -17.8125 
Q 21.140625 -20.796875 15.09375 -20.796875 
L 7.90625 -20.796875 
L 7.90625 -13.28125 
L 13.1875 -13.28125 
Q 16.890625 -13.28125 18.9375 -11.515625 
Q 21 -9.765625 23.484375 -3.21875 
L 25.09375 0.875 
L 2.984375 54.6875 
L 12.5 54.6875 
L 29.59375 11.921875 
L 46.6875 54.6875 
L 56.203125 54.6875 
z
" id="DejaVuSans-121"/>
      <path d="M 56.203125 29.59375 
L 56.203125 25.203125 
L 14.890625 25.203125 
Q 15.484375 15.921875 20.484375 11.0625 
Q 25.484375 6.203125 34.421875 6.203125 
Q 39.59375 6.203125 44.453125 7.46875 
Q 49.3125 8.734375 54.109375 11.28125 
L 54.109375 2.78125 
Q 49.265625 0.734375 44.1875 -0.34375 
Q 39.109375 -1.421875 33.890625 -1.421875 
Q 20.796875 -1.421875 13.15625 6.1875 
Q 5.515625 13.8125 5.515625 26.8125 
Q 5.515625 40.234375 12.765625 48.109375 
Q 20.015625 56 32.328125 56 
Q 43.359375 56 49.78125 48.890625 
Q 56.203125 41.796875 56.203125 29.59375 
z
M 47.21875 32.234375 
Q 47.125 39.59375 43.09375 43.984375 
Q 39.0625 48.390625 32.421875 48.390625 
Q 24.90625 48.390625 20.390625 44.140625 
Q 15.875 39.890625 15.1875 32.171875 
z
" id="DejaVuSans-101"/>
      <path d="M 37.109375 75.984375 
L 37.109375 68.5 
L 28.515625 68.5 
Q 23.6875 68.5 21.796875 66.546875 
Q 19.921875 64.59375 19.921875 59.515625 
L 19.921875 54.6875 
L 34.71875 54.6875 
L 34.71875 47.703125 
L 19.921875 47.703125 
L 19.921875 0 
L 10.890625 0 
L 10.890625 47.703125 
L 2.296875 47.703125 
L 2.296875 54.6875 
L 10.890625 54.6875 
L 10.890625 58.5 
Q 10.890625 67.625 15.140625 71.796875 
Q 19.390625 75.984375 28.609375 75.984375 
z
" id="DejaVuSans-102"/>
     </defs>
     <g transform="translate(344.244178 53.594687)scale(0.1 -0.1)">
      <use xlink:href="#DejaVuSans-104"/>
      <use x="63.378906" xlink:href="#DejaVuSans-105"/>
      <use x="91.162109" xlink:href="#DejaVuSans-115"/>
      <use x="143.261719" xlink:href="#DejaVuSans-116"/>
      <use x="182.470703" xlink:href="#DejaVuSans-111"/>
      <use x="243.652344" xlink:href="#DejaVuSans-114"/>
      <use x="284.765625" xlink:href="#DejaVuSans-105"/>
      <use x="312.548828" xlink:href="#DejaVuSans-99"/>
      <use x="367.529297" xlink:href="#DejaVuSans-32"/>
      <use x="399.316406" xlink:href="#DejaVuSans-51"/>
      <use x="462.939453" xlink:href="#DejaVuSans-32"/>
      <use x="494.726562" xlink:href="#DejaVuSans-121"/>
      <use x="553.90625" xlink:href="#DejaVuSans-101"/>
      <use x="615.429688" xlink:href="#DejaVuSans-97"/>
      <use x="676.708984" xlink:href="#DejaVuSans-114"/>
      <use x="717.822266" xlink:href="#DejaVuSans-32"/>
      <use x="749.609375" xlink:href="#DejaVuSans-102"/>
      <use x="784.814453" xlink:href="#DejaVuSans-111"/>
      <use x="845.996094" xlink:href="#DejaVuSans-114"/>
      <use x="884.859375" xlink:href="#DejaVuSans-101"/>
      <use x="946.382812" xlink:href="#DejaVuSans-99"/>
      <use x="1001.363281" xlink:href="#DejaVuSans-97"/>
      <use x="1062.642578" xlink:href="#DejaVuSans-115"/>
      <use x="1114.742188" xlink:href="#DejaVuSans-116"/>
      <use x="1153.951172" xlink:href="#DejaVuSans-115"/>
     </g>
    </g>
   </g>
  </g>
 </g>
 <defs>
  <clipPath id="p9518e9f21c">
   <rect height="271.8" width="446.4" x="27.447303" y="22.318125"/>
  </clipPath>
 </defs>
</svg>
