<?xml version='1.0' encoding='utf-8'?>
<svg xmlns="http://www.w3.org/2000/svg" version="1.1" width="1538" height="580" viewBox="0 0 1538 580">
  <metadata>Generated SVG from PNG</metadata>
  <g transform="translate(30, 30)">
    <g transform="translate(0.000000,520.000000) scale(0.100000,-0.100000)" fill="#ffffff" stroke="none">
      <path d="M700 2810 l0 -1302 548 5 c598 5 626 8 807 68 309 103 542 339 639 647 51 163 60 250 60 577 1 249 -3 317 -18 400 -89 483 -372 775 -856 882 -63 13 -164 17 -627 20 l-553 4 0 -1301z m1016 869 c287 -50 460 -229 530 -544 9 -42 17 -147 21 -260 8 -286 -14 -428 -94 -595 -78 -163 -201 -266 -379 -316 -47 -14 -116 -18 -336 -21 l-278 -5 0 876 0 876 238 0 c131 0 265 -5 298 -11z" />
      <path d="M3850 3654 c-14 -2 -59 -9 -100 -15 -406 -60 -682 -330 -728 -713 l-8 -66 250 2 251 3 7 55 c23 188 141 307 341 345 148 28 349 13 450 -35 69 -32 123 -98 137 -167 21 -98 -4 -167 -78 -214 -71 -45 -155 -67 -402 -105 -458 -71 -604 -110 -747 -203 -188 -122 -272 -280 -273 -513 0 -174 40 -287 138 -386 119 -120 305 -182 544 -182 343 0 633 135 794 370 26 39 51 67 54 63 4 -5 15 -75 24 -158 9 -82 20 -167 23 -187 l6 -38 193 0 194 0 0 774 c0 868 1 859 -70 1001 -49 101 -102 161 -189 219 -154 103 -323 145 -601 151 -102 2 -196 2 -210 -1z m595 -1317 c-61 -238 -256 -430 -490 -482 -114 -26 -272 -18 -346 17 -90 41 -130 108 -131 214 0 78 25 137 82 188 83 75 191 110 490 161 155 27 304 69 370 104 l35 19 3 -80 c2 -49 -3 -103 -13 -141z" />
      <path d="M6295 3619 c-259 -33 -425 -159 -510 -386 l-32 -83 -28 230 -28 230 -199 0 -198 0 0 -1050 0 -1050 239 0 240 0 4 603 c3 538 6 609 22 672 37 146 103 235 211 287 85 40 182 56 392 64 l182 7 0 244 0 243 -112 -1 c-62 -1 -144 -6 -183 -10z" />
    </g>
    <g transform="translate(0.000000,520.000000) scale(0.100000,-0.100000)" fill="#e4ee16" stroke="none">
      <path d="M7140 4143 c-1 -123 -22 -377 -34 -416 -35 -116 -62 -130 -263 -135 l-153 -4 0 -204 0 -204 205 0 205 0 0 -477 c0 -619 12 -751 85 -910 93 -202 257 -268 692 -280 l223 -6 0 230 0 231 -178 3 c-173 4 -178 5 -237 34 -120 60 -126 95 -132 703 l-5 472 276 0 276 0 0 215 0 215 -275 0 -275 0 0 280 0 280 -205 0 -205 0 0 -27z" />
      <path d="M9025 3653 c-323 -39 -534 -161 -636 -367 -104 -211 -85 -482 46 -642 19 -23 60 -59 92 -80 125 -83 267 -125 608 -178 257 -41 366 -66 435 -101 91 -46 124 -117 100 -214 -34 -141 -197 -211 -460 -198 -177 9 -280 47 -357 130 -49 53 -61 75 -84 147 l-17 55 -262 3 -262 2 6 -47 c12 -82 37 -165 76 -248 110 -238 298 -368 625 -431 116 -23 463 -26 575 -5 419 76 651 320 650 684 -1 227 -93 379 -285 473 -118 57 -260 93 -550 138 -354 56 -457 91 -502 171 -56 99 -2 233 115 283 136 59 392 53 519 -11 70 -36 130 -107 151 -179 l17 -58 248 0 249 0 -7 43 c-12 73 -64 218 -101 278 -121 199 -324 312 -629 348 -84 10 -292 13 -360 4z" />
    </g>
    <g transform="translate(30, 30)">
      <circle cx="1245.582" cy="250" r="190" fill="none" stroke="#e4ee16" stroke-width="10" />
      <circle cx="1275.082" cy="250" r="142.5" fill="none" stroke="#e4ee16" stroke-width="10" />
      <circle cx="1304.665" cy="250" r="95.0" fill="none" stroke="#e4ee16" stroke-width="10" />
      <circle cx="1334.247" cy="250" r="47.5" fill="none" stroke="#e4ee16" stroke-width="10" />
    </g>
  </g>
</svg>
