<?xml version='1.0' encoding='utf-8'?>
<svg xmlns="http://www.w3.org/2000/svg" version="1.1" width="1538" height="580" viewBox="0 0 1538 580">
  <metadata>Generated SVG from PNG</metadata>
  <g transform="translate(30, 30)">
    <g transform="translate(0.000000,520.000000) scale(0.100000,-0.100000)" fill="#ffffff" stroke="none">
      <path d="M700 2810 l0 -1302 548 5 c598 5 626 8 807 68 309 103 542 339 639 647 51 163 60 250 60 577 1 249 -3 317 -18 400 -89 483 -372 775 -856 882 -63 13 -164 17 -627 20 l-553 4 0 -1301z m1016 869 c287 -50 460 -229 530 -544 9 -42 17 -147 21 -260 8 -286 -14 -428 -94 -595 -78 -163 -201 -266 -379 -316 -47 -14 -116 -18 -336 -21 l-278 -5 0 876 0 876 238 0 c131 0 265 -5 298 -11z" />
      <path d="M3850 3654 c-14 -2 -59 -9 -100 -15 -406 -60 -682 -330 -728 -713 l-8 -66 250 2 251 3 7 55 c23 188 141 307 341 345 148 28 349 13 450 -35 69 -32 123 -98 137 -167 21 -98 -4 -167 -78 -214 -71 -45 -155 -67 -402 -105 -458 -71 -604 -110 -747 -203 -188 -122 -272 -280 -273 -513 0 -174 40 -287 138 -386 119 -120 305 -182 544 -182 343 0 633 135 794 370 26 39 51 67 54 63 4 -5 15 -75 24 -158 9 -82 20 -167 23 -187 l6 -38 193 0 194 0 0 774 c0 868 1 859 -70 1001 -49 101 -102 161 -189 219 -154 103 -323 145 -601 151 -102 2 -196 2 -210 -1z m595 -1317 c-61 -238 -256 -430 -490 -482 -114 -26 -272 -18 -346 17 -90 41 -130 108 -131 214 0 78 25 137 82 188 83 75 191 110 490 161 155 27 304 69 370 104 l35 19 3 -80 c2 -49 -3 -103 -13 -141z" />
      <path d="M6295 3619 c-259 -33 -425 -159 -510 -386 l-32 -83 -28 230 -28 230 -199 0 -198 0 0 -1050 0 -1050 239 0 240 0 4 603 c3 538 6 609 22 672 37 146 103 235 211 287 85 40 182 56 392 64 l182 7 0 244 0 243 -112 -1 c-62 -1 -144 -6 -183 -10z" />
    </g>
    <g transform="translate(0.000000,520.000000) scale(0.100000,-0.100000)" fill="#e4ee16" stroke="none">
      <path d="M12245 4204 c-396 -59 -694 -199 -952 -448 -258 -247 -409 -519 -485 -866 -19 -92 -22 -133 -22 -330 0 -197 3 -238 22 -330 76 -347 227 -619 485 -866 226 -218 504 -362 821 -426 150 -31 459 -33 611 -4 787 146 1355 829 1355 1626 0 269 -60 516 -185 759 -197 382 -533 670 -939 806 -178 60 -276 76 -491 80 -104 2 -203 1 -220 -1z m440 -114 c562 -96 1035 -499 1214 -1037 62 -184 75 -267 75 -493 0 -174 -4 -220 -22 -303 -143 -646 -633 -1119 -1273 -1228 -106 -18 -150 -21 -299 -16 -248 8 -407 46 -625 152 -454 221 -771 641 -856 1133 -39 232 -20 516 51 732 186 568 677 984 1265 1069 116 17 345 12 470 -9z" />
      <path d="M12485 3755 c-388 -72 -707 -312 -880 -663 -85 -172 -119 -326 -119 -532 0 -74 6 -169 13 -210 78 -439 398 -807 822 -944 135 -43 265 -60 423 -53 194 8 324 41 491 124 309 153 540 438 633 780 24 91 26 112 26 303 0 191 -2 212 -26 303 -122 447 -458 770 -918 882 -94 23 -362 29 -465 10z m465 -113 c258 -69 471 -208 622 -407 155 -204 231 -426 231 -675 0 -126 -15 -224 -54 -344 -100 -305 -352 -575 -644 -687 -165 -64 -214 -73 -410 -73 -164 0 -189 3 -280 27 -267 72 -505 246 -657 481 -68 106 -110 203 -146 335 -22 85 -25 116 -25 261 0 145 3 176 25 261 36 132 78 229 146 335 170 262 435 441 739 499 111 21 352 14 453 -13z" />
      <path d="M12796 3314 c-153 -34 -276 -102 -386 -214 -111 -113 -174 -230 -207 -383 -21 -101 -13 -287 17 -382 80 -255 284 -451 540 -522 102 -28 312 -25 410 6 138 43 225 95 330 201 161 160 224 314 224 540 0 226 -63 380 -224 540 -104 105 -191 158 -325 200 -94 29 -281 36 -379 14z m375 -121 c107 -37 211 -105 284 -186 68 -75 140 -214 160 -312 31 -148 12 -286 -59 -430 -109 -220 -323 -361 -566 -372 -199 -10 -358 53 -501 196 -137 137 -199 284 -199 471 0 116 17 188 72 300 58 120 178 240 298 299 113 55 189 71 320 67 85 -2 121 -8 191 -33z" />
      <path d="M13123 2876 c-95 -31 -179 -111 -210 -199 -22 -67 -22 -167 1 -234 23 -69 92 -145 164 -180 49 -24 69 -28 142 -28 71 0 94 4 142 27 66 31 127 90 159 156 20 39 24 63 24 142 0 110 -19 161 -87 231 -79 81 -229 120 -335 85z m168 -98 c52 -15 113 -68 138 -121 76 -157 -58 -344 -233 -325 -130 15 -230 154 -198 276 35 134 165 209 293 170z" />
      <path d="M7140 4143 c-1 -123 -22 -377 -34 -416 -35 -116 -62 -130 -263 -135 l-153 -4 0 -204 0 -204 205 0 205 0 0 -477 c0 -619 12 -751 85 -910 93 -202 257 -268 692 -280 l223 -6 0 230 0 231 -178 3 c-173 4 -178 5 -237 34 -120 60 -126 95 -132 703 l-5 472 276 0 276 0 0 215 0 215 -275 0 -275 0 0 280 0 280 -205 0 -205 0 0 -27z" />
      <path d="M9025 3653 c-323 -39 -534 -161 -636 -367 -104 -211 -85 -482 46 -642 19 -23 60 -59 92 -80 125 -83 267 -125 608 -178 257 -41 366 -66 435 -101 91 -46 124 -117 100 -214 -34 -141 -197 -211 -460 -198 -177 9 -280 47 -357 130 -49 53 -61 75 -84 147 l-17 55 -262 3 -262 2 6 -47 c12 -82 37 -165 76 -248 110 -238 298 -368 625 -431 116 -23 463 -26 575 -5 419 76 651 320 650 684 -1 227 -93 379 -285 473 -118 57 -260 93 -550 138 -354 56 -457 91 -502 171 -56 99 -2 233 115 283 136 59 392 53 519 -11 70 -36 130 -107 151 -179 l17 -58 248 0 249 0 -7 43 c-12 73 -64 218 -101 278 -121 199 -324 312 -629 348 -84 10 -292 13 -360 4z" />
    </g>
  </g>
</svg>
