<svg xmlns="http://www.w3.org/2000/svg" viewBox="0 0 24 24" width="48" height="48">
  <g fill="#0071bc">
    <!-- Group of people -->
    <circle cx="9" cy="8" r="2"/>
    <circle cx="15" cy="8" r="2"/>
    <path d="M9 11c-2.7 0-8 1.3-8 4v2h16v-2c0-2.7-5.3-4-8-4z"/>
    <path d="M15.5 11c-.3 0-.6 0-1 .1 1.2.8 2 2 2 3.4V17h6.5v-2c0-2.7-5.3-4-7.5-4z"/>
    <!-- Heart accent -->
    <path d="M12 21.5l-1.5-1.3C5.4 15.6 2 12.5 2 8.8c0-2.4 1.8-4.3 4.2-4.3 1.3 0 2.6.6 3.4 1.6.8-1 2-1.6 3.4-1.6 2.4 0 4.2 1.9 4.2 4.3 0 3.7-3.4 6.8-8.5 11.4L12 21.5z" opacity="0.3"/>
  </g>
</svg>
